<svg xmlns="http://www.w3.org/2000/svg" width="850" height="600" style="font-family:Lato,&quot;Helvetica Neue&quot;,Helvetica,Arial,&quot;Liberation Sans&quot;,sans-serif;font-size:18px;background-color:#fff;text-rendering:geometricPrecision;-webkit-font-smoothing:antialiased" version="1.1" viewBox="0 0 850 600"><defs><style>@import url(https://ourworldindata.org/fonts.css);</style></defs><defs><pattern id="noDataPattern" width="4" height="4" patternTransform="rotate(-45 2 2)" patternUnits="userSpaceOnUse"><path stroke="#ccc" stroke-width=".7" d="M-1 2h6"/></pattern></defs><path fill="#fff" d="M0 0h850v600H0z" class="background-fill"/><g id="header" class="HeaderView"><g id="logo" transform="translate(769 16)"><svg xmlns="http://www.w3.org/2000/svg" width="65" height="36" fill="none" className="owidLogo" viewBox="0 0 65 36"><path fill="#002147" d="M0 0h64.8v36H0z"/><path fill="#CE261E" d="M0 33.3h64.8V36H0z"/><path fill="#fff" d="M13.8 10.57c0 .64-.11 1.23-.32 1.77a4.2 4.2 0 0 1-.9 1.4 4.08 4.08 0 0 1-1.38.94c-.54.22-1.14.33-1.8.33-.65 0-1.25-.11-1.8-.33a4.15 4.15 0 0 1-1.39-.93 4.2 4.2 0 0 1-.9-1.4A4.83 4.83 0 0 1 5 10.56c0-.63.1-1.22.32-1.76a4.18 4.18 0 0 1 .9-1.4 4.08 4.08 0 0 1 1.38-.93 4.68 4.68 0 0 1 1.8-.34c.66 0 1.26.11 1.8.34a4.08 4.08 0 0 1 2.28 2.33c.21.54.32 1.13.32 1.76Zm-1.66 0c0-.47-.06-.9-.2-1.27a2.67 2.67 0 0 0-.53-.97 2.33 2.33 0 0 0-.87-.6A2.94 2.94 0 0 0 9.4 7.5c-.42 0-.8.07-1.14.21-.34.14-.63.35-.87.61a2.74 2.74 0 0 0-.55.97 3.96 3.96 0 0 0-.19 1.27c0 .48.06.9.2 1.29a2.42 2.42 0 0 0 1.42 1.56c.33.14.71.2 1.13.2.43 0 .8-.06 1.14-.2a2.37 2.37 0 0 0 1.4-1.56 4.01 4.01 0 0 0 .2-1.29Zm3.96-1.81v3.9c0 .39.09.68.26.89.18.2.44.3.79.3.25 0 .5-.06.72-.17a2.58 2.58 0 0 0 .63-.47V8.76H20v6.15h-.91c-.2 0-.32-.09-.38-.27l-.1-.49a4.65 4.65 0 0 1-.4.35 2.58 2.58 0 0 1-.43.27 2.35 2.35 0 0 1-.5.17 2.35 2.35 0 0 1-.57.07c-.34 0-.64-.06-.9-.17a1.82 1.82 0 0 1-.64-.49 2.16 2.16 0 0 1-.4-.73 3.23 3.23 0 0 1-.14-.95V8.76h1.48Zm5.23 6.15V8.76h.87c.15 0 .26.02.32.08s.1.15.12.29l.09.74c.22-.38.47-.68.77-.9.3-.22.63-.33 1-.33.3 0 .55.07.75.21l-.19 1.11c-.01.07-.04.13-.08.16a.28.28 0 0 1-.16.04 1.01 1.01 0 0 1-.25-.04 1.65 1.65 0 0 0-.41-.04c-.3 0-.57.08-.8.25-.21.17-.4.42-.55.75v3.83h-1.48Zm6.02-8.67h1.35a.57.57 0 0 1 .35.1c.1.06.16.15.2.26l1.47 5.2a10.12 10.12 0 0 1 .19.9 5.97 5.97 0 0 1 .22-.9l1.7-5.2a.57.57 0 0 1 .2-.25.54.54 0 0 1 .34-.11h.48a.57.57 0 0 1 .34.1.5.5 0 0 1 .2.26l1.69 5.2c.08.25.16.53.22.85a31.71 31.71 0 0 1 .19-.86l1.47-5.19c.03-.1.1-.18.19-.25a.56.56 0 0 1 .34-.11h1.27l-2.7 8.67h-1.45L33.7 9l-.08-.25a9.5 9.5 0 0 1-.07-.28 4.04 4.04 0 0 1-.15.53L31.5 14.9h-1.46l-2.7-8.67Zm15.42 2.42c.46 0 .88.07 1.25.22s.7.36.96.63.47.6.61 1 .22.83.22 1.31c0 .5-.08.93-.22 1.32a2.85 2.85 0 0 1-.61 1 2.65 2.65 0 0 1-.96.64 3.35 3.35 0 0 1-1.25.22 3.4 3.4 0 0 1-1.25-.22 2.71 2.71 0 0 1-.97-.63 2.92 2.92 0 0 1-.62-1 3.8 3.8 0 0 1-.21-1.33c0-.48.07-.92.21-1.31a2.75 2.75 0 0 1 1.58-1.63 3.4 3.4 0 0 1 1.26-.22Zm0 5.2c.51 0 .9-.17 1.13-.51.25-.35.38-.85.38-1.52s-.13-1.17-.38-1.51c-.24-.35-.62-.53-1.13-.53-.52 0-.9.18-1.15.53-.25.35-.37.85-.37 1.51s.12 1.17.37 1.52c.25.34.63.51 1.15.51Zm3.95 1.05V8.76h.87c.15 0 .26.02.32.08s.1.15.12.29l.1.74c.21-.38.47-.68.76-.9.3-.22.63-.33 1-.33.3 0 .56.07.76.21l-.2 1.11c0 .07-.03.13-.07.16a.28.28 0 0 1-.17.04 1.01 1.01 0 0 1-.24-.04 1.65 1.65 0 0 0-.42-.04c-.3 0-.57.08-.79.25-.22.17-.4.42-.56.75v3.83h-1.48ZM52.96 6v8.91h-1.48V6h1.48Zm5.77 8.91c-.19 0-.32-.09-.38-.27l-.12-.6a3.68 3.68 0 0 1-.4.4 2.5 2.5 0 0 1-.98.5 2.37 2.37 0 0 1-.6.06c-.33 0-.64-.07-.92-.2a2.1 2.1 0 0 1-.73-.61 3.03 3.03 0 0 1-.46-1 5.07 5.07 0 0 1-.17-1.34c0-.45.07-.88.19-1.27s.3-.73.53-1.02c.24-.29.51-.51.84-.67a2.38 2.38 0 0 1 1.09-.25 2.1 2.1 0 0 1 1.54.6V6h1.48v8.91h-.9Zm-1.97-1.08c.3 0 .57-.07.78-.2.22-.12.42-.3.62-.54v-2.76a1.45 1.45 0 0 0-.56-.43 1.6 1.6 0 0 0-.63-.13c-.23 0-.43.04-.61.13a1.21 1.21 0 0 0-.47.38c-.12.17-.22.39-.28.65a4.3 4.3 0 0 0-.02 1.84c.06.25.14.45.25.61.1.16.24.27.4.34.15.07.33.1.52.1Zm-40.43 6.93v6.15h-1.48v-6.15h1.48Zm.22-1.8a.84.84 0 0 1-.07.36.96.96 0 0 1-.21.3 1 1 0 0 1-.3.2.96.96 0 0 1-.38.07.95.95 0 0 1-.36-.07 1.02 1.02 0 0 1-.5-.5.96.96 0 0 1 0-.73 1 1 0 0 1 .2-.3.93.93 0 0 1 .3-.2.9.9 0 0 1 .73 0 .91.91 0 0 1 .3.2.94.94 0 0 1 .3.67Zm1.22 7.95v-6.15h.9c.2 0 .32.09.38.27l.1.48a2.93 2.93 0 0 1 .84-.61 2.3 2.3 0 0 1 1.07-.24c.34 0 .63.06.9.18.25.1.47.27.64.48.18.2.3.45.4.73.09.29.13.6.13.95v3.91h-1.48V23c0-.38-.08-.67-.26-.87-.17-.21-.43-.32-.78-.32-.26 0-.5.06-.72.18a2.58 2.58 0 0 0-.64.47v4.45h-1.48Zm16.45-4.34c0 .64-.1 1.22-.32 1.76-.21.53-.5.99-.9 1.37a4 4 0 0 1-1.38.9 4.87 4.87 0 0 1-1.8.31h-3.3v-8.67h3.3a4.79 4.79 0 0 1 1.8.32 4 4 0 0 1 1.39.9c.38.37.68.83.9 1.36.2.53.31 1.12.31 1.75Zm-1.65 0c0-.47-.06-.9-.2-1.27a2.68 2.68 0 0 0-.54-.96 2.33 2.33 0 0 0-.86-.6 2.94 2.94 0 0 0-1.14-.22h-1.69v6.1h1.69c.42 0 .8-.06 1.14-.2.34-.14.63-.34.86-.6a2.75 2.75 0 0 0 .55-.96 4.01 4.01 0 0 0 .19-1.29Zm7.41 4.34h-.67a.75.75 0 0 1-.33-.06c-.07-.04-.13-.13-.17-.25l-.14-.44c-.15.14-.3.26-.46.37a2.8 2.8 0 0 1-.46.26c-.16.08-.33.13-.51.17a3.07 3.07 0 0 1-1.32-.05 1.62 1.62 0 0 1-.57-.32 1.45 1.45 0 0 1-.37-.52 1.85 1.85 0 0 1-.13-.73c0-.23.06-.46.18-.68.12-.23.33-.44.61-.62.29-.18.67-.33 1.14-.45a8.01 8.01 0 0 1 1.75-.2v-.36c0-.42-.08-.72-.26-.92-.17-.2-.42-.3-.76-.3a1.84 1.84 0 0 0-1.01.28l-.33.19a.66.66 0 0 1-.33.08.43.43 0 0 1-.26-.08.61.61 0 0 1-.17-.2l-.27-.46c.7-.65 1.56-.98 2.56-.98.36 0 .68.06.96.18a1.99 1.99 0 0 1 1.16 1.25c.1.29.16.6.16.96v3.88ZM37.1 26c.15 0 .3-.01.42-.04a1.81 1.81 0 0 0 .69-.33c.1-.09.22-.19.32-.3v-1.04c-.43.02-.79.06-1.08.12a2.8 2.8 0 0 0-.7.2.92.92 0 0 0-.37.3.66.66 0 0 0-.11.36c0 .26.07.45.22.56.16.11.36.17.61.17ZM43.22 27c-.53 0-.94-.15-1.23-.45-.29-.3-.43-.72-.43-1.25v-3.44h-.63a.31.31 0 0 1-.2-.08c-.06-.05-.09-.13-.09-.23v-.6l.99-.15.31-1.68a.3.3 0 0 1 .11-.2.36.36 0 0 1 .22-.06h.77v1.94h1.62v1.06h-1.62v3.33c0 .2.05.35.14.45a.49.49 0 0 0 .39.17.73.73 0 0 0 .39-.1l.12-.07a.2.2 0 0 1 .11-.04.16.16 0 0 1 .11.04c.03.02.06.05.09.1l.44.71c-.21.18-.46.32-.74.41a2.77 2.77 0 0 1-.87.14Zm7.2-.1h-.66a.75.75 0 0 1-.33-.06c-.08-.04-.14-.13-.18-.25l-.13-.44c-.16.14-.31.26-.47.37a2.8 2.8 0 0 1-.46.26c-.16.08-.33.13-.5.17a3.07 3.07 0 0 1-1.33-.05 1.62 1.62 0 0 1-.57-.32 1.45 1.45 0 0 1-.36-.52 1.85 1.85 0 0 1-.14-.73c0-.23.06-.46.18-.68.13-.23.33-.44.62-.62.28-.18.66-.33 1.13-.45a8.01 8.01 0 0 1 1.76-.2v-.36c0-.42-.1-.72-.27-.92-.17-.2-.42-.3-.75-.3a1.84 1.84 0 0 0-1.02.28l-.33.19a.66.66 0 0 1-.33.08.43.43 0 0 1-.25-.08.61.61 0 0 1-.18-.2l-.27-.46c.7-.65 1.56-.98 2.56-.98.36 0 .68.06.96.18a1.99 1.99 0 0 1 1.17 1.25c.1.29.15.6.15.96v3.88ZM47.54 26c.16 0 .3-.01.42-.04a1.88 1.88 0 0 0 .69-.33l.33-.3v-1.04c-.44.02-.8.06-1.09.12a2.8 2.8 0 0 0-.7.2.92.92 0 0 0-.37.3.66.66 0 0 0-.11.36c0 .26.08.45.23.56.15.11.36.17.6.17Z"/></svg></g><a id="title" href="https://ourworldindata.org/grapher/breast-cancer-death-rate-in-women" rel="noopener" style="font-family:&quot;Playfair Display&quot;,Georgia,&quot;Times New Roman&quot;,&quot;Liberation Serif&quot;,serif" target="_blank"><text x="16" y="40" fill="#5b5b5b" font-size="24.75" font-weight="600"><tspan x="16" y="40.01">Breast cancer death rate in women, 2022</tspan></text></a><g id="subtitle" class="markdown-text-wrap"><text x="16" y="63.9" fill="#5b5b5b" style="font-size:14.625px;line-height:1.2"><tspan x="16" y="63.9">Reported deaths from breast <tspan class="dod-span" data-id="cancer">cancer</tspan> per 100,000 women, based on the <tspan class="dod-span" data-id="underlying-cause-of-death">underlying cause</tspan> listed on death</tspan><tspan x="16" y="81.4">certificates.</tspan></text></g></g><g id="chart-area" style="pointer-events:none"><g class="mapTab"><g class="ChoroplethMap" clip-path="url(#boundsClip-3)"><defs><clipPath id="boundsClip-3"><path d="M16 84.8h818v392.1H16z"/></clipPath></defs><g class="subunits"><g class="noDataFeatures" transform="matrix(.87476 0 0 .87476 -57.52 91.26)"><defs><pattern id="noDataPatternForMapChart-World" width="4" height="4" patternTransform="matrix(.80835 -.80835 .80835 .80835 -.83 2)" patternUnits="userSpaceOnUse"><path stroke="#ccc" stroke-width=".7" d="M-1 2h6"/></pattern></defs><path fill="url(#noDataPatternForMapChart-World)" fill-opacity="1" stroke="#aaa" stroke-opacity="1" stroke-width=".34" d="m633.3 142.5 2.8 1.1 1.8-.4.2-1.3 1.9-.5 1.2-.9-.1-2.4 2-.6.1-1.1 1.4.8.8.1 1.4.1 2 .6.8.4 1.6-1 1 .6.4-1.4 1.5.1.3-.5-.1-1.2.8-1 1.5.6v1l.8.1.5 2.5 1.2 1 .7-.6 1-.3 1.2-1.4 1.8.3h2.5l.7.8-1.3.4-1.1.5-2.8.4-2.5.6-1.1 1.3.9 1.3.6 1.5-.9 1.3.4 1.1-.5 1.1-2.4-.1 1.5 2-1.5.8-.7 1.8.5 1.8-.8.8-1-.2-1.8.4-.1.8h-1.9l-1.1 1.7.3 2.6-3.1 1.2-1.8-.2-.4.6-1.6-.4-2.5.5-4.5-1.6 1.8-2.7-.5-1.9-2-.5-.6-2-1.3-2.4.8-1.6-1.2-.5.3-2.2ZM531.4 126.9v.8l-.8.4v1l-1 1.4-.5-.2-.1-.6-1.4-1-.3-1.5v-2l.2-.9-.4-.5-.3-.9 1-1.5.2.6.6-.3.6.8.6.3.3 1.1-.3 1 .5 1.3ZM511.2 179.2l-8.8 5.8-7.5 5.9-3.7 1.3-2.9.3-.1-1.9-1.2-.5-1.6-.8-.6-1.5-8.8-6.5-8.8-6.6-9.6-7.3.1-.6V163l4.2-2.2 2.6-.5 2.1-.8 1-1.5 3-1.2.1-2.2 1.5-.3 1.2-1.1 3.3-.5.5-1.2-.7-.6-.9-3.2-.1-1.8-.9-2 2.4-1.6 2.7-.5 1.6-1.3 2.4-.9 4.2-.5 4.1-.3 1.3.5 2.3-1.2h2.6l1.1.7 1.7-.2-.5 1.5.5 2.9-.5 2.5-1.5 1.7.2 2.2 2.2 1.8v.8l1.6 1.2 1.2 5.4.9 2.7.2 1.4-.4 2.4.2 1.4-.3 1.7.3 1.8-1 1.3 1.6 2.2.1 1.3.9 1.7 1.2-.6 2.1 1.4ZM483.4 121.7l.2-.1h.2l.3.1V122l-.6.2-.1-.1v-.2ZM543.4 283l.2.9-.3 1.5.4 1.4-.4 1.1.2 1H538l-.4 9.6 1.7 2.5 1.7 1.8-4.9 1.3-6.3-.5-1.8-1.4-10.7.1-.4.2-1.5-1.3-1.7-.1-1.6.5-1.3.6-.2-1.9.4-2.7 1-2.7.1-1.3.9-2.7.7-1.3 1.5-2 .9-1.3.3-2.2-.1-1.7-.8-1.1-.7-1.8-.6-1.9.1-.6.8-1.2-.7-2.9-.6-2-1.3-1.9.3-.6 1.1-.4h.7l1-.3h7.8l.7 2.3.7 1.8.6 1 1 1.5 1.8-.2.8-.4 1.5.4.4-.8.7-1.7 1.6-.1.2-.6h1.3l-.2 1.1h3.2l.1 1.9.5 1.1-.4 1.9.1 1.8.9 1.1-.2 3.6.7-.2h1.1l1.7-.4Zm-31-15.5-.7-2.3 1.1-1.3.8-.5 1 1-1 .7-.4.7-.1 1.3ZM594 133.2l-1.8-.4-1.5-1.4-.6-1.1.5-.1.9.8h1.1l.1.5Zm3-8 1.2-1.2 1.6 1.6 1.7 2.1 1.1.1 1 .9-2 .2v2.3l-.2 1.1-.8.7.4 1.5-.6.1-1.8-1.6.5-1.4-.9-.9-.8.2-2.5 2.2-.5-2.1-1.2-.5-1.2-.8.5-.9-1.5-1.1.4-.7-1-.5-.7-.8.5-.5 2 .9 1.3.1.3-.3-1.5-1.6.5-.4.7.1 2.1 1.8 1.1.2ZM278.5 178.3l-.6.2-.5-1.7-.8-.9.8-1.9.8.1.6 2.5Zm.6-8.5-2.9.5v-1.1l1.2-.2 1.7.1Zm2.1 0-.8 2.2-.4-.4.3-1.6-1-1.2.1-.3ZM610.9 172l-.1.2-.1-.1-.2-.4v-.2l-.2-.5.1-.1h.3l-.1.1.2.2ZM721.6 183.5l.3 2.2-1-.5.5 2.5-1-1.6-.3-1.5-.8-1.5-1.3-1.8-2.4-.1.4 1.3-.6 1.6-1.2-.6-.3.6-.8-.3-1-.3-.8-2.5-1.2-2.3.2-1.8-1.8-.8.4-1.1 1.5-1.1-2.2-1.6.6-2.1 2.3 1.3 1.2.2.6 2.1 2.6.4h2.4l1.5.5-.7 2.5-1.2.2-.5 1.7 1.6 1.6.2-1.9.7-.1ZM322.7 210.6h-.1l-.3-.1v-.6h.2l.3.5ZM245.9 196.3v-.4l.3-.2.5.4 1.2-1.9h.5l-.1.5h.5l-.1.8-.6 1.3.1.5-.4 1 .2.3-.5 1.5-.6.8-.5.1-.6 1.1h-.8l.6-3.4ZM487.2 231.1l-2.2.4-.7-2.1.1-6.9-.5-.7-.1-1.4-.9-1.1-.9-.9.4-1.6.9-.3.5-1.3 1.3-.3.6-.9.9-.9h.9l2.1 1.7-.1 1 .6 1.8-.6 1.2.3.9-1.3 1.8-.8.9-.5 1.9.1 2ZM716 166.2l1.3 1 .2 1.9-2.1.1-2.2-.2-1.6.4-2.5-1.1-.2-.6 1.2-2.3 1.3-.7 2 .7h1.3ZM305.3 318.6l-1.8.4-1.5-4.2-1.8-3.4.5-2.9-1.5-1.3-.5-2.1-1.5-2.1 1.3-3.2-1.3-2.6.5-1-.6-1.1.9-1.5-.1-2.6v-2.1l.5-1-2.6-4.9 2 .3 1.3-.1.6-.9 2.2-1.2 1.4-1.1 3.4-.6-.2 2.3.4 1.2-.1 2 3.1 2.7 3 .5 1.1 1.1 1.8.6 1.1.9h1.7l1.6.8.2 1.8.6.9.1 1.3h-.7l1.2 3.5 5.1.2-.3 1.7.4 1.2 1.5.8.8 1.9-.3 2.4-.6 1.3.4 1.7-.7.6-.2-.9-2.6-1.5-2.4-.1-4.5.9-1 2.7.1 1.6-.7 3.6-.4-.6-3-.2-.8 2.5-1.7-2.2-3.5-.8ZM556.7 316.6l-3.8 2.2-2.4 2.3-1 2-.8 1.1-1.4.3-.5 1.4-.4 1-1.6.7-2.1-.2-1.2-.8-1.1-.4-1.3.7-.7 1.4-1.3 1-1.3 1.3-1.9.3-.5-1.1.3-1.8-1.4-2.9-.7-.4.3-8.8 2.6-.1.4-10.8 1.9-.1 4.1-1 1 1.2 1.7-1.2h.8l1.5-.6.5.2.9 2.4.5.5.7 1.8 2.9 3.3 1.1.3-.1 1.1.7 1.9 2 .5Z" cursor="pointer"/><path fill="url(#noDataPatternForMapChart-World)" fill-opacity="1" stroke="#aaa" stroke-opacity="1" stroke-width=".34" d="m472.5 220.9-1.8-.8-1.3.2-.9.7-1.2-.6-.4-1-1.2-.7-.2-1.7.7-1.3v-1l2.1-2.5.4-2.1.7-.7 1.3.4 1.1-.6.4-.8 2-1.4.5-.9 2.5-1.3 1.4-.4.7.6h1.7l-.2 1.4.3 1.4 1.5 2 .1 1.4 3.1.7-.1 2.1-.6.9-1.3.3-.5 1.3-.9.3h-2.3l-1.3-.3-.8.5-1.2-.2-4.6.1-.1 1.8ZM558.1 263.6l-.2-3.7-.6-1.3 1.6.2.8-1.7 1.4.2.2 1.2.6.7v.9l-.7.7-1 1.5-1 1.1ZM751.4 213.2l-.9-3.6 1.4-2.5 3.3-.6 2.5.5 2.4 1.1.9-2 2.5 1.1.8 2 .1 3.6-4.2 2.3 1.3 1.8-2.8.3-2.2 1.2-2.2-.5-1.2-1.5ZM514.8 243.2l-.3-.2-1.6.4-1.6-.4-1.3.2-4.3-.1.4-2.4-1.1-2-1.2-.5-.5-1.3-.7-.5v-.8l.7-2.1 1.2-2.9.8-.1 1.6-1.7 1-.1 1.5 1.3 1.8-1.1.3-1.2.5-1.2.4-1.5 1.5-1.3.5-2.1.5-.7.4-1.5.7-2 2.2-2.3.1-1 .3-.5-1.1-1.2.1-1 .7-.2 1.1 2 .2 2-.1 2 1.5 2.7h-1.5l-.7.2-1.2-.3-.6 1.4 1.6 1.8 1.2.5.3 1.2.9 2.1-.4.8-1.3 3.1-.7.5-.1 2.4.2 1.2-.2.9 1.3 1.6.2 1.1 1 1.5 1.2 1 .2 1.4.2.9-.1 1.6-2.2-.7-2.1-.8ZM415.8 205.2l-.1.1h-.2l-.2-.3.1-.1.3-.2.1.1.1.2Zm3-.8h-.1l-.1-.2v-.2l.1-.2h.2l.1.2v.3Zm-.7.4-.2.3-.3-.1-.4-.5v-.2l.1-.2v-.3h.2v.2l.4.4Zm1.5-3.8.3.1h.1l.2.1v.3l-.1.2-.3.1h-.2l-.1-.1.2-.4Zm-3-1.1.1.1-.1.1-.4-.1h-.1l-.2.3-.2-.4v-.1l.1-.1.3.1Zm3.1-.1-.1.1-.1-.2-.1-.3.2-.1h.1Zm-5.2-.5-.4.1-.2-.1.1-.2.3-.1.2.2Zm-.7-.4-.3.1-.1-.1v-.2l-.1-.1v-.1l.6-.3h.3l.1.3-.1.1Z" cursor="pointer"/><path fill="url(#noDataPatternForMapChart-World)" fill-opacity="1" stroke="#aaa" stroke-opacity="1" stroke-width=".34" d="m520.6 227.6 2.2-.2.5-.8.4.1.7.7 3.3-1.2 1.1-1.2 1.4-1-.3-1.1.8-.3 2.5.2 2.5-1.4 1.9-3.3 1.3-1.2 1.7-.5.3 1.3 1.6 1.9v1.2l-.4 1.3.2.9.9.9 2 1.3 1.5 1.2v1l1.9 1.6 1.1 1.3.7 1.8 2 1.2.4.9-.9.3h-1.7l-2-.4-1 .3-.4.7-.8.1-1.1-.6-2.9 1.5-1.2-.3-.4.2-.8 1.8-2-.5-1.9-.3-1.7-1.1-2.2-1.1-1.4 1-1.1 1.5-.2 2.1-1.7-.1-1.8-.5-1.6 1.6-1.4 2.8-.2-.9-.2-1.4-1.2-1-1-1.5-.2-1.1-1.3-1.6.2-.9-.2-1.2.1-2.4.7-.5Z" cursor="pointer"/><path fill="url(#noDataPatternForMapChart-World)" fill-opacity="1" stroke="#aaa" stroke-opacity="1" stroke-width=".34" d="m518.3 211.2.3-1.4-1.7-.1v-1.9l-1.2-1.1 1.1-4 3.3-2.8.1-4 .8-6.1.6-1.3-1.1-1-.1-1-1-.8-.7-4.6 2.5-1.7 10.6 5.8 10.6 5.8.5 11.9-2.2-.2-1.2 2.2-.6 1.9.5.7-.8.9.3 1.3-.6 1.2-.3 1.1.9-.1.6 1.1.1 1.8 1 .9v.7l-1.7.5-1.3 1.2-1.9 3.3-2.5 1.4-2.5-.2-.8.3.3 1.1-1.4 1-1.1 1.2-3.3 1.2-.7-.7-.4-.1-.5.8-2.2.2.4-.8-.9-2.1-.3-1.2-1.2-.5-1.6-1.8.6-1.4 1.2.3.7-.2h1.5l-1.5-2.7.1-2-.2-2ZM769.4 193.7l-2.1 1.4-2.3-.9-.5-2.6 1.1-1.4 2.7-.8 1.5.1.8 1.1-.9 1.3Zm10.9-92.3 4.2 2.1 2.8 2.8h3.6l1.2-1.2 3.3-.8.6 2.6-.2 1.1 1.4 3.2.3 2.9-3.3-.5-1.3 1 2.2 2.6 1.8 3.5h-1.1l.9 1.6-2.6-1.8v1.7l-3 1.3 1.3 1.5-2.2-.1-1.7-.9-.5 2.1-1.8 1.6-1 1.9-3 .9-1.1 1.4-2.3.8.6-1.4-1-1.1.9-2-2.1-1.6-1.6 1-1.7 2.1-.6 2-2.4.1-.6 1.4 2.3 2 2.2.5.7 1.4 2.4.9 1.8-2.2 2.7 1.2 1.7.1 1.1 1.5-3.2.9-.5 1.6-1.7 1.5-.5 2.1 3.4 1.7 2.2 2.9 2.5 2.8 2.6 2.3.8 2.3-1.4.8 1.2 1.6 1.8.9.4 2.5v2.4l-1.3.3-1 3.2-1.1 4-1.6 3.6-3 2.8-3.1 2.5-2.9.3-1.3 1.4-1.1-1-1.2 1.5-3.4 1.5-2.6.5-.4 3.2-1.4.1-1.1-2.2.4-1.1-3.6-1-1.2.5-2.7-.8-1.5-1.2.1-1.7-2.4-.6-1.5-1.1-1.9 1.6-2.5.3h-2.1l-1.3.8-1.2.4.9 3.4h-1.4l-.3-.7-.3-1.3-1.8.9-1.2-.6-2.1-1.1.3-2.5-1.7-.6-1.1-2.8-2.7.5-.2-3.5 1.9-2.6-.4-2.5-.6-2.3-1.3-.7-1.3-1.8-1.4.3-2.9-.5.6-1.2-1.7-1.9-1.5 1.2-2.3-.7-2.5 1.9-1.9 2.3-2 .3-1.3-.8h-1.3l-2-.7-1.3.7-1.2 2.3-.7-2.4-1.4.6-3.1-.3-3.1-.7-2.3-1.3-2.1-.6-1.2-1.4-1.5-.5-3-1.9-2.3-.9-.9.7-4-2.1-2.9-1.9-1.5-3.4 1.9.4-.3-1.5-1.4-1.5-.4-2.5-3.6-3.5-4.5-1.3-1.3-2.3-2.3-1.4-.7-.8-.8-1.7-.3-1.2-1.7-.7-.7.3-1.4-2.8.5-.7-.6-.7 1.9-1.4 1.5-.6 2.8.4.3-1.9 3-.3.4-1.2 3.3-1.6.1-.7-.8-1.7 1.4-.8-4.2-5.1 4.3-1.2.9-.7-.5-5.3 5.1 1 .8-1.3-1.2-3 1.8-.3.9-1.9.8-.2 1.5 2 2.7 1.6 3.9 1.1 2.7 2.3.6 3.5 1.4 1.3 3.1.5 3.4.4 3.7 1.8 1.7.4 2.3 2.7 2.2 1.8 2.7-.1 5.3.7 3-.4 2.6.4 4.4 1.8h2.9l1.6.9 2-1.6 3.5-1 3.5-.1 2.3-1.1.9-1.6 1.2-1-.9-.9-1.4-1.2.2-1.9 1.5.3 2.8.6 1.5-1.6 3-1.1.6-2 1.2-.8 3.2-.4 2 .3-.3-1-3.4-2.1-2.5-.9-1.1 1-2.6-.4-1.1.4-1.3-1.2-.2-3-.2-2.2 3.4 1.1 2.1-1.8-.9-1.3V95l.6-.9-1.2-1.6-1.8-.7.8-1.4 2.4-.5 3-.1 4 .8 2.8 1.1 3.6 2.9 1.8 1.3 2.1 1.7 2.9 2.9ZM595.8 287.2l-.3.1-.1-.2v-.1h.2Zm1.8-.7.2.4v.3l-.1.1-.1-.1-.2-.2-.5-.3h.5v-.1l.1-.1Zm-2.6-.6v.1l-.4-.3-.2-.2.1-1 .1-.1.1-.1.1.1v.7l.2.4.1.3ZM514.6 264.4l-1-1-.8.5-1.1 1.3-2.2-3.2 2.1-1.7-1-2 .9-.7 1.8-.4.2-1.3 1.4 1.4 2.4.2.8-1.5.3-2-.3-2.3-1.2-1.8 1.1-3.5-.6-.6-2 .2-.8-1.5.2-1.3 3.4.1 2.1.8 2.2.7.1-1.6 1.4-2.8 1.6-1.6 1.8.5 1.7.1-.1 1.9-.8 1.6-.5 1.8-.4 2.7.2 1.7-.4 1.1-.1 1.1-.3.9-1.8 1.5-1.2 1.6-1.2 2.9.1 2.5-.7.9-1.5 1.5-1.6 1.9-1-.5-.2-.9h-1.4l-.9 1.1ZM472.4 234.9l-1.2.1-1.9-.6h-1.7l-3.1.5-1.9.9-2.6 1.1-.5-.1.2-2.4.2-.4v-1.2l-1.2-1.3-.8-.2-.8-.8.6-1.3-.2-1.5.1-.9h.4l.2-1.3-.2-.6.2-.4 1-.4-.6-2.4-.6-1.2.2-1 .5-.3.4-.3.7.5h2l.5-.9.5.1.8-.3.4 1.3.6-.4 1.1-.5 1.2.7.4 1 1.2.6.9-.7 1.3-.2 1.8.8.7 4.3-1.1 2.5-.7 3.5 1.1 2.5Z" cursor="pointer"/><path fill="url(#noDataPatternForMapChart-World)" fill-opacity="1" stroke="#aaa" stroke-opacity="1" stroke-width=".34" d="m563 243.4-.8 1-1 .8-1.1 1.6-.5 1.4-.2 2.4-.6 1.2v2.2l-.8.9-.1 1.8-.4.2-.2 1.7.6 1.3.2 3.7.4 2.7-.3 1.6.5 1.8 1.5 1.7 1.4 3.8-1-.4-3.6.6-.7.3-.8 1.9.6 1.4-.6 3.5-.4 3.1.7.5 1.8 1.2.8-.6.1 3.3h-2l-1.1-1.7-.9-1.3-2-.4-.6-1.6-1.6 1-2.1-.5-.9-1.3-1.7-.3-1.2.1-.1-1h-.9l-1.2-.2-1.7.4h-1.1l-.7.2.2-3.6-.9-1.1-.1-1.8.4-1.9-.5-1.1-.1-1.9h-3.2l.2-1.1h-1.3l-.2.6-1.6.1-.7 1.7-.4.8-1.5-.4-.8.4-1.8.2-1-1.5-.6-1-.7-1.8-.7-2.3h-7.8l-1 .3h-.7l-1.1.4-.4-.9.7-.4.1-1.3.4-.7 1-.7.7.3.9-1.1h1.4l.2.9 1 .5 1.6-1.9 1.5-1.5.7-.9-.1-2.5 1.2-2.9 1.2-1.6 1.8-1.5.3-.9.1-1.1.4-1.1-.2-1.7.4-2.7.5-1.8.8-1.6.1-1.9.2-2.1 1.1-1.5 1.4-1 2.2 1.1 1.7 1.1 1.9.3 2 .5.8-1.8.4-.2 1.2.3 2.9-1.5 1.1.6.8-.1.4-.7 1-.3 2 .4h1.7l.9-.3 1.7 2.5 1.2.4.7-.5 1.2.2 1.5-.7.6 1.3 2.4 2-.1 3.5ZM593.9 211.7l.7.9v1.3l-1.5.7 1.2.8-1 1.6-.6-.5-.6.2h-1.5l-.1-.9-.2-.9.8-1.4.9-1.3 1.2.2ZM318.4 204l-.3.1v-.5l-.2-.4.1-.2v-.1l.4.1.1.2v.5ZM811.7 276.8l.3-.7 2.4-.7 1.8-.1.9-.3 1 .3-1.1.8-2.9 1.4-2.2.8v-.9ZM505.3 247l-.5-.5.9-3.4 4.3.1.1 3.6h-3.9Z" cursor="pointer"/><path fill="url(#noDataPatternForMapChart-World)" fill-opacity="1" stroke="#aaa" stroke-opacity="1" stroke-width=".34" d="m592 212.2-.9-1-1.2-1.8-1.2-.9-.7-1.1-2.4-1.2h-1.8l-.7-.7-1.5.8-1.6-1.4-.8 2.2-3.1-.6-.3-1.2 1-4.4.1-2 .8-1 1.9-.5 1.2-1.7 1.8 3.5.8 2.8 1.5 1.5 3.8 2.8 1.5 1.7 1.5 1.8.9 1 1.3.9-.7.7ZM562.8 330.6l-.6 1.4-1.6.3-1.4-1.6v-1.1l.8-1.1.3-.9.8-.2 1.3.5.3 1.4Z" cursor="pointer"/><path fill="url(#noDataPatternForMapChart-World)" fill-opacity="1" stroke="#aaa" stroke-opacity="1" stroke-width=".34" d="M583.8 206.2h1.8l2.4 1.2.7 1.1 1.2.9 1.2 1.8.9 1-.9 1.3-.8 1.4.2.9.1.9h1.5l.6-.2.6.5-.5 1.1 1 1.7 1.1 1.4 1 1.1 8.8 3.6h2.2l-7.3 9-3.5.1-2.3 2.2h-1.7l-.7 1h-1.8l-1.1-1-2.4 1.2-.8 1.3-1.8-.3-.6-.3-.6.1-.8-.1-3.4-2.5h-1.9l-.9-1v-1.7l-1.4-.5-1.6-3.3-1.3-.7-.5-1.2-1.3-1.5-1.7-.2.9-1.7 1.4-.1.4-.9-.1-2.7.7-3.2 1.2-.8.2-1.2 1.1-2.3 1.6-1.5.9-3 .3-2.6 3.1.6.8-2.2 1.6 1.4 1.5-.8ZM948.8 302.3l.7.9-.8 1.5-1.7.5-1.4-.4.1-1.3 1.2-1.1 1.2.4Zm3-1.6-1.8.6-.1-1.1 1.5-.6.8-.2 1.8-.9-.3 1.4Zm-945.3-.9-.2.1-.3-1.4.5-.2ZM334.8 243l.7-1.3.2-1.3.5-1.3-1-1.8-.1-2.1 1.4-2.6.9.4 2 .7 2.7 2.5.4 1.3-1.6 2.7-.9 2.2-1 1.2-1.3.2-.3-.8-.6-.2-.8.9ZM640.9 396.2l1.1.9 2.1.4-.1.5-1.2 1.4-3.6.1.5-1.5.8-1.2ZM509.5 262l-2.7-3-1.8-2.5-1.6-3.1.1-1.1.6-.9.7-2.2.5-2.2.9-.2h3.9l-.1-3.6 1.3-.2 1.6.4 1.6-.4.3.2-.2 1.3.8 1.5 2-.2.6.6-1.1 3.5 1.2 1.8.3 2.3-.3 2-.8 1.5-2.4-.2-1.4-1.4-.2 1.3-1.8.4-.9.7 1 2ZM435.5 210.3l.3-1.3 2.9-.1.6-.7h.9l1 .7h.8l.9-.5.5.9-1.1.6h-1.2l-1.1-.6-1 .7h-.5l-.6.4ZM482.8 232.1l-4.2 1.8-1.4 1-2.4.9-2.4-.9.1-1.2-1.1-2.5.7-3.5 1.1-2.5-.7-4.3-.4-2.2.1-1.8 4.6-.1 1.2.2.8-.5 1.3.3-.2.9 1.1 1.6v2.2l.2 2.3.7 1.1-.6 2.7.2 1.5.7 2ZM405.9 16.6l6-1.1 5.4.1 2.4-.6 5.6-.2 12.4.2 9.3 1.4-3.1.7-6.2.1-8.6.1.6.4 5.8-.2 4.6.6 3.3-.6 1.1.7-2.1 1.1 4.3-.7 8-.7 4.7.3.8.8-6.9 1.4-1 .4-5.4.4 3.8.1-2.3 1.5-1.7 1.4-.6 2.5 1.7 1.4-2.7.1-3 .7 2.9 1.2v2l-2 .2 1.9 2-4 .2 1.8 1-.7.8-2.7.4h-2.6l2 1.7-.2 1-3.5-1-1.1.7 2.4.6 2.1 1.5.3 2-3.5.5-1.2-1-2-1.4.2 1.7-2.5 1.3 5 .1 2.6.1-5.6 2.2-5.8 2.1-5.9.8h-2.2l-2.3 1-3.5 2.8-4.8 1.8-1.4.1-2.9.7-3.1.6-2.2 1.6-.7 1.9-1.6 1.8-4 2.1.1 2.1-1.7 2.3-1.9 2.7-3 .1-2.4-2.2h-4.2l-1.5-1.5-.4-2.7-2.3-3.3-.3-1.8.7-2.4-1.7-2.4 1.5-1.9-.9-.9 3.3-3.1 3.4-.9 1.2-1.1 1.3-2-2.6.9-1.2.4-1.9.4-2-.9.8-1.7 1.4-1.3h1.8l3.5.6-2.5-1.5-1.2-.9-2.1.4-1.2-.7 3.3-2.2-.6-.9-.5-1.7-.7-2.5-1.7-1 .6-.9-3.8-1.4-3.6-.1-4.8.1-4.4.1-1.5-.7-1.8-1.4 5.1-.7 3.6-.1-6.9-.6-3-.9 1-.9 7.4-1 7.1-1.1 1.3-.8-3.8-.7 2.2-.8 6.9-1.3 2.5-.2.1-.9 4.2-.5 5.1-.2 5-.1 1.3.6 5-1 3.3.7 2.1.1 3 .6-3.2-1ZM457.6 226.8l-.8-.1-.5 1.3-.8-.1-.5-.6.2-1.2-1.1-1.9-.7.4h-.6l-.7.2v-1.1l-.4-.8.1-.8-.5-1.3-.8-1.1h-2.1l-.6.6h-.8l-.4.7-.3.8-1.5 1.4-1.1-1.8-1-1.2-.7-.4-.7-.6-.2-1.3-.4-.7-.8-.5 1.2-1.5.8.1.7-.5h.6l.4-.4-.2-1 .3-.3.1-1.1 1.2.1 1.9.7.6-.1.2-.3 1.5.2.3-.1.2 1.1h.4l.7-.4.4.1.8.7 1.1.3.7-.7.9-.4.6-.4.6.1.5.6.3.9 1.1 1.2-.5.8-.1 1 .5-.3.4.4-.2.9.8.8-.5.3-.2 1 .6 1.2.6 2.4-1 .4-.2.4.2.6-.2 1.3Z" cursor="pointer"/><path fill="url(#noDataPatternForMapChart-World)" fill-opacity="1" stroke="#aaa" stroke-opacity="1" stroke-width=".34" d="m439.9 216.7-1.4-1.3-1.1-.2-.6-.8v-.5l-.8-.6-.1-.6 1.4-.5.9.1.7-.4 4.9.1-.1 1.1-.3.3.2 1-.4.4h-.6l-.7.5-.8-.1ZM292.3 190.5v1.7l-.3 1.1-.7.6.6.9-.2.8-1.7-.5-1.2.2-1.6-.2-1.3.5-1.3-.9.4-1 2.3.4 2 .3 1-.7-1.1-1.3.2-1.2-1.6-.4.7-.9 1.6.2ZM249.2 210.8l-.4-.9-.8-.3.3-1.2-.3-.3-.6-.2-1.1.3-.1-.4-.8-.4-.5-.6-.7-.3.6-.8-.1-.6.2-.5 1.3-.9 1.4-1.1.2.1.7-.5.7-.1.2.3.5-.2 1.2.3 1.2-.1.9-.3.3-.4.8.2.6.2.7-.1.6-.2 1.1.4h.5l.7.6.7.7.9.4.6.9-.9-.1-.4.4-.9.4h-.7l-.6.4-.5-.1-.4-.5-.3.1-.4.7h-.3l-.1.6-1 .8-.5.4-.3.4-.7-.6-.7.8-.5-.1-.7.1v1.5h-.4l-.4.7ZM675.1 143l3.6 3.5.4 2.5 1.4 1.5.3 1.5-1.9-.4 1.5 3.4 2.9 1.9 4 2.1-1.3 1.3-.4 2.9 2.7 1.1 2.7 1.5 3.7 1.7 3.6.4 1.7 1.5 2.1.3 3.2.7 2.2-.1v-1.2l-.7-1.9v-1.3l1.4-.6.7 2.4.2.6 2.5 1.1 1.6-.4 2.2.2 2.1-.1-.2-1.9-1.3-1 2-.3 1.9-2.3 2.5-1.9 2.3.7 1.5-1.2 1.7 1.9-.6 1.2 2.9.5.4 1.1-.7.6.6 1.8-2-.5-2.9 2.1.5 1.7-1 2.5.1 1.5-.7 2.5-2.2-.7.4 3.1-.4 1 .5 1.3-1.2.7-2.1-4.8-.7.1-.2 1.9-1.6-1.6.5-1.7 1.2-.2.7-2.5-1.5-.5h-2.4l-2.6-.4-.6-2.1-1.2-.2-2.3-1.3-.6 2.1 2.2 1.6-1.5 1.1-.4 1.1 1.8.8-.2 1.8 1.2 2.3.8 2.5-.2 1.1-1.8-.1-3.1.7.4 2.2-1.1 1.8-3.5 2.1-2.5 3.5-1.8 1.9-2.4 2 .2 1.4-1.2.7-2.3 1.1-1.2.2-.6 2.3.9 3.9.4 2.5-.9 2.8.3 5.2-1.4.1-1 2.3.8 1-2.4.9-.8 2-1 .9-2.6-2.8-1.5-4.3-1.2-3-1-1.4-1.6-2.9-1-3.8-.6-1.9-2.7-4.1-1.7-5.9-1.2-3.8-.4-3.7-.8-2.8-3.6 1.8-1.9-.4-3.8-3.6 1.1-1.1-.9-1.2-3.3-2.5 1.5-2.1h5.7l-.9-2.5-1.6-1.6-.7-2.3-1.9-1.3 2.4-3.2 3 .2 2.1-3.1 1.1-3.1 1.8-3-.5-2.2 1.8-1.7-2.4-1.5-1.3-2.1-1.6-2.6.9-1.3 4 .7 2.7-.4ZM800 280.9h-1.1l-3.3-2.1 2.5-.6 1.3.9.9 1Zm11.7-4.1.2.6v.9l-2 2.3-2.3.6-.3-.3.3-1 1.3-1.9Zm-18.6-2.4.9.8 1.6-.2.6 1.3-3.1.6-1.9.4-1.4-.1 1-1.7h1.5Zm13.3 0-.6 1.7-4 .8-3.5-.3.1-1.1 2.1-.7 1.6.9 1.8-.2Zm-37.7-4 5.1.3.6-1.2 4.9 1.4.8 2 4 .6 3.1 1.7-3.1 1.2-2.9-1.2-2.4.1-2.7-.3-2.4-.5-3.1-1.2-1.9-.3-1.1.4-4.8-1.2-.4-1.3-2.4-.2 2-2.9 3.2.2 2.1 1.1 1.1.3Zm69.5-1.7-1.5 2.1-.1-2.3.5-1.1.6-1 .6.9Zm-19.4-8.3-1.1 1-1.8-.5-.5-1.3 2.7-.2Zm8.6-1.1.8 2.3-2.1-1.2-2.3-.3-1.5.2-1.8-.1.7-1.6 3.3-.1Zm28.1-1.5-.5 9.9-.8 9.8-2.1-2.5-2.7-.6-.7.9-3.4.1 1.4-2.5 1.7-.8-.4-3.3-1.2-2.5-5-2.6-2.1-.2-3.9-2.8-.8 1.4-1.1.3-.5-1.1V260l-1.9-1.5 2.9-1.1 1.9.1-.2-.8h-3.9l-1.1-1.8-2.3-.6-1.1-1.5 3.6-.7 1.3-1 4.3 1.3.4 1.1.6 4.9 2.7 1.8 2.4-3.2 3.1-1.9h2.3l2.3 1.1 1.9 1.1Zm-41.9-12.1-2.1 3-2 .6-2.6-.6-4.4.2-2.3.4-.4 2.3 2.3 2.6 1.5-1.3 5-1-.3 1.3-1.1-.4-1.2 1.8-2.4 1.1 2.4 3.9-.5 1 2.2 3.5-.1 2-1.5.9-1-1.1 1.4-2.4-2.6 1.1-.6-.8.4-1.2-1.9-1.7.3-3-1.8.9.1 3.6-.1 4.3-1.7.4-1.1-.9.9-2.8-.3-2.9H797l-.8-2 1.2-2 .4-2.4 1.4-4.6.6-1.2 2.2-2.2 2.1.8 3.4.5 3-.2 2.6-2.2Zm9.2.9-.1 2.6-1.4-.3-.4 1.9 1.1 1.6-.8.3-1-1.9-.8-3.9.5-2.4.8-1.1.2 1.7 1.6.3Zm-50.7-2.7.4 2.1 1.9 1.7 1.7-.6 1.7.2 1.5-1.6 1.3-.2 2.5.8 2.2-.6 1.3-4.2 1-1.1.7-3.4h3.1l2.3.5-1.4 2.7 2.1 2.9-.5 1.4 3.1 2.8-3.2.3-.9 2.1.2 2.7-2.6 2.1-.2 3-1.2 4.6-.3-1.1-3.1 1.4-1-1.9-1.9-.1-1.3-1-3.2 1.1-.9-1.5-1.7.2-2.2-.4-.3-4-1.3-.8-1.3-2.6-.4-2.7.3-2.7Zm-10.7 23.7-3 .1-2.1-2.5-3.3-2.5-1.1-1.8-1.9-2.5-1.3-2.2-1.9-4.2-2.4-2.6-.8-2.5-1-2.4-2.4-1.9-1.5-2.6-2.1-1.7-2.9-3.3-.3-1.5 1.8.1 4.1.6 2.5 2.9 2.1 2.1 1.5 1.2 2.6 3.3h2.7l2.3 2.1 1.6 2.5 2 1.4-1.1 2.4 1.6 1.1.9.1.4 2.1.9 1.7 2 .2 1.2 1.9-.8 3.8ZM593.6 141.5l1.8.9.5 1.8-1.1 1-.3 2.4 2.2 2.8 3.3 1.7 1.7 2.3-.1 2.2h.8l.2 1.6 1.6 1.5-1.5-.1-1.8-.2-1.5 2.8-4.8-.2-7.9-6.1-4-2.1-3.2-.8-1.5-3.7 5.2-3.1.5-3.6-.6-2.2 1.3-.8.9-1.9 1-.4 3 .4 1 .7 1.1-.5ZM276.5 194.2l1.7.3 1.4.7.3.9H278l-.8.5-1.4-.5-1.4-1.1.4-.7 1.1-.2ZM590.8 255.1l-1.9 1.2-.7 1.2-1 .3-.4 2.1-.9 1.2-.5 2-1.1 1-3.8-3-.1-1.8-9.6-6.1-.5-.3v-3.2l.8-1.3 1.3-1.9.9-2.2-1.2-3.5-.3-1.5-1.3-2.1 1.6-1.8 1.8-2 1.4.5v1.7l.9 1h1.9l3.4 2.5.8.1.6-.1.6.3 1.8.3.8-1.3 2.4-1.2 1.1 1h1.8l-2.3 3.4.1 11ZM60.7 243.9l.1.1.2.1v-.1.2h-.1v.2l.1.1h.1l.1.1v.1h.2v.1H61.1v-.1H61l-.3-.1h-.1v-.1l-.1-.1h-.2v-.2h.2-.1v.2h.2l.1.1v-.1h-.1v-.1h.1v.1h.1v-.1h-.1v-.1h.1v-.1.2l.1-.1v-.1h-.1l-.1-.1h-.1v-.1.1h-.1v-.1h.1ZM530.1 123.9l-.3-1.1-.6-.3-.6-.8.4-.7.5-.2.3-1 .4-.1.4.4.5.2.3.4.4.2.6.5h.3l-.2.7-.3.4.1.2-.5.1-1.4.5v.6ZM757.7 207l.7-1.4-.2-2.6-2.4-2.6-.6-3-2.4-2.4-2-.2-.4 1-1.5.1-.8-.5-2.6 1.8-.4-2.7.2-3.2-1.8-.1-.5-1.8-1.2-1 .3-1.1 2-1.9.3.7h1.4l-.9-3.4 1.2-.4 2 2.3 1.6 2.8h3.2l1.4 2.6-1.5.8-.6 1.1 3.4 1.8 2.7 3.6 2.1 2.6 2.3 2.1.9 2.2-.1 3-2.5-1.1-.9 2ZM554.3 337.3l.9.9-.9 1.5-.5 1-1.5.5-.5.9-1 .3-1.7-2.3 1.5-1.9 1.4-1.2 1.3-.6ZM459.5 236.8l-.7.1-2.8-1.5-2.4-2.3-2.2-1.6-1.8-2 .6-.9.2-.9 1.2-1.6 1.2-1.5h.6l.7-.4 1.1 1.9-.2 1.2.5.6.8.1.5-1.3.8.1-.1.9.2 1.5-.6 1.3.8.8.8.2 1.2 1.3v1.2l-.2.4ZM518.7 181.1l-1.9 1.1-1.5-1.7-4.1-1.3-1.2-1.9-2.1-1.4-1.2.6-.9-1.7-.1-1.3-1.6-2.2 1-1.3-.3-1.8.3-1.7-.2-1.4.4-2.4-.2-1.4-.9-2.7 1.3-.7.1-1.3-.3-1.2 1.7-1.2.8-.9 1.2-.9.1-2.3 3 1 1-.3 2.2.5 3.4 1.4 1.3 2.7 2.3.6 3.7 1.2 2.8 1.5 1.2-.8 1.1-1.3-.7-2.4.7-1.4 1.7-1.4 1.8-.4 3.4.6 1 1.3h.9l.9.5 2.5.4.7 1-.8 1.4.5 1.3-.5 1.9.9 2.4.6 10.7.5 11.2.2 6h-3v1.3l-10.6-5.8-10.6-5.8ZM502.6 108l-.1.1.2.1v.1l-.1.1-.1.1-.2-.1.1-.1-.1-.2.1-.3ZM611.1 287.6l.6 1.3.6 2 .2 3.6.6 1.4-.4 1.5-.5.9-.8-1.8-.5.9.3 2.2-.3 1.3-.8.7-.3 2.5-1.3 3.6-1.6 4.1-2 5.7-1.4 4.2-1.4 3.5-2.2.7-2.4 1.3-1.4-.8-1.9-1-.6-1.6v-2.7l-.8-2.4v-2.2l.6-2.2 1.2-.5.1-1 1.4-2.3.4-1.9-.6-1.4-.3-1.9-.1-2.8 1.1-1.7.4-1.9 1.3-.1 1.5-.6 1-.6h1.2l1.6-1.7 2.3-1.9.8-1.5-.2-1.3 1.1.4 1.5-2.1.2-1.8.9-1.4ZM571.5 284.7l-.8 2.3.6 4 .9-.1.9 1 1.1 2.2v3.8l-1.1.7-.9 2.1-1.7-1.9-.1-2.1.6-1.4-.1-1.2-1-.8-.7.3-1.5-1.5-1.4-.7.9-2.8.9-1.1-.4-2.5.6-2.4.5-.9-.7-2.5-1.2-1.4 2.6.6.5.8.9 1.4ZM447.9 205.9l.9-.5.4-1.8.9-.1 1.8.9 1.5-.6 1 .2.4-.7h10.6l.6-2.2-.4-.3-1.2-13-1.1-13.1h3.9l8.8 6.6 8.8 6.5.6 1.5 1.6.8 1.2.5.1 1.9 2.9-.3v7l-1.4 2-.2 1.9-2.4.4-3.5.3-1 1.1-1.7.1h-1.7l-.7-.6-1.4.4-2.5 1.3-.5.9-2 1.4-.4.8-1.1.6-1.3-.4-.7.7-.4 2.1-2.1 2.5v1l-.7 1.3.2 1.7-1.1.5-.6.4-.4-1.3-.8.3-.5-.1-.5.9h-2l-.7-.5-.4.3-.8-.8.2-.9-.4-.4-.5.3.1-1 .5-.8-1.1-1.2-.3-.9-.5-.6-.6-.1-.6.4-.9.4-.7.7-1.1-.3-.8-.7-.4-.1-.7.4h-.4l-.2-1.1.2-1-.2-1.1-1-.9-.5-1.7ZM931.1 232.4l-.1-.1v-.2h.1Zm3.5-3.9.4.2.3-.1-.2.1h-.1l-.4-.1Z" cursor="pointer"/><path fill="url(#noDataPatternForMapChart-World)" fill-opacity="1" stroke="#aaa" stroke-opacity="1" stroke-width=".34" d="m447.9 205.9-1.7-2.1-1.6-2.2-1.7-.8-1.3-.9-1.4.1-1.3.6-1.3-.2-.9.9-.2-1.6.7-1.5.4-2.8-.2-3-.3-1.5.3-1.5-.6-1.4-1.4-1.3.6-1h10.3l-.5-4.4.7-1.5 2.5-.3v-7.7l8.5.2.1-4.6 9.6 7.3h-3.9l1.1 13.1 1.2 13 .4.3-.6 2.2h-10.6l-.4.7-1-.2-1.5.6-1.8-.9-.9.1-.4 1.8ZM913.5 234v.1l-.2-.1.1-.1Zm-12.8-4.5-.1.1-.2-.1-.1-.2-.1-.1v-.1l.2-.1h.2l.2.3-.1.1Zm-17.9-1.6-.1-.1v-.1h.1Zm.7-.3h-.1v-.1h.1Zm-37.1-6.3v-.2h.1l.1.1-.1.1ZM497.9 118.3h-.2v-.1ZM474.6 143.9l.9 2 .1 1.8.9 3.2.7.6-.5 1.2-3.3.5-1.2 1.1-1.5.3-.1 2.2-3 1.2-1 1.5-2.1.8-2.6.5-4.2 2.2v3.8h-11.4l1.9-1.7 3.8-2 1.3-.9 2.2-2.5-.5-3.7 1-2.6.4-1.6 1.7-2 2.6-1.4 1.9-1.3 1.7-3.1.9-1.8h1.8l1.5 1.3 2.4-.3 2.6.7ZM571.5 284.7l2-.2 3.2.8.7-.3 1.8-.1 1-.9h1.6l2.9-1.1 2.2-1.8.4 1.4-.3 3 .3 2.6-.1 4.7.4 1.5-.9 2.2-1.1 2.1-1.8 1.8-2.5 1.2-3 1.4-3.1 3.3-1.1.5-1.9 2.2-1.1.7-.4 2.1 1.1 2.3.4 1.8v.9l.5-.2-.2 3-.5 1.4.5.5-.4 1.2-1.2 1.1-2.2 1-3.2 1.7-1.2 1.1.1 1.3.7.2-.4 1.5h-1.9l-.1-1.3-.3-1.4-.2-1 .7-3.4-.6-2.2-1-4.2 2.9-3.4.8-2.2.4-.3.4-1.7-.4-.9.2-2.3.7-2.1.1-3.8-1.3-1-1.3-.2-.5-.7-1.2-.7-2.2.1-.1-1.1-.2-2.2 8.1-2.5 1.5 1.5.7-.3 1 .8.1 1.2-.6 1.4.1 2.1 1.7 1.9.9-2.1 1.1-.7v-3.8l-1.1-2.2-.9-1-.9.1-.6-4ZM741.3 220l-.4-2.2.6-2.3-1-1.8-.1-3.3-1.2-1.5-1.3-3.6-.9-3.9-1.5-2.5-1.5 1.6-2.7 2.1-1.5-.3-1.8-.7.5-3.7-.9-2.8-2.6-3.5.2-1.1-1.6-.4-2.2-2.4-.5-2.5 1 .5-.3-2.2 1.2-.7-.5-1.3.4-1-.4-3.1 2.2.7.7-2.5-.1-1.5 1-2.5-.5-1.7 2.9-2.1 2 .5-.6-1.8.7-.6-.4-1.1 1.4-.3 1.3 1.8 1.3.7.6 2.3.4 2.5-1.9 2.6.2 3.5 2.7-.5 1.1 2.8 1.7.6-.3 2.5 2.1 1.1 1.2.6 1.8-.9.3 1.3-2 1.9-.3 1.1-1.4.7-1.4 1.3-1.8.2-.7 3.2-1 .6 1.6 2.6 2 2.2 1.3 2-.6 2.6-.9.6.8 1.5 2 2.4.5 1.7.1 1.4 1.3 2.7-1.2 2.8ZM522 336.2l-1.8-2.3-1-2.2-.4-2.9-.6-2.2-.8-4.7.1-3.6-.3-1.6-1-1.3-1.3-2.5-1.3-3.6-.6-1.9-2-2.9-.2-2.3 1.3-.6 1.6-.5 1.7.1 1.5 1.3.4-.2 10.7-.1 1.8 1.4 6.3.5 4.9-1.3 2.2-.6 1.7.1 1 .7v.3l-1.5.6h-.8l-1.7 1.2-1-1.2-4.1 1-1.9.1-.4 10.8-2.6.1-.3 8.8-.5 11.1-2.4 1.6-1.3.2-1.6-.6-1.2-.2-.4-1.3-.9-.8ZM924.6 251.6l.1-.1.1.1v.1h-.2v-.1ZM706.8 165.9v1.3l.7 1.9v1.2l-2.2.1-3.2-.7-2.1-.3-1.7-1.5-3.6-.4-3.7-1.7-2.7-1.5-2.7-1.1.4-2.9 1.3-1.3.9-.7 2.3.9 3 1.9 1.5.5 1.2 1.4 2.1.6 2.3 1.3 3.1.7ZM912.9 313.6l1.7 1.8 1 1.4-1.2.8-1.2-.9-1.5-1.3-1.3-1.6-1.2-2.1-.1-1.1 1.1.1 1.2 1 .9 1ZM902.8 373.3l-.4 1.3 2.6-1.2-.2 1.2-1 1.3-1.9 1.4-3.4 2.2-2.2 1.1-.2 1.5h-1.9l-3 1.1-2.3 2-3.8 3-3 1.3-1.9.8h-2.1l-.7-1-2.4-.2.5-1.1 3-2.2 5.4-2.9 2-.6 2.7-1.1 3.3-1.6 2.6-1.5 2.8-2.2 1.5-.8 1.6-1.7 2.8-1.3Zm13.6-14.3-.2 3.2 1.3-2.1.7.9-1.2 2.2 1.4 1 1.5.3 2.2-1.2 1 .4-2.4 2.6-2 1.8-1.8-.1-1.3.9-.7 1.3-.8.6-2.1 1.6-2.8 2-2.8 1.2.2-.8-.7-.4 3.3-2.4.4-1.7-1.8-1.2.8-1.1 2.5-1 2-2.3 1.2-2 .2-2 .4-.5-.4-1.3-.3-2.6.2-2.2 1-.2.4 1.7 1.5.7ZM485.7 214l.1-2.1-3.1-.7-.1-1.4-1.5-2-.3-1.4.2-1.4 1.7-.1 1-1.1 3.5-.3 2.4-.4.2-1.9 1.4-2v-7l3.7-1.3 7.5-5.9 8.8-5.8 4.1 1.3 1.5 1.7 1.9-1.1.7 4.6 1 .8.1 1 1.1 1-.6 1.3-.8 6.1-.1 4-3.3 2.8-1.1 4 1.2 1.1v1.9l1.7.1-.3 1.4-.7.2-.1 1h-.5l-1.8-3.3-.6-.1-2.1 1.7-2-.9-1.5-.2-.7.5-1.6-.1-1.5 1.2-1.4.1-3.2-1.5-1.2.7-1.4-.1-1-1.1-2.6-1.1-2.9.3-.6.7-.4 1.7-.8 1.2-.1 2.7-2.1-1.7h-.9Z" cursor="pointer"/><path fill="url(#noDataPatternForMapChart-World)" fill-opacity="1" stroke="#aaa" stroke-opacity="1" stroke-width=".34" d="m502.6 235.6-2.7 1.1-1.1-.2-1 .7-2.1-.1-1.4-1.8-.9-2.2-1.9-2h-4.3l.1-4.8-.1-2 .5-1.9.8-.9 1.3-1.8-.3-.9.6-1.2-.6-1.8.1-1 .1-2.7.8-1.2.4-1.7.6-.7 2.9-.3 2.6 1.1 1 1.1 1.4.1 1.2-.7 3.2 1.5 1.4-.1 1.5-1.2 1.6.1.7-.5 1.5.2 2 .9 2.1-1.7.6.1 1.8 3.3h.5l1.1 1.2-.3.5-.1 1-2.2 2.3-.7 2-.4 1.5-.5.7-.5 2.1-1.5 1.3-.4 1.5-.5 1.2-.3 1.2-1.8 1.1-1.5-1.3-1 .1-1.6 1.7-.8.1-1.2 2.9ZM796.7 122.3l.6.5-1-.2-.5 1-.1 1 1.3 2.2-.9.6-.2.6-.4.9-1.4.4-.6.8.6 1.3-.2.4 1.3.5 2 1.3v.7l-.9.2-1.7.2-.3 1.3-1.2-.1v.3l-1.5-.6v.6l-.6.2-.4-.5-.7-.3-.9-.5v-1.3l.4-.4-.5-.5-.1-1.6-.4-.5-1.6-.4-1.6-.8 1-1.9 1.8-1.6.5-2.1 1.7.9 2.2.1-1.3-1.5 3-1.3v-1.7ZM535.3 47.2l.4-1.8-2.7-1-2.8.9-.5 1.9-1.6 1.1-2.2-.6-2.5.1-2.4-1.3-1.1.6-1.1.1v1.7l-3.8-.4-.3 1.4h-1.9l-1 1.9-1.6 2.9-2.7 3.7.8.9-.6 1h-2l-1.1 2.5.5 3.6 1.4 1.4-.4 3.2-1.6 1.9-.8 1.6-1.6-1.7-4 3.2-2.8.7-3.1-1.4-.9-3-.9-6.4 1.9-1.7 5.3-2.3 3.8-2.7 3.4-3.7 4.2-5.1 3-1.9 4.8-3.2 4-1.1 3.2.2 2.4-2.1 3.5.1 3.2-.5 6.5 1.8-2.3.7 2.5 1.6-3 1Zm-12.9-21-3.5.9-3.2-.5 1-.6-1.2-.7 3.4-.4.9.8Zm-12-4 5.9 1.6-4 .8-.6 1.6-1.4.5-.4 1.8-2.1.1-4-1.4 1.4-.8-2.7-.6-3.6-1.8-1.5-1.7 4.4-.8 1 .8 2.4-.1.5-.7 2.4-.1Zm11.4-1.5 3.5.7-2 1.2-4.8.2-5-.3-.5-.6-2.4-.1-2-.9 4.9-.5 2.5.4 1.5-.6ZM667 138l2.3 1.4 1.3 2.3 4.5 1.3-1.8 2.5-2.7.4-4-.7-.9 1.3 1.6 2.6 1.3 2.1 2.4 1.5-1.8 1.7.5 2.2-1.8 3-1.1 3.1-2.1 3.1-3-.2-2.4 3.2 1.9 1.3.7 2.3 1.6 1.6.9 2.5h-5.7l-1.5 2.1-2-.8-1-2.2-2.3-2.3-4.7.6H643l-3.6.5.5-3.5 3.5-1.6-.4-1.4-1.3-.5-.5-2.6-2.6-1.3-1.3-1.9-1.5-1.6 4.5 1.6 2.5-.5 1.6.4.4-.6 1.8.2 3.1-1.2-.3-2.6 1.1-1.7h1.9l.1-.8 1.8-.4 1 .2.8-.8-.5-1.8.7-1.8 1.5-.8-1.5-2 2.4.1.5-1.1-.4-1.1.9-1.3-.6-1.5-.9-1.3 1.1-1.3 2.5-.6 2.8-.4 1.1-.5ZM837.5 227.8h-.1l-.1-.2v-.3l.1-.2h.1l.1.3-.1.2ZM570.2 152.3l.2 1.9-.3.8-1.2.4.1-.7.6-.5-.7-.3.3-2Zm-2.5 2.4.2.2-.6 1ZM894.3 270.6l-.8.3-1.1-1.2-1-1.9-.4-2.3.4-.3.2.9.8.7 1.1 1.9 1.2 1Zm-10.1-4.1-1.4.3-.5.8-1.5.7-1.4.8-1.4-.1-2.1-.8-1.5-.9.3-.9 2.3.4 1.5-.2.5-1.4.4-.1.2 1.6 1.5-.2.8-1.1 1.6-1.1-.2-1.7 1.6-.1.5.5-.2 1.7Zm-30 11 .8-9.8.5-9.9 4.5 2.1 4.8 1.7 1.8 1.6 1.4 1.5.2 1.8 4.4 1.8.5 1.6-2.5.4.4 2 2.2 2 1.5 3.2 1.5-.1-.2 1.3 2 .5-.9.6 2.7 1.2-.4.9-1.8.2-.6-.8-2.2-.3-2.6-.4-1.9-2-1.3-1.6-1.2-2.7-3.3-1.3-2.3.9-1.7 1 .1 2.2-2.2 1-1.4-.5Zm33.3-13.9-.9.8-.4-1.8-.5-1.2-1.2-1-1.4-1.2-1.9-.9.7-.8 1.5.9.8.6 1.1.8 1 1.2 1 1ZM561 253.4l1.1 1.7-.2 1.8-.8.4-1.4-.2-.8 1.7-1.6-.2.2-1.7.4-.2.1-1.8.8-.9.6.4ZM315.5 198.4l-.1.1-.1-.1.1-.2.1.1Zm-.2-.3-.2-.2-.2-.1-.1-.1v-.1l.1-.1.2.2.1.2h.1ZM27.3 292.4h-.8l-.4-.2H26l-.3-.2-.2-.2.2-.1h.4l.7.2.1.2h.1l.2.1Zm-2.7-1.8.4.3.2.4-.2.4-.2-.1-.4.1-.1-.1-.7-.6-.2-.2h.3l.5-.1ZM509.7 117.7l.2-.2.2.1-.1.2h-.2ZM497.7 248.7l.3.4-.2.5-.4.3-.2-.5.1-.3ZM435.8 209l-1-2.3-1.3-1.1 1.2-.6 1.3-2.1.7-1.6.9-.9 1.3.2 1.3-.6 1.4-.1 1.3.9 1.7.8 1.6 2.2 1.7 2.1.1 1.9.5 1.7 1 .9.2 1.1-.2 1-.3.1-1.5-.2-.2.3-.6.1-1.9-.7-1.2-.1-4.9-.1-.7.4-.9-.1-1.4.5-.4-2.4 2.4.1.6-.4h.5l1-.7 1.1.6h1.2l1.1-.6-.5-.9-.9.5h-.8l-1-.7h-.9l-.6.7ZM449.6 229.5l-.7-.2-1.9-1.2-1.4-1.6-.4-1.1-.4-2.2 1.5-1.4.3-.8.4-.7h.8l.6-.6h2.1l.8 1.1.5 1.3-.1.8.4.8v1.1l.7-.2-1.2 1.5-1.2 1.6-.2.9ZM909.7 281.6l.6 1h-1.8l-.8-1.8 1.5.7Zm-3.1-1.8h-1.1l-1.6-.3-.5-.4.3-1.2 1.7.4.8.7Zm2.3-.8-.5.5-1.7-2.6-.4-1.8h.9l.8 2.4Zm-4.4-3.9v.6l-1.9-1.2-1.4-1.1-.9-1 .4-.3 1.2.7 2 1.4Zm-6-2.9-.5.1-1.1-.7-1-1.2.2-.5 1.5 1.3ZM606.9 225.9h-2.2l-8.8-3.6-1-1.1-1.1-1.4-1-1.7.5-1.1 1-1.6.8.6.6 1.2 1.2 1.3h1.4l2.4-.8 2.9-.3 2.3-1 1.3-.2.9-.5 1.5-.1.9-.1 1.2-.4 1.4-.3 1.2-1.1h1l.1.9-.2 1.7.1 1.6-.5 1.1-.7 3.3-1.1 3.3-1.6 3.9-2.2 4.4-2.2 3.4-3 4.1-2.7 2.4-3.9 3-2.5 2.3-2.9 3.7-.6 1.6-.6.7-1.6-2.5-.1-11 2.3-3.4.7-1h1.7l2.3-2.2 3.5-.1ZM570.1 221.5l.1 2.3-.4.9-1.4.1-.9 1.7 1.7.2 1.3 1.5.5 1.2 1.3.7 1.6 3.3-1.8 2-1.6 1.8-1.6 1.4H567l-2.1.7-1.7-.7-1.1.8-2.4-2-.6-1.3-1.5.7-1.2-.2-.7.5-1.2-.4-1.7-2.5-.4-.9-2-1.2-.7-1.8-1.1-1.3-1.9-1.6v-1l-1.5-1.2-1.8-1.2.8-.3.9-.6.7-2.7.7-1.4 1.9-.4.4.8 1.4 1.8.8.3.9-.6 1.9.1.4.7h2.6l.1-.7 1.4-.5.2-.9 1-.6 2.3 1.7 1.3-.3 1.3-2.2 1.4-1.6-.2-1.8-.7-.9 1.6-.2.1-.6 1.3.2-.3 2.2.4 2.2 1.4 1.2.3 1v1.5Z" cursor="pointer"/><path fill="url(#noDataPatternForMapChart-World)" fill-opacity="1" stroke="#aaa" stroke-opacity="1" stroke-width=".34" d="m570.1 221.5-.4-.1v-1.5l-.3-1-1.4-1.2-.4-2.2.3-2.2-1.3-.2-.1.6-1.6.2.7.9.2 1.8-1.4 1.6-1.3 2.2-1.3.3-2.3-1.7-1 .6-.2.9-1.4.5-.1.7h-2.6l-.4-.7-1.9-.1-.9.6-.8-.3-1.4-1.8-.4-.8-1.9.4-.7 1.4-.7 2.7-.9.6-.8.3-.2-.1-.9-.9-.2-.9.4-1.3v-1.2l-1.6-1.9-.3-1.3v-.7l-1-.9-.1-1.8-.6-1.1-.9.1.3-1.1.6-1.2-.3-1.3.8-.9-.5-.7.6-1.9 1.2-2.2 2.2.2-.5-11.9v-1.3h3l-.2-6H576.1l1 2.9-.5.6.5 3.1 1.2 3.6 1.1.7 1.4 1.1-1.2 1.7-1.9.5-.8 1-.1 2-1 4.4.3 1.2-.3 2.6-.9 3-1.6 1.5-1.1 2.3-.2 1.2-1.2.8-.7 3.2ZM328.1 232l3.1.6.3-.6 2.2-.2 2.8.8-1.4 2.6.1 2.1 1 1.8-.5 1.3-.2 1.4-.7 1.2-1.5-.6-1.3.3-1.1-.3-.2.9.4.6-.2.6-1.5-.2-1.6-2.7-.3-1.7h-.8l-1.2-2.1.5-1.6-.1-.7 1.7-.8ZM578 149.3l-4.5 3.3-3-1.2v-.1l.2-.4-.1-1.3.4-1.6 1.2-1.1-.5-1.2-1.2-.2-.5-2.3.5-1.2.6-.7.5-.6V139l.8.6 2.7-.9 1.4.6h2l2.7-1.1h1.4l2.7-.5-.9 1.9-1.3.8.6 2.2-.5 3.6ZM796 176.4l-.5 4.9-.7 2.4-1.9-2.5-.7-2.2.9-3 1.6-2.3 1.4.9ZM570.3 252.9l.5.3 9.6 6.1.1 1.8 3.8 3-1.3 3.7.1 1.7 1.7 1.1.1.8-.8 1.8.1.9-.2 1.5.9 1.9 1 3 1 .6-2.2 1.8-2.9 1.1h-1.6l-1 .9-1.8.1-.7.3-3.2-.8-2 .2-.6-4.1-.9-1.4-.5-.8-2.6-.6-1.5-.9-1.6-.5-1.1-.5-1.1-.7-1.4-3.8-1.5-1.7-.5-1.8.3-1.6-.4-2.7 1.1-.2 1-1.1 1-1.5.7-.7v-.9l-.6-.7-.2-1.2.8-.4.2-1.8-1.1-1.7 1-.3h2.9ZM485 231.5l-2.2.6-.6-1-.7-2-.2-1.5.6-2.7-.7-1.1-.2-2.3v-2.2l-1.1-1.6.2-.9h2.3l-.4 1.6.9.9.9 1.1.1 1.4.5.7-.1 6.9ZM23.4 314.3l.1.4-.2-.2-.1-.1Zm-.8-.4.1-.1.1.1-.1.2-.1-.1-.5-.2.1-.1h.2Zm1.1-7.7-.1.2-.2-.2.1-.2.2.1.1.1ZM316.6 217.6l1.5-.4.6.1-.3 2.2-2.2.3-.5-.2.9-.9ZM504.2 158.6l-1.2-5.4-1.6-1.2v-.8l-2.2-1.8-.2-2.2 1.5-1.7.5-2.5-.5-2.9.5-1.5 2.6-1.2 1.8.3v1.6l2.1-1.1.2.5-1.2 1.5v1.4l.9.7-.2 2.7-1.6 1.5.5 1.6 1.3.1.7 1.4 1 .5-.1 2.3-1.2.9-.8.9-1.7 1.2.3 1.2-.1 1.3ZM633.3 142.5l-.8-2.5-1.8-.1-3.5-2.7-2-.3-3.1-1.6-1.8-.2-1 .5-1.7-.1-1.4 1.8-2.1.5-.8-2.1-.3-3.1-2.2-1.1.2-2-1.7-.2v-2.5l2.5.7 1.9-.9-2.2-1.8-1.1-1.7-1.8.7.3 2.2-1.2-1.9.8-1 2.6-.6 1.9.8 2.3 2.4 1.2-.2h2.7l-.8-1.5 1.9-1.1 1.5-1.7 3.7 1.6.9 2.4 1.1.6 2.6-.2 1 .6 2 3.1 3.3 2 2 1.4 3 1.5 3.6 1.3.4 1.8-.8-.1-1.4-.8-.1 1.1-2 .6.1 2.4-1.2.9-1.9.5-.2 1.3-1.8.4ZM953.5 274.2l.2-.3.2.1-.2.4Zm1.1-1.7.1.1h-.1Zm1 2.9h.1v.3l-.3.2v.1l-.1.1v-.4l.2-.3Zm1.6 2.8v.1l-.1.2V278.2Zm-9 9.4h.4v.2l-.4-.1Zm2.5-15.7-.1-.2h.1Zm-2.5-4.9.1.1.1.1-.1-.1-.2-.1Z" cursor="pointer"/><path fill="url(#noDataPatternForMapChart-World)" fill-opacity="1" stroke="#aaa" stroke-opacity="1" stroke-width=".34" d="m561 253.4-1.6 1-.6-.4v-2.2l.6-1.2.2-2.4.5-1.4 1.1-1.6 1-.8.8-1-1-.5.1-3.5 1.1-.8 1.7.7 2.1-.7h1.9l1.6-1.4 1.3 2.1.3 1.5 1.2 3.5-.9 2.2-1.3 1.9-.8 1.3v3.2l-5.4.2H562ZM921.7 299.7l-.9.4-.6-1.4.3-.8Zm-1-4.7v2.5l-.6-.4-.6.2-.2-.9.4-2.3ZM291.2 214.5l-.1.7-1.6.4.8 1.3-.2 1.6-1.2 1.7.8 2.4 1.2-.2.7-2.1-.8-1.1v-2.3l3.4-1.2-.3-1.4 1-1 .8 2.1 1.9.1 1.6 1.7.1 1h2.3l2.9-.3 1.4 1.3 2 .4 1.6-.9v-.8l3.3-.2h3.2l-2.3.9.9 1.4 2.1.2 1.9 1.5.3 2.4h1.4l1 .7-2.1 1.7-.3 1.1.9 1.2-.7.5-1.7.5.1 1.4-.8.8 1.8 2.3.3.9-1 1.1-3 1.1-2 .5-.7.7-2.1-.7-2-.4-.5.3 1.2.7-.2 2.1.4 1.9 2.2.2.1.7-1.9.8-.3 1.3-1.1.5-2 .7-.5.9-2.1.2-1.4-1.6-.8-3-.7-1-1-.7 1.4-1.5-.1-.7-.7-.9-.5-2 .3-2.1.6-1.1.6-1.6-1-.5-1.5.3-1.9-.1-1.1.3-1.8-2.6-1.5-.4-3.4.3-.6-1-.7-.3v-.6l.3-1.1-.1-1.2-.6-.7-.2-1.4-1.4-.2.8-1.8.5-2.1.8-1.1 1.1-.9.7-1.5ZM761.9 185l-3 2.6-1.7 2.8-.3 2.1 2.5 3.2 3.1 3.9 2.6 1.9 1.9 2.4 1.9 5.6.2 5.3-2 2-2.9 1.9-1.9 2.6-3.2 2.8-1.1-2 .6-2-2.1-1.7 2.2-1.2 2.8-.3-1.3-1.8 4.2-2.3-.1-3.6-.8-2 .1-3-.9-2.2-2.3-2.1-2.1-2.6-2.7-3.6-3.4-1.8.6-1.1 1.5-.8-1.4-2.6h-3.2l-1.6-2.8-2-2.3 1.3-.8h2.1l2.5-.3 1.9-1.6 1.5 1.1 2.4.6-.1 1.7 1.5 1.2ZM446.3 166.8h11.4l-.1.6-.1 4.6-8.5-.2v7.7l-2.5.3-.7 1.5.5 4.4H436l-.6 1 .2-1.3.1-1.4 1.1-.8.9-1.6-.2-1 1-2.2 1.5-1.9.8-.4.8-1.8.1-1.6 1-1.9 1.7-1.1 1-1.7.4-.8ZM619.7 199.8l-1.8.8-.4 1.3v1.1l-2.6 1.2-4.1 1.4-2.3 2.2-1.1.1-.8-.1-1.5 1.2-1.7.6-2.2.1-.6.2-.6.8-.6.2-.4.8-1.3-.1-.9.4-1.8-.1-.8-1.8v-1.6l-.4-.9-.7-2.2-.8-1.3.5-.1-.3-1.4.3-.6-.2-1.3 1.1-1-.3-1.2.6-1.5 1.1.8.7-.3 3-.1.5.3 2.6.3 1-.1.7 1 1.2-.5 1.7-3.2 2.3-1.3 7.5-1.2 2.4 5ZM566.9 277.8l1.2 1.4.7 2.5-.5.9-.6 2.4.4 2.5-.9 1.1-.9 2.8 1.4.7-8.1 2.5.2 2.2-2 .4-1.6 1.2-.3 1-1 .3-2.4 2.4-1.5 2-.9.1-.8-.4-2.9-.3-.5-.2v-.3l-1-.7-1.7-.1-2.2.6-1.7-1.8-1.7-2.5.4-9.6h5.5l-.2-1 .4-1.1-.4-1.4.3-1.5-.2-.9h.9l.1 1 1.2-.1 1.7.3.9 1.3 2.1.5 1.6-1 .6 1.6 2 .4.9 1.3 1.1 1.7h2l-.1-3.3-.8.6-1.8-1.2-.7-.5.4-3.1.6-3.5-.6-1.4.8-1.9.7-.3 3.6-.6 1 .4 1.1.7 1.1.5 1.6.5Z" cursor="pointer"/><path fill="url(#noDataPatternForMapChart-World)" fill-opacity="1" stroke="#aaa" stroke-opacity="1" stroke-width=".34" d="m561.3 317.1-1.4-.3-.9.4-1.2-.5-1.1-.1-1.6-1.3-2-.5-.7-1.9.1-1.1-1.1-.3-2.9-3.3-.7-1.8-.5-.5-.9-2.4 2.9.3.8.4.9-.1 1.5-2 2.4-2.4 1-.3.3-1 1.6-1.2 2-.4.1 1.1 2.2-.1 1.2.7.5.7 1.3.2 1.3 1-.1 3.8-.7 2.1-.2 2.3.4.9-.4 1.7-.4.3-.8 2.2Z" cursor="pointer"/></g><path fill="#980043" fill-opacity="1" stroke="#333" stroke-opacity="1" stroke-width=".2974184" d="m220.39 265-.1.17-.25-.1-.1-.08v-.09l.18-.17.35.17v.1Zm0-1.4v.08l-.27-.09.1-.35.17.09Z" cursor="pointer"/><path fill="#df65b0" fill-opacity="1" stroke="#333" stroke-opacity="1" stroke-width=".2974184" d="M231.93 453.68h-3.23l-2.45-5.69 1.22 1.23 1.84 1.83 3.15 1.58 2.97.6-.35 1.23-1.75.1Zm-12.5-85.03 4.63 4.29 1.92.43 2.98 1.93 2.45 1.05.44 1.14-1.67 4.02 2.37.7 2.53.44 1.75-.44 1.75-2.01.18-2.36 1.05-.53 1.3 1.57.18 2.1-1.75 1.5-1.3 1.04-2.28 2.54-2.45 3.58-.18 2.1-.17 2.72.52 2.62-.35.61.09 1.75.17 1.31 3.24 2.28v1.84l1.66 1.13.1 1.31-1.32 3.33-2.89 1.4-4.2.61-2.45-.26.8 1.57.08 1.93.79 1.3-1.05.97-2.1.35-2.36-.96-.62.7 1.05 2.54 1.66.78.97-.78.96 1.3-1.66.88-1.23 1.58.53 2.62-.09 1.4h-1.92l-1.23 1.31v1.93l2.71 1.92 2.1.53.09 2.27-1.93 1.49-.17 2.97-1.49 1.05-.35 1.14 1.66 2.62 1.93 1.5-.88-.1-2-.43-4.9-.35-1.5-1.5-.78-1.83-1.23.18-1.13-.97-1.23-2.7 1.14-1.14v-1.58l-.7-1.31.26-2.19-.43-3.5-.8-1.48.7-.53-.52-.96-1.13-.53.26-1.05-1.23-.96-1.48-3.06.7-.52-1.4-3.15-.27-2.72-.17-2.36 1.05-.96-1.31-2.54-.7-2.45 1.22-1.66-.52-2.18.6-2.63-.52-2.45-.7-.44-2-4.54.87-2.72-.7-2.53.35-2.45 1.13-2.45 1.32-1.66-.88-1.05.35-.79-.61-4.46 2.27-1.23.53-2.8-.35-.6 1.66-2.46 3.06.7 1.49 1.93.7-2.19 2.62.18ZM455.43 201.66l2.89-.44.61.7.88.44-.35.61 1.3.96-.43.8 1.05.7 1.05.43.44 1.84-.79.08-1.14-1.48-.08-.44h-.97l-.78-.7-.44.09-.96-.8-1.75-.6v-1.32Z" cursor="pointer"/><path fill="#c994c7" fill-opacity="1" stroke="#333" stroke-opacity="1" stroke-width=".2974184" d="m673.33 417.55 1.5.87 1.4-.35 2-.52 1.14.17-1.84 3.07-1.3.96-1.67 2.1-.26-.7-2.71 1.75-.35-.1-1.23-.08.18-2.27.87-1.66.26-2.28.79-1.22Zm20.74-71.3.52 2.1 1.66-1.04.53 1.13.96 1.05-.44 1.14.1 2.27.08 1.32.52.35.18 2.27-.53 1.31.35 1.84 2.19 1.31 1.31 1.31 1.31 1.14-.43.61.87 1.67.26 2.88 1.05-.61.62 1.14.7-.35-.35 2.8 1.22 1.57.79 1.05 1.22 2.1-.09 2.1-.43 1.49-.7 1.66.26 2.27-.96 2.28-.88 1.22-1.57 2.36-.61 1.58-1.23 1.84-2.1 2.45-2.27 1.22-1.75 2.1-1.4 1.31-1.84 2.28-1.49 1.3-1.66 1.93-1.22 1.84-.35.79-1.75.96-2.54.09-2.54 1.05-1.57 1.05-2.01 1.13-1.14-1.13-1.05-.53 1.14-1.31-1.49.44-2.97 1.92-1.49-.7-.96-.44-1.14-.17-1.66-.79-.53-1.57.62-2.02.08-1.3-.52-1.06-1.93-.35 1.32-1.3.35-1.93-1.93 1.83-2.18.44 1.83-1.4 1.05-1.57 1.49-1.23.61-2.01-2.71 2.27-1.84.88-1.75 2.1-1.22-1.05.7-1.4-.61-1.93-.7-.96.6-.61-2.18-1.66h-1.49l-1.66-1.31-4.1.26-3.25.87-2.8.97-2.1-.18-2.88 1.31-2.1.61-.96 1.4-1.31 1.05-1.84.1-1.49.17-1.75-.44-1.75.26-1.57.18-1.84 1.4-.61-.18-1.4.79-1.4.79-1.58-.1h-1.48l-1.66-1.65-.97-.53.62-1.49 1.22-.35.61-.6.27-.97.96-1.84.26-1.57-.35-2.63.17-1.48.53-1.58-.44-1.66.18-.79-.7-1.05.26-2.1-.79-2.1v-1.05l.7 1.14-.17-2.45.96.7.44 1.05.26-1.31-.61-2.1-.09-.87-.35-.8.52-1.48.62-.61.52-1.4.09-1.49 1.22-1.92-.17 2.01 1.31-1.84 2.01-.87 1.32-1.14 1.92-.96 1.05-.18.61.35 1.93-1.05 1.48-.26.44-.61.61-.18h1.31l2.54-.7 1.49-1.22.79-1.4 1.57-1.31.35-1.05.26-1.49 2.01-2.19.62 2.28 1.05-.53-.62-1.22.88-1.31.96.52.61-2.01 1.4-1.22.7-1.05 1.23-.44.17-.79.97.35.17-.7 1.05-.35 1.14-.35 1.57 1.23 1.05 1.48 1.4.1 1.49.17-.35-1.4 1.4-2.1 1.13-.7-.26-.7 1.23-1.49 1.48-.96 1.14.35 2.01-.53.18-1.31-1.66-.87 1.3-.35 1.5.6 1.05 1.06 1.92.7.7-.26 1.31.78 1.4-.7.88.18.6-.44.88 1.31-.78 1.4-1.05 1.05-.8.09.1 1.05-.8 1.31-1.04 1.31v.7l1.66 1.49 1.58.87 1.05.88 1.4 1.57h.6l1.14.7.18.8 2.01.87 1.75-.88.7-1.4.7-1.22.53-1.4 1.05-2.1-.1-1.31.27-.8-.09-1.48.62-2.01.52-.53-.26-.87.78-1.4.62-1.4.17-.79.96-.96.44 1.23V341l.53.35v1.13l.6 1.32v1.48ZM397.17 183.38l-.08 1.05h-1.14l.44.52-.62 1.66-.35.44-1.74.09-1.05.61-1.67-.26-3.06-.61-.52-.88-2.01.44-.18.44-1.31-.35-1.14-.1v-.25l-.61-.1.09-.08v-.09l-.18-.08.09-.1-.18-.17.27-.26-.18-.35.7-.17 1.05.7.26-.7 1.84.17 1.4-.52.96.08.7.53.18-.44-.44-1.66.7-.35.7-1.14 1.57.79 1.05-1.05.7-.18 1.66.8.97-.1.96.44-.18.35ZM408.46 168.68h1.92l1.93-.96.26-1.4 1.49-.79-.44-1.14 1.14-.35 1.92-.96 2.1.61.44.62.96-.35 2.01.61.35 1.14-.26.7 1.57 1.66.88.44v.43l1.4.44.7.7-.61.53-1.67-.1-.35.27.7.88.8 1.57-1.76.17-.44.53.1 1.31-.88-.26-1.75.09-.61-.62-.7.44-.8-.35h-1.65l-2.28-.61-2.1-.18h-1.48l-.97.7-.96.1-.17-1.15-.8-1.13 1.06-.53-.09-.96-.7-.96Z" cursor="pointer"/><path fill="#df65b0" fill-opacity="1" stroke="#333" stroke-opacity="1" stroke-width=".2974184" d="m370.5 175.33 1.83-.53 1.31 1.14 1.14.61-.17 1.67-.53.08-.17 1.49-1.84-1.22-1.05.26-1.4-1.23-.96-1.05h-.97l-.26-.87 1.58-.53Z" cursor="pointer"/><path fill="#c994c7" fill-opacity="1" stroke="#333" stroke-opacity="1" stroke-width=".2974184" d="M402.07 191.77h.79l-.44 1.14 1.14 1.05-.26 1.23-.44.08-.35.27-.7.6-.17 1.4-1.93-.95-.87-1.14-.88-.53-1.05-.96-.52-.87-1.14-1.23.35-1.05.87.61.35-.52.97-.09 1.83.44h1.5ZM233.5 389.64l2.46-3.58 2.27-2.54 1.31-1.05 1.75-1.49-.17-2.1-1.31-1.57-1.05.53.26-1.5.17-1.57-.17-1.48-.88-.44-.78.44-.88-.18-.35-.96-.44-2.45-.52-.79-1.58-.7-.87.53-2.45-.53-.17-3.58-.8-1.5.62-.52-.35-1.48.53-1.14.26-2.1-.7-1.66-1.31-.7-.35-1.05.26-1.49-4.46-.17-1.05-3.06h.61l-.09-1.14-.52-.79-.18-1.57-1.4-.7h-1.48l-.97-.8-1.57-.52-.96-.96-2.63-.44-2.7-2.36.08-1.75-.35-1.05.17-2-2.97.52-1.23.96-1.92 1.05-.52.79-1.14.08-1.75-.26-1.31.44-1.05-.26-.09-4.03-1.84 1.58-2-.1-.97-1.4-1.58-.17.44-1.13-1.31-1.58-1.05-2.36.52-.52v-1.05l1.4-.8-.35-1.39.62-.96.08-1.23 2.63-1.75 1.92-.52.26-.44 2.1.18.88-7.26.09-1.14-.35-1.49-1.05-.96v-1.93l1.3-.43.45.26.08-1.05-1.3-.26-.1-1.66 4.55.08.79-.87.7.79.44 1.57.43-.35 1.23 1.4 1.84-.18.43-.78 1.75-.62.97-.43.26-1.14 1.66-.7-.09-.61-1.92-.18-.35-1.66.17-1.84-1.05-.6.44-.27 1.75.35 1.84.61.61-.61 1.75-.44 2.62-.96.88-.96-.26-.79 1.13-.09.53.62-.26 1.13.78.44.44 1.22-.61.88-.44 2.27.61 1.32.09 1.22 1.49 1.22 1.13.18.27-.52.7-.1 1.05-.52.78-.7 1.32.27.52-.1 1.31.18.18-.52-.35-.53.17-.78.97.26 1.13-.26 1.31.52 1.05.61.7-.78.53.17.26.7 1.14-.17.87-1.05.79-1.93 1.4-2.36.79-.18.61 1.5 1.22 4.63 1.23.44.09 1.74-1.84 2.2.79.78 4.1.44.1 2.62 1.75-1.66 2.97.87 3.85 1.67 1.14 1.48-.35 1.49 2.7-.79 4.56 1.4 3.5-.09 3.4 2.2 3.07 2.88 1.75.79 2.01.08.87.88.88 3.32.35 1.58-.79 4.37-1.14 1.75-3.14 3.67-1.4 2.98-1.67 2.27-.52.09-.61 1.92.43 4.9-.43 4.11-.18 1.75-.7 1.05-.17 3.5-2.1 3.41-.26 2.8-1.75 1.14-.44 1.57h-2.45l-3.5.97-1.49 1.22-2.53.7-2.45 2.1-1.67 2.62-.17 2.02.52 1.48-.08 2.63-.35 1.31-1.4 1.4-1.84 4.64-1.66 2.1-1.31 1.22-.62 2.54-1.22 1.48-.88-1.48.8-1.23-1.58-1.83-2.01-1.4-2.54-1.75-.79.08-2.62-2ZM628.2 298.06l.87-1.05 1.93-1.4-.1 1.31v1.66l-1.13-.09-.44.88Z" cursor="pointer"/><path fill="#df65b0" fill-opacity="1" stroke="#333" stroke-opacity="1" stroke-width=".2974184" d="m409.86 193.44.79 1.05.78-.18 1.66.44 3.07.09.96-.62 2.45-.6 1.66.87 1.22.35-.96 1.05-.52 1.83.87 1.49-1.83-.35-2.1.87.17 1.23-1.92.26-1.67-.87-1.57.7-1.57-.1-.35-1.74-1.14-.79.26-.35-.26-.35.26-.78.79-.88-1.14-1.14-.35-.87Z" cursor="pointer"/><path fill="#c994c7" fill-opacity="1" stroke="#333" stroke-opacity="1" stroke-width=".2974184" d="m230.62 187.4 1.4.35 2.01-.09-1.4 1.14-.78.09-2.28-1.05-.26-.88 1.05-.78Zm5.95-6.56-.96.09-2.37-.79-1.48-1.22.79-.27 2.44.7 1.67 1.05Zm-126.5 1.57-1.3.35-2.54-1.22v-.87l-1.22-.88.08-.79-1.75-.43.27-1.4.6-.53 1.67.53.96.35 1.75.26v.87l.26 1.23 1.32 1.05Zm139.36-5.6-2.1 2.2 1.57-.8 1.23.53-.96.88 1.57.7 1.14-.62 1.75.79-1.14 1.84 1.57-.44-.17 1.4.26 1.57-1.49 2.28-.96.09-1.22-.44 1.05-2.1-.53-.35-2.97 2.19-1.23-.1 1.75-1.13-1.75-.7-2.27.18-3.94-.1-.08-.7 1.57-.95-.7-.7 2.19-1.49 3.4-4.11 1.67-1.4 2.01-.88.96.1-.6.7Zm-147.4-8.48 2.1-.17-2.97 2.88.08 2.01h-.78l-.27-1.22.27-1.14-.35-.78.52-1.05.79-.88Zm115.9-19.86-1.48 1.32-.7-.27-.09-.7.18-.17 1.13-.7.8.09Zm-4.02-1.3-2.97 1.3h-1.23v-.7l2.1-1.05h2.45Zm-1.22-6.83-.44.96 1.14-.35.61.61 1.4.8 1.57.7-.52 1.13 1.4-.18.79.79-2.02.7-2.44-.52-.35-1.05-2.54 1.22-3.41 1.22.26-1.4-2.54.27 2.36-1.14 1.5-1.84 2-2.18Zm18.46-3.41-2.02.08.27-1.13 1.57-1.23 1.75-.35.96.62-.61.96-.35.35Zm-30.62-4.46-1.75.78-1.66-.7-1.58.27-1.48-.97 2.1-.7 2-.96 1.23.61.7.44.09.44Zm21.7 58.6-.88-1.48 1.22-3.5-.6-.7-1.58.44-.44-.7-2.28 1.92-1.3 2.01-1.14 1.14-1.05.44-.7.17-.44.61h-7l-1.14.53-2.88 1.84-.35.17-1.05 1.05h-4.03l-1.13.44.17.52-.09.8-.17.25-3.24 1.23-2.27.44-2.98 1.4h-.52l-.61-.44-.1-.35.18-.27.79-.87 1.49-1.49 1.22-1.48.53-2.28.43-2.36-1.66-1.22.44-.44-.18-.35h-.52l-.26-.44.17-.61-.52.26h-.53l.27-.26-.44-.26.09-.7-1.23-.8-1.31-.87-1.58-1.05-1.48-.87-2.1.7h-.7l-2.19-.61-1.84.26-1.66-.79-1.84-.35-1.4-.17-.34-.44.35-1.4h-.7l-.53.96H112l-2.27-2.53-.7-1.05-2.89-1.05.62-2.28 1.4-1.57-1.67-1.05 1.31-2.01-.87-1.84 1.05-1.31 2.1-1.14 1.22-1.58-1.83-1.57.52-2.8.53-1.75-.7-1.14-.35-.96.26-1.31-2.62.79-3.15 1.4-.1-1.58-.25-1.13-1.14-.62-1.75-.08 14.7-13.39 10.06-8.4 2.44.53 1.4 1.05 1.5.26 2.62-.96 2.88-.7 2.19.26 3.59-.96 3.4-.53.1.88 1.83-.53 1.58-1.05.87.27.61 2 3.94-1.48-1.66 1.66 2.45-.35 1.4-.7 1.83.18 1.58.87 3.15.88 1.92.35 1.84-.18 1.14 1.14-3.5 1.14 2.62.52 4.9-.26 1.84-.44.6 1.4 2.9-1.13-.88-.97 1.84-.78 2.18-.1 1.58-.25.87.52.62 1.23 2-.18 2.2 1.05 2.97-.35h2.45l.96-1.4 1.84-.35 2.01.7-1.75 2.19 2.54-1.84 1.4.09 2.53-2.28-.6-1.3-1.23-.97 2.36-2.36 3.32-1.58 1.84.35.87.96.1 2.45-2.37 1.05 2.71.44-1.75 2.28 3.59-1.75.96 1.48-1.75 1.67.53 1.48 2.97-1.57 2.71-2.01 1.93-2.37 2.18.18 2.28.26 1.48 1.14-.7 1.14-2.1 1.13.36 1.23-.97 1.13-4.46 1.58-2.71.35-1.31-.7-1.31 1.14-3.07 1.92-1.22 1.05-3.24 1.58-2.62.17-2.1.96-1.23 1.58-2.36.26-3.5 1.92-3.93 2.72-2.01 1.83-2.02 2.89 2.45.35-.6 2.27-.36 1.93 2.97-.53 2.9 1.05 1.4.97.7 1.13 2 .7 1.49 1.05 3.15.18 1.92.26-1.48 2.1-.7 2.54.08 2.8 1.75 2.44 1.93-.87 2.36-2.54.87-4.02-.7-1.31 3.77-1.14 3.06-1.75 1.92-1.75.7-1.66-.17-2.01-1.23-1.84 3.59-2.54.44-2.18 1.57-3.77 1.58-.52 2.8.61 1.74.26 1.84-.6 1.23.78 1.48 1.4.1.87 3.14.18-1.05 2.01-.96 3.06 1.57.44.7 1.4 3.33-1.31 3.06-2.72 1.75-1.13.43 2.18 1.05 3.07.88 2.97-1.4 1.58 2.01 1.4 1.14 1.4 2.89.6.96.8v2.18l1.4.26.43.97-.78 2.88-1.75.96-1.75.88-3.68.87-3.23 2.1-3.5.44-4.11-.52-3.06-.1-2.2.18-2.35 1.84-2.98 1.14-4.2 3.4-3.23 2.37 1.92-.44 4.55-3.32 4.99-2.19 3.15-.26 1.4 1.31-2.54 1.75-.26 2.71v1.93l2.36 1.31 3.5-.35 2.97-2.89-.44 1.84 1.05.96-3.06 1.66-5.07 1.58-2.45 1.05-2.89 1.84-1.57-.18.61-2.19 4.37-2.18-3.4.08Zm-43.66-67.26-1.92.96 4.28-.61 1.05 1.05 3.07-1.05.7.6-.88 2.2 1.75-.97 1.23-2.18 1.74-.27 1.23.35.87.88-1.13 2.01-1.05 1.57 1.75 1.05 2.1 1.05-1.14.97-2.89.17.35.88-1.31.78-2.8-.35-2.36-.6-2.1.17-3.85.78-4.64.27-3.23.26.09-1.05-1.67-.61-1.75.26-.26-1.75 1.31-.26 2.98-.35 2.27.08 2.63-.43-2.72-.44-3.76.17-2.27-.08v-.79l4.81-.88h-2.62l-2.2-.52 3.25-1.66 2.1-.79 5.86-1.31Zm16.27-.7-2.88 1.4-.97-1.5.88-.25 2.27-.1Zm44.62.7-.35.6-1.67-.08h-1.66l-2.01.26-.35-.17-.87-1.05.7-.79.87-.17 3.5.26Zm-16.36-.1.09 1.32 2.97-1.75 4.81-.87.96 2.18-1.4 1.4 3.76-.61 2.2-.79 2.8 1.05 1.48 1.05-.44.88 3.32-.44.8 1.4 3.5.79.87.96.35 2.01-3.77 1.05 3.15 1.49 2.45.52 1.4 2.01 2.63.18-1.4 1.57-4.46 2.72-1.67-.97-1.48-2.27-2.45.35-.97 1.31 1.14 1.31 1.84 1.05.35.62v2.36l-1.49 1.66-1.92-.61-3.5-1.93 1.49 2.1 1.13 1.4-.17.88-4.46-.97-3.15-1.4-1.49-1.13.96-.7-2-1.23-1.93-1.05-.35.62-5.34.43-1.05-.87 2.27-1.66 3.33-.1 3.76-.25-.09-.8 1.31-1.22 3.68-2.18.09-.96-.18-.8-1.92-1.13-2.89-.7 1.4-.61-.79-1.4-1.4-.09-.78-.79-1.4.7-3.24.27-5.77-.53-2.98-.61-2.45-.35-.78-.7 2.62-1.05h-2.36l1.4-2.19 2.88-1.92 2.45-.79 4.64-.61Zm-20.73-1.48 1.48.44 3.06-.26-.17.6-2.45 1.06 1.49.87-2.1 1.93-3.5.87-1.4-.17-.35-.88-2.36-1.66.7-.61 3.06.26-.44-1.4Zm9.27 2.28-3.24 1.57-1.75-.09.79-1.83 1.05-1.05 1.66-.88 2.19-.61 3.23.09 2.54.52-4.11 1.84Zm-47.59 2.97-5.6 1.05.27-.96-2.37-1.14 1.75-.87 3.07-1.58 3.14-1.4.18-1.22 5.77-.35 1.66.43 3.94.1.79.6.61.88-2.62.52-5.69 1.5-3.85 1.48Zm51.44-7.61-1.66.79-2.2-.1-1.3-.6 1.83-.88 2.8-.52.61.7Zm-3.76-3.5.17.96-1.14 1.05-2.36 1.49-2.8.17-1.4-.35 1.4-1.13-2.7.17 1.74-1.57 1.58.09 3.14-.7 2.02.08Zm-16.1 1.05-.35.7 1.84-.35 1.48.09-.87 1.05-2.1.96-5.69.26-5.07.96h-2.45l.61-.7 4.38-.87-7.44.26-1.66-.35 4.72-2.01 2.28-.52 3.41.6 1.22 1.23 2.54.18.18-1.93 2.36-.7 1.31.18Zm22.83-1.75.96.61h2.98l.61.62-1.14.78 1.32.44.52.52 2.01.1 2.1.17 2.89-.44 3.32-.18 2.36.1.97.78-.35.87-1.5.53-2.7.44-1.84-.27-4.81.35h-3.24l-2.36-.26-3.5-.61.61-1.14.88-1.05-.61-.87-2.89-.18-1.14-.61 1.58-.87Zm-31.14-1.05-2.36 1.49-2.19.7-1.57.09-4.03.78-2.88.35-1.5-.43 4.73-1.5 4.99-1.3 2.27.08Zm33.33.18-.7.08-2.71-.08.26-.62 2.97.1.7.34Zm-24.14-.35-3.6.6-1.4-.6 2.1-.62 2.46-.26 1.75.35Zm3.23-1.75-2.36.43h-2.45l.44-.26 2.27-.61.7.09Zm19.16 1.05-2.63.43-.7-.43.27-.7.87-.8h1.84l.7.18.96.62Zm-5.6-.44-.44.79-2.18-.27-1.67-.6-3.23-.1 2.18-.52-1.13-.44.96-.79 2.45.27 3.06.7Zm22.3-2.54 1.06.61-2.63.53-4.46 1.4-2.71.17-2.89-.26-.61-.79.87-.7 1.84-.43h-2.71l-.79-.62.09-.87 2.01-.79 1.66-.43 1.67-.18-.1-.35 3.42-.09.61.88 2.01.35 1.93.35Zm32.55-5.77 3.5.17 2.8.18 2.1.44-.44.35-4.03.7-3.67.35-1.66.35h3.15l-4.29 1.05-2.8.43-3.85 1.49-3.32.26-1.31.44-4.64.17 1.75.27-1.31.26.26.96-2.01.7-2.89.53-1.49.78-2.62.53-.26.44 2.71-.1-.44.53-5.25 1.23-3.5-.61-4.8.35-2.02-.27-2.8-.08.79-.97 3.32-.43.8-1.4 1.04-.18 3.15.88-.7-1.23-2.01-.44 2.01-.7 3.15-.43 1.14-.7-1.14-.7.44-.97 3.85.1.96.17 2.97-.62-3.06-.17-5.16.09-1.84-.53-.35-.7-.96-.52.35-.53 2.54-.35h1.66l3.06-.26 2.8-.61 1.66.09.96.43 2.02-.78 2.18-.27 2.63-.17 4.28-.09.53.18 4.28-.27 2.9.1ZM226.25 448l2.45 5.68h3.23l-.17 1.05-1.31.78-.97-.08-1.3-.27-1.76-.7-2.19-.35-3.06-1.4-2.62-1.4-4.02-2.8 1.83.53 3.59 1.66 2.97.96.53-1.13-.18-1.75 1.4-1.05Zm-16.71-78.04.35.61-.53 2.8-2.27 1.23.61 4.46-.35.79.88 1.05-1.32 1.66-1.13 2.45-.35 2.45.7 2.53-.88 2.72 2.01 4.54.7.44.53 2.45-.61 2.63.52 2.18-1.22 1.66.7 2.45 1.3 2.54-1.04.96.17 2.36.27 2.72 1.4 3.15-.7.52 1.48 3.06 1.23.96-.26 1.05 1.13.53.53.96-.7.53.79 1.48.43 3.5-.26 2.19.7 1.31v1.58l-1.14 1.13 1.23 2.71 1.13.97 1.23-.18.79 1.84 1.48 1.49 4.9.35 2.01.43-1.75-.08-.7.7-1.4.87.7 2.36-.78.09-2.63-.88-2.97-1.74-3.15-1.4-1.4-1.67-.09-1.48-1.66-1.67-2.1-4.37-.09-2.45 1.4-2.01-3.4-.7 1.13-2.36-.87-4.29 2.7.96-.78-5.42-1.66-.7.43 3.24-1.4-.35-.6-3.76-.8-4.82.44-1.74-1.4-2.63-.96-2.97.88-.1.26-4.19.44-4.2.08-3.93-1.3-4.03.17-2.1-.88-3.32.79-3.15-.35-5.16v-5.43l.09-5.94-.7-4.3-.88-3.75 1.14-.61.52-1.4 1.32 1.83.43 1.84 1.32 1.14-.44 2.53 1.57 2.98 1.31 3.67ZM186.7 310.4l-.95-.7-1.14-.88-.7.43-2.01-.35-.53-1.13-.44.08-2.27-1.57-.35-.79.88-.17-.1-1.31.62-.97 1.14-.17.96-1.66.96-1.4-.79-.62.44-1.57-.44-2.36.53-.7-.26-2.28-.88-1.4.35-1.3.7.25.53-.78-.53-1.58.35-.35h1.14l1.84-1.83.96-.27.09-.87.6-2.19 1.4-1.22 1.4-.09.27-.53 1.75.18 1.92-1.31.97-.61 1.22-1.23.79.18.61.7-.52.87-1.58.44-.61 1.31-.96.79-.7.96-.44 1.84-.7 1.57 1.22.18.18 1.22.52.61.1 1.05-.27.96v.53l.61.26.53.88 2.97-.27 1.31.35 1.58 2.28.96-.26 1.66.08 1.31-.26.88.44-.53 1.4-.52.96-.26 1.84.43 1.75.62.78.08.62-1.22 1.3.87.62.62.88.7 2.62-.44.35-.44-1.57-.7-.8-.79.88-4.55-.08.1 1.66 1.3.26-.08 1.05-.44-.26-1.31.43v1.93l1.05.96.35 1.49-.1 1.14-.87 7.26-1.22-1.4-.7-.1 1.49-2.7-1.84-1.23-1.4.26-.87-.52-1.23.7-1.75-.26-1.4-2.8-1.05-.7-.79-1.23-1.57-1.22ZM169.65 288.26l-1.22-.61-.44-.53.26-.43v-.62l-.61-.6-.88-.53-.78-.35-.1-.8-.6-.43.08.79-.52.61-.44-.79-.79-.26-.26-.52.09-.8.35-.78-.61-.44.52-.43.44-.35 1.49.7.52-.35.7.17.35.61.7.18.61-.61.44 1.48.88 1.05.96 1.14-.88.18-.08 1.05.52.43-.35.27v.52l-.17.53Z" cursor="pointer"/><path fill="#df65b0" fill-opacity="1" stroke="#333" stroke-opacity="1" stroke-width=".2974184" d="m401.46 189.06.61 1.05.7.7-.7.96-.96-.52h-1.49l-1.83-.44-.97.09-.35.52-.87-.6-.35 1.04 1.14 1.23.52.87 1.05.96.88.53.87 1.14 1.93.96-.18.44-2.1-.97-1.22-.96-2.02-.79-1.92-1.83.44-.27-1.05-1.05-.09-.87-1.4-.44-.61 1.14-.61-.88v-.96l1.48.09.35-.44.79.44.79.09-.09-.79.7-.26.17-.96 1.58-.7.7.26 1.57 1.14 1.84.52ZM175.16 248.8l1.93.18h1.83l2.01.88.8 1.05 2.1-.35.78.61 1.66 1.66 1.31 1.14h.79l1.31.52-.26.8 1.66.08 1.58 1.05-.35.61-1.58.35-1.49.18-1.57-.27-3.32.27 1.75-1.5-.88-.6-1.49-.18-.7-.79-.35-1.48-1.3.08-2.02-.7-.61-.6-2.89-.36-.79-.52.97-.7-2.2-.09-1.83 1.31-.96.09-.44.61-1.13.35-.97-.26 1.32-.87.6-.97 1.14-.52 1.23-.53 1.75-.26ZM434.26 217.23h.1l.25-.61h1.58l1.92-.79-1.4 1.14.27.52.08.18-2.1 1.05-1.13-.35-.62-1.05Z" cursor="pointer"/><path fill="#c994c7" fill-opacity="1" stroke="#333" stroke-opacity="1" stroke-width=".2974184" d="m397 182.15-.96-.44-.97.1-1.66-.8-.7.18-1.05 1.05-1.57-.79-1.23-1.13-1.13-.62-.27-1.05-.43-.78 1.48-.53.7-.61 1.4-.53.44-.52.53.35.87-.26 1.05.78 1.57.27-.08.7 1.13.52.27-.7 1.4.26.26.88 1.49.09 1.05 1.3h-.62l-.26.45-.44.08-.08.61-.35.1v.25l-.7.27h-.88Z" cursor="pointer"/><path fill="#df65b0" fill-opacity="1" stroke="#333" stroke-opacity="1" stroke-width=".2974184" d="m386.94 164.4-1.05 2-2.1-1.4-.35-.96 2.8-.87Zm-5.25 1.57-1.22.44-1.5-.35-.87-1.4-.17-2.54.26-.61.53-.79 1.66-.17.61-.62 1.49-.7v1.23l-.53.79.35.7 1.05.35-.43.96-.62-.27-1.22 1.75Z" cursor="pointer"/><path fill="#d4b9da" fill-opacity="1" stroke="#333" stroke-opacity="1" stroke-width=".2974184" d="m198.17 257.9.35-.43h1.75l1.3.7.62-.09.26.96h1.32l-.18.79.96.09 1.05.96-.96 1.05-1.05-.61-1.05.17-.7-.17-.52.52-.88.18-.26-.7-.79.43-1.14 1.75-.52-.43-.09-.7.18-.7-.53-.79.61-.52.27-.97ZM175.34 318.96l1.22-2-.52-1.15-.88 1.23-1.4-1.14.44-.78-.44-2.37.79-.43.44-1.58.87-1.75-.09-1.05 1.23-.61 1.66-1.05 2.27 1.57.44-.08.53 1.13 2 .35.7-.43 1.15.87.96.7.35 1.93-.7 1.75-2.54 2.8-2.71 1.04-1.4 2.28-.35 1.75-1.31 1.14-1.05-1.4-.96-.27-.97.18-.08-.96.7-.62ZM446.42 251.96H419.4l-.43-9.8-.53-9.36-.79-2.1.44-1.66-.44-1.14.7-1.22 2.98-.09 2.18.7 2.28.79 1.05.43 1.66-.87.88-.7 1.92-.26 1.66.35.7 1.3.44-.87 1.84.62 1.75.17 1.05-.61 1.83 4.46-.52 1.05-.27 2.01-.52 1.4-.52.44-.8-.88-1.13-1.13-1.84-3.76-.26.26 1.14 2.71 1.66 2.71 2.01 4.11.88 1.4.87 1.49 2.19 2.89-.44.52.18 1.66 2.8 2.37ZM159.42 274.61l-.35.62h-1.32l-.78-.27-.88-.52-1.31-.18-.61-.52.08-.44.88-.61.44-.35-.1-.26.62-.18.61.26.44.53.7.35.09.35.96-.26.53.17.26.26Z" cursor="pointer"/><path fill="#c994c7" fill-opacity="1" stroke="#333" stroke-opacity="1" stroke-width=".2974184" d="M408.55 159.06v-1.49l-.7.35-1.32-.87-.43-1.4 2.27-.7 2.28-.35 2.1.43 1.92-.08.35.43-1.05 1.4 1.05 2.28-.7.79h-1.58l-1.74-.97-.88-.26ZM410.73 132.55l.18 1.58 2.97 1.49-1.14 1.74 2.63 2.63-.7 1.92 2.01 1.75-.35 1.58 3.06 1.57-.35 1.23-1.4 1.4-3.32 3.06-3.32.17-3.07.88-2.97.52-1.31-1.31-1.84-.79v-2.36l-1.22-2.19.6-1.4 1.4-1.4 3.6-2.53 1.04-.53-.35-.96-2.62-1.14-.79-.87-.78-3.5-2.9-1.49-2.53-1.13.96-.53 2.1 1.14 2.19-.09 1.92.53 1.4-.97.44-1.66 2.45-.79 2.36.88Z" cursor="pointer"/><path fill="#df65b0" fill-opacity="1" stroke="#333" stroke-opacity="1" stroke-width=".2974184" d="m382.65 198.86-.6 2.01-.97-.52-.61-1.75.43-.96 1.32-1.05Zm-8.74-19.07.43.18h.62l.96.6 2.97.53-.96 1.75-.26 1.84-.53.44-.96-.27.09.7-1.4 1.4v1.14l.96-.35.7 1.14v.7l.61.96-.7.79.61 2 1.14.36-.17 1.14-1.84 1.48-4.2-.7-3.06.8-.26 1.57-2.45.35-2.36-1.14-.8.52-3.84-1.13-.87-1.05 1.13-1.58.44-5.16-2.1-2.71-1.57-1.31-3.07-.97-.17-1.83 2.62-.62 3.41.7-.6-2.88 1.92 1.05 4.72-2.01.61-2.1 1.75-.44.26.87h.97l.96 1.05 1.4 1.23 1.05-.26Z" cursor="pointer"/><path fill="#dd1c77" fill-opacity="1" stroke="#333" stroke-opacity="1" stroke-width=".2974184" d="m450.88 200.43.1-1.05-.88-1.83-1.4-.96-1.23-.27-.87-.78.17-.35 1.84.43 3.24.44 3.15 1.23.43.52 1.23-.44 2.1.53.87 1.13 1.4.62-.44.35 1.32 1.4-.27.26-1.13-.09-1.75-.79-.44.44-2.89.44-2.27-1.31Z" cursor="pointer"/><path fill="#df65b0" fill-opacity="1" stroke="#333" stroke-opacity="1" stroke-width=".2974184" d="m381.7 165.97.08.96 2.01.61v.88l2.01-.44 1.05-.7 2.28.96.96.8.61 1.3-.52.7.78.88.62 1.31-.1.87.97 1.67-.87.26-.53-.35-.44.52-1.4.53-.7.61-1.48.53.43.78.27 1.05 1.13.62 1.23 1.13-.7 1.14-.7.35.44 1.66-.18.44-.7-.53-.96-.08-1.4.52-1.84-.17-.26.7-1.05-.7-.7.17-2.19-.79-.43.53h-1.75l.26-1.84.96-1.75-2.97-.52-.96-.61v-1.14l-.35-.61.17-1.67-.44-2.7h1.14l.53-.97.35-2.27-.35-.88.35-.52 1.57-.1.44.53 1.22-1.22-.44-.96-.17-1.4 1.49.35ZM414.23 215.74l1.31.88 1.67-.09 1.66.18v.43l1.14-.35-.18.79-3.15.26v-.44l-2.71-.52Zm3.85-13.38-1.31-.09-1.14-.26-2.54.7 1.67 1.4-1.05.44h-1.23l-1.22-1.32-.35.62.61 1.48 1.22 1.32-.78.52 1.31 1.22 1.14.8.17 1.48-2.1-.7.79 1.31-1.4.26 1.05 2.37h-1.49l-1.83-1.14-.97-2.1-.52-1.75-.96-1.22-1.23-1.5-.17-.78.87-1.22v-.88l.7-.35v-.7l1.4-.26.7-.53h1.23l.26-.43.44-.1 1.57.1 1.57-.7 1.67.87 1.92-.26-.17-1.23 1.13.62-.52 1.66Z" cursor="pointer"/><path fill="#dd1c77" fill-opacity="1" stroke="#333" stroke-opacity="1" stroke-width=".2974184" d="m219.42 278.29-.08-.09.08-.17.18-.35.17.08-.17.44Z" cursor="pointer"/><path fill="#d4b9da" fill-opacity="1" stroke="#333" stroke-opacity="1" stroke-width=".2974184" d="m154.17 273.74-1.14-.44-1.4-.09-1.05-.52-1.14-1.05.18-.79.35-.61-.26-.52 1.3-2.2H154l.18-.87-.35-.17-.27-.53-.7-.6-.78-.88h1.05l.17-1.49h4.29l-.26 2.1-.53 2.97h.7l.7.44.18-.35.7.35-1.23.96-1.14.79-.17.44.09.52-.53.7-.61.18.09.26-.44.35-.88.61Z" cursor="pointer"/><path fill="#c994c7" fill-opacity="1" stroke="#333" stroke-opacity="1" stroke-width=".2974184" d="m223.54 287.91 1.48.96 1.4 1.66.09 1.4.79.1 1.22 1.22.96.96-.43 2.36-1.5.7.1.61-.44 1.4 1.05 1.84h.7l.26 1.49 1.4 2.36-.52.09-1.32-.27-.78.7-1.05.53-.7.09-.27.52-1.13-.18-1.49-1.22-.09-1.22-.61-1.32.44-2.27.61-.88-.44-1.22-.78-.44.26-1.13-.53-.62-1.13.09-1.58-2.01.7-.7-.09-1.23 1.5-.43.6-.44-.78-1.05.26-.96Z" cursor="pointer"/><path fill="#df65b0" fill-opacity="1" stroke="#333" stroke-opacity="1" stroke-width=".2974184" d="m395.77 186.61.62-1.66-.44-.52h1.14l.08-1.05 1.05.6.8.36 1.65-.35.18-.53.79-.08.96-.35.26.17.87-.35.44-.61.61-.18 2.28.8.44-.27 1.22.7.26.7-1.22.52-.79 1.75-1.05 1.75-1.66.53-1.22-.18-1.58.7-.7.44-1.84-.52-1.57-1.14-.7-.26-.53-.88ZM337.08 138.5l-.61 1.49 1.83 1.57-2.53 1.75-5.34 1.58-1.66.43-2.28-.34-4.9-.7 1.93-1.05-3.59-1.14 3.15-.44.09-.7-3.59-.52 1.49-1.5 2.71-.34 2.45 1.57 2.89-1.3 2.1.7 2.97-1.23Z" cursor="pointer"/><path fill="#c994c7" fill-opacity="1" stroke="#333" stroke-opacity="1" stroke-width=".2974184" d="m479.66 211.8 1.84-.43 1.23-1.58 1.48.1.88-.45 1.57.18 2.71 1.4 1.75.26 3.06 2.36 1.58.1.7 2.18-.18 3.23-.26 1.93 1.05.44-.7 1.4 1.14 2.1.52 1.74 1.75.44.44 1.66-1.57 2.37 1.3 1.4 1.15 1.66 2.27 1.13.44 2.28 1.13.44.35 1.22-3.06 1.4-.43 3.06-4.38-.78-2.54-.62-2.62-.35-1.31-3.23-1.14-.53-1.75.53-2.1 1.22-2.88-.87-2.45-2.02-2.28-.7-1.84-2.53-2.1-3.5-1.13.44-1.58-.88-.7.96-1.4-1.3-.17-1.4h-.7l.09-1.93-1.49-2.01-2.89-1.5-1.92-2.44.26-2.1.96-.88-.43-1.57-1.58-.79-1.92-3.15-1.58-2.1.35-.78-1.22-3.06 1.31-.7.52.96 1.32 1.22 1.57.35.79-.08 2.19-1.93.7-.17.78.78-.43 1.23 1.57 1.4.52-.09 1.05 1.92 2.2.53 1.74 1.31 3.15.44 3.24-.7Z" cursor="pointer"/><path fill="#df65b0" fill-opacity="1" stroke="#333" stroke-opacity="1" stroke-width=".2974184" d="m350.2 168.77.26 1.84-1.57 2.18-3.68 1.58-2.8-.44 1.84-2.62-.96-2.54 2.8-2.01 1.57-1.14.35 1.31-.52 1.4 1.22-.09ZM441.52 223.7l-.26.79-.87-.35-.27 1.75.62.26-.53.44-.09.61 1.05-.35.18 1.05-.79 4.2-1.83-4.46.52-.88-.17-.17.52-1.22.17-2.02.27-.7H440.82l.18-.43.61-.1.09 1.15-.18.35ZM395.95 209.1l-.61 2.1.35.78-.35 1.4-1.75-1.05-1.14-.26-3.06-1.31.17-1.4 2.63.26 2.19-.26Zm-13.9-7.8 1.3 1.85-.17 3.5-.96-.18-.88.88-.79-.7-.17-3.15-.61-1.5 1.22.1Zm8.91-13.81-.17 1.31.61 1.14-1.75-.44-1.57.96.17 1.31-.26.7.79 1.32 2.1 1.3 1.13 2.2 2.54 2.1h1.66l.53.52-.53.52 2.01.97 1.58.78 1.92 1.4.27.44-.27.96-1.3-1.22-1.93-.44-.8 1.66 1.67.97-.17 1.4-.88.17-1.05 2.27-.87.18-.09-.79.44-1.4.43-.61-.96-1.49-.79-1.3-.87-.36-.7-1.14-1.4-.43-.96-1.05-1.66-.18-1.67-1.22-2.1-1.66-1.48-1.5-.79-2.62-1.05-.26-1.75-.87-.96.35-1.14 1.22-.87.18.17-1.14-1.14-.35-.6-2.01.7-.79-.62-.96v-.7l.96.52.96-.08 1.14-.88.35.35 1.05-.09.35-.96 1.58.26.87-.43.09-1.05 1.31.35.18-.44 2-.44.53.88Z" cursor="pointer"/><path fill="#d4b9da" fill-opacity="1" stroke="#333" stroke-opacity="1" stroke-width=".2974184" d="m659.16 219.85.7.88-.6 1.66-1.23-.87-.88.6v1.58l-1.75-.78-.44-1.23.53-1.57 1.4.26.35-1.05Zm10.06-7.87.27 2.1 1.05 1.31-.27 1.84-2.18 1.31-3.85.09-1.75 3.06-1.93-1.05-.96-1.92-3.59.52-2.1 1.31h-2.53l3.06 1.93.35 4.55-1.05 1.05-1.49-.97-.35-2.44-1.75-.7-1.57-1.84 1.75-.79.44-1.66 1.57-1.4.79-1.84 4.02-.78 2.63.6v-4.72l2.1 1.32 1.83-2.72.7-.96-.44-3.23-2.1-2.98-.08-1.66 2.01-.44 3.32 3.59 1.14 2.19-.52 2.62Zm-4.8-18.37 1.83.53.7-1.14 2.54 2.97-2.72.7-.08 2.63-4.55-1.84.7 2.89h-2.36l-1.93-2.54-.26-2.01 2.19-.18-1.84-3.58-.79-2.02 4.38 2.72Z" cursor="pointer"/><path fill="#c994c7" fill-opacity="1" stroke="#333" stroke-opacity="1" stroke-width=".2974184" d="m441.26 224.49.26-.79 2.63 1.05 3.94-2.88 1.3 3.23-.34.44-4.29 1.31 2.45 2.63-.7.43-.26.88-1.66.35-.44.96-.88.79-2.53-.35-.18-.44.79-4.2-.18-1.05.27-.7ZM512.9 198.51l-1.05.52-2.18 1.84-.44 1.84h-.79l-.96-1.23-2.71-.08-1.05-2.1h-1.05l-.61-2.63-3.15-1.92-3.5.17-2.36.44-2.71-2.36-2.02-.96-3.76-1.93-.43-.17-5 1.48 2.63 9.63-1.05.17-2-2.1-1.67-.7-2.27.53-.7.87-.27-.61.27-1.14-.62-.87-2.7-.88-1.5-2.36-1.3-.7-.27-.79 2.1.27-.44-1.93 1.66-.44 1.93.35-.26-2.44-.8-1.67-2 .18-1.93-.61-2.1 1.13-1.83.53-1.14-.44-.09-1.31-1.75-1.75-1.49.09-2.18-1.75.7-1.93-.7-.52.87-2.8 2.45 1.49-.26-1.93 3.32-2.71 3.15-.09 4.99 1.75 2.62 1.05 1.84-1.05 3.15-.09 3.06 1.32.26-.8 2.89.18.09-1.22-3.85-1.75 1.4-1.23-.61-.7 1.66-.6-2.1-1.76.61-.87 7-.88.7-.6 4.46-.88 1.22-1.05 3.77.52 1.83 2.63 1.75-.62 2.89.8.52 1.4 1.75-.18 3.85-2.37-.35.8 3.41 1.92 7.53 6.47.43-1.31 3.5 1.4 2.54-.62 1.31.44 1.66 1.49 1.67.52 1.4 1.05 2.44-.35 1.84 1.58-.79 1.66-1.57.26 1.05 2.63-.7 1.13-4.46-.87.44 4.63-.8.62-3.75 1.05 3.67 4.46-1.22.7.7 1.49-1.4-.35-1.49-.97-3.15-.26-3.59-.09-.6.27-3.42-1.05-1.05.52.18 1.49-3.77-.88-1.22.35Z" cursor="pointer"/><path fill="#df65b0" fill-opacity="1" stroke="#333" stroke-opacity="1" stroke-width=".2974184" d="m469.7 230.88.6 1.13-.08.62.96 2-1.66.1-.7-1.32-2.02-.26 1.32-2.45Z" cursor="pointer"/><path fill="#c994c7" fill-opacity="1" stroke="#333" stroke-opacity="1" stroke-width=".2974184" d="m512.9 198.51.18-1.14 1.22-.35 3.77.88-.18-1.49 1.05-.52 3.41 1.05.61-.27 3.6.1 3.14.25 1.49.97 1.4.35-.1.6-2.88 1.4-.35 1.06-2.62.26-.26 1.66-2.45-.35-1.32.53-1.66 1.22.53.61-.44.62-3.94.43-2.97-.87-2.28.17-.17-1.48 2.45.43.52-.78 1.75.26 2.19-1.93-2.97-1.3-1.32.6-1.92-.96 1.31-1.75Z" cursor="pointer"/><path fill="#df65b0" fill-opacity="1" stroke="#333" stroke-opacity="1" stroke-width=".2974184" d="m402.95 163.43-.18-1.92.7-1.49 1.66-.87 1.84 1.83 1.49-.08.09-1.84 1.57-.44.88.26 1.74.97h1.58l1.05.52.35 1.23.96 1.48-1.92.96-1.14.35-2.01-1.13-1.05-.18-.35-.52-1.93.26-3.23-.17Z" cursor="pointer"/><path fill="#d4b9da" fill-opacity="1" stroke="#333" stroke-opacity="1" stroke-width=".2974184" d="m441.61 222.13-.61.09-.18.43h-.7l.53-2.1.87-1.92v-.09l1.05.18.44 1.05-1.05.96Z" cursor="pointer"/><path fill="#df65b0" fill-opacity="1" stroke="#333" stroke-opacity="1" stroke-width=".2974184" d="m406.8 167.63-.18-.61.09-.7-.96-.44-2.1-.44-.7-2 2.1-.8 3.23.18 1.93-.26.35.52 1.05.18 2.01 1.13.44 1.14-1.49.79-.26 1.4-1.93.96h-1.92l-.61-.79Z" cursor="pointer"/><path fill="#c994c7" fill-opacity="1" stroke="#333" stroke-opacity="1" stroke-width=".2974184" d="m374.6 178.22.36.6v1.15h-.62l-.43-.18.17-1.49ZM599.86 293.5l.6.27 1.4 1.58 1.06 1.83.26 1.75-.18 1.23.18.87.26 1.58.88.7.96 2.36.09.7-.35.26-.97.35-.35-.18-2.36-2-2.8-2.1-.35-1.4-1.4-1.76-.43-2.18-.88-1.4.18-1.93-.62-1.13.44-.44 1.93 1.14.26 1.3 1.49-.25Zm36.91 5.52-2.01-.44h-2.71l-.62 2.98-.87.96-1.14 3.67-1.92.53-2.19-.7-1.14.17-1.3 1.4-1.5-.17-1.48.52-1.66-1.49-.35-1.83 1.66.96 1.83-.52.44-2.2.96-.52 2.72-.6 1.66-2.02 1.05-1.66 1.13 1.3.44-.87 1.14.1v-1.67l.09-1.31 1.66-1.84 1.05-2.1h.96l1.23 1.31.17 1.14 1.57.79 2.02.79-.1 1.05-1.57.08.44 1.31Z" cursor="pointer"/><path fill="#f1eef6" fill-opacity="1" stroke="#333" stroke-opacity="1" stroke-width=".2974184" d="M533.29 301.47h-.1v-.18h.18v.18Zm.17-2.45h-.09v-.18h.1Z" cursor="pointer"/><path fill="#df65b0" fill-opacity="1" stroke="#333" stroke-opacity="1" stroke-width=".2974184" d="M394.2 215.4v.08h-.26l-.18-.09v-.35l.44.27Z" cursor="pointer"/><path fill="#dd1c77" fill-opacity="1" stroke="#333" stroke-opacity="1" stroke-width=".2974184" d="m494.1 364.01-.18.1h-.35l-.17-.18.08-.1v-.17l.1-.35.17-.08.17-.1v-.25l.18-.1.17-.08.18.26.08.35v.35l-.17.1-.09.17Z" cursor="pointer"/><path fill="#c994c7" fill-opacity="1" stroke="#333" stroke-opacity="1" stroke-width=".2974184" d="M159.77 261.14h-.44l-1.05 1.66-.44-.35-.26.18v.35h-4.29l-.17 1.49h-1.05l.78.87.7.61.27.53.35.17-.18.88h-2.97l-1.31 2.19.26.52-.35.61-.18.79-2.27-2.89-1.14-.87-1.75-.7-1.31.26-2.01.96-1.14.27-1.57-.7-1.67-.53-2-1.22-1.67-.35-2.45-1.23-1.75-1.22-.44-.7-1.3-.18-2.2-.87-.78-1.14-2.19-1.57-.87-1.67-.35-1.22.78-.26-.08-.8.6-.69.18-.88-.6-1.22v-1.05l-.53-1.31-1.58-2.63-1.92-2-.79-1.67-1.66-1.05-.26-.7.7-1.57-1.05-.62-.97-1.3-.08-1.85-1.14-.26-.96-1.4-.7-1.22.08-.88-.6-1.92-.18-2.01.35-1.05-1.23-1.05-.79.08-1.04-.7-.7 1.05v1.32l-.44 1.92.44 1.14 1.13 1.84.18.6.26.18.09.88h.43v1.66l.44.7.26.96 1.14 1.31.09 2.45.44 1.14.35 1.22-.1 1.4 1.06.1.7 1.22.61 1.13-.17.53-1.14.96h-.35l-.35-1.66-1.23-1.49-1.3-1.22-1.06-.7.44-1.93v-1.4l-.87-.87-1.23-1.14-.44.35-.35-.7-1.22-.7-.96-1.49.26-.17.87.09 1.05-.97.44-1.13-1.22-1.93-1.05-.7-.35-1.66-.27-1.75-.35-2.1-.08-2.36 2.62-.17 2.89-.35-.35.52 2.88 1.31 4.47 1.84h6.21l.35-1.14h3.85l.52.96.87.88.97 1.14.35 1.4.17 1.4.96.78 1.67.79 1.92-2.01 1.84-.09 1.31 1.05.7 1.84.44 1.48.96 1.5.09 1.92.35 1.22 1.57.79 1.49.61.87-.09-1.3 2.28-.7 1.92-.8 3.5-.43 1.31.17 1.49.53 1.22.17 2.1 1.23 1.93.26 1.49.79 1.3 2.27.7.79 1.14 2.18-.78 1.75-.26 1.75-.44 1.58-.44 1.57-1.14.79-1.48.44-2.2.52-.78 1.66-.7 2.45-.61 2.01.09 1.5-.27.43.62-.26 1.22-1.4 1.58-.79 1.66.35.44-.53 1.13-.78 2.01-.53-.6Z" cursor="pointer"/><path fill="#df65b0" fill-opacity="1" stroke="#333" stroke-opacity="1" stroke-width=".2974184" d="m416.86 183.11.43-.35 1.32-.26 1.57.79.88.09 1.04.7v.87l.8.44.43 1.05.87.7-.08.35.43.26-.52.18-1.23-.1-.26-.34-.44.26.18.44-.44.79-.17.87-.53.35-.52-1.22.09-1.05-.27-1.14-1.4-1.58-.78-1.05-.8-.78Z" cursor="pointer"/><path fill="#d4b9da" fill-opacity="1" stroke="#333" stroke-opacity="1" stroke-width=".2974184" d="m540.72 180.4 1.93-.52 2.7-2.19 2.46-1.14 2.18.8h2.1l2.02 1.22 2.1.08 3.23.62.96-1.75-1.66-1.5.61-2.62 2.8 1.05 2.02.27 2.7.6 1.58 1.93 3.41 1.05 1.67-.43 2.36-.35 2.18.35 2.72 1.22 2 1.31h1.93l2.8.35 1.49-.61 2.36-.44 1.84-1.75 1.4.27 1.66.87 2.27-.26.18 1.92.17 2.63 1.14 1.05.96-.35 2.28.35.96-.88 2.19.79 2.97 1.84.26.87-1.75-.26-2.8.35-1.05.7-.52 1.75-2.63.96-1.3 1.4-2.46-.53-1.3-.26-.18 1.66 1.22 1.05.79.8-1.05.87-.79 1.4-2.01.96-3.06.09-3.06.87-1.75 1.4-1.4-.79H582l-3.85-1.57-2.27-.35-2.63.35-4.63-.61-2.37.08-1.92-1.57-2.01-2.36-1.49-.35-3.24-1.58-2.97-.35-2.71-.44-1.23-1.13-.52-3.06-2.36-2.02-3.41-.96-2.37-1.4Z" cursor="pointer"/><path fill="#dd1c77" fill-opacity="1" stroke="#333" stroke-opacity="1" stroke-width=".2974184" d="m404.17 197.46-.87 1.31.26.79-.44-.18-.7-.87-.96-.52.18-.44.17-1.4.7-.61.35-.27.61.44.35.35.7.26.88.62-.18.17-.35.61-.52.27Z" cursor="pointer"/><path fill="#df65b0" fill-opacity="1" stroke="#333" stroke-opacity="1" stroke-width=".2974184" d="m376 169.73.36.88-.35 2.27-.53.96h-1.14l.44 2.71-1.14-.6-1.3-1.15-1.85.53-1.48-.18 1.05-.7 1.57-3.76 2.71-1.05Z" cursor="pointer"/><path fill="#d4b9da" fill-opacity="1" stroke="#333" stroke-opacity="1" stroke-width=".2974184" d="m163.7 280.74-.7-.88-.96-1.05-.44-.87-.96-.88-1.05-1.13.26-.44.35.44.27-.27.7-.08.34-.62h.35v-1.3l.62-.1.43.1.62-.7.6.52.27-.35.44-.35.87-.7.1-.53h.25l.35-.61.27-.09.35.44.43.09.53-.35h.61l.79-.35.35-.35.78.09-.17.26-.17.52.08.96-.61.97-.35 1.05-.17 1.13.08.7v1.14l-.35.26-.35 1.14.1.7-.53.7.08.7.35.44-.6.6-.7-.17-.36-.6-.7-.18-.52.35-1.5-.7Z" cursor="pointer"/><path fill="#dd1c77" fill-opacity="1" stroke="#333" stroke-opacity="1" stroke-width=".2974184" d="M406.18 199.65h.27v-.53l1.22-.43.44-.1.79-.17h.96l1.14.79.35 1.75-.44.09-.26.43h-1.23l-.7.53-1.4.26-.96-.61-.44-1.14Z" cursor="pointer"/><path fill="#d4b9da" fill-opacity="1" stroke="#333" stroke-opacity="1" stroke-width=".2974184" d="m484.56 266.04-.87-1.84-2.1-4.37 6.65-2.62 1.05-5.25-1.23-1.93v-1.05l.53-1.05-.1-1.13 1.06-.53-.44-.35v-1.75h1.14l1.22 1.84 1.32.96 1.74.35 1.4.44 1.14 1.57.7.88.88.26v.61l-.62 1.58-.35.78-.87.8-.7 1.83-1.05-.18-.44.7-.17 1.32.43 1.75-.26.35h-1.05l-1.31.96-.09 1.31-.52.52h-1.4l-.88.62.1 1.05-1.06.78-1.31-.26-1.49.88Zm5.16-23.88-.52-.96.52-.88.35.27-.08 1.05Z" cursor="pointer"/><path fill="#c994c7" fill-opacity="1" stroke="#333" stroke-opacity="1" stroke-width=".2974184" d="m181.37 290.88-.79-.78-.43-1.4.61-.7-.53-.18-.43-.87-1.14-.7-.96.17-.53.88-.96.7-.52.09-.27.52 1.05 1.4-.7.35-.35.44-1.05.08-.35-1.57-.35.44-.7-.09-.43-1.14-.97-.17-.6-.26H170l-.09.6-.26-.43.18-.52.17-.53v-.52l.35-.27-.52-.43.08-1.05.88-.18.78.88-.08.6.96.1.26-.18.53.61 1.22-.17.96-.7 1.5-.53.78-.78 1.31.17-.09.26 1.23.1 1.05.43.7.79.87.78-.35.35.53 1.58-.53.78-.7-.26ZM219.42 368.65l.62-3.15-.1-1.4.88-2.36 3.94-.79 2.1.09 2.27 1.31.18.79.79 1.49.17 3.58 2.45.53.87-.53 1.58.7.52.79.44 2.45.35.96.88.18.78-.44.88.44.17 1.48-.17 1.58-.26 1.49-.18 2.36-1.75 2-1.75.45-2.53-.44-2.37-.7 1.67-4.02-.44-1.14-2.45-1.05-2.98-1.93-1.92-.43Z" cursor="pointer"/><path fill="#d4b9da" fill-opacity="1" stroke="#333" stroke-opacity="1" stroke-width=".2974184" d="m202.45 356.32-.52 1.4-1.14.6-2.45-1.48-.26-1.05-4.81-2.71-4.46-2.89-1.84-1.57-1.14-2.19.27-.79-2.2-3.4-2.62-4.9-2.44-5.25-1.05-1.23-.8-1.92-1.92-1.75-1.66-1.05.7-1.14-1.22-2.54.7-1.83 1.75-1.67.35 1.05-.7.62.08.96.97-.18.96.27 1.05 1.4 1.31-1.14.35-1.75 1.4-2.28 2.71-1.05 2.54-2.8.7-1.74-.35-1.93.61-.26 1.57 1.22.8 1.23 1.04.7 1.4 2.8 1.75.26 1.23-.7.87.52 1.4-.26 1.84 1.23-1.49 2.7.7.1 1.22 1.4-2.1-.18-.26.44-1.92.52-2.63 1.75-.08 1.23-.62.96.35 1.4-1.4.79v1.05l-.52.52 1.05 2.36 1.31 1.58-.44 1.13 1.58.18.96 1.4 2.01.09 1.84-1.58.09 4.03 1.05.26 1.3-.44 2.28 4.29-.43.87v1.84l.08 2.27-.78 1.32.52.96-.44.87 1.14 2.28Z" cursor="pointer"/><path fill="#dd1c77" fill-opacity="1" stroke="#333" stroke-opacity="1" stroke-width=".2974184" d="m655.84 287.74.35 1.74.26 1.5-.61 2.44-1.05-2.71-.96 1.31.87 2.01-.61 1.23-2.8-1.58-.79-1.92.62-1.23-1.58-1.22-.61 1.05-1.14-.09-1.66 1.49-.44-.79.79-2.19 1.4-.78 1.22-.96.88 1.13 1.75-.7.26-1.13 1.66-.1-.35-2 2.01 1.22.27 1.31Zm-5.95-4.9-.79.87-.52 1.66-.7.8-1.58-1.85.44-.7.44-.7.17-1.66 1.23-.17-.18 1.75 1.4-2.54Zm-12.5 2.53-2.9 2.54.97-1.84 1.57-1.66 1.23-1.84.96-2.62.61 2.19-1.4 1.4Zm7.17-6.82 1.48.88h1.49l.09 1.04-.97 1.14-1.4.79-.26-1.23.09-1.3Zm8.3-.7.97 2.97-1.84-.7.09.88.79 1.66-1.05.53-.27-1.84-.7-.09-.6-1.66 1.4.26-.1-1.05-1.66-2 2.19.08Zm-9.44-2.36-.35 2.27-1.14-1.3-1.49-2.02 2.02.09Zm-2.63-14.35 1.5.79.6-.7.35.61-.17 1.14 1.05 1.92-.26 2.2-1.23.87v2.1l.79 2.1 1.31.26.96-.27 3.06 1.4-.08 1.5.87.6-.09 1.23-1.92-1.31-1.05-1.4-.53.96-1.66-1.58-2 .44-1.23-.61v-1.05l.6-.7-.78-.61-.17.96-1.32-1.49-.52-1.22-.44-2.45 1.05.79-.44-4.12.35-2.36Z" cursor="pointer"/><path fill="#df65b0" fill-opacity="1" stroke="#333" stroke-opacity="1" stroke-width=".2974184" d="m392.45 175.77-.96-1.67.09-.87-.62-1.31-.78-.88.52-.7-.61-1.3 1.31-.7 2.89-1.15 2.36-.87 2.01.44.26.6h1.84l2.45.27h3.59l1.05.26.6.8.27 1.13.7.96.09.96-1.05.53.79 1.13.17 1.14 1.31 2.19-.17.79-.96.26-1.58 2.1.7 1.13-.44-.08-2.1-1.05-1.4.44-.96-.27-1.13.53-1.14-.88-.79.27-.17-.1-1.05-1.3-1.5-.1-.25-.87-1.4-.26-.27.7-1.13-.52.08-.7-1.57-.27Z" cursor="pointer"/><path fill="#c994c7" fill-opacity="1" stroke="#333" stroke-opacity="1" stroke-width=".2974184" d="m343.11 199.56.8-.7.95-.35.44 1.31h1.23l.43-.35 1.23.09.52 1.31-.96.7-.09 2.01-.35.44-.17 1.23-.88.17.8 1.58-.62 1.74.7.8-.35.7-.79.95.09.88-.88.7-1.13-.35-1.14.26.44-2.01-.18-1.66-.96-.27-.44-.96.18-1.75.96-.87.17-1.14.53-1.57-.09-1.05-.35-.97ZM210.24 261.14l1.14.18.43.52-.7.7h-1.75l-1.3.09v-1.14l.34-.43Z" cursor="pointer"/><path fill="#d4b9da" fill-opacity="1" stroke="#333" stroke-opacity="1" stroke-width=".2974184" d="m477.65 244.61-.35-1.84.44-1.4.61-.35.79.88.17 1.57-.35 1.49-.6.17Z" cursor="pointer"/><path fill="#df65b0" fill-opacity="1" stroke="#333" stroke-opacity="1" stroke-width=".2974184" d="m408.98 183.99.8-.53 1.3.27h1.32l1.04.6.62-.34 1.48-.26.44-.62h.88l.6.27.8.78.78 1.05 1.4 1.58.27 1.14-.1 1.05.53 1.22.96.44.97-.44.96.44.17.7-.96.52-.61-.17-.18 3.15-1.22-.35-1.66-.88-2.45.61-.96.62-3.07-.1-1.66-.43-.78.18-.8-1.05-.43-.44.44-.44-.53-.35-.6.61-1.32-.78-.26-1.05-1.32-.62-.35-.87-1.22-.96 1.66-.53 1.05-1.75.79-1.75ZM651.3 176.64l5.68 4.55-3.68-.87 1.49 3.76 3.94 2.62 1.22 1.75-2.62-1.49v2.02l-1.93-2.2-1.57-2.53-2.28-2.8-.96-1.92-2.62-3.41-3.24-2.45-2.8-3.5.79-1.14-1.84-1.14.53-.35 2 1.67 2.9 2.45 2 2.44Zm-244.5-9h-3.59l-2.45-.27.35-1.05 2.54-.88 2.1.44.96.44-.09.7ZM57.77 138.14l.35.61 2.01-1.66 4.2.35.35 2.1-3.15 1.05-3.15.18-3.24 2.27-1.4.53-1.57-.1-.17-.78-1.4-.7.96-.96-1.23-.44-2.45.35.27-.87 1.57-.8-2.89.53-.78 1.05-2.45 1.05 13.73-9.1 1.49 1.67 1.14 2.27Zm602.97-9.45-1.66.1-1.4-.7.52-.88Zm-594.4-.17-2.36.17 2.54-1.48.35-.09h1.4l1.3.61-.6.26Zm526.87-4.99-2.36.1-3.68-.27-.44-.09.35-.87 1.67-.18 3.5.79Zm5.33-3.85-.52.8-2.8-.18-4.2-.79-.7-.7 3.41.35Zm-10.4-.96 1.13 1.49-5.86-.09-1.84.53-5.16-1.32-1.31-1.4 1.4-.43 4.2.09Zm-130.26 10.24-.87.17-5.6-.26-.96-1.05-3.24-.53-.79-1.13 1.4-.53-.7-1.13 2.28-1.84-1.66-.26 2.8-1.75-1.06-.97 2.9-1.05 4.19-1.3 4.81-.36 2.1-.78 2.71-.27 1.75.79-.52.61-4.73 1.05-4.1.96-3.6 1.93-1.13 2.1-1.4 2.01 1.31 1.75Zm180.73 67.88h.96l-1.58-3.06-1.92-2.28 1.14-.87 2.88.43-.26-2.53-1.22-2.8.17-.96-.52-2.28-2.89.7-1.05 1.05h-3.15l-2.45-2.45-3.67-1.83-4.11-.8-2.54-2.53-1.84-1.49-1.57-1.13-3.15-2.54-2.45-.96-3.5-.7-2.62.09-2.1.43-.7 1.23 1.57.61 1.05 1.4-.52.79v2.7l.78 1.15-1.83 1.57-2.98-.96-2.27.26-1.66-.87-1.4-.27-1.84 1.75-2.36.44-1.49.61-2.8-.35h-1.92l-2.01-1.31-2.72-1.22-2.18-.35-2.36.35-1.67.43-3.4-1.05-1.58-1.92-2.71-.61-2.02-.27-2.8-1.05-.6 2.63 1.65 1.49-.96 1.75-3.24-.62-2.1-.08-2-1.23H550l-2.2-.79-2.44 1.14-2.71 2.19-1.93.52-.7.18-1.84-1.58-2.44.35-1.4-1.05-1.67-.52-1.66-1.49-1.31-.44-2.54.62-3.5-1.4-.43 1.3-7.53-6.46-3.4-1.93.34-.79-3.85 2.37-1.75.17-.52-1.4-2.89-.79-1.75.62-1.83-2.63-3.77-.52-1.22 1.05-4.46.87-.7.61-7 .88-.61.87 2.1 1.75-1.66.62.6.7-1.4 1.22 3.86 1.75-.09 1.22-2.89-.17-.26.79-3.06-1.32-3.15.1-1.84 1.04-2.62-1.05-4.99-1.75-3.15.09-3.32 2.71.26 1.93-2.45-1.5-.87 2.8.7.53-.7 1.93 2.18 1.75 1.5-.1 1.74 1.76.09 1.31 1.14.44-.53 1.49-1.92.43-1.5 2.71 2.46 2.45.17 1.75 3.07 3.06-1.05 1.05-.27.7-.96-.17-1.84-1.58-.6-.08-1.4-.62-.88-1.13-2.1-.53-1.23.44-.43-.52-3.15-1.23-3.24-.44-1.84-.43-.17.35-3.15-2.2-2.54-1.04-2.1-1.49 1.49-.44 1.31-2.18-1.4-.96 2.89-1.05-.18-.62-1.75.44-.17-1.14.87-.7 2.02-.17.08-.88-.7-1.4.53-1.4-.18-.7-3.15-.87h-1.22l-1.49-1.14-1.48.35-2.72-.87-.08-.53-.88-1.05-1.66-.17-.35-.79.44-.44-1.58-1.48-2 .26-.62-.09-.44.53-.7-.09-.79-1.57-.7-.88.35-.26 1.67.09.6-.53-.7-.7-1.4-.44v-.43l-.87-.44-1.57-1.66.26-.7-.35-1.14-2.01-.61-.96.35-.44-.62-2.1-.6-.96-1.5-.35-1.22-1.05-.52.7-.8-1.05-2.27 1.05-1.4-.35-.43 1.84-1.31-2.2-1.14 3.33-3.06 1.4-1.4.35-1.23-3.06-1.57.35-1.58-2.01-1.75.7-1.92-2.63-2.63 1.14-1.74-2.97-1.5-.18-1.57 1.32-.17 2.62-.88 1.57-.78 3.15 1.3 4.81.53 7.26 2.54 1.67 1.14.6 1.48-1.48 1.23-2.62.61-8.31-1.75-1.23.26 3.33 1.67.43 1.05.8 2.45 2.44.7 1.58.6-.1-1.13-1.4-1.05.88-.87 4.73 1.48 1.3-.6-1.74-1.67 3.41-2.28 1.58.18 1.92.79.44-1.58-1.93-1.4.35-1.31-1.75-1.4 4.99.7 1.49 1.31-2.02.27.44 1.22 1.66.79 2.54-.53-.17-1.4 3.14-1.05 5.08-1.92 1.31.09-1.05 1.3 2.28.27.87-.79h3.15l2.01-.96 2.63 1.31 1.22-1.48-2.45-1.23.44-.79 5.33.7 2.72.7 7.7 2.54.43-1.14-2.45-1.22-.35-.44-2.18-.26v-1.05l-2.02-1.66-.43-.7 1.75-1.93-.27-2 .88-.36 4.72.53 1.14 1.22-.26 1.66 1.48.7 1.58 1.58 1.57 2.97 2.71 1.4.27 1.49-1.5 3.23 2.2.35.26-.78 1.57-.62-.26-1.13.79-1.05-1.84-1.31-.17-1.5-1.93-.17-1.22-1.22-.18-2.19-3.32-1.75 1.83-1.48-1.48-1.5.79-.08 1.74 1.23.88 2 2.01.44-1.84-1.57 2.1-.87 3.24-.1 4.02 1.23-2.88-1.75-2.01-2.27 2.44-.44 3.85.09 3.24-.26-2.27-1.05.6-1.4 1.67-.09 2.1-.96 3.76-.27-.09-.52 3.85-.26 1.84.52 2.19-1.13 2.88.08-.6-.87.43-.88 2.54-.78 3.4.7-1.48.43 3.85.35 1.66.97.79-.53h4.55l4.72 1.05 2.19.7 1.05 1.05-.97.61-2.8 1.14-.52.61 2.36.35 2.98.53.96-.44 2.36 1.31.09-.52 2.19-.35 5.5.35 1.58 1.05 7.17.26-2-1.58 3.93.35h2.53l4.03 1.14 2.45 1.31.17.88 4.2 1.75 3.68.87-1.23-2.27 3.85.96 2.01-.61 4.11.7.35-.61 3.15.34-3.93-2 .87-.97 16.62 1.4 3.33 1.31 6.64 1.66 6.13-.43 3.85.35 2.7.87 2.1 1.66 2.98.62 1.66-.44 2.89-.09 3.76.44 2.89-.26 5.86 2 1.05-.7-3.5-1.48-.79-.96 6.3.61 3.32-.09 6.48 1.05 3.85.97 13.73 9.1-.87.96-2.54-.18 3.41 1.31 3.76 1.93 1.66.61 1.58.96.44.61-4.12-.52-2.7 1.84-1.23.26-.7 1.66-.79 1.49.7 1.13-4.72-1.66-2.54 1.84-1.92-.87-.53 1.04-2.97-.35 1.3 1.58.53 2.36 1.14 1.05 2.8.53 3.76 3.58-1.75.09 1.4 2.1 1.93 1.05-2.02 1.31 2.2 2.8-2.37.61 1.92 2.63-.7 2.36-2.36-1.75-4.37-3.67-6.65-5.6-2.62-3.41.08-1.5-1.13-1.13 2.27-.52-.09-3.15.27-2.45 1.04-1.93-2.7-3.32-1.93.17 1.31 1.93-1.49 2.62-4.98-2.88-3.76.78-.1 4.03 3.25 1.48-3.5.62-2.63.26-1.75-1.75-3.32-.35-1.05 1.22-6.12-.43-5.43.7-1.49 4.8-2 5.78 3.32.35 2.36 1.58 2.36.52.18-1.22 2.27.17 5.25 2.8 1.92 2.1.62 2.54 2.27 3.06 2.1 4.02-.44 3.76.61 1.75-.78 3.06-.88 2.98-.35 1.57-1.92 1.49-1.31.09-2.1-1.31-1.67 1.92.18.88-.53-.44ZM518.94 113.3l-7.44.7-.52-2.45.87-.26 1.32.17 5.16 1.05Zm-83.19-4.11-1.75.17-1.22.18v.26l-1.58.26-1.75-.44.44-.52h-3.24l2.63-.35h2.18l.53.44.61-.44 1.14-.26 2.36.44Zm74.18 2.97-2.97.26-4.82-.52-3.32-.7-2.8-1.4-2.36-.26 2.19-1.23 2.62-.35 3.85.88 5.69 1.66ZM221.61 273.56l-.17.27-.18-.18v-.35l.18-.26.08-.18.1-.08.08.26Z" cursor="pointer"/><path fill="#dd1c77" fill-opacity="1" stroke="#333" stroke-opacity="1" stroke-width=".2974184" d="M220.91 275.31h-.09l-.17-.17v-.26l.17-.1.1-.08h.08v.44Z" cursor="pointer"/><path fill="#d4b9da" fill-opacity="1" stroke="#333" stroke-opacity="1" stroke-width=".2974184" d="m460.86 266.83-.35-1.14-.7-.79-.27-1.05-1.22-.96-1.4-2.18-.79-2.2-1.66-1.74-1.05-.44-1.66-2.54-.44-1.83v-1.58l-1.49-2.88-1.13-1.05-1.23-.53-.87-1.57.09-.53-.7-1.4-.7-.6-1.05-1.93-1.58-2.2-1.22-1.74h-1.14l.17-1.49.1-.87.17-1.05 2.53.35.88-.79.44-.96 1.66-.35.26-.88.7-.43-2.45-2.63 4.29-1.31.35-.44 2.8.7 3.5 1.84 6.9 5.34 4.2.17 2.02.26.7 1.31 1.66-.08 1.14 2.27 1.13.61.53.88 1.66 1.14.26 1.13-.17.88.35.87.78.7.35.88.44.61.7.52.61-.17.53 1.05.17.61 1.05 2.63 7 1.4.35-.62 1.23 1.93-1.05 5.25-6.65 2.62-6.56 1.05-2.01 1.14-1.5 2.8-1.04.43-.61-.87-.88.09-2.27-.27-.44-.26-2.62.09-.62.26-.96-.7-.52 1.31.26 1.05Z" cursor="pointer"/><path fill="#dd1c77" fill-opacity="1" stroke="#333" stroke-opacity="1" stroke-width=".2974184" d="m409.86 193.44-.44.6.35.88 1.14 1.14-.79.88-.26.78.26.35-.26.35h-.96l-.8.18-.08-.18.26-.35.18-.61h-.26l-.53-.44-.35-.17-.26-.35-.44-.18-.35-.35-.35.1-.26.87-.44.17.18-.17-.88-.62-.7-.26-.35-.35-.61-.44.44-.08.26-1.23-1.14-1.05.44-1.14h-.79l.7-.96-.7-.7-.6-1.05 1.57-.7 1.22.18 1.22.96.35.87 1.32.62.26 1.05 1.31.78.61-.6.53.34-.44.44Z" cursor="pointer"/><path fill="#980043" fill-opacity="1" stroke="#333" stroke-opacity="1" stroke-width=".2974184" d="M491.65 322.38v.17h-.18v-.17l-.17-.1-.09-.17.18-.08Z" cursor="pointer"/><path fill="#c994c7" fill-opacity="1" stroke="#333" stroke-opacity="1" stroke-width=".2974184" d="m605.02 306.63-.97.35-.35-.18.18-.6.17-.1h.27l.35.1h.17v.17Z" cursor="pointer"/><path fill="#df65b0" fill-opacity="1" stroke="#333" stroke-opacity="1" stroke-width=".2974184" d="m400.59 179.88.17.09.79-.27 1.14.88 1.13-.53.96.27 1.4-.44 2.1 1.05-.52.61-.26 1.05-.44.26-2.28-.79-.6.18-.45.61-.87.35-.26-.17-.96.35-.8.08-.17.53-1.66.35-.79-.35-1.05-.61-.35-.88.18-.35.26-.52h.88l.7-.27v-.26l.35-.09.08-.6.44-.1.26-.43ZM390.96 187.49l1.67.26 1.05-.61 1.74-.09.35-.44.35.1.53.87-1.58.7-.17.96-.7.26.09.79-.79-.09-.79-.44-.35.44-1.48-.09.52-.17-.61-1.14ZM399.1 385.36l1.14-1.31.78.7.35 1.13 1.05.18 1.4.52 1.14-.17 2.1-1.4.44-9.71.6.35 1.23 2.53-.26 1.58.44.96 1.66-.26 1.14-1.14 1.13-.87.62-1.23 1.13-.61.97.35 1.05.7 1.83.18 1.4-.62.35-.87.44-1.23 1.22-.26.7-.96.88-1.75 2.1-2.01 3.32-1.93.96.09 1.05.44.8-.35 1.22.26.87 3.67.53 1.93-.62 2.97.18.88-1.14-.44-.7.18-.26.78-.7.96v.97l1.22 1.4 1.4-.27.53-1.22h1.66l-.7 1.92-.44 2.2-.6 1.22-1.67 1.3-.44.44-1.14 1.32-.7 1.3-1.4 1.93-2.8 2.72-1.66 1.57-1.75 1.22-2.44 1.05-1.14.1-.35.78-1.31-.44-1.14.53-2.36-.53-1.32.35-.96-.17-2.27 1.05-1.93.43-1.48.97-.97.08-.87-.96h-.7l-.87-1.22-.18.35-.26-.7.09-1.49-.62-1.84.79-.43v-2.02l-1.31-2.45-.96-2.27Zm28.25.96-.87-.79-1.14.53-1.22 1.05-1.32 1.66 1.5 2.01.87-.26.43-.79 1.32-.44.43-.87.8-1.31Z" cursor="pointer"/><path fill="#d4b9da" fill-opacity="1" stroke="#333" stroke-opacity="1" stroke-width=".2974184" d="m639.83 208.13 3.41 3.06 1.4 1.75 1.4 2.98-.17 1.48-1.75.53-1.31 1.05-1.93.26-.87-1.49-.44-1.92-2.19-2.71 1.4-.44-2.53-2.27v-.27l1.04.1.27-1.15 1.48-.17.8-.18Z" cursor="pointer"/><path fill="#c994c7" fill-opacity="1" stroke="#333" stroke-opacity="1" stroke-width=".2974184" d="m343.11 199.56.18-1.84-.79-1.13 3.06-1.93 2.54.53h2.89l2.18.43 1.75-.17 3.42.09.87 1.05 3.85 1.13.79-.52 2.36 1.14 2.45-.35.17 1.57-2.01 1.75-2.71.52-.18.88-1.3 1.4-.88 2.19.87 1.48-1.31 1.14-.44 1.75-1.66.52-1.57 2.02-2.72.08-2.1-.08-1.4.96-.87.96-1.05-.17-.79-.97-.52-1.48-2.1-.44-.09-.88.79-.96.35-.7-.7-.79.61-1.74-.79-1.58.88-.17.17-1.23.35-.44.1-2 .95-.7-.52-1.32-1.23-.09-.43.35h-1.23l-.44-1.31-.96.35Z" cursor="pointer"/><path fill="#d4b9da" fill-opacity="1" stroke="#333" stroke-opacity="1" stroke-width=".2974184" d="m552.44 290.1-.26 2.8-.96.7-2.01.6-1.14-2.1-.61-3.75.87-4.29 1.66 1.4 1.14 1.93Z" cursor="pointer"/><path fill="#c994c7" fill-opacity="1" stroke="#333" stroke-opacity="1" stroke-width=".2974184" d="m383.1 156.43.69-1.4 1.4-1.66.35-2.8-1.22-1.22-.44-3.15.96-2.19h1.75l.52-.87-.7-.79 2.37-3.24 1.4-2.53.87-1.66h1.66l.27-1.23 3.32.35v-1.49l.96-.08 2.54 1.13 2.89 1.49.78 3.5.79.87-2.97.7-1.4 1.58.52 1.49-2.54 1.83-3.15 2.01-.87 3.42 1.49 1.66 1.92 1.31-1.31 2.71-1.92.61-.18 4.12-.87 2.27-2.37-.18-.87 1.93-2.28.09-.78-2.28-1.84-2.8ZM382.04 184.95l.18.35-.27.26-.08.27.08.17-.08.09.17.09.09-.1.61.1v.26l1.14.09-.09 1.05-.87.43-1.58-.26-.35.96-1.05.09-.35-.35-1.14.88-.96.08-.96-.52-.7-1.14-.96.35v-1.14l1.4-1.4-.09-.7.96.27.53-.44h1.75l.43-.53Z" cursor="pointer"/><path fill="#d4b9da" fill-opacity="1" stroke="#333" stroke-opacity="1" stroke-width=".2974184" d="m514.65 203.85-.52.78-2.45-.43.17 1.48 2.28-.17 2.97.87 3.94-.43 1.22 2.44.62-.26 1.48.61.27 1.05.7 1.5h-2.2l-1.57-.27-1.05 1.22-.87.27-.61.52-1.05-.87-.44-2.2-.7-.08v-.87l-1.31-.53-.7.88.09 1.05-.27.43-1.3-.08-.36 1.22-.87-.52-1.4.87-.7-.35.52-2.62-.96-2.01-1.75-.62.26-1.13 1.75.08.7-1.4.18-1.75 2.62-.6-.09 1.22.53.78ZM599.77 277.76l-2.19-1.13h-1.92l.08-2.02h-2l.08 2.9-.88 3.84-.6 2.36.34 1.84 1.49.09 1.14 2.45.52 2.27 1.4 1.49 1.4.35 1.23 1.3-.7 1.15-1.5.26-.25-1.31-1.93-1.14-.44.44-.96-1.05-.44-1.23-1.3-1.49-1.23-1.3-.26 1.57-.53-1.49.18-1.66.43-2.54.96-2.71 1.05-2.45-1.13-2.36-.09-1.23-.44-1.48-1.75-2.1-.7-1.31.8-.53.52-2.27-1.14-1.75-1.75-1.93-1.4-2.27.87-.53.62-2.8 1.57-.17 1.23-1.14 1.22-.61 1.05.87.44 1.58 1.57.09-.17 2.8.35 2.36 2.27-1.58.7.44 1.31-.09.35-.87 1.75.17 2.1 2.1.53 2.63 2.1 2.27.17 2.27-.61 1.23-2.19-.44-2.88.53-1.23 2.18ZM450.88 200.43l2.28-.08 2.27 1.3.53.88v1.32l1.75.6.96.8-1.31.7 1.22 3.06-.35.78 1.58 2.1-.97.44-.87-.61-2.62-.35-.88.35-2.36.44h-1.23l-2.36.96h-1.75l-1.22-.53-2.36.8-.7-.53v1.48l-.44.53-.53.61-.96-1.22.7-.97-1.31.18-1.92-.61-1.32 1.57-3.23.26-1.93-1.4-2.36-.08-.44 1.05-1.48.35-2.28-1.4-2.36.08-1.49-2.62-1.75-1.49.79-2.01-1.49-1.31 2.1-2.45 3.33-.18.6-1.92 4.12.35 2.36-1.75 2.36-.7 3.5-.09 4.03 1.84 3.23 1.05 2.45-.44 1.84.26Zm-32.8 1.93.44-.35.52-1.66-1.13-.62 2.1-.87 1.83.35.35 1.05 2.01.79-.35.7-2.44.08-.88.88-1.57 1.4-.88-1.23Z" cursor="pointer"/><path fill="#df65b0" fill-opacity="1" stroke="#333" stroke-opacity="1" stroke-width=".2974184" d="m425.7 173.23.7.09.43-.53.61.09 2.01-.26 1.58 1.48-.44.44.35.79 1.66.17.88 1.05.08.53 2.72.87 1.48-.35 1.49 1.14h1.22l3.15.88.18.7-.53 1.4.7 1.4-.08.87-2.02.17-.87.7.17 1.14-1.66.18-1.13.87-1.93.09-1.66.96.44 1.66 1.13.61 2.1-.17-.26.96-2.19.44-2.62 1.49-1.23-.53.27-1.22-2.45-.79.35-.44 1.83-.87-.7-.61-3.32-.62-.35-.96-1.84.26-.52 1.49-1.4 1.84-.96-.44-.97.44-.96-.44.53-.35.17-.87.44-.8-.18-.43.44-.26.26.35 1.23.09.52-.18-.43-.26.08-.35-.87-.7-.44-1.05-.79-.44v-.87l-1.04-.7-.88-.1-1.57-.78-1.32.26-.43.35h-.88l-.44.62-1.48.26-.62.35-1.04-.61h-1.32l-1.3-.27-.8.53-.26-.7-1.22-.7.26-1.05.52-.61.44.08-.7-1.13 1.58-2.1.96-.26.17-.8-1.3-2.18.95-.09.97-.7h1.48l2.1.18 2.28.61h1.66l.79.35.7-.44.6.62 1.76-.1.87.27-.09-1.31.44-.53Z" cursor="pointer"/><path fill="#d4b9da" fill-opacity="1" stroke="#333" stroke-opacity="1" stroke-width=".2974184" d="m479.49 246 .35-.17.17.8 1.75-.45 1.93.1 1.31.08 1.4-1.84 1.57-1.66 1.23-1.66.52.96.53 2.01h-1.14v1.75l.44.35-1.05.53.09 1.13-.53 1.05v1.05l-.35.62-7-1.4-1.05-2.63Z" cursor="pointer"/><path fill="#df65b0" fill-opacity="1" stroke="#333" stroke-opacity="1" stroke-width=".2974184" d="m350.2 168.77-1.49-.53-1.22.1.52-1.4-.35-1.32 1.58-.09 2.1 1.49Zm6.47-11.81-2.1 2.71 2.02-.35h2l-.52 2.01-1.75 2.19 2.02.17.17.27 1.66 2.88 1.31.44 1.23 2.89.61.96 2.36.53-.17 1.57-1.05.79.79 1.3-1.75 1.32-2.72-.09-3.4.7-.97-.43-1.4 1.13-1.84-.26-1.4.96-1.05-.52 2.98-2.63 1.84-.52-3.15-.44-.53-1.05 2.1-.79-1.05-1.3.44-1.67 2.89.18.35-1.4-1.32-1.58-2.36-.44-.44-.7.7-1.13-.6-.7-1.06 1.22v-2.36l-.96-1.31.79-2.54 1.57-2.01 1.49.26Z" cursor="pointer"/><path fill="#c994c7" fill-opacity="1" stroke="#333" stroke-opacity="1" stroke-width=".2974184" d="m5.8 259.57-.43.52-.52-.43.26-.7-.18-.97.18-.35.52-.35v-.52l.18-.26h.17l.7.43.44.27.26.35.35.96-.08.09-1.05.6Zm-.25-4.11-.8.26-.25-.61-.27-.18v-.17l.35-.27.7.27.53.43Zm-1.23-1.4-.17.35-1.14-.09.17-.35Zm-1.92-.35-.18.17-.17-.09-.79-.08-.09-.62-.09-.08.7-.35.18.17Zm-3.41-1.75-.35.26-.7-.44.17-.26.44-.26.52.09Zm223.23-60.89.1.88-2.63 1.22-2.45.88-2.45.79-1.66 1.57-.53.61-.44 1.32.27 1.4.78.08.1-.96.52.61-.44.7-1.58.44h-1.05l-1.66.44-.96.08-1.31.18-2.01.7 3.32-.44.44.44-3.24.79h-1.31l.09-.27-.88.7.61.1-1.05 1.92-2.18 2 .08-.7-.43-.08-.53-.7v1.4l.44.53-.26.96-.97 1.05-1.83 2.1-.18-.1 1.14-1.83-.79-.96.44-2.19-.79 1.14v1.66l-1.31-.44 1.23.88-.62 2.45.53.17v.97l-.35 2.62-1.93 1.92-2.53.8-1.84 1.57-1.14.17-1.31.96-.61.88-2.8 1.75-1.58 1.22-1.4 1.58-.78 1.83v1.84l.26 2.28.61 1.83-.17 1.14.43 3.06-.35 1.84-.26.96-.79 1.66-.78.35-1.05-.35-.18-1.13-.78-.62-.8-2.27-.6-2.01-.18-1.05.79-1.75-.35-1.49-1.23-2.19-.78-.35-2.54 1.14-.35-.09-.79-1.22-1.31-.7-2.54.35-1.92-.26-1.75.17-1.05.35.26.7-.35 1.14.35.52-.44.35-.78-.43-.96.52-1.58-.09-1.4-1.4-2.01.35-1.49-.6-1.4.17-2 .6-2.55 1.93-2.53 1.14-1.49 1.31-.79 1.14-.43 1.84-.18 1.3.26.88-.87.1-1.49-.62-1.57-.79-.35-1.22-.1-1.93-.95-1.49-.44-1.48-.7-1.84-1.31-1.05-1.84.09-1.92 2.01-1.67-.79-.96-.78-.17-1.4-.35-1.4-.97-1.14-.87-.88-.52-.96h-3.85l-.35 1.14h-6.21l-4.47-1.84-2.88-1.31.35-.52-2.89.35-2.62.17.17-1.4-.87-1.49-.97-.35.1-.7-1.23-.17-.44-.7-2.01-.26-.35-.44.35-1.4-1.05-2.62-.18-3.68.35-.61-.52-.88-.61-2.18.78-2.19-.43-1.4 1.57-2.19 1.14-2.27.52-1.92 2.19-2.45 1.66-2.37 1.66-2.36 1.84-3.5.7-2.18.18-1.23.6-.52 2.37.87-.44 2.45.96-.7.97-2.1.7-2.1h56.33l.53-.96h.7l-.35 1.4.35.44 1.4.17 1.83.35 1.66.79 1.84-.26 2.19.6h.7l2.1-.7 1.48.88 1.58 1.05 1.31.88 1.23.79-.1.7.45.26-.27.26h.53l.52-.26-.17.61.26.44h.52l.18.35-.44.44 1.66 1.22-.43 2.36-.53 2.28-1.22 1.48-1.49 1.49-.79.87-.17.27.09.35.6.43h.53l2.98-1.4 2.27-.43 3.24-1.23.17-.26.09-.79-.17-.52 1.13-.44h4.03l1.05-1.05.35-.17 2.88-1.84 1.14-.53h7l.44-.6.7-.18 1.05-.44 1.13-1.14 1.31-2 2.28-1.93.44.7 1.57-.44.61.7-1.22 3.5Zm-152.2-30.35-2.9.96-.34-.7.96-1.13 2.63-.88 1.4-.35 1.13.18v.78Zm-16.1-6.82-1.57.35-.62-.44-.35-.61 2.28-.44 1.22.18Zm.52-9.19.53.44 1.4-.26.7.61 1.31.35-.44.17-2 .53-.7-.53-.18-.43-1.75.17-.18-.17Zm49.43 10.06.09 1.58 3.15-1.4 2.62-.79-.26 1.31.35.96.7 1.14-.53 1.75-.52 2.8 1.83 1.57-1.22 1.58-2.1 1.14-.26-.88-1.05-.79 1.31-2.18-.61-2.01 1.05-2.28-1.66-.17-2.9-.1-1.57-.7-1.4-2.53-1.3-.44-2.37-.87-2.8.18-2.45-1.05-1.05-1.05-2.62.52-1.49 1.66-1.14.18-2.7.52-2.54.79-2.63.52 1.31-1.48 3.41-2.36 2.8-.7.18-.62-3.85 1.32-3.06 1.66-4.64 1.66.09 1.22-3.67 1.75-3.15 1.05-2.72.7-1.66 1.14-4.37 1.23-1.84 1.22-3.32 1.05-1.14-.26-2.54.7-2.88.87-2.54.88-4.11.7.17-.44 3.42-1.14 2.7-.79 3.5-1.4 2.72-.26 2.01-.96 4.29-1.49.96-.52 2.27-.88 2.45-1.83 2.54-1.5-2.98.8-.17-.44-2.01.87.17-1.22-1.48.87.7-1.22-3.07.96h-1.13l1.48-1.4 1.4-.87-.17-.88-2.98.44-.17-1.14-.61-.61 1.66-1.31-.18-1.05 2.45-1.31 3.15-1.4 2.19-1.14 1.66-.18.79.35 2.89-1.13 1.05.17 2.27-.7 1.05-1.05-.44-.43 2.45-.88h-1.14l-2.53.53-1.23.52-.7-.52-2.88.26-1.84-.61.52-.88-.43-1.4 3.76-.96 5.42-1.05h1.49l-1.84 1.14 3.85-.1.44-1.48-.96-.87.35-1.05-.27-.96-1.3-.8 2.62-1.13 3.06-.09 3.67-.96 1.93-1.14 3.23-1.05 2.01-.26 4.64-.96 1.22.17 4.3-1.13 1.83.43-.26.97 1.4-.44 2.62.17-.88.53 2.02.35 2-.26 2.63.7 2.89.26.96.26 2.63-.35 1.75.61 1.4.35-10.06 8.4-14.7 13.39 1.75.08 1.14.62Z" cursor="pointer"/><path fill="#df65b0" fill-opacity="1" stroke="#333" stroke-opacity="1" stroke-width=".2974184" d="m233.5 389.64 1.4-.26 2.63 2.01.79-.08 2.54 1.75 2 1.4 1.58 1.83-.79 1.23.88 1.48-.7 1.67-2.19 1.48-1.75-.52-1.13.26-2.2-1.14-1.48.1-1.66-1.4-.09-1.76.35-.61-.52-2.62.17-2.72Z" cursor="pointer"/><path fill="#c994c7" fill-opacity="1" stroke="#333" stroke-opacity="1" stroke-width=".2974184" d="m507.04 211.37-.35-1.58-3.15-1.13-2.62-1.31-1.75-1.23-2.89-1.75-1.75-2.71-.87-.53-2.27.18-.97-.53-.78-2.1-3.24-1.4-1.31 1.5-1.66.95.7 1.32h-2.37l-2.62-9.63 4.99-1.48.43.17 3.76 1.93 2.02.96 2.7 2.36 2.37-.44 3.5-.17 3.15 1.92.61 2.63h1.05l1.05 2.1 2.71.08.96 1.23h.8l.43-1.84 2.18-1.84 1.05-.52.8.26-1.32 1.75 1.92.96 1.32-.6 2.97 1.3-2.19 1.93-1.75-.26-.87.08-.53-.78.1-1.23-2.63.61-.18 1.75-.7 1.4-1.75-.08-.26 1.13 1.75.62.96 2-.52 2.63-1.75-.52Z" cursor="pointer"/></g></g><g><g id="numeric-color-legend" class="numericColorLegend"><path stroke="#333" stroke-width=".3" d="M239.5 503.4v-3M283.26 503.4v-3M341.76 503.4v-3M400.26 503.4v-3M458.76 503.4v-3M517.26 503.4v-3M575.76 503.4v-3"/><path fill="url(#noDataPattern)" stroke="#333" stroke-width=".3" d="M215.74 503.4h47.52v10h-47.52z"/><path fill="#f1eef6" stroke="#333" stroke-width=".3" d="M283.26 503.4h58.5v10h-58.5z"/><path fill="#d4b9da" stroke="#333" stroke-width=".3" d="M341.76 503.4h58.5v10h-58.5z"/><path fill="#c994c7" stroke="#333" stroke-width=".3" d="M400.26 503.4h58.5v10h-58.5z"/><path fill="#df65b0" stroke="#333" stroke-width=".3" d="M458.76 503.4h58.5v10h-58.5z"/><path fill="#dd1c77" stroke="#333" stroke-width=".3" d="M517.26 503.4h58.5v10h-58.5z"/><path fill="#980043" stroke="#333" stroke-width=".3" d="M575.76 503.4h53.5l5 5-5 5h-53.5z"/><text x="215.74" y="486.9" fill="#111" dy=".71em" font-size="13.5">No data</text><text x="279.48" y="486.9" fill="#111" dy=".71em" font-size="13.5">0</text><text x="337.98" y="486.9" fill="#111" dy=".71em" font-size="13.5">5</text><text x="392.7" y="486.9" fill="#111" dy=".71em" font-size="13.5">10</text><text x="451.2" y="486.9" fill="#111" dy=".71em" font-size="13.5">15</text><text x="509.7" y="486.9" fill="#111" dy=".71em" font-size="13.5">20</text><text x="568.2" y="486.9" fill="#111" dy=".71em" font-size="13.5">25</text></g></g></g></g><g id="footer" class="SourcesFooter" style="fill:#5b5b5b"><g id="sources" class="markdown-text-wrap"><text x="16" y="546.5" style="font-size:13.5px;line-height:1.2"><tspan x="16" y="546.5"><tspan style="font-weight:700">Data source:</tspan> WHO Mortality Database (2024)</tspan></text></g><g id="note" class="markdown-text-wrap"><text x="16" y="564.7" style="font-size:13.5px;line-height:1.2"><tspan x="16" y="564.7"><tspan style="font-weight:700">Note:</tspan> To allow for comparisons between countries and over time, this metric is <tspan class="dod-span" data-id="age_standardized">age-standardized</tspan>. All deaths in a country may not have</tspan><tspan x="16" y="580.9">been registered with a <tspan class="dod-span" data-id="underlying-cause-of-death">cause of death</tspan>.</tspan></text></g><text id="origin-url" x="616.9" y="546.5" font-size="13.5"><tspan x="616.92" y="546.5"><a href="https://ourworldindata.org/cancer" style="fill:#5b5b5b" target="_blank">OurWorldinData.org/cancer</a> | <a href="https://creativecommons.org/licenses/by/4.0/" style="fill:#5b5b5b" target="_blank">CC BY</a></tspan></text></g></svg>