<svg xmlns="http://www.w3.org/2000/svg" width="850" height="600" style="font-family:Lato,&quot;Helvetica Neue&quot;,Helvetica,Arial,&quot;Liberation Sans&quot;,sans-serif;font-size:18px;background-color:#fff;text-rendering:geometricPrecision;-webkit-font-smoothing:antialiased" version="1.1" viewBox="0 0 850 600"><defs><style>@import url(https://ourworldindata.org/fonts.css);</style></defs><defs><pattern id="noDataPattern" width="4" height="4" patternTransform="rotate(-45 2 2)" patternUnits="userSpaceOnUse"><path stroke="#ccc" stroke-width=".7" d="M-1 2h6"/></pattern></defs><path fill="#fff" d="M0 0h850v600H0z" class="background-fill"/><g id="header" class="HeaderView"><g id="logo" transform="translate(769 16)"><svg xmlns="http://www.w3.org/2000/svg" width="65" height="36" fill="none" className="owidLogo" viewBox="0 0 65 36"><path fill="#002147" d="M0 0h64.8v36H0z"/><path fill="#CE261E" d="M0 33.3h64.8V36H0z"/><path fill="#fff" d="M13.8 10.57c0 .64-.11 1.23-.32 1.77a4.2 4.2 0 0 1-.9 1.4 4.08 4.08 0 0 1-1.38.94c-.54.22-1.14.33-1.8.33-.65 0-1.25-.11-1.8-.33a4.15 4.15 0 0 1-1.39-.93 4.2 4.2 0 0 1-.9-1.4A4.83 4.83 0 0 1 5 10.56c0-.63.1-1.22.32-1.76a4.18 4.18 0 0 1 .9-1.4 4.08 4.08 0 0 1 1.38-.93 4.68 4.68 0 0 1 1.8-.34c.66 0 1.26.11 1.8.34a4.08 4.08 0 0 1 2.28 2.33c.21.54.32 1.13.32 1.76Zm-1.66 0c0-.47-.06-.9-.2-1.27a2.67 2.67 0 0 0-.53-.97 2.33 2.33 0 0 0-.87-.6A2.94 2.94 0 0 0 9.4 7.5c-.42 0-.8.07-1.14.21-.34.14-.63.35-.87.61a2.74 2.74 0 0 0-.55.97 3.96 3.96 0 0 0-.19 1.27c0 .48.06.9.2 1.29a2.42 2.42 0 0 0 1.42 1.56c.33.14.71.2 1.13.2.43 0 .8-.06 1.14-.2a2.37 2.37 0 0 0 1.4-1.56 4.01 4.01 0 0 0 .2-1.29Zm3.96-1.81v3.9c0 .39.09.68.26.89.18.2.44.3.79.3.25 0 .5-.06.72-.17a2.58 2.58 0 0 0 .63-.47V8.76H20v6.15h-.91c-.2 0-.32-.09-.38-.27l-.1-.49a4.65 4.65 0 0 1-.4.35 2.58 2.58 0 0 1-.43.27 2.35 2.35 0 0 1-.5.17 2.35 2.35 0 0 1-.57.07c-.34 0-.64-.06-.9-.17a1.82 1.82 0 0 1-.64-.49 2.16 2.16 0 0 1-.4-.73 3.23 3.23 0 0 1-.14-.95V8.76h1.48Zm5.23 6.15V8.76h.87c.15 0 .26.02.32.08s.1.15.12.29l.09.74c.22-.38.47-.68.77-.9.3-.22.63-.33 1-.33.3 0 .55.07.75.21l-.19 1.11c-.01.07-.04.13-.08.16a.28.28 0 0 1-.16.04 1.01 1.01 0 0 1-.25-.04 1.65 1.65 0 0 0-.41-.04c-.3 0-.57.08-.8.25-.21.17-.4.42-.55.75v3.83h-1.48Zm6.02-8.67h1.35a.57.57 0 0 1 .35.1c.1.06.16.15.2.26l1.47 5.2a10.12 10.12 0 0 1 .19.9 5.97 5.97 0 0 1 .22-.9l1.7-5.2a.57.57 0 0 1 .2-.25.54.54 0 0 1 .34-.11h.48a.57.57 0 0 1 .34.1.5.5 0 0 1 .2.26l1.69 5.2c.08.25.16.53.22.85a31.71 31.71 0 0 1 .19-.86l1.47-5.19c.03-.1.1-.18.19-.25a.56.56 0 0 1 .34-.11h1.27l-2.7 8.67h-1.45L33.7 9l-.08-.25a9.5 9.5 0 0 1-.07-.28 4.04 4.04 0 0 1-.15.53L31.5 14.9h-1.46l-2.7-8.67Zm15.42 2.42c.46 0 .88.07 1.25.22s.7.36.96.63.47.6.61 1 .22.83.22 1.31c0 .5-.08.93-.22 1.32a2.85 2.85 0 0 1-.61 1 2.65 2.65 0 0 1-.96.64 3.35 3.35 0 0 1-1.25.22 3.4 3.4 0 0 1-1.25-.22 2.71 2.71 0 0 1-.97-.63 2.92 2.92 0 0 1-.62-1 3.8 3.8 0 0 1-.21-1.33c0-.48.07-.92.21-1.31a2.75 2.75 0 0 1 1.58-1.63 3.4 3.4 0 0 1 1.26-.22Zm0 5.2c.51 0 .9-.17 1.13-.51.25-.35.38-.85.38-1.52s-.13-1.17-.38-1.51c-.24-.35-.62-.53-1.13-.53-.52 0-.9.18-1.15.53-.25.35-.37.85-.37 1.51s.12 1.17.37 1.52c.25.34.63.51 1.15.51Zm3.95 1.05V8.76h.87c.15 0 .26.02.32.08s.1.15.12.29l.1.74c.21-.38.47-.68.76-.9.3-.22.63-.33 1-.33.3 0 .56.07.76.21l-.2 1.11c0 .07-.03.13-.07.16a.28.28 0 0 1-.17.04 1.01 1.01 0 0 1-.24-.04 1.65 1.65 0 0 0-.42-.04c-.3 0-.57.08-.79.25-.22.17-.4.42-.56.75v3.83h-1.48ZM52.96 6v8.91h-1.48V6h1.48Zm5.77 8.91c-.19 0-.32-.09-.38-.27l-.12-.6a3.68 3.68 0 0 1-.4.4 2.5 2.5 0 0 1-.98.5 2.37 2.37 0 0 1-.6.06c-.33 0-.64-.07-.92-.2a2.1 2.1 0 0 1-.73-.61 3.03 3.03 0 0 1-.46-1 5.07 5.07 0 0 1-.17-1.34c0-.45.07-.88.19-1.27s.3-.73.53-1.02c.24-.29.51-.51.84-.67a2.38 2.38 0 0 1 1.09-.25 2.1 2.1 0 0 1 1.54.6V6h1.48v8.91h-.9Zm-1.97-1.08c.3 0 .57-.07.78-.2.22-.12.42-.3.62-.54v-2.76a1.45 1.45 0 0 0-.56-.43 1.6 1.6 0 0 0-.63-.13c-.23 0-.43.04-.61.13a1.21 1.21 0 0 0-.47.38c-.12.17-.22.39-.28.65a4.3 4.3 0 0 0-.02 1.84c.06.25.14.45.25.61.1.16.24.27.4.34.15.07.33.1.52.1Zm-40.43 6.93v6.15h-1.48v-6.15h1.48Zm.22-1.8a.84.84 0 0 1-.07.36.96.96 0 0 1-.21.3 1 1 0 0 1-.3.2.96.96 0 0 1-.38.07.95.95 0 0 1-.36-.07 1.02 1.02 0 0 1-.5-.5.96.96 0 0 1 0-.73 1 1 0 0 1 .2-.3.93.93 0 0 1 .3-.2.9.9 0 0 1 .73 0 .91.91 0 0 1 .3.2.94.94 0 0 1 .3.67Zm1.22 7.95v-6.15h.9c.2 0 .32.09.38.27l.1.48a2.93 2.93 0 0 1 .84-.61 2.3 2.3 0 0 1 1.07-.24c.34 0 .63.06.9.18.25.1.47.27.64.48.18.2.3.45.4.73.09.29.13.6.13.95v3.91h-1.48V23c0-.38-.08-.67-.26-.87-.17-.21-.43-.32-.78-.32-.26 0-.5.06-.72.18a2.58 2.58 0 0 0-.64.47v4.45h-1.48Zm16.45-4.34c0 .64-.1 1.22-.32 1.76-.21.53-.5.99-.9 1.37a4 4 0 0 1-1.38.9 4.87 4.87 0 0 1-1.8.31h-3.3v-8.67h3.3a4.79 4.79 0 0 1 1.8.32 4 4 0 0 1 1.39.9c.38.37.68.83.9 1.36.2.53.31 1.12.31 1.75Zm-1.65 0c0-.47-.06-.9-.2-1.27a2.68 2.68 0 0 0-.54-.96 2.33 2.33 0 0 0-.86-.6 2.94 2.94 0 0 0-1.14-.22h-1.69v6.1h1.69c.42 0 .8-.06 1.14-.2.34-.14.63-.34.86-.6a2.75 2.75 0 0 0 .55-.96 4.01 4.01 0 0 0 .19-1.29Zm7.41 4.34h-.67a.75.75 0 0 1-.33-.06c-.07-.04-.13-.13-.17-.25l-.14-.44c-.15.14-.3.26-.46.37a2.8 2.8 0 0 1-.46.26c-.16.08-.33.13-.51.17a3.07 3.07 0 0 1-1.32-.05 1.62 1.62 0 0 1-.57-.32 1.45 1.45 0 0 1-.37-.52 1.85 1.85 0 0 1-.13-.73c0-.23.06-.46.18-.68.12-.23.33-.44.61-.62.29-.18.67-.33 1.14-.45a8.01 8.01 0 0 1 1.75-.2v-.36c0-.42-.08-.72-.26-.92-.17-.2-.42-.3-.76-.3a1.84 1.84 0 0 0-1.01.28l-.33.19a.66.66 0 0 1-.33.08.43.43 0 0 1-.26-.08.61.61 0 0 1-.17-.2l-.27-.46c.7-.65 1.56-.98 2.56-.98.36 0 .68.06.96.18a1.99 1.99 0 0 1 1.16 1.25c.1.29.16.6.16.96v3.88ZM37.1 26c.15 0 .3-.01.42-.04a1.81 1.81 0 0 0 .69-.33c.1-.09.22-.19.32-.3v-1.04c-.43.02-.79.06-1.08.12a2.8 2.8 0 0 0-.7.2.92.92 0 0 0-.37.3.66.66 0 0 0-.11.36c0 .26.07.45.22.56.16.11.36.17.61.17ZM43.22 27c-.53 0-.94-.15-1.23-.45-.29-.3-.43-.72-.43-1.25v-3.44h-.63a.31.31 0 0 1-.2-.08c-.06-.05-.09-.13-.09-.23v-.6l.99-.15.31-1.68a.3.3 0 0 1 .11-.2.36.36 0 0 1 .22-.06h.77v1.94h1.62v1.06h-1.62v3.33c0 .2.05.35.14.45a.49.49 0 0 0 .39.17.73.73 0 0 0 .39-.1l.12-.07a.2.2 0 0 1 .11-.04.16.16 0 0 1 .11.04c.03.02.06.05.09.1l.44.71c-.21.18-.46.32-.74.41a2.77 2.77 0 0 1-.87.14Zm7.2-.1h-.66a.75.75 0 0 1-.33-.06c-.08-.04-.14-.13-.18-.25l-.13-.44c-.16.14-.31.26-.47.37a2.8 2.8 0 0 1-.46.26c-.16.08-.33.13-.5.17a3.07 3.07 0 0 1-1.33-.05 1.62 1.62 0 0 1-.57-.32 1.45 1.45 0 0 1-.36-.52 1.85 1.85 0 0 1-.14-.73c0-.23.06-.46.18-.68.13-.23.33-.44.62-.62.28-.18.66-.33 1.13-.45a8.01 8.01 0 0 1 1.76-.2v-.36c0-.42-.1-.72-.27-.92-.17-.2-.42-.3-.75-.3a1.84 1.84 0 0 0-1.02.28l-.33.19a.66.66 0 0 1-.33.08.43.43 0 0 1-.25-.08.61.61 0 0 1-.18-.2l-.27-.46c.7-.65 1.56-.98 2.56-.98.36 0 .68.06.96.18a1.99 1.99 0 0 1 1.17 1.25c.1.29.15.6.15.96v3.88ZM47.54 26c.16 0 .3-.01.42-.04a1.88 1.88 0 0 0 .69-.33l.33-.3v-1.04c-.44.02-.8.06-1.09.12a2.8 2.8 0 0 0-.7.2.92.92 0 0 0-.37.3.66.66 0 0 0-.11.36c0 .26.08.45.23.56.15.11.36.17.6.17Z"/></svg></g><a id="title" href="https://ourworldindata.org/grapher/cancer-death-rates-by-type" rel="noopener" style="font-family:&quot;Playfair Display&quot;,Georgia,&quot;Times New Roman&quot;,&quot;Liberation Serif&quot;,serif" target="_blank"><text x="16" y="40" fill="#5b5b5b" font-size="24.75" font-weight="600"><tspan x="16" y="40.01">Cancer death rate by type, World</tspan></text></a><g id="subtitle" class="markdown-text-wrap"><text x="16" y="63.9" fill="#5b5b5b" style="font-size:14.625px;line-height:1.2"><tspan x="16" y="63.9">Estimated number of deaths from different types of <tspan class="dod-span" data-id="cancer">cancer</tspan> per 100,000 people.</tspan></text></g></g><g id="chart-area" style="pointer-events:none"><g id="horizontal-axis" class="HorizontalAxis"><g id="tick-marks"><path id="1980" stroke="#999" stroke-width="1" d="M36.1 512.6v5.5"/><path id="2021" stroke="#999" stroke-width="1" d="M630 512.6v5.5"/><path id="1985" stroke="#999" stroke-width="1" d="M108.5 512.6v5.5"/><path id="1990" stroke="#999" stroke-width="1" d="M181 512.6v5.5"/><path id="1995" stroke="#999" stroke-width="1" d="M253.4 512.6v5.5"/><path id="2000" stroke="#999" stroke-width="1" d="M325.8 512.6v5.5"/><path id="2005" stroke="#999" stroke-width="1" d="M398.2 512.6v5.5"/><path id="2010" stroke="#999" stroke-width="1" d="M470.7 512.6v5.5"/><path id="2015" stroke="#999" stroke-width="1" d="M543.1 512.6v5.5"/></g><g id="tick-labels"><text x="36.12" y="531.6" fill="#5b5b5b" font-size="13.5" text-anchor="start">1980</text><text x="629.98" y="531.6" fill="#5b5b5b" font-size="13.5" text-anchor="end">2021</text><text x="108.5" y="531.6" fill="#5b5b5b" font-size="13.5" text-anchor="middle">1985</text><text x="181" y="531.6" fill="#5b5b5b" font-size="13.5" text-anchor="middle">1990</text><text x="253.4" y="531.6" fill="#5b5b5b" font-size="13.5" text-anchor="middle">1995</text><text x="325.8" y="531.6" fill="#5b5b5b" font-size="13.5" text-anchor="middle">2000</text><text x="398.2" y="531.6" fill="#5b5b5b" font-size="13.5" text-anchor="middle">2005</text><text x="470.7" y="531.6" fill="#5b5b5b" font-size="13.5" text-anchor="middle">2010</text><text x="543.1" y="531.6" fill="#5b5b5b" font-size="13.5" text-anchor="middle">2015</text></g></g><g id="vertical-axis" class="VerticalAxis"><g><text x="31.12" y="513.1" fill="#5b5b5b" dy=".32em" font-size="13.5" text-anchor="end">0</text><text x="31.12" y="436.4" fill="#5b5b5b" dy=".32em" font-size="13.5" text-anchor="end">5</text><text x="31.12" y="359.7" fill="#5b5b5b" dy=".32em" font-size="13.5" text-anchor="end">10</text><text x="31.12" y="282.9" fill="#5b5b5b" dy=".32em" font-size="13.5" text-anchor="end">15</text><text x="31.12" y="206.2" fill="#5b5b5b" dy=".32em" font-size="13.5" text-anchor="end">20</text><text x="31.12" y="129.5" fill="#5b5b5b" dy=".32em" font-size="13.5" text-anchor="end">25</text></g></g><g id="horizontal-grid-lines" class="AxisGridLines horizontalLines"><path id="0" stroke="#999" stroke-width="1" d="M36.12 513.1h593.86"/><path id="5" stroke="#ddd" stroke-dasharray="3,2" stroke-width="1" d="M36.12 436.4h593.86"/><path id="10" stroke="#ddd" stroke-dasharray="3,2" stroke-width="1" d="M36.12 359.7h593.86"/><path id="15" stroke="#ddd" stroke-dasharray="3,2" stroke-width="1" d="M36.12 282.9h593.86"/><path id="20" stroke="#ddd" stroke-dasharray="3,2" stroke-width="1" d="M36.12 206.2h593.86"/><path id="25" stroke="#ddd" stroke-dasharray="3,2" stroke-width="1" d="M36.12 129.5h593.86"/></g><g id="line-labels" class="LineLabels"><g><path id="Lung, trachea and bronchus" fill="none" stroke="#999" stroke-width=".5" d="M633.98 152.5h27"/><path id="Colon and rectum" fill="none" stroke="#999" stroke-width=".5" d="M633.98 322.9h27"/><path id="Stomach" fill="none" stroke="#999" stroke-width=".5" d="M633.98 341.3h27"/><path id="Breast" fill="none" stroke="#999" stroke-width=".5" d="M633.98 391.9h10.8v-9.34h16.2"/><path id="Esophagus" fill="none" stroke="#999" stroke-width=".5" d="M633.98 417.1h16.2v-19.04h10.8"/><path id="Pancreas" fill="none" stroke="#999" stroke-width=".5" d="M633.98 421.8h21.6v-8.24h5.4"/><path id="Liver" fill="none" stroke="#999" stroke-width=".5" d="M633.98 426.5h21.6v2.56h5.4"/><path id="Prostate" fill="none" stroke="#999" stroke-width=".5" d="M633.98 432.4h16.2v12.16h10.8"/><path id="Leukemia" fill="none" stroke="#999" stroke-width=".5" d="M633.98 453.4h10.8v6.66h16.2"/><path id="Cervix" fill="none" stroke="#999" stroke-width=".5" d="M633.98 460.3h5.4v15.26h21.6"/></g><g><text x="665" y="157.5" fill="#00295b" font-size="13.5" font-weight="400"><tspan x="664.98" y="157.5">Lung, trachea and bronchus</tspan></text><text x="665" y="327.9" fill="#a2559c" font-size="13.5" font-weight="400"><tspan x="664.98" y="327.89">Colon and rectum</tspan></text><text x="665" y="346.3" fill="#2c8465" font-size="13.5" font-weight="400"><tspan x="664.98" y="346.3">Stomach</tspan></text><text x="665" y="387.6" fill="#b13507" font-size="13.5" font-weight="400"><tspan x="664.98" y="387.55">Breast</tspan></text><text x="665" y="403.1" fill="#6d3e91" font-size="13.5" font-weight="400"><tspan x="664.98" y="403.05">Esophagus</tspan></text><text x="665" y="418.6" fill="#883039" font-size="13.5" font-weight="400"><tspan x="664.98" y="418.55">Pancreas</tspan></text><text x="665" y="434.1" fill="#9a5129" font-size="13.5" font-weight="400"><tspan x="664.98" y="434.05">Liver</tspan></text><text x="665" y="449.6" fill="#4c6a9c" font-size="13.5" font-weight="400"><tspan x="664.98" y="449.55">Prostate</tspan></text><text x="665" y="465.1" fill="#008291" font-size="13.5" font-weight="400"><tspan x="664.98" y="465.05">Leukemia</tspan></text><text x="665" y="480.6" fill="#996d39" font-size="13.5" font-weight="400"><tspan x="664.98" y="480.55">Cervix</tspan></text></g></g><g id="lines"><path id="outline__Leukemia" fill="none" stroke="#fff" stroke-linecap="butt" stroke-linejoin="round" stroke-width="2.5" d="m36.1 421.8 14.5 1 14.5 1 14.5.5 14.5.2 14.4.3 14.5 1 14.5.4 14.5.4 14.5.2 14.5.9 14.4.5 14.5.6 14.5.6 14.5.6 14.5.7 14.5 1 14.5 1.1 14.4.6 14.5.4 14.5.5 14.5.8 14.5 1 14.5.9 14.4 1.2 14.5 1 14.5 1.6 14.5 1.1 14.5.7 14.5.7 14.5.9 14.4.8 14.5 1 14.5.8 14.5.9 14.5.6 14.5.6 14.4.7 14.5.7 14.5.8 14.5 1.4 14.5.9"/><path id="line__Leukemia" fill="none" stroke="#008291" stroke-linecap="butt" stroke-linejoin="round" stroke-width="1.5" d="m36.1 421.8 14.5 1 14.5 1 14.5.5 14.5.2 14.4.3 14.5 1 14.5.4 14.5.4 14.5.2 14.5.9 14.4.5 14.5.6 14.5.6 14.5.6 14.5.7 14.5 1 14.5 1.1 14.4.6 14.5.4 14.5.5 14.5.8 14.5 1 14.5.9 14.4 1.2 14.5 1 14.5 1.6 14.5 1.1 14.5.7 14.5.7 14.5.9 14.4.8 14.5 1 14.5.8 14.5.9 14.5.6 14.5.6 14.4.7 14.5.7 14.5.8 14.5 1.4 14.5.9"/><path id="outline__Liver" fill="none" stroke="#fff" stroke-linecap="butt" stroke-linejoin="round" stroke-width="2.5" d="m36.1 418.4 14.5 1.2 14.5 1 14.5.9 14.5 1.3 14.4.7 14.5 1.2 14.5-.6 14.5-.2 14.5-.8H181l14.4-.3 14.5-.5 14.5-.7 14.5-1.3 14.5-2.5 14.5-1.1 14.5.1 14.4-1.1 14.5-1.2 14.5-.8 14.5.5 14.5 1.2 14.5 2.1 14.4 2.1 14.5 1 14.5 1.1 14.5.1 14.5-1.1h29l14.4 1 14.5.7 14.5-.5 14.5-1 14.5.2 14.5 1 14.4 1.1 14.5.7 14.5 1.4 14.5.8 14.5.4"/><path id="line__Liver" fill="none" stroke="#9A5129" stroke-linecap="butt" stroke-linejoin="round" stroke-width="1.5" d="m36.1 418.4 14.5 1.2 14.5 1 14.5.9 14.5 1.3 14.4.7 14.5 1.2 14.5-.6 14.5-.2 14.5-.8H181l14.4-.3 14.5-.5 14.5-.7 14.5-1.3 14.5-2.5 14.5-1.1 14.5.1 14.4-1.1 14.5-1.2 14.5-.8 14.5.5 14.5 1.2 14.5 2.1 14.4 2.1 14.5 1 14.5 1.1 14.5.1 14.5-1.1h29l14.4 1 14.5.7 14.5-.5 14.5-1 14.5.2 14.5 1 14.4 1.1 14.5.7 14.5 1.4 14.5.8 14.5.4"/><path id="outline__Colon and rectum" fill="none" stroke="#fff" stroke-linecap="butt" stroke-linejoin="round" stroke-width="2.5" d="m36.1 267.2 14.5 1.7 14.5 2.3h14.5l14.5-1.1 14.4-.2 14.5 2.7 14.5-.5 14.5.5h14.5l14.5 1.7 14.4 1.2 14.5.3 14.5-.1 14.5 1.2 14.5 1.6 14.5 2.6 14.5 2.6 14.4 1.5 14.5.8 14.5 1.3 14.5 1.7 14.5 1.7 14.5 1 14.4 2.5 14.5 2.3 14.5 4.8 14.5 2.5 14.5.6 14.5 2.5 14.5 1 14.4 1.5 14.5 2.1 14.5 2.3 14.5 2 14.5.3 14.5.3 14.4 1.7 14.5.7 14.5.8 14.5 2.4 14.5.9"/><path id="line__Colon and rectum" fill="none" stroke="#A2559C" stroke-linecap="butt" stroke-linejoin="round" stroke-width="1.5" d="m36.1 267.2 14.5 1.7 14.5 2.3h14.5l14.5-1.1 14.4-.2 14.5 2.7 14.5-.5 14.5.5h14.5l14.5 1.7 14.4 1.2 14.5.3 14.5-.1 14.5 1.2 14.5 1.6 14.5 2.6 14.5 2.6 14.4 1.5 14.5.8 14.5 1.3 14.5 1.7 14.5 1.7 14.5 1 14.4 2.5 14.5 2.3 14.5 4.8 14.5 2.5 14.5.6 14.5 2.5 14.5 1 14.4 1.5 14.5 2.1 14.5 2.3 14.5 2 14.5.3 14.5.3 14.4 1.7 14.5.7 14.5.8 14.5 2.4 14.5.9"/><path id="outline__Lung, trachea and bronchus" fill="none" stroke="#fff" stroke-linecap="butt" stroke-linejoin="round" stroke-width="2.5" d="m36.1 108.7 14.5.1 14.5.1 14.5-2.6 14.5-3 14.4-5.4 14.5 4.4 14.5-5 14.5-2.6 14.5-2.5L181 90l14.4 1.2 14.5-.1 14.5-1.8 14.5 1.4 14.5-1.4 14.5 4.5 14.5 3.7 14.4 1 14.5-.1 14.5-2.8 14.5 1.5 14.5 1.2h14.5l14.4-.1 14.5 2.7 14.5 8.3 14.5 3.4 14.5.2 14.5.5 14.5 2.8 14.4 2 14.5 3.6 14.5 4.9 14.5 4.4 14.5 4.5 14.5 1.5 14.4 5.6 14.5 3.7L601 149l14.5 2.9 14.5.6"/><path id="line__Lung, trachea and bronchus" fill="none" stroke="#00295B" stroke-linecap="butt" stroke-linejoin="round" stroke-width="1.5" d="m36.1 108.7 14.5.1 14.5.1 14.5-2.6 14.5-3 14.4-5.4 14.5 4.4 14.5-5 14.5-2.6 14.5-2.5L181 90l14.4 1.2 14.5-.1 14.5-1.8 14.5 1.4 14.5-1.4 14.5 4.5 14.5 3.7 14.4 1 14.5-.1 14.5-2.8 14.5 1.5 14.5 1.2h14.5l14.4-.1 14.5 2.7 14.5 8.3 14.5 3.4 14.5.2 14.5.5 14.5 2.8 14.4 2 14.5 3.6 14.5 4.9 14.5 4.4 14.5 4.5 14.5 1.5 14.4 5.6 14.5 3.7L601 149l14.5 2.9 14.5.6"/><path id="outline__Pancreas" fill="none" stroke="#fff" stroke-linecap="butt" stroke-linejoin="round" stroke-width="2.5" d="m36.1 428.6 14.5.2 14.5.4 14.5-.4 14.5-.8 14.4-.7 14.5.3 14.5-.8 14.5-.3 14.5-.3 14.5.1 14.4-.1 14.5-.3 14.5-.6 14.5-.2 14.5.3 14.5.3 14.5.3h14.4l14.5-.1 14.5-.6 14.5.1h14.5l14.5-.3 14.4-.4 14.5-.6 14.5.2 14.5-.4 14.5-.6 14.5-.2 14.5-.6 14.4-.2 14.5-.1 14.5.3h14.5l14.5-.3 14.5-.8 14.4-.2 14.5-.4 14.5-.2 14.5 1 14.5.2"/><path id="line__Pancreas" fill="none" stroke="#883039" stroke-linecap="butt" stroke-linejoin="round" stroke-width="1.5" d="m36.1 428.6 14.5.2 14.5.4 14.5-.4 14.5-.8 14.4-.7 14.5.3 14.5-.8 14.5-.3 14.5-.3 14.5.1 14.4-.1 14.5-.3 14.5-.6 14.5-.2 14.5.3 14.5.3 14.5.3h14.4l14.5-.1 14.5-.6 14.5.1h14.5l14.5-.3 14.4-.4 14.5-.6 14.5.2 14.5-.4 14.5-.6 14.5-.2 14.5-.6 14.4-.2 14.5-.1 14.5.3h14.5l14.5-.3 14.5-.8 14.4-.2 14.5-.4 14.5-.2 14.5 1 14.5.2"/><path id="outline__Esophagus" fill="none" stroke="#fff" stroke-linecap="butt" stroke-linejoin="round" stroke-width="2.5" d="m36.1 367.4 14.5 1.1 14.5 1.6 14.5 1 14.5 1.1 14.4 1.4 14.5 2.1 14.5-1.1 14.5-.3 14.5-1 14.5 1.4 14.4.9 14.5.8 14.5.6 14.5.9 14.5.7 14.5 1.8 14.5 1.6 14.4.6 14.5.3 14.5-1 14.5.1 14.5 1 14.5-.3 14.4.3 14.5 3 14.5 6.3 14.5 3.9 14.5 2.6 14.5 2.2 14.5 2 14.4 2.7 14.5 2.9 14.5 2.7 14.5 2.5 14.5 1.1 14.5.6 14.4 1.2 14.5.2 14.5-.1 14.5.3H630"/><path id="line__Esophagus" fill="none" stroke="#6D3E91" stroke-linecap="butt" stroke-linejoin="round" stroke-width="1.5" d="m36.1 367.4 14.5 1.1 14.5 1.6 14.5 1 14.5 1.1 14.4 1.4 14.5 2.1 14.5-1.1 14.5-.3 14.5-1 14.5 1.4 14.4.9 14.5.8 14.5.6 14.5.9 14.5.7 14.5 1.8 14.5 1.6 14.4.6 14.5.3 14.5-1 14.5.1 14.5 1 14.5-.3 14.4.3 14.5 3 14.5 6.3 14.5 3.9 14.5 2.6 14.5 2.2 14.5 2 14.4 2.7 14.5 2.9 14.5 2.7 14.5 2.5 14.5 1.1 14.5.6 14.4 1.2 14.5.2 14.5-.1 14.5.3H630"/><path id="outline__Stomach" fill="none" stroke="#fff" stroke-linecap="butt" stroke-linejoin="round" stroke-width="2.5" d="m36.1 102.5 14.5 7.8 14.5 9.4 14.5 5.6 14.5 6.8 14.4 11 14.5 12.5 14.5 2.9 14.5 5 14.5 3.1 14.5 8.8 14.4 7.2 14.5 6.1 14.5 5.8 14.5 6.4 14.5 6.7 14.5 8 14.5 7.5 14.4 5 14.5 4 14.5 2.7 14.5 4.1 14.5 3.6 14.5 2.2 14.4 3.3 14.5 8.4 14.5 13.8 14.5 8.4 14.5 5.3 14.5 4.9 14.5 4.9 14.4 6.8 14.5 6.2 14.5 5.7 14.5 6.1 14.5 4.2 14.5 3 14.4 4.6 14.5 3.1 14.5 2.9 14.5 2.9 14.5 2.1"/><path id="line__Stomach" fill="none" stroke="#2C8465" stroke-linecap="butt" stroke-linejoin="round" stroke-width="1.5" d="m36.1 102.5 14.5 7.8 14.5 9.4 14.5 5.6 14.5 6.8 14.4 11 14.5 12.5 14.5 2.9 14.5 5 14.5 3.1 14.5 8.8 14.4 7.2 14.5 6.1 14.5 5.8 14.5 6.4 14.5 6.7 14.5 8 14.5 7.5 14.4 5 14.5 4 14.5 2.7 14.5 4.1 14.5 3.6 14.5 2.2 14.4 3.3 14.5 8.4 14.5 13.8 14.5 8.4 14.5 5.3 14.5 4.9 14.5 4.9 14.4 6.8 14.5 6.2 14.5 5.7 14.5 6.1 14.5 4.2 14.5 3 14.4 4.6 14.5 3.1 14.5 2.9 14.5 2.9 14.5 2.1"/><path id="outline__Cervix" fill="none" stroke="#fff" stroke-linecap="butt" stroke-linejoin="round" stroke-width="2.5" d="m36.1 421.6 14.5 1.4 14.5 2.1 14.5 1.1 14.5 1.2 14.4 1.2 14.5 2 14.5 1 14.5 1.1 14.5 1 14.5 1.6 14.4 1.4 14.5.8 14.5 1.1 14.5 1 14.5 1.2 14.5 1.2 14.5 1.1 14.4 1.2 14.5 1 14.5 1.3 14.5 1.3 14.5.7 14.5.5 14.4 1.1 14.5 1.2 14.5 1.3 14.5 1.2 14.5.9 14.5.9 14.5.7 14.4.5 14.5.5 14.5.4 14.5.1h14.5l14.5-.1 14.4.3 14.5.4 14.5.7 14.5.7 14.5.4"/><path id="line__Cervix" fill="none" stroke="#996D39" stroke-linecap="butt" stroke-linejoin="round" stroke-width="1.5" d="m36.1 421.6 14.5 1.4 14.5 2.1 14.5 1.1 14.5 1.2 14.4 1.2 14.5 2 14.5 1 14.5 1.1 14.5 1 14.5 1.6 14.4 1.4 14.5.8 14.5 1.1 14.5 1 14.5 1.2 14.5 1.2 14.5 1.1 14.4 1.2 14.5 1 14.5 1.3 14.5 1.3 14.5.7 14.5.5 14.4 1.1 14.5 1.2 14.5 1.3 14.5 1.2 14.5.9 14.5.9 14.5.7 14.4.5 14.5.5 14.5.4 14.5.1h14.5l14.5-.1 14.4.3 14.5.4 14.5.7 14.5.7 14.5.4"/><path id="outline__Breast" fill="none" stroke="#fff" stroke-linecap="butt" stroke-linejoin="round" stroke-width="2.5" d="m36.1 373.7 14.5.1 14.5.8 14.5-.3 14.5-1.4 14.4-1.1 14.5.6 14.5-.6 14.5-.1h14.5l14.5.9 14.4.1 14.5-.2 14.5-.9h14.5l14.5.5 14.5 1.3 14.5 1.7 14.4 1.1 14.5.2 14.5.9 14.5 1 14.5 1 14.5.9 14.4 1.9 14.5 1.2 14.5 1.7 14.5 1.2 14.5.5 14.5 1 14.5.6 14.4.9 14.5.8 14.5.7 14.5.5 14.5-.4 14.5-.5 14.4.2 14.5-.2 14.5.3 14.5 1.2 14.5.1"/><path id="line__Breast" fill="none" stroke="#B13507" stroke-linecap="butt" stroke-linejoin="round" stroke-width="1.5" d="m36.1 373.7 14.5.1 14.5.8 14.5-.3 14.5-1.4 14.4-1.1 14.5.6 14.5-.6 14.5-.1h14.5l14.5.9 14.4.1 14.5-.2 14.5-.9h14.5l14.5.5 14.5 1.3 14.5 1.7 14.4 1.1 14.5.2 14.5.9 14.5 1 14.5 1 14.5.9 14.4 1.9 14.5 1.2 14.5 1.7 14.5 1.2 14.5.5 14.5 1 14.5.6 14.4.9 14.5.8 14.5.7 14.5.5 14.5-.4 14.5-.5 14.4.2 14.5-.2 14.5.3 14.5 1.2 14.5.1"/><path id="outline__Prostate" fill="none" stroke="#fff" stroke-linecap="butt" stroke-linejoin="round" stroke-width="2.5" d="m36.1 423.4 14.5-.1 14.5-.3 14.5-.7 14.5-.9 14.4-1.2 14.5-.9 14.5-.9 14.5-.9 14.5-.7 14.5-.8 14.4-.9 14.5-1.2 14.5-.9 14.5-.8 14.5.1 14.5.1 14.5.9 14.4.4 14.5.8 14.5.5 14.5.5 14.5.6 14.5.8 14.4 1.3 14.5 1.5 14.5 1.3 14.5 1.1 14.5.9 14.5 1.2 14.5 1.1 14.4 1 14.5 1.5 14.5 1.5 14.5.2h14.5l14.5-.3 14.4.8 14.5.2 14.5.2 14.5.8 14.5 1.2"/><path id="line__Prostate" fill="none" stroke="#4C6A9C" stroke-linecap="butt" stroke-linejoin="round" stroke-width="1.5" d="m36.1 423.4 14.5-.1 14.5-.3 14.5-.7 14.5-.9 14.4-1.2 14.5-.9 14.5-.9 14.5-.9 14.5-.7 14.5-.8 14.4-.9 14.5-1.2 14.5-.9 14.5-.8 14.5.1 14.5.1 14.5.9 14.4.4 14.5.8 14.5.5 14.5.5 14.5.6 14.5.8 14.4 1.3 14.5 1.5 14.5 1.3 14.5 1.1 14.5.9 14.5 1.2 14.5 1.1 14.4 1 14.5 1.5 14.5 1.5 14.5.2h14.5l14.5-.3 14.4.8 14.5.2 14.5.2 14.5.8 14.5 1.2"/></g><g id="markers"><g id="markers__Leukemia"><circle cx="36.1" cy="421.8" r="1.8" fill="#008291"/><circle id="1981" cx="50.6" cy="422.8" r="1.8" fill="#008291"/><circle id="1982" cx="65.1" cy="423.8" r="1.8" fill="#008291"/><circle id="1983" cx="79.6" cy="424.3" r="1.8" fill="#008291"/><circle id="1984" cx="94.1" cy="424.5" r="1.8" fill="#008291"/><circle cx="108.5" cy="424.8" r="1.8" fill="#008291"/><circle id="1986" cx="123" cy="425.8" r="1.8" fill="#008291"/><circle id="1987" cx="137.5" cy="426.2" r="1.8" fill="#008291"/><circle id="1988" cx="152" cy="426.6" r="1.8" fill="#008291"/><circle id="1989" cx="166.5" cy="426.8" r="1.8" fill="#008291"/><circle cx="181" cy="427.7" r="1.8" fill="#008291"/><circle id="1991" cx="195.4" cy="428.2" r="1.8" fill="#008291"/><circle id="1992" cx="209.9" cy="428.8" r="1.8" fill="#008291"/><circle id="1993" cx="224.4" cy="429.4" r="1.8" fill="#008291"/><circle id="1994" cx="238.9" cy="430" r="1.8" fill="#008291"/><circle cx="253.4" cy="430.7" r="1.8" fill="#008291"/><circle id="1996" cx="267.9" cy="431.7" r="1.8" fill="#008291"/><circle id="1997" cx="282.4" cy="432.8" r="1.8" fill="#008291"/><circle id="1998" cx="296.8" cy="433.4" r="1.8" fill="#008291"/><circle id="1999" cx="311.3" cy="433.8" r="1.8" fill="#008291"/><circle cx="325.8" cy="434.3" r="1.8" fill="#008291"/><circle id="2001" cx="340.3" cy="435.1" r="1.8" fill="#008291"/><circle id="2002" cx="354.8" cy="436.1" r="1.8" fill="#008291"/><circle id="2003" cx="369.3" cy="437" r="1.8" fill="#008291"/><circle id="2004" cx="383.7" cy="438.2" r="1.8" fill="#008291"/><circle cx="398.2" cy="439.2" r="1.8" fill="#008291"/><circle id="2006" cx="412.7" cy="440.8" r="1.8" fill="#008291"/><circle id="2007" cx="427.2" cy="441.9" r="1.8" fill="#008291"/><circle id="2008" cx="441.7" cy="442.6" r="1.8" fill="#008291"/><circle id="2009" cx="456.2" cy="443.3" r="1.8" fill="#008291"/><circle cx="470.7" cy="444.2" r="1.8" fill="#008291"/><circle id="2011" cx="485.1" cy="445" r="1.8" fill="#008291"/><circle id="2012" cx="499.6" cy="446" r="1.8" fill="#008291"/><circle id="2013" cx="514.1" cy="446.8" r="1.8" fill="#008291"/><circle id="2014" cx="528.6" cy="447.7" r="1.8" fill="#008291"/><circle cx="543.1" cy="448.3" r="1.8" fill="#008291"/><circle id="2016" cx="557.6" cy="448.9" r="1.8" fill="#008291"/><circle id="2017" cx="572" cy="449.6" r="1.8" fill="#008291"/><circle id="2018" cx="586.5" cy="450.3" r="1.8" fill="#008291"/><circle id="2019" cx="601" cy="451.1" r="1.8" fill="#008291"/><circle id="2020" cx="615.5" cy="452.5" r="1.8" fill="#008291"/><circle cx="630" cy="453.4" r="1.8" fill="#008291"/></g><g id="markers__Liver"><circle cx="36.1" cy="418.4" r="1.8" fill="#9A5129"/><circle cx="50.6" cy="419.6" r="1.8" fill="#9A5129"/><circle cx="65.1" cy="420.6" r="1.8" fill="#9A5129"/><circle cx="79.6" cy="421.5" r="1.8" fill="#9A5129"/><circle cx="94.1" cy="422.8" r="1.8" fill="#9A5129"/><circle cx="108.5" cy="423.5" r="1.8" fill="#9A5129"/><circle cx="123" cy="424.7" r="1.8" fill="#9A5129"/><circle cx="137.5" cy="424.1" r="1.8" fill="#9A5129"/><circle cx="152" cy="423.9" r="1.8" fill="#9A5129"/><circle cx="166.5" cy="423.1" r="1.8" fill="#9A5129"/><circle cx="181" cy="423.1" r="1.8" fill="#9A5129"/><circle cx="195.4" cy="422.8" r="1.8" fill="#9A5129"/><circle cx="209.9" cy="422.3" r="1.8" fill="#9A5129"/><circle cx="224.4" cy="421.6" r="1.8" fill="#9A5129"/><circle cx="238.9" cy="420.3" r="1.8" fill="#9A5129"/><circle cx="253.4" cy="417.8" r="1.8" fill="#9A5129"/><circle cx="267.9" cy="416.7" r="1.8" fill="#9A5129"/><circle cx="282.4" cy="416.8" r="1.8" fill="#9A5129"/><circle cx="296.8" cy="415.7" r="1.8" fill="#9A5129"/><circle cx="311.3" cy="414.5" r="1.8" fill="#9A5129"/><circle cx="325.8" cy="413.7" r="1.8" fill="#9A5129"/><circle cx="340.3" cy="414.2" r="1.8" fill="#9A5129"/><circle cx="354.8" cy="415.4" r="1.8" fill="#9A5129"/><circle cx="369.3" cy="417.5" r="1.8" fill="#9A5129"/><circle cx="383.7" cy="419.6" r="1.8" fill="#9A5129"/><circle cx="398.2" cy="420.6" r="1.8" fill="#9A5129"/><circle cx="412.7" cy="421.7" r="1.8" fill="#9A5129"/><circle cx="427.2" cy="421.8" r="1.8" fill="#9A5129"/><circle cx="441.7" cy="420.7" r="1.8" fill="#9A5129"/><circle cx="456.2" cy="420.7" r="1.8" fill="#9A5129"/><circle cx="470.7" cy="420.7" r="1.8" fill="#9A5129"/><circle cx="485.1" cy="421.7" r="1.8" fill="#9A5129"/><circle cx="499.6" cy="422.4" r="1.8" fill="#9A5129"/><circle cx="514.1" cy="421.9" r="1.8" fill="#9A5129"/><circle cx="528.6" cy="420.9" r="1.8" fill="#9A5129"/><circle cx="543.1" cy="421.1" r="1.8" fill="#9A5129"/><circle cx="557.6" cy="422.1" r="1.8" fill="#9A5129"/><circle cx="572" cy="423.2" r="1.8" fill="#9A5129"/><circle cx="586.5" cy="423.9" r="1.8" fill="#9A5129"/><circle cx="601" cy="425.3" r="1.8" fill="#9A5129"/><circle cx="615.5" cy="426.1" r="1.8" fill="#9A5129"/><circle cx="630" cy="426.5" r="1.8" fill="#9A5129"/></g><g id="markers__Colon and rectum"><circle cx="36.1" cy="267.2" r="1.8" fill="#A2559C"/><circle cx="50.6" cy="268.9" r="1.8" fill="#A2559C"/><circle cx="65.1" cy="271.2" r="1.8" fill="#A2559C"/><circle cx="79.6" cy="271.2" r="1.8" fill="#A2559C"/><circle cx="94.1" cy="270.1" r="1.8" fill="#A2559C"/><circle cx="108.5" cy="269.9" r="1.8" fill="#A2559C"/><circle cx="123" cy="272.6" r="1.8" fill="#A2559C"/><circle cx="137.5" cy="272.1" r="1.8" fill="#A2559C"/><circle cx="152" cy="272.6" r="1.8" fill="#A2559C"/><circle cx="166.5" cy="272.6" r="1.8" fill="#A2559C"/><circle cx="181" cy="274.3" r="1.8" fill="#A2559C"/><circle cx="195.4" cy="275.5" r="1.8" fill="#A2559C"/><circle cx="209.9" cy="275.8" r="1.8" fill="#A2559C"/><circle cx="224.4" cy="275.7" r="1.8" fill="#A2559C"/><circle cx="238.9" cy="276.9" r="1.8" fill="#A2559C"/><circle cx="253.4" cy="278.5" r="1.8" fill="#A2559C"/><circle cx="267.9" cy="281.1" r="1.8" fill="#A2559C"/><circle cx="282.4" cy="283.7" r="1.8" fill="#A2559C"/><circle cx="296.8" cy="285.2" r="1.8" fill="#A2559C"/><circle cx="311.3" cy="286" r="1.8" fill="#A2559C"/><circle cx="325.8" cy="287.3" r="1.8" fill="#A2559C"/><circle cx="340.3" cy="289" r="1.8" fill="#A2559C"/><circle cx="354.8" cy="290.7" r="1.8" fill="#A2559C"/><circle cx="369.3" cy="291.7" r="1.8" fill="#A2559C"/><circle cx="383.7" cy="294.2" r="1.8" fill="#A2559C"/><circle cx="398.2" cy="296.5" r="1.8" fill="#A2559C"/><circle cx="412.7" cy="301.3" r="1.8" fill="#A2559C"/><circle cx="427.2" cy="303.8" r="1.8" fill="#A2559C"/><circle cx="441.7" cy="304.4" r="1.8" fill="#A2559C"/><circle cx="456.2" cy="306.9" r="1.8" fill="#A2559C"/><circle cx="470.7" cy="307.9" r="1.8" fill="#A2559C"/><circle cx="485.1" cy="309.4" r="1.8" fill="#A2559C"/><circle cx="499.6" cy="311.5" r="1.8" fill="#A2559C"/><circle cx="514.1" cy="313.8" r="1.8" fill="#A2559C"/><circle cx="528.6" cy="315.8" r="1.8" fill="#A2559C"/><circle cx="543.1" cy="316.1" r="1.8" fill="#A2559C"/><circle cx="557.6" cy="316.4" r="1.8" fill="#A2559C"/><circle cx="572" cy="318.1" r="1.8" fill="#A2559C"/><circle cx="586.5" cy="318.8" r="1.8" fill="#A2559C"/><circle cx="601" cy="319.6" r="1.8" fill="#A2559C"/><circle cx="615.5" cy="322" r="1.8" fill="#A2559C"/><circle cx="630" cy="322.9" r="1.8" fill="#A2559C"/></g><g id="markers__Lung, trachea and bronchus"><circle cx="36.1" cy="108.7" r="1.8" fill="#00295B"/><circle cx="50.6" cy="108.8" r="1.8" fill="#00295B"/><circle cx="65.1" cy="108.9" r="1.8" fill="#00295B"/><circle cx="79.6" cy="106.3" r="1.8" fill="#00295B"/><circle cx="94.1" cy="103.3" r="1.8" fill="#00295B"/><circle cx="108.5" cy="97.9" r="1.8" fill="#00295B"/><circle cx="123" cy="102.3" r="1.8" fill="#00295B"/><circle cx="137.5" cy="97.3" r="1.8" fill="#00295B"/><circle cx="152" cy="94.7" r="1.8" fill="#00295B"/><circle cx="166.5" cy="92.2" r="1.8" fill="#00295B"/><circle cx="181" cy="90" r="1.8" fill="#00295B"/><circle cx="195.4" cy="91.2" r="1.8" fill="#00295B"/><circle cx="209.9" cy="91.1" r="1.8" fill="#00295B"/><circle cx="224.4" cy="89.3" r="1.8" fill="#00295B"/><circle cx="238.9" cy="90.7" r="1.8" fill="#00295B"/><circle cx="253.4" cy="89.3" r="1.8" fill="#00295B"/><circle cx="267.9" cy="93.8" r="1.8" fill="#00295B"/><circle cx="282.4" cy="97.5" r="1.8" fill="#00295B"/><circle cx="296.8" cy="98.5" r="1.8" fill="#00295B"/><circle cx="311.3" cy="98.4" r="1.8" fill="#00295B"/><circle cx="325.8" cy="95.6" r="1.8" fill="#00295B"/><circle cx="340.3" cy="97.1" r="1.8" fill="#00295B"/><circle cx="354.8" cy="98.3" r="1.8" fill="#00295B"/><circle cx="369.3" cy="98.3" r="1.8" fill="#00295B"/><circle cx="383.7" cy="98.2" r="1.8" fill="#00295B"/><circle cx="398.2" cy="100.9" r="1.8" fill="#00295B"/><circle cx="412.7" cy="109.2" r="1.8" fill="#00295B"/><circle cx="427.2" cy="112.6" r="1.8" fill="#00295B"/><circle cx="441.7" cy="112.8" r="1.8" fill="#00295B"/><circle cx="456.2" cy="113.3" r="1.8" fill="#00295B"/><circle cx="470.7" cy="116.1" r="1.8" fill="#00295B"/><circle cx="485.1" cy="118.1" r="1.8" fill="#00295B"/><circle cx="499.6" cy="121.7" r="1.8" fill="#00295B"/><circle cx="514.1" cy="126.6" r="1.8" fill="#00295B"/><circle cx="528.6" cy="131" r="1.8" fill="#00295B"/><circle cx="543.1" cy="135.5" r="1.8" fill="#00295B"/><circle cx="557.6" cy="137" r="1.8" fill="#00295B"/><circle cx="572" cy="142.6" r="1.8" fill="#00295B"/><circle cx="586.5" cy="146.3" r="1.8" fill="#00295B"/><circle cx="601" cy="149" r="1.8" fill="#00295B"/><circle cx="615.5" cy="151.9" r="1.8" fill="#00295B"/><circle cx="630" cy="152.5" r="1.8" fill="#00295B"/></g><g id="markers__Pancreas"><circle cx="36.1" cy="428.6" r="1.8" fill="#883039"/><circle cx="50.6" cy="428.8" r="1.8" fill="#883039"/><circle cx="65.1" cy="429.2" r="1.8" fill="#883039"/><circle cx="79.6" cy="428.8" r="1.8" fill="#883039"/><circle cx="94.1" cy="428" r="1.8" fill="#883039"/><circle cx="108.5" cy="427.3" r="1.8" fill="#883039"/><circle cx="123" cy="427.6" r="1.8" fill="#883039"/><circle cx="137.5" cy="426.8" r="1.8" fill="#883039"/><circle cx="152" cy="426.5" r="1.8" fill="#883039"/><circle cx="166.5" cy="426.2" r="1.8" fill="#883039"/><circle cx="181" cy="426.3" r="1.8" fill="#883039"/><circle cx="195.4" cy="426.2" r="1.8" fill="#883039"/><circle cx="209.9" cy="425.9" r="1.8" fill="#883039"/><circle cx="224.4" cy="425.3" r="1.8" fill="#883039"/><circle cx="238.9" cy="425.1" r="1.8" fill="#883039"/><circle cx="253.4" cy="425.4" r="1.8" fill="#883039"/><circle cx="267.9" cy="425.7" r="1.8" fill="#883039"/><circle cx="282.4" cy="426" r="1.8" fill="#883039"/><circle cx="296.8" cy="426" r="1.8" fill="#883039"/><circle cx="311.3" cy="425.9" r="1.8" fill="#883039"/><circle cx="325.8" cy="425.3" r="1.8" fill="#883039"/><circle cx="340.3" cy="425.4" r="1.8" fill="#883039"/><circle cx="354.8" cy="425.4" r="1.8" fill="#883039"/><circle cx="369.3" cy="425.1" r="1.8" fill="#883039"/><circle cx="383.7" cy="424.7" r="1.8" fill="#883039"/><circle cx="398.2" cy="424.1" r="1.8" fill="#883039"/><circle cx="412.7" cy="424.3" r="1.8" fill="#883039"/><circle cx="427.2" cy="423.9" r="1.8" fill="#883039"/><circle cx="441.7" cy="423.3" r="1.8" fill="#883039"/><circle cx="456.2" cy="423.1" r="1.8" fill="#883039"/><circle cx="470.7" cy="422.5" r="1.8" fill="#883039"/><circle cx="485.1" cy="422.3" r="1.8" fill="#883039"/><circle cx="499.6" cy="422.2" r="1.8" fill="#883039"/><circle cx="514.1" cy="422.5" r="1.8" fill="#883039"/><circle cx="528.6" cy="422.5" r="1.8" fill="#883039"/><circle cx="543.1" cy="422.2" r="1.8" fill="#883039"/><circle cx="557.6" cy="421.4" r="1.8" fill="#883039"/><circle cx="572" cy="421.2" r="1.8" fill="#883039"/><circle cx="586.5" cy="420.8" r="1.8" fill="#883039"/><circle cx="601" cy="420.6" r="1.8" fill="#883039"/><circle cx="615.5" cy="421.6" r="1.8" fill="#883039"/><circle cx="630" cy="421.8" r="1.8" fill="#883039"/></g><g id="markers__Esophagus"><circle cx="36.1" cy="367.4" r="1.8" fill="#6D3E91"/><circle cx="50.6" cy="368.5" r="1.8" fill="#6D3E91"/><circle cx="65.1" cy="370.1" r="1.8" fill="#6D3E91"/><circle cx="79.6" cy="371.1" r="1.8" fill="#6D3E91"/><circle cx="94.1" cy="372.2" r="1.8" fill="#6D3E91"/><circle cx="108.5" cy="373.6" r="1.8" fill="#6D3E91"/><circle cx="123" cy="375.7" r="1.8" fill="#6D3E91"/><circle cx="137.5" cy="374.6" r="1.8" fill="#6D3E91"/><circle cx="152" cy="374.3" r="1.8" fill="#6D3E91"/><circle cx="166.5" cy="373.3" r="1.8" fill="#6D3E91"/><circle cx="181" cy="374.7" r="1.8" fill="#6D3E91"/><circle cx="195.4" cy="375.6" r="1.8" fill="#6D3E91"/><circle cx="209.9" cy="376.4" r="1.8" fill="#6D3E91"/><circle cx="224.4" cy="377" r="1.8" fill="#6D3E91"/><circle cx="238.9" cy="377.9" r="1.8" fill="#6D3E91"/><circle cx="253.4" cy="378.6" r="1.8" fill="#6D3E91"/><circle cx="267.9" cy="380.4" r="1.8" fill="#6D3E91"/><circle cx="282.4" cy="382" r="1.8" fill="#6D3E91"/><circle cx="296.8" cy="382.6" r="1.8" fill="#6D3E91"/><circle cx="311.3" cy="382.9" r="1.8" fill="#6D3E91"/><circle cx="325.8" cy="381.9" r="1.8" fill="#6D3E91"/><circle cx="340.3" cy="382" r="1.8" fill="#6D3E91"/><circle cx="354.8" cy="383" r="1.8" fill="#6D3E91"/><circle cx="369.3" cy="382.7" r="1.8" fill="#6D3E91"/><circle cx="383.7" cy="383" r="1.8" fill="#6D3E91"/><circle cx="398.2" cy="386" r="1.8" fill="#6D3E91"/><circle cx="412.7" cy="392.3" r="1.8" fill="#6D3E91"/><circle cx="427.2" cy="396.2" r="1.8" fill="#6D3E91"/><circle cx="441.7" cy="398.8" r="1.8" fill="#6D3E91"/><circle cx="456.2" cy="401" r="1.8" fill="#6D3E91"/><circle cx="470.7" cy="403" r="1.8" fill="#6D3E91"/><circle cx="485.1" cy="405.7" r="1.8" fill="#6D3E91"/><circle cx="499.6" cy="408.6" r="1.8" fill="#6D3E91"/><circle cx="514.1" cy="411.3" r="1.8" fill="#6D3E91"/><circle cx="528.6" cy="413.8" r="1.8" fill="#6D3E91"/><circle cx="543.1" cy="414.9" r="1.8" fill="#6D3E91"/><circle cx="557.6" cy="415.5" r="1.8" fill="#6D3E91"/><circle cx="572" cy="416.7" r="1.8" fill="#6D3E91"/><circle cx="586.5" cy="416.9" r="1.8" fill="#6D3E91"/><circle cx="601" cy="416.8" r="1.8" fill="#6D3E91"/><circle cx="615.5" cy="417.1" r="1.8" fill="#6D3E91"/><circle cx="630" cy="417.1" r="1.8" fill="#6D3E91"/></g><g id="markers__Stomach"><circle cx="36.1" cy="102.5" r="1.8" fill="#2C8465"/><circle cx="50.6" cy="110.3" r="1.8" fill="#2C8465"/><circle cx="65.1" cy="119.7" r="1.8" fill="#2C8465"/><circle cx="79.6" cy="125.3" r="1.8" fill="#2C8465"/><circle cx="94.1" cy="132.1" r="1.8" fill="#2C8465"/><circle cx="108.5" cy="143.1" r="1.8" fill="#2C8465"/><circle cx="123" cy="155.6" r="1.8" fill="#2C8465"/><circle cx="137.5" cy="158.5" r="1.8" fill="#2C8465"/><circle cx="152" cy="163.5" r="1.8" fill="#2C8465"/><circle cx="166.5" cy="166.6" r="1.8" fill="#2C8465"/><circle cx="181" cy="175.4" r="1.8" fill="#2C8465"/><circle cx="195.4" cy="182.6" r="1.8" fill="#2C8465"/><circle cx="209.9" cy="188.7" r="1.8" fill="#2C8465"/><circle cx="224.4" cy="194.5" r="1.8" fill="#2C8465"/><circle cx="238.9" cy="200.9" r="1.8" fill="#2C8465"/><circle cx="253.4" cy="207.6" r="1.8" fill="#2C8465"/><circle cx="267.9" cy="215.6" r="1.8" fill="#2C8465"/><circle cx="282.4" cy="223.1" r="1.8" fill="#2C8465"/><circle cx="296.8" cy="228.1" r="1.8" fill="#2C8465"/><circle cx="311.3" cy="232.1" r="1.8" fill="#2C8465"/><circle cx="325.8" cy="234.8" r="1.8" fill="#2C8465"/><circle cx="340.3" cy="238.9" r="1.8" fill="#2C8465"/><circle cx="354.8" cy="242.5" r="1.8" fill="#2C8465"/><circle cx="369.3" cy="244.7" r="1.8" fill="#2C8465"/><circle cx="383.7" cy="248" r="1.8" fill="#2C8465"/><circle cx="398.2" cy="256.4" r="1.8" fill="#2C8465"/><circle cx="412.7" cy="270.2" r="1.8" fill="#2C8465"/><circle cx="427.2" cy="278.6" r="1.8" fill="#2C8465"/><circle cx="441.7" cy="283.9" r="1.8" fill="#2C8465"/><circle cx="456.2" cy="288.8" r="1.8" fill="#2C8465"/><circle cx="470.7" cy="293.7" r="1.8" fill="#2C8465"/><circle cx="485.1" cy="300.5" r="1.8" fill="#2C8465"/><circle cx="499.6" cy="306.7" r="1.8" fill="#2C8465"/><circle cx="514.1" cy="312.4" r="1.8" fill="#2C8465"/><circle cx="528.6" cy="318.5" r="1.8" fill="#2C8465"/><circle cx="543.1" cy="322.7" r="1.8" fill="#2C8465"/><circle cx="557.6" cy="325.7" r="1.8" fill="#2C8465"/><circle cx="572" cy="330.3" r="1.8" fill="#2C8465"/><circle cx="586.5" cy="333.4" r="1.8" fill="#2C8465"/><circle cx="601" cy="336.3" r="1.8" fill="#2C8465"/><circle cx="615.5" cy="339.2" r="1.8" fill="#2C8465"/><circle cx="630" cy="341.3" r="1.8" fill="#2C8465"/></g><g id="markers__Cervix"><circle cx="36.1" cy="421.6" r="1.8" fill="#996D39"/><circle cx="50.6" cy="423" r="1.8" fill="#996D39"/><circle cx="65.1" cy="425.1" r="1.8" fill="#996D39"/><circle cx="79.6" cy="426.2" r="1.8" fill="#996D39"/><circle cx="94.1" cy="427.4" r="1.8" fill="#996D39"/><circle cx="108.5" cy="428.6" r="1.8" fill="#996D39"/><circle cx="123" cy="430.6" r="1.8" fill="#996D39"/><circle cx="137.5" cy="431.6" r="1.8" fill="#996D39"/><circle cx="152" cy="432.7" r="1.8" fill="#996D39"/><circle cx="166.5" cy="433.7" r="1.8" fill="#996D39"/><circle cx="181" cy="435.3" r="1.8" fill="#996D39"/><circle cx="195.4" cy="436.7" r="1.8" fill="#996D39"/><circle cx="209.9" cy="437.5" r="1.8" fill="#996D39"/><circle cx="224.4" cy="438.6" r="1.8" fill="#996D39"/><circle cx="238.9" cy="439.6" r="1.8" fill="#996D39"/><circle cx="253.4" cy="440.8" r="1.8" fill="#996D39"/><circle cx="267.9" cy="442" r="1.8" fill="#996D39"/><circle cx="282.4" cy="443.1" r="1.8" fill="#996D39"/><circle cx="296.8" cy="444.3" r="1.8" fill="#996D39"/><circle cx="311.3" cy="445.3" r="1.8" fill="#996D39"/><circle cx="325.8" cy="446.6" r="1.8" fill="#996D39"/><circle cx="340.3" cy="447.9" r="1.8" fill="#996D39"/><circle cx="354.8" cy="448.6" r="1.8" fill="#996D39"/><circle cx="369.3" cy="449.1" r="1.8" fill="#996D39"/><circle cx="383.7" cy="450.2" r="1.8" fill="#996D39"/><circle cx="398.2" cy="451.4" r="1.8" fill="#996D39"/><circle cx="412.7" cy="452.7" r="1.8" fill="#996D39"/><circle cx="427.2" cy="453.9" r="1.8" fill="#996D39"/><circle cx="441.7" cy="454.8" r="1.8" fill="#996D39"/><circle cx="456.2" cy="455.7" r="1.8" fill="#996D39"/><circle cx="470.7" cy="456.4" r="1.8" fill="#996D39"/><circle cx="485.1" cy="456.9" r="1.8" fill="#996D39"/><circle cx="499.6" cy="457.4" r="1.8" fill="#996D39"/><circle cx="514.1" cy="457.8" r="1.8" fill="#996D39"/><circle cx="528.6" cy="457.9" r="1.8" fill="#996D39"/><circle cx="543.1" cy="457.9" r="1.8" fill="#996D39"/><circle cx="557.6" cy="457.8" r="1.8" fill="#996D39"/><circle cx="572" cy="458.1" r="1.8" fill="#996D39"/><circle cx="586.5" cy="458.5" r="1.8" fill="#996D39"/><circle cx="601" cy="459.2" r="1.8" fill="#996D39"/><circle cx="615.5" cy="459.9" r="1.8" fill="#996D39"/><circle cx="630" cy="460.3" r="1.8" fill="#996D39"/></g><g id="markers__Breast"><circle cx="36.1" cy="373.7" r="1.8" fill="#B13507"/><circle cx="50.6" cy="373.8" r="1.8" fill="#B13507"/><circle cx="65.1" cy="374.6" r="1.8" fill="#B13507"/><circle cx="79.6" cy="374.3" r="1.8" fill="#B13507"/><circle cx="94.1" cy="372.9" r="1.8" fill="#B13507"/><circle cx="108.5" cy="371.8" r="1.8" fill="#B13507"/><circle cx="123" cy="372.4" r="1.8" fill="#B13507"/><circle cx="137.5" cy="371.8" r="1.8" fill="#B13507"/><circle cx="152" cy="371.7" r="1.8" fill="#B13507"/><circle cx="166.5" cy="371.7" r="1.8" fill="#B13507"/><circle cx="181" cy="372.6" r="1.8" fill="#B13507"/><circle cx="195.4" cy="372.7" r="1.8" fill="#B13507"/><circle cx="209.9" cy="372.5" r="1.8" fill="#B13507"/><circle cx="224.4" cy="371.6" r="1.8" fill="#B13507"/><circle cx="238.9" cy="371.6" r="1.8" fill="#B13507"/><circle cx="253.4" cy="372.1" r="1.8" fill="#B13507"/><circle cx="267.9" cy="373.4" r="1.8" fill="#B13507"/><circle cx="282.4" cy="375.1" r="1.8" fill="#B13507"/><circle cx="296.8" cy="376.2" r="1.8" fill="#B13507"/><circle cx="311.3" cy="376.4" r="1.8" fill="#B13507"/><circle cx="325.8" cy="377.3" r="1.8" fill="#B13507"/><circle cx="340.3" cy="378.3" r="1.8" fill="#B13507"/><circle cx="354.8" cy="379.3" r="1.8" fill="#B13507"/><circle cx="369.3" cy="380.2" r="1.8" fill="#B13507"/><circle cx="383.7" cy="382.1" r="1.8" fill="#B13507"/><circle cx="398.2" cy="383.3" r="1.8" fill="#B13507"/><circle cx="412.7" cy="385" r="1.8" fill="#B13507"/><circle cx="427.2" cy="386.2" r="1.8" fill="#B13507"/><circle cx="441.7" cy="386.7" r="1.8" fill="#B13507"/><circle cx="456.2" cy="387.7" r="1.8" fill="#B13507"/><circle cx="470.7" cy="388.3" r="1.8" fill="#B13507"/><circle cx="485.1" cy="389.2" r="1.8" fill="#B13507"/><circle cx="499.6" cy="390" r="1.8" fill="#B13507"/><circle cx="514.1" cy="390.7" r="1.8" fill="#B13507"/><circle cx="528.6" cy="391.2" r="1.8" fill="#B13507"/><circle cx="543.1" cy="390.8" r="1.8" fill="#B13507"/><circle cx="557.6" cy="390.3" r="1.8" fill="#B13507"/><circle cx="572" cy="390.5" r="1.8" fill="#B13507"/><circle cx="586.5" cy="390.3" r="1.8" fill="#B13507"/><circle cx="601" cy="390.6" r="1.8" fill="#B13507"/><circle cx="615.5" cy="391.8" r="1.8" fill="#B13507"/><circle cx="630" cy="391.9" r="1.8" fill="#B13507"/></g><g id="markers__Prostate"><circle cx="36.1" cy="423.4" r="1.8" fill="#4C6A9C"/><circle cx="50.6" cy="423.3" r="1.8" fill="#4C6A9C"/><circle cx="65.1" cy="423" r="1.8" fill="#4C6A9C"/><circle cx="79.6" cy="422.3" r="1.8" fill="#4C6A9C"/><circle cx="94.1" cy="421.4" r="1.8" fill="#4C6A9C"/><circle cx="108.5" cy="420.2" r="1.8" fill="#4C6A9C"/><circle cx="123" cy="419.3" r="1.8" fill="#4C6A9C"/><circle cx="137.5" cy="418.4" r="1.8" fill="#4C6A9C"/><circle cx="152" cy="417.5" r="1.8" fill="#4C6A9C"/><circle cx="166.5" cy="416.8" r="1.8" fill="#4C6A9C"/><circle cx="181" cy="416" r="1.8" fill="#4C6A9C"/><circle cx="195.4" cy="415.1" r="1.8" fill="#4C6A9C"/><circle cx="209.9" cy="413.9" r="1.8" fill="#4C6A9C"/><circle cx="224.4" cy="413" r="1.8" fill="#4C6A9C"/><circle cx="238.9" cy="412.2" r="1.8" fill="#4C6A9C"/><circle cx="253.4" cy="412.3" r="1.8" fill="#4C6A9C"/><circle cx="267.9" cy="412.4" r="1.8" fill="#4C6A9C"/><circle cx="282.4" cy="413.3" r="1.8" fill="#4C6A9C"/><circle cx="296.8" cy="413.7" r="1.8" fill="#4C6A9C"/><circle cx="311.3" cy="414.5" r="1.8" fill="#4C6A9C"/><circle cx="325.8" cy="415" r="1.8" fill="#4C6A9C"/><circle cx="340.3" cy="415.5" r="1.8" fill="#4C6A9C"/><circle cx="354.8" cy="416.1" r="1.8" fill="#4C6A9C"/><circle cx="369.3" cy="416.9" r="1.8" fill="#4C6A9C"/><circle cx="383.7" cy="418.2" r="1.8" fill="#4C6A9C"/><circle cx="398.2" cy="419.7" r="1.8" fill="#4C6A9C"/><circle cx="412.7" cy="421" r="1.8" fill="#4C6A9C"/><circle cx="427.2" cy="422.1" r="1.8" fill="#4C6A9C"/><circle cx="441.7" cy="423" r="1.8" fill="#4C6A9C"/><circle cx="456.2" cy="424.2" r="1.8" fill="#4C6A9C"/><circle cx="470.7" cy="425.3" r="1.8" fill="#4C6A9C"/><circle cx="485.1" cy="426.3" r="1.8" fill="#4C6A9C"/><circle cx="499.6" cy="427.8" r="1.8" fill="#4C6A9C"/><circle cx="514.1" cy="429.3" r="1.8" fill="#4C6A9C"/><circle cx="528.6" cy="429.5" r="1.8" fill="#4C6A9C"/><circle cx="543.1" cy="429.5" r="1.8" fill="#4C6A9C"/><circle cx="557.6" cy="429.2" r="1.8" fill="#4C6A9C"/><circle cx="572" cy="430" r="1.8" fill="#4C6A9C"/><circle cx="586.5" cy="430.2" r="1.8" fill="#4C6A9C"/><circle cx="601" cy="430.4" r="1.8" fill="#4C6A9C"/><circle cx="615.5" cy="431.2" r="1.8" fill="#4C6A9C"/><circle cx="630" cy="432.4" r="1.8" fill="#4C6A9C"/></g></g></g><g id="footer" class="SourcesFooter" style="fill:#5b5b5b"><g id="sources" class="markdown-text-wrap"><text x="16" y="562.7" style="font-size:13.5px;line-height:1.2"><tspan x="16" y="562.7"><tspan style="font-weight:700">Data source:</tspan> IHME, Global Burden of Disease (2024)</tspan></text></g><g id="note" class="markdown-text-wrap"><text x="16" y="580.9" style="font-size:13.5px;line-height:1.2"><tspan x="16" y="580.9"><tspan style="font-weight:700">Note:</tspan> To allow for comparisons between countries and over time, this metric is <tspan class="dod-span" data-id="age_standardized">age-standardized</tspan>.</tspan></text></g><text id="origin-url" x="616.9" y="562.7" font-size="13.5"><tspan x="616.92" y="562.7"><a href="https://ourworldindata.org/cancer" style="fill:#5b5b5b" target="_blank">OurWorldinData.org/cancer</a> | <a href="https://creativecommons.org/licenses/by/4.0/" style="fill:#5b5b5b" target="_blank">CC BY</a></tspan></text></g></svg>