<svg xmlns="http://www.w3.org/2000/svg" width="850" height="600" style="font-family:Lato,&quot;Helvetica Neue&quot;,Helvetica,Arial,&quot;Liberation Sans&quot;,sans-serif;font-size:18px;background-color:#fff;text-rendering:geometricPrecision;-webkit-font-smoothing:antialiased" version="1.1" viewBox="0 0 850 600"><defs><style>@import url(https://ourworldindata.org/fonts.css);</style></defs><defs><pattern id="noDataPattern" width="4" height="4" patternTransform="rotate(-45 2 2)" patternUnits="userSpaceOnUse"><path stroke="#ccc" stroke-width=".7" d="M-1 2h6"/></pattern></defs><path fill="#fff" d="M0 0h850v600H0z" class="background-fill"/><g id="header" class="HeaderView"><g id="logo" transform="translate(769 16)"><svg xmlns="http://www.w3.org/2000/svg" width="65" height="36" fill="none" className="owidLogo" viewBox="0 0 65 36"><path fill="#002147" d="M0 0h64.8v36H0z"/><path fill="#CE261E" d="M0 33.3h64.8V36H0z"/><path fill="#fff" d="M13.8 10.57c0 .64-.11 1.23-.32 1.77a4.2 4.2 0 0 1-.9 1.4 4.08 4.08 0 0 1-1.38.94c-.54.22-1.14.33-1.8.33-.65 0-1.25-.11-1.8-.33a4.15 4.15 0 0 1-1.39-.93 4.2 4.2 0 0 1-.9-1.4A4.83 4.83 0 0 1 5 10.56c0-.63.1-1.22.32-1.76a4.18 4.18 0 0 1 .9-1.4 4.08 4.08 0 0 1 1.38-.93 4.68 4.68 0 0 1 1.8-.34c.66 0 1.26.11 1.8.34a4.08 4.08 0 0 1 2.28 2.33c.21.54.32 1.13.32 1.76Zm-1.66 0c0-.47-.06-.9-.2-1.27a2.67 2.67 0 0 0-.53-.97 2.33 2.33 0 0 0-.87-.6A2.94 2.94 0 0 0 9.4 7.5c-.42 0-.8.07-1.14.21-.34.14-.63.35-.87.61a2.74 2.74 0 0 0-.55.97 3.96 3.96 0 0 0-.19 1.27c0 .48.06.9.2 1.29a2.42 2.42 0 0 0 1.42 1.56c.33.14.71.2 1.13.2.43 0 .8-.06 1.14-.2a2.37 2.37 0 0 0 1.4-1.56 4.01 4.01 0 0 0 .2-1.29Zm3.96-1.81v3.9c0 .39.09.68.26.89.18.2.44.3.79.3.25 0 .5-.06.72-.17a2.58 2.58 0 0 0 .63-.47V8.76H20v6.15h-.91c-.2 0-.32-.09-.38-.27l-.1-.49a4.65 4.65 0 0 1-.4.35 2.58 2.58 0 0 1-.43.27 2.35 2.35 0 0 1-.5.17 2.35 2.35 0 0 1-.57.07c-.34 0-.64-.06-.9-.17a1.82 1.82 0 0 1-.64-.49 2.16 2.16 0 0 1-.4-.73 3.23 3.23 0 0 1-.14-.95V8.76h1.48Zm5.23 6.15V8.76h.87c.15 0 .26.02.32.08s.1.15.12.29l.09.74c.22-.38.47-.68.77-.9.3-.22.63-.33 1-.33.3 0 .55.07.75.21l-.19 1.11c-.01.07-.04.13-.08.16a.28.28 0 0 1-.16.04 1.01 1.01 0 0 1-.25-.04 1.65 1.65 0 0 0-.41-.04c-.3 0-.57.08-.8.25-.21.17-.4.42-.55.75v3.83h-1.48Zm6.02-8.67h1.35a.57.57 0 0 1 .35.1c.1.06.16.15.2.26l1.47 5.2a10.12 10.12 0 0 1 .19.9 5.97 5.97 0 0 1 .22-.9l1.7-5.2a.57.57 0 0 1 .2-.25.54.54 0 0 1 .34-.11h.48a.57.57 0 0 1 .34.1.5.5 0 0 1 .2.26l1.69 5.2c.08.25.16.53.22.85a31.71 31.71 0 0 1 .19-.86l1.47-5.19c.03-.1.1-.18.19-.25a.56.56 0 0 1 .34-.11h1.27l-2.7 8.67h-1.45L33.7 9l-.08-.25a9.5 9.5 0 0 1-.07-.28 4.04 4.04 0 0 1-.15.53L31.5 14.9h-1.46l-2.7-8.67Zm15.42 2.42c.46 0 .88.07 1.25.22s.7.36.96.63.47.6.61 1 .22.83.22 1.31c0 .5-.08.93-.22 1.32a2.85 2.85 0 0 1-.61 1 2.65 2.65 0 0 1-.96.64 3.35 3.35 0 0 1-1.25.22 3.4 3.4 0 0 1-1.25-.22 2.71 2.71 0 0 1-.97-.63 2.92 2.92 0 0 1-.62-1 3.8 3.8 0 0 1-.21-1.33c0-.48.07-.92.21-1.31a2.75 2.75 0 0 1 1.58-1.63 3.4 3.4 0 0 1 1.26-.22Zm0 5.2c.51 0 .9-.17 1.13-.51.25-.35.38-.85.38-1.52s-.13-1.17-.38-1.51c-.24-.35-.62-.53-1.13-.53-.52 0-.9.18-1.15.53-.25.35-.37.85-.37 1.51s.12 1.17.37 1.52c.25.34.63.51 1.15.51Zm3.95 1.05V8.76h.87c.15 0 .26.02.32.08s.1.15.12.29l.1.74c.21-.38.47-.68.76-.9.3-.22.63-.33 1-.33.3 0 .56.07.76.21l-.2 1.11c0 .07-.03.13-.07.16a.28.28 0 0 1-.17.04 1.01 1.01 0 0 1-.24-.04 1.65 1.65 0 0 0-.42-.04c-.3 0-.57.08-.79.25-.22.17-.4.42-.56.75v3.83h-1.48ZM52.96 6v8.91h-1.48V6h1.48Zm5.77 8.91c-.19 0-.32-.09-.38-.27l-.12-.6a3.68 3.68 0 0 1-.4.4 2.5 2.5 0 0 1-.98.5 2.37 2.37 0 0 1-.6.06c-.33 0-.64-.07-.92-.2a2.1 2.1 0 0 1-.73-.61 3.03 3.03 0 0 1-.46-1 5.07 5.07 0 0 1-.17-1.34c0-.45.07-.88.19-1.27s.3-.73.53-1.02c.24-.29.51-.51.84-.67a2.38 2.38 0 0 1 1.09-.25 2.1 2.1 0 0 1 1.54.6V6h1.48v8.91h-.9Zm-1.97-1.08c.3 0 .57-.07.78-.2.22-.12.42-.3.62-.54v-2.76a1.45 1.45 0 0 0-.56-.43 1.6 1.6 0 0 0-.63-.13c-.23 0-.43.04-.61.13a1.21 1.21 0 0 0-.47.38c-.12.17-.22.39-.28.65a4.3 4.3 0 0 0-.02 1.84c.06.25.14.45.25.61.1.16.24.27.4.34.15.07.33.1.52.1Zm-40.43 6.93v6.15h-1.48v-6.15h1.48Zm.22-1.8a.84.84 0 0 1-.07.36.96.96 0 0 1-.21.3 1 1 0 0 1-.3.2.96.96 0 0 1-.38.07.95.95 0 0 1-.36-.07 1.02 1.02 0 0 1-.5-.5.96.96 0 0 1 0-.73 1 1 0 0 1 .2-.3.93.93 0 0 1 .3-.2.9.9 0 0 1 .73 0 .91.91 0 0 1 .3.2.94.94 0 0 1 .3.67Zm1.22 7.95v-6.15h.9c.2 0 .32.09.38.27l.1.48a2.93 2.93 0 0 1 .84-.61 2.3 2.3 0 0 1 1.07-.24c.34 0 .63.06.9.18.25.1.47.27.64.48.18.2.3.45.4.73.09.29.13.6.13.95v3.91h-1.48V23c0-.38-.08-.67-.26-.87-.17-.21-.43-.32-.78-.32-.26 0-.5.06-.72.18a2.58 2.58 0 0 0-.64.47v4.45h-1.48Zm16.45-4.34c0 .64-.1 1.22-.32 1.76-.21.53-.5.99-.9 1.37a4 4 0 0 1-1.38.9 4.87 4.87 0 0 1-1.8.31h-3.3v-8.67h3.3a4.79 4.79 0 0 1 1.8.32 4 4 0 0 1 1.39.9c.38.37.68.83.9 1.36.2.53.31 1.12.31 1.75Zm-1.65 0c0-.47-.06-.9-.2-1.27a2.68 2.68 0 0 0-.54-.96 2.33 2.33 0 0 0-.86-.6 2.94 2.94 0 0 0-1.14-.22h-1.69v6.1h1.69c.42 0 .8-.06 1.14-.2.34-.14.63-.34.86-.6a2.75 2.75 0 0 0 .55-.96 4.01 4.01 0 0 0 .19-1.29Zm7.41 4.34h-.67a.75.75 0 0 1-.33-.06c-.07-.04-.13-.13-.17-.25l-.14-.44c-.15.14-.3.26-.46.37a2.8 2.8 0 0 1-.46.26c-.16.08-.33.13-.51.17a3.07 3.07 0 0 1-1.32-.05 1.62 1.62 0 0 1-.57-.32 1.45 1.45 0 0 1-.37-.52 1.85 1.85 0 0 1-.13-.73c0-.23.06-.46.18-.68.12-.23.33-.44.61-.62.29-.18.67-.33 1.14-.45a8.01 8.01 0 0 1 1.75-.2v-.36c0-.42-.08-.72-.26-.92-.17-.2-.42-.3-.76-.3a1.84 1.84 0 0 0-1.01.28l-.33.19a.66.66 0 0 1-.33.08.43.43 0 0 1-.26-.08.61.61 0 0 1-.17-.2l-.27-.46c.7-.65 1.56-.98 2.56-.98.36 0 .68.06.96.18a1.99 1.99 0 0 1 1.16 1.25c.1.29.16.6.16.96v3.88ZM37.1 26c.15 0 .3-.01.42-.04a1.81 1.81 0 0 0 .69-.33c.1-.09.22-.19.32-.3v-1.04c-.43.02-.79.06-1.08.12a2.8 2.8 0 0 0-.7.2.92.92 0 0 0-.37.3.66.66 0 0 0-.11.36c0 .26.07.45.22.56.16.11.36.17.61.17ZM43.22 27c-.53 0-.94-.15-1.23-.45-.29-.3-.43-.72-.43-1.25v-3.44h-.63a.31.31 0 0 1-.2-.08c-.06-.05-.09-.13-.09-.23v-.6l.99-.15.31-1.68a.3.3 0 0 1 .11-.2.36.36 0 0 1 .22-.06h.77v1.94h1.62v1.06h-1.62v3.33c0 .2.05.35.14.45a.49.49 0 0 0 .39.17.73.73 0 0 0 .39-.1l.12-.07a.2.2 0 0 1 .11-.04.16.16 0 0 1 .11.04c.03.02.06.05.09.1l.44.71c-.21.18-.46.32-.74.41a2.77 2.77 0 0 1-.87.14Zm7.2-.1h-.66a.75.75 0 0 1-.33-.06c-.08-.04-.14-.13-.18-.25l-.13-.44c-.16.14-.31.26-.47.37a2.8 2.8 0 0 1-.46.26c-.16.08-.33.13-.5.17a3.07 3.07 0 0 1-1.33-.05 1.62 1.62 0 0 1-.57-.32 1.45 1.45 0 0 1-.36-.52 1.85 1.85 0 0 1-.14-.73c0-.23.06-.46.18-.68.13-.23.33-.44.62-.62.28-.18.66-.33 1.13-.45a8.01 8.01 0 0 1 1.76-.2v-.36c0-.42-.1-.72-.27-.92-.17-.2-.42-.3-.75-.3a1.84 1.84 0 0 0-1.02.28l-.33.19a.66.66 0 0 1-.33.08.43.43 0 0 1-.25-.08.61.61 0 0 1-.18-.2l-.27-.46c.7-.65 1.56-.98 2.56-.98.36 0 .68.06.96.18a1.99 1.99 0 0 1 1.17 1.25c.1.29.15.6.15.96v3.88ZM47.54 26c.16 0 .3-.01.42-.04a1.88 1.88 0 0 0 .69-.33l.33-.3v-1.04c-.44.02-.8.06-1.09.12a2.8 2.8 0 0 0-.7.2.92.92 0 0 0-.37.3.66.66 0 0 0-.11.36c0 .26.08.45.23.56.15.11.36.17.6.17Z"/></svg></g><a id="title" href="https://ourworldindata.org/grapher/cancer-deaths-in-children-under-5-years-old-by-type" rel="noopener" style="font-family:&quot;Playfair Display&quot;,Georgia,&quot;Times New Roman&quot;,&quot;Liberation Serif&quot;,serif" target="_blank"><text x="16" y="40" fill="#5b5b5b" font-size="24.75" font-weight="600"><tspan x="16" y="40.01">Cancer deaths in children under 5 years old by type</tspan></text></a><g id="subtitle" class="markdown-text-wrap"><text x="16" y="63.9" fill="#5b5b5b" style="font-size:14.625px;line-height:1.2"><tspan x="16" y="63.9">Estimated number of cancer-related deaths among children under 5 years old, categorized by <tspan class="dod-span" data-id="cancer">cancer</tspan> type.</tspan></text></g></g><g id="chart-area" style="pointer-events:none"><g id="categorical-color-legend" class="categoricalColorLegend"><g id="mark__Eye" style="cursor:default"><path fill="#970046" stroke-width=".4" d="M16 83.25h13.5v13.5H16z"/><text x="34.5" y="90" dy=".32em" font-size="14.4">Eye</text></g><g id="mark__Kidney" style="cursor:default"><path fill="#B16214" stroke-width=".4" d="M71.41 83.25h13.5v13.5h-13.5z"/><text x="89.91" y="90" dy=".32em" font-size="14.4">Kidney</text></g><g id="mark__Liver" style="cursor:default"><path fill="#B13507" stroke-width=".4" d="M146.12 83.25h13.5v13.5h-13.5z"/><text x="164.62" y="90" dy=".32em" font-size="14.4">Liver</text></g><g id="mark__Non-Hodgkin-lymphoma" style="cursor:default"><path fill="#578145" stroke-width=".4" d="M207.87 83.25h13.5v13.5h-13.5z"/><text x="226.37" y="90" dy=".32em" font-size="14.4">Non-Hodgkin lymphoma</text></g><g id="mark__Brain-and-central-nervous-system" style="cursor:default"><path fill="#883039" stroke-width=".4" d="M393.17 83.25h13.5v13.5h-13.5z"/><text x="411.67" y="90" dy=".32em" font-size="14.4">Brain and central nervous system</text></g><g id="mark__Leukemia" style="cursor:default"><path fill="#4C6A9C" stroke-width=".4" d="M638.08 83.25h13.5v13.5h-13.5z"/><text x="656.58" y="90" dy=".32em" font-size="14.4">Leukemia</text></g></g><text x="41.84" y="123.47" fill="#1d3d63" font-size="14.63" style="font-weight:700">Asia</text><g id="stacked-area-chart" class="StackedArea"><defs><clipPath id="boundsClip-3"><path d="M41.84 130.78h401v218h-401z"/></clipPath></defs><path fill="none" d="M16 130.78h401v109H16z"/><g id="dual-axis" class="DualAxisView"><g id="horizontal-axis" class="HorizontalAxis"><g id="tick__1980"><path stroke="#999" stroke-width="1" d="M41.8 221.31v5.5"/><text x="41.84" y="237.78" fill="#5b5b5b" font-size="10.97" text-anchor="start">1980</text></g><g id="tick__2021"><path stroke="#999" stroke-width="1" d="M417 221.31v5.5"/><text x="417" y="237.78" fill="#5b5b5b" font-size="10.97" text-anchor="end">2021</text></g><g id="tick__1985"><path stroke="#999" stroke-width="1" d="M87.6 221.31v5.5"/><text x="87.6" y="237.78" fill="#5b5b5b" font-size="10.97" text-anchor="middle">1985</text></g><g id="tick__1990"><path stroke="#999" stroke-width="1" d="M133.3 221.31v5.5"/><text x="133.3" y="237.78" fill="#5b5b5b" font-size="10.97" text-anchor="middle">1990</text></g><g id="tick__1995"><path stroke="#999" stroke-width="1" d="M179.1 221.31v5.5"/><text x="179.1" y="237.78" fill="#5b5b5b" font-size="10.97" text-anchor="middle">1995</text></g><g id="tick__2000"><path stroke="#999" stroke-width="1" d="M224.8 221.31v5.5"/><text x="224.8" y="237.78" fill="#5b5b5b" font-size="10.97" text-anchor="middle">2000</text></g><g id="tick__2005"><path stroke="#999" stroke-width="1" d="M270.6 221.31v5.5"/><text x="270.6" y="237.78" fill="#5b5b5b" font-size="10.97" text-anchor="middle">2005</text></g><g id="tick__2010"><path stroke="#999" stroke-width="1" d="M316.3 221.31v5.5"/><text x="316.3" y="237.78" fill="#5b5b5b" font-size="10.97" text-anchor="middle">2010</text></g><g id="tick__2015"><path stroke="#999" stroke-width="1" d="M362.1 221.31v5.5"/><text x="362.1" y="237.78" fill="#5b5b5b" font-size="10.97" text-anchor="middle">2015</text></g></g><g id="vertical-axis" class="VerticalAxis"><g id="tick-labels"><text id="tick-label__0" x="36.84" y="221.8" fill="#5b5b5b" dy=".32em" font-size="10.97" text-anchor="end">0</text><text id="tick-label__10k" x="36.84" y="199.6" fill="#5b5b5b" dy=".32em" font-size="10.97" text-anchor="end">10k</text><text id="tick-label__20k" x="36.84" y="177.3" fill="#5b5b5b" dy=".32em" font-size="10.97" text-anchor="end">20k</text><text id="tick-label__30k" x="36.84" y="155.1" fill="#5b5b5b" dy=".32em" font-size="10.97" text-anchor="end">30k</text></g></g><g id="horizontal-grid-lines" class="AxisGridLines horizontalLines"><path id="grid-line__0" stroke="#999" stroke-width="1" d="M41.84 221.8H417"/><path id="grid-line__10000" stroke="#ddd" stroke-dasharray="2,1" stroke-width="1" d="M41.84 199.6H417"/><path id="grid-line__20000" stroke="#ddd" stroke-dasharray="2,1" stroke-width="1" d="M41.84 177.3H417"/><path id="grid-line__30000" stroke="#ddd" stroke-dasharray="2,1" stroke-width="1" d="M41.84 155.1H417"/></g></g><g clip-path="url(#boundsClip-3)"><g id="stacked-areas" class="Areas"><path id="area__Leukemia" fill="#4C6A9C" fill-opacity=".8" stroke-linecap="round" d="m41.8 172.8 9.2.7 9.1.7 9.2.4 9.1-.2 9.2-.5 9.1-.5 9.2-.4 9.1-.3 9.2-.1 9.1.2 9.2.3 9.1 1 9.2 1.7 9.1 2 9.2 2 9.1 2 9.2 2 9.1 2.2 9.2 2.1 9.1 1.9 9.2 2 9.1 1.8 9.2 1.7 9.1 1.5 9.2 1.1 9.1 1.1 9.2 1 9.1.6 9.2.7 9.1.9 9.2.8 9.1.7 9.2.4 9.1.4 9.2.2 9.1.4 9.2.3 9.1.5 9.2.6 9.1 2.3 9.2 1v11.81H41.8" class="Leukemia-area"/><path id="area__Brain-and-central-nervous-system" fill="#883039" fill-opacity=".8" stroke-linecap="round" d="m41.8 159.7 9.2.6 9.1.8 9.2.2 9.1-.5 9.2-.8 9.1-1 9.2-1 9.1-.7 9.2-.5 9.1-.1h9.2l9.1 1.2 9.2 2 9.1 2.3 9.2 2.4 9.1 2.6 9.2 2.5 9.1 2.9 9.2 2.7 9.1 2.5 9.2 2.6 9.1 2.5 9.2 2.3 9.1 1.9 9.2 1.6 9.1 1.3 9.2 1.3 9.1.6 9.2.8 9.1 1.1 9.2 1 9.1.9 9.2.3 9.1.4 9.2.2 9.1.3 9.2.2 9.1.6 9.2.7 9.1 3.5 9.2 1.5v6.6l-9.2-1-9.1-2.3-9.2-.6-9.1-.5-9.2-.3-9.1-.4-9.2-.2-9.1-.4-9.2-.4-9.1-.7-9.2-.8-9.1-.9-9.2-.7-9.1-.6-9.2-1-9.1-1.1-9.2-1.1-9.1-1.5-9.2-1.7-9.1-1.8-9.2-2-9.1-1.9-9.2-2.1-9.1-2.2-9.2-2-9.1-2-9.2-2-9.1-2-9.2-1.7-9.1-1-9.2-.3-9.1-.2-9.2.1-9.1.3-9.2.4-9.1.5-9.2.5-9.1.2-9.2-.4-9.1-.7-9.2-.7" class="Brain-and-central-nervous-system-area"/><path id="area__Non-Hodgkin-lymphoma" fill="#578145" fill-opacity=".8" stroke-linecap="round" d="m41.8 151.5 9.2.8 9.1.9 9.2.4 9.1-.4 9.2-.7 9.1-1 9.2-.9 9.1-.8 9.2-.3 9.1-.1 9.2.1 9.1 1.2 9.2 2.2 9.1 2.6 9.2 2.6 9.1 2.8 9.2 2.7 9.1 3.2 9.2 3.1 9.1 2.9 9.2 2.9 9.1 2.8 9.2 2.5 9.1 2.2 9.2 1.7 9.1 1.5 9.2 1.4 9.1.6 9.2.9 9.1 1.2 9.2 1.1 9.1.9 9.2.4 9.1.4 9.2.3 9.1.3 9.2.3 9.1.7 9.2.7 9.1 3.8 9.2 1.7v2.3l-9.2-1.5-9.1-3.5-9.2-.7-9.1-.6-9.2-.2-9.1-.3-9.2-.2-9.1-.4-9.2-.3-9.1-.9-9.2-1-9.1-1.1-9.2-.8-9.1-.6-9.2-1.3-9.1-1.3-9.2-1.6-9.1-1.9-9.2-2.3-9.1-2.5-9.2-2.6-9.1-2.5-9.2-2.7-9.1-2.9-9.2-2.5-9.1-2.6-9.2-2.4-9.1-2.3-9.2-2-9.1-1.2h-9.2l-9.1.1-9.2.5-9.1.7-9.2 1-9.1 1-9.2.8-9.1.5-9.2-.2-9.1-.8-9.2-.6" class="Non-Hodgkin-lymphoma-area"/><path id="area__Liver" fill="#B13507" fill-opacity=".8" stroke-linecap="round" d="m41.8 145.2 9.2.9 9.1 1 9.2.5 9.1-.4 9.2-.7 9.1-1 9.2-.9 9.1-.7 9.2-.3h9.1l9.2.1 9.1 1.4 9.2 2.3 9.1 2.6 9.2 2.8 9.1 2.9 9.2 3 9.1 3.4 9.2 3.3 9.1 3.1 9.2 3.2 9.1 3 9.2 2.8 9.1 2.4 9.2 1.9 9.1 1.6 9.2 1.4 9.1.6 9.2 1 9.1 1.3 9.2 1.2 9.1 1 9.2.4 9.1.5 9.2.3 9.1.4 9.2.4 9.1.7 9.2.9 9.1 3.9 9.2 1.9v1.8l-9.2-1.7-9.1-3.8-9.2-.7-9.1-.7-9.2-.3-9.1-.3-9.2-.3-9.1-.4-9.2-.4-9.1-.9-9.2-1.1-9.1-1.2-9.2-.9-9.1-.6-9.2-1.4-9.1-1.5-9.2-1.7-9.1-2.2-9.2-2.5-9.1-2.8-9.2-2.9-9.1-2.9-9.2-3.1-9.1-3.2-9.2-2.7-9.1-2.8-9.2-2.6-9.1-2.6-9.2-2.2-9.1-1.2-9.2-.1-9.1.1-9.2.3-9.1.8-9.2.9-9.1 1-9.2.7-9.1.4-9.2-.4-9.1-.9-9.2-.8" class="Liver-area"/><path id="area__Kidney" fill="#B16214" fill-opacity=".8" stroke-linecap="round" d="m41.8 141.6 9.2.8 9.1 1.1 9.2.5 9.1-.4 9.2-.8 9.1-1.1 9.2-1 9.1-.8 9.2-.3 9.1-.1 9.2.2 9.1 1.4 9.2 2.5 9.1 2.9 9.2 2.9 9.1 3 9.2 3.1 9.1 3.6 9.2 3.4 9.1 3.1 9.2 3.2 9.1 3.2 9.2 2.9 9.1 2.5 9.2 1.9 9.1 1.7 9.2 1.5 9.1.6 9.2 1.1 9.1 1.3 9.2 1.3 9.1 1 9.2.4 9.1.5 9.2.3 9.1.4 9.2.4 9.1.8 9.2.9 9.1 4.2 9.2 2v1.6l-9.2-1.9-9.1-3.9-9.2-.9-9.1-.7-9.2-.4-9.1-.4-9.2-.3-9.1-.5-9.2-.4-9.1-1-9.2-1.2-9.1-1.3-9.2-1-9.1-.6-9.2-1.4-9.1-1.6-9.2-1.9-9.1-2.4-9.2-2.8-9.1-3-9.2-3.2-9.1-3.1-9.2-3.3-9.1-3.4-9.2-3-9.1-2.9-9.2-2.8-9.1-2.6-9.2-2.3-9.1-1.4-9.2-.1h-9.1l-9.2.3-9.1.7-9.2.9-9.1 1-9.2.7-9.1.4-9.2-.5-9.1-1-9.2-.9" class="Kidney-area"/><path id="area__Eye" fill="#970046" fill-opacity=".8" stroke-linecap="round" d="m41.8 138.9 9.2.9 9.1 1 9.2.5 9.1-.5 9.2-.8 9.1-1.1 9.2-1 9.1-.8 9.2-.3h9.1l9.2.2 9.1 1.4 9.2 2.5 9.1 2.9 9.2 3 9.1 3.1 9.2 3.1 9.1 3.7 9.2 3.4 9.1 3.2 9.2 3.3 9.1 3.2 9.2 2.9 9.1 2.6 9.2 1.9 9.1 1.8 9.2 1.5 9.1.6 9.2 1.1 9.1 1.4 9.2 1.2 9.1 1.1 9.2.3 9.1.5 9.2.3 9.1.4 9.2.5 9.1.8 9.2.9 9.1 4.4 9.2 2v1.7l-9.2-2-9.1-4.2-9.2-.9-9.1-.8-9.2-.4-9.1-.4-9.2-.3-9.1-.5-9.2-.4-9.1-1-9.2-1.3-9.1-1.3-9.2-1.1-9.1-.6-9.2-1.5-9.1-1.7-9.2-1.9-9.1-2.5-9.2-2.9-9.1-3.2-9.2-3.2-9.1-3.1-9.2-3.4-9.1-3.6-9.2-3.1-9.1-3-9.2-2.9-9.1-2.9-9.2-2.5-9.1-1.4-9.2-.2-9.1.1-9.2.3-9.1.8-9.2 1-9.1 1.1-9.2.8-9.1.4-9.2-.5-9.1-1.1-9.2-.8" class="Eye-area"/><path id="border__Leukemia" fill="none" stroke="#405983" stroke-linecap="round" stroke-opacity=".7" stroke-width=".5" d="m41.8 172.8 9.2.7 9.1.7 9.2.4 9.1-.2 9.2-.5 9.1-.5 9.2-.4 9.1-.3 9.2-.1 9.1.2 9.2.3 9.1 1 9.2 1.7 9.1 2 9.2 2 9.1 2 9.2 2 9.1 2.2 9.2 2.1 9.1 1.9 9.2 2 9.1 1.8 9.2 1.7 9.1 1.5 9.2 1.1 9.1 1.1 9.2 1 9.1.6 9.2.7 9.1.9 9.2.8 9.1.7 9.2.4 9.1.4 9.2.2 9.1.4 9.2.3 9.1.5 9.2.6 9.1 2.3 9.2 1" class="Leukemia-border"/><path id="border__Brain-and-central-nervous-system" fill="none" stroke="#722830" stroke-linecap="round" stroke-opacity=".7" stroke-width=".5" d="m41.8 159.7 9.2.6 9.1.8 9.2.2 9.1-.5 9.2-.8 9.1-1 9.2-1 9.1-.7 9.2-.5 9.1-.1h9.2l9.1 1.2 9.2 2 9.1 2.3 9.2 2.4 9.1 2.6 9.2 2.5 9.1 2.9 9.2 2.7 9.1 2.5 9.2 2.6 9.1 2.5 9.2 2.3 9.1 1.9 9.2 1.6 9.1 1.3 9.2 1.3 9.1.6 9.2.8 9.1 1.1 9.2 1 9.1.9 9.2.3 9.1.4 9.2.2 9.1.3 9.2.2 9.1.6 9.2.7 9.1 3.5 9.2 1.5" class="Brain-and-central-nervous-system-border"/><path id="border__Non-Hodgkin-lymphoma" fill="none" stroke="#496C3A" stroke-linecap="round" stroke-opacity=".7" stroke-width=".5" d="m41.8 151.5 9.2.8 9.1.9 9.2.4 9.1-.4 9.2-.7 9.1-1 9.2-.9 9.1-.8 9.2-.3 9.1-.1 9.2.1 9.1 1.2 9.2 2.2 9.1 2.6 9.2 2.6 9.1 2.8 9.2 2.7 9.1 3.2 9.2 3.1 9.1 2.9 9.2 2.9 9.1 2.8 9.2 2.5 9.1 2.2 9.2 1.7 9.1 1.5 9.2 1.4 9.1.6 9.2.9 9.1 1.2 9.2 1.1 9.1.9 9.2.4 9.1.4 9.2.3 9.1.3 9.2.3 9.1.7 9.2.7 9.1 3.8 9.2 1.7" class="Non-Hodgkin-lymphoma-border"/><path id="border__Liver" fill="none" stroke="#942C06" stroke-linecap="round" stroke-opacity=".7" stroke-width=".5" d="m41.8 145.2 9.2.9 9.1 1 9.2.5 9.1-.4 9.2-.7 9.1-1 9.2-.9 9.1-.7 9.2-.3h9.1l9.2.1 9.1 1.4 9.2 2.3 9.1 2.6 9.2 2.8 9.1 2.9 9.2 3 9.1 3.4 9.2 3.3 9.1 3.1 9.2 3.2 9.1 3 9.2 2.8 9.1 2.4 9.2 1.9 9.1 1.6 9.2 1.4 9.1.6 9.2 1 9.1 1.3 9.2 1.2 9.1 1 9.2.4 9.1.5 9.2.3 9.1.4 9.2.4 9.1.7 9.2.9 9.1 3.9 9.2 1.9" class="Liver-border"/><path id="border__Kidney" fill="none" stroke="#945211" stroke-linecap="round" stroke-opacity=".7" stroke-width=".5" d="m41.8 141.6 9.2.8 9.1 1.1 9.2.5 9.1-.4 9.2-.8 9.1-1.1 9.2-1 9.1-.8 9.2-.3 9.1-.1 9.2.2 9.1 1.4 9.2 2.5 9.1 2.9 9.2 2.9 9.1 3 9.2 3.1 9.1 3.6 9.2 3.4 9.1 3.1 9.2 3.2 9.1 3.2 9.2 2.9 9.1 2.5 9.2 1.9 9.1 1.7 9.2 1.5 9.1.6 9.2 1.1 9.1 1.3 9.2 1.3 9.1 1 9.2.4 9.1.5 9.2.3 9.1.4 9.2.4 9.1.8 9.2.9 9.1 4.2 9.2 2" class="Kidney-border"/><path id="border__Eye" fill="none" stroke="#7E003B" stroke-linecap="round" stroke-opacity=".7" stroke-width=".5" d="m41.8 138.9 9.2.9 9.1 1 9.2.5 9.1-.5 9.2-.8 9.1-1.1 9.2-1 9.1-.8 9.2-.3h9.1l9.2.2 9.1 1.4 9.2 2.5 9.1 2.9 9.2 3 9.1 3.1 9.2 3.1 9.1 3.7 9.2 3.4 9.1 3.2 9.2 3.3 9.1 3.2 9.2 2.9 9.1 2.6 9.2 1.9 9.1 1.8 9.2 1.5 9.1.6 9.2 1.1 9.1 1.4 9.2 1.2 9.1 1.1 9.2.3 9.1.5 9.2.3 9.1.4 9.2.5 9.1.8 9.2.9 9.1 4.4 9.2 2" class="Eye-border"/></g></g></g><text x="457.84" y="123.47" fill="#1d3d63" font-size="14.63" style="font-weight:700">Africa</text><g class="StackedArea"><defs><clipPath id="boundsClip-4"><path d="M457.84 130.78h401v218h-401z"/></clipPath></defs><path fill="none" d="M432 130.78h401v109H432z"/><g class="DualAxisView"><g class="HorizontalAxis"><g><path stroke="#999" stroke-width="1" d="M457.8 221.31v5.5"/><text x="457.84" y="237.78" fill="#5b5b5b" font-size="10.97" text-anchor="start">1980</text></g><g><path stroke="#999" stroke-width="1" d="M833 221.31v5.5"/><text x="833" y="237.78" fill="#5b5b5b" font-size="10.97" text-anchor="end">2021</text></g><g><path stroke="#999" stroke-width="1" d="M503.6 221.31v5.5"/><text x="503.6" y="237.78" fill="#5b5b5b" font-size="10.97" text-anchor="middle">1985</text></g><g><path stroke="#999" stroke-width="1" d="M549.3 221.31v5.5"/><text x="549.3" y="237.78" fill="#5b5b5b" font-size="10.97" text-anchor="middle">1990</text></g><g><path stroke="#999" stroke-width="1" d="M595.1 221.31v5.5"/><text x="595.1" y="237.78" fill="#5b5b5b" font-size="10.97" text-anchor="middle">1995</text></g><g><path stroke="#999" stroke-width="1" d="M640.8 221.31v5.5"/><text x="640.8" y="237.78" fill="#5b5b5b" font-size="10.97" text-anchor="middle">2000</text></g><g><path stroke="#999" stroke-width="1" d="M686.6 221.31v5.5"/><text x="686.6" y="237.78" fill="#5b5b5b" font-size="10.97" text-anchor="middle">2005</text></g><g><path stroke="#999" stroke-width="1" d="M732.3 221.31v5.5"/><text x="732.3" y="237.78" fill="#5b5b5b" font-size="10.97" text-anchor="middle">2010</text></g><g><path stroke="#999" stroke-width="1" d="M778.1 221.31v5.5"/><text x="778.1" y="237.78" fill="#5b5b5b" font-size="10.97" text-anchor="middle">2015</text></g></g><g class="VerticalAxis"><g><text x="452.84" y="221.8" fill="#5b5b5b" dy=".32em" font-size="10.97" text-anchor="end">0</text><text id="tick-label__5k" x="452.84" y="189.5" fill="#5b5b5b" dy=".32em" font-size="10.97" text-anchor="end">5k</text><text x="452.84" y="157.2" fill="#5b5b5b" dy=".32em" font-size="10.97" text-anchor="end">10k</text></g></g><g class="AxisGridLines horizontalLines"><path stroke="#999" stroke-width="1" d="M457.84 221.8H833"/><path id="grid-line__5000" stroke="#ddd" stroke-dasharray="2,1" stroke-width="1" d="M457.84 189.5H833"/><path stroke="#ddd" stroke-dasharray="2,1" stroke-width="1" d="M457.84 157.2H833"/></g></g><g clip-path="url(#boundsClip-4)"><g class="Areas"><path fill="#4C6A9C" fill-opacity=".8" stroke-linecap="round" d="m457.8 200.7 9.2-.3 9.1-.2 9.2-.1 9.1-.2 9.2-.1 9.1-.2 9.2-.2 9.1-.1 9.2-.2 9.1-.2h9.2l9.1-.1H595.1l9.1.2h9.2l9.1.1h9.2l9.1-.2h9.2l9.1-.2 9.2-.1 9.1-.2 9.2-.5 9.1-.5 9.2-.4 9.1-.3 9.2-.3 9.1-.2 9.2-.3 9.1-.4 9.2-.3 9.1-.5h9.2l9.1.1 9.2.5 9.1.7 9.2.7 9.1.7 9.2 1v23.41H457.8" class="Leukemia-area"/><path fill="#883039" fill-opacity=".8" stroke-linecap="round" d="m457.8 195 9.2-.5 9.1-.4 9.2-.2 9.1-.3 9.2-.2 9.1-.3 9.2-.3 9.1-.2 9.2-.3 9.1-.3 9.2-.1 9.1-.1h9.2l9.1-.1 9.2-.1 9.1.2 9.2-.1h9.1l9.2-.1 9.1-.4 9.2-.1 9.1-.5 9.2-.3 9.1-.6 9.2-.8 9.1-.9 9.2-.8 9.1-.5 9.2-.6 9.1-.4 9.2-.8 9.1-.6 9.2-.7 9.1-.9 9.2-.2h9.1l9.2.5 9.1.9 9.2.8 9.1.7 9.2 1.3v11.7l-9.2-1-9.1-.7-9.2-.7-9.1-.7-9.2-.5-9.1-.1h-9.2l-9.1.5-9.2.3-9.1.4-9.2.3-9.1.2-9.2.3-9.1.3-9.2.4-9.1.5-9.2.5-9.1.2-9.2.1-9.1.2h-9.2l-9.1.2h-9.2l-9.1-.1h-9.2l-9.1-.2H567.6l-9.1.1h-9.2l-9.1.2-9.2.2-9.1.1-9.2.2-9.1.2-9.2.1-9.1.2-9.2.1-9.1.2-9.2.3" class="Brain-and-central-nervous-system-area"/><path fill="#578145" fill-opacity=".8" stroke-linecap="round" d="m457.8 180.9 9.2-.6 9.1-.5 9.2-.3 9.1-.5 9.2-.3 9.1-.5 9.2-.4 9.1-.4 9.2-.4 9.1-.3 9.2-.2 9.1-.3 9.2-.1H595.1l9.1.3 9.2.2 9.1.2 9.2-.1 9.1-.5h9.2l9.1-.5 9.2-.3 9.1-.7 9.2-.8 9.1-1.1 9.2-.8 9.1-.5 9.2-.8 9.1-.6 9.2-1 9.1-1 9.2-.9 9.1-1.1 9.2-.3h9.1l9.2 1.2 9.1 1.6 9.2 1.4 9.1.9 9.2 2.1v13.7l-9.2-1.3-9.1-.7-9.2-.8-9.1-.9-9.2-.5h-9.1l-9.2.2-9.1.9-9.2.7-9.1.6-9.2.8-9.1.4-9.2.6-9.1.5-9.2.8-9.1.9-9.2.8-9.1.6-9.2.3-9.1.5-9.2.1-9.1.4-9.2.1h-9.1l-9.2.1-9.1-.2-9.2.1-9.1.1h-9.2l-9.1.1-9.2.1-9.1.3-9.2.3-9.1.2-9.2.3-9.1.3-9.2.2-9.1.3-9.2.2-9.1.4-9.2.5" class="Non-Hodgkin-lymphoma-area"/><path fill="#B13507" fill-opacity=".8" stroke-linecap="round" d="m457.8 174.6 9.2-.7 9.1-.6 9.2-.4 9.1-.4 9.2-.5 9.1-.5 9.2-.5 9.1-.5 9.2-.6 9.1-.4 9.2-.4 9.1-.4 9.2-.2 9.1-.1h9.2l9.1.3 9.2.2 9.1.2 9.2-.1 9.1-.5h9.2l9.1-.6 9.2-.2 9.1-.7 9.2-.8 9.1-1.1 9.2-.8 9.1-.5 9.2-.8 9.1-.7 9.2-1.1 9.1-1 9.2-1 9.1-1.1 9.2-.2 9.1-.1 9.2 1.5 9.1 1.9 9.2 1.7 9.1 1.2 9.2 2.4v6.5l-9.2-2.1-9.1-.9-9.2-1.4-9.1-1.6-9.2-1.2h-9.1l-9.2.3-9.1 1.1-9.2.9-9.1 1-9.2 1-9.1.6-9.2.8-9.1.5-9.2.8-9.1 1.1-9.2.8-9.1.7-9.2.3-9.1.5h-9.2l-9.1.5-9.2.1-9.1-.2-9.2-.2-9.1-.3H576.8l-9.2.1-9.1.3-9.2.2-9.1.3-9.2.4-9.1.4-9.2.4-9.1.5-9.2.3-9.1.5-9.2.3-9.1.5-9.2.6" class="Liver-area"/><path fill="#B16214" fill-opacity=".8" stroke-linecap="round" d="m457.8 170.1 9.2-.8 9.1-.7 9.2-.4 9.1-.6 9.2-.5 9.1-.7 9.2-.6 9.1-.6 9.2-.6 9.1-.6 9.2-.4 9.1-.4 9.2-.3 9.1-.1 9.2-.1 9.1.4 9.2.2 9.1.2 9.2-.2 9.1-.7 9.2-.1 9.1-.8 9.2-.3 9.1-.9 9.2-1 9.1-1.4 9.2-1 9.1-.6 9.2-1.1 9.1-1 9.2-1.3 9.1-1.3 9.2-1.3 9.1-1.4 9.2-.4 9.1-.3 9.2 1.6 9.1 2.1 9.2 1.9 9.1 1.1 9.2 2.7v8.7l-9.2-2.4-9.1-1.2-9.2-1.7-9.1-1.9-9.2-1.5-9.1.1-9.2.2-9.1 1.1-9.2 1-9.1 1-9.2 1.1-9.1.7-9.2.8-9.1.5-9.2.8-9.1 1.1-9.2.8-9.1.7-9.2.2-9.1.6h-9.2l-9.1.5-9.2.1-9.1-.2-9.2-.2-9.1-.3h-9.2l-9.1.1-9.2.2-9.1.4-9.2.4-9.1.4-9.2.6-9.1.5-9.2.5-9.1.5-9.2.5-9.1.4-9.2.4-9.1.6-9.2.7" class="Kidney-area"/><path fill="#970046" fill-opacity=".8" stroke-linecap="round" d="m457.8 162.9 9.2-1 9.1-.9 9.2-.6 9.1-.8 9.2-.6 9.1-.9 9.2-.7 9.1-.6 9.2-.8 9.1-.6 9.2-.5 9.1-.4 9.2-.3 9.1-.1 9.2-.1 9.1.3 9.2.1 9.1.3 9.2-.3 9.1-.7h9.2l9.1-1 9.2-.6 9.1-1.1 9.2-1.4 9.1-1.8 9.2-1.4 9.1-.7 9.2-1.3 9.1-1.2 9.2-1.6 9.1-1.6 9.2-1.4 9.1-1.5 9.2-.2 9.1-.1 9.2 1.7 9.1 2.4 9.2 2.1 9.1 1.2 9.2 3.1v10.5l-9.2-2.7-9.1-1.1-9.2-1.9-9.1-2.1-9.2-1.6-9.1.3-9.2.4-9.1 1.4-9.2 1.3-9.1 1.3-9.2 1.3-9.1 1-9.2 1.1-9.1.6-9.2 1-9.1 1.4-9.2 1-9.1.9-9.2.3-9.1.8-9.2.1-9.1.7-9.2.2-9.1-.2-9.2-.2-9.1-.4-9.2.1-9.1.1-9.2.3-9.1.4-9.2.4-9.1.6-9.2.6-9.1.6-9.2.6-9.1.7-9.2.5-9.1.6-9.2.4-9.1.7-9.2.8" class="Eye-area"/><path fill="none" stroke="#405983" stroke-linecap="round" stroke-opacity=".7" stroke-width=".5" d="m457.8 200.7 9.2-.3 9.1-.2 9.2-.1 9.1-.2 9.2-.1 9.1-.2 9.2-.2 9.1-.1 9.2-.2 9.1-.2h9.2l9.1-.1H595.1l9.1.2h9.2l9.1.1h9.2l9.1-.2h9.2l9.1-.2 9.2-.1 9.1-.2 9.2-.5 9.1-.5 9.2-.4 9.1-.3 9.2-.3 9.1-.2 9.2-.3 9.1-.4 9.2-.3 9.1-.5h9.2l9.1.1 9.2.5 9.1.7 9.2.7 9.1.7 9.2 1" class="Leukemia-border"/><path fill="none" stroke="#722830" stroke-linecap="round" stroke-opacity=".7" stroke-width=".5" d="m457.8 195 9.2-.5 9.1-.4 9.2-.2 9.1-.3 9.2-.2 9.1-.3 9.2-.3 9.1-.2 9.2-.3 9.1-.3 9.2-.1 9.1-.1h9.2l9.1-.1 9.2-.1 9.1.2 9.2-.1h9.1l9.2-.1 9.1-.4 9.2-.1 9.1-.5 9.2-.3 9.1-.6 9.2-.8 9.1-.9 9.2-.8 9.1-.5 9.2-.6 9.1-.4 9.2-.8 9.1-.6 9.2-.7 9.1-.9 9.2-.2h9.1l9.2.5 9.1.9 9.2.8 9.1.7 9.2 1.3" class="Brain-and-central-nervous-system-border"/><path fill="none" stroke="#496C3A" stroke-linecap="round" stroke-opacity=".7" stroke-width=".5" d="m457.8 180.9 9.2-.6 9.1-.5 9.2-.3 9.1-.5 9.2-.3 9.1-.5 9.2-.4 9.1-.4 9.2-.4 9.1-.3 9.2-.2 9.1-.3 9.2-.1H595.1l9.1.3 9.2.2 9.1.2 9.2-.1 9.1-.5h9.2l9.1-.5 9.2-.3 9.1-.7 9.2-.8 9.1-1.1 9.2-.8 9.1-.5 9.2-.8 9.1-.6 9.2-1 9.1-1 9.2-.9 9.1-1.1 9.2-.3h9.1l9.2 1.2 9.1 1.6 9.2 1.4 9.1.9 9.2 2.1" class="Non-Hodgkin-lymphoma-border"/><path fill="none" stroke="#942C06" stroke-linecap="round" stroke-opacity=".7" stroke-width=".5" d="m457.8 174.6 9.2-.7 9.1-.6 9.2-.4 9.1-.4 9.2-.5 9.1-.5 9.2-.5 9.1-.5 9.2-.6 9.1-.4 9.2-.4 9.1-.4 9.2-.2 9.1-.1h9.2l9.1.3 9.2.2 9.1.2 9.2-.1 9.1-.5h9.2l9.1-.6 9.2-.2 9.1-.7 9.2-.8 9.1-1.1 9.2-.8 9.1-.5 9.2-.8 9.1-.7 9.2-1.1 9.1-1 9.2-1 9.1-1.1 9.2-.2 9.1-.1 9.2 1.5 9.1 1.9 9.2 1.7 9.1 1.2 9.2 2.4" class="Liver-border"/><path fill="none" stroke="#945211" stroke-linecap="round" stroke-opacity=".7" stroke-width=".5" d="m457.8 170.1 9.2-.8 9.1-.7 9.2-.4 9.1-.6 9.2-.5 9.1-.7 9.2-.6 9.1-.6 9.2-.6 9.1-.6 9.2-.4 9.1-.4 9.2-.3 9.1-.1 9.2-.1 9.1.4 9.2.2 9.1.2 9.2-.2 9.1-.7 9.2-.1 9.1-.8 9.2-.3 9.1-.9 9.2-1 9.1-1.4 9.2-1 9.1-.6 9.2-1.1 9.1-1 9.2-1.3 9.1-1.3 9.2-1.3 9.1-1.4 9.2-.4 9.1-.3 9.2 1.6 9.1 2.1 9.2 1.9 9.1 1.1 9.2 2.7" class="Kidney-border"/><path fill="none" stroke="#7E003B" stroke-linecap="round" stroke-opacity=".7" stroke-width=".5" d="m457.8 162.9 9.2-1 9.1-.9 9.2-.6 9.1-.8 9.2-.6 9.1-.9 9.2-.7 9.1-.6 9.2-.8 9.1-.6 9.2-.5 9.1-.4 9.2-.3 9.1-.1 9.2-.1 9.1.3 9.2.1 9.1.3 9.2-.3 9.1-.7h9.2l9.1-1 9.2-.6 9.1-1.1 9.2-1.4 9.1-1.8 9.2-1.4 9.1-.7 9.2-1.3 9.1-1.2 9.2-1.6 9.1-1.6 9.2-1.4 9.1-1.5 9.2-.2 9.1-.1 9.2 1.7 9.1 2.4 9.2 2.1 9.1 1.2 9.2 3.1" class="Eye-border"/></g></g></g><text x="41.84" y="269.47" fill="#1d3d63" font-size="14.63" style="font-weight:700">Europe</text><g class="StackedArea"><defs><clipPath id="boundsClip-5"><path d="M41.84 276.78h401v218h-401z"/></clipPath></defs><path fill="none" d="M16 276.78h401v109H16z"/><g class="DualAxisView"><g class="HorizontalAxis"><g><path stroke="#999" stroke-width="1" d="M41.8 367.31v5.5"/><text x="41.84" y="383.78" fill="#5b5b5b" font-size="10.97" text-anchor="start">1980</text></g><g><path stroke="#999" stroke-width="1" d="M417 367.31v5.5"/><text x="417" y="383.78" fill="#5b5b5b" font-size="10.97" text-anchor="end">2021</text></g><g><path stroke="#999" stroke-width="1" d="M87.6 367.31v5.5"/><text x="87.6" y="383.78" fill="#5b5b5b" font-size="10.97" text-anchor="middle">1985</text></g><g><path stroke="#999" stroke-width="1" d="M133.3 367.31v5.5"/><text x="133.3" y="383.78" fill="#5b5b5b" font-size="10.97" text-anchor="middle">1990</text></g><g><path stroke="#999" stroke-width="1" d="M179.1 367.31v5.5"/><text x="179.1" y="383.78" fill="#5b5b5b" font-size="10.97" text-anchor="middle">1995</text></g><g><path stroke="#999" stroke-width="1" d="M224.8 367.31v5.5"/><text x="224.8" y="383.78" fill="#5b5b5b" font-size="10.97" text-anchor="middle">2000</text></g><g><path stroke="#999" stroke-width="1" d="M270.6 367.31v5.5"/><text x="270.6" y="383.78" fill="#5b5b5b" font-size="10.97" text-anchor="middle">2005</text></g><g><path stroke="#999" stroke-width="1" d="M316.3 367.31v5.5"/><text x="316.3" y="383.78" fill="#5b5b5b" font-size="10.97" text-anchor="middle">2010</text></g><g><path stroke="#999" stroke-width="1" d="M362.1 367.31v5.5"/><text x="362.1" y="383.78" fill="#5b5b5b" font-size="10.97" text-anchor="middle">2015</text></g></g><g class="VerticalAxis"><g><text x="36.84" y="367.8" fill="#5b5b5b" dy=".32em" font-size="10.97" text-anchor="end">0</text><text id="tick-label__1k" x="36.84" y="337.4" fill="#5b5b5b" dy=".32em" font-size="10.97" text-anchor="end">1k</text><text id="tick-label__2k" x="36.84" y="307" fill="#5b5b5b" dy=".32em" font-size="10.97" text-anchor="end">2k</text></g></g><g class="AxisGridLines horizontalLines"><path stroke="#999" stroke-width="1" d="M41.84 367.8H417"/><path id="grid-line__1000" stroke="#ddd" stroke-dasharray="2,1" stroke-width="1" d="M41.84 337.4H417"/><path id="grid-line__2000" stroke="#ddd" stroke-dasharray="2,1" stroke-width="1" d="M41.84 307H417"/></g></g><g clip-path="url(#boundsClip-5)"><g class="Areas"><path fill="#4C6A9C" fill-opacity=".8" stroke-linecap="round" d="m41.8 326.6 9.2 1 9.1 1.2 9.2.9 9.1.3 9.2.8 9.1.6 9.2-.7 9.1 1.2 9.2 1.8 9.1 2.4 9.2 1.4 9.1 2.6 9.2 2.9 9.1 2.3 9.2 2.2 9.1 1.4 9.2.8 9.1 1 9.2.9 9.1 1.1 9.2.5 9.1.6 9.2.5 9.1.2 9.2.9 9.1.6 9.2.7 9.1.2h9.2l9.1.4 9.2.1 9.1-.2 9.2.4 9.1.2 9.2.4 9.1.4 9.2-.1 9.1.1 9.2.3 9.1 1.4 9.2.5v7.01H41.8" class="Leukemia-area"/><path fill="#883039" fill-opacity=".8" stroke-linecap="round" d="m41.8 300.1 9.2 1.4 9.1 1.9 9.2 1.3 9.1.2 9.2 1.2 9.1 1.3 9.2-1.2 9.1 1.8 9.2 2.9 9.1 3.1 9.2 2.2 9.1 3.8 9.2 4.2 9.1 3.3 9.2 3.5 9.1 2.1 9.2 1.5 9.1 1.7 9.2 1.6 9.1 1.3 9.2.7 9.1 1 9.2.9 9.1.2 9.2 1.5 9.1.7 9.2 1 9.1.4 9.2-.2 9.1.6h9.2l9.1-.5 9.2.7 9.1.5 9.2.7 9.1.7 9.2-.3 9.1.3 9.2.5 9.1 3 9.2.9v8.3l-9.2-.5-9.1-1.4-9.2-.3-9.1-.1-9.2.1-9.1-.4-9.2-.4-9.1-.2-9.2-.4-9.1.2-9.2-.1-9.1-.4H298l-9.1-.2-9.2-.7-9.1-.6-9.2-.9-9.1-.2-9.2-.5-9.1-.6-9.2-.5-9.1-1.1-9.2-.9-9.1-1-9.2-.8-9.1-1.4-9.2-2.2-9.1-2.3-9.2-2.9-9.1-2.6-9.2-1.4-9.1-2.4-9.2-1.8-9.1-1.2-9.2.7-9.1-.6-9.2-.8-9.1-.3-9.2-.9-9.1-1.2-9.2-1" class="Brain-and-central-nervous-system-area"/><path fill="#578145" fill-opacity=".8" stroke-linecap="round" d="m41.8 294.6 9.2 1.6 9.1 2 9.2 1.4h9.1l9.2 1.1 9.1 1.4 9.2-1.3 9.1 1.9 9.2 3.1 9.1 3.4 9.2 2.3 9.1 4.1 9.2 4.8 9.1 3.5 9.2 3.8 9.1 2.4 9.2 1.5 9.1 2 9.2 1.7 9.1 1.5 9.2.8 9.1 1.2 9.2.9 9.1.3 9.2 1.6 9.1.7 9.2 1.1 9.1.4 9.2-.1 9.1.6h9.2l9.1-.5 9.2.6 9.1.7 9.2.8 9.1.7 9.2-.3 9.1.2 9.2.6 9.1 3.2 9.2 1.1v1.1l-9.2-.9-9.1-3-9.2-.5-9.1-.3-9.2.3-9.1-.7-9.2-.7-9.1-.5-9.2-.7-9.1.5h-9.2l-9.1-.6-9.2.2-9.1-.4-9.2-1-9.1-.7-9.2-1.5-9.1-.2-9.2-.9-9.1-1-9.2-.7-9.1-1.3-9.2-1.6-9.1-1.7-9.2-1.5-9.1-2.1-9.2-3.5-9.1-3.3-9.2-4.2-9.1-3.8-9.2-2.2-9.1-3.1-9.2-2.9-9.1-1.8-9.2 1.2-9.1-1.3-9.2-1.2-9.1-.2-9.2-1.3-9.1-1.9-9.2-1.4" class="Non-Hodgkin-lymphoma-area"/><path fill="#B13507" fill-opacity=".8" stroke-linecap="round" d="m41.8 290 9.2 1.7 9.1 2.2 9.2 1.4 9.1-.1 9.2.9 9.1 1.5 9.2-1.3 9.1 1.9 9.2 3.5 9.1 3.7 9.2 2.5 9.1 4.3 9.2 5 9.1 3.8 9.2 4 9.1 2.6 9.2 1.6 9.1 2.2 9.2 1.9 9.1 1.6 9.2.9 9.1 1.2 9.2 1 9.1.3 9.2 1.6 9.1.8 9.2 1.1 9.1.4 9.2-.1 9.1.6h9.2l9.1-.6 9.2.7 9.1.7 9.2.9 9.1.8 9.2-.4 9.1.3 9.2.7 9.1 3.3 9.2 1.1v1.2l-9.2-1.1-9.1-3.2-9.2-.6-9.1-.2-9.2.3-9.1-.7-9.2-.8-9.1-.7-9.2-.6-9.1.5h-9.2l-9.1-.6-9.2.1-9.1-.4-9.2-1.1-9.1-.7-9.2-1.6-9.1-.3-9.2-.9-9.1-1.2-9.2-.8-9.1-1.5-9.2-1.7-9.1-2-9.2-1.5-9.1-2.4-9.2-3.8-9.1-3.5-9.2-4.8-9.1-4.1-9.2-2.3-9.1-3.4-9.2-3.1-9.1-1.9-9.2 1.3-9.1-1.4-9.2-1.1h-9.1l-9.2-1.4-9.1-2-9.2-1.6" class="Liver-area"/><path fill="#B16214" fill-opacity=".8" stroke-linecap="round" d="m41.8 283.9 9.2 2 9.1 2.3 9.2 1.4 9.1-.2 9.2.9 9.1 1.7 9.2-1.5 9.1 2.2 9.2 3.7 9.1 3.9 9.2 2.6 9.1 4.7 9.2 5.3 9.1 4.1 9.2 4.3 9.1 2.8 9.2 1.7 9.1 2.3 9.2 2.1 9.1 1.7 9.2.9 9.1 1.4 9.2.9 9.1.5 9.2 1.7 9.1.7 9.2 1.1 9.1.4 9.2-.1 9.1.7h9.2l9.1-.7 9.2.8 9.1.8 9.2 1.1 9.1.9 9.2-.2 9.1.4 9.2.7 9.1 3.6 9.2 1.3v1.4l-9.2-1.1-9.1-3.3-9.2-.7-9.1-.3-9.2.4-9.1-.8-9.2-.9-9.1-.7-9.2-.7-9.1.6h-9.2l-9.1-.6-9.2.1-9.1-.4-9.2-1.1-9.1-.8-9.2-1.6-9.1-.3-9.2-1-9.1-1.2-9.2-.9-9.1-1.6-9.2-1.9-9.1-2.2-9.2-1.6-9.1-2.6-9.2-4-9.1-3.8-9.2-5-9.1-4.3-9.2-2.5-9.1-3.7-9.2-3.5-9.1-1.9-9.2 1.3-9.1-1.5-9.2-.9-9.1.1-9.2-1.4-9.1-2.2-9.2-1.7" class="Kidney-area"/><path fill="#970046" fill-opacity=".8" stroke-linecap="round" d="m41.8 282.8 9.2 2 9.1 2.3 9.2 1.5 9.1-.3 9.2.9 9.1 1.7 9.2-1.4 9.1 2.1 9.2 3.8 9.1 3.9 9.2 2.7 9.1 4.8 9.2 5.3 9.1 4.1 9.2 4.4 9.1 2.9 9.2 1.8 9.1 2.3 9.2 2 9.1 1.8 9.2.9 9.1 1.4 9.2 1 9.1.4 9.2 1.7 9.1.8 9.2 1.1 9.1.5 9.2-.2 9.1.8h9.2l9.1-.6 9.2.8 9.1.7 9.2 1.1 9.1.9 9.2-.2 9.1.4 9.2.8 9.1 3.6 9.2 1.3v.2l-9.2-1.3-9.1-3.6-9.2-.7-9.1-.4-9.2.2-9.1-.9-9.2-1.1-9.1-.8-9.2-.8-9.1.7h-9.2l-9.1-.7-9.2.1-9.1-.4-9.2-1.1-9.1-.7-9.2-1.7-9.1-.5-9.2-.9-9.1-1.4-9.2-.9-9.1-1.7-9.2-2.1-9.1-2.3-9.2-1.7-9.1-2.8-9.2-4.3-9.1-4.1-9.2-5.3-9.1-4.7-9.2-2.6-9.1-3.9-9.2-3.7-9.1-2.2-9.2 1.5-9.1-1.7-9.2-.9-9.1.2-9.2-1.4-9.1-2.3-9.2-2" class="Eye-area"/><path fill="none" stroke="#405983" stroke-linecap="round" stroke-opacity=".7" stroke-width=".5" d="m41.8 326.6 9.2 1 9.1 1.2 9.2.9 9.1.3 9.2.8 9.1.6 9.2-.7 9.1 1.2 9.2 1.8 9.1 2.4 9.2 1.4 9.1 2.6 9.2 2.9 9.1 2.3 9.2 2.2 9.1 1.4 9.2.8 9.1 1 9.2.9 9.1 1.1 9.2.5 9.1.6 9.2.5 9.1.2 9.2.9 9.1.6 9.2.7 9.1.2h9.2l9.1.4 9.2.1 9.1-.2 9.2.4 9.1.2 9.2.4 9.1.4 9.2-.1 9.1.1 9.2.3 9.1 1.4 9.2.5" class="Leukemia-border"/><path fill="none" stroke="#722830" stroke-linecap="round" stroke-opacity=".7" stroke-width=".5" d="m41.8 300.1 9.2 1.4 9.1 1.9 9.2 1.3 9.1.2 9.2 1.2 9.1 1.3 9.2-1.2 9.1 1.8 9.2 2.9 9.1 3.1 9.2 2.2 9.1 3.8 9.2 4.2 9.1 3.3 9.2 3.5 9.1 2.1 9.2 1.5 9.1 1.7 9.2 1.6 9.1 1.3 9.2.7 9.1 1 9.2.9 9.1.2 9.2 1.5 9.1.7 9.2 1 9.1.4 9.2-.2 9.1.6h9.2l9.1-.5 9.2.7 9.1.5 9.2.7 9.1.7 9.2-.3 9.1.3 9.2.5 9.1 3 9.2.9" class="Brain-and-central-nervous-system-border"/><path fill="none" stroke="#496C3A" stroke-linecap="round" stroke-opacity=".7" stroke-width=".5" d="m41.8 294.6 9.2 1.6 9.1 2 9.2 1.4h9.1l9.2 1.1 9.1 1.4 9.2-1.3 9.1 1.9 9.2 3.1 9.1 3.4 9.2 2.3 9.1 4.1 9.2 4.8 9.1 3.5 9.2 3.8 9.1 2.4 9.2 1.5 9.1 2 9.2 1.7 9.1 1.5 9.2.8 9.1 1.2 9.2.9 9.1.3 9.2 1.6 9.1.7 9.2 1.1 9.1.4 9.2-.1 9.1.6h9.2l9.1-.5 9.2.6 9.1.7 9.2.8 9.1.7 9.2-.3 9.1.2 9.2.6 9.1 3.2 9.2 1.1" class="Non-Hodgkin-lymphoma-border"/><path fill="none" stroke="#942C06" stroke-linecap="round" stroke-opacity=".7" stroke-width=".5" d="m41.8 290 9.2 1.7 9.1 2.2 9.2 1.4 9.1-.1 9.2.9 9.1 1.5 9.2-1.3 9.1 1.9 9.2 3.5 9.1 3.7 9.2 2.5 9.1 4.3 9.2 5 9.1 3.8 9.2 4 9.1 2.6 9.2 1.6 9.1 2.2 9.2 1.9 9.1 1.6 9.2.9 9.1 1.2 9.2 1 9.1.3 9.2 1.6 9.1.8 9.2 1.1 9.1.4 9.2-.1 9.1.6h9.2l9.1-.6 9.2.7 9.1.7 9.2.9 9.1.8 9.2-.4 9.1.3 9.2.7 9.1 3.3 9.2 1.1" class="Liver-border"/><path fill="none" stroke="#945211" stroke-linecap="round" stroke-opacity=".7" stroke-width=".5" d="m41.8 283.9 9.2 2 9.1 2.3 9.2 1.4 9.1-.2 9.2.9 9.1 1.7 9.2-1.5 9.1 2.2 9.2 3.7 9.1 3.9 9.2 2.6 9.1 4.7 9.2 5.3 9.1 4.1 9.2 4.3 9.1 2.8 9.2 1.7 9.1 2.3 9.2 2.1 9.1 1.7 9.2.9 9.1 1.4 9.2.9 9.1.5 9.2 1.7 9.1.7 9.2 1.1 9.1.4 9.2-.1 9.1.7h9.2l9.1-.7 9.2.8 9.1.8 9.2 1.1 9.1.9 9.2-.2 9.1.4 9.2.7 9.1 3.6 9.2 1.3" class="Kidney-border"/><path fill="none" stroke="#7E003B" stroke-linecap="round" stroke-opacity=".7" stroke-width=".5" d="m41.8 282.8 9.2 2 9.1 2.3 9.2 1.5 9.1-.3 9.2.9 9.1 1.7 9.2-1.4 9.1 2.1 9.2 3.8 9.1 3.9 9.2 2.7 9.1 4.8 9.2 5.3 9.1 4.1 9.2 4.4 9.1 2.9 9.2 1.8 9.1 2.3 9.2 2 9.1 1.8 9.2.9 9.1 1.4 9.2 1 9.1.4 9.2 1.7 9.1.8 9.2 1.1 9.1.5 9.2-.2 9.1.8h9.2l9.1-.6 9.2.8 9.1.7 9.2 1.1 9.1.9 9.2-.2 9.1.4 9.2.8 9.1 3.6 9.2 1.3" class="Eye-border"/></g></g></g><text x="457.84" y="269.47" fill="#1d3d63" font-size="14.63" style="font-weight:700">North America</text><g class="StackedArea"><defs><clipPath id="boundsClip-6"><path d="M457.84 276.78h401v218h-401z"/></clipPath></defs><path fill="none" d="M432 276.78h401v109H432z"/><g class="DualAxisView"><g class="HorizontalAxis"><g><path stroke="#999" stroke-width="1" d="M457.8 367.31v5.5"/><text x="457.84" y="383.78" fill="#5b5b5b" font-size="10.97" text-anchor="start">1980</text></g><g><path stroke="#999" stroke-width="1" d="M833 367.31v5.5"/><text x="833" y="383.78" fill="#5b5b5b" font-size="10.97" text-anchor="end">2021</text></g><g><path stroke="#999" stroke-width="1" d="M503.6 367.31v5.5"/><text x="503.6" y="383.78" fill="#5b5b5b" font-size="10.97" text-anchor="middle">1985</text></g><g><path stroke="#999" stroke-width="1" d="M549.3 367.31v5.5"/><text x="549.3" y="383.78" fill="#5b5b5b" font-size="10.97" text-anchor="middle">1990</text></g><g><path stroke="#999" stroke-width="1" d="M595.1 367.31v5.5"/><text x="595.1" y="383.78" fill="#5b5b5b" font-size="10.97" text-anchor="middle">1995</text></g><g><path stroke="#999" stroke-width="1" d="M640.8 367.31v5.5"/><text x="640.8" y="383.78" fill="#5b5b5b" font-size="10.97" text-anchor="middle">2000</text></g><g><path stroke="#999" stroke-width="1" d="M686.6 367.31v5.5"/><text x="686.6" y="383.78" fill="#5b5b5b" font-size="10.97" text-anchor="middle">2005</text></g><g><path stroke="#999" stroke-width="1" d="M732.3 367.31v5.5"/><text x="732.3" y="383.78" fill="#5b5b5b" font-size="10.97" text-anchor="middle">2010</text></g><g><path stroke="#999" stroke-width="1" d="M778.1 367.31v5.5"/><text x="778.1" y="383.78" fill="#5b5b5b" font-size="10.97" text-anchor="middle">2015</text></g></g><g class="VerticalAxis"><g><text x="452.84" y="367.8" fill="#5b5b5b" dy=".32em" font-size="10.97" text-anchor="end">0</text><text x="452.84" y="332.1" fill="#5b5b5b" dy=".32em" font-size="10.97" text-anchor="end">1k</text><text x="452.84" y="296.4" fill="#5b5b5b" dy=".32em" font-size="10.97" text-anchor="end">2k</text></g></g><g class="AxisGridLines horizontalLines"><path stroke="#999" stroke-width="1" d="M457.84 367.8H833"/><path stroke="#ddd" stroke-dasharray="2,1" stroke-width="1" d="M457.84 332.1H833M457.84 296.4H833"/></g></g><g clip-path="url(#boundsClip-6)"><g class="Areas"><path fill="#4C6A9C" fill-opacity=".8" stroke-linecap="round" d="m457.8 317.4 9.2.7 9.1.1 9.2.6 9.1 1.5 9.2-.7 9.1.4 9.2.7 9.1.9 9.2 1.1 9.1-.1 9.2-.3h9.1l9.2 1.2 9.1 1.1 9.2 1.5 9.1 1 9.2.7 9.1 1.1h9.2l9.1-.9 9.2.8 9.1 2.2 9.2.4 9.1 1.5 9.2.5 9.1.8 9.2 1.2 9.1.7 9.2.4 9.1.5 9.2.7 9.1.7 9.2 1.4 9.1.4 9.2.5 9.1 1.9 9.2.7 9.1 1.1 9.2.7 9.1 3.7 9.2.9v18.11H457.8" class="Leukemia-area"/><path fill="#883039" fill-opacity=".8" stroke-linecap="round" d="m457.8 302.9 9.2.4 9.1.2 9.2.6 9.1 1.3 9.2-1.1 9.1.5 9.2.7 9.1.8 9.2.6 9.1-.7 9.2-.5 9.1.1 9.2 1.1 9.1 1.8 9.2 2 9.1 1 9.2.6 9.1 1.5 9.2-.1 9.1-1 9.2 1 9.1 2.2 9.2.6 9.1 1.8 9.2.7 9.1 1 9.2 1.1 9.1 1 9.2 1.1 9.1.4 9.2.7 9.1 1 9.2 1.6 9.1.8 9.2.6 9.1 2.2 9.2 1.3 9.1 1.6 9.2.9 9.1 5.1 9.2 1.4v8.9l-9.2-.9-9.1-3.7-9.2-.7-9.1-1.1-9.2-.7-9.1-1.9-9.2-.5-9.1-.4-9.2-1.4-9.1-.7-9.2-.7-9.1-.5-9.2-.4-9.1-.7-9.2-1.2-9.1-.8-9.2-.5-9.1-1.5-9.2-.4-9.1-2.2-9.2-.8-9.1.9h-9.2l-9.1-1.1-9.2-.7-9.1-1-9.2-1.5-9.1-1.1-9.2-1.2h-9.1l-9.2.3-9.1.1-9.2-1.1-9.1-.9-9.2-.7-9.1-.4-9.2.7-9.1-1.5-9.2-.6-9.1-.1-9.2-.7" class="Brain-and-central-nervous-system-area"/><path fill="#578145" fill-opacity=".8" stroke-linecap="round" d="m457.8 294.6 9.2.8 9.1.3 9.2.8 9.1 1.7 9.2-1.1 9.1.5 9.2.8 9.1.9 9.2.9 9.1-.6 9.2-.3 9.1.3 9.2 1.2 9.1 2.2 9.2 2 9.1 1.3 9.2.7 9.1 1.9h9.2l9.1-.9 9.2 1.1 9.1 2.3 9.2.8 9.1 2 9.2.7 9.1 1.2 9.2 1.2 9.1 1.1 9.2 1.2 9.1.5 9.2.7 9.1 1.1 9.2 1.6 9.1.8 9.2.7 9.1 2.4 9.2 1.3 9.1 1.8 9.2 1 9.1 5.5 9.2 1.5v2.3l-9.2-1.4-9.1-5.1-9.2-.9-9.1-1.6-9.2-1.3-9.1-2.2-9.2-.6-9.1-.8-9.2-1.6-9.1-1-9.2-.7-9.1-.4-9.2-1.1-9.1-1-9.2-1.1-9.1-1-9.2-.7-9.1-1.8-9.2-.6-9.1-2.2-9.2-1-9.1 1-9.2.1-9.1-1.5-9.2-.6-9.1-1-9.2-2-9.1-1.8-9.2-1.1-9.1-.1-9.2.5-9.1.7-9.2-.6-9.1-.8-9.2-.7-9.1-.5-9.2 1.1-9.1-1.3-9.2-.6-9.1-.2-9.2-.4" class="Non-Hodgkin-lymphoma-area"/><path fill="#B13507" fill-opacity=".8" stroke-linecap="round" d="m457.8 290.7 9.2.8 9.1.2 9.2.8 9.1 1.7 9.2-1.2 9.1.5 9.2 1 9.1.8 9.2.8 9.1-.6h9.2l9.1.3 9.2 1.4 9.1 2.2 9.2 2.1 9.1 1.3 9.2.7 9.1 2h9.2l9.1-.9 9.2 1.1 9.1 2.3 9.2.8 9.1 2.1 9.2.8 9.1 1.2 9.2 1.3 9.1 1.1 9.2 1.2 9.1.6 9.2.7 9.1 1.1 9.2 1.6 9.1.9 9.2.7 9.1 2.4 9.2 1.4 9.1 1.9 9.2 1.1 9.1 5.6 9.2 1.6v2.4l-9.2-1.5-9.1-5.5-9.2-1-9.1-1.8-9.2-1.3-9.1-2.4-9.2-.7-9.1-.8-9.2-1.6-9.1-1.1-9.2-.7-9.1-.5-9.2-1.2-9.1-1.1-9.2-1.2-9.1-1.2-9.2-.7-9.1-2-9.2-.8-9.1-2.3-9.2-1.1-9.1.9h-9.2l-9.1-1.9-9.2-.7-9.1-1.3-9.2-2-9.1-2.2-9.2-1.2-9.1-.3-9.2.3-9.1.6-9.2-.9-9.1-.9-9.2-.8-9.1-.5-9.2 1.1-9.1-1.7-9.2-.8-9.1-.3-9.2-.8" class="Liver-area"/><path fill="#B16214" fill-opacity=".8" stroke-linecap="round" d="m457.8 285.3 9.2.6 9.1.3 9.2.9 9.1 1.8 9.2-1.3 9.1.4 9.2.9 9.1.9 9.2 1 9.1-.6 9.2.1 9.1.4 9.2 1.7 9.1 2.2 9.2 2.1 9.1 1.5 9.2.8 9.1 2.2h9.2l9.1-.7 9.2 1.2 9.1 2.4 9.2.8 9.1 2.3 9.2.8 9.1 1.2 9.2 1.3 9.1 1.3 9.2 1.4 9.1.6 9.2.7 9.1 1.2 9.2 1.7 9.1 1 9.2.8 9.1 2.4 9.2 1.5 9.1 2 9.2 1.1 9.1 6.2 9.2 1.6v2.1l-9.2-1.6-9.1-5.6-9.2-1.1-9.1-1.9-9.2-1.4-9.1-2.4-9.2-.7-9.1-.9-9.2-1.6-9.1-1.1-9.2-.7-9.1-.6-9.2-1.2-9.1-1.1-9.2-1.3-9.1-1.2-9.2-.8-9.1-2.1-9.2-.8-9.1-2.3-9.2-1.1-9.1.9h-9.2l-9.1-2-9.2-.7-9.1-1.3-9.2-2.1-9.1-2.2-9.2-1.4-9.1-.3h-9.2l-9.1.6-9.2-.8-9.1-.8-9.2-1-9.1-.5-9.2 1.2-9.1-1.7-9.2-.8-9.1-.2-9.2-.8" class="Kidney-area"/><path fill="#970046" fill-opacity=".8" stroke-linecap="round" d="m457.8 282.8 9.2.6 9.1.3 9.2 1 9.1 1.9 9.2-1.5 9.1.4 9.2 1 9.1.8 9.2 1 9.1-.7h9.2l9.1.4 9.2 1.7 9.1 2.3 9.2 2 9.1 1.6 9.2.8 9.1 2.1h9.2l9.1-.6 9.2 1.3 9.1 2.6 9.2.9 9.1 2.3 9.2.9 9.1 1.3 9.2 1.4 9.1 1.4 9.2 1.4 9.1.7 9.2.7 9.1 1.3 9.2 1.8 9.1 1 9.2.8 9.1 2.5 9.2 1.5 9.1 2.1 9.2 1.1 9.1 6.5 9.2 1.7v.9l-9.2-1.6-9.1-6.2-9.2-1.1-9.1-2-9.2-1.5-9.1-2.4-9.2-.8-9.1-1-9.2-1.7-9.1-1.2-9.2-.7-9.1-.6-9.2-1.4-9.1-1.3-9.2-1.3-9.1-1.2-9.2-.8-9.1-2.3-9.2-.8-9.1-2.4-9.2-1.2-9.1.7h-9.2l-9.1-2.2-9.2-.8-9.1-1.5-9.2-2.1-9.1-2.2-9.2-1.7-9.1-.4-9.2-.1-9.1.6-9.2-1-9.1-.9-9.2-.9-9.1-.4-9.2 1.3-9.1-1.8-9.2-.9-9.1-.3-9.2-.6" class="Eye-area"/><path fill="none" stroke="#405983" stroke-linecap="round" stroke-opacity=".7" stroke-width=".5" d="m457.8 317.4 9.2.7 9.1.1 9.2.6 9.1 1.5 9.2-.7 9.1.4 9.2.7 9.1.9 9.2 1.1 9.1-.1 9.2-.3h9.1l9.2 1.2 9.1 1.1 9.2 1.5 9.1 1 9.2.7 9.1 1.1h9.2l9.1-.9 9.2.8 9.1 2.2 9.2.4 9.1 1.5 9.2.5 9.1.8 9.2 1.2 9.1.7 9.2.4 9.1.5 9.2.7 9.1.7 9.2 1.4 9.1.4 9.2.5 9.1 1.9 9.2.7 9.1 1.1 9.2.7 9.1 3.7 9.2.9" class="Leukemia-border"/><path fill="none" stroke="#722830" stroke-linecap="round" stroke-opacity=".7" stroke-width=".5" d="m457.8 302.9 9.2.4 9.1.2 9.2.6 9.1 1.3 9.2-1.1 9.1.5 9.2.7 9.1.8 9.2.6 9.1-.7 9.2-.5 9.1.1 9.2 1.1 9.1 1.8 9.2 2 9.1 1 9.2.6 9.1 1.5 9.2-.1 9.1-1 9.2 1 9.1 2.2 9.2.6 9.1 1.8 9.2.7 9.1 1 9.2 1.1 9.1 1 9.2 1.1 9.1.4 9.2.7 9.1 1 9.2 1.6 9.1.8 9.2.6 9.1 2.2 9.2 1.3 9.1 1.6 9.2.9 9.1 5.1 9.2 1.4" class="Brain-and-central-nervous-system-border"/><path fill="none" stroke="#496C3A" stroke-linecap="round" stroke-opacity=".7" stroke-width=".5" d="m457.8 294.6 9.2.8 9.1.3 9.2.8 9.1 1.7 9.2-1.1 9.1.5 9.2.8 9.1.9 9.2.9 9.1-.6 9.2-.3 9.1.3 9.2 1.2 9.1 2.2 9.2 2 9.1 1.3 9.2.7 9.1 1.9h9.2l9.1-.9 9.2 1.1 9.1 2.3 9.2.8 9.1 2 9.2.7 9.1 1.2 9.2 1.2 9.1 1.1 9.2 1.2 9.1.5 9.2.7 9.1 1.1 9.2 1.6 9.1.8 9.2.7 9.1 2.4 9.2 1.3 9.1 1.8 9.2 1 9.1 5.5 9.2 1.5" class="Non-Hodgkin-lymphoma-border"/><path fill="none" stroke="#942C06" stroke-linecap="round" stroke-opacity=".7" stroke-width=".5" d="m457.8 290.7 9.2.8 9.1.2 9.2.8 9.1 1.7 9.2-1.2 9.1.5 9.2 1 9.1.8 9.2.8 9.1-.6h9.2l9.1.3 9.2 1.4 9.1 2.2 9.2 2.1 9.1 1.3 9.2.7 9.1 2h9.2l9.1-.9 9.2 1.1 9.1 2.3 9.2.8 9.1 2.1 9.2.8 9.1 1.2 9.2 1.3 9.1 1.1 9.2 1.2 9.1.6 9.2.7 9.1 1.1 9.2 1.6 9.1.9 9.2.7 9.1 2.4 9.2 1.4 9.1 1.9 9.2 1.1 9.1 5.6 9.2 1.6" class="Liver-border"/><path fill="none" stroke="#945211" stroke-linecap="round" stroke-opacity=".7" stroke-width=".5" d="m457.8 285.3 9.2.6 9.1.3 9.2.9 9.1 1.8 9.2-1.3 9.1.4 9.2.9 9.1.9 9.2 1 9.1-.6 9.2.1 9.1.4 9.2 1.7 9.1 2.2 9.2 2.1 9.1 1.5 9.2.8 9.1 2.2h9.2l9.1-.7 9.2 1.2 9.1 2.4 9.2.8 9.1 2.3 9.2.8 9.1 1.2 9.2 1.3 9.1 1.3 9.2 1.4 9.1.6 9.2.7 9.1 1.2 9.2 1.7 9.1 1 9.2.8 9.1 2.4 9.2 1.5 9.1 2 9.2 1.1 9.1 6.2 9.2 1.6" class="Kidney-border"/><path fill="none" stroke="#7E003B" stroke-linecap="round" stroke-opacity=".7" stroke-width=".5" d="m457.8 282.8 9.2.6 9.1.3 9.2 1 9.1 1.9 9.2-1.5 9.1.4 9.2 1 9.1.8 9.2 1 9.1-.7h9.2l9.1.4 9.2 1.7 9.1 2.3 9.2 2 9.1 1.6 9.2.8 9.1 2.1h9.2l9.1-.6 9.2 1.3 9.1 2.6 9.2.9 9.1 2.3 9.2.9 9.1 1.3 9.2 1.4 9.1 1.4 9.2 1.4 9.1.7 9.2.7 9.1 1.3 9.2 1.8 9.1 1 9.2.8 9.1 2.5 9.2 1.5 9.1 2.1 9.2 1.1 9.1 6.5 9.2 1.7" class="Eye-border"/></g></g></g><text x="41.84" y="415.47" fill="#1d3d63" font-size="14.63" style="font-weight:700">South America</text><g class="StackedArea"><defs><clipPath id="boundsClip-7"><path d="M41.84 422.78h401v218h-401z"/></clipPath></defs><path fill="none" d="M16 422.78h401v109H16z"/><g class="DualAxisView"><g class="HorizontalAxis"><g><path stroke="#999" stroke-width="1" d="M41.8 513.31v5.5"/><text x="41.84" y="529.78" fill="#5b5b5b" font-size="10.97" text-anchor="start">1980</text></g><g><path stroke="#999" stroke-width="1" d="M417 513.31v5.5"/><text x="417" y="529.78" fill="#5b5b5b" font-size="10.97" text-anchor="end">2021</text></g><g><path stroke="#999" stroke-width="1" d="M87.6 513.31v5.5"/><text x="87.6" y="529.78" fill="#5b5b5b" font-size="10.97" text-anchor="middle">1985</text></g><g><path stroke="#999" stroke-width="1" d="M133.3 513.31v5.5"/><text x="133.3" y="529.78" fill="#5b5b5b" font-size="10.97" text-anchor="middle">1990</text></g><g><path stroke="#999" stroke-width="1" d="M179.1 513.31v5.5"/><text x="179.1" y="529.78" fill="#5b5b5b" font-size="10.97" text-anchor="middle">1995</text></g><g><path stroke="#999" stroke-width="1" d="M224.8 513.31v5.5"/><text x="224.8" y="529.78" fill="#5b5b5b" font-size="10.97" text-anchor="middle">2000</text></g><g><path stroke="#999" stroke-width="1" d="M270.6 513.31v5.5"/><text x="270.6" y="529.78" fill="#5b5b5b" font-size="10.97" text-anchor="middle">2005</text></g><g><path stroke="#999" stroke-width="1" d="M316.3 513.31v5.5"/><text x="316.3" y="529.78" fill="#5b5b5b" font-size="10.97" text-anchor="middle">2010</text></g><g><path stroke="#999" stroke-width="1" d="M362.1 513.31v5.5"/><text x="362.1" y="529.78" fill="#5b5b5b" font-size="10.97" text-anchor="middle">2015</text></g></g><g class="VerticalAxis"><g><text x="36.84" y="513.8" fill="#5b5b5b" dy=".32em" font-size="10.97" text-anchor="end">0</text><text x="36.84" y="481.7" fill="#5b5b5b" dy=".32em" font-size="10.97" text-anchor="end">1k</text><text x="36.84" y="449.6" fill="#5b5b5b" dy=".32em" font-size="10.97" text-anchor="end">2k</text></g></g><g class="AxisGridLines horizontalLines"><path stroke="#999" stroke-width="1" d="M41.84 513.8H417"/><path stroke="#ddd" stroke-dasharray="2,1" stroke-width="1" d="M41.84 481.7H417M41.84 449.6H417"/></g></g><g clip-path="url(#boundsClip-7)"><g class="Areas"><path fill="#4C6A9C" fill-opacity=".8" stroke-linecap="round" d="m41.8 467.4 9.2-.1 9.1.2 9.2.5 9.1 1 9.2 1.1 9.1 1.3 9.2 2 9.1 2 9.2.3 9.1.2 9.2.3 9.1.4 9.2.7 9.1.3 9.2 1.3 9.1-.1 9.2.4 9.1.5 9.2-.2 9.1.2 9.2.8 9.1.7h9.2l9.1.4 9.2.9 9.1 1.6 9.2.5 9.1-.2 9.2 1.1 9.1 1 9.2.5 9.1-.1 9.2.9 9.1.8 9.2.7 9.1.6 9.2.6 9.1.7 9.2 1.4 9.1 4.1 9.2 2.2v14.91H41.8" class="Leukemia-area"/><path fill="#883039" fill-opacity=".8" stroke-linecap="round" d="m41.8 451.7 9.2-.1 9.1.1 9.2.4 9.1.9 9.2 1.2 9.1 1.5 9.2 2.1 9.1 1.7 9.2-.2 9.1.1 9.2.3 9.1.7 9.2.7 9.1.4 9.2 1.4 9.1-.3 9.2-.5 9.1.2 9.2-.5 9.1-.8 9.2.6 9.1.9h9.2l9.1.5 9.2 1.1 9.1 2.3 9.2.7 9.1.1 9.2 1.3 9.1 1.2 9.2.1 9.1.1 9.2 1.4 9.1 1.4 9.2 1.2 9.1 1.2 9.2.9 9.1 1.6 9.2 2 9.1 6.3 9.2 3.2v9.8l-9.2-2.2-9.1-4.1-9.2-1.4-9.1-.7-9.2-.6-9.1-.6-9.2-.7-9.1-.8-9.2-.9-9.1.1-9.2-.5-9.1-1-9.2-1.1-9.1.2-9.2-.5-9.1-1.6-9.2-.9-9.1-.4h-9.2l-9.1-.7-9.2-.8-9.1-.2-9.2.2-9.1-.5-9.2-.4-9.1.1-9.2-1.3-9.1-.3-9.2-.7-9.1-.4-9.2-.3-9.1-.2-9.2-.3-9.1-2-9.2-2-9.1-1.3-9.2-1.1-9.1-1-9.2-.5-9.1-.2-9.2.1" class="Brain-and-central-nervous-system-area"/><path fill="#578145" fill-opacity=".8" stroke-linecap="round" d="m41.8 443.6 9.2-.3h9.1l9.2.4 9.1 1.2 9.2 1.3 9.1 1.8 9.2 2.4 9.1 2.1h9.2l9.1.1 9.2.5 9.1.8 9.2.9 9.1.5 9.2 1.6 9.1-.1 9.2-.5 9.1.2 9.2-.4 9.1-.7 9.2.8 9.1.9 9.2.3 9.1.6 9.2 1.3 9.1 2.3 9.2 1 9.1.2 9.2 1.5 9.1 1.5 9.2.3 9.1.2 9.2 1.5 9.1 1.6 9.2 1.3 9.1 1.3 9.2.9 9.1 1.8 9.2 2.3 9.1 6.8 9.2 3.5v1.8l-9.2-3.2-9.1-6.3-9.2-2-9.1-1.6-9.2-.9-9.1-1.2-9.2-1.2-9.1-1.4-9.2-1.4-9.1-.1-9.2-.1-9.1-1.2-9.2-1.3-9.1-.1-9.2-.7-9.1-2.3-9.2-1.1-9.1-.5h-9.2l-9.1-.9-9.2-.6-9.1.8-9.2.5-9.1-.2-9.2.5-9.1.3-9.2-1.4-9.1-.4-9.2-.7-9.1-.7-9.2-.3-9.1-.1-9.2.2-9.1-1.7-9.2-2.1-9.1-1.5-9.2-1.2-9.1-.9-9.2-.4-9.1-.1-9.2.1" class="Non-Hodgkin-lymphoma-area"/><path fill="#B13507" fill-opacity=".8" stroke-linecap="round" d="m41.8 439.8 9.2-.3 9.1.3 9.2.5 9.1 1.3 9.2 1.4 9.1 1.8 9.2 2.6 9.1 2.2h9.2l9.1.2 9.2.6 9.1.8 9.2.9 9.1.6 9.2 1.7h9.1l9.2-.4 9.1.4 9.2-.3 9.1-.7 9.2.8 9.1.9 9.2.2 9.1.7 9.2 1.4 9.1 2.4 9.2 1 9.1.3 9.2 1.5 9.1 1.5 9.2.3 9.1.2 9.2 1.6 9.1 1.7 9.2 1.3 9.1 1.2 9.2 1 9.1 1.9 9.2 2.3 9.1 6.9 9.2 3.5v1.3l-9.2-3.5-9.1-6.8-9.2-2.3-9.1-1.8-9.2-.9-9.1-1.3-9.2-1.3-9.1-1.6-9.2-1.5-9.1-.2-9.2-.3-9.1-1.5-9.2-1.5-9.1-.2-9.2-1-9.1-2.3-9.2-1.3-9.1-.6-9.2-.3-9.1-.9-9.2-.8-9.1.7-9.2.4-9.1-.2-9.2.5-9.1.1-9.2-1.6-9.1-.5-9.2-.9-9.1-.8-9.2-.5-9.1-.1H115l-9.1-2.1-9.2-2.4-9.1-1.8-9.2-1.3-9.1-1.2-9.2-.4H51l-9.2.3" class="Liver-area"/><path fill="#B16214" fill-opacity=".8" stroke-linecap="round" d="m41.8 433.1 9.2-.4 9.1.4 9.2.7 9.1 1.3 9.2 1.6 9.1 2 9.2 2.9 9.1 2.4 9.2.2 9.1.3 9.2.6 9.1.9 9.2 1.1 9.1.6 9.2 1.9 9.1.1 9.2-.4 9.1.6 9.2-.2 9.1-.8 9.2.8 9.1.8 9.2.2 9.1.9 9.2 1.6 9.1 2.4 9.2 1 9.1.4 9.2 1.7 9.1 1.7 9.2.4 9.1.2 9.2 1.7 9.1 1.8 9.2 1.3 9.1 1.3 9.2 1.1 9.1 2 9.2 2.6 9.1 7.4 9.2 3.8v2l-9.2-3.5-9.1-6.9-9.2-2.3-9.1-1.9-9.2-1-9.1-1.2-9.2-1.3-9.1-1.7-9.2-1.6-9.1-.2-9.2-.3-9.1-1.5-9.2-1.5-9.1-.3-9.2-1-9.1-2.4-9.2-1.4-9.1-.7-9.2-.2-9.1-.9-9.2-.8-9.1.7-9.2.3-9.1-.4-9.2.4h-9.1l-9.2-1.7-9.1-.6-9.2-.9-9.1-.8-9.2-.6-9.1-.2H115l-9.1-2.2-9.2-2.6-9.1-1.8-9.2-1.4-9.1-1.3-9.2-.5-9.1-.3-9.2.3" class="Kidney-area"/><path fill="#970046" fill-opacity=".8" stroke-linecap="round" d="m41.8 429.3 9.2-.5 9.1.2 9.2.7 9.1 1.3 9.2 1.7 9.1 2 9.2 3 9.1 2.5 9.2.3 9.1.4 9.2.6 9.1.9 9.2 1.1 9.1.8 9.2 1.9 9.1.2 9.2-.4 9.1.6 9.2-.2 9.1-.7 9.2.8 9.1.9 9.2.3 9.1.9 9.2 1.6 9.1 2.5 9.2 1.1 9.1.5 9.2 1.8 9.1 1.6 9.2.5 9.1.2 9.2 1.8 9.1 1.8 9.2 1.5 9.1 1.3 9.2 1.2 9.1 2.1 9.2 2.7 9.1 7.9 9.2 3.9v1.4l-9.2-3.8-9.1-7.4-9.2-2.6-9.1-2-9.2-1.1-9.1-1.3-9.2-1.3-9.1-1.8-9.2-1.7-9.1-.2-9.2-.4-9.1-1.7-9.2-1.7-9.1-.4-9.2-1-9.1-2.4-9.2-1.6-9.1-.9-9.2-.2-9.1-.8-9.2-.8-9.1.8-9.2.2-9.1-.6-9.2.4-9.1-.1-9.2-1.9-9.1-.6-9.2-1.1-9.1-.9-9.2-.6-9.1-.3-9.2-.2-9.1-2.4-9.2-2.9-9.1-2-9.2-1.6-9.1-1.3-9.2-.7-9.1-.4-9.2.4" class="Eye-area"/><path fill="none" stroke="#405983" stroke-linecap="round" stroke-opacity=".7" stroke-width=".5" d="m41.8 467.4 9.2-.1 9.1.2 9.2.5 9.1 1 9.2 1.1 9.1 1.3 9.2 2 9.1 2 9.2.3 9.1.2 9.2.3 9.1.4 9.2.7 9.1.3 9.2 1.3 9.1-.1 9.2.4 9.1.5 9.2-.2 9.1.2 9.2.8 9.1.7h9.2l9.1.4 9.2.9 9.1 1.6 9.2.5 9.1-.2 9.2 1.1 9.1 1 9.2.5 9.1-.1 9.2.9 9.1.8 9.2.7 9.1.6 9.2.6 9.1.7 9.2 1.4 9.1 4.1 9.2 2.2" class="Leukemia-border"/><path fill="none" stroke="#722830" stroke-linecap="round" stroke-opacity=".7" stroke-width=".5" d="m41.8 451.7 9.2-.1 9.1.1 9.2.4 9.1.9 9.2 1.2 9.1 1.5 9.2 2.1 9.1 1.7 9.2-.2 9.1.1 9.2.3 9.1.7 9.2.7 9.1.4 9.2 1.4 9.1-.3 9.2-.5 9.1.2 9.2-.5 9.1-.8 9.2.6 9.1.9h9.2l9.1.5 9.2 1.1 9.1 2.3 9.2.7 9.1.1 9.2 1.3 9.1 1.2 9.2.1 9.1.1 9.2 1.4 9.1 1.4 9.2 1.2 9.1 1.2 9.2.9 9.1 1.6 9.2 2 9.1 6.3 9.2 3.2" class="Brain-and-central-nervous-system-border"/><path fill="none" stroke="#496C3A" stroke-linecap="round" stroke-opacity=".7" stroke-width=".5" d="m41.8 443.6 9.2-.3h9.1l9.2.4 9.1 1.2 9.2 1.3 9.1 1.8 9.2 2.4 9.1 2.1h9.2l9.1.1 9.2.5 9.1.8 9.2.9 9.1.5 9.2 1.6 9.1-.1 9.2-.5 9.1.2 9.2-.4 9.1-.7 9.2.8 9.1.9 9.2.3 9.1.6 9.2 1.3 9.1 2.3 9.2 1 9.1.2 9.2 1.5 9.1 1.5 9.2.3 9.1.2 9.2 1.5 9.1 1.6 9.2 1.3 9.1 1.3 9.2.9 9.1 1.8 9.2 2.3 9.1 6.8 9.2 3.5" class="Non-Hodgkin-lymphoma-border"/><path fill="none" stroke="#942C06" stroke-linecap="round" stroke-opacity=".7" stroke-width=".5" d="m41.8 439.8 9.2-.3 9.1.3 9.2.5 9.1 1.3 9.2 1.4 9.1 1.8 9.2 2.6 9.1 2.2h9.2l9.1.2 9.2.6 9.1.8 9.2.9 9.1.6 9.2 1.7h9.1l9.2-.4 9.1.4 9.2-.3 9.1-.7 9.2.8 9.1.9 9.2.2 9.1.7 9.2 1.4 9.1 2.4 9.2 1 9.1.3 9.2 1.5 9.1 1.5 9.2.3 9.1.2 9.2 1.6 9.1 1.7 9.2 1.3 9.1 1.2 9.2 1 9.1 1.9 9.2 2.3 9.1 6.9 9.2 3.5" class="Liver-border"/><path fill="none" stroke="#945211" stroke-linecap="round" stroke-opacity=".7" stroke-width=".5" d="m41.8 433.1 9.2-.4 9.1.4 9.2.7 9.1 1.3 9.2 1.6 9.1 2 9.2 2.9 9.1 2.4 9.2.2 9.1.3 9.2.6 9.1.9 9.2 1.1 9.1.6 9.2 1.9 9.1.1 9.2-.4 9.1.6 9.2-.2 9.1-.8 9.2.8 9.1.8 9.2.2 9.1.9 9.2 1.6 9.1 2.4 9.2 1 9.1.4 9.2 1.7 9.1 1.7 9.2.4 9.1.2 9.2 1.7 9.1 1.8 9.2 1.3 9.1 1.3 9.2 1.1 9.1 2 9.2 2.6 9.1 7.4 9.2 3.8" class="Kidney-border"/><path fill="none" stroke="#7E003B" stroke-linecap="round" stroke-opacity=".7" stroke-width=".5" d="m41.8 429.3 9.2-.5 9.1.2 9.2.7 9.1 1.3 9.2 1.7 9.1 2 9.2 3 9.1 2.5 9.2.3 9.1.4 9.2.6 9.1.9 9.2 1.1 9.1.8 9.2 1.9 9.1.2 9.2-.4 9.1.6 9.2-.2 9.1-.7 9.2.8 9.1.9 9.2.3 9.1.9 9.2 1.6 9.1 2.5 9.2 1.1 9.1.5 9.2 1.8 9.1 1.6 9.2.5 9.1.2 9.2 1.8 9.1 1.8 9.2 1.5 9.1 1.3 9.2 1.2 9.1 2.1 9.2 2.7 9.1 7.9 9.2 3.9" class="Eye-border"/></g></g></g><text x="457.84" y="415.47" fill="#1d3d63" font-size="14.63" style="font-weight:700">Oceania</text><g class="StackedArea"><defs><clipPath id="boundsClip-8"><path d="M457.84 422.78h401v218h-401z"/></clipPath></defs><path fill="none" d="M432 422.78h401v109H432z"/><g class="DualAxisView"><g class="HorizontalAxis"><g><path stroke="#999" stroke-width="1" d="M457.8 513.31v5.5"/><text x="457.84" y="529.78" fill="#5b5b5b" font-size="10.97" text-anchor="start">1980</text></g><g><path stroke="#999" stroke-width="1" d="M833 513.31v5.5"/><text x="833" y="529.78" fill="#5b5b5b" font-size="10.97" text-anchor="end">2021</text></g><g><path stroke="#999" stroke-width="1" d="M503.6 513.31v5.5"/><text x="503.6" y="529.78" fill="#5b5b5b" font-size="10.97" text-anchor="middle">1985</text></g><g><path stroke="#999" stroke-width="1" d="M549.3 513.31v5.5"/><text x="549.3" y="529.78" fill="#5b5b5b" font-size="10.97" text-anchor="middle">1990</text></g><g><path stroke="#999" stroke-width="1" d="M595.1 513.31v5.5"/><text x="595.1" y="529.78" fill="#5b5b5b" font-size="10.97" text-anchor="middle">1995</text></g><g><path stroke="#999" stroke-width="1" d="M640.8 513.31v5.5"/><text x="640.8" y="529.78" fill="#5b5b5b" font-size="10.97" text-anchor="middle">2000</text></g><g><path stroke="#999" stroke-width="1" d="M686.6 513.31v5.5"/><text x="686.6" y="529.78" fill="#5b5b5b" font-size="10.97" text-anchor="middle">2005</text></g><g><path stroke="#999" stroke-width="1" d="M732.3 513.31v5.5"/><text x="732.3" y="529.78" fill="#5b5b5b" font-size="10.97" text-anchor="middle">2010</text></g><g><path stroke="#999" stroke-width="1" d="M778.1 513.31v5.5"/><text x="778.1" y="529.78" fill="#5b5b5b" font-size="10.97" text-anchor="middle">2015</text></g></g><g class="VerticalAxis"><g><text x="452.84" y="513.8" fill="#5b5b5b" dy=".32em" font-size="10.97" text-anchor="end">0</text><text id="tick-label__20" x="452.84" y="494.3" fill="#5b5b5b" dy=".32em" font-size="10.97" text-anchor="end">20</text><text id="tick-label__40" x="452.84" y="474.9" fill="#5b5b5b" dy=".32em" font-size="10.97" text-anchor="end">40</text><text id="tick-label__60" x="452.84" y="455.4" fill="#5b5b5b" dy=".32em" font-size="10.97" text-anchor="end">60</text><text id="tick-label__80" x="452.84" y="435.9" fill="#5b5b5b" dy=".32em" font-size="10.97" text-anchor="end">80</text></g></g><g class="AxisGridLines horizontalLines"><path stroke="#999" stroke-width="1" d="M457.84 513.8H833"/><path id="grid-line__20" stroke="#ddd" stroke-dasharray="2,1" stroke-width="1" d="M457.84 494.3H833"/><path id="grid-line__40" stroke="#ddd" stroke-dasharray="2,1" stroke-width="1" d="M457.84 474.9H833"/><path id="grid-line__60" stroke="#ddd" stroke-dasharray="2,1" stroke-width="1" d="M457.84 455.4H833"/><path id="grid-line__80" stroke="#ddd" stroke-dasharray="2,1" stroke-width="1" d="M457.84 435.9H833"/></g></g><g clip-path="url(#boundsClip-8)"><g class="Areas"><path fill="#4C6A9C" fill-opacity=".8" stroke-linecap="round" d="M457.8 477.9h9.2l9.1.3 9.2-.1 9.1.1 9.2-.4 9.1.5 9.2.2 9.1-.1 9.2-1.6 9.1.1 9.2.8 9.1-.7 9.2-.2 9.1-.1 9.2.6 9.1.2 9.2.3 9.1-2.1 9.2-.9 9.1-.4 9.2-.2 9.1.2 9.2.2 9.1-.8 9.2-2.2 9.1-1.2 9.2-.7 9.1-.3h9.2l9.1-.7 9.2.7h9.1l9.2-.1 9.1.7h9.2l9.1-.1 9.2-.7 9.1.1 9.2-.9h9.1l9.2 2.4v43.01H457.8" class="Leukemia-area"/><path fill="#883039" fill-opacity=".8" stroke-linecap="round" d="m457.8 459.2 9.2-.5 9.1.7 9.2-.7 9.1-.2 9.2-.2 9.1 1.3 9.2.6h9.1l9.2-2 9.1-.7 9.2 1.6 9.1-1.1 9.2-.3 9.1.1 9.2 1.1 9.1.1 9.2.5 9.1-1.9 9.2-1 9.1-.3 9.2-.2 9.1.7 9.2.7 9.1-1 9.2-2.4 9.1-1.4 9.2-.7 9.1-.6 9.2-.4 9.1-.9 9.2 1.4 9.1.3 9.2-.5 9.1 1.1h9.2l9.1-.7 9.2-.3 9.1.5 9.2-1.6 9.1 1 9.2 4.8v14.7l-9.2-2.4h-9.1l-9.2.9-9.1-.1-9.2.7-9.1.1h-9.2l-9.1-.7-9.2.1h-9.1l-9.2-.7-9.1.7H714l-9.1.3-9.2.7-9.1 1.2-9.2 2.2-9.1.8-9.2-.2-9.1-.2-9.2.2-9.1.4-9.2.9-9.1 2.1-9.2-.3-9.1-.2-9.2-.6-9.1.1-9.2.2-9.1.7-9.2-.8-9.1-.1-9.2 1.6-9.1.1-9.2-.2-9.1-.5-9.2.4-9.1-.1-9.2.1-9.1-.3h-9.2" class="Brain-and-central-nervous-system-area"/><path fill="#578145" fill-opacity=".8" stroke-linecap="round" d="m457.8 454.3 9.2-.7 9.1.2 9.2-.8 9.1-.1 9.2-.4 9.1 1.3 9.2.4 9.1-.1 9.2-2.3 9.1-.8 9.2 1.7 9.1-1.3 9.2-.5 9.1-.1 9.2 1 9.1.1 9.2.5 9.1-2.2 9.2-1.1 9.1-.4 9.2-.2 9.1.6 9.2.8 9.1-1.1 9.2-3 9.1-1.7 9.2-.9 9.1-.7 9.2-.4 9.1-1.1 9.2 1.4 9.1.4 9.2-.7 9.1 1.3 9.2.6 9.1-.5 9.2-.5 9.1.4 9.2-1.8 9.1.9 9.2 5v8.6l-9.2-4.8-9.1-1-9.2 1.6-9.1-.5-9.2.3-9.1.7h-9.2l-9.1-1.1-9.2.5-9.1-.3-9.2-1.4-9.1.9-9.2.4-9.1.6-9.2.7-9.1 1.4-9.2 2.4-9.1 1-9.2-.7-9.1-.7-9.2.2-9.1.3-9.2 1-9.1 1.9-9.2-.5-9.1-.1-9.2-1.1-9.1-.1-9.2.3-9.1 1.1-9.2-1.6-9.1.7-9.2 2h-9.1l-9.2-.6-9.1-1.3-9.2.2-9.1.2-9.2.7-9.1-.7-9.2.5" class="Non-Hodgkin-lymphoma-area"/><path fill="#B13507" fill-opacity=".8" stroke-linecap="round" d="m457.8 451.9 9.2-.9 9.1.1 9.2-.8 9.1-.3 9.2-.4 9.1 1.2 9.2.4 9.1-.2 9.2-2.4 9.1-.9 9.2 1.8 9.1-1.4 9.2-.5 9.1-.2 9.2 1 9.1-.1 9.2.6 9.1-2.4 9.2-1.3 9.1-.3 9.2-.3 9.1.6 9.2.8 9.1-1.2 9.2-3.1 9.1-1.9 9.2-.9 9.1-.8 9.2-.5 9.1-1 9.2 1.6 9.1.5 9.2-.8 9.1 1.4 9.2.3 9.1-.6 9.2-.8 9.1.6 9.2-1.9 9.1 1 9.2 5.1v4.5l-9.2-5-9.1-.9-9.2 1.8-9.1-.4-9.2.5-9.1.5-9.2-.6-9.1-1.3-9.2.7-9.1-.4-9.2-1.4-9.1 1.1-9.2.4-9.1.7-9.2.9-9.1 1.7-9.2 3-9.1 1.1-9.2-.8-9.1-.6-9.2.2-9.1.4-9.2 1.1-9.1 2.2-9.2-.5-9.1-.1-9.2-1-9.1.1-9.2.5-9.1 1.3-9.2-1.7-9.1.8-9.2 2.3-9.1.1-9.2-.4-9.1-1.3-9.2.4-9.1.1-9.2.8-9.1-.2-9.2.7" class="Liver-area"/><path fill="#B16214" fill-opacity=".8" stroke-linecap="round" d="m457.8 448.8 9.2-.5 9.1-1 9.2-1.1 9.1-.3 9.2-.5 9.1 1.6 9.2.8 9.1-.7 9.2-2.7 9.1-1 9.2 1.9 9.1-1.5 9.2-.6 9.1-.3 9.2 1h9.1l9.2.6 9.1-2.5 9.2-1.5 9.1-.3 9.2-.2 9.1.6 9.2.8 9.1-1.3 9.2-3.4 9.1-1.8 9.2-1 9.1-.9 9.2-.5 9.1-1.3 9.2 2 9.1.6 9.2-.9 9.1 1.6 9.2.9 9.1-.4 9.2-.8 9.1.7 9.2-2 9.1 1 9.2 5.5v3.6l-9.2-5.1-9.1-1-9.2 1.9-9.1-.6-9.2.8-9.1.6-9.2-.3-9.1-1.4-9.2.8-9.1-.5-9.2-1.6-9.1 1-9.2.5-9.1.8-9.2.9-9.1 1.9-9.2 3.1-9.1 1.2-9.2-.8-9.1-.6-9.2.3-9.1.3-9.2 1.3-9.1 2.4-9.2-.6-9.1.1-9.2-1-9.1.2-9.2.5-9.1 1.4-9.2-1.8-9.1.9-9.2 2.4-9.1.2-9.2-.4-9.1-1.2-9.2.4-9.1.3-9.2.8-9.1-.1-9.2.9" class="Kidney-area"/><path fill="#970046" fill-opacity=".8" stroke-linecap="round" d="m457.8 447.6 9.2-.5 9.1-1 9.2-1.1 9.1-.4 9.2-.4 9.1 1.6 9.2.8 9.1-.8 9.2-2.8 9.1-.9 9.2 1.9 9.1-1.5 9.2-.7 9.1-.3 9.2.9 9.1-.1 9.2.7 9.1-2.7 9.2-1.6 9.1-.5 9.2-.3 9.1.6 9.2.9 9.1-1.3 9.2-3.6 9.1-2.1 9.2-.9 9.1-.9 9.2-.6 9.1-1.2 9.2 1.9 9.1.6 9.2-.9 9.1 1.6 9.2 1 9.1-.5 9.2-.7 9.1.6 9.2-2.1 9.1 1 9.2 5.5v2.6l-9.2-5.5-9.1-1-9.2 2-9.1-.7-9.2.8-9.1.4-9.2-.9-9.1-1.6-9.2.9-9.1-.6-9.2-2-9.1 1.3-9.2.5-9.1.9-9.2 1-9.1 1.8-9.2 3.4-9.1 1.3-9.2-.8-9.1-.6-9.2.2-9.1.3-9.2 1.5-9.1 2.5-9.2-.6h-9.1l-9.2-1-9.1.3-9.2.6-9.1 1.5-9.2-1.9-9.1 1-9.2 2.7-9.1.7-9.2-.8-9.1-1.6-9.2.5-9.1.3-9.2 1.1-9.1 1-9.2.5" class="Eye-area"/><path fill="none" stroke="#405983" stroke-linecap="round" stroke-opacity=".7" stroke-width=".5" d="M457.8 477.9h9.2l9.1.3 9.2-.1 9.1.1 9.2-.4 9.1.5 9.2.2 9.1-.1 9.2-1.6 9.1.1 9.2.8 9.1-.7 9.2-.2 9.1-.1 9.2.6 9.1.2 9.2.3 9.1-2.1 9.2-.9 9.1-.4 9.2-.2 9.1.2 9.2.2 9.1-.8 9.2-2.2 9.1-1.2 9.2-.7 9.1-.3h9.2l9.1-.7 9.2.7h9.1l9.2-.1 9.1.7h9.2l9.1-.1 9.2-.7 9.1.1 9.2-.9h9.1l9.2 2.4" class="Leukemia-border"/><path fill="none" stroke="#722830" stroke-linecap="round" stroke-opacity=".7" stroke-width=".5" d="m457.8 459.2 9.2-.5 9.1.7 9.2-.7 9.1-.2 9.2-.2 9.1 1.3 9.2.6h9.1l9.2-2 9.1-.7 9.2 1.6 9.1-1.1 9.2-.3 9.1.1 9.2 1.1 9.1.1 9.2.5 9.1-1.9 9.2-1 9.1-.3 9.2-.2 9.1.7 9.2.7 9.1-1 9.2-2.4 9.1-1.4 9.2-.7 9.1-.6 9.2-.4 9.1-.9 9.2 1.4 9.1.3 9.2-.5 9.1 1.1h9.2l9.1-.7 9.2-.3 9.1.5 9.2-1.6 9.1 1 9.2 4.8" class="Brain-and-central-nervous-system-border"/><path fill="none" stroke="#496C3A" stroke-linecap="round" stroke-opacity=".7" stroke-width=".5" d="m457.8 454.3 9.2-.7 9.1.2 9.2-.8 9.1-.1 9.2-.4 9.1 1.3 9.2.4 9.1-.1 9.2-2.3 9.1-.8 9.2 1.7 9.1-1.3 9.2-.5 9.1-.1 9.2 1 9.1.1 9.2.5 9.1-2.2 9.2-1.1 9.1-.4 9.2-.2 9.1.6 9.2.8 9.1-1.1 9.2-3 9.1-1.7 9.2-.9 9.1-.7 9.2-.4 9.1-1.1 9.2 1.4 9.1.4 9.2-.7 9.1 1.3 9.2.6 9.1-.5 9.2-.5 9.1.4 9.2-1.8 9.1.9 9.2 5" class="Non-Hodgkin-lymphoma-border"/><path fill="none" stroke="#942C06" stroke-linecap="round" stroke-opacity=".7" stroke-width=".5" d="m457.8 451.9 9.2-.9 9.1.1 9.2-.8 9.1-.3 9.2-.4 9.1 1.2 9.2.4 9.1-.2 9.2-2.4 9.1-.9 9.2 1.8 9.1-1.4 9.2-.5 9.1-.2 9.2 1 9.1-.1 9.2.6 9.1-2.4 9.2-1.3 9.1-.3 9.2-.3 9.1.6 9.2.8 9.1-1.2 9.2-3.1 9.1-1.9 9.2-.9 9.1-.8 9.2-.5 9.1-1 9.2 1.6 9.1.5 9.2-.8 9.1 1.4 9.2.3 9.1-.6 9.2-.8 9.1.6 9.2-1.9 9.1 1 9.2 5.1" class="Liver-border"/><path fill="none" stroke="#945211" stroke-linecap="round" stroke-opacity=".7" stroke-width=".5" d="m457.8 448.8 9.2-.5 9.1-1 9.2-1.1 9.1-.3 9.2-.5 9.1 1.6 9.2.8 9.1-.7 9.2-2.7 9.1-1 9.2 1.9 9.1-1.5 9.2-.6 9.1-.3 9.2 1h9.1l9.2.6 9.1-2.5 9.2-1.5 9.1-.3 9.2-.2 9.1.6 9.2.8 9.1-1.3 9.2-3.4 9.1-1.8 9.2-1 9.1-.9 9.2-.5 9.1-1.3 9.2 2 9.1.6 9.2-.9 9.1 1.6 9.2.9 9.1-.4 9.2-.8 9.1.7 9.2-2 9.1 1 9.2 5.5" class="Kidney-border"/><path fill="none" stroke="#7E003B" stroke-linecap="round" stroke-opacity=".7" stroke-width=".5" d="m457.8 447.6 9.2-.5 9.1-1 9.2-1.1 9.1-.4 9.2-.4 9.1 1.6 9.2.8 9.1-.8 9.2-2.8 9.1-.9 9.2 1.9 9.1-1.5 9.2-.7 9.1-.3 9.2.9 9.1-.1 9.2.7 9.1-2.7 9.2-1.6 9.1-.5 9.2-.3 9.1.6 9.2.9 9.1-1.3 9.2-3.6 9.1-2.1 9.2-.9 9.1-.9 9.2-.6 9.1-1.2 9.2 1.9 9.1.6 9.2-.9 9.1 1.6 9.2 1 9.1-.5 9.2-.7 9.1.6 9.2-2.1 9.1 1 9.2 5.5" class="Eye-border"/></g></g></g></g><g id="footer" class="SourcesFooter" style="fill:#5b5b5b"><g id="sources" class="markdown-text-wrap"><text x="16" y="562.7" style="font-size:13.5px;line-height:1.2"><tspan x="16" y="562.7"><tspan style="font-weight:700">Data source:</tspan> IHME, Global Burden of Disease (2024)</tspan></text></g><g id="note" class="markdown-text-wrap"><text x="16" y="580.9" style="font-size:13.5px;line-height:1.2"><tspan x="16" y="580.9"><tspan style="font-weight:700">Note:</tspan> Only cancer types with a global death rate above 0.1 in the relevant age group for the latest available year are shown.</tspan></text></g><text id="origin-url" x="616.9" y="562.7" font-size="13.5"><tspan x="616.92" y="562.7"><a href="https://ourworldindata.org/cancer" style="fill:#5b5b5b" target="_blank">OurWorldinData.org/cancer</a> | <a href="https://creativecommons.org/licenses/by/4.0/" style="fill:#5b5b5b" target="_blank">CC BY</a></tspan></text></g></svg>