<svg xmlns="http://www.w3.org/2000/svg" width="850" height="600" style="font-family:Lato,&quot;Helvetica Neue&quot;,Helvetica,Arial,&quot;Liberation Sans&quot;,sans-serif;font-size:18px;background-color:#fff;text-rendering:geometricPrecision;-webkit-font-smoothing:antialiased" version="1.1" viewBox="0 0 850 600"><defs><style>@import url(https://ourworldindata.org/fonts.css);</style></defs><defs><pattern id="noDataPattern" width="4" height="4" patternTransform="rotate(-45 2 2)" patternUnits="userSpaceOnUse"><path stroke="#ccc" stroke-width=".7" d="M-1 2h6"/></pattern></defs><path fill="#fff" d="M0 0h850v600H0z" class="background-fill"/><g id="header" class="HeaderView"><g id="logo" transform="translate(769 16)"><svg xmlns="http://www.w3.org/2000/svg" width="65" height="36" fill="none" className="owidLogo" viewBox="0 0 65 36"><path fill="#002147" d="M0 0h64.8v36H0z"/><path fill="#CE261E" d="M0 33.3h64.8V36H0z"/><path fill="#fff" d="M13.8 10.57c0 .64-.11 1.23-.32 1.77a4.2 4.2 0 0 1-.9 1.4 4.08 4.08 0 0 1-1.38.94c-.54.22-1.14.33-1.8.33-.65 0-1.25-.11-1.8-.33a4.15 4.15 0 0 1-1.39-.93 4.2 4.2 0 0 1-.9-1.4A4.83 4.83 0 0 1 5 10.56c0-.63.1-1.22.32-1.76a4.18 4.18 0 0 1 .9-1.4 4.08 4.08 0 0 1 1.38-.93 4.68 4.68 0 0 1 1.8-.34c.66 0 1.26.11 1.8.34a4.08 4.08 0 0 1 2.28 2.33c.21.54.32 1.13.32 1.76Zm-1.66 0c0-.47-.06-.9-.2-1.27a2.67 2.67 0 0 0-.53-.97 2.33 2.33 0 0 0-.87-.6A2.94 2.94 0 0 0 9.4 7.5c-.42 0-.8.07-1.14.21-.34.14-.63.35-.87.61a2.74 2.74 0 0 0-.55.97 3.96 3.96 0 0 0-.19 1.27c0 .48.06.9.2 1.29a2.42 2.42 0 0 0 1.42 1.56c.33.14.71.2 1.13.2.43 0 .8-.06 1.14-.2a2.37 2.37 0 0 0 1.4-1.56 4.01 4.01 0 0 0 .2-1.29Zm3.96-1.81v3.9c0 .39.09.68.26.89.18.2.44.3.79.3.25 0 .5-.06.72-.17a2.58 2.58 0 0 0 .63-.47V8.76H20v6.15h-.91c-.2 0-.32-.09-.38-.27l-.1-.49a4.65 4.65 0 0 1-.4.35 2.58 2.58 0 0 1-.43.27 2.35 2.35 0 0 1-.5.17 2.35 2.35 0 0 1-.57.07c-.34 0-.64-.06-.9-.17a1.82 1.82 0 0 1-.64-.49 2.16 2.16 0 0 1-.4-.73 3.23 3.23 0 0 1-.14-.95V8.76h1.48Zm5.23 6.15V8.76h.87c.15 0 .26.02.32.08s.1.15.12.29l.09.74c.22-.38.47-.68.77-.9.3-.22.63-.33 1-.33.3 0 .55.07.75.21l-.19 1.11c-.01.07-.04.13-.08.16a.28.28 0 0 1-.16.04 1.01 1.01 0 0 1-.25-.04 1.65 1.65 0 0 0-.41-.04c-.3 0-.57.08-.8.25-.21.17-.4.42-.55.75v3.83h-1.48Zm6.02-8.67h1.35a.57.57 0 0 1 .35.1c.1.06.16.15.2.26l1.47 5.2a10.12 10.12 0 0 1 .19.9 5.97 5.97 0 0 1 .22-.9l1.7-5.2a.57.57 0 0 1 .2-.25.54.54 0 0 1 .34-.11h.48a.57.57 0 0 1 .34.1.5.5 0 0 1 .2.26l1.69 5.2c.08.25.16.53.22.85a31.71 31.71 0 0 1 .19-.86l1.47-5.19c.03-.1.1-.18.19-.25a.56.56 0 0 1 .34-.11h1.27l-2.7 8.67h-1.45L33.7 9l-.08-.25a9.5 9.5 0 0 1-.07-.28 4.04 4.04 0 0 1-.15.53L31.5 14.9h-1.46l-2.7-8.67Zm15.42 2.42c.46 0 .88.07 1.25.22s.7.36.96.63.47.6.61 1 .22.83.22 1.31c0 .5-.08.93-.22 1.32a2.85 2.85 0 0 1-.61 1 2.65 2.65 0 0 1-.96.64 3.35 3.35 0 0 1-1.25.22 3.4 3.4 0 0 1-1.25-.22 2.71 2.71 0 0 1-.97-.63 2.92 2.92 0 0 1-.62-1 3.8 3.8 0 0 1-.21-1.33c0-.48.07-.92.21-1.31a2.75 2.75 0 0 1 1.58-1.63 3.4 3.4 0 0 1 1.26-.22Zm0 5.2c.51 0 .9-.17 1.13-.51.25-.35.38-.85.38-1.52s-.13-1.17-.38-1.51c-.24-.35-.62-.53-1.13-.53-.52 0-.9.18-1.15.53-.25.35-.37.85-.37 1.51s.12 1.17.37 1.52c.25.34.63.51 1.15.51Zm3.95 1.05V8.76h.87c.15 0 .26.02.32.08s.1.15.12.29l.1.74c.21-.38.47-.68.76-.9.3-.22.63-.33 1-.33.3 0 .56.07.76.21l-.2 1.11c0 .07-.03.13-.07.16a.28.28 0 0 1-.17.04 1.01 1.01 0 0 1-.24-.04 1.65 1.65 0 0 0-.42-.04c-.3 0-.57.08-.79.25-.22.17-.4.42-.56.75v3.83h-1.48ZM52.96 6v8.91h-1.48V6h1.48Zm5.77 8.91c-.19 0-.32-.09-.38-.27l-.12-.6a3.68 3.68 0 0 1-.4.4 2.5 2.5 0 0 1-.98.5 2.37 2.37 0 0 1-.6.06c-.33 0-.64-.07-.92-.2a2.1 2.1 0 0 1-.73-.61 3.03 3.03 0 0 1-.46-1 5.07 5.07 0 0 1-.17-1.34c0-.45.07-.88.19-1.27s.3-.73.53-1.02c.24-.29.51-.51.84-.67a2.38 2.38 0 0 1 1.09-.25 2.1 2.1 0 0 1 1.54.6V6h1.48v8.91h-.9Zm-1.97-1.08c.3 0 .57-.07.78-.2.22-.12.42-.3.62-.54v-2.76a1.45 1.45 0 0 0-.56-.43 1.6 1.6 0 0 0-.63-.13c-.23 0-.43.04-.61.13a1.21 1.21 0 0 0-.47.38c-.12.17-.22.39-.28.65a4.3 4.3 0 0 0-.02 1.84c.06.25.14.45.25.61.1.16.24.27.4.34.15.07.33.1.52.1Zm-40.43 6.93v6.15h-1.48v-6.15h1.48Zm.22-1.8a.84.84 0 0 1-.07.36.96.96 0 0 1-.21.3 1 1 0 0 1-.3.2.96.96 0 0 1-.38.07.95.95 0 0 1-.36-.07 1.02 1.02 0 0 1-.5-.5.96.96 0 0 1 0-.73 1 1 0 0 1 .2-.3.93.93 0 0 1 .3-.2.9.9 0 0 1 .73 0 .91.91 0 0 1 .3.2.94.94 0 0 1 .3.67Zm1.22 7.95v-6.15h.9c.2 0 .32.09.38.27l.1.48a2.93 2.93 0 0 1 .84-.61 2.3 2.3 0 0 1 1.07-.24c.34 0 .63.06.9.18.25.1.47.27.64.48.18.2.3.45.4.73.09.29.13.6.13.95v3.91h-1.48V23c0-.38-.08-.67-.26-.87-.17-.21-.43-.32-.78-.32-.26 0-.5.06-.72.18a2.58 2.58 0 0 0-.64.47v4.45h-1.48Zm16.45-4.34c0 .64-.1 1.22-.32 1.76-.21.53-.5.99-.9 1.37a4 4 0 0 1-1.38.9 4.87 4.87 0 0 1-1.8.31h-3.3v-8.67h3.3a4.79 4.79 0 0 1 1.8.32 4 4 0 0 1 1.39.9c.38.37.68.83.9 1.36.2.53.31 1.12.31 1.75Zm-1.65 0c0-.47-.06-.9-.2-1.27a2.68 2.68 0 0 0-.54-.96 2.33 2.33 0 0 0-.86-.6 2.94 2.94 0 0 0-1.14-.22h-1.69v6.1h1.69c.42 0 .8-.06 1.14-.2.34-.14.63-.34.86-.6a2.75 2.75 0 0 0 .55-.96 4.01 4.01 0 0 0 .19-1.29Zm7.41 4.34h-.67a.75.75 0 0 1-.33-.06c-.07-.04-.13-.13-.17-.25l-.14-.44c-.15.14-.3.26-.46.37a2.8 2.8 0 0 1-.46.26c-.16.08-.33.13-.51.17a3.07 3.07 0 0 1-1.32-.05 1.62 1.62 0 0 1-.57-.32 1.45 1.45 0 0 1-.37-.52 1.85 1.85 0 0 1-.13-.73c0-.23.06-.46.18-.68.12-.23.33-.44.61-.62.29-.18.67-.33 1.14-.45a8.01 8.01 0 0 1 1.75-.2v-.36c0-.42-.08-.72-.26-.92-.17-.2-.42-.3-.76-.3a1.84 1.84 0 0 0-1.01.28l-.33.19a.66.66 0 0 1-.33.08.43.43 0 0 1-.26-.08.61.61 0 0 1-.17-.2l-.27-.46c.7-.65 1.56-.98 2.56-.98.36 0 .68.06.96.18a1.99 1.99 0 0 1 1.16 1.25c.1.29.16.6.16.96v3.88ZM37.1 26c.15 0 .3-.01.42-.04a1.81 1.81 0 0 0 .69-.33c.1-.09.22-.19.32-.3v-1.04c-.43.02-.79.06-1.08.12a2.8 2.8 0 0 0-.7.2.92.92 0 0 0-.37.3.66.66 0 0 0-.11.36c0 .26.07.45.22.56.16.11.36.17.61.17ZM43.22 27c-.53 0-.94-.15-1.23-.45-.29-.3-.43-.72-.43-1.25v-3.44h-.63a.31.31 0 0 1-.2-.08c-.06-.05-.09-.13-.09-.23v-.6l.99-.15.31-1.68a.3.3 0 0 1 .11-.2.36.36 0 0 1 .22-.06h.77v1.94h1.62v1.06h-1.62v3.33c0 .2.05.35.14.45a.49.49 0 0 0 .39.17.73.73 0 0 0 .39-.1l.12-.07a.2.2 0 0 1 .11-.04.16.16 0 0 1 .11.04c.03.02.06.05.09.1l.44.71c-.21.18-.46.32-.74.41a2.77 2.77 0 0 1-.87.14Zm7.2-.1h-.66a.75.75 0 0 1-.33-.06c-.08-.04-.14-.13-.18-.25l-.13-.44c-.16.14-.31.26-.47.37a2.8 2.8 0 0 1-.46.26c-.16.08-.33.13-.5.17a3.07 3.07 0 0 1-1.33-.05 1.62 1.62 0 0 1-.57-.32 1.45 1.45 0 0 1-.36-.52 1.85 1.85 0 0 1-.14-.73c0-.23.06-.46.18-.68.13-.23.33-.44.62-.62.28-.18.66-.33 1.13-.45a8.01 8.01 0 0 1 1.76-.2v-.36c0-.42-.1-.72-.27-.92-.17-.2-.42-.3-.75-.3a1.84 1.84 0 0 0-1.02.28l-.33.19a.66.66 0 0 1-.33.08.43.43 0 0 1-.25-.08.61.61 0 0 1-.18-.2l-.27-.46c.7-.65 1.56-.98 2.56-.98.36 0 .68.06.96.18a1.99 1.99 0 0 1 1.17 1.25c.1.29.15.6.15.96v3.88ZM47.54 26c.16 0 .3-.01.42-.04a1.88 1.88 0 0 0 .69-.33l.33-.3v-1.04c-.44.02-.8.06-1.09.12a2.8 2.8 0 0 0-.7.2.92.92 0 0 0-.37.3.66.66 0 0 0-.11.36c0 .26.08.45.23.56.15.11.36.17.6.17Z"/></svg></g><a id="title" href="https://ourworldindata.org/grapher/cancer-death-rate-who-mdb" rel="noopener" style="font-family:&quot;Playfair Display&quot;,Georgia,&quot;Times New Roman&quot;,&quot;Liberation Serif&quot;,serif" target="_blank"><text x="16" y="40" fill="#5b5b5b" font-size="24.75" font-weight="600"><tspan x="16" y="40.01">Death rate from cancer, 1950 to 2022</tspan></text></a><g id="subtitle" class="markdown-text-wrap"><text x="16" y="63.9" fill="#5b5b5b" style="font-size:14.625px;line-height:1.2"><tspan x="16" y="63.9">The reported annual death rate from <tspan class="dod-span" data-id="cancer">cancer</tspan> per 100,000 people, based on the <tspan class="dod-span" data-id="underlying-cause-of-death">underlying cause</tspan> listed on death</tspan><tspan x="16" y="81.4">certificates. Comparisons may be affected by differences in measurement.</tspan></text></g></g><g id="chart-area" style="pointer-events:none"><g id="line-chart" class="LineChart"><defs><clipPath id="boundsClip-1"><path d="M33.68 90.8h838v436.6h-838z"/></clipPath></defs><path fill="none" d="M16 100.8h818v416.6H16z"/><g id="dual-axis" class="DualAxisView"><g id="horizontal-axis" class="HorizontalAxis"><g id="tick__1950"><path stroke="#999" stroke-width="1" d="M43.7 496.4v5.5"/><text x="43.68" y="515.4" fill="#5b5b5b" font-size="13.5" text-anchor="start">1950</text></g><g id="tick__2022"><path stroke="#999" stroke-width="1" d="M717.6 496.4v5.5"/><text x="717.6" y="515.4" fill="#5b5b5b" font-size="13.5" text-anchor="end">2022</text></g><g id="tick__1960"><path stroke="#999" stroke-width="1" d="M137.3 496.4v5.5"/><text x="137.3" y="515.4" fill="#5b5b5b" font-size="13.5" text-anchor="middle">1960</text></g><g id="tick__1970"><path stroke="#999" stroke-width="1" d="M230.9 496.4v5.5"/><text x="230.9" y="515.4" fill="#5b5b5b" font-size="13.5" text-anchor="middle">1970</text></g><g id="tick__1980"><path stroke="#999" stroke-width="1" d="M324.5 496.4v5.5"/><text x="324.5" y="515.4" fill="#5b5b5b" font-size="13.5" text-anchor="middle">1980</text></g><g id="tick__1990"><path stroke="#999" stroke-width="1" d="M418.1 496.4v5.5"/><text x="418.1" y="515.4" fill="#5b5b5b" font-size="13.5" text-anchor="middle">1990</text></g><g id="tick__2000"><path stroke="#999" stroke-width="1" d="M511.7 496.4v5.5"/><text x="511.7" y="515.4" fill="#5b5b5b" font-size="13.5" text-anchor="middle">2000</text></g><g id="tick__2010"><path stroke="#999" stroke-width="1" d="M605.3 496.4v5.5"/><text x="605.3" y="515.4" fill="#5b5b5b" font-size="13.5" text-anchor="middle">2010</text></g></g><g id="vertical-axis" class="VerticalAxis"><g id="tick-labels"><text id="tick-label__0" x="38.68" y="496.9" fill="#5b5b5b" dy=".32em" font-size="13.5" text-anchor="end">0</text><text id="tick-label__50" x="38.68" y="408" fill="#5b5b5b" dy=".32em" font-size="13.5" text-anchor="end">50</text><text id="tick-label__100" x="38.68" y="319.1" fill="#5b5b5b" dy=".32em" font-size="13.5" text-anchor="end">100</text><text id="tick-label__150" x="38.68" y="230.2" fill="#5b5b5b" dy=".32em" font-size="13.5" text-anchor="end">150</text><text id="tick-label__200" x="38.68" y="141.3" fill="#5b5b5b" dy=".32em" font-size="13.5" text-anchor="end">200</text></g></g><g id="horizontal-grid-lines" class="AxisGridLines horizontalLines"><path id="grid-line__0" stroke="#999" stroke-width="1" d="M43.68 496.9H717.6"/><path id="grid-line__50" stroke="#ddd" stroke-dasharray="3,2" stroke-width="1" d="M43.68 408H717.6"/><path id="grid-line__100" stroke="#ddd" stroke-dasharray="3,2" stroke-width="1" d="M43.68 319.1H717.6"/><path id="grid-line__150" stroke="#ddd" stroke-dasharray="3,2" stroke-width="1" d="M43.68 230.2H717.6"/><path id="grid-line__200" stroke="#ddd" stroke-dasharray="3,2" stroke-width="1" d="M43.68 141.3H717.6"/></g></g><g clip-path="url(#boundsClip-1)"><g id="line-labels" class="LineLabels"><g id="mark__Hungary" class="legendMark" style="cursor:default"><g id="connector" class="indicator"><path fill="none" stroke="#999" stroke-width=".5" d="M721.6 229.6h27"/></g><text id="label" x="752.6" y="234.6" fill="#be5915" font-size="13.5" font-weight="400"><tspan x="752.6" y="234.59">Hungary</tspan></text></g><g id="mark__Russia" class="legendMark" style="cursor:default"><g class="indicator"><path fill="none" stroke="#999" stroke-width=".5" d="M721.6 283.9h27"/></g><text x="752.6" y="288.9" fill="#cf0a66" font-size="13.5" font-weight="400"><tspan x="752.6" y="288.89">Russia</tspan></text></g><g id="mark__South-Africa" class="legendMark" style="cursor:default"><g class="indicator"><path fill="none" stroke="#999" stroke-width=".5" d="M721.6 309h9v-8.65h18"/></g><text x="752.6" y="305.3" fill="#18470f" font-size="13.5" font-weight="400"><tspan x="752.6" y="305.35">South Africa</tspan></text></g><g id="mark__Australia" class="legendMark" style="cursor:default"><g class="indicator"><path fill="none" stroke="#999" stroke-width=".5" d="M721.6 324.8h18v-8.95h9"/></g><text x="752.6" y="320.8" fill="#c15065" font-size="13.5" font-weight="400"><tspan x="752.6" y="320.85">Australia</tspan></text></g><g id="mark__United-States" class="legendMark" style="cursor:default"><g class="indicator"><path fill="none" stroke="#999" stroke-width=".5" d="M721.6 325.1h18v6.25h9"/></g><text x="752.6" y="336.3" fill="#2c8465" font-size="13.5" font-weight="400"><tspan x="752.6" y="336.35">United States</tspan></text></g><g id="mark__Brazil" class="legendMark" style="cursor:default"><g class="indicator"><path fill="none" stroke="#999" stroke-width=".5" d="M721.6 335.5h9v11.35h18"/></g><text x="752.6" y="351.8" fill="#6d3e91" font-size="13.5" font-weight="400"><tspan x="752.6" y="351.85">Brazil</tspan></text></g></g><g id="lines" class="Lines"><g id="line__South-Africa"><path fill="none" stroke="#ddd" stroke-linecap="round" stroke-linejoin="round" stroke-width="1" d="m474.2 300 9.4 2.3 9.4-5.7 9.3-6.2h9.4l9.3 5.4 9.4.9 9.4-1.9 9.3-1.1 9.4-2.2 9.3 7 9.4 1.2 9.4 9.2 9.3-6.7 9.4-1.1 9.3 1.5 9.4 4.2 9.4 6.5 9.3-.4 9.4-10 9.3-2.1 9.4 6.1 9.4 2.1"/></g><g id="line__Russia"><path fill="none" stroke="#ddd" stroke-linecap="round" stroke-linejoin="round" stroke-width="1" d="m324.5 244.9 9.3-1.1 9.4-3.3 9.4-3.5 9.3-.6 9.4-.8 9.3-5.8 9.4-2.8 9.4-3.6 9.3-2.8 9.4-2.8 9.3-1.5 9.4-2.3 9.4-3.3 9.3 1.7 9.4 6.5 9.3 7.1 9.4 2.1 9.4 1.9 9.3-1.4 9.4 1.8 9.3 5.6 9.4 2.9 9.4 2.3 9.3 1.4 9.4 3.4 9.3 3.5 9.4.5 9.4.9 9.3-1.9 9.4 5.9 9.3 3.6 9.4 4.8 9.4 1.8h9.3l9.4 3.7 9.3 2.8 9.4 6.8 9.4-.2 9.3 5.7"/></g><g id="line__Brazil"><path fill="none" stroke="#ddd" stroke-linecap="round" stroke-linejoin="round" stroke-width="1" d="m315.1 349.5 9.4-6.3 9.3-1.9 9.4-1.6 9.4 5.3 9.3-.6 9.4-1.9 9.3.7 9.4-10.6 9.4-.5 9.3 1.9 9.4-.3 9.3.5 9.4-2.5 9.4-.1 9.3-.8 9.4.4 9.3-3.3 9.4-.7 9.4-.1 9.3-1.6 9.4-2.2 9.3-.3 9.4.3 9.4-.4 9.3-2 9.4-2.1 9.3-2.5 9.4.2h9.4l9.3 1.3 9.4-.8 9.3 1.6 9.4-.2 9.4 1.4 9.3 1.5 9.4-.5 9.3 1.9 9.4 1 9.4 1.2 9.3 2.8 9.4 7.8"/></g><g id="line__Hungary"><path fill="none" stroke="#ddd" stroke-linecap="round" stroke-linejoin="round" stroke-width="1" d="m90.5 257.1 9.3-12.4 9.4-3.4 9.4-4.7 9.3-8.1 9.4.6 9.3-1.9 9.4-3.4 9.4 3 9.3-7 9.4-4.4 9.3-3.8 9.4-2 9.4-.4 9.3-5.1 9.4-2.7 9.3-10 9.4 1.3 9.4-2.8 9.3-11 9.4-.7 9.3 1.2 9.4-1.4 9.4-10.5 9.3 1.4 9.4-2.5 9.3-1.8 9.4-4.5 9.4-1.9 9.3-.7 9.4 2 9.3-11.7 9.4-3.7 9.4 1.5 9.3-6.1 9.4-10 9.3-4.8 9.4-9.2 9.4 2.3 9.3-2.1 9.4 1.1 9.3-2.5 9.4 1.6 9.4 1.8 9.3-10.9 9.4 8L521 132l9.4 4.7 9.4-1.6 9.3 4.1 9.4 31.8 9.3-3.1 9.4-1.2 9.4-.2 9.3-2.3 9.4 6.8 9.3.9 9.4-.2 9.4 8.5 9.3 3.4 9.4 3.6 9.3 3.2 9.4 4.1 9.4 4.9 9.3 8.9 9.4 4.6 9.3 12 9.4 4.7"/></g><g id="line__United-States"><path fill="none" stroke="#ddd" stroke-linecap="round" stroke-linejoin="round" stroke-width="1" d="m43.7 246.1 9.3 2.4 9.4-2.8 9.4-.4 9.3.5h9.4l9.3-1.2h9.4l9.4 4 9.3.1 9.4-2.6 9.3.8h9.4l9.4-1.9 9.3.6 9.4-2.5 9.3-1 9.4-1.5 9.4-2 9.3.7 9.4-1.5 9.3 1.6 9.4-2 9.4.1 9.3-2.2 9.4 4.3 9.3-2.6 9.4-1 9.4-1.4 9.3 1.5 9.4-2.9 9.3 1.2 9.4-2.1 9.4-2 9.3-.2 9.4-.2 9.3.2 9.4.5h9.4l9.3-1 9.4-4.3 9.3 1.1 9.4 2.3 9.4.4 9.3 2 9.4 2.7 9.3 3.6 9.4 4.5 9.4 4.3 9.3.6 9.4 4.9 9.3 4.3 9.4 3.3 9.4 4.3 9.3 5.3 9.4 2.6 9.3 3.7 9.4 3.5 9.4 1.8 9.3 3.9 9.4 2.6 9.3 4 9.4 2.4 9.4 3.8 9.3 2.3 9.4 3.4 9.3 3.8 9.4 4.1 9.4 4.2 9.3 4.2 9.4 3 9.3 2.9"/></g><g id="line__Australia"><path fill="none" stroke="#ddd" stroke-linecap="round" stroke-linejoin="round" stroke-width="1" d="m43.7 268.8 9.3 2 9.4-6.6 9.4-2.7 9.3 3.3h9.4l9.3-2.4 9.4-1.7 9.4 6.9 9.3-6.8 9.4 4.5 9.3-1 9.4-.3 9.4-6.8 9.3-.9 9.4 5.4 9.3-4.9 9.4-.9 9.4-9.7 9.3.7 9.4-6.4 9.3 1.3 9.4-1.4 9.4-3.8 9.3-2.8 9.4 8.6 9.3-2.3 9.4 1.2 9.4-.3 9.3 3.6 9.4-7.1 9.3 3.2 9.4-4.4 9.4-2.3 9.3-2.4 9.4-1.2 9.3 7 9.4-2.3 9.4.9 9.3-3.1 9.4 6.8 9.3-.2 9.4 1.1 9.4 1.6 9.3-3.9 9.4 10.7 9.3-.6 9.4 7.2 9.4 2.2 9.3 7 9.4 2.3 9.3 1.5 9.4 2.3 9.4 6 9.3 1.3 18.7 3.8 9.4 7.1 9.4-3 9.3 6.9 9.4-.2 9.3 2.3 9.4 7.4 9.4.9 9.3 4.6 9.4-2.8 9.3 5.7 9.4 6.2 9.4-1 9.3-1.7 9.4 10.5 9.3-.7 9.4.6"/></g><g><path id="outline" fill="none" stroke="#fff" stroke-linecap="butt" stroke-linejoin="round" stroke-width="2.5" d="m474.2 300 9.4 2.3 9.4-5.7 9.3-6.2h9.4l9.3 5.4 9.4.9 9.4-1.9 9.3-1.1 9.4-2.2 9.3 7 9.4 1.2 9.4 9.2 9.3-6.7 9.4-1.1 9.3 1.5 9.4 4.2 9.4 6.5 9.3-.4 9.4-10 9.3-2.1 9.4 6.1 9.4 2.1"/><g id="polyline"><path fill="none" stroke="#18470F" stroke-linecap="butt" stroke-linejoin="round" stroke-width="1.5" d="m474.2 300 9.4 2.3 9.4-5.7 9.3-6.2h9.4l9.3 5.4 9.4.9 9.4-1.9 9.3-1.1 9.4-2.2 9.3 7 9.4 1.2 9.4 9.2 9.3-6.7 9.4-1.1 9.3 1.5 9.4 4.2 9.4 6.5 9.3-.4 9.4-10 9.3-2.1 9.4 6.1 9.4 2.1"/></g><g id="markers"><circle cx="474.2" cy="300" r="1.8" fill="#18470F"/><circle cx="483.6" cy="302.3" r="1.8" fill="#18470F"/><circle cx="493" cy="296.6" r="1.8" fill="#18470F"/><circle cx="502.3" cy="290.4" r="1.8" fill="#18470F"/><circle cx="511.7" cy="290.4" r="1.8" fill="#18470F"/><circle cx="521" cy="295.8" r="1.8" fill="#18470F"/><circle cx="530.4" cy="296.7" r="1.8" fill="#18470F"/><circle cx="539.8" cy="294.8" r="1.8" fill="#18470F"/><circle cx="549.1" cy="293.7" r="1.8" fill="#18470F"/><circle cx="558.5" cy="291.5" r="1.8" fill="#18470F"/><circle cx="567.8" cy="298.5" r="1.8" fill="#18470F"/><circle cx="577.2" cy="299.7" r="1.8" fill="#18470F"/><circle cx="586.6" cy="308.9" r="1.8" fill="#18470F"/><circle cx="595.9" cy="302.2" r="1.8" fill="#18470F"/><circle cx="605.3" cy="301.1" r="1.8" fill="#18470F"/><circle cx="614.6" cy="302.6" r="1.8" fill="#18470F"/><circle cx="624" cy="306.8" r="1.8" fill="#18470F"/><circle cx="633.4" cy="313.3" r="1.8" fill="#18470F"/><circle cx="642.7" cy="312.9" r="1.8" fill="#18470F"/><circle cx="652.1" cy="302.9" r="1.8" fill="#18470F"/><circle cx="661.4" cy="300.8" r="1.8" fill="#18470F"/><circle cx="670.8" cy="306.9" r="1.8" fill="#18470F"/><circle cx="680.2" cy="309" r="1.8" fill="#18470F"/></g></g><g><path fill="none" stroke="#fff" stroke-linecap="butt" stroke-linejoin="round" stroke-width="2.5" d="m324.5 244.9 9.3-1.1 9.4-3.3 9.4-3.5 9.3-.6 9.4-.8 9.3-5.8 9.4-2.8 9.4-3.6 9.3-2.8 9.4-2.8 9.3-1.5 9.4-2.3 9.4-3.3 9.3 1.7 9.4 6.5 9.3 7.1 9.4 2.1 9.4 1.9 9.3-1.4 9.4 1.8 9.3 5.6 9.4 2.9 9.4 2.3 9.3 1.4 9.4 3.4 9.3 3.5 9.4.5 9.4.9 9.3-1.9 9.4 5.9 9.3 3.6 9.4 4.8 9.4 1.8h9.3l9.4 3.7 9.3 2.8 9.4 6.8 9.4-.2 9.3 5.7"/><g><path fill="none" stroke="#CF0A66" stroke-linecap="butt" stroke-linejoin="round" stroke-width="1.5" d="m324.5 244.9 9.3-1.1 9.4-3.3 9.4-3.5 9.3-.6 9.4-.8 9.3-5.8 9.4-2.8 9.4-3.6 9.3-2.8 9.4-2.8 9.3-1.5 9.4-2.3 9.4-3.3 9.3 1.7 9.4 6.5 9.3 7.1 9.4 2.1 9.4 1.9 9.3-1.4 9.4 1.8 9.3 5.6 9.4 2.9 9.4 2.3 9.3 1.4 9.4 3.4 9.3 3.5 9.4.5 9.4.9 9.3-1.9 9.4 5.9 9.3 3.6 9.4 4.8 9.4 1.8h9.3l9.4 3.7 9.3 2.8 9.4 6.8 9.4-.2 9.3 5.7"/></g><g><circle cx="324.5" cy="244.9" r="1.8" fill="#CF0A66"/><circle cx="333.8" cy="243.8" r="1.8" fill="#CF0A66"/><circle cx="343.2" cy="240.5" r="1.8" fill="#CF0A66"/><circle cx="352.6" cy="237" r="1.8" fill="#CF0A66"/><circle cx="361.9" cy="236.4" r="1.8" fill="#CF0A66"/><circle cx="371.3" cy="235.6" r="1.8" fill="#CF0A66"/><circle cx="380.6" cy="229.8" r="1.8" fill="#CF0A66"/><circle cx="390" cy="227" r="1.8" fill="#CF0A66"/><circle cx="399.4" cy="223.4" r="1.8" fill="#CF0A66"/><circle cx="408.7" cy="220.6" r="1.8" fill="#CF0A66"/><circle cx="418.1" cy="217.8" r="1.8" fill="#CF0A66"/><circle cx="427.4" cy="216.3" r="1.8" fill="#CF0A66"/><circle cx="436.8" cy="214" r="1.8" fill="#CF0A66"/><circle cx="446.2" cy="210.7" r="1.8" fill="#CF0A66"/><circle cx="455.5" cy="212.4" r="1.8" fill="#CF0A66"/><circle cx="464.9" cy="218.9" r="1.8" fill="#CF0A66"/><circle cx="474.2" cy="226" r="1.8" fill="#CF0A66"/><circle cx="483.6" cy="228.1" r="1.8" fill="#CF0A66"/><circle cx="493" cy="230" r="1.8" fill="#CF0A66"/><circle cx="502.3" cy="228.6" r="1.8" fill="#CF0A66"/><circle cx="511.7" cy="230.4" r="1.8" fill="#CF0A66"/><circle cx="521" cy="236" r="1.8" fill="#CF0A66"/><circle cx="530.4" cy="238.9" r="1.8" fill="#CF0A66"/><circle cx="539.8" cy="241.2" r="1.8" fill="#CF0A66"/><circle cx="549.1" cy="242.6" r="1.8" fill="#CF0A66"/><circle cx="558.5" cy="246" r="1.8" fill="#CF0A66"/><circle cx="567.8" cy="249.5" r="1.8" fill="#CF0A66"/><circle cx="577.2" cy="250" r="1.8" fill="#CF0A66"/><circle cx="586.6" cy="250.9" r="1.8" fill="#CF0A66"/><circle cx="595.9" cy="249" r="1.8" fill="#CF0A66"/><circle cx="605.3" cy="254.9" r="1.8" fill="#CF0A66"/><circle cx="614.6" cy="258.5" r="1.8" fill="#CF0A66"/><circle cx="624" cy="263.3" r="1.8" fill="#CF0A66"/><circle cx="633.4" cy="265.1" r="1.8" fill="#CF0A66"/><circle cx="642.7" cy="265.1" r="1.8" fill="#CF0A66"/><circle cx="652.1" cy="268.8" r="1.8" fill="#CF0A66"/><circle cx="661.4" cy="271.6" r="1.8" fill="#CF0A66"/><circle cx="670.8" cy="278.4" r="1.8" fill="#CF0A66"/><circle cx="680.2" cy="278.2" r="1.8" fill="#CF0A66"/><circle cx="689.5" cy="283.9" r="1.8" fill="#CF0A66"/></g></g><g><path fill="none" stroke="#fff" stroke-linecap="butt" stroke-linejoin="round" stroke-width="2.5" d="m315.1 349.5 9.4-6.3 9.3-1.9 9.4-1.6 9.4 5.3 9.3-.6 9.4-1.9 9.3.7 9.4-10.6 9.4-.5 9.3 1.9 9.4-.3 9.3.5 9.4-2.5 9.4-.1 9.3-.8 9.4.4 9.3-3.3 9.4-.7 9.4-.1 9.3-1.6 9.4-2.2 9.3-.3 9.4.3 9.4-.4 9.3-2 9.4-2.1 9.3-2.5 9.4.2h9.4l9.3 1.3 9.4-.8 9.3 1.6 9.4-.2 9.4 1.4 9.3 1.5 9.4-.5 9.3 1.9 9.4 1 9.4 1.2 9.3 2.8 9.4 7.8"/><g><path fill="none" stroke="#6D3E91" stroke-linecap="butt" stroke-linejoin="round" stroke-width="1.5" d="m315.1 349.5 9.4-6.3 9.3-1.9 9.4-1.6 9.4 5.3 9.3-.6 9.4-1.9 9.3.7 9.4-10.6 9.4-.5 9.3 1.9 9.4-.3 9.3.5 9.4-2.5 9.4-.1 9.3-.8 9.4.4 9.3-3.3 9.4-.7 9.4-.1 9.3-1.6 9.4-2.2 9.3-.3 9.4.3 9.4-.4 9.3-2 9.4-2.1 9.3-2.5 9.4.2h9.4l9.3 1.3 9.4-.8 9.3 1.6 9.4-.2 9.4 1.4 9.3 1.5 9.4-.5 9.3 1.9 9.4 1 9.4 1.2 9.3 2.8 9.4 7.8"/></g><g><circle cx="315.1" cy="349.5" r="1.8" fill="#6D3E91"/><circle cx="324.5" cy="343.2" r="1.8" fill="#6D3E91"/><circle cx="333.8" cy="341.3" r="1.8" fill="#6D3E91"/><circle cx="343.2" cy="339.7" r="1.8" fill="#6D3E91"/><circle cx="352.6" cy="345" r="1.8" fill="#6D3E91"/><circle cx="361.9" cy="344.4" r="1.8" fill="#6D3E91"/><circle cx="371.3" cy="342.5" r="1.8" fill="#6D3E91"/><circle cx="380.6" cy="343.2" r="1.8" fill="#6D3E91"/><circle cx="390" cy="332.6" r="1.8" fill="#6D3E91"/><circle cx="399.4" cy="332.1" r="1.8" fill="#6D3E91"/><circle cx="408.7" cy="334" r="1.8" fill="#6D3E91"/><circle cx="418.1" cy="333.7" r="1.8" fill="#6D3E91"/><circle cx="427.4" cy="334.2" r="1.8" fill="#6D3E91"/><circle cx="436.8" cy="331.7" r="1.8" fill="#6D3E91"/><circle cx="446.2" cy="331.6" r="1.8" fill="#6D3E91"/><circle cx="455.5" cy="330.8" r="1.8" fill="#6D3E91"/><circle cx="464.9" cy="331.2" r="1.8" fill="#6D3E91"/><circle cx="474.2" cy="327.9" r="1.8" fill="#6D3E91"/><circle cx="483.6" cy="327.2" r="1.8" fill="#6D3E91"/><circle cx="493" cy="327.1" r="1.8" fill="#6D3E91"/><circle cx="502.3" cy="325.5" r="1.8" fill="#6D3E91"/><circle cx="511.7" cy="323.3" r="1.8" fill="#6D3E91"/><circle cx="521" cy="323" r="1.8" fill="#6D3E91"/><circle cx="530.4" cy="323.3" r="1.8" fill="#6D3E91"/><circle cx="539.8" cy="322.9" r="1.8" fill="#6D3E91"/><circle cx="549.1" cy="320.9" r="1.8" fill="#6D3E91"/><circle cx="558.5" cy="318.8" r="1.8" fill="#6D3E91"/><circle cx="567.8" cy="316.3" r="1.8" fill="#6D3E91"/><circle cx="577.2" cy="316.5" r="1.8" fill="#6D3E91"/><circle cx="586.6" cy="316.5" r="1.8" fill="#6D3E91"/><circle cx="595.9" cy="317.8" r="1.8" fill="#6D3E91"/><circle cx="605.3" cy="317" r="1.8" fill="#6D3E91"/><circle cx="614.6" cy="318.6" r="1.8" fill="#6D3E91"/><circle cx="624" cy="318.4" r="1.8" fill="#6D3E91"/><circle cx="633.4" cy="319.8" r="1.8" fill="#6D3E91"/><circle cx="642.7" cy="321.3" r="1.8" fill="#6D3E91"/><circle cx="652.1" cy="320.8" r="1.8" fill="#6D3E91"/><circle cx="661.4" cy="322.7" r="1.8" fill="#6D3E91"/><circle cx="670.8" cy="323.7" r="1.8" fill="#6D3E91"/><circle cx="680.2" cy="324.9" r="1.8" fill="#6D3E91"/><circle cx="689.5" cy="327.7" r="1.8" fill="#6D3E91"/><circle cx="698.9" cy="335.5" r="1.8" fill="#6D3E91"/></g></g><g><path fill="none" stroke="#fff" stroke-linecap="butt" stroke-linejoin="round" stroke-width="2.5" d="m90.5 257.1 9.3-12.4 9.4-3.4 9.4-4.7 9.3-8.1 9.4.6 9.3-1.9 9.4-3.4 9.4 3 9.3-7 9.4-4.4 9.3-3.8 9.4-2 9.4-.4 9.3-5.1 9.4-2.7 9.3-10 9.4 1.3 9.4-2.8 9.3-11 9.4-.7 9.3 1.2 9.4-1.4 9.4-10.5 9.3 1.4 9.4-2.5 9.3-1.8 9.4-4.5 9.4-1.9 9.3-.7 9.4 2 9.3-11.7 9.4-3.7 9.4 1.5 9.3-6.1 9.4-10 9.3-4.8 9.4-9.2 9.4 2.3 9.3-2.1 9.4 1.1 9.3-2.5 9.4 1.6 9.4 1.8 9.3-10.9 9.4 8L521 132l9.4 4.7 9.4-1.6 9.3 4.1 9.4 31.8 9.3-3.1 9.4-1.2 9.4-.2 9.3-2.3 9.4 6.8 9.3.9 9.4-.2 9.4 8.5 9.3 3.4 9.4 3.6 9.3 3.2 9.4 4.1 9.4 4.9 9.3 8.9 9.4 4.6 9.3 12 9.4 4.7"/><g><path fill="none" stroke="#BE5915" stroke-linecap="butt" stroke-linejoin="round" stroke-width="1.5" d="m90.5 257.1 9.3-12.4 9.4-3.4 9.4-4.7 9.3-8.1 9.4.6 9.3-1.9 9.4-3.4 9.4 3 9.3-7 9.4-4.4 9.3-3.8 9.4-2 9.4-.4 9.3-5.1 9.4-2.7 9.3-10 9.4 1.3 9.4-2.8 9.3-11 9.4-.7 9.3 1.2 9.4-1.4 9.4-10.5 9.3 1.4 9.4-2.5 9.3-1.8 9.4-4.5 9.4-1.9 9.3-.7 9.4 2 9.3-11.7 9.4-3.7 9.4 1.5 9.3-6.1 9.4-10 9.3-4.8 9.4-9.2 9.4 2.3 9.3-2.1 9.4 1.1 9.3-2.5 9.4 1.6 9.4 1.8 9.3-10.9 9.4 8L521 132l9.4 4.7 9.4-1.6 9.3 4.1 9.4 31.8 9.3-3.1 9.4-1.2 9.4-.2 9.3-2.3 9.4 6.8 9.3.9 9.4-.2 9.4 8.5 9.3 3.4 9.4 3.6 9.3 3.2 9.4 4.1 9.4 4.9 9.3 8.9 9.4 4.6 9.3 12 9.4 4.7"/></g><g><circle cx="90.5" cy="257.1" r="1.8" fill="#BE5915"/><circle cx="99.8" cy="244.7" r="1.8" fill="#BE5915"/><circle cx="109.2" cy="241.3" r="1.8" fill="#BE5915"/><circle cx="118.6" cy="236.6" r="1.8" fill="#BE5915"/><circle cx="127.9" cy="228.5" r="1.8" fill="#BE5915"/><circle cx="137.3" cy="229.1" r="1.8" fill="#BE5915"/><circle cx="146.6" cy="227.2" r="1.8" fill="#BE5915"/><circle cx="156" cy="223.8" r="1.8" fill="#BE5915"/><circle cx="165.4" cy="226.8" r="1.8" fill="#BE5915"/><circle cx="174.7" cy="219.8" r="1.8" fill="#BE5915"/><circle cx="184.1" cy="215.4" r="1.8" fill="#BE5915"/><circle cx="193.4" cy="211.6" r="1.8" fill="#BE5915"/><circle cx="202.8" cy="209.6" r="1.8" fill="#BE5915"/><circle cx="212.2" cy="209.2" r="1.8" fill="#BE5915"/><circle cx="221.5" cy="204.1" r="1.8" fill="#BE5915"/><circle cx="230.9" cy="201.4" r="1.8" fill="#BE5915"/><circle cx="240.2" cy="191.4" r="1.8" fill="#BE5915"/><circle cx="249.6" cy="192.7" r="1.8" fill="#BE5915"/><circle cx="259" cy="189.9" r="1.8" fill="#BE5915"/><circle cx="268.3" cy="178.9" r="1.8" fill="#BE5915"/><circle cx="277.7" cy="178.2" r="1.8" fill="#BE5915"/><circle cx="287" cy="179.4" r="1.8" fill="#BE5915"/><circle cx="296.4" cy="178" r="1.8" fill="#BE5915"/><circle cx="305.8" cy="167.5" r="1.8" fill="#BE5915"/><circle cx="315.1" cy="168.9" r="1.8" fill="#BE5915"/><circle cx="324.5" cy="166.4" r="1.8" fill="#BE5915"/><circle cx="333.8" cy="164.6" r="1.8" fill="#BE5915"/><circle cx="343.2" cy="160.1" r="1.8" fill="#BE5915"/><circle cx="352.6" cy="158.2" r="1.8" fill="#BE5915"/><circle cx="361.9" cy="157.5" r="1.8" fill="#BE5915"/><circle cx="371.3" cy="159.5" r="1.8" fill="#BE5915"/><circle cx="380.6" cy="147.8" r="1.8" fill="#BE5915"/><circle cx="390" cy="144.1" r="1.8" fill="#BE5915"/><circle cx="399.4" cy="145.6" r="1.8" fill="#BE5915"/><circle cx="408.7" cy="139.5" r="1.8" fill="#BE5915"/><circle cx="418.1" cy="129.5" r="1.8" fill="#BE5915"/><circle cx="427.4" cy="124.7" r="1.8" fill="#BE5915"/><circle cx="436.8" cy="115.5" r="1.8" fill="#BE5915"/><circle cx="446.2" cy="117.8" r="1.8" fill="#BE5915"/><circle cx="455.5" cy="115.7" r="1.8" fill="#BE5915"/><circle cx="464.9" cy="116.8" r="1.8" fill="#BE5915"/><circle cx="474.2" cy="114.3" r="1.8" fill="#BE5915"/><circle cx="483.6" cy="115.9" r="1.8" fill="#BE5915"/><circle cx="493" cy="117.7" r="1.8" fill="#BE5915"/><circle cx="502.3" cy="106.8" r="1.8" fill="#BE5915"/><circle cx="511.7" cy="114.8" r="1.8" fill="#BE5915"/><circle cx="521" cy="132" r="1.8" fill="#BE5915"/><circle cx="530.4" cy="136.7" r="1.8" fill="#BE5915"/><circle cx="539.8" cy="135.1" r="1.8" fill="#BE5915"/><circle cx="549.1" cy="139.2" r="1.8" fill="#BE5915"/><circle cx="558.5" cy="171" r="1.8" fill="#BE5915"/><circle cx="567.8" cy="167.9" r="1.8" fill="#BE5915"/><circle cx="577.2" cy="166.7" r="1.8" fill="#BE5915"/><circle cx="586.6" cy="166.5" r="1.8" fill="#BE5915"/><circle cx="595.9" cy="164.2" r="1.8" fill="#BE5915"/><circle cx="605.3" cy="171" r="1.8" fill="#BE5915"/><circle cx="614.6" cy="171.9" r="1.8" fill="#BE5915"/><circle cx="624" cy="171.7" r="1.8" fill="#BE5915"/><circle cx="633.4" cy="180.2" r="1.8" fill="#BE5915"/><circle cx="642.7" cy="183.6" r="1.8" fill="#BE5915"/><circle cx="652.1" cy="187.2" r="1.8" fill="#BE5915"/><circle cx="661.4" cy="190.4" r="1.8" fill="#BE5915"/><circle cx="670.8" cy="194.5" r="1.8" fill="#BE5915"/><circle cx="680.2" cy="199.4" r="1.8" fill="#BE5915"/><circle cx="689.5" cy="208.3" r="1.8" fill="#BE5915"/><circle cx="698.9" cy="212.9" r="1.8" fill="#BE5915"/><circle cx="708.2" cy="224.9" r="1.8" fill="#BE5915"/><circle cx="717.6" cy="229.6" r="1.8" fill="#BE5915"/></g></g><g><path fill="none" stroke="#fff" stroke-linecap="butt" stroke-linejoin="round" stroke-width="2.5" d="m43.7 246.1 9.3 2.4 9.4-2.8 9.4-.4 9.3.5h9.4l9.3-1.2h9.4l9.4 4 9.3.1 9.4-2.6 9.3.8h9.4l9.4-1.9 9.3.6 9.4-2.5 9.3-1 9.4-1.5 9.4-2 9.3.7 9.4-1.5 9.3 1.6 9.4-2 9.4.1 9.3-2.2 9.4 4.3 9.3-2.6 9.4-1 9.4-1.4 9.3 1.5 9.4-2.9 9.3 1.2 9.4-2.1 9.4-2 9.3-.2 9.4-.2 9.3.2 9.4.5h9.4l9.3-1 9.4-4.3 9.3 1.1 9.4 2.3 9.4.4 9.3 2 9.4 2.7 9.3 3.6 9.4 4.5 9.4 4.3 9.3.6 9.4 4.9 9.3 4.3 9.4 3.3 9.4 4.3 9.3 5.3 9.4 2.6 9.3 3.7 9.4 3.5 9.4 1.8 9.3 3.9 9.4 2.6 9.3 4 9.4 2.4 9.4 3.8 9.3 2.3 9.4 3.4 9.3 3.8 9.4 4.1 9.4 4.2 9.3 4.2 9.4 3 9.3 2.9"/><g><path fill="none" stroke="#2C8465" stroke-linecap="butt" stroke-linejoin="round" stroke-width="1.5" d="m43.7 246.1 9.3 2.4 9.4-2.8 9.4-.4 9.3.5h9.4l9.3-1.2h9.4l9.4 4 9.3.1 9.4-2.6 9.3.8h9.4l9.4-1.9 9.3.6 9.4-2.5 9.3-1 9.4-1.5 9.4-2 9.3.7 9.4-1.5 9.3 1.6 9.4-2 9.4.1 9.3-2.2 9.4 4.3 9.3-2.6 9.4-1 9.4-1.4 9.3 1.5 9.4-2.9 9.3 1.2 9.4-2.1 9.4-2 9.3-.2 9.4-.2 9.3.2 9.4.5h9.4l9.3-1 9.4-4.3 9.3 1.1 9.4 2.3 9.4.4 9.3 2 9.4 2.7 9.3 3.6 9.4 4.5 9.4 4.3 9.3.6 9.4 4.9 9.3 4.3 9.4 3.3 9.4 4.3 9.3 5.3 9.4 2.6 9.3 3.7 9.4 3.5 9.4 1.8 9.3 3.9 9.4 2.6 9.3 4 9.4 2.4 9.4 3.8 9.3 2.3 9.4 3.4 9.3 3.8 9.4 4.1 9.4 4.2 9.3 4.2 9.4 3 9.3 2.9"/></g><g><circle cx="43.7" cy="246.1" r="1.8" fill="#2C8465"/><circle cx="53" cy="248.5" r="1.8" fill="#2C8465"/><circle cx="62.4" cy="245.7" r="1.8" fill="#2C8465"/><circle cx="71.8" cy="245.3" r="1.8" fill="#2C8465"/><circle cx="81.1" cy="245.8" r="1.8" fill="#2C8465"/><circle cx="90.5" cy="245.8" r="1.8" fill="#2C8465"/><circle cx="99.8" cy="244.6" r="1.8" fill="#2C8465"/><circle cx="109.2" cy="244.6" r="1.8" fill="#2C8465"/><circle cx="118.6" cy="248.6" r="1.8" fill="#2C8465"/><circle cx="127.9" cy="248.7" r="1.8" fill="#2C8465"/><circle cx="137.3" cy="246.1" r="1.8" fill="#2C8465"/><circle cx="146.6" cy="246.9" r="1.8" fill="#2C8465"/><circle cx="156" cy="246.9" r="1.8" fill="#2C8465"/><circle cx="165.4" cy="245" r="1.8" fill="#2C8465"/><circle cx="174.7" cy="245.6" r="1.8" fill="#2C8465"/><circle cx="184.1" cy="243.1" r="1.8" fill="#2C8465"/><circle cx="193.4" cy="242.1" r="1.8" fill="#2C8465"/><circle cx="202.8" cy="240.6" r="1.8" fill="#2C8465"/><circle cx="212.2" cy="238.6" r="1.8" fill="#2C8465"/><circle cx="221.5" cy="239.3" r="1.8" fill="#2C8465"/><circle cx="230.9" cy="237.8" r="1.8" fill="#2C8465"/><circle cx="240.2" cy="239.4" r="1.8" fill="#2C8465"/><circle cx="249.6" cy="237.4" r="1.8" fill="#2C8465"/><circle cx="259" cy="237.5" r="1.8" fill="#2C8465"/><circle cx="268.3" cy="235.3" r="1.8" fill="#2C8465"/><circle cx="277.7" cy="239.6" r="1.8" fill="#2C8465"/><circle cx="287" cy="237" r="1.8" fill="#2C8465"/><circle cx="296.4" cy="236" r="1.8" fill="#2C8465"/><circle cx="305.8" cy="234.6" r="1.8" fill="#2C8465"/><circle cx="315.1" cy="236.1" r="1.8" fill="#2C8465"/><circle cx="324.5" cy="233.2" r="1.8" fill="#2C8465"/><circle cx="333.8" cy="234.4" r="1.8" fill="#2C8465"/><circle cx="343.2" cy="232.3" r="1.8" fill="#2C8465"/><circle cx="352.6" cy="230.3" r="1.8" fill="#2C8465"/><circle cx="361.9" cy="230.1" r="1.8" fill="#2C8465"/><circle cx="371.3" cy="229.9" r="1.8" fill="#2C8465"/><circle cx="380.6" cy="230.1" r="1.8" fill="#2C8465"/><circle cx="390" cy="230.6" r="1.8" fill="#2C8465"/><circle cx="399.4" cy="230.6" r="1.8" fill="#2C8465"/><circle cx="408.7" cy="229.6" r="1.8" fill="#2C8465"/><circle cx="418.1" cy="225.3" r="1.8" fill="#2C8465"/><circle cx="427.4" cy="226.4" r="1.8" fill="#2C8465"/><circle cx="436.8" cy="228.7" r="1.8" fill="#2C8465"/><circle cx="446.2" cy="229.1" r="1.8" fill="#2C8465"/><circle cx="455.5" cy="231.1" r="1.8" fill="#2C8465"/><circle cx="464.9" cy="233.8" r="1.8" fill="#2C8465"/><circle cx="474.2" cy="237.4" r="1.8" fill="#2C8465"/><circle cx="483.6" cy="241.9" r="1.8" fill="#2C8465"/><circle cx="493" cy="246.2" r="1.8" fill="#2C8465"/><circle cx="502.3" cy="246.8" r="1.8" fill="#2C8465"/><circle cx="511.7" cy="251.7" r="1.8" fill="#2C8465"/><circle cx="521" cy="256" r="1.8" fill="#2C8465"/><circle cx="530.4" cy="259.3" r="1.8" fill="#2C8465"/><circle cx="539.8" cy="263.6" r="1.8" fill="#2C8465"/><circle cx="549.1" cy="268.9" r="1.8" fill="#2C8465"/><circle cx="558.5" cy="271.5" r="1.8" fill="#2C8465"/><circle cx="567.8" cy="275.2" r="1.8" fill="#2C8465"/><circle cx="577.2" cy="278.7" r="1.8" fill="#2C8465"/><circle cx="586.6" cy="280.5" r="1.8" fill="#2C8465"/><circle cx="595.9" cy="284.4" r="1.8" fill="#2C8465"/><circle cx="605.3" cy="287" r="1.8" fill="#2C8465"/><circle cx="614.6" cy="291" r="1.8" fill="#2C8465"/><circle cx="624" cy="293.4" r="1.8" fill="#2C8465"/><circle cx="633.4" cy="297.2" r="1.8" fill="#2C8465"/><circle cx="642.7" cy="299.5" r="1.8" fill="#2C8465"/><circle cx="652.1" cy="302.9" r="1.8" fill="#2C8465"/><circle cx="661.4" cy="306.7" r="1.8" fill="#2C8465"/><circle cx="670.8" cy="310.8" r="1.8" fill="#2C8465"/><circle cx="680.2" cy="315" r="1.8" fill="#2C8465"/><circle cx="689.5" cy="319.2" r="1.8" fill="#2C8465"/><circle cx="698.9" cy="322.2" r="1.8" fill="#2C8465"/><circle cx="708.2" cy="325.1" r="1.8" fill="#2C8465"/></g></g><g><path fill="none" stroke="#fff" stroke-linecap="butt" stroke-linejoin="round" stroke-width="2.5" d="m43.7 268.8 9.3 2 9.4-6.6 9.4-2.7 9.3 3.3h9.4l9.3-2.4 9.4-1.7 9.4 6.9 9.3-6.8 9.4 4.5 9.3-1 9.4-.3 9.4-6.8 9.3-.9 9.4 5.4 9.3-4.9 9.4-.9 9.4-9.7 9.3.7 9.4-6.4 9.3 1.3 9.4-1.4 9.4-3.8 9.3-2.8 9.4 8.6 9.3-2.3 9.4 1.2 9.4-.3 9.3 3.6 9.4-7.1 9.3 3.2 9.4-4.4 9.4-2.3 9.3-2.4 9.4-1.2 9.3 7 9.4-2.3 9.4.9 9.3-3.1 9.4 6.8 9.3-.2 9.4 1.1 9.4 1.6 9.3-3.9 9.4 10.7 9.3-.6 9.4 7.2 9.4 2.2 9.3 7 9.4 2.3 9.3 1.5 9.4 2.3 9.4 6 9.3 1.3 18.7 3.8 9.4 7.1 9.4-3 9.3 6.9 9.4-.2 9.3 2.3 9.4 7.4 9.4.9 9.3 4.6 9.4-2.8 9.3 5.7 9.4 6.2 9.4-1 9.3-1.7 9.4 10.5 9.3-.7 9.4.6"/><g><path fill="none" stroke="#C15065" stroke-linecap="butt" stroke-linejoin="round" stroke-width="1.5" d="m43.7 268.8 9.3 2 9.4-6.6 9.4-2.7 9.3 3.3h9.4l9.3-2.4 9.4-1.7 9.4 6.9 9.3-6.8 9.4 4.5 9.3-1 9.4-.3 9.4-6.8 9.3-.9 9.4 5.4 9.3-4.9 9.4-.9 9.4-9.7 9.3.7 9.4-6.4 9.3 1.3 9.4-1.4 9.4-3.8 9.3-2.8 9.4 8.6 9.3-2.3 9.4 1.2 9.4-.3 9.3 3.6 9.4-7.1 9.3 3.2 9.4-4.4 9.4-2.3 9.3-2.4 9.4-1.2 9.3 7 9.4-2.3 9.4.9 9.3-3.1 9.4 6.8 9.3-.2 9.4 1.1 9.4 1.6 9.3-3.9 9.4 10.7 9.3-.6 9.4 7.2 9.4 2.2 9.3 7 9.4 2.3 9.3 1.5 9.4 2.3 9.4 6 9.3 1.3 18.7 3.8 9.4 7.1 9.4-3 9.3 6.9 9.4-.2 9.3 2.3 9.4 7.4 9.4.9 9.3 4.6 9.4-2.8 9.3 5.7 9.4 6.2 9.4-1 9.3-1.7 9.4 10.5 9.3-.7 9.4.6"/></g><g><circle cx="43.7" cy="268.8" r="1.8" fill="#C15065"/><circle cx="53" cy="270.8" r="1.8" fill="#C15065"/><circle cx="62.4" cy="264.2" r="1.8" fill="#C15065"/><circle cx="71.8" cy="261.5" r="1.8" fill="#C15065"/><circle cx="81.1" cy="264.8" r="1.8" fill="#C15065"/><circle cx="90.5" cy="264.8" r="1.8" fill="#C15065"/><circle cx="99.8" cy="262.4" r="1.8" fill="#C15065"/><circle cx="109.2" cy="260.7" r="1.8" fill="#C15065"/><circle cx="118.6" cy="267.6" r="1.8" fill="#C15065"/><circle cx="127.9" cy="260.8" r="1.8" fill="#C15065"/><circle cx="137.3" cy="265.3" r="1.8" fill="#C15065"/><circle cx="146.6" cy="264.3" r="1.8" fill="#C15065"/><circle cx="156" cy="264" r="1.8" fill="#C15065"/><circle cx="165.4" cy="257.2" r="1.8" fill="#C15065"/><circle cx="174.7" cy="256.3" r="1.8" fill="#C15065"/><circle cx="184.1" cy="261.7" r="1.8" fill="#C15065"/><circle cx="193.4" cy="256.8" r="1.8" fill="#C15065"/><circle cx="202.8" cy="255.9" r="1.8" fill="#C15065"/><circle cx="212.2" cy="246.2" r="1.8" fill="#C15065"/><circle cx="221.5" cy="246.9" r="1.8" fill="#C15065"/><circle cx="230.9" cy="240.5" r="1.8" fill="#C15065"/><circle cx="240.2" cy="241.8" r="1.8" fill="#C15065"/><circle cx="249.6" cy="240.4" r="1.8" fill="#C15065"/><circle cx="259" cy="236.6" r="1.8" fill="#C15065"/><circle cx="268.3" cy="233.8" r="1.8" fill="#C15065"/><circle cx="277.7" cy="242.4" r="1.8" fill="#C15065"/><circle cx="287" cy="240.1" r="1.8" fill="#C15065"/><circle cx="296.4" cy="241.3" r="1.8" fill="#C15065"/><circle cx="305.8" cy="241" r="1.8" fill="#C15065"/><circle cx="315.1" cy="244.6" r="1.8" fill="#C15065"/><circle cx="324.5" cy="237.5" r="1.8" fill="#C15065"/><circle cx="333.8" cy="240.7" r="1.8" fill="#C15065"/><circle cx="343.2" cy="236.3" r="1.8" fill="#C15065"/><circle cx="352.6" cy="234" r="1.8" fill="#C15065"/><circle cx="361.9" cy="231.6" r="1.8" fill="#C15065"/><circle cx="371.3" cy="230.4" r="1.8" fill="#C15065"/><circle cx="380.6" cy="237.4" r="1.8" fill="#C15065"/><circle cx="390" cy="235.1" r="1.8" fill="#C15065"/><circle cx="399.4" cy="236" r="1.8" fill="#C15065"/><circle cx="408.7" cy="232.9" r="1.8" fill="#C15065"/><circle cx="418.1" cy="239.7" r="1.8" fill="#C15065"/><circle cx="427.4" cy="239.5" r="1.8" fill="#C15065"/><circle cx="436.8" cy="240.6" r="1.8" fill="#C15065"/><circle cx="446.2" cy="242.2" r="1.8" fill="#C15065"/><circle cx="455.5" cy="238.3" r="1.8" fill="#C15065"/><circle cx="464.9" cy="249" r="1.8" fill="#C15065"/><circle cx="474.2" cy="248.4" r="1.8" fill="#C15065"/><circle cx="483.6" cy="255.6" r="1.8" fill="#C15065"/><circle cx="493" cy="257.8" r="1.8" fill="#C15065"/><circle cx="502.3" cy="264.8" r="1.8" fill="#C15065"/><circle cx="511.7" cy="267.1" r="1.8" fill="#C15065"/><circle cx="521" cy="268.6" r="1.8" fill="#C15065"/><circle cx="530.4" cy="270.9" r="1.8" fill="#C15065"/><circle cx="539.8" cy="276.9" r="1.8" fill="#C15065"/><circle cx="549.1" cy="278.2" r="1.8" fill="#C15065"/><circle cx="567.8" cy="282" r="1.8" fill="#C15065"/><circle cx="577.2" cy="289.1" r="1.8" fill="#C15065"/><circle cx="586.6" cy="286.1" r="1.8" fill="#C15065"/><circle cx="595.9" cy="293" r="1.8" fill="#C15065"/><circle cx="605.3" cy="292.8" r="1.8" fill="#C15065"/><circle cx="614.6" cy="295.1" r="1.8" fill="#C15065"/><circle cx="624" cy="302.5" r="1.8" fill="#C15065"/><circle cx="633.4" cy="303.4" r="1.8" fill="#C15065"/><circle cx="642.7" cy="308" r="1.8" fill="#C15065"/><circle cx="652.1" cy="305.2" r="1.8" fill="#C15065"/><circle cx="661.4" cy="310.9" r="1.8" fill="#C15065"/><circle cx="670.8" cy="317.1" r="1.8" fill="#C15065"/><circle cx="680.2" cy="316.1" r="1.8" fill="#C15065"/><circle cx="689.5" cy="314.4" r="1.8" fill="#C15065"/><circle cx="698.9" cy="324.9" r="1.8" fill="#C15065"/><circle cx="708.2" cy="324.2" r="1.8" fill="#C15065"/><circle cx="717.6" cy="324.8" r="1.8" fill="#C15065"/></g></g></g></g></g></g><g id="footer" class="SourcesFooter" style="fill:#5b5b5b"><g id="sources" class="markdown-text-wrap"><text x="16" y="546.5" style="font-size:13.5px;line-height:1.2"><tspan x="16" y="546.5"><tspan style="font-weight:700">Data source:</tspan> WHO Mortality Database (2024)</tspan></text></g><g id="note" class="markdown-text-wrap"><text x="16" y="564.7" style="font-size:13.5px;line-height:1.2"><tspan x="16" y="564.7"><tspan style="font-weight:700">Note:</tspan> To allow for comparisons between countries and over time, this metric is <tspan class="dod-span" data-id="age_standardized">age-standardized</tspan>. All deaths in a country may not have</tspan><tspan x="16" y="580.9">been registered with a <tspan class="dod-span" data-id="underlying-cause-of-death">cause of death</tspan>.</tspan></text></g><text id="origin-url" x="560.4" y="546.5" font-size="13.5"><tspan x="560.36" y="546.5"><a href="https://ourworldindata.org/causes-of-death" style="fill:#5b5b5b" target="_blank">OurWorldinData.org/causes-of-death</a> | <a href="https://creativecommons.org/licenses/by/4.0/" style="fill:#5b5b5b" target="_blank">CC BY</a></tspan></text></g></svg>