<svg xmlns="http://www.w3.org/2000/svg" width="850" height="600" style="font-family:Lato,&quot;Helvetica Neue&quot;,Helvetica,Arial,&quot;Liberation Sans&quot;,sans-serif;font-size:18px;background-color:#fff;text-rendering:geometricPrecision;-webkit-font-smoothing:antialiased" version="1.1" viewBox="0 0 850 600"><defs><style>@import url(https://ourworldindata.org/fonts.css);</style></defs><defs><pattern id="noDataPattern" width="4" height="4" patternTransform="rotate(-45 2 2)" patternUnits="userSpaceOnUse"><path stroke="#ccc" stroke-width=".7" d="M-1 2h6"/></pattern></defs><path fill="#fff" d="M0 0h850v600H0z" class="background-fill"/><g id="header" class="HeaderView"><g id="logo" transform="translate(769 16)"><svg xmlns="http://www.w3.org/2000/svg" width="65" height="36" fill="none" className="owidLogo" viewBox="0 0 65 36"><path fill="#002147" d="M0 0h64.8v36H0z"/><path fill="#CE261E" d="M0 33.3h64.8V36H0z"/><path fill="#fff" d="M13.8 10.57c0 .64-.11 1.23-.32 1.77a4.2 4.2 0 0 1-.9 1.4 4.08 4.08 0 0 1-1.38.94c-.54.22-1.14.33-1.8.33-.65 0-1.25-.11-1.8-.33a4.15 4.15 0 0 1-1.39-.93 4.2 4.2 0 0 1-.9-1.4A4.83 4.83 0 0 1 5 10.56c0-.63.1-1.22.32-1.76a4.18 4.18 0 0 1 .9-1.4 4.08 4.08 0 0 1 1.38-.93 4.68 4.68 0 0 1 1.8-.34c.66 0 1.26.11 1.8.34a4.08 4.08 0 0 1 2.28 2.33c.21.54.32 1.13.32 1.76Zm-1.66 0c0-.47-.06-.9-.2-1.27a2.67 2.67 0 0 0-.53-.97 2.33 2.33 0 0 0-.87-.6A2.94 2.94 0 0 0 9.4 7.5c-.42 0-.8.07-1.14.21-.34.14-.63.35-.87.61a2.74 2.74 0 0 0-.55.97 3.96 3.96 0 0 0-.19 1.27c0 .48.06.9.2 1.29a2.42 2.42 0 0 0 1.42 1.56c.33.14.71.2 1.13.2.43 0 .8-.06 1.14-.2a2.37 2.37 0 0 0 1.4-1.56 4.01 4.01 0 0 0 .2-1.29Zm3.96-1.81v3.9c0 .39.09.68.26.89.18.2.44.3.79.3.25 0 .5-.06.72-.17a2.58 2.58 0 0 0 .63-.47V8.76H20v6.15h-.91c-.2 0-.32-.09-.38-.27l-.1-.49a4.65 4.65 0 0 1-.4.35 2.58 2.58 0 0 1-.43.27 2.35 2.35 0 0 1-.5.17 2.35 2.35 0 0 1-.57.07c-.34 0-.64-.06-.9-.17a1.82 1.82 0 0 1-.64-.49 2.16 2.16 0 0 1-.4-.73 3.23 3.23 0 0 1-.14-.95V8.76h1.48Zm5.23 6.15V8.76h.87c.15 0 .26.02.32.08s.1.15.12.29l.09.74c.22-.38.47-.68.77-.9.3-.22.63-.33 1-.33.3 0 .55.07.75.21l-.19 1.11c-.01.07-.04.13-.08.16a.28.28 0 0 1-.16.04 1.01 1.01 0 0 1-.25-.04 1.65 1.65 0 0 0-.41-.04c-.3 0-.57.08-.8.25-.21.17-.4.42-.55.75v3.83h-1.48Zm6.02-8.67h1.35a.57.57 0 0 1 .35.1c.1.06.16.15.2.26l1.47 5.2a10.12 10.12 0 0 1 .19.9 5.97 5.97 0 0 1 .22-.9l1.7-5.2a.57.57 0 0 1 .2-.25.54.54 0 0 1 .34-.11h.48a.57.57 0 0 1 .34.1.5.5 0 0 1 .2.26l1.69 5.2c.08.25.16.53.22.85a31.71 31.71 0 0 1 .19-.86l1.47-5.19c.03-.1.1-.18.19-.25a.56.56 0 0 1 .34-.11h1.27l-2.7 8.67h-1.45L33.7 9l-.08-.25a9.5 9.5 0 0 1-.07-.28 4.04 4.04 0 0 1-.15.53L31.5 14.9h-1.46l-2.7-8.67Zm15.42 2.42c.46 0 .88.07 1.25.22s.7.36.96.63.47.6.61 1 .22.83.22 1.31c0 .5-.08.93-.22 1.32a2.85 2.85 0 0 1-.61 1 2.65 2.65 0 0 1-.96.64 3.35 3.35 0 0 1-1.25.22 3.4 3.4 0 0 1-1.25-.22 2.71 2.71 0 0 1-.97-.63 2.92 2.92 0 0 1-.62-1 3.8 3.8 0 0 1-.21-1.33c0-.48.07-.92.21-1.31a2.75 2.75 0 0 1 1.58-1.63 3.4 3.4 0 0 1 1.26-.22Zm0 5.2c.51 0 .9-.17 1.13-.51.25-.35.38-.85.38-1.52s-.13-1.17-.38-1.51c-.24-.35-.62-.53-1.13-.53-.52 0-.9.18-1.15.53-.25.35-.37.85-.37 1.51s.12 1.17.37 1.52c.25.34.63.51 1.15.51Zm3.95 1.05V8.76h.87c.15 0 .26.02.32.08s.1.15.12.29l.1.74c.21-.38.47-.68.76-.9.3-.22.63-.33 1-.33.3 0 .56.07.76.21l-.2 1.11c0 .07-.03.13-.07.16a.28.28 0 0 1-.17.04 1.01 1.01 0 0 1-.24-.04 1.65 1.65 0 0 0-.42-.04c-.3 0-.57.08-.79.25-.22.17-.4.42-.56.75v3.83h-1.48ZM52.96 6v8.91h-1.48V6h1.48Zm5.77 8.91c-.19 0-.32-.09-.38-.27l-.12-.6a3.68 3.68 0 0 1-.4.4 2.5 2.5 0 0 1-.98.5 2.37 2.37 0 0 1-.6.06c-.33 0-.64-.07-.92-.2a2.1 2.1 0 0 1-.73-.61 3.03 3.03 0 0 1-.46-1 5.07 5.07 0 0 1-.17-1.34c0-.45.07-.88.19-1.27s.3-.73.53-1.02c.24-.29.51-.51.84-.67a2.38 2.38 0 0 1 1.09-.25 2.1 2.1 0 0 1 1.54.6V6h1.48v8.91h-.9Zm-1.97-1.08c.3 0 .57-.07.78-.2.22-.12.42-.3.62-.54v-2.76a1.45 1.45 0 0 0-.56-.43 1.6 1.6 0 0 0-.63-.13c-.23 0-.43.04-.61.13a1.21 1.21 0 0 0-.47.38c-.12.17-.22.39-.28.65a4.3 4.3 0 0 0-.02 1.84c.06.25.14.45.25.61.1.16.24.27.4.34.15.07.33.1.52.1Zm-40.43 6.93v6.15h-1.48v-6.15h1.48Zm.22-1.8a.84.84 0 0 1-.07.36.96.96 0 0 1-.21.3 1 1 0 0 1-.3.2.96.96 0 0 1-.38.07.95.95 0 0 1-.36-.07 1.02 1.02 0 0 1-.5-.5.96.96 0 0 1 0-.73 1 1 0 0 1 .2-.3.93.93 0 0 1 .3-.2.9.9 0 0 1 .73 0 .91.91 0 0 1 .3.2.94.94 0 0 1 .3.67Zm1.22 7.95v-6.15h.9c.2 0 .32.09.38.27l.1.48a2.93 2.93 0 0 1 .84-.61 2.3 2.3 0 0 1 1.07-.24c.34 0 .63.06.9.18.25.1.47.27.64.48.18.2.3.45.4.73.09.29.13.6.13.95v3.91h-1.48V23c0-.38-.08-.67-.26-.87-.17-.21-.43-.32-.78-.32-.26 0-.5.06-.72.18a2.58 2.58 0 0 0-.64.47v4.45h-1.48Zm16.45-4.34c0 .64-.1 1.22-.32 1.76-.21.53-.5.99-.9 1.37a4 4 0 0 1-1.38.9 4.87 4.87 0 0 1-1.8.31h-3.3v-8.67h3.3a4.79 4.79 0 0 1 1.8.32 4 4 0 0 1 1.39.9c.38.37.68.83.9 1.36.2.53.31 1.12.31 1.75Zm-1.65 0c0-.47-.06-.9-.2-1.27a2.68 2.68 0 0 0-.54-.96 2.33 2.33 0 0 0-.86-.6 2.94 2.94 0 0 0-1.14-.22h-1.69v6.1h1.69c.42 0 .8-.06 1.14-.2.34-.14.63-.34.86-.6a2.75 2.75 0 0 0 .55-.96 4.01 4.01 0 0 0 .19-1.29Zm7.41 4.34h-.67a.75.75 0 0 1-.33-.06c-.07-.04-.13-.13-.17-.25l-.14-.44c-.15.14-.3.26-.46.37a2.8 2.8 0 0 1-.46.26c-.16.08-.33.13-.51.17a3.07 3.07 0 0 1-1.32-.05 1.62 1.62 0 0 1-.57-.32 1.45 1.45 0 0 1-.37-.52 1.85 1.85 0 0 1-.13-.73c0-.23.06-.46.18-.68.12-.23.33-.44.61-.62.29-.18.67-.33 1.14-.45a8.01 8.01 0 0 1 1.75-.2v-.36c0-.42-.08-.72-.26-.92-.17-.2-.42-.3-.76-.3a1.84 1.84 0 0 0-1.01.28l-.33.19a.66.66 0 0 1-.33.08.43.43 0 0 1-.26-.08.61.61 0 0 1-.17-.2l-.27-.46c.7-.65 1.56-.98 2.56-.98.36 0 .68.06.96.18a1.99 1.99 0 0 1 1.16 1.25c.1.29.16.6.16.96v3.88ZM37.1 26c.15 0 .3-.01.42-.04a1.81 1.81 0 0 0 .69-.33c.1-.09.22-.19.32-.3v-1.04c-.43.02-.79.06-1.08.12a2.8 2.8 0 0 0-.7.2.92.92 0 0 0-.37.3.66.66 0 0 0-.11.36c0 .26.07.45.22.56.16.11.36.17.61.17ZM43.22 27c-.53 0-.94-.15-1.23-.45-.29-.3-.43-.72-.43-1.25v-3.44h-.63a.31.31 0 0 1-.2-.08c-.06-.05-.09-.13-.09-.23v-.6l.99-.15.31-1.68a.3.3 0 0 1 .11-.2.36.36 0 0 1 .22-.06h.77v1.94h1.62v1.06h-1.62v3.33c0 .2.05.35.14.45a.49.49 0 0 0 .39.17.73.73 0 0 0 .39-.1l.12-.07a.2.2 0 0 1 .11-.04.16.16 0 0 1 .11.04c.03.02.06.05.09.1l.44.71c-.21.18-.46.32-.74.41a2.77 2.77 0 0 1-.87.14Zm7.2-.1h-.66a.75.75 0 0 1-.33-.06c-.08-.04-.14-.13-.18-.25l-.13-.44c-.16.14-.31.26-.47.37a2.8 2.8 0 0 1-.46.26c-.16.08-.33.13-.5.17a3.07 3.07 0 0 1-1.33-.05 1.62 1.62 0 0 1-.57-.32 1.45 1.45 0 0 1-.36-.52 1.85 1.85 0 0 1-.14-.73c0-.23.06-.46.18-.68.13-.23.33-.44.62-.62.28-.18.66-.33 1.13-.45a8.01 8.01 0 0 1 1.76-.2v-.36c0-.42-.1-.72-.27-.92-.17-.2-.42-.3-.75-.3a1.84 1.84 0 0 0-1.02.28l-.33.19a.66.66 0 0 1-.33.08.43.43 0 0 1-.25-.08.61.61 0 0 1-.18-.2l-.27-.46c.7-.65 1.56-.98 2.56-.98.36 0 .68.06.96.18a1.99 1.99 0 0 1 1.17 1.25c.1.29.15.6.15.96v3.88ZM47.54 26c.16 0 .3-.01.42-.04a1.88 1.88 0 0 0 .69-.33l.33-.3v-1.04c-.44.02-.8.06-1.09.12a2.8 2.8 0 0 0-.7.2.92.92 0 0 0-.37.3.66.66 0 0 0-.11.36c0 .26.08.45.23.56.15.11.36.17.6.17Z"/></svg></g><a id="title" href="https://ourworldindata.org/grapher/cancer-death-rate-in-children-under-5-years-old-by-type" rel="noopener" style="font-family:&quot;Playfair Display&quot;,Georgia,&quot;Times New Roman&quot;,&quot;Liberation Serif&quot;,serif" target="_blank"><text x="16" y="39.5" fill="#5b5b5b" font-size="24.25" font-weight="600"><tspan x="16" y="39.52">Cancer death rate in children under 5 years old by type, World</tspan></text></a><g id="subtitle" class="markdown-text-wrap"><text x="16" y="63.3" fill="#5b5b5b" style="font-size:14.625px;line-height:1.2"><tspan x="16" y="63.3">Estimated number of cancer-related deaths among children under 5 years old, categorized by <tspan class="dod-span" data-id="cancer">cancer</tspan> type, per</tspan><tspan x="16" y="80.8">100,000 population.</tspan></text></g></g><g id="chart-area" style="pointer-events:none"><g id="line-chart" class="LineChart"><defs><clipPath id="boundsClip-1"><path d="M18.56 90.2h838v453.4h-838z"/></clipPath></defs><path fill="none" d="M16 100.2h818v433.4H16z"/><g id="dual-axis" class="DualAxisView"><g id="horizontal-axis" class="HorizontalAxis"><g id="tick__1980"><path stroke="#999" stroke-width="1" d="M28.6 512.6v5.5"/><text x="28.56" y="531.6" fill="#5b5b5b" font-size="13.5" text-anchor="start">1980</text></g><g id="tick__2021"><path stroke="#999" stroke-width="1" d="M642.4 512.6v5.5"/><text x="642.4" y="531.6" fill="#5b5b5b" font-size="13.5" text-anchor="end">2021</text></g><g id="tick__1985"><path stroke="#999" stroke-width="1" d="M103.4 512.6v5.5"/><text x="103.4" y="531.6" fill="#5b5b5b" font-size="13.5" text-anchor="middle">1985</text></g><g id="tick__1990"><path stroke="#999" stroke-width="1" d="M178.3 512.6v5.5"/><text x="178.3" y="531.6" fill="#5b5b5b" font-size="13.5" text-anchor="middle">1990</text></g><g id="tick__1995"><path stroke="#999" stroke-width="1" d="M253.1 512.6v5.5"/><text x="253.1" y="531.6" fill="#5b5b5b" font-size="13.5" text-anchor="middle">1995</text></g><g id="tick__2000"><path stroke="#999" stroke-width="1" d="M328 512.6v5.5"/><text x="328" y="531.6" fill="#5b5b5b" font-size="13.5" text-anchor="middle">2000</text></g><g id="tick__2005"><path stroke="#999" stroke-width="1" d="M402.9 512.6v5.5"/><text x="402.9" y="531.6" fill="#5b5b5b" font-size="13.5" text-anchor="middle">2005</text></g><g id="tick__2010"><path stroke="#999" stroke-width="1" d="M477.7 512.6v5.5"/><text x="477.7" y="531.6" fill="#5b5b5b" font-size="13.5" text-anchor="middle">2010</text></g><g id="tick__2015"><path stroke="#999" stroke-width="1" d="M552.6 512.6v5.5"/><text x="552.6" y="531.6" fill="#5b5b5b" font-size="13.5" text-anchor="middle">2015</text></g></g><g id="vertical-axis" class="VerticalAxis"><g id="tick-labels"><text id="tick-label__0" x="23.56" y="513.1" fill="#5b5b5b" dy=".32em" font-size="13.5" text-anchor="end">0</text><text id="tick-label__1" x="23.56" y="437.6" fill="#5b5b5b" dy=".32em" font-size="13.5" text-anchor="end">1</text><text id="tick-label__2" x="23.56" y="362" fill="#5b5b5b" dy=".32em" font-size="13.5" text-anchor="end">2</text><text id="tick-label__3" x="23.56" y="286.5" fill="#5b5b5b" dy=".32em" font-size="13.5" text-anchor="end">3</text><text id="tick-label__4" x="23.56" y="210.9" fill="#5b5b5b" dy=".32em" font-size="13.5" text-anchor="end">4</text><text id="tick-label__5" x="23.56" y="135.4" fill="#5b5b5b" dy=".32em" font-size="13.5" text-anchor="end">5</text></g></g><g id="horizontal-grid-lines" class="AxisGridLines horizontalLines"><path id="grid-line__0" stroke="#999" stroke-width="1" d="M28.56 513.1H642.4"/><path id="grid-line__1" stroke="#ddd" stroke-dasharray="3,2" stroke-width="1" d="M28.56 437.6H642.4"/><path id="grid-line__2" stroke="#ddd" stroke-dasharray="3,2" stroke-width="1" d="M28.56 362H642.4"/><path id="grid-line__3" stroke="#ddd" stroke-dasharray="3,2" stroke-width="1" d="M28.56 286.5H642.4"/><path id="grid-line__4" stroke="#ddd" stroke-dasharray="3,2" stroke-width="1" d="M28.56 210.9H642.4"/><path id="grid-line__5" stroke="#ddd" stroke-dasharray="3,2" stroke-width="1" d="M28.56 135.4H642.4"/></g></g><g clip-path="url(#boundsClip-1)"><g id="line-labels" class="LineLabels"><g id="mark__Leukemia" class="legendMark" style="cursor:default"><g id="connector" class="indicator"><path fill="none" stroke="#999" stroke-width=".5" d="M646.4 396.3h27"/></g><text id="label" x="677.4" y="401.3" fill="#cf0a66" font-size="13.5" font-weight="400"><tspan x="677.4" y="401.3">Leukemia</tspan></text></g><g id="mark__Brain-and-nervous-system" class="legendMark" style="cursor:default"><g class="indicator"><path fill="none" stroke="#999" stroke-width=".5" d="M646.4 448.1h6.75v-1.88h20.25"/></g><text x="677.4" y="451.2" fill="#6d3e91" font-size="13.5" font-weight="400"><tspan x="677.4" y="451.22">Brain and nervous system</tspan></text></g><g id="mark__Non-Hodgkin-lymphoma" class="legendMark" style="cursor:default"><g class="indicator"><path fill="none" stroke="#999" stroke-width=".5" d="M646.4 475.3h13.5v-13.58h13.5"/></g><text x="677.4" y="466.7" fill="#18470f" font-size="13.5" font-weight="400"><tspan x="677.4" y="466.72">Non-Hodgkin lymphoma</tspan></text></g><g id="mark__Eye" class="legendMark" style="cursor:default"><g class="indicator"><path fill="none" stroke="#999" stroke-width=".5" d="M646.4 485.1h20.25v-7.88h6.75"/></g><text x="677.4" y="482.2" fill="#2c8465" font-size="13.5" font-weight="400"><tspan x="677.4" y="482.22">Eye</tspan></text></g><g id="mark__Kidney" class="legendMark" style="cursor:default"><g class="indicator"><path fill="none" stroke="#999" stroke-width=".5" d="M646.4 487.5h20.25v5.22h6.75"/></g><text x="677.4" y="497.7" fill="#be5915" font-size="13.5" font-weight="400"><tspan x="677.4" y="497.72">Kidney</tspan></text></g><g id="mark__Liver" class="legendMark" style="cursor:default"><g class="indicator"><path fill="none" stroke="#999" stroke-width=".5" d="M646.4 490.1h13.5v18.12h13.5"/></g><text x="677.4" y="513.2" fill="#c15065" font-size="13.5" font-weight="400"><tspan x="677.4" y="513.22">Liver</tspan></text></g></g><g id="lines" class="Lines"><g id="line__Non-Hodgkin-lymphoma"><path fill="none" stroke="#ddd" stroke-linecap="round" stroke-linejoin="round" stroke-width="1" d="m28.6 423.1 14.9 1.6 15 2 15 2.2 14.9 1.8 15 1.6 15 1.1 15 .9 14.9 1.1 15 1.1 15 .9 14.9.2 15 .6 15 .9 15 1.2 14.9 1.2 15 1.8 15 1.6 15 2.5 14.9 2 15 1.7 15 2.5 14.9 1.9 15 1.9 15 1.6 15 1.4 14.9.9 15 1.3 15 .7 14.9.7 15 .9 15 .2 15 .3 14.9-.1 15 .2 15 .5 14.9.8 15 1.8 15 1.7 15 1.5 14.9 1.6 15 1.9"/></g><g id="line__Leukemia"><path fill="none" stroke="#ddd" stroke-linecap="round" stroke-linejoin="round" stroke-width="1" d="m28.6 106.2 14.9 8.7 15 9.9 15 8.1 14.9 5 15 3.3 15 3.1 15 3.1 14.9 3.7 15 3.5 15 3.6 14.9 2.7 15 6.9 15 10.4 15 10.8 14.9 11.2 15 11.4 15 11 15 13.1 14.9 11.7 15 10.3 15 12.2 14.9 11.6 15 10.5 15 9.8 15 7.9 14.9 7.9 15 7.4 15 4.8 14.9 5.9 15 6.7 15 5.1 15 4.1 14.9 3.1 15 2.4 15 2.8 14.9 3.9 15 3.5 15 4.2 15 3.9 14.9 14.5 15 6.4"/></g><g id="line__Brain-and-nervous-system"><path fill="none" stroke="#ddd" stroke-linecap="round" stroke-linejoin="round" stroke-width="1" d="m28.6 394.7 14.9 1.2 15 1.2 15 1 14.9-.5 15-.7 15-.9 15-1.6 14.9-1.4 15-1.2 15-1 14.9-.8 15 .9 15 1.9 15 2.3 14.9 2.3 15 2.3 15 2.5 15 3.6 14.9 3.4 15 2.8 15 3.5 14.9 3.6 15 3.6 15 2.6 15 2.3 14.9 1.9 15 1.7 15 .9 14.9 1.4 15 1.3 15 .8 15 .7 14.9.1 15 .1 15 .1 14.9.4 15 .3 15 1 15 .6 14.9 7 15 2.2"/></g><g id="line__Kidney"><path fill="none" stroke="#ddd" stroke-linecap="round" stroke-linejoin="round" stroke-width="1" d="m28.6 473.3 14.9.2 15 .5 15 .5 14.9.1h59.9l15 .2h29.9l15 .5 15 1.1 15 1.1 14.9.9 15 .8 15 .6 15 .8 14.9.4 15 .3 15 .2 14.9.4 15 .5 15 .5 15 .3 14.9.1 15 .2 15 .3 14.9.1 15 .2 15 .1 15-.1 14.9-.2 15-.2h29.9l15 .5 15 .6 15 .5 14.9 1.4 15 .8"/></g><g id="line__Eye"><path fill="none" stroke="#ddd" stroke-linecap="round" stroke-linejoin="round" stroke-width="1" d="m28.6 478 14.9-.1 15-.2 15 .2 14.9.1h15l15 .2 15 .2 14.9.1 15 .3 15 .1 14.9.4h15l15 .2 15 .1h14.9l15 .2 15 .2 15 .3 14.9.2 15 .1 15 .6 14.9.2 15-.1h15l15-.1 14.9-.3 15-.1 15 .2 14.9.1 15 .2 15-.3 15-.2 14.9-.3 15 .2 15 .5 14.9.6 15 .6 15 .6 15 .3 14.9 1.2 15 .6"/></g><g id="line__Liver"><path fill="none" stroke="#ddd" stroke-linecap="round" stroke-linejoin="round" stroke-width="1" d="m28.6 455.4 14.9 1.2 15 1.4 15 1.2 14.9.6 15 .5 15 .8 15 .8 14.9.6 15 .5 15 .4 14.9.5 15 .6 15 .5 15 .4 14.9.4 15 .8 15 1.1 15 1.4 14.9 1.2 15 1.2 15 1.3 14.9 1.5 15 1.9 15 1.5 15 1.1 14.9.8 15 .9 15 .5 14.9.8 15 .8 15 .7 15 .4 14.9.1 15 .4 15 .5 14.9.6 15 1 15 1 15 .9 14.9.9 15 1"/></g><g><path id="outline" fill="none" stroke="#fff" stroke-linecap="butt" stroke-linejoin="round" stroke-width="2.5" d="m28.6 423.1 14.9 1.6 15 2 15 2.2 14.9 1.8 15 1.6 15 1.1 15 .9 14.9 1.1 15 1.1 15 .9 14.9.2 15 .6 15 .9 15 1.2 14.9 1.2 15 1.8 15 1.6 15 2.5 14.9 2 15 1.7 15 2.5 14.9 1.9 15 1.9 15 1.6 15 1.4 14.9.9 15 1.3 15 .7 14.9.7 15 .9 15 .2 15 .3 14.9-.1 15 .2 15 .5 14.9.8 15 1.8 15 1.7 15 1.5 14.9 1.6 15 1.9"/><g id="polyline"><path fill="none" stroke="#18470F" stroke-linecap="butt" stroke-linejoin="round" stroke-width="1.5" d="m28.6 423.1 14.9 1.6 15 2 15 2.2 14.9 1.8 15 1.6 15 1.1 15 .9 14.9 1.1 15 1.1 15 .9 14.9.2 15 .6 15 .9 15 1.2 14.9 1.2 15 1.8 15 1.6 15 2.5 14.9 2 15 1.7 15 2.5 14.9 1.9 15 1.9 15 1.6 15 1.4 14.9.9 15 1.3 15 .7 14.9.7 15 .9 15 .2 15 .3 14.9-.1 15 .2 15 .5 14.9.8 15 1.8 15 1.7 15 1.5 14.9 1.6 15 1.9"/></g><g id="markers"><circle cx="28.6" cy="423.1" r="1.8" fill="#18470F"/><circle cx="43.5" cy="424.7" r="1.8" fill="#18470F"/><circle cx="58.5" cy="426.7" r="1.8" fill="#18470F"/><circle cx="73.5" cy="428.9" r="1.8" fill="#18470F"/><circle cx="88.4" cy="430.7" r="1.8" fill="#18470F"/><circle cx="103.4" cy="432.3" r="1.8" fill="#18470F"/><circle cx="118.4" cy="433.4" r="1.8" fill="#18470F"/><circle cx="133.4" cy="434.3" r="1.8" fill="#18470F"/><circle cx="148.3" cy="435.4" r="1.8" fill="#18470F"/><circle cx="163.3" cy="436.5" r="1.8" fill="#18470F"/><circle cx="178.3" cy="437.4" r="1.8" fill="#18470F"/><circle cx="193.2" cy="437.6" r="1.8" fill="#18470F"/><circle cx="208.2" cy="438.2" r="1.8" fill="#18470F"/><circle cx="223.2" cy="439.1" r="1.8" fill="#18470F"/><circle cx="238.2" cy="440.3" r="1.8" fill="#18470F"/><circle cx="253.1" cy="441.5" r="1.8" fill="#18470F"/><circle cx="268.1" cy="443.3" r="1.8" fill="#18470F"/><circle cx="283.1" cy="444.9" r="1.8" fill="#18470F"/><circle cx="298.1" cy="447.4" r="1.8" fill="#18470F"/><circle cx="313" cy="449.4" r="1.8" fill="#18470F"/><circle cx="328" cy="451.1" r="1.8" fill="#18470F"/><circle cx="343" cy="453.6" r="1.8" fill="#18470F"/><circle cx="357.9" cy="455.5" r="1.8" fill="#18470F"/><circle cx="372.9" cy="457.4" r="1.8" fill="#18470F"/><circle cx="387.9" cy="459" r="1.8" fill="#18470F"/><circle cx="402.9" cy="460.4" r="1.8" fill="#18470F"/><circle cx="417.8" cy="461.3" r="1.8" fill="#18470F"/><circle cx="432.8" cy="462.6" r="1.8" fill="#18470F"/><circle cx="447.8" cy="463.3" r="1.8" fill="#18470F"/><circle cx="462.7" cy="464" r="1.8" fill="#18470F"/><circle cx="477.7" cy="464.9" r="1.8" fill="#18470F"/><circle cx="492.7" cy="465.1" r="1.8" fill="#18470F"/><circle cx="507.7" cy="465.4" r="1.8" fill="#18470F"/><circle cx="522.6" cy="465.3" r="1.8" fill="#18470F"/><circle cx="537.6" cy="465.5" r="1.8" fill="#18470F"/><circle cx="552.6" cy="466" r="1.8" fill="#18470F"/><circle cx="567.5" cy="466.8" r="1.8" fill="#18470F"/><circle cx="582.5" cy="468.6" r="1.8" fill="#18470F"/><circle cx="597.5" cy="470.3" r="1.8" fill="#18470F"/><circle cx="612.5" cy="471.8" r="1.8" fill="#18470F"/><circle cx="627.4" cy="473.4" r="1.8" fill="#18470F"/><circle cx="642.4" cy="475.3" r="1.8" fill="#18470F"/></g></g><g><path fill="none" stroke="#fff" stroke-linecap="butt" stroke-linejoin="round" stroke-width="2.5" d="m28.6 106.2 14.9 8.7 15 9.9 15 8.1 14.9 5 15 3.3 15 3.1 15 3.1 14.9 3.7 15 3.5 15 3.6 14.9 2.7 15 6.9 15 10.4 15 10.8 14.9 11.2 15 11.4 15 11 15 13.1 14.9 11.7 15 10.3 15 12.2 14.9 11.6 15 10.5 15 9.8 15 7.9 14.9 7.9 15 7.4 15 4.8 14.9 5.9 15 6.7 15 5.1 15 4.1 14.9 3.1 15 2.4 15 2.8 14.9 3.9 15 3.5 15 4.2 15 3.9 14.9 14.5 15 6.4"/><g><path fill="none" stroke="#CF0A66" stroke-linecap="butt" stroke-linejoin="round" stroke-width="1.5" d="m28.6 106.2 14.9 8.7 15 9.9 15 8.1 14.9 5 15 3.3 15 3.1 15 3.1 14.9 3.7 15 3.5 15 3.6 14.9 2.7 15 6.9 15 10.4 15 10.8 14.9 11.2 15 11.4 15 11 15 13.1 14.9 11.7 15 10.3 15 12.2 14.9 11.6 15 10.5 15 9.8 15 7.9 14.9 7.9 15 7.4 15 4.8 14.9 5.9 15 6.7 15 5.1 15 4.1 14.9 3.1 15 2.4 15 2.8 14.9 3.9 15 3.5 15 4.2 15 3.9 14.9 14.5 15 6.4"/></g><g><circle cx="28.6" cy="106.2" r="1.8" fill="#CF0A66"/><circle cx="43.5" cy="114.9" r="1.8" fill="#CF0A66"/><circle cx="58.5" cy="124.8" r="1.8" fill="#CF0A66"/><circle cx="73.5" cy="132.9" r="1.8" fill="#CF0A66"/><circle cx="88.4" cy="137.9" r="1.8" fill="#CF0A66"/><circle cx="103.4" cy="141.2" r="1.8" fill="#CF0A66"/><circle cx="118.4" cy="144.3" r="1.8" fill="#CF0A66"/><circle cx="133.4" cy="147.4" r="1.8" fill="#CF0A66"/><circle cx="148.3" cy="151.1" r="1.8" fill="#CF0A66"/><circle cx="163.3" cy="154.6" r="1.8" fill="#CF0A66"/><circle cx="178.3" cy="158.2" r="1.8" fill="#CF0A66"/><circle cx="193.2" cy="160.9" r="1.8" fill="#CF0A66"/><circle cx="208.2" cy="167.8" r="1.8" fill="#CF0A66"/><circle cx="223.2" cy="178.2" r="1.8" fill="#CF0A66"/><circle cx="238.2" cy="189" r="1.8" fill="#CF0A66"/><circle cx="253.1" cy="200.2" r="1.8" fill="#CF0A66"/><circle cx="268.1" cy="211.6" r="1.8" fill="#CF0A66"/><circle cx="283.1" cy="222.6" r="1.8" fill="#CF0A66"/><circle cx="298.1" cy="235.7" r="1.8" fill="#CF0A66"/><circle cx="313" cy="247.4" r="1.8" fill="#CF0A66"/><circle cx="328" cy="257.7" r="1.8" fill="#CF0A66"/><circle cx="343" cy="269.9" r="1.8" fill="#CF0A66"/><circle cx="357.9" cy="281.5" r="1.8" fill="#CF0A66"/><circle cx="372.9" cy="292" r="1.8" fill="#CF0A66"/><circle cx="387.9" cy="301.8" r="1.8" fill="#CF0A66"/><circle cx="402.9" cy="309.7" r="1.8" fill="#CF0A66"/><circle cx="417.8" cy="317.6" r="1.8" fill="#CF0A66"/><circle cx="432.8" cy="325" r="1.8" fill="#CF0A66"/><circle cx="447.8" cy="329.8" r="1.8" fill="#CF0A66"/><circle cx="462.7" cy="335.7" r="1.8" fill="#CF0A66"/><circle cx="477.7" cy="342.4" r="1.8" fill="#CF0A66"/><circle cx="492.7" cy="347.5" r="1.8" fill="#CF0A66"/><circle cx="507.7" cy="351.6" r="1.8" fill="#CF0A66"/><circle cx="522.6" cy="354.7" r="1.8" fill="#CF0A66"/><circle cx="537.6" cy="357.1" r="1.8" fill="#CF0A66"/><circle cx="552.6" cy="359.9" r="1.8" fill="#CF0A66"/><circle cx="567.5" cy="363.8" r="1.8" fill="#CF0A66"/><circle cx="582.5" cy="367.3" r="1.8" fill="#CF0A66"/><circle cx="597.5" cy="371.5" r="1.8" fill="#CF0A66"/><circle cx="612.5" cy="375.4" r="1.8" fill="#CF0A66"/><circle cx="627.4" cy="389.9" r="1.8" fill="#CF0A66"/><circle cx="642.4" cy="396.3" r="1.8" fill="#CF0A66"/></g></g><g><path fill="none" stroke="#fff" stroke-linecap="butt" stroke-linejoin="round" stroke-width="2.5" d="m28.6 394.7 14.9 1.2 15 1.2 15 1 14.9-.5 15-.7 15-.9 15-1.6 14.9-1.4 15-1.2 15-1 14.9-.8 15 .9 15 1.9 15 2.3 14.9 2.3 15 2.3 15 2.5 15 3.6 14.9 3.4 15 2.8 15 3.5 14.9 3.6 15 3.6 15 2.6 15 2.3 14.9 1.9 15 1.7 15 .9 14.9 1.4 15 1.3 15 .8 15 .7 14.9.1 15 .1 15 .1 14.9.4 15 .3 15 1 15 .6 14.9 7 15 2.2"/><g><path fill="none" stroke="#6D3E91" stroke-linecap="butt" stroke-linejoin="round" stroke-width="1.5" d="m28.6 394.7 14.9 1.2 15 1.2 15 1 14.9-.5 15-.7 15-.9 15-1.6 14.9-1.4 15-1.2 15-1 14.9-.8 15 .9 15 1.9 15 2.3 14.9 2.3 15 2.3 15 2.5 15 3.6 14.9 3.4 15 2.8 15 3.5 14.9 3.6 15 3.6 15 2.6 15 2.3 14.9 1.9 15 1.7 15 .9 14.9 1.4 15 1.3 15 .8 15 .7 14.9.1 15 .1 15 .1 14.9.4 15 .3 15 1 15 .6 14.9 7 15 2.2"/></g><g><circle cx="28.6" cy="394.7" r="1.8" fill="#6D3E91"/><circle cx="43.5" cy="395.9" r="1.8" fill="#6D3E91"/><circle cx="58.5" cy="397.1" r="1.8" fill="#6D3E91"/><circle cx="73.5" cy="398.1" r="1.8" fill="#6D3E91"/><circle cx="88.4" cy="397.6" r="1.8" fill="#6D3E91"/><circle cx="103.4" cy="396.9" r="1.8" fill="#6D3E91"/><circle cx="118.4" cy="396" r="1.8" fill="#6D3E91"/><circle cx="133.4" cy="394.4" r="1.8" fill="#6D3E91"/><circle cx="148.3" cy="393" r="1.8" fill="#6D3E91"/><circle cx="163.3" cy="391.8" r="1.8" fill="#6D3E91"/><circle cx="178.3" cy="390.8" r="1.8" fill="#6D3E91"/><circle cx="193.2" cy="390" r="1.8" fill="#6D3E91"/><circle cx="208.2" cy="390.9" r="1.8" fill="#6D3E91"/><circle cx="223.2" cy="392.8" r="1.8" fill="#6D3E91"/><circle cx="238.2" cy="395.1" r="1.8" fill="#6D3E91"/><circle cx="253.1" cy="397.4" r="1.8" fill="#6D3E91"/><circle cx="268.1" cy="399.7" r="1.8" fill="#6D3E91"/><circle cx="283.1" cy="402.2" r="1.8" fill="#6D3E91"/><circle cx="298.1" cy="405.8" r="1.8" fill="#6D3E91"/><circle cx="313" cy="409.2" r="1.8" fill="#6D3E91"/><circle cx="328" cy="412" r="1.8" fill="#6D3E91"/><circle cx="343" cy="415.5" r="1.8" fill="#6D3E91"/><circle cx="357.9" cy="419.1" r="1.8" fill="#6D3E91"/><circle cx="372.9" cy="422.7" r="1.8" fill="#6D3E91"/><circle cx="387.9" cy="425.3" r="1.8" fill="#6D3E91"/><circle cx="402.9" cy="427.6" r="1.8" fill="#6D3E91"/><circle cx="417.8" cy="429.5" r="1.8" fill="#6D3E91"/><circle cx="432.8" cy="431.2" r="1.8" fill="#6D3E91"/><circle cx="447.8" cy="432.1" r="1.8" fill="#6D3E91"/><circle cx="462.7" cy="433.5" r="1.8" fill="#6D3E91"/><circle cx="477.7" cy="434.8" r="1.8" fill="#6D3E91"/><circle cx="492.7" cy="435.6" r="1.8" fill="#6D3E91"/><circle cx="507.7" cy="436.3" r="1.8" fill="#6D3E91"/><circle cx="522.6" cy="436.4" r="1.8" fill="#6D3E91"/><circle cx="537.6" cy="436.5" r="1.8" fill="#6D3E91"/><circle cx="552.6" cy="436.6" r="1.8" fill="#6D3E91"/><circle cx="567.5" cy="437" r="1.8" fill="#6D3E91"/><circle cx="582.5" cy="437.3" r="1.8" fill="#6D3E91"/><circle cx="597.5" cy="438.3" r="1.8" fill="#6D3E91"/><circle cx="612.5" cy="438.9" r="1.8" fill="#6D3E91"/><circle cx="627.4" cy="445.9" r="1.8" fill="#6D3E91"/><circle cx="642.4" cy="448.1" r="1.8" fill="#6D3E91"/></g></g><g><path fill="none" stroke="#fff" stroke-linecap="butt" stroke-linejoin="round" stroke-width="2.5" d="m28.6 473.3 14.9.2 15 .5 15 .5 14.9.1h59.9l15 .2h29.9l15 .5 15 1.1 15 1.1 14.9.9 15 .8 15 .6 15 .8 14.9.4 15 .3 15 .2 14.9.4 15 .5 15 .5 15 .3 14.9.1 15 .2 15 .3 14.9.1 15 .2 15 .1 15-.1 14.9-.2 15-.2h29.9l15 .5 15 .6 15 .5 14.9 1.4 15 .8"/><g><path fill="none" stroke="#BE5915" stroke-linecap="butt" stroke-linejoin="round" stroke-width="1.5" d="m28.6 473.3 14.9.2 15 .5 15 .5 14.9.1h59.9l15 .2h29.9l15 .5 15 1.1 15 1.1 14.9.9 15 .8 15 .6 15 .8 14.9.4 15 .3 15 .2 14.9.4 15 .5 15 .5 15 .3 14.9.1 15 .2 15 .3 14.9.1 15 .2 15 .1 15-.1 14.9-.2 15-.2h29.9l15 .5 15 .6 15 .5 14.9 1.4 15 .8"/></g><g><circle cx="28.6" cy="473.3" r="1.8" fill="#BE5915"/><circle cx="43.5" cy="473.5" r="1.8" fill="#BE5915"/><circle cx="58.5" cy="474" r="1.8" fill="#BE5915"/><circle cx="73.5" cy="474.5" r="1.8" fill="#BE5915"/><circle cx="88.4" cy="474.6" r="1.8" fill="#BE5915"/><circle cx="103.4" cy="474.6" r="1.8" fill="#BE5915"/><circle cx="118.4" cy="474.6" r="1.8" fill="#BE5915"/><circle cx="133.4" cy="474.6" r="1.8" fill="#BE5915"/><circle cx="148.3" cy="474.6" r="1.8" fill="#BE5915"/><circle cx="163.3" cy="474.8" r="1.8" fill="#BE5915"/><circle cx="178.3" cy="474.8" r="1.8" fill="#BE5915"/><circle cx="193.2" cy="474.8" r="1.8" fill="#BE5915"/><circle cx="208.2" cy="475.3" r="1.8" fill="#BE5915"/><circle cx="223.2" cy="476.4" r="1.8" fill="#BE5915"/><circle cx="238.2" cy="477.5" r="1.8" fill="#BE5915"/><circle cx="253.1" cy="478.4" r="1.8" fill="#BE5915"/><circle cx="268.1" cy="479.2" r="1.8" fill="#BE5915"/><circle cx="283.1" cy="479.8" r="1.8" fill="#BE5915"/><circle cx="298.1" cy="480.6" r="1.8" fill="#BE5915"/><circle cx="313" cy="481" r="1.8" fill="#BE5915"/><circle cx="328" cy="481.3" r="1.8" fill="#BE5915"/><circle cx="343" cy="481.5" r="1.8" fill="#BE5915"/><circle cx="357.9" cy="481.9" r="1.8" fill="#BE5915"/><circle cx="372.9" cy="482.4" r="1.8" fill="#BE5915"/><circle cx="387.9" cy="482.9" r="1.8" fill="#BE5915"/><circle cx="402.9" cy="483.2" r="1.8" fill="#BE5915"/><circle cx="417.8" cy="483.3" r="1.8" fill="#BE5915"/><circle cx="432.8" cy="483.5" r="1.8" fill="#BE5915"/><circle cx="447.8" cy="483.8" r="1.8" fill="#BE5915"/><circle cx="462.7" cy="483.9" r="1.8" fill="#BE5915"/><circle cx="477.7" cy="484.1" r="1.8" fill="#BE5915"/><circle cx="492.7" cy="484.2" r="1.8" fill="#BE5915"/><circle cx="507.7" cy="484.1" r="1.8" fill="#BE5915"/><circle cx="522.6" cy="483.9" r="1.8" fill="#BE5915"/><circle cx="537.6" cy="483.7" r="1.8" fill="#BE5915"/><circle cx="552.6" cy="483.7" r="1.8" fill="#BE5915"/><circle cx="567.5" cy="483.7" r="1.8" fill="#BE5915"/><circle cx="582.5" cy="484.2" r="1.8" fill="#BE5915"/><circle cx="597.5" cy="484.8" r="1.8" fill="#BE5915"/><circle cx="612.5" cy="485.3" r="1.8" fill="#BE5915"/><circle cx="627.4" cy="486.7" r="1.8" fill="#BE5915"/><circle cx="642.4" cy="487.5" r="1.8" fill="#BE5915"/></g></g><g><path fill="none" stroke="#fff" stroke-linecap="butt" stroke-linejoin="round" stroke-width="2.5" d="m28.6 478 14.9-.1 15-.2 15 .2 14.9.1h15l15 .2 15 .2 14.9.1 15 .3 15 .1 14.9.4h15l15 .2 15 .1h14.9l15 .2 15 .2 15 .3 14.9.2 15 .1 15 .6 14.9.2 15-.1h15l15-.1 14.9-.3 15-.1 15 .2 14.9.1 15 .2 15-.3 15-.2 14.9-.3 15 .2 15 .5 14.9.6 15 .6 15 .6 15 .3 14.9 1.2 15 .6"/><g><path fill="none" stroke="#2C8465" stroke-linecap="butt" stroke-linejoin="round" stroke-width="1.5" d="m28.6 478 14.9-.1 15-.2 15 .2 14.9.1h15l15 .2 15 .2 14.9.1 15 .3 15 .1 14.9.4h15l15 .2 15 .1h14.9l15 .2 15 .2 15 .3 14.9.2 15 .1 15 .6 14.9.2 15-.1h15l15-.1 14.9-.3 15-.1 15 .2 14.9.1 15 .2 15-.3 15-.2 14.9-.3 15 .2 15 .5 14.9.6 15 .6 15 .6 15 .3 14.9 1.2 15 .6"/></g><g><circle cx="28.6" cy="478" r="1.8" fill="#2C8465"/><circle cx="43.5" cy="477.9" r="1.8" fill="#2C8465"/><circle cx="58.5" cy="477.7" r="1.8" fill="#2C8465"/><circle cx="73.5" cy="477.9" r="1.8" fill="#2C8465"/><circle cx="88.4" cy="478" r="1.8" fill="#2C8465"/><circle cx="103.4" cy="478" r="1.8" fill="#2C8465"/><circle cx="118.4" cy="478.2" r="1.8" fill="#2C8465"/><circle cx="133.4" cy="478.4" r="1.8" fill="#2C8465"/><circle cx="148.3" cy="478.5" r="1.8" fill="#2C8465"/><circle cx="163.3" cy="478.8" r="1.8" fill="#2C8465"/><circle cx="178.3" cy="478.9" r="1.8" fill="#2C8465"/><circle cx="193.2" cy="479.3" r="1.8" fill="#2C8465"/><circle cx="208.2" cy="479.3" r="1.8" fill="#2C8465"/><circle cx="223.2" cy="479.5" r="1.8" fill="#2C8465"/><circle cx="238.2" cy="479.6" r="1.8" fill="#2C8465"/><circle cx="253.1" cy="479.6" r="1.8" fill="#2C8465"/><circle cx="268.1" cy="479.8" r="1.8" fill="#2C8465"/><circle cx="283.1" cy="480" r="1.8" fill="#2C8465"/><circle cx="298.1" cy="480.3" r="1.8" fill="#2C8465"/><circle cx="313" cy="480.5" r="1.8" fill="#2C8465"/><circle cx="328" cy="480.6" r="1.8" fill="#2C8465"/><circle cx="343" cy="481.2" r="1.8" fill="#2C8465"/><circle cx="357.9" cy="481.4" r="1.8" fill="#2C8465"/><circle cx="372.9" cy="481.3" r="1.8" fill="#2C8465"/><circle cx="387.9" cy="481.3" r="1.8" fill="#2C8465"/><circle cx="402.9" cy="481.2" r="1.8" fill="#2C8465"/><circle cx="417.8" cy="480.9" r="1.8" fill="#2C8465"/><circle cx="432.8" cy="480.8" r="1.8" fill="#2C8465"/><circle cx="447.8" cy="481" r="1.8" fill="#2C8465"/><circle cx="462.7" cy="481.1" r="1.8" fill="#2C8465"/><circle cx="477.7" cy="481.3" r="1.8" fill="#2C8465"/><circle cx="492.7" cy="481" r="1.8" fill="#2C8465"/><circle cx="507.7" cy="480.8" r="1.8" fill="#2C8465"/><circle cx="522.6" cy="480.5" r="1.8" fill="#2C8465"/><circle cx="537.6" cy="480.7" r="1.8" fill="#2C8465"/><circle cx="552.6" cy="481.2" r="1.8" fill="#2C8465"/><circle cx="567.5" cy="481.8" r="1.8" fill="#2C8465"/><circle cx="582.5" cy="482.4" r="1.8" fill="#2C8465"/><circle cx="597.5" cy="483" r="1.8" fill="#2C8465"/><circle cx="612.5" cy="483.3" r="1.8" fill="#2C8465"/><circle cx="627.4" cy="484.5" r="1.8" fill="#2C8465"/><circle cx="642.4" cy="485.1" r="1.8" fill="#2C8465"/></g></g><g><path fill="none" stroke="#fff" stroke-linecap="butt" stroke-linejoin="round" stroke-width="2.5" d="m28.6 455.4 14.9 1.2 15 1.4 15 1.2 14.9.6 15 .5 15 .8 15 .8 14.9.6 15 .5 15 .4 14.9.5 15 .6 15 .5 15 .4 14.9.4 15 .8 15 1.1 15 1.4 14.9 1.2 15 1.2 15 1.3 14.9 1.5 15 1.9 15 1.5 15 1.1 14.9.8 15 .9 15 .5 14.9.8 15 .8 15 .7 15 .4 14.9.1 15 .4 15 .5 14.9.6 15 1 15 1 15 .9 14.9.9 15 1"/><g><path fill="none" stroke="#C15065" stroke-linecap="butt" stroke-linejoin="round" stroke-width="1.5" d="m28.6 455.4 14.9 1.2 15 1.4 15 1.2 14.9.6 15 .5 15 .8 15 .8 14.9.6 15 .5 15 .4 14.9.5 15 .6 15 .5 15 .4 14.9.4 15 .8 15 1.1 15 1.4 14.9 1.2 15 1.2 15 1.3 14.9 1.5 15 1.9 15 1.5 15 1.1 14.9.8 15 .9 15 .5 14.9.8 15 .8 15 .7 15 .4 14.9.1 15 .4 15 .5 14.9.6 15 1 15 1 15 .9 14.9.9 15 1"/></g><g><circle cx="28.6" cy="455.4" r="1.8" fill="#C15065"/><circle cx="43.5" cy="456.6" r="1.8" fill="#C15065"/><circle cx="58.5" cy="458" r="1.8" fill="#C15065"/><circle cx="73.5" cy="459.2" r="1.8" fill="#C15065"/><circle cx="88.4" cy="459.8" r="1.8" fill="#C15065"/><circle cx="103.4" cy="460.3" r="1.8" fill="#C15065"/><circle cx="118.4" cy="461.1" r="1.8" fill="#C15065"/><circle cx="133.4" cy="461.9" r="1.8" fill="#C15065"/><circle cx="148.3" cy="462.5" r="1.8" fill="#C15065"/><circle cx="163.3" cy="463" r="1.8" fill="#C15065"/><circle cx="178.3" cy="463.4" r="1.8" fill="#C15065"/><circle cx="193.2" cy="463.9" r="1.8" fill="#C15065"/><circle cx="208.2" cy="464.5" r="1.8" fill="#C15065"/><circle cx="223.2" cy="465" r="1.8" fill="#C15065"/><circle cx="238.2" cy="465.4" r="1.8" fill="#C15065"/><circle cx="253.1" cy="465.8" r="1.8" fill="#C15065"/><circle cx="268.1" cy="466.6" r="1.8" fill="#C15065"/><circle cx="283.1" cy="467.7" r="1.8" fill="#C15065"/><circle cx="298.1" cy="469.1" r="1.8" fill="#C15065"/><circle cx="313" cy="470.3" r="1.8" fill="#C15065"/><circle cx="328" cy="471.5" r="1.8" fill="#C15065"/><circle cx="343" cy="472.8" r="1.8" fill="#C15065"/><circle cx="357.9" cy="474.3" r="1.8" fill="#C15065"/><circle cx="372.9" cy="476.2" r="1.8" fill="#C15065"/><circle cx="387.9" cy="477.7" r="1.8" fill="#C15065"/><circle cx="402.9" cy="478.8" r="1.8" fill="#C15065"/><circle cx="417.8" cy="479.6" r="1.8" fill="#C15065"/><circle cx="432.8" cy="480.5" r="1.8" fill="#C15065"/><circle cx="447.8" cy="481" r="1.8" fill="#C15065"/><circle cx="462.7" cy="481.8" r="1.8" fill="#C15065"/><circle cx="477.7" cy="482.6" r="1.8" fill="#C15065"/><circle cx="492.7" cy="483.3" r="1.8" fill="#C15065"/><circle cx="507.7" cy="483.7" r="1.8" fill="#C15065"/><circle cx="522.6" cy="483.8" r="1.8" fill="#C15065"/><circle cx="537.6" cy="484.2" r="1.8" fill="#C15065"/><circle cx="552.6" cy="484.7" r="1.8" fill="#C15065"/><circle cx="567.5" cy="485.3" r="1.8" fill="#C15065"/><circle cx="582.5" cy="486.3" r="1.8" fill="#C15065"/><circle cx="597.5" cy="487.3" r="1.8" fill="#C15065"/><circle cx="612.5" cy="488.2" r="1.8" fill="#C15065"/><circle cx="627.4" cy="489.1" r="1.8" fill="#C15065"/><circle cx="642.4" cy="490.1" r="1.8" fill="#C15065"/></g></g></g></g></g></g><g id="footer" class="SourcesFooter" style="fill:#5b5b5b"><g id="sources" class="markdown-text-wrap"><text x="16" y="562.7" style="font-size:13.5px;line-height:1.2"><tspan x="16" y="562.7"><tspan style="font-weight:700">Data source:</tspan> IHME, Global Burden of Disease (2024)</tspan></text></g><g id="note" class="markdown-text-wrap"><text x="16" y="580.9" style="font-size:13.5px;line-height:1.2"><tspan x="16" y="580.9"><tspan style="font-weight:700">Note:</tspan> Only cancer types with a global death rate above 0.1 in the relevant age group for the latest available year are shown.</tspan></text></g><text id="origin-url" x="616.9" y="562.7" font-size="13.5"><tspan x="616.92" y="562.7"><a href="https://ourworldindata.org/cancer" style="fill:#5b5b5b" target="_blank">OurWorldinData.org/cancer</a> | <a href="https://creativecommons.org/licenses/by/4.0/" style="fill:#5b5b5b" target="_blank">CC BY</a></tspan></text></g></svg>