<svg xmlns="http://www.w3.org/2000/svg" width="850" height="600" style="font-family:Lato,&quot;Helvetica Neue&quot;,Helvetica,Arial,&quot;Liberation Sans&quot;,sans-serif;font-size:18px;background-color:#fff;text-rendering:geometricPrecision;-webkit-font-smoothing:antialiased" version="1.1" viewBox="0 0 850 600"><defs><style>@import url(https://ourworldindata.org/fonts.css);</style></defs><defs><pattern id="noDataPattern" width="4" height="4" patternTransform="rotate(-45 2 2)" patternUnits="userSpaceOnUse"><path stroke="#ccc" stroke-width=".7" d="M-1 2h6"/></pattern></defs><path fill="#fff" d="M0 0h850v600H0z" class="background-fill"/><g id="header" class="HeaderView"><g id="logo" transform="translate(769 16)"><svg xmlns="http://www.w3.org/2000/svg" width="65" height="36" fill="none" className="owidLogo" viewBox="0 0 65 36"><path fill="#002147" d="M0 0h64.8v36H0z"/><path fill="#CE261E" d="M0 33.3h64.8V36H0z"/><path fill="#fff" d="M13.8 10.57c0 .64-.11 1.23-.32 1.77a4.2 4.2 0 0 1-.9 1.4 4.08 4.08 0 0 1-1.38.94c-.54.22-1.14.33-1.8.33-.65 0-1.25-.11-1.8-.33a4.15 4.15 0 0 1-1.39-.93 4.2 4.2 0 0 1-.9-1.4A4.83 4.83 0 0 1 5 10.56c0-.63.1-1.22.32-1.76a4.18 4.18 0 0 1 .9-1.4 4.08 4.08 0 0 1 1.38-.93 4.68 4.68 0 0 1 1.8-.34c.66 0 1.26.11 1.8.34a4.08 4.08 0 0 1 2.28 2.33c.21.54.32 1.13.32 1.76Zm-1.66 0c0-.47-.06-.9-.2-1.27a2.67 2.67 0 0 0-.53-.97 2.33 2.33 0 0 0-.87-.6A2.94 2.94 0 0 0 9.4 7.5c-.42 0-.8.07-1.14.21-.34.14-.63.35-.87.61a2.74 2.74 0 0 0-.55.97 3.96 3.96 0 0 0-.19 1.27c0 .48.06.9.2 1.29a2.42 2.42 0 0 0 1.42 1.56c.33.14.71.2 1.13.2.43 0 .8-.06 1.14-.2a2.37 2.37 0 0 0 1.4-1.56 4.01 4.01 0 0 0 .2-1.29Zm3.96-1.81v3.9c0 .39.09.68.26.89.18.2.44.3.79.3.25 0 .5-.06.72-.17a2.58 2.58 0 0 0 .63-.47V8.76H20v6.15h-.91c-.2 0-.32-.09-.38-.27l-.1-.49a4.65 4.65 0 0 1-.4.35 2.58 2.58 0 0 1-.43.27 2.35 2.35 0 0 1-.5.17 2.35 2.35 0 0 1-.57.07c-.34 0-.64-.06-.9-.17a1.82 1.82 0 0 1-.64-.49 2.16 2.16 0 0 1-.4-.73 3.23 3.23 0 0 1-.14-.95V8.76h1.48Zm5.23 6.15V8.76h.87c.15 0 .26.02.32.08s.1.15.12.29l.09.74c.22-.38.47-.68.77-.9.3-.22.63-.33 1-.33.3 0 .55.07.75.21l-.19 1.11c-.01.07-.04.13-.08.16a.28.28 0 0 1-.16.04 1.01 1.01 0 0 1-.25-.04 1.65 1.65 0 0 0-.41-.04c-.3 0-.57.08-.8.25-.21.17-.4.42-.55.75v3.83h-1.48Zm6.02-8.67h1.35a.57.57 0 0 1 .35.1c.1.06.16.15.2.26l1.47 5.2a10.12 10.12 0 0 1 .19.9 5.97 5.97 0 0 1 .22-.9l1.7-5.2a.57.57 0 0 1 .2-.25.54.54 0 0 1 .34-.11h.48a.57.57 0 0 1 .34.1.5.5 0 0 1 .2.26l1.69 5.2c.08.25.16.53.22.85a31.71 31.71 0 0 1 .19-.86l1.47-5.19c.03-.1.1-.18.19-.25a.56.56 0 0 1 .34-.11h1.27l-2.7 8.67h-1.45L33.7 9l-.08-.25a9.5 9.5 0 0 1-.07-.28 4.04 4.04 0 0 1-.15.53L31.5 14.9h-1.46l-2.7-8.67Zm15.42 2.42c.46 0 .88.07 1.25.22s.7.36.96.63.47.6.61 1 .22.83.22 1.31c0 .5-.08.93-.22 1.32a2.85 2.85 0 0 1-.61 1 2.65 2.65 0 0 1-.96.64 3.35 3.35 0 0 1-1.25.22 3.4 3.4 0 0 1-1.25-.22 2.71 2.71 0 0 1-.97-.63 2.92 2.92 0 0 1-.62-1 3.8 3.8 0 0 1-.21-1.33c0-.48.07-.92.21-1.31a2.75 2.75 0 0 1 1.58-1.63 3.4 3.4 0 0 1 1.26-.22Zm0 5.2c.51 0 .9-.17 1.13-.51.25-.35.38-.85.38-1.52s-.13-1.17-.38-1.51c-.24-.35-.62-.53-1.13-.53-.52 0-.9.18-1.15.53-.25.35-.37.85-.37 1.51s.12 1.17.37 1.52c.25.34.63.51 1.15.51Zm3.95 1.05V8.76h.87c.15 0 .26.02.32.08s.1.15.12.29l.1.74c.21-.38.47-.68.76-.9.3-.22.63-.33 1-.33.3 0 .56.07.76.21l-.2 1.11c0 .07-.03.13-.07.16a.28.28 0 0 1-.17.04 1.01 1.01 0 0 1-.24-.04 1.65 1.65 0 0 0-.42-.04c-.3 0-.57.08-.79.25-.22.17-.4.42-.56.75v3.83h-1.48ZM52.96 6v8.91h-1.48V6h1.48Zm5.77 8.91c-.19 0-.32-.09-.38-.27l-.12-.6a3.68 3.68 0 0 1-.4.4 2.5 2.5 0 0 1-.98.5 2.37 2.37 0 0 1-.6.06c-.33 0-.64-.07-.92-.2a2.1 2.1 0 0 1-.73-.61 3.03 3.03 0 0 1-.46-1 5.07 5.07 0 0 1-.17-1.34c0-.45.07-.88.19-1.27s.3-.73.53-1.02c.24-.29.51-.51.84-.67a2.38 2.38 0 0 1 1.09-.25 2.1 2.1 0 0 1 1.54.6V6h1.48v8.91h-.9Zm-1.97-1.08c.3 0 .57-.07.78-.2.22-.12.42-.3.62-.54v-2.76a1.45 1.45 0 0 0-.56-.43 1.6 1.6 0 0 0-.63-.13c-.23 0-.43.04-.61.13a1.21 1.21 0 0 0-.47.38c-.12.17-.22.39-.28.65a4.3 4.3 0 0 0-.02 1.84c.06.25.14.45.25.61.1.16.24.27.4.34.15.07.33.1.52.1Zm-40.43 6.93v6.15h-1.48v-6.15h1.48Zm.22-1.8a.84.84 0 0 1-.07.36.96.96 0 0 1-.21.3 1 1 0 0 1-.3.2.96.96 0 0 1-.38.07.95.95 0 0 1-.36-.07 1.02 1.02 0 0 1-.5-.5.96.96 0 0 1 0-.73 1 1 0 0 1 .2-.3.93.93 0 0 1 .3-.2.9.9 0 0 1 .73 0 .91.91 0 0 1 .3.2.94.94 0 0 1 .3.67Zm1.22 7.95v-6.15h.9c.2 0 .32.09.38.27l.1.48a2.93 2.93 0 0 1 .84-.61 2.3 2.3 0 0 1 1.07-.24c.34 0 .63.06.9.18.25.1.47.27.64.48.18.2.3.45.4.73.09.29.13.6.13.95v3.91h-1.48V23c0-.38-.08-.67-.26-.87-.17-.21-.43-.32-.78-.32-.26 0-.5.06-.72.18a2.58 2.58 0 0 0-.64.47v4.45h-1.48Zm16.45-4.34c0 .64-.1 1.22-.32 1.76-.21.53-.5.99-.9 1.37a4 4 0 0 1-1.38.9 4.87 4.87 0 0 1-1.8.31h-3.3v-8.67h3.3a4.79 4.79 0 0 1 1.8.32 4 4 0 0 1 1.39.9c.38.37.68.83.9 1.36.2.53.31 1.12.31 1.75Zm-1.65 0c0-.47-.06-.9-.2-1.27a2.68 2.68 0 0 0-.54-.96 2.33 2.33 0 0 0-.86-.6 2.94 2.94 0 0 0-1.14-.22h-1.69v6.1h1.69c.42 0 .8-.06 1.14-.2.34-.14.63-.34.86-.6a2.75 2.75 0 0 0 .55-.96 4.01 4.01 0 0 0 .19-1.29Zm7.41 4.34h-.67a.75.75 0 0 1-.33-.06c-.07-.04-.13-.13-.17-.25l-.14-.44c-.15.14-.3.26-.46.37a2.8 2.8 0 0 1-.46.26c-.16.08-.33.13-.51.17a3.07 3.07 0 0 1-1.32-.05 1.62 1.62 0 0 1-.57-.32 1.45 1.45 0 0 1-.37-.52 1.85 1.85 0 0 1-.13-.73c0-.23.06-.46.18-.68.12-.23.33-.44.61-.62.29-.18.67-.33 1.14-.45a8.01 8.01 0 0 1 1.75-.2v-.36c0-.42-.08-.72-.26-.92-.17-.2-.42-.3-.76-.3a1.84 1.84 0 0 0-1.01.28l-.33.19a.66.66 0 0 1-.33.08.43.43 0 0 1-.26-.08.61.61 0 0 1-.17-.2l-.27-.46c.7-.65 1.56-.98 2.56-.98.36 0 .68.06.96.18a1.99 1.99 0 0 1 1.16 1.25c.1.29.16.6.16.96v3.88ZM37.1 26c.15 0 .3-.01.42-.04a1.81 1.81 0 0 0 .69-.33c.1-.09.22-.19.32-.3v-1.04c-.43.02-.79.06-1.08.12a2.8 2.8 0 0 0-.7.2.92.92 0 0 0-.37.3.66.66 0 0 0-.11.36c0 .26.07.45.22.56.16.11.36.17.61.17ZM43.22 27c-.53 0-.94-.15-1.23-.45-.29-.3-.43-.72-.43-1.25v-3.44h-.63a.31.31 0 0 1-.2-.08c-.06-.05-.09-.13-.09-.23v-.6l.99-.15.31-1.68a.3.3 0 0 1 .11-.2.36.36 0 0 1 .22-.06h.77v1.94h1.62v1.06h-1.62v3.33c0 .2.05.35.14.45a.49.49 0 0 0 .39.17.73.73 0 0 0 .39-.1l.12-.07a.2.2 0 0 1 .11-.04.16.16 0 0 1 .11.04c.03.02.06.05.09.1l.44.71c-.21.18-.46.32-.74.41a2.77 2.77 0 0 1-.87.14Zm7.2-.1h-.66a.75.75 0 0 1-.33-.06c-.08-.04-.14-.13-.18-.25l-.13-.44c-.16.14-.31.26-.47.37a2.8 2.8 0 0 1-.46.26c-.16.08-.33.13-.5.17a3.07 3.07 0 0 1-1.33-.05 1.62 1.62 0 0 1-.57-.32 1.45 1.45 0 0 1-.36-.52 1.85 1.85 0 0 1-.14-.73c0-.23.06-.46.18-.68.13-.23.33-.44.62-.62.28-.18.66-.33 1.13-.45a8.01 8.01 0 0 1 1.76-.2v-.36c0-.42-.1-.72-.27-.92-.17-.2-.42-.3-.75-.3a1.84 1.84 0 0 0-1.02.28l-.33.19a.66.66 0 0 1-.33.08.43.43 0 0 1-.25-.08.61.61 0 0 1-.18-.2l-.27-.46c.7-.65 1.56-.98 2.56-.98.36 0 .68.06.96.18a1.99 1.99 0 0 1 1.17 1.25c.1.29.15.6.15.96v3.88ZM47.54 26c.16 0 .3-.01.42-.04a1.88 1.88 0 0 0 .69-.33l.33-.3v-1.04c-.44.02-.8.06-1.09.12a2.8 2.8 0 0 0-.7.2.92.92 0 0 0-.37.3.66.66 0 0 0-.11.36c0 .26.08.45.23.56.15.11.36.17.6.17Z"/></svg></g><a id="title" href="https://ourworldindata.org/grapher/cancer-death-rates-by-type-who-db" rel="noopener" style="font-family:&quot;Playfair Display&quot;,Georgia,&quot;Times New Roman&quot;,&quot;Liberation Serif&quot;,serif" target="_blank"><text x="16" y="40" fill="#5b5b5b" font-size="24.75" font-weight="600"><tspan x="16" y="40.01">Cancer death rates by type, United States</tspan></text></a><g id="subtitle" class="markdown-text-wrap"><text x="16" y="63.9" fill="#5b5b5b" style="font-size:14.625px;line-height:1.2"><tspan x="16" y="63.9">The reported annual death rate from different types of <tspan class="dod-span" data-id="cancer">cancer</tspan> per 100,000 people, based on the <tspan class="dod-span" data-id="underlying-cause-of-death">underlying cause</tspan></tspan><tspan x="16" y="81.4">listed on death certificates.</tspan></text></g></g><g id="chart-area" style="pointer-events:none"><g id="horizontal-axis" class="HorizontalAxis"><g id="tick-marks"><path id="1950" stroke="#999" stroke-width="1" d="M36.1 496.4v5.5"/><path id="2021" stroke="#999" stroke-width="1" d="M595.7 496.4v5.5"/><path id="1960" stroke="#999" stroke-width="1" d="M114.9 496.4v5.5"/><path id="1970" stroke="#999" stroke-width="1" d="M193.7 496.4v5.5"/><path id="1980" stroke="#999" stroke-width="1" d="M272.6 496.4v5.5"/><path id="1990" stroke="#999" stroke-width="1" d="M351.4 496.4v5.5"/><path id="2000" stroke="#999" stroke-width="1" d="M430.2 496.4v5.5"/><path id="2010" stroke="#999" stroke-width="1" d="M509 496.4v5.5"/></g><g id="tick-labels"><text x="36.12" y="515.4" fill="#5b5b5b" font-size="13.5" text-anchor="start">1950</text><text x="595.69" y="515.4" fill="#5b5b5b" font-size="13.5" text-anchor="end">2021</text><text x="114.9" y="515.4" fill="#5b5b5b" font-size="13.5" text-anchor="middle">1960</text><text x="193.7" y="515.4" fill="#5b5b5b" font-size="13.5" text-anchor="middle">1970</text><text x="272.6" y="515.4" fill="#5b5b5b" font-size="13.5" text-anchor="middle">1980</text><text x="351.4" y="515.4" fill="#5b5b5b" font-size="13.5" text-anchor="middle">1990</text><text x="430.2" y="515.4" fill="#5b5b5b" font-size="13.5" text-anchor="middle">2000</text><text x="509" y="515.4" fill="#5b5b5b" font-size="13.5" text-anchor="middle">2010</text></g></g><g id="vertical-axis" class="VerticalAxis"><g><text x="31.12" y="496.9" fill="#5b5b5b" dy=".32em" font-size="13.5" text-anchor="end">0</text><text x="31.12" y="408.1" fill="#5b5b5b" dy=".32em" font-size="13.5" text-anchor="end">10</text><text x="31.12" y="319.2" fill="#5b5b5b" dy=".32em" font-size="13.5" text-anchor="end">20</text><text x="31.12" y="230.4" fill="#5b5b5b" dy=".32em" font-size="13.5" text-anchor="end">30</text><text x="31.12" y="141.6" fill="#5b5b5b" dy=".32em" font-size="13.5" text-anchor="end">40</text></g></g><g id="horizontal-grid-lines" class="AxisGridLines horizontalLines"><path id="0" stroke="#999" stroke-width="1" d="M36.12 496.9h559.57"/><path id="10" stroke="#ddd" stroke-dasharray="3,2" stroke-width="1" d="M36.12 408.1h559.57"/><path id="20" stroke="#ddd" stroke-dasharray="3,2" stroke-width="1" d="M36.12 319.2h559.57"/><path id="30" stroke="#ddd" stroke-dasharray="3,2" stroke-width="1" d="M36.12 230.4h559.57"/><path id="40" stroke="#ddd" stroke-dasharray="3,2" stroke-width="1" d="M36.12 141.6h559.57"/></g><g id="line-labels" class="LineLabels"><g><path id="Lung, trachea and bronchus" fill="none" stroke="#999" stroke-width=".5" d="M599.69 310.6h1.42v-94.45h25.58"/><path id="Colon and rectum" fill="none" stroke="#999" stroke-width=".5" d="M599.69 417.3h2.84V231.65h24.16"/><path id="Pancreatic" fill="none" stroke="#999" stroke-width=".5" d="M599.69 429.9h4.26V247.15h22.74"/><path id="Breast cancer" fill="none" stroke="#999" stroke-width=".5" d="M599.69 432.3h5.68V262.65h21.32"/><path id="Liver" fill="none" stroke="#999" stroke-width=".5" d="M599.69 455.2h7.1V278.15h19.9"/><path id="Prostate" fill="none" stroke="#999" stroke-width=".5" d="M599.69 457.8h8.53V293.65h18.47"/><path id="Brain and nervous system" fill="none" stroke="#999" stroke-width=".5" d="M599.69 466.8h9.95V309.15h17.05"/><path id="Oesophagus" fill="none" stroke="#999" stroke-width=".5" d="M599.69 473.8h11.37V324.65h15.63"/><path id="Bladder" fill="none" stroke="#999" stroke-width=".5" d="M599.69 476.3h12.79V340.15h14.21"/><path id="Kidney" fill="none" stroke="#999" stroke-width=".5" d="M599.69 476.4h14.21V355.65h12.79"/><path id="Ovarian" fill="none" stroke="#999" stroke-width=".5" d="M599.69 477h15.63V371.15h11.37"/><path id="Uterine" fill="none" stroke="#999" stroke-width=".5" d="M599.69 479.1h17.05v-92.45h9.95"/><path id="Melanoma and other skin cancers" fill="none" stroke="#999" stroke-width=".5" d="M599.69 479.2h18.47v-77.05h8.53"/><path id="Mouth and oropharynx" fill="none" stroke="#999" stroke-width=".5" d="M599.69 480h19.9v-62.35h7.1"/><path id="Stomach" fill="none" stroke="#999" stroke-width=".5" d="M599.69 480.5h21.32v-47.35h5.68"/><path id="Cervical" fill="none" stroke="#999" stroke-width=".5" d="M599.69 488.4h22.74v-39.75h4.26"/><path id="Larynx" fill="none" stroke="#999" stroke-width=".5" d="M599.69 491.2h24.16v-27.05h2.84"/><path id="Gallbladder and biliary tract" fill="none" stroke="#999" stroke-width=".5" d="M599.69 491.2h25.58v-11.55h1.42"/><path id="Thyroid" fill="none" stroke="#999" stroke-width=".5" d="M599.69 494h25.58v1.15h1.42"/><path id="Testicular" fill="none" stroke="#999" stroke-width=".5" d="M599.69 495.7h24.16v14.95h2.84"/></g><g><text x="630.7" y="221.1" fill="#338711" font-size="13.5" font-weight="400"><tspan x="630.69" y="221.15">Lung, trachea and bronchus</tspan></text><text x="630.7" y="236.6" fill="#b13507" font-size="13.5" font-weight="400"><tspan x="630.69" y="236.65">Colon and rectum</tspan></text><text x="630.7" y="252.1" fill="#996d39" font-size="13.5" font-weight="400"><tspan x="630.69" y="252.15">Pancreatic</tspan></text><text x="630.7" y="267.6" fill="#2c8465" font-size="13.5" font-weight="400"><tspan x="630.69" y="267.65">Breast cancer</tspan></text><text x="630.7" y="283.1" fill="#578145" font-size="13.5" font-weight="400"><tspan x="630.69" y="283.15">Liver</tspan></text><text x="630.7" y="298.6" fill="#9a5129" font-size="13.5" font-weight="400"><tspan x="630.69" y="298.65">Prostate</tspan></text><text x="630.7" y="314.1" fill="#cf0a66" font-size="13.5" font-weight="400"><tspan x="630.69" y="314.15">Brain and nervous system</tspan></text><text x="630.7" y="329.6" fill="#00295b" font-size="13.5" font-weight="400"><tspan x="630.69" y="329.65">Oesophagus</tspan></text><text x="630.7" y="345.1" fill="#4c6a9c" font-size="13.5" font-weight="400"><tspan x="630.69" y="345.15">Bladder</tspan></text><text x="630.7" y="360.6" fill="#883039" font-size="13.5" font-weight="400"><tspan x="630.69" y="360.65">Kidney</tspan></text><text x="630.7" y="376.1" fill="#286bbb" font-size="13.5" font-weight="400"><tspan x="630.69" y="376.15">Ovarian</tspan></text><text x="630.7" y="391.6" fill="#6d3e91" font-size="13.5" font-weight="400"><tspan x="630.69" y="391.65">Uterine</tspan></text><text x="630.7" y="407.1" fill="#a2559c" font-size="13.5" font-weight="400"><tspan x="630.69" y="407.15">Melanoma and other skin cancers</tspan></text><text x="630.7" y="422.6" fill="#c4523e" font-size="13.5" font-weight="400"><tspan x="630.69" y="422.65">Mouth and oropharynx</tspan></text><text x="630.7" y="438.1" fill="#00847e" font-size="13.5" font-weight="400"><tspan x="630.69" y="438.15">Stomach</tspan></text><text x="630.7" y="453.6" fill="#b16214" font-size="13.5" font-weight="400"><tspan x="630.69" y="453.65">Cervical</tspan></text><text x="630.7" y="469.1" fill="#18470f" font-size="13.5" font-weight="400"><tspan x="630.69" y="469.15">Larynx</tspan></text><text x="630.7" y="484.6" fill="#d73c50" font-size="13.5" font-weight="400"><tspan x="630.69" y="484.65">Gallbladder and biliary tract</tspan></text><text x="630.7" y="500.1" fill="#008291" font-size="13.5" font-weight="400"><tspan x="630.69" y="500.15">Thyroid</tspan></text><text x="630.7" y="515.6" fill="#970046" font-size="13.5" font-weight="400"><tspan x="630.69" y="515.65">Testicular</tspan></text></g></g><g id="lines"><path id="outline__Liver" fill="none" stroke="#fff" stroke-linecap="butt" stroke-linejoin="round" stroke-width="2.5" d="m264.7 488.9 7.9.3 7.8-.2 7.9-.2 7.9-.7 7.9-.4 7.9-.1 7.8.4 7.9-.4 7.9-.5 7.9-.4 7.9-1.3 7.9.5 7.8-1.1 7.9.4 7.9-.4 7.9-.8 7.9-.4 7.8-.7 7.9-.2 7.9-14.8 7.9-.5 7.9-.4 7.8-1 7.9-1 7.9-.8 7.9-1 7.9-.3 7.9-.7 7.8-1.5 7.9-1.6 7.9-.8 7.9-1.6 7.9-1.6 7.8-.9h7.9l7.9-.9 7.9-.2 7.9.2 7.8.2 7.9.9 7.9.6 7.9.2"/><path id="line__Liver" fill="none" stroke="#578145" stroke-linecap="butt" stroke-linejoin="round" stroke-width="1.5" d="m264.7 488.9 7.9.3 7.8-.2 7.9-.2 7.9-.7 7.9-.4 7.9-.1 7.8.4 7.9-.4 7.9-.5 7.9-.4 7.9-1.3 7.9.5 7.8-1.1 7.9.4 7.9-.4 7.9-.8 7.9-.4 7.8-.7 7.9-.2 7.9-14.8 7.9-.5 7.9-.4 7.8-1 7.9-1 7.9-.8 7.9-1 7.9-.3 7.9-.7 7.8-1.5 7.9-1.6 7.9-.8 7.9-1.6 7.9-1.6 7.8-.9h7.9l7.9-.9 7.9-.2 7.9.2 7.8.2 7.9.9 7.9.6 7.9.2"/><path id="outline__Brain and nervous system" fill="none" stroke="#fff" stroke-linecap="butt" stroke-linejoin="round" stroke-width="2.5" d="m264.7 466 7.9-.5 7.8.3 7.9-.5 7.9.3 7.9-.8h7.9l7.8.3 7.9-1.1 7.9.2 7.9.1 7.9-1.5 7.9-.5 7.8.7 7.9.3 7.9-.3 7.9 1.3 7.9-.6 7.8.5 7.9.1 7.9-.6 7.9 1.3 7.9.8 7.8-.1 7.9.2 7.9.9 7.9-.2 7.9 1.2 7.9-.3 7.8-.6 7.9-.2 7.9.7 7.9-.3 7.9-1 7.8.5 7.9-.6 7.9.2 7.9-.6 7.9.8h7.8l7.9.5 7.9-.9 7.9.8"/><path id="line__Brain and nervous system" fill="none" stroke="#CF0A66" stroke-linecap="butt" stroke-linejoin="round" stroke-width="1.5" d="m264.7 466 7.9-.5 7.8.3 7.9-.5 7.9.3 7.9-.8h7.9l7.8.3 7.9-1.1 7.9.2 7.9.1 7.9-1.5 7.9-.5 7.8.7 7.9.3 7.9-.3 7.9 1.3 7.9-.6 7.8.5 7.9.1 7.9-.6 7.9 1.3 7.9.8 7.8-.1 7.9.2 7.9.9 7.9-.2 7.9 1.2 7.9-.3 7.8-.6 7.9-.2 7.9.7 7.9-.3 7.9-1 7.8.5 7.9-.6 7.9.2 7.9-.6 7.9.8h7.8l7.9.5 7.9-.9 7.9.8"/><path id="outline__Stomach" fill="none" stroke="#fff" stroke-linecap="butt" stroke-linejoin="round" stroke-width="2.5" d="m36.1 350.6 7.9 8.6 7.9 4.8 7.9 3.9 7.8 5.4 7.9 7.5 7.9 3.4 7.9 5.8 7.9 4.9 7.9 2.2 7.8 2.9 7.9 5.9 7.9 5 7.9 1.6 7.9 5 7.8 3.9 7.9 2.8 7.9 3.7 7.9 2 7.9 2.9 7.8 2.7 7.9 3.3 7.9 1.3 7.9 2 7.9 1.1 7.9 2.5 7.8 2.1 7.9 1.8 7.9 1 7.9 1 7.9 1.4 7.8.4 7.9 1.3 7.9.9 7.9.7 7.9 1.4 7.8.9 7.9 1.2 7.9.8 7.9-.7 7.9.3 7.9.4 7.8 2.3h7.9l7.9 1.3 7.9.3 7.9 1.4 7.8 1.1 7.9.7 7.9.9 7.9 1.1 7.9 1 7.8.9 7.9.3 7.9 1 7.9 1.2 7.9.6 7.9.2 7.8.3 7.9.7 7.9.1 7.9 1 7.9.1 7.8.2 7.9.4 7.9.2 7.9.2 7.9.8 7.8.4 7.9.3 7.9.1 7.9.8"/><path id="line__Stomach" fill="none" stroke="#00847E" stroke-linecap="butt" stroke-linejoin="round" stroke-width="1.5" d="m36.1 350.6 7.9 8.6 7.9 4.8 7.9 3.9 7.8 5.4 7.9 7.5 7.9 3.4 7.9 5.8 7.9 4.9 7.9 2.2 7.8 2.9 7.9 5.9 7.9 5 7.9 1.6 7.9 5 7.8 3.9 7.9 2.8 7.9 3.7 7.9 2 7.9 2.9 7.8 2.7 7.9 3.3 7.9 1.3 7.9 2 7.9 1.1 7.9 2.5 7.8 2.1 7.9 1.8 7.9 1 7.9 1 7.9 1.4 7.8.4 7.9 1.3 7.9.9 7.9.7 7.9 1.4 7.8.9 7.9 1.2 7.9.8 7.9-.7 7.9.3 7.9.4 7.8 2.3h7.9l7.9 1.3 7.9.3 7.9 1.4 7.8 1.1 7.9.7 7.9.9 7.9 1.1 7.9 1 7.8.9 7.9.3 7.9 1 7.9 1.2 7.9.6 7.9.2 7.8.3 7.9.7 7.9.1 7.9 1 7.9.1 7.8.2 7.9.4 7.9.2 7.9.2 7.9.8 7.8.4 7.9.3 7.9.1 7.9.8"/><path id="outline__Cervical" fill="none" stroke="#fff" stroke-linecap="butt" stroke-linejoin="round" stroke-width="2.5" d="M36.1 448.8 44 451l7.9-.4h7.9l7.8.6 7.9-.4 7.9 2.1 7.9.5 7.9.9 7.9 1.7 7.8.1 7.9.8 7.9 1.2 7.9.9 7.9 1.2 7.8.6 7.9 2.2 7.9 1.7 7.9 1.7 7.9 1.1 7.8 2.1 7.9.3 7.9 1.2 7.9 1.8 7.9.7 7.9 2.1 7.8.5 7.9 1.8 7.9.4 7.9 1 7.9.4 7.8.5 7.9.9 7.9.1 7.9.6 7.9.5 7.8-.1 7.9.7 7.9.2 7.9.1 7.9-.5 7.9.7 7.8-.1 7.9.4 7.9.1 7.9.6h7.9l7.8.2 7.9.7 7.9.6 7.9.3 7.9.5 7.8.5 7.9.2 7.9.2 7.9.1h15.8l7.8.1 7.9.3 7.9.1 7.9-.2 7.9.1 7.8-.2 7.9.3h7.9l7.9.1h7.9l7.8.3 7.9.1 7.9-.2 7.9-.2"/><path id="line__Cervical" fill="none" stroke="#B16214" stroke-linecap="butt" stroke-linejoin="round" stroke-width="1.5" d="M36.1 448.8 44 451l7.9-.4h7.9l7.8.6 7.9-.4 7.9 2.1 7.9.5 7.9.9 7.9 1.7 7.8.1 7.9.8 7.9 1.2 7.9.9 7.9 1.2 7.8.6 7.9 2.2 7.9 1.7 7.9 1.7 7.9 1.1 7.8 2.1 7.9.3 7.9 1.2 7.9 1.8 7.9.7 7.9 2.1 7.8.5 7.9 1.8 7.9.4 7.9 1 7.9.4 7.8.5 7.9.9 7.9.1 7.9.6 7.9.5 7.8-.1 7.9.7 7.9.2 7.9.1 7.9-.5 7.9.7 7.8-.1 7.9.4 7.9.1 7.9.6h7.9l7.8.2 7.9.7 7.9.6 7.9.3 7.9.5 7.8.5 7.9.2 7.9.2 7.9.1h15.8l7.8.1 7.9.3 7.9.1 7.9-.2 7.9.1 7.8-.2 7.9.3h7.9l7.9.1h7.9l7.8.3 7.9.1 7.9-.2 7.9-.2"/><path id="outline__Gallbladder and biliary tract" fill="none" stroke="#fff" stroke-linecap="butt" stroke-linejoin="round" stroke-width="2.5" d="M422.3 489.2h7.9l7.9.4 7.8.5 7.9.1 7.9.1h7.9l7.9.1 7.9.4 7.8-.1h7.9l7.9-.2 7.9.2 7.9.1h7.8l7.9-.2 7.9.4 7.9-.2H572l7.9.1 7.9-.1 7.9.4"/><path id="line__Gallbladder and biliary tract" fill="none" stroke="#D73C50" stroke-linecap="butt" stroke-linejoin="round" stroke-width="1.5" d="M422.3 489.2h7.9l7.9.4 7.8.5 7.9.1 7.9.1h7.9l7.9.1 7.9.4 7.8-.1h7.9l7.9-.2 7.9.2 7.9.1h7.8l7.9-.2 7.9.4 7.9-.2H572l7.9.1 7.9-.1 7.9.4"/><path id="outline__Larynx" fill="none" stroke="#fff" stroke-linecap="butt" stroke-linejoin="round" stroke-width="2.5" d="m264.7 485.6 7.9.3 7.8-.2 7.9-.2 7.9.3 7.9.1 7.9.5 7.8-.1h7.9l7.9.1h15.8l7.9-.6 7.8.3 7.9.2 7.9.2 7.9.3 7.9-.1 7.8.5 7.9.1 7.9.3 7.9.2 7.9.3 7.8.3h7.9l7.9.5 7.9-.1 7.9.1 7.9.6 7.8-.2 7.9.6h7.9l7.9.1 7.9.3 7.8.1h7.9l7.9.2h7.9l7.9.4h7.8l7.9.1 7.9.2 7.9-.1"/><path id="line__Larynx" fill="none" stroke="#18470F" stroke-linecap="butt" stroke-linejoin="round" stroke-width="1.5" d="m264.7 485.6 7.9.3 7.8-.2 7.9-.2 7.9.3 7.9.1 7.9.5 7.8-.1h7.9l7.9.1h15.8l7.9-.6 7.8.3 7.9.2 7.9.2 7.9.3 7.9-.1 7.8.5 7.9.1 7.9.3 7.9.2 7.9.3 7.8.3h7.9l7.9.5 7.9-.1 7.9.1 7.9.6 7.8-.2 7.9.6h7.9l7.9.1 7.9.3 7.8.1h7.9l7.9.2h7.9l7.9.4h7.8l7.9.1 7.9.2 7.9-.1"/><path id="outline__Ovarian" fill="none" stroke="#fff" stroke-linecap="butt" stroke-linejoin="round" stroke-width="2.5" d="m264.7 461.2 7.9.3 7.8.2 7.9-.1 7.9.2 7.9.7 7.9.1 7.8-.4 7.9.3 7.9-.4 7.9.6 7.9-.8 7.9-.6 7.8.4 7.9 1.7 7.9-1.2 7.9 1 7.9 1 7.8-.1 7.9.9 7.9.2 7.9.1 7.9-.3h7.8l7.9.7 7.9.4 7.9.5 7.9.4 7.9 1.2 7.8.8 7.9.4 7.9.4 7.9 1 7.9.5 7.8.8 7.9.6 7.9 1 7.9-.1 7.9.6 7.8 1 7.9 1.1 7.9.3 7.9.4"/><path id="line__Ovarian" fill="none" stroke="#286BBB" stroke-linecap="butt" stroke-linejoin="round" stroke-width="1.5" d="m264.7 461.2 7.9.3 7.8.2 7.9-.1 7.9.2 7.9.7 7.9.1 7.8-.4 7.9.3 7.9-.4 7.9.6 7.9-.8 7.9-.6 7.8.4 7.9 1.7 7.9-1.2 7.9 1 7.9 1 7.8-.1 7.9.9 7.9.2 7.9.1 7.9-.3h7.8l7.9.7 7.9.4 7.9.5 7.9.4 7.9 1.2 7.8.8 7.9.4 7.9.4 7.9 1 7.9.5 7.8.8 7.9.6 7.9 1 7.9-.1 7.9.6 7.8 1 7.9 1.1 7.9.3 7.9.4"/><path id="outline__Mouth and oropharynx" fill="none" stroke="#fff" stroke-linecap="butt" stroke-linejoin="round" stroke-width="2.5" d="m36.1 466.1 7.9 2.5 7.9-.1 7.9.4 7.8-.8 7.9-.1 7.9.3 7.9-.7 7.9 1.1 7.9-.7 7.8-.1h7.9l7.9-.2 7.9.3 7.9.3 7.8.8 7.9-.9 7.9.8 7.9-1.8 7.9-.6 7.8.3 7.9.3 7.9 1.4 7.9-.8 7.9-.1 7.9.2 7.8.5 7.9-.5 7.9.8 7.9-.4 7.9.6 7.8.7 7.9.3 7.9.4 7.9.6 7.9.9 7.8.4 7.9 1.3 7.9-.4 7.9.6 7.9-.6 7.9.7 7.8.9 7.9-.1 7.9 1.3h7.9l7.9.8 7.8.3 7.9.4 7.9 1.5 7.9.3h7.9l7.8.2 7.9.2 7.9.4 7.9.4 7.9.5 7.9-.4 7.8.4 7.9.6 7.9-.7h7.9l7.9-.2 7.8.5 7.9-.5 7.9-.2 7.9-.3 7.9.4 7.8.3 7.9-.1 7.9-.3 7.9-.4"/><path id="line__Mouth and oropharynx" fill="none" stroke="#C4523E" stroke-linecap="butt" stroke-linejoin="round" stroke-width="1.5" d="m36.1 466.1 7.9 2.5 7.9-.1 7.9.4 7.8-.8 7.9-.1 7.9.3 7.9-.7 7.9 1.1 7.9-.7 7.8-.1h7.9l7.9-.2 7.9.3 7.9.3 7.8.8 7.9-.9 7.9.8 7.9-1.8 7.9-.6 7.8.3 7.9.3 7.9 1.4 7.9-.8 7.9-.1 7.9.2 7.8.5 7.9-.5 7.9.8 7.9-.4 7.9.6 7.8.7 7.9.3 7.9.4 7.9.6 7.9.9 7.8.4 7.9 1.3 7.9-.4 7.9.6 7.9-.6 7.9.7 7.8.9 7.9-.1 7.9 1.3h7.9l7.9.8 7.8.3 7.9.4 7.9 1.5 7.9.3h7.9l7.8.2 7.9.2 7.9.4 7.9.4 7.9.5 7.9-.4 7.8.4 7.9.6 7.9-.7h7.9l7.9-.2 7.8.5 7.9-.5 7.9-.2 7.9-.3 7.9.4 7.8.3 7.9-.1 7.9-.3 7.9-.4"/><path id="outline__Lung, trachea and bronchus" fill="none" stroke="#fff" stroke-linecap="butt" stroke-linejoin="round" stroke-width="2.5" d="m36.1 391.9 7.9-4.8 7.9-7.6 7.9-7.7 7.8-3.8 7.9-7.5 7.9-8.8 7.9-4.7 7.9-4.6 7.9-6.2 7.8-7.1 7.9-7.6 7.9-8.1 7.9-6.8 7.9-6.8 7.8-8.3 7.9-9.5 7.9-8.6 7.9-16.9 7.9-6.3 7.8-9.4 7.9-6.3 7.9-11.3 7.9-4.6 7.9-10 7.9-3.1 7.8-9.7 7.9-8.3 7.9-9.3 7.9-4.5 7.9-10.9 7.8-3.4 7.9-8.8 7.9-6.1 7.9-4.2 7.9-5.5 7.8-2.6 7.9-6.8 7.9-3.2 7.9-4.1 7.9-11.3 7.9 2.1 7.8 1.3 7.9-.7 7.9 4.7 7.9 2.6 7.9 3.6 7.8 4.3 7.9 4.1 7.9 11.7 7.9.9 7.9 6.2 7.8 3.3 7.9 5.8 7.9 5.9 7.9 5 7.9 7.4 7.9 7.6 7.8 6 7.9 8.2 7.9 8 7.9 9.5 7.9 6 7.8 9.2 7.9 7.8 7.9 10.4 7.9 14.5 7.9 10.9 7.8 11.5 7.9 9.5 7.9 9.8 7.9 6.7"/><path id="line__Lung, trachea and bronchus" fill="none" stroke="#338711" stroke-linecap="butt" stroke-linejoin="round" stroke-width="1.5" d="m36.1 391.9 7.9-4.8 7.9-7.6 7.9-7.7 7.8-3.8 7.9-7.5 7.9-8.8 7.9-4.7 7.9-4.6 7.9-6.2 7.8-7.1 7.9-7.6 7.9-8.1 7.9-6.8 7.9-6.8 7.8-8.3 7.9-9.5 7.9-8.6 7.9-16.9 7.9-6.3 7.8-9.4 7.9-6.3 7.9-11.3 7.9-4.6 7.9-10 7.9-3.1 7.8-9.7 7.9-8.3 7.9-9.3 7.9-4.5 7.9-10.9 7.8-3.4 7.9-8.8 7.9-6.1 7.9-4.2 7.9-5.5 7.8-2.6 7.9-6.8 7.9-3.2 7.9-4.1 7.9-11.3 7.9 2.1 7.8 1.3 7.9-.7 7.9 4.7 7.9 2.6 7.9 3.6 7.8 4.3 7.9 4.1 7.9 11.7 7.9.9 7.9 6.2 7.8 3.3 7.9 5.8 7.9 5.9 7.9 5 7.9 7.4 7.9 7.6 7.8 6 7.9 8.2 7.9 8 7.9 9.5 7.9 6 7.8 9.2 7.9 7.8 7.9 10.4 7.9 14.5 7.9 10.9 7.8 11.5 7.9 9.5 7.9 9.8 7.9 6.7"/><path id="outline__Testicular" fill="none" stroke="#fff" stroke-linecap="butt" stroke-linejoin="round" stroke-width="2.5" d="m264.7 494.8 7.9.2 7.8.3h15.8l7.9.2 7.9-.1 7.8.2 7.9-.1 7.9.2 7.9-.1 7.9.2 7.9-.1 7.8.1 7.9-.1 7.9.1 7.9.1 7.9-.1 7.8.1 7.9-.1 7.9-.1 7.9.2h7.9l7.8-.1 7.9.1H477.5l7.9.1 7.8-.1h7.9l7.9-.1 7.9.1h15.7l7.9-.1 7.9.1 7.9-.1h7.9l7.8.1 7.9-.2 7.9.1 7.9-.1"/><path id="line__Testicular" fill="none" stroke="#970046" stroke-linecap="butt" stroke-linejoin="round" stroke-width="1.5" d="m264.7 494.8 7.9.2 7.8.3h15.8l7.9.2 7.9-.1 7.8.2 7.9-.1 7.9.2 7.9-.1 7.9.2 7.9-.1 7.8.1 7.9-.1 7.9.1 7.9.1 7.9-.1 7.8.1 7.9-.1 7.9-.1 7.9.2h7.9l7.8-.1 7.9.1H477.5l7.9.1 7.8-.1h7.9l7.9-.1 7.9.1h15.7l7.9-.1 7.9.1 7.9-.1h7.9l7.8.1 7.9-.2 7.9.1 7.9-.1"/><path id="outline__Thyroid" fill="none" stroke="#fff" stroke-linecap="butt" stroke-linejoin="round" stroke-width="2.5" d="m422.3 494.1 7.9-.1h15.7l7.9.2 7.9-.1 7.9-.1 7.9-.1h7.9l7.8-.1 7.9-.1 7.9.2h7.9l7.9.1 7.8-.2 7.9.1h7.9l7.9-.2 7.9.3 7.8-.1h7.9l7.9.2 7.9-.1"/><path id="line__Thyroid" fill="none" stroke="#008291" stroke-linecap="butt" stroke-linejoin="round" stroke-width="1.5" d="m422.3 494.1 7.9-.1h15.7l7.9.2 7.9-.1 7.9-.1 7.9-.1h7.9l7.8-.1 7.9-.1 7.9.2h7.9l7.9.1 7.8-.2 7.9.1h7.9l7.9-.2 7.9.3 7.8-.1h7.9l7.9.2 7.9-.1"/><path id="outline__Prostate" fill="none" stroke="#fff" stroke-linecap="butt" stroke-linejoin="round" stroke-width="2.5" d="m36.1 425.2 7.9 1.9 7.9-2.1h7.9l7.8-1.1 7.9.9 7.9-.7 7.9.8 7.9 2.9 7.9 2.1 7.8-.5 7.9-.1 7.9.6 7.9.3 7.9 1.2 7.8-.1 7.9 1.3 7.9-.1 7.9-.6 7.9 1.4h15.7l7.9-.3 7.9-.9 7.9.3 7.9 1.8 7.8-1.3 7.9.3 7.9-1 7.9.1 7.9-.2 7.8.1 7.9-.1 7.9-1.8 7.9 1 7.9-.2 7.8-1.9 7.9.1 7.9-1.4 7.9-2.2 7.9-3.8 7.9-.3 7.8.1 7.9.6 7.9 1.3 7.9 2.3 7.9 1.9 7.8 4 7.9 2.7 7.9 2.2 7.9 2.7 7.9 1.8 7.8 1.6 7.9 2.3 7.9 2 7.9 1.1 7.9 1.6 7.9-.2 7.8 1 7.9 1.6 7.9.1 7.9 2.1 7.9 1.8 7.8.4 7.9-.2 7.9.3 7.9-1 7.9.8 7.8-.4 7.9.8 7.9-.3 7.9 1.2"/><path id="line__Prostate" fill="none" stroke="#9A5129" stroke-linecap="butt" stroke-linejoin="round" stroke-width="1.5" d="m36.1 425.2 7.9 1.9 7.9-2.1h7.9l7.8-1.1 7.9.9 7.9-.7 7.9.8 7.9 2.9 7.9 2.1 7.8-.5 7.9-.1 7.9.6 7.9.3 7.9 1.2 7.8-.1 7.9 1.3 7.9-.1 7.9-.6 7.9 1.4h15.7l7.9-.3 7.9-.9 7.9.3 7.9 1.8 7.8-1.3 7.9.3 7.9-1 7.9.1 7.9-.2 7.8.1 7.9-.1 7.9-1.8 7.9 1 7.9-.2 7.8-1.9 7.9.1 7.9-1.4 7.9-2.2 7.9-3.8 7.9-.3 7.8.1 7.9.6 7.9 1.3 7.9 2.3 7.9 1.9 7.8 4 7.9 2.7 7.9 2.2 7.9 2.7 7.9 1.8 7.8 1.6 7.9 2.3 7.9 2 7.9 1.1 7.9 1.6 7.9-.2 7.8 1 7.9 1.6 7.9.1 7.9 2.1 7.9 1.8 7.8.4 7.9-.2 7.9.3 7.9-1 7.9.8 7.8-.4 7.9.8 7.9-.3 7.9 1.2"/><path id="outline__Melanoma and other skin cancers" fill="none" stroke="#fff" stroke-linecap="butt" stroke-linejoin="round" stroke-width="2.5" d="m36.1 475 7.9 2h7.9l7.9-.7 7.8.1 7.9.8 7.9-.1 7.9-.3 7.9.8 7.9-.3h7.8l7.9.2 7.9-.1 7.9-.8 7.9-.2 7.8-.1 7.9.6 7.9-.5 7.9 1.8 7.9-.3 7.8.5 7.9-.3 7.9.2 7.9-.3 7.9-.9 7.9.1 7.8-1.2 7.9-.3 7.9-.2 7.9.1 7.9.5 7.8-.7 7.9-.7 7.9-.6 7.9-.2 7.9-.8 7.8-.6 7.9.7h7.9l7.9-.4 7.9-.5 7.9.4 7.8.1 7.9.2 7.9.8h7.9l7.9-.5 7.8.6h7.9l7.9.4 7.9.3 7.9-.2 7.8.7 7.9-.2 7.9.2 7.9-.5h7.9l7.9.2h7.8l7.9-1 7.9.6 7.9.5 7.9.1h7.8l7.9.1 7.9 1 7.9 1.8 7.9.4 7.8.1 7.9.7 7.9-.1 7.9.2"/><path id="line__Melanoma and other skin cancers" fill="none" stroke="#A2559C" stroke-linecap="butt" stroke-linejoin="round" stroke-width="1.5" d="m36.1 475 7.9 2h7.9l7.9-.7 7.8.1 7.9.8 7.9-.1 7.9-.3 7.9.8 7.9-.3h7.8l7.9.2 7.9-.1 7.9-.8 7.9-.2 7.8-.1 7.9.6 7.9-.5 7.9 1.8 7.9-.3 7.8.5 7.9-.3 7.9.2 7.9-.3 7.9-.9 7.9.1 7.8-1.2 7.9-.3 7.9-.2 7.9.1 7.9.5 7.8-.7 7.9-.7 7.9-.6 7.9-.2 7.9-.8 7.8-.6 7.9.7h7.9l7.9-.4 7.9-.5 7.9.4 7.8.1 7.9.2 7.9.8h7.9l7.9-.5 7.8.6h7.9l7.9.4 7.9.3 7.9-.2 7.8.7 7.9-.2 7.9.2 7.9-.5h7.9l7.9.2h7.8l7.9-1 7.9.6 7.9.5 7.9.1h7.8l7.9.1 7.9 1 7.9 1.8 7.9.4 7.8.1 7.9.7 7.9-.1 7.9.2"/><path id="outline__Oesophagus" fill="none" stroke="#fff" stroke-linecap="butt" stroke-linejoin="round" stroke-width="2.5" d="m36.1 474.1 7.9.8 7.9-.7 7.9.3 7.8.5 7.9-.6 7.9.3 7.9-.4 7.9.3 7.9-.4 7.8-.1 7.9.6 7.9-.4 7.9.1 7.9-.3 7.8-.6 7.9.4h7.9l7.9-.5 7.9.5 7.8-.3 7.9-.1 7.9-.1 7.9-.4 7.9-.2 7.9-.6 7.8-.3 7.9.2 7.9-.6 7.9.2 7.9-.5 7.8.1h7.9l7.9-.2 7.9-.3 7.9.5 7.8-.6h7.9l7.9-.3 7.9-.4 7.9-.2 7.9-.3 7.8-.2 7.9-.1 7.9-.4h7.9l7.9-.2 7.8.2 7.9-.4H438.1l7.8.1 7.9.2 7.9.2 7.9-.4 7.9.1 7.9.8 7.8.3 7.9.4 7.9-.5 7.9.7 7.9.3 7.8.5 7.9.2 7.9.1 7.9.3 7.9.7 7.8.4 7.9-.3 7.9 1 7.9.3"/><path id="line__Oesophagus" fill="none" stroke="#00295B" stroke-linecap="butt" stroke-linejoin="round" stroke-width="1.5" d="m36.1 474.1 7.9.8 7.9-.7 7.9.3 7.8.5 7.9-.6 7.9.3 7.9-.4 7.9.3 7.9-.4 7.8-.1 7.9.6 7.9-.4 7.9.1 7.9-.3 7.8-.6 7.9.4h7.9l7.9-.5 7.9.5 7.8-.3 7.9-.1 7.9-.1 7.9-.4 7.9-.2 7.9-.6 7.8-.3 7.9.2 7.9-.6 7.9.2 7.9-.5 7.8.1h7.9l7.9-.2 7.9-.3 7.9.5 7.8-.6h7.9l7.9-.3 7.9-.4 7.9-.2 7.9-.3 7.8-.2 7.9-.1 7.9-.4h7.9l7.9-.2 7.8.2 7.9-.4H438.1l7.8.1 7.9.2 7.9.2 7.9-.4 7.9.1 7.9.8 7.8.3 7.9.4 7.9-.5 7.9.7 7.9.3 7.8.5 7.9.2 7.9.1 7.9.3 7.9.7 7.8.4 7.9-.3 7.9 1 7.9.3"/><path id="outline__Kidney" fill="none" stroke="#fff" stroke-linecap="butt" stroke-linejoin="round" stroke-width="2.5" d="m422.3 470.2 7.9-.5 7.9-.4 7.8.5 7.9.3 7.9.4 7.9.2 7.9.8h15.7l7.9.2 7.9.3h7.9l7.9.7 7.8-.4 7.9.8 7.9-.4 7.9 1.6 7.9.3 7.8.3 7.9.8 7.9-.2 7.9.9"/><path id="line__Kidney" fill="none" stroke="#883039" stroke-linecap="butt" stroke-linejoin="round" stroke-width="1.5" d="m422.3 470.2 7.9-.5 7.9-.4 7.8.5 7.9.3 7.9.4 7.9.2 7.9.8h15.7l7.9.2 7.9.3h7.9l7.9.7 7.8-.4 7.9.8 7.9-.4 7.9 1.6 7.9.3 7.8.3 7.9.8 7.9-.2 7.9.9"/><path id="outline__Uterine" fill="none" stroke="#fff" stroke-linecap="butt" stroke-linejoin="round" stroke-width="2.5" d="m36.1 451.2 7.9 4.2 7.9 2.8 7.9.3 7.8 3.4 7.9 2 7.9 1.3 7.9.7 7.9.1 7.9 2.4 7.8.8 7.9 1 7.9.2 7.9.6 7.9.6 7.8.8 7.9.6 7.9.5 7.9.8 7.9.8 7.8.5 7.9.1 7.9.1 7.9.3 7.9.7 7.9.9 7.8-.2 7.9.4 7.9.4 7.9.5 7.9-.3 7.8.8 7.9.1 7.9.2 7.9.5 7.9.3 7.8.7 7.9.2 7.9.2 7.9.4 7.9-.5 7.9.7 7.8-.1 7.9.2h7.9l7.9.1h7.9l7.8.5 7.9-.3h15.8l7.9-.1 7.8.1h7.9l7.9.1h7.9l7.9-.3h7.9l7.8-.1 7.9.1 7.9-.9 7.9-.1 7.9-.1 7.8-.5 7.9-.3 7.9-.2 7.9-.7H572l7.9-.1 7.9-.2 7.9-.1"/><path id="line__Uterine" fill="none" stroke="#6D3E91" stroke-linecap="butt" stroke-linejoin="round" stroke-width="1.5" d="m36.1 451.2 7.9 4.2 7.9 2.8 7.9.3 7.8 3.4 7.9 2 7.9 1.3 7.9.7 7.9.1 7.9 2.4 7.8.8 7.9 1 7.9.2 7.9.6 7.9.6 7.8.8 7.9.6 7.9.5 7.9.8 7.9.8 7.8.5 7.9.1 7.9.1 7.9.3 7.9.7 7.9.9 7.8-.2 7.9.4 7.9.4 7.9.5 7.9-.3 7.8.8 7.9.1 7.9.2 7.9.5 7.9.3 7.8.7 7.9.2 7.9.2 7.9.4 7.9-.5 7.9.7 7.8-.1 7.9.2h7.9l7.9.1h7.9l7.8.5 7.9-.3h15.8l7.9-.1 7.8.1h7.9l7.9.1h7.9l7.9-.3h7.9l7.8-.1 7.9.1 7.9-.9 7.9-.1 7.9-.1 7.8-.5 7.9-.3 7.9-.2 7.9-.7H572l7.9-.1 7.9-.2 7.9-.1"/><path id="outline__Breast cancer" fill="none" stroke="#fff" stroke-linecap="butt" stroke-linejoin="round" stroke-width="2.5" d="m36.1 384.9 7.9 1.9 7.9-1.3 7.9-1.5 7.8.8 7.9-2.9 7.9.8h7.9l7.9 2.3 7.9.2 7.8-2.4h15.8l7.9-.3 7.9-1.8 7.8-1.8 7.9-.4 7.9-1.1 7.9-1.9 7.9 2 7.8-1.7 7.9 1.5 7.9-2.7 7.9-.9 7.9.9 7.9 3.1 7.8-1.1 7.9-2.6 7.9 2.6 7.9 2.9 7.9-1.9 7.8-.6 7.9-.8 7.9-.1 7.9-2 7.9-.2 7.8.8 7.9 1.1 7.9-1.5 7.9.6 7.9-1.3 7.9 2.2 7.8 4.2 7.9 1.5 7.9 1.8 7.9 1.3 7.9 4.2 7.8 4.7 7.9 3 7.9 2.9 7.9.8 7.9 2.9 7.8 2.2 7.9 1.2 7.9 2.8 7.9 1.7 7.9 2.1 7.9 2.3 7.8.9 7.9 1.4 7.9 1.3 7.9 1.5 7.9 1.2 7.8 1.9 7.9.9 7.9.8 7.9 1.3 7.9.8 7.8.7 7.9 1.2 7.9 1.6 7.9 1.4"/><path id="line__Breast cancer" fill="none" stroke="#2C8465" stroke-linecap="butt" stroke-linejoin="round" stroke-width="1.5" d="m36.1 384.9 7.9 1.9 7.9-1.3 7.9-1.5 7.8.8 7.9-2.9 7.9.8h7.9l7.9 2.3 7.9.2 7.8-2.4h15.8l7.9-.3 7.9-1.8 7.8-1.8 7.9-.4 7.9-1.1 7.9-1.9 7.9 2 7.8-1.7 7.9 1.5 7.9-2.7 7.9-.9 7.9.9 7.9 3.1 7.8-1.1 7.9-2.6 7.9 2.6 7.9 2.9 7.9-1.9 7.8-.6 7.9-.8 7.9-.1 7.9-2 7.9-.2 7.8.8 7.9 1.1 7.9-1.5 7.9.6 7.9-1.3 7.9 2.2 7.8 4.2 7.9 1.5 7.9 1.8 7.9 1.3 7.9 4.2 7.8 4.7 7.9 3 7.9 2.9 7.9.8 7.9 2.9 7.8 2.2 7.9 1.2 7.9 2.8 7.9 1.7 7.9 2.1 7.9 2.3 7.8.9 7.9 1.4 7.9 1.3 7.9 1.5 7.9 1.2 7.8 1.9 7.9.9 7.9.8 7.9 1.3 7.9.8 7.8.7 7.9 1.2 7.9 1.6 7.9 1.4"/><path id="outline__Pancreatic" fill="none" stroke="#fff" stroke-linecap="butt" stroke-linejoin="round" stroke-width="2.5" d="m264.7 430.7 7.9.6 7.8-.2 7.9.6 7.9-.5 7.9-.4 7.9 1.3 7.8.4 7.9.3 7.9.8 7.9-.6 7.9-1.3 7.9.3 7.8-.3 7.9.3 7.9.1 7.9 1.2h7.9l7.8-.2 7.9-.2 7.9-1.1 7.9 1.1 7.9.3 7.8.1 7.9.1 7.9-1 7.9-.6 7.9-.2h7.9l7.8-1.1 7.9.5 7.9-.6 7.9.8 7.9-.9 7.8 1.2 7.9-1 7.9-.5 7.9-.2 7.9-.4 7.8.3 7.9-.1 7.9.4 7.9-.1"/><path id="line__Pancreatic" fill="none" stroke="#996D39" stroke-linecap="butt" stroke-linejoin="round" stroke-width="1.5" d="m264.7 430.7 7.9.6 7.8-.2 7.9.6 7.9-.5 7.9-.4 7.9 1.3 7.8.4 7.9.3 7.9.8 7.9-.6 7.9-1.3 7.9.3 7.8-.3 7.9.3 7.9.1 7.9 1.2h7.9l7.8-.2 7.9-.2 7.9-1.1 7.9 1.1 7.9.3 7.8.1 7.9.1 7.9-1 7.9-.6 7.9-.2h7.9l7.8-1.1 7.9.5 7.9-.6 7.9.8 7.9-.9 7.8 1.2 7.9-1 7.9-.5 7.9-.2 7.9-.4 7.8.3 7.9-.1 7.9.4 7.9-.1"/><path id="outline__Colon and rectum" fill="none" stroke="#fff" stroke-linecap="butt" stroke-linejoin="round" stroke-width="2.5" d="m36.1 295.6 7.9 5.5h7.9l7.9.1 7.8 1.9 7.9.7 7.9 1.1 7.9 1.4 7.9 2.8 7.9 1.1 7.8-.8 7.9.8 7.9 2.2 7.9 1.5 7.9.8 7.8.1 7.9-.3 7.9 3.3 7.9-.3 7.9.2 7.8.7 7.9 3.6 7.9-.3 7.9 2.3 7.9-3 7.9 5.7 7.8-1.6 7.9 2 7.9-1.2 7.9 9.2 7.9.7 7.8 3.4 7.9 1.2 7.9-.3 7.9-.5 7.9 2.6 7.8 4.4 7.9 1 7.9 4.1 7.9 2.3 7.9-.5 7.9 3.6 7.8 2.4 7.9 1.3 7.9 1.6 7.9 1.8 7.9 4.2 7.8 2.2 7.9 1.7 7.9 1.3 7.9 2.3 7.9 3 7.8 2.3 7.9 4 7.9 6.5 7.9 3.1 7.9.7 7.9 1.5 7.8 1.1 7.9 3.6 7.9 1.6 7.9 2.4 7.9 2.1 7.8 1.2 7.9 1.8h7.9l7.9 1.5 7.9 1.1 7.8 1.8 7.9 1.7 7.9.8 7.9-.4"/><path id="line__Colon and rectum" fill="none" stroke="#B13507" stroke-linecap="butt" stroke-linejoin="round" stroke-width="1.5" d="m36.1 295.6 7.9 5.5h7.9l7.9.1 7.8 1.9 7.9.7 7.9 1.1 7.9 1.4 7.9 2.8 7.9 1.1 7.8-.8 7.9.8 7.9 2.2 7.9 1.5 7.9.8 7.8.1 7.9-.3 7.9 3.3 7.9-.3 7.9.2 7.8.7 7.9 3.6 7.9-.3 7.9 2.3 7.9-3 7.9 5.7 7.8-1.6 7.9 2 7.9-1.2 7.9 9.2 7.9.7 7.8 3.4 7.9 1.2 7.9-.3 7.9-.5 7.9 2.6 7.8 4.4 7.9 1 7.9 4.1 7.9 2.3 7.9-.5 7.9 3.6 7.8 2.4 7.9 1.3 7.9 1.6 7.9 1.8 7.9 4.2 7.8 2.2 7.9 1.7 7.9 1.3 7.9 2.3 7.9 3 7.8 2.3 7.9 4 7.9 6.5 7.9 3.1 7.9.7 7.9 1.5 7.8 1.1 7.9 3.6 7.9 1.6 7.9 2.4 7.9 2.1 7.8 1.2 7.9 1.8h7.9l7.9 1.5 7.9 1.1 7.8 1.8 7.9 1.7 7.9.8 7.9-.4"/><path id="outline__Bladder" fill="none" stroke="#fff" stroke-linecap="butt" stroke-linejoin="round" stroke-width="2.5" d="m264.7 468 7.9.5 7.8.6 7.9.3 7.9.6 7.9 1.1 7.9.3 7.8.9 7.9.6h7.9l7.9-.4 7.9-.4 7.9.4 7.8-.1 7.9-.1h7.9l7.9.7 7.9-.4 7.8.1 7.9.2 7.9-.1 7.9.4 7.9.1 7.8-.4 7.9.7 7.9-.5 7.9.2h7.9l7.9-.1 7.8-.3 7.9.5 7.9-.4 7.9.1 7.9.3 7.8-.3 7.9.6 7.9-.1 7.9.2 7.9.6 7.8.4 7.9.5 7.9.7 7.9.3"/><path id="line__Bladder" fill="none" stroke="#4C6A9C" stroke-linecap="butt" stroke-linejoin="round" stroke-width="1.5" d="m264.7 468 7.9.5 7.8.6 7.9.3 7.9.6 7.9 1.1 7.9.3 7.8.9 7.9.6h7.9l7.9-.4 7.9-.4 7.9.4 7.8-.1 7.9-.1h7.9l7.9.7 7.9-.4 7.8.1 7.9.2 7.9-.1 7.9.4 7.9.1 7.8-.4 7.9.7 7.9-.5 7.9.2h7.9l7.9-.1 7.8-.3 7.9.5 7.9-.4 7.9.1 7.9.3 7.8-.3 7.9.6 7.9-.1 7.9.2 7.9.6 7.8.4 7.9.5 7.9.7 7.9.3"/></g></g><g id="footer" class="SourcesFooter" style="fill:#5b5b5b"><g id="sources" class="markdown-text-wrap"><text x="16" y="546.5" style="font-size:13.5px;line-height:1.2"><tspan x="16" y="546.5"><tspan style="font-weight:700">Data source:</tspan> WHO Mortality Database (2024)</tspan></text></g><g id="note" class="markdown-text-wrap"><text x="16" y="564.7" style="font-size:13.5px;line-height:1.2"><tspan x="16" y="564.7"><tspan style="font-weight:700">Note:</tspan> To allow for comparisons between countries and over time, this metric is <tspan class="dod-span" data-id="age_standardized">age-standardized</tspan>. All deaths in a country may not have</tspan><tspan x="16" y="580.9">been registered with a <tspan class="dod-span" data-id="underlying-cause-of-death">cause of death</tspan>.</tspan></text></g><text id="origin-url" x="616.9" y="546.5" font-size="13.5"><tspan x="616.92" y="546.5"><a href="https://ourworldindata.org/cancer" style="fill:#5b5b5b" target="_blank">OurWorldinData.org/cancer</a> | <a href="https://creativecommons.org/licenses/by/4.0/" style="fill:#5b5b5b" target="_blank">CC BY</a></tspan></text></g></svg>