<svg xmlns="http://www.w3.org/2000/svg" width="850" height="600" style="font-family:Lato,&quot;Helvetica Neue&quot;,Helvetica,Arial,&quot;Liberation Sans&quot;,sans-serif;font-size:18px;background-color:#fff;text-rendering:geometricPrecision;-webkit-font-smoothing:antialiased" version="1.1" viewBox="0 0 850 600"><defs><style>@import url(https://ourworldindata.org/fonts.css);</style></defs><defs><pattern id="noDataPattern" width="4" height="4" patternTransform="rotate(-45 2 2)" patternUnits="userSpaceOnUse"><path stroke="#ccc" stroke-width=".7" d="M-1 2h6"/></pattern></defs><path fill="#fff" d="M0 0h850v600H0z" class="background-fill"/><g id="header" class="HeaderView"><g id="logo" transform="translate(769 16)"><svg xmlns="http://www.w3.org/2000/svg" width="65" height="36" fill="none" className="owidLogo" viewBox="0 0 65 36"><path fill="#002147" d="M0 0h64.8v36H0z"/><path fill="#CE261E" d="M0 33.3h64.8V36H0z"/><path fill="#fff" d="M13.8 10.57c0 .64-.11 1.23-.32 1.77a4.2 4.2 0 0 1-.9 1.4 4.08 4.08 0 0 1-1.38.94c-.54.22-1.14.33-1.8.33-.65 0-1.25-.11-1.8-.33a4.15 4.15 0 0 1-1.39-.93 4.2 4.2 0 0 1-.9-1.4A4.83 4.83 0 0 1 5 10.56c0-.63.1-1.22.32-1.76a4.18 4.18 0 0 1 .9-1.4 4.08 4.08 0 0 1 1.38-.93 4.68 4.68 0 0 1 1.8-.34c.66 0 1.26.11 1.8.34a4.08 4.08 0 0 1 2.28 2.33c.21.54.32 1.13.32 1.76Zm-1.66 0c0-.47-.06-.9-.2-1.27a2.67 2.67 0 0 0-.53-.97 2.33 2.33 0 0 0-.87-.6A2.94 2.94 0 0 0 9.4 7.5c-.42 0-.8.07-1.14.21-.34.14-.63.35-.87.61a2.74 2.74 0 0 0-.55.97 3.96 3.96 0 0 0-.19 1.27c0 .48.06.9.2 1.29a2.42 2.42 0 0 0 1.42 1.56c.33.14.71.2 1.13.2.43 0 .8-.06 1.14-.2a2.37 2.37 0 0 0 1.4-1.56 4.01 4.01 0 0 0 .2-1.29Zm3.96-1.81v3.9c0 .39.09.68.26.89.18.2.44.3.79.3.25 0 .5-.06.72-.17a2.58 2.58 0 0 0 .63-.47V8.76H20v6.15h-.91c-.2 0-.32-.09-.38-.27l-.1-.49a4.65 4.65 0 0 1-.4.35 2.58 2.58 0 0 1-.43.27 2.35 2.35 0 0 1-.5.17 2.35 2.35 0 0 1-.57.07c-.34 0-.64-.06-.9-.17a1.82 1.82 0 0 1-.64-.49 2.16 2.16 0 0 1-.4-.73 3.23 3.23 0 0 1-.14-.95V8.76h1.48Zm5.23 6.15V8.76h.87c.15 0 .26.02.32.08s.1.15.12.29l.09.74c.22-.38.47-.68.77-.9.3-.22.63-.33 1-.33.3 0 .55.07.75.21l-.19 1.11c-.01.07-.04.13-.08.16a.28.28 0 0 1-.16.04 1.01 1.01 0 0 1-.25-.04 1.65 1.65 0 0 0-.41-.04c-.3 0-.57.08-.8.25-.21.17-.4.42-.55.75v3.83h-1.48Zm6.02-8.67h1.35a.57.57 0 0 1 .35.1c.1.06.16.15.2.26l1.47 5.2a10.12 10.12 0 0 1 .19.9 5.97 5.97 0 0 1 .22-.9l1.7-5.2a.57.57 0 0 1 .2-.25.54.54 0 0 1 .34-.11h.48a.57.57 0 0 1 .34.1.5.5 0 0 1 .2.26l1.69 5.2c.08.25.16.53.22.85a31.71 31.71 0 0 1 .19-.86l1.47-5.19c.03-.1.1-.18.19-.25a.56.56 0 0 1 .34-.11h1.27l-2.7 8.67h-1.45L33.7 9l-.08-.25a9.5 9.5 0 0 1-.07-.28 4.04 4.04 0 0 1-.15.53L31.5 14.9h-1.46l-2.7-8.67Zm15.42 2.42c.46 0 .88.07 1.25.22s.7.36.96.63.47.6.61 1 .22.83.22 1.31c0 .5-.08.93-.22 1.32a2.85 2.85 0 0 1-.61 1 2.65 2.65 0 0 1-.96.64 3.35 3.35 0 0 1-1.25.22 3.4 3.4 0 0 1-1.25-.22 2.71 2.71 0 0 1-.97-.63 2.92 2.92 0 0 1-.62-1 3.8 3.8 0 0 1-.21-1.33c0-.48.07-.92.21-1.31a2.75 2.75 0 0 1 1.58-1.63 3.4 3.4 0 0 1 1.26-.22Zm0 5.2c.51 0 .9-.17 1.13-.51.25-.35.38-.85.38-1.52s-.13-1.17-.38-1.51c-.24-.35-.62-.53-1.13-.53-.52 0-.9.18-1.15.53-.25.35-.37.85-.37 1.51s.12 1.17.37 1.52c.25.34.63.51 1.15.51Zm3.95 1.05V8.76h.87c.15 0 .26.02.32.08s.1.15.12.29l.1.74c.21-.38.47-.68.76-.9.3-.22.63-.33 1-.33.3 0 .56.07.76.21l-.2 1.11c0 .07-.03.13-.07.16a.28.28 0 0 1-.17.04 1.01 1.01 0 0 1-.24-.04 1.65 1.65 0 0 0-.42-.04c-.3 0-.57.08-.79.25-.22.17-.4.42-.56.75v3.83h-1.48ZM52.96 6v8.91h-1.48V6h1.48Zm5.77 8.91c-.19 0-.32-.09-.38-.27l-.12-.6a3.68 3.68 0 0 1-.4.4 2.5 2.5 0 0 1-.98.5 2.37 2.37 0 0 1-.6.06c-.33 0-.64-.07-.92-.2a2.1 2.1 0 0 1-.73-.61 3.03 3.03 0 0 1-.46-1 5.07 5.07 0 0 1-.17-1.34c0-.45.07-.88.19-1.27s.3-.73.53-1.02c.24-.29.51-.51.84-.67a2.38 2.38 0 0 1 1.09-.25 2.1 2.1 0 0 1 1.54.6V6h1.48v8.91h-.9Zm-1.97-1.08c.3 0 .57-.07.78-.2.22-.12.42-.3.62-.54v-2.76a1.45 1.45 0 0 0-.56-.43 1.6 1.6 0 0 0-.63-.13c-.23 0-.43.04-.61.13a1.21 1.21 0 0 0-.47.38c-.12.17-.22.39-.28.65a4.3 4.3 0 0 0-.02 1.84c.06.25.14.45.25.61.1.16.24.27.4.34.15.07.33.1.52.1Zm-40.43 6.93v6.15h-1.48v-6.15h1.48Zm.22-1.8a.84.84 0 0 1-.07.36.96.96 0 0 1-.21.3 1 1 0 0 1-.3.2.96.96 0 0 1-.38.07.95.95 0 0 1-.36-.07 1.02 1.02 0 0 1-.5-.5.96.96 0 0 1 0-.73 1 1 0 0 1 .2-.3.93.93 0 0 1 .3-.2.9.9 0 0 1 .73 0 .91.91 0 0 1 .3.2.94.94 0 0 1 .3.67Zm1.22 7.95v-6.15h.9c.2 0 .32.09.38.27l.1.48a2.93 2.93 0 0 1 .84-.61 2.3 2.3 0 0 1 1.07-.24c.34 0 .63.06.9.18.25.1.47.27.64.48.18.2.3.45.4.73.09.29.13.6.13.95v3.91h-1.48V23c0-.38-.08-.67-.26-.87-.17-.21-.43-.32-.78-.32-.26 0-.5.06-.72.18a2.58 2.58 0 0 0-.64.47v4.45h-1.48Zm16.45-4.34c0 .64-.1 1.22-.32 1.76-.21.53-.5.99-.9 1.37a4 4 0 0 1-1.38.9 4.87 4.87 0 0 1-1.8.31h-3.3v-8.67h3.3a4.79 4.79 0 0 1 1.8.32 4 4 0 0 1 1.39.9c.38.37.68.83.9 1.36.2.53.31 1.12.31 1.75Zm-1.65 0c0-.47-.06-.9-.2-1.27a2.68 2.68 0 0 0-.54-.96 2.33 2.33 0 0 0-.86-.6 2.94 2.94 0 0 0-1.14-.22h-1.69v6.1h1.69c.42 0 .8-.06 1.14-.2.34-.14.63-.34.86-.6a2.75 2.75 0 0 0 .55-.96 4.01 4.01 0 0 0 .19-1.29Zm7.41 4.34h-.67a.75.75 0 0 1-.33-.06c-.07-.04-.13-.13-.17-.25l-.14-.44c-.15.14-.3.26-.46.37a2.8 2.8 0 0 1-.46.26c-.16.08-.33.13-.51.17a3.07 3.07 0 0 1-1.32-.05 1.62 1.62 0 0 1-.57-.32 1.45 1.45 0 0 1-.37-.52 1.85 1.85 0 0 1-.13-.73c0-.23.06-.46.18-.68.12-.23.33-.44.61-.62.29-.18.67-.33 1.14-.45a8.01 8.01 0 0 1 1.75-.2v-.36c0-.42-.08-.72-.26-.92-.17-.2-.42-.3-.76-.3a1.84 1.84 0 0 0-1.01.28l-.33.19a.66.66 0 0 1-.33.08.43.43 0 0 1-.26-.08.61.61 0 0 1-.17-.2l-.27-.46c.7-.65 1.56-.98 2.56-.98.36 0 .68.06.96.18a1.99 1.99 0 0 1 1.16 1.25c.1.29.16.6.16.96v3.88ZM37.1 26c.15 0 .3-.01.42-.04a1.81 1.81 0 0 0 .69-.33c.1-.09.22-.19.32-.3v-1.04c-.43.02-.79.06-1.08.12a2.8 2.8 0 0 0-.7.2.92.92 0 0 0-.37.3.66.66 0 0 0-.11.36c0 .26.07.45.22.56.16.11.36.17.61.17ZM43.22 27c-.53 0-.94-.15-1.23-.45-.29-.3-.43-.72-.43-1.25v-3.44h-.63a.31.31 0 0 1-.2-.08c-.06-.05-.09-.13-.09-.23v-.6l.99-.15.31-1.68a.3.3 0 0 1 .11-.2.36.36 0 0 1 .22-.06h.77v1.94h1.62v1.06h-1.62v3.33c0 .2.05.35.14.45a.49.49 0 0 0 .39.17.73.73 0 0 0 .39-.1l.12-.07a.2.2 0 0 1 .11-.04.16.16 0 0 1 .11.04c.03.02.06.05.09.1l.44.71c-.21.18-.46.32-.74.41a2.77 2.77 0 0 1-.87.14Zm7.2-.1h-.66a.75.75 0 0 1-.33-.06c-.08-.04-.14-.13-.18-.25l-.13-.44c-.16.14-.31.26-.47.37a2.8 2.8 0 0 1-.46.26c-.16.08-.33.13-.5.17a3.07 3.07 0 0 1-1.33-.05 1.62 1.62 0 0 1-.57-.32 1.45 1.45 0 0 1-.36-.52 1.85 1.85 0 0 1-.14-.73c0-.23.06-.46.18-.68.13-.23.33-.44.62-.62.28-.18.66-.33 1.13-.45a8.01 8.01 0 0 1 1.76-.2v-.36c0-.42-.1-.72-.27-.92-.17-.2-.42-.3-.75-.3a1.84 1.84 0 0 0-1.02.28l-.33.19a.66.66 0 0 1-.33.08.43.43 0 0 1-.25-.08.61.61 0 0 1-.18-.2l-.27-.46c.7-.65 1.56-.98 2.56-.98.36 0 .68.06.96.18a1.99 1.99 0 0 1 1.17 1.25c.1.29.15.6.15.96v3.88ZM47.54 26c.16 0 .3-.01.42-.04a1.88 1.88 0 0 0 .69-.33l.33-.3v-1.04c-.44.02-.8.06-1.09.12a2.8 2.8 0 0 0-.7.2.92.92 0 0 0-.37.3.66.66 0 0 0-.11.36c0 .26.08.45.23.56.15.11.36.17.6.17Z"/></svg></g><a id="title" href="https://ourworldindata.org/grapher/cancer-death-rates-in-children-by-type" rel="noopener" style="font-family:&quot;Playfair Display&quot;,Georgia,&quot;Times New Roman&quot;,&quot;Liberation Serif&quot;,serif" target="_blank"><text x="16" y="40" fill="#5b5b5b" font-size="24.75" font-weight="600"><tspan x="16" y="40.01">Cancer death rates in children under 5 years old</tspan></text></a><g id="subtitle" class="markdown-text-wrap"><text x="16" y="63.9" fill="#5b5b5b" style="font-size:14.625px;line-height:1.2"><tspan x="16" y="63.9">Reported annual death rate from childhood cancers, per 100,000 children aged under five, based on the</tspan><tspan x="16" y="81.4"><tspan class="dod-span" data-id="underlying-cause-of-death">underlying cause</tspan> listed on death certificates. This is shown for all <tspan class="dod-span" data-id="malignant">malignant</tspan> cancers combined, brain and nervous</tspan><tspan x="16" y="99">system cancers, <tspan class="dod-span" data-id="leukemia">leukemia</tspan>, <tspan class="dod-span" data-id="lymphoma">lymphomas</tspan> and <tspan class="dod-span" data-id="myeloma">multiple myeloma</tspan>.</tspan></text></g></g><g id="chart-area" style="pointer-events:none"><g id="categorical-color-legend" class="categoricalColorLegend"><g id="mark__United Kingdom" style="cursor:default"><path fill="#4C6A9C" stroke-width=".4" d="M16 118.35h13.5v13.5H16z"/><text x="34.5" y="125.1" dy=".32em" font-size="14.4">United Kingdom</text></g><g id="mark__United States" style="cursor:default"><path fill="#B13507" stroke-width=".4" d="M149.32 118.35h13.5v13.5h-13.5z"/><text x="167.82" y="125.1" dy=".32em" font-size="14.4">United States</text></g></g><text x="37.54" y="159.41" fill="#1d3d63" font-size="15.75" style="font-weight:700">All malignant cancers combined</text><g class="LineChart"><defs><clipPath id="boundsClip-1"><path d="M27.54 157.29h421v175h-421z"/></clipPath></defs><path fill="none" d="M16 167.29h401v155H16z"/><g id="horizontal-axis" class="HorizontalAxis"><g id="tick-marks"><path id="1950" stroke="#999" stroke-width="1" d="M37.5 302.98v5.5"/><path id="2021" stroke="#999" stroke-width="1" d="M416 302.98v5.5"/><path id="1960" stroke="#999" stroke-width="1" d="M90.8 302.98v5.5"/><path id="1970" stroke="#999" stroke-width="1" d="M144.1 302.98v5.5"/><path id="1980" stroke="#999" stroke-width="1" d="M197.5 302.98v5.5"/><path id="1990" stroke="#999" stroke-width="1" d="M250.8 302.98v5.5"/><path id="2000" stroke="#999" stroke-width="1" d="M304.1 302.98v5.5"/><path id="2010" stroke="#999" stroke-width="1" d="M357.4 302.98v5.5"/></g><g id="tick-labels"><text x="37.54" y="320.29" fill="#5b5b5b" font-size="11.81" text-anchor="start">1950</text><text x="416" y="320.29" fill="#5b5b5b" font-size="11.81" text-anchor="end">2021</text><text x="90.8" y="320.29" fill="#5b5b5b" font-size="11.81" text-anchor="middle">1960</text><text x="144.1" y="320.29" fill="#5b5b5b" font-size="11.81" text-anchor="middle">1970</text><text x="197.5" y="320.29" fill="#5b5b5b" font-size="11.81" text-anchor="middle">1980</text><text x="250.8" y="320.29" fill="#5b5b5b" font-size="11.81" text-anchor="middle">1990</text><text x="304.1" y="320.29" fill="#5b5b5b" font-size="11.81" text-anchor="middle">2000</text><text x="357.4" y="320.29" fill="#5b5b5b" font-size="11.81" text-anchor="middle">2010</text></g></g><g id="vertical-axis" class="VerticalAxis"><g><text x="32.54" y="303.5" fill="#5b5b5b" dy=".32em" font-size="11.81" text-anchor="end">0</text><text x="32.54" y="282.1" fill="#5b5b5b" dy=".32em" font-size="11.81" text-anchor="end">2</text><text x="32.54" y="260.7" fill="#5b5b5b" dy=".32em" font-size="11.81" text-anchor="end">4</text><text x="32.54" y="239.3" fill="#5b5b5b" dy=".32em" font-size="11.81" text-anchor="end">6</text><text x="32.54" y="218" fill="#5b5b5b" dy=".32em" font-size="11.81" text-anchor="end">8</text><text x="32.54" y="196.6" fill="#5b5b5b" dy=".32em" font-size="11.81" text-anchor="end">10</text><text x="32.54" y="175.2" fill="#5b5b5b" dy=".32em" font-size="11.81" text-anchor="end">12</text></g></g><g id="horizontal-grid-lines" class="AxisGridLines horizontalLines"><path id="0" stroke="#999" stroke-width="1" d="M37.54 303.5H416"/><path id="2" stroke="#ddd" stroke-dasharray="2,1" stroke-width="1" d="M37.54 282.1H416"/><path id="4" stroke="#ddd" stroke-dasharray="2,1" stroke-width="1" d="M37.54 260.7H416"/><path id="6" stroke="#ddd" stroke-dasharray="2,1" stroke-width="1" d="M37.54 239.3H416"/><path id="8" stroke="#ddd" stroke-dasharray="2,1" stroke-width="1" d="M37.54 218H416"/><path id="10" stroke="#ddd" stroke-dasharray="2,1" stroke-width="1" d="M37.54 196.6H416"/><path id="12" stroke="#ddd" stroke-dasharray="2,1" stroke-width="1" d="M37.54 175.2H416"/></g><g clip-path="url(#boundsClip-1)"><g class="Lines"><g id="lines"><path id="outline__United States" fill="none" stroke="#fff" stroke-linecap="butt" stroke-linejoin="round" stroke-width="2.5" d="m37.5 178.6 5.4-1.1 5.3 2.4 5.3 7.5 5.4-4.4 5.3 1.6 5.3.4 5.4.4 5.3 1.2 5.3 3.3 5.3-2.6 5.4 5.1 5.3 7.3 5.3-3.5 5.4 9.3 5.3 5.7 5.3 3.7 5.4 1 5.3 4.7 5.3 4.4 5.3.8 5.4 1.2 5.3 12.6 5.3-4.2 5.4 4.9 5.3 4.6 5.3 2.5 5.4 1.2 5.3 3.3 5.3 2.7 5.4 1.4 5.3-4.9 5.3 3.5 5.3-1.5 5.4 8 5.3 1.7 5.3-1.6 5.4 1.8 5.3.8 5.3 3.2 5.4-.5h5.3l5.3 4 5.3-2.4 5.4.5 5.3 1.7 5.3 4 5.4-1.3 5.3 4.8 5.3-3.9 5.4.4 5.3-.1 5.3 1.7 5.4 1 5.3-.1 5.3 1.8 5.3.1 5.4 1.4 5.3-1.8 5.3 2.8h5.4l5.3-.2 5.3-2.7 5.4 4.1h5.3l5.3-2.3 5.3-2 5.4 3.2 5.3-.1 5.3 2.8 5.4-1.4 5.3 1.9"/><path id="line__United States" fill="none" stroke="#B13507" stroke-linecap="butt" stroke-linejoin="round" stroke-width="1.5" d="m37.5 178.6 5.4-1.1 5.3 2.4 5.3 7.5 5.4-4.4 5.3 1.6 5.3.4 5.4.4 5.3 1.2 5.3 3.3 5.3-2.6 5.4 5.1 5.3 7.3 5.3-3.5 5.4 9.3 5.3 5.7 5.3 3.7 5.4 1 5.3 4.7 5.3 4.4 5.3.8 5.4 1.2 5.3 12.6 5.3-4.2 5.4 4.9 5.3 4.6 5.3 2.5 5.4 1.2 5.3 3.3 5.3 2.7 5.4 1.4 5.3-4.9 5.3 3.5 5.3-1.5 5.4 8 5.3 1.7 5.3-1.6 5.4 1.8 5.3.8 5.3 3.2 5.4-.5h5.3l5.3 4 5.3-2.4 5.4.5 5.3 1.7 5.3 4 5.4-1.3 5.3 4.8 5.3-3.9 5.4.4 5.3-.1 5.3 1.7 5.4 1 5.3-.1 5.3 1.8 5.3.1 5.4 1.4 5.3-1.8 5.3 2.8h5.4l5.3-.2 5.3-2.7 5.4 4.1h5.3l5.3-2.3 5.3-2 5.4 3.2 5.3-.1 5.3 2.8 5.4-1.4 5.3 1.9"/><path id="outline__United Kingdom" fill="none" stroke="#fff" stroke-linecap="butt" stroke-linejoin="round" stroke-width="2.5" d="m37.5 190.4 5.4-2.2 5.3-14.9 5.3 17.5 5.4 2 5.3-4.1 5.3-3.8 5.4 14.4 5.3-8.4 5.3-.4 5.3 4.6 5.4-4.2 5.3 8.1 5.3-3 5.4 11.4 5.3-3.3 5.3-5.2 5.4 9.5 5.3-12.2 5.3 15.1 5.3 10.4 5.4.7 5.3-7.5 5.3 10.1 5.4.8 5.3 9.8 5.3.8 5.4-.9 5.3-3.9 5.3 14.3 5.4-2.7 5.3-5.2 5.3 14.5 5.3-1.6 5.4-7.5 5.3 18.7 5.3-4.1 5.4.9 5.3-5.5 5.3-2 5.4 11.2 5.3-6.5 5.3 7.3 5.3 8.3 5.4-1.9 5.3 5 5.3-7.2 5.4 5.7 5.3-3.9 5.3-3.7 5.4 5.5 5.3 2.7 5.3-8.1 5.4 2.5 5.3 3.3 5.3 5.1 5.3-6.9 5.4 3.2 5.3 5.5 5.3 2.5 5.4-2.6 5.3.8 5.3-4 5.4.1 5.3 5.1 5.3 4.3 5.3-2.7 5.4-3.6 5.3 6.6 5.3-1 5.4 1.1"/><path id="line__United Kingdom" fill="none" stroke="#4C6A9C" stroke-linecap="butt" stroke-linejoin="round" stroke-width="1.5" d="m37.5 190.4 5.4-2.2 5.3-14.9 5.3 17.5 5.4 2 5.3-4.1 5.3-3.8 5.4 14.4 5.3-8.4 5.3-.4 5.3 4.6 5.4-4.2 5.3 8.1 5.3-3 5.4 11.4 5.3-3.3 5.3-5.2 5.4 9.5 5.3-12.2 5.3 15.1 5.3 10.4 5.4.7 5.3-7.5 5.3 10.1 5.4.8 5.3 9.8 5.3.8 5.4-.9 5.3-3.9 5.3 14.3 5.4-2.7 5.3-5.2 5.3 14.5 5.3-1.6 5.4-7.5 5.3 18.7 5.3-4.1 5.4.9 5.3-5.5 5.3-2 5.4 11.2 5.3-6.5 5.3 7.3 5.3 8.3 5.4-1.9 5.3 5 5.3-7.2 5.4 5.7 5.3-3.9 5.3-3.7 5.4 5.5 5.3 2.7 5.3-8.1 5.4 2.5 5.3 3.3 5.3 5.1 5.3-6.9 5.4 3.2 5.3 5.5 5.3 2.5 5.4-2.6 5.3.8 5.3-4 5.4.1 5.3 5.1 5.3 4.3 5.3-2.7 5.4-3.6 5.3 6.6 5.3-1 5.4 1.1"/></g></g></g></g><text x="454.54" y="159.41" fill="#1d3d63" font-size="15.75" style="font-weight:700">Brain and nervous system cancers</text><g class="LineChart"><defs><clipPath id="boundsClip-2"><path d="M444.54 157.29h421v175h-421z"/></clipPath></defs><path fill="none" d="M433 167.29h401v155H433z"/><g class="HorizontalAxis"><g><path stroke="#999" stroke-width="1" d="M454.5 302.98v5.5M833 302.98v5.5M507.8 302.98v5.5M561.1 302.98v5.5M614.5 302.98v5.5M667.8 302.98v5.5M721.1 302.98v5.5M774.4 302.98v5.5"/></g><g><text x="454.54" y="320.29" fill="#5b5b5b" font-size="11.81" text-anchor="start">1950</text><text x="833" y="320.29" fill="#5b5b5b" font-size="11.81" text-anchor="end">2021</text><text x="507.8" y="320.29" fill="#5b5b5b" font-size="11.81" text-anchor="middle">1960</text><text x="561.1" y="320.29" fill="#5b5b5b" font-size="11.81" text-anchor="middle">1970</text><text x="614.5" y="320.29" fill="#5b5b5b" font-size="11.81" text-anchor="middle">1980</text><text x="667.8" y="320.29" fill="#5b5b5b" font-size="11.81" text-anchor="middle">1990</text><text x="721.1" y="320.29" fill="#5b5b5b" font-size="11.81" text-anchor="middle">2000</text><text x="774.4" y="320.29" fill="#5b5b5b" font-size="11.81" text-anchor="middle">2010</text></g></g><g class="VerticalAxis"><g><text x="449.54" y="303.5" fill="#5b5b5b" dy=".32em" font-size="11.81" text-anchor="end">0</text><text x="449.54" y="285.1" fill="#5b5b5b" dy=".32em" font-size="11.81" text-anchor="end">0.2</text><text x="449.54" y="266.8" fill="#5b5b5b" dy=".32em" font-size="11.81" text-anchor="end">0.4</text><text x="449.54" y="248.5" fill="#5b5b5b" dy=".32em" font-size="11.81" text-anchor="end">0.6</text><text x="449.54" y="230.2" fill="#5b5b5b" dy=".32em" font-size="11.81" text-anchor="end">0.8</text><text x="449.54" y="211.8" fill="#5b5b5b" dy=".32em" font-size="11.81" text-anchor="end">1</text><text x="449.54" y="193.5" fill="#5b5b5b" dy=".32em" font-size="11.81" text-anchor="end">1.2</text><text x="449.54" y="175.2" fill="#5b5b5b" dy=".32em" font-size="11.81" text-anchor="end">1.4</text></g></g><g class="AxisGridLines horizontalLines"><path stroke="#999" stroke-width="1" d="M454.54 303.5H833"/><path id=".2" stroke="#ddd" stroke-dasharray="2,1" stroke-width="1" d="M454.54 285.1H833"/><path id=".4" stroke="#ddd" stroke-dasharray="2,1" stroke-width="1" d="M454.54 266.8H833"/><path id=".6" stroke="#ddd" stroke-dasharray="2,1" stroke-width="1" d="M454.54 248.5H833"/><path id=".8" stroke="#ddd" stroke-dasharray="2,1" stroke-width="1" d="M454.54 230.2H833"/><path id="1" stroke="#ddd" stroke-dasharray="2,1" stroke-width="1" d="M454.54 211.8H833"/><path id="1.2" stroke="#ddd" stroke-dasharray="2,1" stroke-width="1" d="M454.54 193.5H833"/><path id="1.4" stroke="#ddd" stroke-dasharray="2,1" stroke-width="1" d="M454.54 175.2H833"/></g><g clip-path="url(#boundsClip-2)"><g class="Lines"><g><path fill="none" stroke="#fff" stroke-linecap="butt" stroke-linejoin="round" stroke-width="2.5" d="m609.1 226.6 5.4 1.6 5.3-5.7 5.3-5.1 5.3 9.5 5.4 1.8 5.3 6.1 5.3-3.2 5.4 7.3 5.3-3.2 5.3 2.2 5.4-1.2 5.3-10.3 5.3 9.7 5.3-18 5.4 17.8 5.3.6 5.3-3.3 5.4-2.5 5.3 20.9 5.3-16.6 5.4 6.5 5.3 2.2 5.3-7.3 5.4 6.6 5.3 2 5.3 11 5.3-9.3 5.4-3.3 5.3-5.2 5.3 19.2 5.4-9.4 5.3-5.2 5.3 1.3 5.4 8.3 5.3 2.3 5.3-4.5 5.3-6.9 5.4 17.5 5.3 2.3 5.3-.6 5.4-1.7 5.3 1.4"/><path fill="none" stroke="#B13507" stroke-linecap="butt" stroke-linejoin="round" stroke-width="1.5" d="m609.1 226.6 5.4 1.6 5.3-5.7 5.3-5.1 5.3 9.5 5.4 1.8 5.3 6.1 5.3-3.2 5.4 7.3 5.3-3.2 5.3 2.2 5.4-1.2 5.3-10.3 5.3 9.7 5.3-18 5.4 17.8 5.3.6 5.3-3.3 5.4-2.5 5.3 20.9 5.3-16.6 5.4 6.5 5.3 2.2 5.3-7.3 5.4 6.6 5.3 2 5.3 11 5.3-9.3 5.4-3.3 5.3-5.2 5.3 19.2 5.4-9.4 5.3-5.2 5.3 1.3 5.4 8.3 5.3 2.3 5.3-4.5 5.3-6.9 5.4 17.5 5.3 2.3 5.3-.6 5.4-1.7 5.3 1.4"/><path fill="none" stroke="#fff" stroke-linecap="butt" stroke-linejoin="round" stroke-width="2.5" d="m609.1 173.3 5.4 17.2 5.3 8.8 5.3 35.7 5.3-33.8 5.4 22.8 5.3-3.6 5.3.7 5.4-27.2 5.3 29.3 5.3-10.3 5.4 33.7 5.3-26.1 5.3.9 5.3 17.6 5.4 5.6 5.3 5.6 5.3-31.1 5.4 7.3 5.3 5.7 5.3-23 5.4 40.4 5.3-33.9 5.3-2 5.4 8.6 5.3 6.2 5.3 21L753 204l5.4 9 5.3 21.2 5.3 20.3 5.4-4.9 5.3 1.1 5.3-39.4 5.4 41 5.3-2.4 5.3 2.8 5.3-11.6 5.4-.7 5.3 30.2 5.3.7 5.4-18.3"/><path fill="none" stroke="#4C6A9C" stroke-linecap="butt" stroke-linejoin="round" stroke-width="1.5" d="m609.1 173.3 5.4 17.2 5.3 8.8 5.3 35.7 5.3-33.8 5.4 22.8 5.3-3.6 5.3.7 5.4-27.2 5.3 29.3 5.3-10.3 5.4 33.7 5.3-26.1 5.3.9 5.3 17.6 5.4 5.6 5.3 5.6 5.3-31.1 5.4 7.3 5.3 5.7 5.3-23 5.4 40.4 5.3-33.9 5.3-2 5.4 8.6 5.3 6.2 5.3 21L753 204l5.4 9 5.3 21.2 5.3 20.3 5.4-4.9 5.3 1.1 5.3-39.4 5.4 41 5.3-2.4 5.3 2.8 5.3-11.6 5.4-.7 5.3 30.2 5.3.7 5.4-18.3"/></g></g></g></g><text x="37.54" y="353.41" fill="#1d3d63" font-size="15.75" style="font-weight:700">Leukemia</text><g class="LineChart"><defs><clipPath id="boundsClip-3"><path d="M27.54 351.29h421v175h-421z"/></clipPath></defs><path fill="none" d="M16 361.29h401v155H16z"/><g class="HorizontalAxis"><g><path stroke="#999" stroke-width="1" d="M37.5 496.98v5.5M416 496.98v5.5M90.8 496.98v5.5M144.1 496.98v5.5M197.5 496.98v5.5M250.8 496.98v5.5M304.1 496.98v5.5M357.4 496.98v5.5"/></g><g><text x="37.54" y="514.29" fill="#5b5b5b" font-size="11.81" text-anchor="start">1950</text><text x="416" y="514.29" fill="#5b5b5b" font-size="11.81" text-anchor="end">2021</text><text x="90.8" y="514.29" fill="#5b5b5b" font-size="11.81" text-anchor="middle">1960</text><text x="144.1" y="514.29" fill="#5b5b5b" font-size="11.81" text-anchor="middle">1970</text><text x="197.5" y="514.29" fill="#5b5b5b" font-size="11.81" text-anchor="middle">1980</text><text x="250.8" y="514.29" fill="#5b5b5b" font-size="11.81" text-anchor="middle">1990</text><text x="304.1" y="514.29" fill="#5b5b5b" font-size="11.81" text-anchor="middle">2000</text><text x="357.4" y="514.29" fill="#5b5b5b" font-size="11.81" text-anchor="middle">2010</text></g></g><g class="VerticalAxis"><g><text x="32.54" y="497.5" fill="#5b5b5b" dy=".32em" font-size="11.81" text-anchor="end">0</text><text x="32.54" y="475.6" fill="#5b5b5b" dy=".32em" font-size="11.81" text-anchor="end">1</text><text x="32.54" y="453.8" fill="#5b5b5b" dy=".32em" font-size="11.81" text-anchor="end">2</text><text x="32.54" y="431.9" fill="#5b5b5b" dy=".32em" font-size="11.81" text-anchor="end">3</text><text x="32.54" y="410" fill="#5b5b5b" dy=".32em" font-size="11.81" text-anchor="end">4</text><text x="32.54" y="388.2" fill="#5b5b5b" dy=".32em" font-size="11.81" text-anchor="end">5</text></g></g><g class="AxisGridLines horizontalLines"><path stroke="#999" stroke-width="1" d="M37.54 497.5H416"/><path stroke="#ddd" stroke-dasharray="2,1" stroke-width="1" d="M37.54 475.6H416M37.54 453.8H416"/><path id="3" stroke="#ddd" stroke-dasharray="2,1" stroke-width="1" d="M37.54 431.9H416"/><path stroke="#ddd" stroke-dasharray="2,1" stroke-width="1" d="M37.54 410H416"/><path id="5" stroke="#ddd" stroke-dasharray="2,1" stroke-width="1" d="M37.54 388.2H416"/></g><g clip-path="url(#boundsClip-3)"><g class="Lines"><g><path fill="none" stroke="#fff" stroke-linecap="butt" stroke-linejoin="round" stroke-width="2.5" d="m37.5 368.8 5.4-1.5 5.3 2 5.3 12.2 5.4-7.3 5.3 5.3 5.3-3.6h5.4l5.3 4 5.3 3.7 5.3-6.7 5.4 10.5 5.3 3.7 5.3-5.7 5.4 18.9 5.3 1.4 5.3 3.3 5.4 3.7 5.3 5.1 5.3 4 5.3.5 5.4 1.6 5.3 21h5.3l5.4 5.8 5.3-4 5.3 8.1 5.4 3.5 5.3-.3 5.3 3.2 5.4 4.4 5.3-6.3 5.3 6.3 5.3-5.3 5.4 10.3 5.3-1 5.3-1.6 5.4.5 5.3 1 5.3 4.4 5.4-1.5 5.3-.2 5.3.8 5.3 3.1 5.4-2.1 5.3 2 5.3.3 5.4 2.1 5.3 2.4 5.3-.5 5.4-2.3 5.3-2.6 5.3 7.5 5.4-3.9 5.3 2.1 5.3.2 5.3-.5 5.4 2.7 5.3-2.1 5.3.6 5.4.8 5.3 2.3 5.3-5.4 5.4 5.1 5.3-.8 5.3-2.1 5.3.7 5.4-.5 5.3.6 5.3 2.2 5.4.7 5.3 2.2"/><path fill="none" stroke="#B13507" stroke-linecap="butt" stroke-linejoin="round" stroke-width="1.5" d="m37.5 368.8 5.4-1.5 5.3 2 5.3 12.2 5.4-7.3 5.3 5.3 5.3-3.6h5.4l5.3 4 5.3 3.7 5.3-6.7 5.4 10.5 5.3 3.7 5.3-5.7 5.4 18.9 5.3 1.4 5.3 3.3 5.4 3.7 5.3 5.1 5.3 4 5.3.5 5.4 1.6 5.3 21h5.3l5.4 5.8 5.3-4 5.3 8.1 5.4 3.5 5.3-.3 5.3 3.2 5.4 4.4 5.3-6.3 5.3 6.3 5.3-5.3 5.4 10.3 5.3-1 5.3-1.6 5.4.5 5.3 1 5.3 4.4 5.4-1.5 5.3-.2 5.3.8 5.3 3.1 5.4-2.1 5.3 2 5.3.3 5.4 2.1 5.3 2.4 5.3-.5 5.4-2.3 5.3-2.6 5.3 7.5 5.4-3.9 5.3 2.1 5.3.2 5.3-.5 5.4 2.7 5.3-2.1 5.3.6 5.4.8 5.3 2.3 5.3-5.4 5.4 5.1 5.3-.8 5.3-2.1 5.3.7 5.4-.5 5.3.6 5.3 2.2 5.4.7 5.3 2.2"/><path fill="none" stroke="#fff" stroke-linecap="butt" stroke-linejoin="round" stroke-width="2.5" d="m37.5 394.9 5.4-7.6 5.3-10.1 5.3 5.4 5.4 5.9 5.3 1.9 5.3 2.2 5.4.9 5.3 5.3 5.3-13.1 5.3 6.6 5.4 1.1 5.3 10.1 5.3-2.2 5.4 12.2 5.3-3.5 5.3-4.1 5.4 12.8 5.3-15.4 5.3 14.9 5.3 15 5.4-1.1 5.3-5.2 5.3-3.7 5.4 10.3 5.3 10.7 5.3 4.7 5.4 2.5 5.3-8.7 5.3 12.3h5.4l5.3-4 5.3 8.4 5.3 2.2 5.4-11.9 5.3 25.7 5.3-12.7 5.4 10.1 5.3-7.8 5.3-10 5.4 15.4 5.3-4 5.3 6.6 5.3 13.3 5.4-6.4 5.3 1.3 5.3 1.2 5.4-6.2 5.3 3.5 5.3-10 5.4-.3 5.3 11.8 5.3-5.2 5.4-3.6 5.3 9.6 5.3 2.6 5.3-6.9 5.4 2.8 5.3 3.5 5.3-1.1 5.4 1 5.3.3 5.3-.5 5.4.2 5.3 1.5 5.3 4 5.3-4.1 5.4-4.2 5.3 3.6 5.3 1.6 5.4 1.3"/><path fill="none" stroke="#4C6A9C" stroke-linecap="butt" stroke-linejoin="round" stroke-width="1.5" d="m37.5 394.9 5.4-7.6 5.3-10.1 5.3 5.4 5.4 5.9 5.3 1.9 5.3 2.2 5.4.9 5.3 5.3 5.3-13.1 5.3 6.6 5.4 1.1 5.3 10.1 5.3-2.2 5.4 12.2 5.3-3.5 5.3-4.1 5.4 12.8 5.3-15.4 5.3 14.9 5.3 15 5.4-1.1 5.3-5.2 5.3-3.7 5.4 10.3 5.3 10.7 5.3 4.7 5.4 2.5 5.3-8.7 5.3 12.3h5.4l5.3-4 5.3 8.4 5.3 2.2 5.4-11.9 5.3 25.7 5.3-12.7 5.4 10.1 5.3-7.8 5.3-10 5.4 15.4 5.3-4 5.3 6.6 5.3 13.3 5.4-6.4 5.3 1.3 5.3 1.2 5.4-6.2 5.3 3.5 5.3-10 5.4-.3 5.3 11.8 5.3-5.2 5.4-3.6 5.3 9.6 5.3 2.6 5.3-6.9 5.4 2.8 5.3 3.5 5.3-1.1 5.4 1 5.3.3 5.3-.5 5.4.2 5.3 1.5 5.3 4 5.3-4.1 5.4-4.2 5.3 3.6 5.3 1.6 5.4 1.3"/></g></g></g></g><text x="454.54" y="353.41" fill="#1d3d63" font-size="15.75" style="font-weight:700">Lymphomas and multiple myeloma</text><g class="LineChart"><defs><clipPath id="boundsClip-4"><path d="M444.54 351.29h421v175h-421z"/></clipPath></defs><path fill="none" d="M433 361.29h401v155H433z"/><g class="HorizontalAxis"><g><path stroke="#999" stroke-width="1" d="M454.5 496.98v5.5M833 496.98v5.5M507.8 496.98v5.5M561.1 496.98v5.5M614.5 496.98v5.5M667.8 496.98v5.5M721.1 496.98v5.5M774.4 496.98v5.5"/></g><g><text x="454.54" y="514.29" fill="#5b5b5b" font-size="11.81" text-anchor="start">1950</text><text x="833" y="514.29" fill="#5b5b5b" font-size="11.81" text-anchor="end">2021</text><text x="507.8" y="514.29" fill="#5b5b5b" font-size="11.81" text-anchor="middle">1960</text><text x="561.1" y="514.29" fill="#5b5b5b" font-size="11.81" text-anchor="middle">1970</text><text x="614.5" y="514.29" fill="#5b5b5b" font-size="11.81" text-anchor="middle">1980</text><text x="667.8" y="514.29" fill="#5b5b5b" font-size="11.81" text-anchor="middle">1990</text><text x="721.1" y="514.29" fill="#5b5b5b" font-size="11.81" text-anchor="middle">2000</text><text x="774.4" y="514.29" fill="#5b5b5b" font-size="11.81" text-anchor="middle">2010</text></g></g><g class="VerticalAxis"><g><text x="449.54" y="497.5" fill="#5b5b5b" dy=".32em" font-size="11.81" text-anchor="end">0</text><text x="449.54" y="470.5" fill="#5b5b5b" dy=".32em" font-size="11.81" text-anchor="end">0.2</text><text x="449.54" y="443.5" fill="#5b5b5b" dy=".32em" font-size="11.81" text-anchor="end">0.4</text><text x="449.54" y="416.5" fill="#5b5b5b" dy=".32em" font-size="11.81" text-anchor="end">0.6</text><text x="449.54" y="389.6" fill="#5b5b5b" dy=".32em" font-size="11.81" text-anchor="end">0.8</text></g></g><g class="AxisGridLines horizontalLines"><path stroke="#999" stroke-width="1" d="M454.54 497.5H833"/><path stroke="#ddd" stroke-dasharray="2,1" stroke-width="1" d="M454.54 470.5H833M454.54 443.5H833M454.54 416.5H833M454.54 389.6H833"/></g><g clip-path="url(#boundsClip-4)"><g class="Lines"><g><path fill="none" stroke="#fff" stroke-linecap="butt" stroke-linejoin="round" stroke-width="2.5" d="m454.5 399 5.4 2.8 5.3-12.7 5.3 17 5.4-1 5.3-37.8 5.3 40.6 5.4 8.8 5.3-19.6 5.3-1.6 5.3 12.9 5.4-9.6 5.3 19.8 5.3-9.4 5.4 9.6 5.3 11.1 5.3 7.6 5.4-4.7 5.3 8.4 5.3 10.6 5.3-1.1 5.4-1.8 5.3 3.3 5.3-19 5.4 17.6 5.3 11.3 5.3 1.9 5.4 6 5.3-3 5.3-4.7 5.4 9 5.3-2.1 5.3 1.7 5.3-1.6 5.4 8.2 5.3-3.7 5.3-3.5 5.4 10.4 5.3-6.3 5.3 1.2 5.4 8.2 5.3 2.1 5.3-3.2 5.3-2.3 5.4 4.3 5.3-.9 5.3 2.4 5.4 6 5.3-8.9 5.3-1.9 5.4 8.2 5.3 6.1 5.3-11.2 5.4 8.7 5.3 2.6 5.3-5h5.3l5.4 2.6 5.3.8 5.3-2.4h5.4l5.3.8 5.3.8h5.4l5.3-5 5.3 5.7 5.3-3.4 5.4 2.5 5.3-1.8 5.3-.8 5.4 3.4 5.3-2.5"/><path fill="none" stroke="#B13507" stroke-linecap="butt" stroke-linejoin="round" stroke-width="1.5" d="m454.5 399 5.4 2.8 5.3-12.7 5.3 17 5.4-1 5.3-37.8 5.3 40.6 5.4 8.8 5.3-19.6 5.3-1.6 5.3 12.9 5.4-9.6 5.3 19.8 5.3-9.4 5.4 9.6 5.3 11.1 5.3 7.6 5.4-4.7 5.3 8.4 5.3 10.6 5.3-1.1 5.4-1.8 5.3 3.3 5.3-19 5.4 17.6 5.3 11.3 5.3 1.9 5.4 6 5.3-3 5.3-4.7 5.4 9 5.3-2.1 5.3 1.7 5.3-1.6 5.4 8.2 5.3-3.7 5.3-3.5 5.4 10.4 5.3-6.3 5.3 1.2 5.4 8.2 5.3 2.1 5.3-3.2 5.3-2.3 5.4 4.3 5.3-.9 5.3 2.4 5.4 6 5.3-8.9 5.3-1.9 5.4 8.2 5.3 6.1 5.3-11.2 5.4 8.7 5.3 2.6 5.3-5h5.3l5.4 2.6 5.3.8 5.3-2.4h5.4l5.3.8 5.3.8h5.4l5.3-5 5.3 5.7 5.3-3.4 5.4 2.5 5.3-1.8 5.3-.8 5.4 3.4 5.3-2.5"/><path fill="none" stroke="#fff" stroke-linecap="butt" stroke-linejoin="round" stroke-width="2.5" d="m454.5 424.6 5.4-3.1 5.3 2.9 5.3-24.5 5.4-10.9 5.3-5.3 5.3 38.9 5.4-16.8 5.3 22.6 5.3-15.6 5.3-18 5.4 22.4 5.3-13.1 5.3 17.8 5.4-5.3 5.3-33.5 5.3 26.6 5.4 14.3 5.3-17.5 5.3 48.4 5.3-15.2 5.4 9.2 5.3-23.4 5.3 14.2 5.4 9.9 5.3-2 5.3-7.4 5.4-8 5.3 11.4 5.3 23.6 5.4-10 5.3-4.3 5.3 15.8 5.3 5.3 5.4.1 5.3 9.3 5.3-13.9 5.4 4.9 5.3 4.9 5.3-4 5.4-4.3 5.3 4.7 5.3 8.8h5.3l5.4-4.4 5.3-4.4 5.3 17.3 5.4-.1 5.3-9.1 5.3 4.4 5.4-.1 5.3-14.6 5.3 9.3 5.4-.3 5.3 4.9 5.3-9.8 5.3 10.1 5.4 5 5.3.1 5.3 4.7 5.4-4.4 5.3-4.3 5.3 8.7h5.4l5.3-16.6 5.3 16.6 5.3-4.2 5.4 4.2h5.3l5.3-8.6 5.4 4.2"/><path fill="none" stroke="#4C6A9C" stroke-linecap="butt" stroke-linejoin="round" stroke-width="1.5" d="m454.5 424.6 5.4-3.1 5.3 2.9 5.3-24.5 5.4-10.9 5.3-5.3 5.3 38.9 5.4-16.8 5.3 22.6 5.3-15.6 5.3-18 5.4 22.4 5.3-13.1 5.3 17.8 5.4-5.3 5.3-33.5 5.3 26.6 5.4 14.3 5.3-17.5 5.3 48.4 5.3-15.2 5.4 9.2 5.3-23.4 5.3 14.2 5.4 9.9 5.3-2 5.3-7.4 5.4-8 5.3 11.4 5.3 23.6 5.4-10 5.3-4.3 5.3 15.8 5.3 5.3 5.4.1 5.3 9.3 5.3-13.9 5.4 4.9 5.3 4.9 5.3-4 5.4-4.3 5.3 4.7 5.3 8.8h5.3l5.4-4.4 5.3-4.4 5.3 17.3 5.4-.1 5.3-9.1 5.3 4.4 5.4-.1 5.3-14.6 5.3 9.3 5.4-.3 5.3 4.9 5.3-9.8 5.3 10.1 5.4 5 5.3.1 5.3 4.7 5.4-4.4 5.3-4.3 5.3 8.7h5.4l5.3-16.6 5.3 16.6 5.3-4.2 5.4 4.2h5.3l5.3-8.6 5.4 4.2"/></g></g></g></g></g><g id="footer" class="SourcesFooter" style="fill:#5b5b5b"><g id="sources" class="markdown-text-wrap"><text x="16" y="546.5" style="font-size:13.5px;line-height:1.2"><tspan x="16" y="546.5"><tspan style="font-weight:700">Data source:</tspan> WHO Mortality Database (2024)</tspan></text></g><g id="note" class="markdown-text-wrap"><text x="16" y="564.7" style="font-size:13.5px;line-height:1.2"><tspan x="16" y="564.7"><tspan style="font-weight:700">Note:</tspan> Figures may fluctuate greatly due to low numbers, especially in countries with smaller populations. Comparisons may be affected</tspan><tspan x="16" y="580.9">by differences in measurement.</tspan></text></g><text id="origin-url" x="616.9" y="546.5" font-size="13.5"><tspan x="616.92" y="546.5"><a href="https://ourworldindata.org/cancer" style="fill:#5b5b5b" target="_blank">OurWorldinData.org/cancer</a> | <a href="https://creativecommons.org/licenses/by/4.0/" style="fill:#5b5b5b" target="_blank">CC BY</a></tspan></text></g></svg>