<svg xmlns="http://www.w3.org/2000/svg" width="850" height="600" style="font-family:Lato,&quot;Helvetica Neue&quot;,Helvetica,Arial,&quot;Liberation Sans&quot;,sans-serif;font-size:18px;background-color:#fff;text-rendering:geometricPrecision;-webkit-font-smoothing:antialiased" version="1.1" viewBox="0 0 850 600"><defs><style>@import url(https://ourworldindata.org/fonts.css);</style></defs><defs><pattern id="noDataPattern" width="4" height="4" patternTransform="rotate(-45 2 2)" patternUnits="userSpaceOnUse"><path stroke="#ccc" stroke-width=".7" d="M-1 2h6"/></pattern></defs><path fill="#fff" d="M0 0h850v600H0z" class="background-fill"/><g id="header" class="HeaderView"><g id="logo" transform="translate(769 16)"><svg xmlns="http://www.w3.org/2000/svg" width="65" height="36" fill="none" className="owidLogo" viewBox="0 0 65 36"><path fill="#002147" d="M0 0h64.8v36H0z"/><path fill="#CE261E" d="M0 33.3h64.8V36H0z"/><path fill="#fff" d="M13.8 10.57c0 .64-.11 1.23-.32 1.77a4.2 4.2 0 0 1-.9 1.4 4.08 4.08 0 0 1-1.38.94c-.54.22-1.14.33-1.8.33-.65 0-1.25-.11-1.8-.33a4.15 4.15 0 0 1-1.39-.93 4.2 4.2 0 0 1-.9-1.4A4.83 4.83 0 0 1 5 10.56c0-.63.1-1.22.32-1.76a4.18 4.18 0 0 1 .9-1.4 4.08 4.08 0 0 1 1.38-.93 4.68 4.68 0 0 1 1.8-.34c.66 0 1.26.11 1.8.34a4.08 4.08 0 0 1 2.28 2.33c.21.54.32 1.13.32 1.76Zm-1.66 0c0-.47-.06-.9-.2-1.27a2.67 2.67 0 0 0-.53-.97 2.33 2.33 0 0 0-.87-.6A2.94 2.94 0 0 0 9.4 7.5c-.42 0-.8.07-1.14.21-.34.14-.63.35-.87.61a2.74 2.74 0 0 0-.55.97 3.96 3.96 0 0 0-.19 1.27c0 .48.06.9.2 1.29a2.42 2.42 0 0 0 1.42 1.56c.33.14.71.2 1.13.2.43 0 .8-.06 1.14-.2a2.37 2.37 0 0 0 1.4-1.56 4.01 4.01 0 0 0 .2-1.29Zm3.96-1.81v3.9c0 .39.09.68.26.89.18.2.44.3.79.3.25 0 .5-.06.72-.17a2.58 2.58 0 0 0 .63-.47V8.76H20v6.15h-.91c-.2 0-.32-.09-.38-.27l-.1-.49a4.65 4.65 0 0 1-.4.35 2.58 2.58 0 0 1-.43.27 2.35 2.35 0 0 1-.5.17 2.35 2.35 0 0 1-.57.07c-.34 0-.64-.06-.9-.17a1.82 1.82 0 0 1-.64-.49 2.16 2.16 0 0 1-.4-.73 3.23 3.23 0 0 1-.14-.95V8.76h1.48Zm5.23 6.15V8.76h.87c.15 0 .26.02.32.08s.1.15.12.29l.09.74c.22-.38.47-.68.77-.9.3-.22.63-.33 1-.33.3 0 .55.07.75.21l-.19 1.11c-.01.07-.04.13-.08.16a.28.28 0 0 1-.16.04 1.01 1.01 0 0 1-.25-.04 1.65 1.65 0 0 0-.41-.04c-.3 0-.57.08-.8.25-.21.17-.4.42-.55.75v3.83h-1.48Zm6.02-8.67h1.35a.57.57 0 0 1 .35.1c.1.06.16.15.2.26l1.47 5.2a10.12 10.12 0 0 1 .19.9 5.97 5.97 0 0 1 .22-.9l1.7-5.2a.57.57 0 0 1 .2-.25.54.54 0 0 1 .34-.11h.48a.57.57 0 0 1 .34.1.5.5 0 0 1 .2.26l1.69 5.2c.08.25.16.53.22.85a31.71 31.71 0 0 1 .19-.86l1.47-5.19c.03-.1.1-.18.19-.25a.56.56 0 0 1 .34-.11h1.27l-2.7 8.67h-1.45L33.7 9l-.08-.25a9.5 9.5 0 0 1-.07-.28 4.04 4.04 0 0 1-.15.53L31.5 14.9h-1.46l-2.7-8.67Zm15.42 2.42c.46 0 .88.07 1.25.22s.7.36.96.63.47.6.61 1 .22.83.22 1.31c0 .5-.08.93-.22 1.32a2.85 2.85 0 0 1-.61 1 2.65 2.65 0 0 1-.96.64 3.35 3.35 0 0 1-1.25.22 3.4 3.4 0 0 1-1.25-.22 2.71 2.71 0 0 1-.97-.63 2.92 2.92 0 0 1-.62-1 3.8 3.8 0 0 1-.21-1.33c0-.48.07-.92.21-1.31a2.75 2.75 0 0 1 1.58-1.63 3.4 3.4 0 0 1 1.26-.22Zm0 5.2c.51 0 .9-.17 1.13-.51.25-.35.38-.85.38-1.52s-.13-1.17-.38-1.51c-.24-.35-.62-.53-1.13-.53-.52 0-.9.18-1.15.53-.25.35-.37.85-.37 1.51s.12 1.17.37 1.52c.25.34.63.51 1.15.51Zm3.95 1.05V8.76h.87c.15 0 .26.02.32.08s.1.15.12.29l.1.74c.21-.38.47-.68.76-.9.3-.22.63-.33 1-.33.3 0 .56.07.76.21l-.2 1.11c0 .07-.03.13-.07.16a.28.28 0 0 1-.17.04 1.01 1.01 0 0 1-.24-.04 1.65 1.65 0 0 0-.42-.04c-.3 0-.57.08-.79.25-.22.17-.4.42-.56.75v3.83h-1.48ZM52.96 6v8.91h-1.48V6h1.48Zm5.77 8.91c-.19 0-.32-.09-.38-.27l-.12-.6a3.68 3.68 0 0 1-.4.4 2.5 2.5 0 0 1-.98.5 2.37 2.37 0 0 1-.6.06c-.33 0-.64-.07-.92-.2a2.1 2.1 0 0 1-.73-.61 3.03 3.03 0 0 1-.46-1 5.07 5.07 0 0 1-.17-1.34c0-.45.07-.88.19-1.27s.3-.73.53-1.02c.24-.29.51-.51.84-.67a2.38 2.38 0 0 1 1.09-.25 2.1 2.1 0 0 1 1.54.6V6h1.48v8.91h-.9Zm-1.97-1.08c.3 0 .57-.07.78-.2.22-.12.42-.3.62-.54v-2.76a1.45 1.45 0 0 0-.56-.43 1.6 1.6 0 0 0-.63-.13c-.23 0-.43.04-.61.13a1.21 1.21 0 0 0-.47.38c-.12.17-.22.39-.28.65a4.3 4.3 0 0 0-.02 1.84c.06.25.14.45.25.61.1.16.24.27.4.34.15.07.33.1.52.1Zm-40.43 6.93v6.15h-1.48v-6.15h1.48Zm.22-1.8a.84.84 0 0 1-.07.36.96.96 0 0 1-.21.3 1 1 0 0 1-.3.2.96.96 0 0 1-.38.07.95.95 0 0 1-.36-.07 1.02 1.02 0 0 1-.5-.5.96.96 0 0 1 0-.73 1 1 0 0 1 .2-.3.93.93 0 0 1 .3-.2.9.9 0 0 1 .73 0 .91.91 0 0 1 .3.2.94.94 0 0 1 .3.67Zm1.22 7.95v-6.15h.9c.2 0 .32.09.38.27l.1.48a2.93 2.93 0 0 1 .84-.61 2.3 2.3 0 0 1 1.07-.24c.34 0 .63.06.9.18.25.1.47.27.64.48.18.2.3.45.4.73.09.29.13.6.13.95v3.91h-1.48V23c0-.38-.08-.67-.26-.87-.17-.21-.43-.32-.78-.32-.26 0-.5.06-.72.18a2.58 2.58 0 0 0-.64.47v4.45h-1.48Zm16.45-4.34c0 .64-.1 1.22-.32 1.76-.21.53-.5.99-.9 1.37a4 4 0 0 1-1.38.9 4.87 4.87 0 0 1-1.8.31h-3.3v-8.67h3.3a4.79 4.79 0 0 1 1.8.32 4 4 0 0 1 1.39.9c.38.37.68.83.9 1.36.2.53.31 1.12.31 1.75Zm-1.65 0c0-.47-.06-.9-.2-1.27a2.68 2.68 0 0 0-.54-.96 2.33 2.33 0 0 0-.86-.6 2.94 2.94 0 0 0-1.14-.22h-1.69v6.1h1.69c.42 0 .8-.06 1.14-.2.34-.14.63-.34.86-.6a2.75 2.75 0 0 0 .55-.96 4.01 4.01 0 0 0 .19-1.29Zm7.41 4.34h-.67a.75.75 0 0 1-.33-.06c-.07-.04-.13-.13-.17-.25l-.14-.44c-.15.14-.3.26-.46.37a2.8 2.8 0 0 1-.46.26c-.16.08-.33.13-.51.17a3.07 3.07 0 0 1-1.32-.05 1.62 1.62 0 0 1-.57-.32 1.45 1.45 0 0 1-.37-.52 1.85 1.85 0 0 1-.13-.73c0-.23.06-.46.18-.68.12-.23.33-.44.61-.62.29-.18.67-.33 1.14-.45a8.01 8.01 0 0 1 1.75-.2v-.36c0-.42-.08-.72-.26-.92-.17-.2-.42-.3-.76-.3a1.84 1.84 0 0 0-1.01.28l-.33.19a.66.66 0 0 1-.33.08.43.43 0 0 1-.26-.08.61.61 0 0 1-.17-.2l-.27-.46c.7-.65 1.56-.98 2.56-.98.36 0 .68.06.96.18a1.99 1.99 0 0 1 1.16 1.25c.1.29.16.6.16.96v3.88ZM37.1 26c.15 0 .3-.01.42-.04a1.81 1.81 0 0 0 .69-.33c.1-.09.22-.19.32-.3v-1.04c-.43.02-.79.06-1.08.12a2.8 2.8 0 0 0-.7.2.92.92 0 0 0-.37.3.66.66 0 0 0-.11.36c0 .26.07.45.22.56.16.11.36.17.61.17ZM43.22 27c-.53 0-.94-.15-1.23-.45-.29-.3-.43-.72-.43-1.25v-3.44h-.63a.31.31 0 0 1-.2-.08c-.06-.05-.09-.13-.09-.23v-.6l.99-.15.31-1.68a.3.3 0 0 1 .11-.2.36.36 0 0 1 .22-.06h.77v1.94h1.62v1.06h-1.62v3.33c0 .2.05.35.14.45a.49.49 0 0 0 .39.17.73.73 0 0 0 .39-.1l.12-.07a.2.2 0 0 1 .11-.04.16.16 0 0 1 .11.04c.03.02.06.05.09.1l.44.71c-.21.18-.46.32-.74.41a2.77 2.77 0 0 1-.87.14Zm7.2-.1h-.66a.75.75 0 0 1-.33-.06c-.08-.04-.14-.13-.18-.25l-.13-.44c-.16.14-.31.26-.47.37a2.8 2.8 0 0 1-.46.26c-.16.08-.33.13-.5.17a3.07 3.07 0 0 1-1.33-.05 1.62 1.62 0 0 1-.57-.32 1.45 1.45 0 0 1-.36-.52 1.85 1.85 0 0 1-.14-.73c0-.23.06-.46.18-.68.13-.23.33-.44.62-.62.28-.18.66-.33 1.13-.45a8.01 8.01 0 0 1 1.76-.2v-.36c0-.42-.1-.72-.27-.92-.17-.2-.42-.3-.75-.3a1.84 1.84 0 0 0-1.02.28l-.33.19a.66.66 0 0 1-.33.08.43.43 0 0 1-.25-.08.61.61 0 0 1-.18-.2l-.27-.46c.7-.65 1.56-.98 2.56-.98.36 0 .68.06.96.18a1.99 1.99 0 0 1 1.17 1.25c.1.29.15.6.15.96v3.88ZM47.54 26c.16 0 .3-.01.42-.04a1.88 1.88 0 0 0 .69-.33l.33-.3v-1.04c-.44.02-.8.06-1.09.12a2.8 2.8 0 0 0-.7.2.92.92 0 0 0-.37.3.66.66 0 0 0-.11.36c0 .26.08.45.23.56.15.11.36.17.6.17Z"/></svg></g><a id="title" href="https://ourworldindata.org/grapher/rate-of-new-cases-of-cancer-by-type" rel="noopener" style="font-family:&quot;Playfair Display&quot;,Georgia,&quot;Times New Roman&quot;,&quot;Liberation Serif&quot;,serif" target="_blank"><text x="16" y="40" fill="#5b5b5b" font-size="24.75" font-weight="600"><tspan x="16" y="40.01">Rate of new cases of cancer by type, United States</tspan></text></a><g id="subtitle" class="markdown-text-wrap"><text x="16" y="63.9" fill="#5b5b5b" style="font-size:14.625px;line-height:1.2"><tspan x="16" y="63.9">Estimated number of new <tspan class="dod-span" data-id="cancer">cancer</tspan> cases per 100,000 people.</tspan></text></g></g><g id="chart-area" style="pointer-events:none"><g id="line-chart" class="LineChart"><defs><clipPath id="boundsClip-3"><path d="M26.12 73.25h838V543.6h-838z"/></clipPath></defs><path fill="none" d="M16 83.25h818V533.6H16z"/><g id="dual-axis" class="DualAxisView"><g id="horizontal-axis" class="HorizontalAxis"><g id="tick__1990"><path stroke="#999" stroke-width="1" d="M36.1 512.6v5.5"/><text x="36.12" y="531.6" fill="#5b5b5b" font-size="13.5" text-anchor="start">1990</text></g><g id="tick__2021"><path stroke="#999" stroke-width="1" d="M627.1 512.6v5.5"/><text x="627.14" y="531.6" fill="#5b5b5b" font-size="13.5" text-anchor="end">2021</text></g><g id="tick__1995"><path stroke="#999" stroke-width="1" d="M131.4 512.6v5.5"/><text x="131.4" y="531.6" fill="#5b5b5b" font-size="13.5" text-anchor="middle">1995</text></g><g id="tick__2000"><path stroke="#999" stroke-width="1" d="M226.8 512.6v5.5"/><text x="226.8" y="531.6" fill="#5b5b5b" font-size="13.5" text-anchor="middle">2000</text></g><g id="tick__2005"><path stroke="#999" stroke-width="1" d="M322.1 512.6v5.5"/><text x="322.1" y="531.6" fill="#5b5b5b" font-size="13.5" text-anchor="middle">2005</text></g><g id="tick__2010"><path stroke="#999" stroke-width="1" d="M417.4 512.6v5.5"/><text x="417.4" y="531.6" fill="#5b5b5b" font-size="13.5" text-anchor="middle">2010</text></g><g id="tick__2015"><path stroke="#999" stroke-width="1" d="M512.8 512.6v5.5"/><text x="512.8" y="531.6" fill="#5b5b5b" font-size="13.5" text-anchor="middle">2015</text></g></g><g id="vertical-axis" class="VerticalAxis"><g id="tick-labels"><text id="tick-label__0" x="31.12" y="513.1" fill="#5b5b5b" dy=".32em" font-size="13.5" text-anchor="end">0</text><text id="tick-label__10" x="31.12" y="453" fill="#5b5b5b" dy=".32em" font-size="13.5" text-anchor="end">10</text><text id="tick-label__20" x="31.12" y="392.9" fill="#5b5b5b" dy=".32em" font-size="13.5" text-anchor="end">20</text><text id="tick-label__30" x="31.12" y="332.8" fill="#5b5b5b" dy=".32em" font-size="13.5" text-anchor="end">30</text><text id="tick-label__40" x="31.12" y="272.7" fill="#5b5b5b" dy=".32em" font-size="13.5" text-anchor="end">40</text><text id="tick-label__50" x="31.12" y="212.6" fill="#5b5b5b" dy=".32em" font-size="13.5" text-anchor="end">50</text><text id="tick-label__60" x="31.12" y="152.6" fill="#5b5b5b" dy=".32em" font-size="13.5" text-anchor="end">60</text><text id="tick-label__70" x="31.12" y="92.5" fill="#5b5b5b" dy=".32em" font-size="13.5" text-anchor="end">70</text></g></g><g id="horizontal-grid-lines" class="AxisGridLines horizontalLines"><path id="grid-line__0" stroke="#999" stroke-width="1" d="M36.12 513.1h591.02"/><path id="grid-line__10" stroke="#ddd" stroke-dasharray="3,2" stroke-width="1" d="M36.12 453h591.02"/><path id="grid-line__20" stroke="#ddd" stroke-dasharray="3,2" stroke-width="1" d="M36.12 392.9h591.02"/><path id="grid-line__30" stroke="#ddd" stroke-dasharray="3,2" stroke-width="1" d="M36.12 332.8h591.02"/><path id="grid-line__40" stroke="#ddd" stroke-dasharray="3,2" stroke-width="1" d="M36.12 272.7h591.02"/><path id="grid-line__50" stroke="#ddd" stroke-dasharray="3,2" stroke-width="1" d="M36.12 212.6h591.02"/><path id="grid-line__60" stroke="#ddd" stroke-dasharray="3,2" stroke-width="1" d="M36.12 152.6h591.02"/><path id="grid-line__70" stroke="#ddd" stroke-dasharray="3,2" stroke-width="1" d="M36.12 92.5h591.02"/></g></g><g clip-path="url(#boundsClip-3)"><g id="line-labels" class="LineLabels"><g id="mark__Breast" class="legendMark" style="cursor:default"><g id="connector" class="indicator"><path fill="none" stroke="#999" stroke-width=".5" d="M631.14 202.1h13.5v-1.7h13.5"/></g><text id="label" x="662.1" y="205.4" fill="#be5915" font-size="13.5" font-weight="400"><tspan x="662.14" y="205.39">Breast</tspan></text></g><g id="mark__Prostate" class="legendMark" style="cursor:default"><g class="indicator"><path fill="none" stroke="#999" stroke-width=".5" d="M631.14 214.2h13.5v1.7h13.5"/></g><text x="662.1" y="220.9" fill="#6d3e91" font-size="13.5" font-weight="400"><tspan x="662.14" y="220.89">Prostate</tspan></text></g><g id="mark__Colon-and-rectum" class="legendMark" style="cursor:default"><g class="indicator"><path fill="none" stroke="#999" stroke-width=".5" d="M631.14 283.7h13.5v-4.95h13.5"/></g><text x="662.1" y="283.7" fill="#2c8465" font-size="13.5" font-weight="400"><tspan x="662.14" y="283.75">Colon and rectum</tspan></text></g><g id="mark__Tracheal__002c-bronchus-and-lung" class="legendMark" style="cursor:default"><g class="indicator"><path fill="none" stroke="#999" stroke-width=".5" d="M631.14 289.3h13.5v4.95h13.5"/></g><text x="662.1" y="299.2" fill="#c15065" font-size="13.5" font-weight="400"><tspan x="662.14" y="299.25">Tracheal, bronchus and lung</tspan></text></g><g id="mark__Bladder" class="legendMark" style="cursor:default"><g class="indicator"><path fill="none" stroke="#999" stroke-width=".5" d="M631.14 424.8h27"/></g><text x="662.1" y="429.8" fill="#883039" font-size="13.5" font-weight="400"><tspan x="662.14" y="429.8">Bladder</tspan></text></g><g id="mark__Pancreatic" class="legendMark" style="cursor:default"><g class="indicator"><path fill="none" stroke="#999" stroke-width=".5" d="M631.14 451h6.75v-6.96h20.25"/></g><text x="662.1" y="449" fill="#00295b" font-size="13.5" font-weight="400"><tspan x="662.14" y="449.04">Pancreatic</tspan></text></g><g id="mark__Cervical" class="legendMark" style="cursor:default"><g class="indicator"><path fill="none" stroke="#999" stroke-width=".5" d="M631.14 474.2h13.5v-14.66h13.5"/></g><text x="662.1" y="464.5" fill="#18470f" font-size="13.5" font-weight="400"><tspan x="662.14" y="464.54">Cervical</tspan></text></g><g id="mark__Liver" class="legendMark" style="cursor:default"><g class="indicator"><path fill="none" stroke="#999" stroke-width=".5" d="M631.14 479.6h20.25v-4.56h6.75"/></g><text x="662.1" y="480" fill="#996d39" font-size="13.5" font-weight="400"><tspan x="662.14" y="480.04">Liver</tspan></text></g><g id="mark__Stomach" class="legendMark" style="cursor:default"><g class="indicator"><path fill="none" stroke="#999" stroke-width=".5" d="M631.14 482.6h20.25v7.94h6.75"/></g><text x="662.1" y="495.5" fill="#cf0a66" font-size="13.5" font-weight="400"><tspan x="662.14" y="495.54">Stomach</tspan></text></g><g id="mark__Esophageal" class="legendMark" style="cursor:default"><g class="indicator"><path fill="none" stroke="#999" stroke-width=".5" d="M631.14 487.8h13.5v18.24h13.5"/></g><text x="662.1" y="511" fill="#286bbb" font-size="13.5" font-weight="400"><tspan x="662.14" y="511.04">Esophageal</tspan></text></g></g><g id="lines" class="Lines"><g id="line__Pancreatic"><path fill="none" stroke="#ddd" stroke-linecap="round" stroke-linejoin="round" stroke-width="1" d="m36.1 457 19.1-.2 19.1-.2 19-.4 19.1-.3 19 .1 19.1.2h19.1l19-.5 19.1-1.5 19.1-.2 19-.4 19.1-.2 19.1-.1 19-.3 19.1-.8 19.1-.3h19l19.1-.3 19.1-.3h19l19.1-.2 19.1-.1 19 .6 19.1-.4 19.1-.2 19-.8 19.1.2 19 .8 19.1.1 19.1.4 19-.7"/></g><g id="line__Liver"><path fill="none" stroke="#ddd" stroke-linecap="round" stroke-linejoin="round" stroke-width="1" d="m36.1 498.9 19.1-.8 19.1-.8 19-.7 19.1-.8 19-.6 19.1-.7 19.1-.9 19-.9 19.1-.9 19.1-.7 19-.5 19.1-.7 19.1-.6 19-.7 19.1-.5 19.1-.7 19-.9 19.1-1 19.1-.8 19-.7 19.1-.5 19.1-.6 19-.5 19.1-.4 19.1-.4 19-.4 19.1-.4 19-.4 19.1-.3h19.1l19-.5"/></g><g id="line__Bladder"><path fill="none" stroke="#ddd" stroke-linecap="round" stroke-linejoin="round" stroke-width="1" d="m36.1 427.8 19.1-.4 19.1-1.2 19-1.8 19.1-1.2 19-.6 19.1-1.2 19.1-.5 19-.9 19.1-2.2 19.1-.1 19-1.5 19.1-1.4 19.1.6 19-.5 19.1-.4h19.1l19 .1 19.1-.1 19.1.3 19-.4 19.1-.2 19.1 1.1 19 1 19.1 1.5 19.1.6 19 .1 19.1 2.3 19 2.6 19.1 1.8 19.1.5 19-.9"/></g><g id="line__Esophageal"><path fill="none" stroke="#ddd" stroke-linecap="round" stroke-linejoin="round" stroke-width="1" d="m36.1 488.1 19.1-.2 19.1-.2 19-.6 19.1-.5 19-.3 19.1-.1 19.1.2 19-.4 19.1-.8 19.1-.4 19-.3 19.1-.1 19.1.2 19 .3 19.1-.3 19.1.1 19 .6 19.1.3h38.1l19.1.1 19.1.3 19 .5 19.1.2 19.1.2 19-.1 19.1.6 19 .6 19.1-.1 19.1.2 19-.3"/></g><g id="line__Cervical"><path fill="none" stroke="#ddd" stroke-linecap="round" stroke-linejoin="round" stroke-width="1" d="m36.1 449.4 19.1 1.3 19.1.4 19 1 19.1.9 19 1 19.1 1 19.1 2 19 2.5 19.1 1.7 19.1 1.3 19 1.4 19.1 1.8 19.1 1.6 19 1.7 19.1 1.2 19.1.2 19 .2 19.1.4 19.1-.5 19 .2 19.1-.3 19.1-.2 19-.3 19.1.2 19.1-.3h19l19.1.7 19 1.8 19.1.9 19.1.6 19 .4"/></g><g id="line__Stomach"><path fill="none" stroke="#ddd" stroke-linecap="round" stroke-linejoin="round" stroke-width="1" d="m36.1 464.8 19.1.5 19.1 1.3 19-.3 19.1.3 19 .1 19.1 1.2 19.1 1 19 .5 19.1-.3 19.1 1.1 19 .7 19.1.7 19.1.7 19 1.3 19.1 1.2 19.1.8 19 .6 19.1.5 19.1.4 19 .6 19.1.6 19.1.5 19 .5 19.1.4 19.1.3 19 .1 19.1.9 19 .9 19.1.5 19.1.4 19-.2"/></g><g id="line__Prostate"><path fill="none" stroke="#ddd" stroke-linecap="round" stroke-linejoin="round" stroke-width="1" d="m36.1 173.8 19.1-8.9 19.1-9.6 19-7.3 19.1-6.7 19-4.2 19.1.3 19.1 11.3 19 5.6 19.1 2.1 19.1 8.1 19 1.8 19.1 2.3 19.1 6 19 7.3 19.1 2.7 19.1 3.8 19 2.1 19.1 2.2 19.1 1 19-1.1 19.1 7.7 19.1 7.8 19 5.7 19.1 1.5 19.1.2 19-6 19.1 3.7 19 2.1 19.1 2 19.1.3 19-3.4"/></g><g id="line__Breast"><path fill="none" stroke="#ddd" stroke-linecap="round" stroke-linejoin="round" stroke-width="1" d="m36.1 102.5 19.1-1.4 19.1 3.2 19-4.9 19.1-5.4 19-4.7 19.1 3.5 19.1 7.7 19 8.7 19.1 2 19.1.9 19-1.6 19.1 4 19.1 5 19 8.4 19.1 5.3 19.1 7.2 19 7.7 19.1 2.9 19.1-1.3 19 6.7 19.1 3.8 19.1 7.7 19 9 19.1 4.4 19.1 3.2 19 .6 19.1 5.5 19 7.2L589 202l19.1 2.4 19-2.3"/></g><g id="line__Colon-and-rectum"><path fill="none" stroke="#ddd" stroke-linecap="round" stroke-linejoin="round" stroke-width="1" d="m36.1 228.6 19.1.9 19.1.3 19-4.4 19.1-3.7 19-3.1 19.1 2.1 19.1 2.1 19-.4 19.1-5.1 19.1 1.4 19-.2 19.1 2 19.1 7.4 19 10.9 19.1 4.4 19.1 2.8 19 2.8 19.1 1.9 19.1 2 19 3.6 19.1 2.3 19.1 5.1 19 4.8 19.1 3.4 19.1.5 19-.6 19.1 3.8 19 5.9L589 285l19.1 1.3 19-2.6"/></g><g id="line__Tracheal__002c-bronchus-and-lung"><path fill="none" stroke="#ddd" stroke-linecap="round" stroke-linejoin="round" stroke-width="1" d="m36.1 154.2 19.1-.7 19.1-.1 19-4.2 19.1-.8 19-4.2 19.1 3.3 19.1 4.1 19 2.4 19.1 1.4 19.1 1.8 19 1 19.1 1.9 19.1 5 19 4.9 19.1 7.7 19.1 4.1 19 6.7 19.1 5.7 19.1 2.7 19 13.2 19.1 4.8 19.1 7.7 19 10 19.1 7.3 19.1 12.2 19 7.6 19.1 11.1 19 11.7L589 290l19.1 1.8 19-2.5"/></g><g><path id="outline" fill="none" stroke="#fff" stroke-linecap="butt" stroke-linejoin="round" stroke-width="2.5" d="m36.1 457 19.1-.2 19.1-.2 19-.4 19.1-.3 19 .1 19.1.2h19.1l19-.5 19.1-1.5 19.1-.2 19-.4 19.1-.2 19.1-.1 19-.3 19.1-.8 19.1-.3h19l19.1-.3 19.1-.3h19l19.1-.2 19.1-.1 19 .6 19.1-.4 19.1-.2 19-.8 19.1.2 19 .8 19.1.1 19.1.4 19-.7"/><g id="polyline"><path fill="none" stroke="#00295B" stroke-linecap="butt" stroke-linejoin="round" stroke-width="1.5" d="m36.1 457 19.1-.2 19.1-.2 19-.4 19.1-.3 19 .1 19.1.2h19.1l19-.5 19.1-1.5 19.1-.2 19-.4 19.1-.2 19.1-.1 19-.3 19.1-.8 19.1-.3h19l19.1-.3 19.1-.3h19l19.1-.2 19.1-.1 19 .6 19.1-.4 19.1-.2 19-.8 19.1.2 19 .8 19.1.1 19.1.4 19-.7"/></g><g id="markers"><circle cx="36.1" cy="457" r="1.8" fill="#00295B"/><circle cx="55.2" cy="456.8" r="1.8" fill="#00295B"/><circle cx="74.3" cy="456.6" r="1.8" fill="#00295B"/><circle cx="93.3" cy="456.2" r="1.8" fill="#00295B"/><circle cx="112.4" cy="455.9" r="1.8" fill="#00295B"/><circle cx="131.4" cy="456" r="1.8" fill="#00295B"/><circle cx="150.5" cy="456.2" r="1.8" fill="#00295B"/><circle cx="169.6" cy="456.2" r="1.8" fill="#00295B"/><circle cx="188.6" cy="455.7" r="1.8" fill="#00295B"/><circle cx="207.7" cy="454.2" r="1.8" fill="#00295B"/><circle cx="226.8" cy="454" r="1.8" fill="#00295B"/><circle cx="245.8" cy="453.6" r="1.8" fill="#00295B"/><circle cx="264.9" cy="453.4" r="1.8" fill="#00295B"/><circle cx="284" cy="453.3" r="1.8" fill="#00295B"/><circle cx="303" cy="453" r="1.8" fill="#00295B"/><circle cx="322.1" cy="452.2" r="1.8" fill="#00295B"/><circle cx="341.2" cy="451.9" r="1.8" fill="#00295B"/><circle cx="360.2" cy="451.9" r="1.8" fill="#00295B"/><circle cx="379.3" cy="451.6" r="1.8" fill="#00295B"/><circle cx="398.4" cy="451.3" r="1.8" fill="#00295B"/><circle cx="417.4" cy="451.3" r="1.8" fill="#00295B"/><circle cx="436.5" cy="451.1" r="1.8" fill="#00295B"/><circle cx="455.6" cy="451" r="1.8" fill="#00295B"/><circle cx="474.6" cy="451.6" r="1.8" fill="#00295B"/><circle cx="493.7" cy="451.2" r="1.8" fill="#00295B"/><circle cx="512.8" cy="451" r="1.8" fill="#00295B"/><circle cx="531.8" cy="450.2" r="1.8" fill="#00295B"/><circle cx="550.9" cy="450.4" r="1.8" fill="#00295B"/><circle cx="569.9" cy="451.2" r="1.8" fill="#00295B"/><circle cx="589" cy="451.3" r="1.8" fill="#00295B"/><circle cx="608.1" cy="451.7" r="1.8" fill="#00295B"/><circle cx="627.1" cy="451" r="1.8" fill="#00295B"/></g></g><g><path fill="none" stroke="#fff" stroke-linecap="butt" stroke-linejoin="round" stroke-width="2.5" d="m36.1 498.9 19.1-.8 19.1-.8 19-.7 19.1-.8 19-.6 19.1-.7 19.1-.9 19-.9 19.1-.9 19.1-.7 19-.5 19.1-.7 19.1-.6 19-.7 19.1-.5 19.1-.7 19-.9 19.1-1 19.1-.8 19-.7 19.1-.5 19.1-.6 19-.5 19.1-.4 19.1-.4 19-.4 19.1-.4 19-.4 19.1-.3h19.1l19-.5"/><g><path fill="none" stroke="#996D39" stroke-linecap="butt" stroke-linejoin="round" stroke-width="1.5" d="m36.1 498.9 19.1-.8 19.1-.8 19-.7 19.1-.8 19-.6 19.1-.7 19.1-.9 19-.9 19.1-.9 19.1-.7 19-.5 19.1-.7 19.1-.6 19-.7 19.1-.5 19.1-.7 19-.9 19.1-1 19.1-.8 19-.7 19.1-.5 19.1-.6 19-.5 19.1-.4 19.1-.4 19-.4 19.1-.4 19-.4 19.1-.3h19.1l19-.5"/></g><g><circle cx="36.1" cy="498.9" r="1.8" fill="#996D39"/><circle cx="55.2" cy="498.1" r="1.8" fill="#996D39"/><circle cx="74.3" cy="497.3" r="1.8" fill="#996D39"/><circle cx="93.3" cy="496.6" r="1.8" fill="#996D39"/><circle cx="112.4" cy="495.8" r="1.8" fill="#996D39"/><circle cx="131.4" cy="495.2" r="1.8" fill="#996D39"/><circle cx="150.5" cy="494.5" r="1.8" fill="#996D39"/><circle cx="169.6" cy="493.6" r="1.8" fill="#996D39"/><circle cx="188.6" cy="492.7" r="1.8" fill="#996D39"/><circle cx="207.7" cy="491.8" r="1.8" fill="#996D39"/><circle cx="226.8" cy="491.1" r="1.8" fill="#996D39"/><circle cx="245.8" cy="490.6" r="1.8" fill="#996D39"/><circle cx="264.9" cy="489.9" r="1.8" fill="#996D39"/><circle cx="284" cy="489.3" r="1.8" fill="#996D39"/><circle cx="303" cy="488.6" r="1.8" fill="#996D39"/><circle cx="322.1" cy="488.1" r="1.8" fill="#996D39"/><circle cx="341.2" cy="487.4" r="1.8" fill="#996D39"/><circle cx="360.2" cy="486.5" r="1.8" fill="#996D39"/><circle cx="379.3" cy="485.5" r="1.8" fill="#996D39"/><circle cx="398.4" cy="484.7" r="1.8" fill="#996D39"/><circle cx="417.4" cy="484" r="1.8" fill="#996D39"/><circle cx="436.5" cy="483.5" r="1.8" fill="#996D39"/><circle cx="455.6" cy="482.9" r="1.8" fill="#996D39"/><circle cx="474.6" cy="482.4" r="1.8" fill="#996D39"/><circle cx="493.7" cy="482" r="1.8" fill="#996D39"/><circle cx="512.8" cy="481.6" r="1.8" fill="#996D39"/><circle cx="531.8" cy="481.2" r="1.8" fill="#996D39"/><circle cx="550.9" cy="480.8" r="1.8" fill="#996D39"/><circle cx="569.9" cy="480.4" r="1.8" fill="#996D39"/><circle cx="589" cy="480.1" r="1.8" fill="#996D39"/><circle cx="608.1" cy="480.1" r="1.8" fill="#996D39"/><circle cx="627.1" cy="479.6" r="1.8" fill="#996D39"/></g></g><g><path fill="none" stroke="#fff" stroke-linecap="butt" stroke-linejoin="round" stroke-width="2.5" d="m36.1 427.8 19.1-.4 19.1-1.2 19-1.8 19.1-1.2 19-.6 19.1-1.2 19.1-.5 19-.9 19.1-2.2 19.1-.1 19-1.5 19.1-1.4 19.1.6 19-.5 19.1-.4h19.1l19 .1 19.1-.1 19.1.3 19-.4 19.1-.2 19.1 1.1 19 1 19.1 1.5 19.1.6 19 .1 19.1 2.3 19 2.6 19.1 1.8 19.1.5 19-.9"/><g><path fill="none" stroke="#883039" stroke-linecap="butt" stroke-linejoin="round" stroke-width="1.5" d="m36.1 427.8 19.1-.4 19.1-1.2 19-1.8 19.1-1.2 19-.6 19.1-1.2 19.1-.5 19-.9 19.1-2.2 19.1-.1 19-1.5 19.1-1.4 19.1.6 19-.5 19.1-.4h19.1l19 .1 19.1-.1 19.1.3 19-.4 19.1-.2 19.1 1.1 19 1 19.1 1.5 19.1.6 19 .1 19.1 2.3 19 2.6 19.1 1.8 19.1.5 19-.9"/></g><g><circle cx="36.1" cy="427.8" r="1.8" fill="#883039"/><circle cx="55.2" cy="427.4" r="1.8" fill="#883039"/><circle cx="74.3" cy="426.2" r="1.8" fill="#883039"/><circle cx="93.3" cy="424.4" r="1.8" fill="#883039"/><circle cx="112.4" cy="423.2" r="1.8" fill="#883039"/><circle cx="131.4" cy="422.6" r="1.8" fill="#883039"/><circle cx="150.5" cy="421.4" r="1.8" fill="#883039"/><circle cx="169.6" cy="420.9" r="1.8" fill="#883039"/><circle cx="188.6" cy="420" r="1.8" fill="#883039"/><circle cx="207.7" cy="417.8" r="1.8" fill="#883039"/><circle cx="226.8" cy="417.7" r="1.8" fill="#883039"/><circle cx="245.8" cy="416.2" r="1.8" fill="#883039"/><circle cx="264.9" cy="414.8" r="1.8" fill="#883039"/><circle cx="284" cy="415.4" r="1.8" fill="#883039"/><circle cx="303" cy="414.9" r="1.8" fill="#883039"/><circle cx="322.1" cy="414.5" r="1.8" fill="#883039"/><circle cx="341.2" cy="414.5" r="1.8" fill="#883039"/><circle cx="360.2" cy="414.6" r="1.8" fill="#883039"/><circle cx="379.3" cy="414.5" r="1.8" fill="#883039"/><circle cx="398.4" cy="414.8" r="1.8" fill="#883039"/><circle cx="417.4" cy="414.4" r="1.8" fill="#883039"/><circle cx="436.5" cy="414.2" r="1.8" fill="#883039"/><circle cx="455.6" cy="415.3" r="1.8" fill="#883039"/><circle cx="474.6" cy="416.3" r="1.8" fill="#883039"/><circle cx="493.7" cy="417.8" r="1.8" fill="#883039"/><circle cx="512.8" cy="418.4" r="1.8" fill="#883039"/><circle cx="531.8" cy="418.5" r="1.8" fill="#883039"/><circle cx="550.9" cy="420.8" r="1.8" fill="#883039"/><circle cx="569.9" cy="423.4" r="1.8" fill="#883039"/><circle cx="589" cy="425.2" r="1.8" fill="#883039"/><circle cx="608.1" cy="425.7" r="1.8" fill="#883039"/><circle cx="627.1" cy="424.8" r="1.8" fill="#883039"/></g></g><g><path fill="none" stroke="#fff" stroke-linecap="butt" stroke-linejoin="round" stroke-width="2.5" d="m36.1 488.1 19.1-.2 19.1-.2 19-.6 19.1-.5 19-.3 19.1-.1 19.1.2 19-.4 19.1-.8 19.1-.4 19-.3 19.1-.1 19.1.2 19 .3 19.1-.3 19.1.1 19 .6 19.1.3h38.1l19.1.1 19.1.3 19 .5 19.1.2 19.1.2 19-.1 19.1.6 19 .6 19.1-.1 19.1.2 19-.3"/><g><path fill="none" stroke="#286BBB" stroke-linecap="butt" stroke-linejoin="round" stroke-width="1.5" d="m36.1 488.1 19.1-.2 19.1-.2 19-.6 19.1-.5 19-.3 19.1-.1 19.1.2 19-.4 19.1-.8 19.1-.4 19-.3 19.1-.1 19.1.2 19 .3 19.1-.3 19.1.1 19 .6 19.1.3h38.1l19.1.1 19.1.3 19 .5 19.1.2 19.1.2 19-.1 19.1.6 19 .6 19.1-.1 19.1.2 19-.3"/></g><g><circle cx="36.1" cy="488.1" r="1.8" fill="#286BBB"/><circle cx="55.2" cy="487.9" r="1.8" fill="#286BBB"/><circle cx="74.3" cy="487.7" r="1.8" fill="#286BBB"/><circle cx="93.3" cy="487.1" r="1.8" fill="#286BBB"/><circle cx="112.4" cy="486.6" r="1.8" fill="#286BBB"/><circle cx="131.4" cy="486.3" r="1.8" fill="#286BBB"/><circle cx="150.5" cy="486.2" r="1.8" fill="#286BBB"/><circle cx="169.6" cy="486.4" r="1.8" fill="#286BBB"/><circle cx="188.6" cy="486" r="1.8" fill="#286BBB"/><circle cx="207.7" cy="485.2" r="1.8" fill="#286BBB"/><circle cx="226.8" cy="484.8" r="1.8" fill="#286BBB"/><circle cx="245.8" cy="484.5" r="1.8" fill="#286BBB"/><circle cx="264.9" cy="484.4" r="1.8" fill="#286BBB"/><circle cx="284" cy="484.6" r="1.8" fill="#286BBB"/><circle cx="303" cy="484.9" r="1.8" fill="#286BBB"/><circle cx="322.1" cy="484.6" r="1.8" fill="#286BBB"/><circle cx="341.2" cy="484.7" r="1.8" fill="#286BBB"/><circle cx="360.2" cy="485.3" r="1.8" fill="#286BBB"/><circle cx="379.3" cy="485.6" r="1.8" fill="#286BBB"/><circle cx="398.4" cy="485.6" r="1.8" fill="#286BBB"/><circle cx="417.4" cy="485.6" r="1.8" fill="#286BBB"/><circle cx="436.5" cy="485.7" r="1.8" fill="#286BBB"/><circle cx="455.6" cy="486" r="1.8" fill="#286BBB"/><circle cx="474.6" cy="486.5" r="1.8" fill="#286BBB"/><circle cx="493.7" cy="486.7" r="1.8" fill="#286BBB"/><circle cx="512.8" cy="486.9" r="1.8" fill="#286BBB"/><circle cx="531.8" cy="486.8" r="1.8" fill="#286BBB"/><circle cx="550.9" cy="487.4" r="1.8" fill="#286BBB"/><circle cx="569.9" cy="488" r="1.8" fill="#286BBB"/><circle cx="589" cy="487.9" r="1.8" fill="#286BBB"/><circle cx="608.1" cy="488.1" r="1.8" fill="#286BBB"/><circle cx="627.1" cy="487.8" r="1.8" fill="#286BBB"/></g></g><g><path fill="none" stroke="#fff" stroke-linecap="butt" stroke-linejoin="round" stroke-width="2.5" d="m36.1 449.4 19.1 1.3 19.1.4 19 1 19.1.9 19 1 19.1 1 19.1 2 19 2.5 19.1 1.7 19.1 1.3 19 1.4 19.1 1.8 19.1 1.6 19 1.7 19.1 1.2 19.1.2 19 .2 19.1.4 19.1-.5 19 .2 19.1-.3 19.1-.2 19-.3 19.1.2 19.1-.3h19l19.1.7 19 1.8 19.1.9 19.1.6 19 .4"/><g><path fill="none" stroke="#18470F" stroke-linecap="butt" stroke-linejoin="round" stroke-width="1.5" d="m36.1 449.4 19.1 1.3 19.1.4 19 1 19.1.9 19 1 19.1 1 19.1 2 19 2.5 19.1 1.7 19.1 1.3 19 1.4 19.1 1.8 19.1 1.6 19 1.7 19.1 1.2 19.1.2 19 .2 19.1.4 19.1-.5 19 .2 19.1-.3 19.1-.2 19-.3 19.1.2 19.1-.3h19l19.1.7 19 1.8 19.1.9 19.1.6 19 .4"/></g><g><circle cx="36.1" cy="449.4" r="1.8" fill="#18470F"/><circle cx="55.2" cy="450.7" r="1.8" fill="#18470F"/><circle cx="74.3" cy="451.1" r="1.8" fill="#18470F"/><circle cx="93.3" cy="452.1" r="1.8" fill="#18470F"/><circle cx="112.4" cy="453" r="1.8" fill="#18470F"/><circle cx="131.4" cy="454" r="1.8" fill="#18470F"/><circle cx="150.5" cy="455" r="1.8" fill="#18470F"/><circle cx="169.6" cy="457" r="1.8" fill="#18470F"/><circle cx="188.6" cy="459.5" r="1.8" fill="#18470F"/><circle cx="207.7" cy="461.2" r="1.8" fill="#18470F"/><circle cx="226.8" cy="462.5" r="1.8" fill="#18470F"/><circle cx="245.8" cy="463.9" r="1.8" fill="#18470F"/><circle cx="264.9" cy="465.7" r="1.8" fill="#18470F"/><circle cx="284" cy="467.3" r="1.8" fill="#18470F"/><circle cx="303" cy="469" r="1.8" fill="#18470F"/><circle cx="322.1" cy="470.2" r="1.8" fill="#18470F"/><circle cx="341.2" cy="470.4" r="1.8" fill="#18470F"/><circle cx="360.2" cy="470.6" r="1.8" fill="#18470F"/><circle cx="379.3" cy="471" r="1.8" fill="#18470F"/><circle cx="398.4" cy="470.5" r="1.8" fill="#18470F"/><circle cx="417.4" cy="470.7" r="1.8" fill="#18470F"/><circle cx="436.5" cy="470.4" r="1.8" fill="#18470F"/><circle cx="455.6" cy="470.2" r="1.8" fill="#18470F"/><circle cx="474.6" cy="469.9" r="1.8" fill="#18470F"/><circle cx="493.7" cy="470.1" r="1.8" fill="#18470F"/><circle cx="512.8" cy="469.8" r="1.8" fill="#18470F"/><circle cx="531.8" cy="469.8" r="1.8" fill="#18470F"/><circle cx="550.9" cy="470.5" r="1.8" fill="#18470F"/><circle cx="569.9" cy="472.3" r="1.8" fill="#18470F"/><circle cx="589" cy="473.2" r="1.8" fill="#18470F"/><circle cx="608.1" cy="473.8" r="1.8" fill="#18470F"/><circle cx="627.1" cy="474.2" r="1.8" fill="#18470F"/></g></g><g><path fill="none" stroke="#fff" stroke-linecap="butt" stroke-linejoin="round" stroke-width="2.5" d="m36.1 464.8 19.1.5 19.1 1.3 19-.3 19.1.3 19 .1 19.1 1.2 19.1 1 19 .5 19.1-.3 19.1 1.1 19 .7 19.1.7 19.1.7 19 1.3 19.1 1.2 19.1.8 19 .6 19.1.5 19.1.4 19 .6 19.1.6 19.1.5 19 .5 19.1.4 19.1.3 19 .1 19.1.9 19 .9 19.1.5 19.1.4 19-.2"/><g><path fill="none" stroke="#CF0A66" stroke-linecap="butt" stroke-linejoin="round" stroke-width="1.5" d="m36.1 464.8 19.1.5 19.1 1.3 19-.3 19.1.3 19 .1 19.1 1.2 19.1 1 19 .5 19.1-.3 19.1 1.1 19 .7 19.1.7 19.1.7 19 1.3 19.1 1.2 19.1.8 19 .6 19.1.5 19.1.4 19 .6 19.1.6 19.1.5 19 .5 19.1.4 19.1.3 19 .1 19.1.9 19 .9 19.1.5 19.1.4 19-.2"/></g><g><circle cx="36.1" cy="464.8" r="1.8" fill="#CF0A66"/><circle cx="55.2" cy="465.3" r="1.8" fill="#CF0A66"/><circle cx="74.3" cy="466.6" r="1.8" fill="#CF0A66"/><circle cx="93.3" cy="466.3" r="1.8" fill="#CF0A66"/><circle cx="112.4" cy="466.6" r="1.8" fill="#CF0A66"/><circle cx="131.4" cy="466.7" r="1.8" fill="#CF0A66"/><circle cx="150.5" cy="467.9" r="1.8" fill="#CF0A66"/><circle cx="169.6" cy="468.9" r="1.8" fill="#CF0A66"/><circle cx="188.6" cy="469.4" r="1.8" fill="#CF0A66"/><circle cx="207.7" cy="469.1" r="1.8" fill="#CF0A66"/><circle cx="226.8" cy="470.2" r="1.8" fill="#CF0A66"/><circle cx="245.8" cy="470.9" r="1.8" fill="#CF0A66"/><circle cx="264.9" cy="471.6" r="1.8" fill="#CF0A66"/><circle cx="284" cy="472.3" r="1.8" fill="#CF0A66"/><circle cx="303" cy="473.6" r="1.8" fill="#CF0A66"/><circle cx="322.1" cy="474.8" r="1.8" fill="#CF0A66"/><circle cx="341.2" cy="475.6" r="1.8" fill="#CF0A66"/><circle cx="360.2" cy="476.2" r="1.8" fill="#CF0A66"/><circle cx="379.3" cy="476.7" r="1.8" fill="#CF0A66"/><circle cx="398.4" cy="477.1" r="1.8" fill="#CF0A66"/><circle cx="417.4" cy="477.7" r="1.8" fill="#CF0A66"/><circle cx="436.5" cy="478.3" r="1.8" fill="#CF0A66"/><circle cx="455.6" cy="478.8" r="1.8" fill="#CF0A66"/><circle cx="474.6" cy="479.3" r="1.8" fill="#CF0A66"/><circle cx="493.7" cy="479.7" r="1.8" fill="#CF0A66"/><circle cx="512.8" cy="480" r="1.8" fill="#CF0A66"/><circle cx="531.8" cy="480.1" r="1.8" fill="#CF0A66"/><circle cx="550.9" cy="481" r="1.8" fill="#CF0A66"/><circle cx="569.9" cy="481.9" r="1.8" fill="#CF0A66"/><circle cx="589" cy="482.4" r="1.8" fill="#CF0A66"/><circle cx="608.1" cy="482.8" r="1.8" fill="#CF0A66"/><circle cx="627.1" cy="482.6" r="1.8" fill="#CF0A66"/></g></g><g><path fill="none" stroke="#fff" stroke-linecap="butt" stroke-linejoin="round" stroke-width="2.5" d="m36.1 173.8 19.1-8.9 19.1-9.6 19-7.3 19.1-6.7 19-4.2 19.1.3 19.1 11.3 19 5.6 19.1 2.1 19.1 8.1 19 1.8 19.1 2.3 19.1 6 19 7.3 19.1 2.7 19.1 3.8 19 2.1 19.1 2.2 19.1 1 19-1.1 19.1 7.7 19.1 7.8 19 5.7 19.1 1.5 19.1.2 19-6 19.1 3.7 19 2.1 19.1 2 19.1.3 19-3.4"/><g><path fill="none" stroke="#6D3E91" stroke-linecap="butt" stroke-linejoin="round" stroke-width="1.5" d="m36.1 173.8 19.1-8.9 19.1-9.6 19-7.3 19.1-6.7 19-4.2 19.1.3 19.1 11.3 19 5.6 19.1 2.1 19.1 8.1 19 1.8 19.1 2.3 19.1 6 19 7.3 19.1 2.7 19.1 3.8 19 2.1 19.1 2.2 19.1 1 19-1.1 19.1 7.7 19.1 7.8 19 5.7 19.1 1.5 19.1.2 19-6 19.1 3.7 19 2.1 19.1 2 19.1.3 19-3.4"/></g><g><circle cx="36.1" cy="173.8" r="1.8" fill="#6D3E91"/><circle cx="55.2" cy="164.9" r="1.8" fill="#6D3E91"/><circle cx="74.3" cy="155.3" r="1.8" fill="#6D3E91"/><circle cx="93.3" cy="148" r="1.8" fill="#6D3E91"/><circle cx="112.4" cy="141.3" r="1.8" fill="#6D3E91"/><circle cx="131.4" cy="137.1" r="1.8" fill="#6D3E91"/><circle cx="150.5" cy="137.4" r="1.8" fill="#6D3E91"/><circle cx="169.6" cy="148.7" r="1.8" fill="#6D3E91"/><circle cx="188.6" cy="154.3" r="1.8" fill="#6D3E91"/><circle cx="207.7" cy="156.4" r="1.8" fill="#6D3E91"/><circle cx="226.8" cy="164.5" r="1.8" fill="#6D3E91"/><circle cx="245.8" cy="166.3" r="1.8" fill="#6D3E91"/><circle cx="264.9" cy="168.6" r="1.8" fill="#6D3E91"/><circle cx="284" cy="174.6" r="1.8" fill="#6D3E91"/><circle cx="303" cy="181.9" r="1.8" fill="#6D3E91"/><circle cx="322.1" cy="184.6" r="1.8" fill="#6D3E91"/><circle cx="341.2" cy="188.4" r="1.8" fill="#6D3E91"/><circle cx="360.2" cy="190.5" r="1.8" fill="#6D3E91"/><circle cx="379.3" cy="192.7" r="1.8" fill="#6D3E91"/><circle cx="398.4" cy="193.7" r="1.8" fill="#6D3E91"/><circle cx="417.4" cy="192.6" r="1.8" fill="#6D3E91"/><circle cx="436.5" cy="200.3" r="1.8" fill="#6D3E91"/><circle cx="455.6" cy="208.1" r="1.8" fill="#6D3E91"/><circle cx="474.6" cy="213.8" r="1.8" fill="#6D3E91"/><circle cx="493.7" cy="215.3" r="1.8" fill="#6D3E91"/><circle cx="512.8" cy="215.5" r="1.8" fill="#6D3E91"/><circle cx="531.8" cy="209.5" r="1.8" fill="#6D3E91"/><circle cx="550.9" cy="213.2" r="1.8" fill="#6D3E91"/><circle cx="569.9" cy="215.3" r="1.8" fill="#6D3E91"/><circle cx="589" cy="217.3" r="1.8" fill="#6D3E91"/><circle cx="608.1" cy="217.6" r="1.8" fill="#6D3E91"/><circle cx="627.1" cy="214.2" r="1.8" fill="#6D3E91"/></g></g><g><path fill="none" stroke="#fff" stroke-linecap="butt" stroke-linejoin="round" stroke-width="2.5" d="m36.1 102.5 19.1-1.4 19.1 3.2 19-4.9 19.1-5.4 19-4.7 19.1 3.5 19.1 7.7 19 8.7 19.1 2 19.1.9 19-1.6 19.1 4 19.1 5 19 8.4 19.1 5.3 19.1 7.2 19 7.7 19.1 2.9 19.1-1.3 19 6.7 19.1 3.8 19.1 7.7 19 9 19.1 4.4 19.1 3.2 19 .6 19.1 5.5 19 7.2L589 202l19.1 2.4 19-2.3"/><g><path fill="none" stroke="#BE5915" stroke-linecap="butt" stroke-linejoin="round" stroke-width="1.5" d="m36.1 102.5 19.1-1.4 19.1 3.2 19-4.9 19.1-5.4 19-4.7 19.1 3.5 19.1 7.7 19 8.7 19.1 2 19.1.9 19-1.6 19.1 4 19.1 5 19 8.4 19.1 5.3 19.1 7.2 19 7.7 19.1 2.9 19.1-1.3 19 6.7 19.1 3.8 19.1 7.7 19 9 19.1 4.4 19.1 3.2 19 .6 19.1 5.5 19 7.2L589 202l19.1 2.4 19-2.3"/></g><g><circle cx="36.1" cy="102.5" r="1.8" fill="#BE5915"/><circle cx="55.2" cy="101.1" r="1.8" fill="#BE5915"/><circle cx="74.3" cy="104.3" r="1.8" fill="#BE5915"/><circle cx="93.3" cy="99.4" r="1.8" fill="#BE5915"/><circle cx="112.4" cy="94" r="1.8" fill="#BE5915"/><circle cx="131.4" cy="89.3" r="1.8" fill="#BE5915"/><circle cx="150.5" cy="92.8" r="1.8" fill="#BE5915"/><circle cx="169.6" cy="100.5" r="1.8" fill="#BE5915"/><circle cx="188.6" cy="109.2" r="1.8" fill="#BE5915"/><circle cx="207.7" cy="111.2" r="1.8" fill="#BE5915"/><circle cx="226.8" cy="112.1" r="1.8" fill="#BE5915"/><circle cx="245.8" cy="110.5" r="1.8" fill="#BE5915"/><circle cx="264.9" cy="114.5" r="1.8" fill="#BE5915"/><circle cx="284" cy="119.5" r="1.8" fill="#BE5915"/><circle cx="303" cy="127.9" r="1.8" fill="#BE5915"/><circle cx="322.1" cy="133.2" r="1.8" fill="#BE5915"/><circle cx="341.2" cy="140.4" r="1.8" fill="#BE5915"/><circle cx="360.2" cy="148.1" r="1.8" fill="#BE5915"/><circle cx="379.3" cy="151" r="1.8" fill="#BE5915"/><circle cx="398.4" cy="149.7" r="1.8" fill="#BE5915"/><circle cx="417.4" cy="156.4" r="1.8" fill="#BE5915"/><circle cx="436.5" cy="160.2" r="1.8" fill="#BE5915"/><circle cx="455.6" cy="167.9" r="1.8" fill="#BE5915"/><circle cx="474.6" cy="176.9" r="1.8" fill="#BE5915"/><circle cx="493.7" cy="181.3" r="1.8" fill="#BE5915"/><circle cx="512.8" cy="184.5" r="1.8" fill="#BE5915"/><circle cx="531.8" cy="185.1" r="1.8" fill="#BE5915"/><circle cx="550.9" cy="190.6" r="1.8" fill="#BE5915"/><circle cx="569.9" cy="197.8" r="1.8" fill="#BE5915"/><circle cx="589" cy="202" r="1.8" fill="#BE5915"/><circle cx="608.1" cy="204.4" r="1.8" fill="#BE5915"/><circle cx="627.1" cy="202.1" r="1.8" fill="#BE5915"/></g></g><g><path fill="none" stroke="#fff" stroke-linecap="butt" stroke-linejoin="round" stroke-width="2.5" d="m36.1 228.6 19.1.9 19.1.3 19-4.4 19.1-3.7 19-3.1 19.1 2.1 19.1 2.1 19-.4 19.1-5.1 19.1 1.4 19-.2 19.1 2 19.1 7.4 19 10.9 19.1 4.4 19.1 2.8 19 2.8 19.1 1.9 19.1 2 19 3.6 19.1 2.3 19.1 5.1 19 4.8 19.1 3.4 19.1.5 19-.6 19.1 3.8 19 5.9L589 285l19.1 1.3 19-2.6"/><g><path fill="none" stroke="#2C8465" stroke-linecap="butt" stroke-linejoin="round" stroke-width="1.5" d="m36.1 228.6 19.1.9 19.1.3 19-4.4 19.1-3.7 19-3.1 19.1 2.1 19.1 2.1 19-.4 19.1-5.1 19.1 1.4 19-.2 19.1 2 19.1 7.4 19 10.9 19.1 4.4 19.1 2.8 19 2.8 19.1 1.9 19.1 2 19 3.6 19.1 2.3 19.1 5.1 19 4.8 19.1 3.4 19.1.5 19-.6 19.1 3.8 19 5.9L589 285l19.1 1.3 19-2.6"/></g><g><circle cx="36.1" cy="228.6" r="1.8" fill="#2C8465"/><circle cx="55.2" cy="229.5" r="1.8" fill="#2C8465"/><circle cx="74.3" cy="229.8" r="1.8" fill="#2C8465"/><circle cx="93.3" cy="225.4" r="1.8" fill="#2C8465"/><circle cx="112.4" cy="221.7" r="1.8" fill="#2C8465"/><circle cx="131.4" cy="218.6" r="1.8" fill="#2C8465"/><circle cx="150.5" cy="220.7" r="1.8" fill="#2C8465"/><circle cx="169.6" cy="222.8" r="1.8" fill="#2C8465"/><circle cx="188.6" cy="222.4" r="1.8" fill="#2C8465"/><circle cx="207.7" cy="217.3" r="1.8" fill="#2C8465"/><circle cx="226.8" cy="218.7" r="1.8" fill="#2C8465"/><circle cx="245.8" cy="218.5" r="1.8" fill="#2C8465"/><circle cx="264.9" cy="220.5" r="1.8" fill="#2C8465"/><circle cx="284" cy="227.9" r="1.8" fill="#2C8465"/><circle cx="303" cy="238.8" r="1.8" fill="#2C8465"/><circle cx="322.1" cy="243.2" r="1.8" fill="#2C8465"/><circle cx="341.2" cy="246" r="1.8" fill="#2C8465"/><circle cx="360.2" cy="248.8" r="1.8" fill="#2C8465"/><circle cx="379.3" cy="250.7" r="1.8" fill="#2C8465"/><circle cx="398.4" cy="252.7" r="1.8" fill="#2C8465"/><circle cx="417.4" cy="256.3" r="1.8" fill="#2C8465"/><circle cx="436.5" cy="258.6" r="1.8" fill="#2C8465"/><circle cx="455.6" cy="263.7" r="1.8" fill="#2C8465"/><circle cx="474.6" cy="268.5" r="1.8" fill="#2C8465"/><circle cx="493.7" cy="271.9" r="1.8" fill="#2C8465"/><circle cx="512.8" cy="272.4" r="1.8" fill="#2C8465"/><circle cx="531.8" cy="271.8" r="1.8" fill="#2C8465"/><circle cx="550.9" cy="275.6" r="1.8" fill="#2C8465"/><circle cx="569.9" cy="281.5" r="1.8" fill="#2C8465"/><circle cx="589" cy="285" r="1.8" fill="#2C8465"/><circle cx="608.1" cy="286.3" r="1.8" fill="#2C8465"/><circle cx="627.1" cy="283.7" r="1.8" fill="#2C8465"/></g></g><g><path fill="none" stroke="#fff" stroke-linecap="butt" stroke-linejoin="round" stroke-width="2.5" d="m36.1 154.2 19.1-.7 19.1-.1 19-4.2 19.1-.8 19-4.2 19.1 3.3 19.1 4.1 19 2.4 19.1 1.4 19.1 1.8 19 1 19.1 1.9 19.1 5 19 4.9 19.1 7.7 19.1 4.1 19 6.7 19.1 5.7 19.1 2.7 19 13.2 19.1 4.8 19.1 7.7 19 10 19.1 7.3 19.1 12.2 19 7.6 19.1 11.1 19 11.7L589 290l19.1 1.8 19-2.5"/><g><path fill="none" stroke="#C15065" stroke-linecap="butt" stroke-linejoin="round" stroke-width="1.5" d="m36.1 154.2 19.1-.7 19.1-.1 19-4.2 19.1-.8 19-4.2 19.1 3.3 19.1 4.1 19 2.4 19.1 1.4 19.1 1.8 19 1 19.1 1.9 19.1 5 19 4.9 19.1 7.7 19.1 4.1 19 6.7 19.1 5.7 19.1 2.7 19 13.2 19.1 4.8 19.1 7.7 19 10 19.1 7.3 19.1 12.2 19 7.6 19.1 11.1 19 11.7L589 290l19.1 1.8 19-2.5"/></g><g><circle cx="36.1" cy="154.2" r="1.8" fill="#C15065"/><circle cx="55.2" cy="153.5" r="1.8" fill="#C15065"/><circle cx="74.3" cy="153.4" r="1.8" fill="#C15065"/><circle cx="93.3" cy="149.2" r="1.8" fill="#C15065"/><circle cx="112.4" cy="148.4" r="1.8" fill="#C15065"/><circle cx="131.4" cy="144.2" r="1.8" fill="#C15065"/><circle cx="150.5" cy="147.5" r="1.8" fill="#C15065"/><circle cx="169.6" cy="151.6" r="1.8" fill="#C15065"/><circle cx="188.6" cy="154" r="1.8" fill="#C15065"/><circle cx="207.7" cy="155.4" r="1.8" fill="#C15065"/><circle cx="226.8" cy="157.2" r="1.8" fill="#C15065"/><circle cx="245.8" cy="158.2" r="1.8" fill="#C15065"/><circle cx="264.9" cy="160.1" r="1.8" fill="#C15065"/><circle cx="284" cy="165.1" r="1.8" fill="#C15065"/><circle cx="303" cy="170" r="1.8" fill="#C15065"/><circle cx="322.1" cy="177.7" r="1.8" fill="#C15065"/><circle cx="341.2" cy="181.8" r="1.8" fill="#C15065"/><circle cx="360.2" cy="188.5" r="1.8" fill="#C15065"/><circle cx="379.3" cy="194.2" r="1.8" fill="#C15065"/><circle cx="398.4" cy="196.9" r="1.8" fill="#C15065"/><circle cx="417.4" cy="210.1" r="1.8" fill="#C15065"/><circle cx="436.5" cy="214.9" r="1.8" fill="#C15065"/><circle cx="455.6" cy="222.6" r="1.8" fill="#C15065"/><circle cx="474.6" cy="232.6" r="1.8" fill="#C15065"/><circle cx="493.7" cy="239.9" r="1.8" fill="#C15065"/><circle cx="512.8" cy="252.1" r="1.8" fill="#C15065"/><circle cx="531.8" cy="259.7" r="1.8" fill="#C15065"/><circle cx="550.9" cy="270.8" r="1.8" fill="#C15065"/><circle cx="569.9" cy="282.5" r="1.8" fill="#C15065"/><circle cx="589" cy="290" r="1.8" fill="#C15065"/><circle cx="608.1" cy="291.8" r="1.8" fill="#C15065"/><circle cx="627.1" cy="289.3" r="1.8" fill="#C15065"/></g></g></g></g></g></g><g id="footer" class="SourcesFooter" style="fill:#5b5b5b"><g id="sources" class="markdown-text-wrap"><text x="16" y="562.7" style="font-size:13.5px;line-height:1.2"><tspan x="16" y="562.7"><tspan style="font-weight:700">Data source:</tspan> IHME, Global Burden of Disease (2024)</tspan></text></g><g id="note" class="markdown-text-wrap"><text x="16" y="580.9" style="font-size:13.5px;line-height:1.2"><tspan x="16" y="580.9"><tspan style="font-weight:700">Note:</tspan> To allow for comparisons across countries and over time, this metric is <tspan class="dod-span" data-id="age_standardized">age-standardized</tspan>.</tspan></text></g><text id="origin-url" x="616.9" y="562.7" font-size="13.5"><tspan x="616.92" y="562.7"><a href="https://ourworldindata.org/cancer" style="fill:#5b5b5b" target="_blank">OurWorldinData.org/cancer</a> | <a href="https://creativecommons.org/licenses/by/4.0/" style="fill:#5b5b5b" target="_blank">CC BY</a></tspan></text></g></svg>