<svg xmlns="http://www.w3.org/2000/svg" width="850" height="600" style="font-family:Lato,&quot;Helvetica Neue&quot;,Helvetica,Arial,&quot;Liberation Sans&quot;,sans-serif;font-size:18px;background-color:#fff;text-rendering:geometricPrecision;-webkit-font-smoothing:antialiased" version="1.1" viewBox="0 0 850 600"><defs><style>@import url(https://ourworldindata.org/fonts.css);</style></defs><defs><pattern id="noDataPattern" width="4" height="4" patternTransform="rotate(-45 2 2)" patternUnits="userSpaceOnUse"><path stroke="#ccc" stroke-width=".7" d="M-1 2h6"/></pattern></defs><path fill="#fff" d="M0 0h850v600H0z" class="background-fill"/><g id="header" class="HeaderView"><g id="logo" transform="translate(769 16)"><svg xmlns="http://www.w3.org/2000/svg" width="65" height="36" fill="none" className="owidLogo" viewBox="0 0 65 36"><path fill="#002147" d="M0 0h64.8v36H0z"/><path fill="#CE261E" d="M0 33.3h64.8V36H0z"/><path fill="#fff" d="M13.8 10.57c0 .64-.11 1.23-.32 1.77a4.2 4.2 0 0 1-.9 1.4 4.08 4.08 0 0 1-1.38.94c-.54.22-1.14.33-1.8.33-.65 0-1.25-.11-1.8-.33a4.15 4.15 0 0 1-1.39-.93 4.2 4.2 0 0 1-.9-1.4A4.83 4.83 0 0 1 5 10.56c0-.63.1-1.22.32-1.76a4.18 4.18 0 0 1 .9-1.4 4.08 4.08 0 0 1 1.38-.93 4.68 4.68 0 0 1 1.8-.34c.66 0 1.26.11 1.8.34a4.08 4.08 0 0 1 2.28 2.33c.21.54.32 1.13.32 1.76Zm-1.66 0c0-.47-.06-.9-.2-1.27a2.67 2.67 0 0 0-.53-.97 2.33 2.33 0 0 0-.87-.6A2.94 2.94 0 0 0 9.4 7.5c-.42 0-.8.07-1.14.21-.34.14-.63.35-.87.61a2.74 2.74 0 0 0-.55.97 3.96 3.96 0 0 0-.19 1.27c0 .48.06.9.2 1.29a2.42 2.42 0 0 0 1.42 1.56c.33.14.71.2 1.13.2.43 0 .8-.06 1.14-.2a2.37 2.37 0 0 0 1.4-1.56 4.01 4.01 0 0 0 .2-1.29Zm3.96-1.81v3.9c0 .39.09.68.26.89.18.2.44.3.79.3.25 0 .5-.06.72-.17a2.58 2.58 0 0 0 .63-.47V8.76H20v6.15h-.91c-.2 0-.32-.09-.38-.27l-.1-.49a4.65 4.65 0 0 1-.4.35 2.58 2.58 0 0 1-.43.27 2.35 2.35 0 0 1-.5.17 2.35 2.35 0 0 1-.57.07c-.34 0-.64-.06-.9-.17a1.82 1.82 0 0 1-.64-.49 2.16 2.16 0 0 1-.4-.73 3.23 3.23 0 0 1-.14-.95V8.76h1.48Zm5.23 6.15V8.76h.87c.15 0 .26.02.32.08s.1.15.12.29l.09.74c.22-.38.47-.68.77-.9.3-.22.63-.33 1-.33.3 0 .55.07.75.21l-.19 1.11c-.01.07-.04.13-.08.16a.28.28 0 0 1-.16.04 1.01 1.01 0 0 1-.25-.04 1.65 1.65 0 0 0-.41-.04c-.3 0-.57.08-.8.25-.21.17-.4.42-.55.75v3.83h-1.48Zm6.02-8.67h1.35a.57.57 0 0 1 .35.1c.1.06.16.15.2.26l1.47 5.2a10.12 10.12 0 0 1 .19.9 5.97 5.97 0 0 1 .22-.9l1.7-5.2a.57.57 0 0 1 .2-.25.54.54 0 0 1 .34-.11h.48a.57.57 0 0 1 .34.1.5.5 0 0 1 .2.26l1.69 5.2c.08.25.16.53.22.85a31.71 31.71 0 0 1 .19-.86l1.47-5.19c.03-.1.1-.18.19-.25a.56.56 0 0 1 .34-.11h1.27l-2.7 8.67h-1.45L33.7 9l-.08-.25a9.5 9.5 0 0 1-.07-.28 4.04 4.04 0 0 1-.15.53L31.5 14.9h-1.46l-2.7-8.67Zm15.42 2.42c.46 0 .88.07 1.25.22s.7.36.96.63.47.6.61 1 .22.83.22 1.31c0 .5-.08.93-.22 1.32a2.85 2.85 0 0 1-.61 1 2.65 2.65 0 0 1-.96.64 3.35 3.35 0 0 1-1.25.22 3.4 3.4 0 0 1-1.25-.22 2.71 2.71 0 0 1-.97-.63 2.92 2.92 0 0 1-.62-1 3.8 3.8 0 0 1-.21-1.33c0-.48.07-.92.21-1.31a2.75 2.75 0 0 1 1.58-1.63 3.4 3.4 0 0 1 1.26-.22Zm0 5.2c.51 0 .9-.17 1.13-.51.25-.35.38-.85.38-1.52s-.13-1.17-.38-1.51c-.24-.35-.62-.53-1.13-.53-.52 0-.9.18-1.15.53-.25.35-.37.85-.37 1.51s.12 1.17.37 1.52c.25.34.63.51 1.15.51Zm3.95 1.05V8.76h.87c.15 0 .26.02.32.08s.1.15.12.29l.1.74c.21-.38.47-.68.76-.9.3-.22.63-.33 1-.33.3 0 .56.07.76.21l-.2 1.11c0 .07-.03.13-.07.16a.28.28 0 0 1-.17.04 1.01 1.01 0 0 1-.24-.04 1.65 1.65 0 0 0-.42-.04c-.3 0-.57.08-.79.25-.22.17-.4.42-.56.75v3.83h-1.48ZM52.96 6v8.91h-1.48V6h1.48Zm5.77 8.91c-.19 0-.32-.09-.38-.27l-.12-.6a3.68 3.68 0 0 1-.4.4 2.5 2.5 0 0 1-.98.5 2.37 2.37 0 0 1-.6.06c-.33 0-.64-.07-.92-.2a2.1 2.1 0 0 1-.73-.61 3.03 3.03 0 0 1-.46-1 5.07 5.07 0 0 1-.17-1.34c0-.45.07-.88.19-1.27s.3-.73.53-1.02c.24-.29.51-.51.84-.67a2.38 2.38 0 0 1 1.09-.25 2.1 2.1 0 0 1 1.54.6V6h1.48v8.91h-.9Zm-1.97-1.08c.3 0 .57-.07.78-.2.22-.12.42-.3.62-.54v-2.76a1.45 1.45 0 0 0-.56-.43 1.6 1.6 0 0 0-.63-.13c-.23 0-.43.04-.61.13a1.21 1.21 0 0 0-.47.38c-.12.17-.22.39-.28.65a4.3 4.3 0 0 0-.02 1.84c.06.25.14.45.25.61.1.16.24.27.4.34.15.07.33.1.52.1Zm-40.43 6.93v6.15h-1.48v-6.15h1.48Zm.22-1.8a.84.84 0 0 1-.07.36.96.96 0 0 1-.21.3 1 1 0 0 1-.3.2.96.96 0 0 1-.38.07.95.95 0 0 1-.36-.07 1.02 1.02 0 0 1-.5-.5.96.96 0 0 1 0-.73 1 1 0 0 1 .2-.3.93.93 0 0 1 .3-.2.9.9 0 0 1 .73 0 .91.91 0 0 1 .3.2.94.94 0 0 1 .3.67Zm1.22 7.95v-6.15h.9c.2 0 .32.09.38.27l.1.48a2.93 2.93 0 0 1 .84-.61 2.3 2.3 0 0 1 1.07-.24c.34 0 .63.06.9.18.25.1.47.27.64.48.18.2.3.45.4.73.09.29.13.6.13.95v3.91h-1.48V23c0-.38-.08-.67-.26-.87-.17-.21-.43-.32-.78-.32-.26 0-.5.06-.72.18a2.58 2.58 0 0 0-.64.47v4.45h-1.48Zm16.45-4.34c0 .64-.1 1.22-.32 1.76-.21.53-.5.99-.9 1.37a4 4 0 0 1-1.38.9 4.87 4.87 0 0 1-1.8.31h-3.3v-8.67h3.3a4.79 4.79 0 0 1 1.8.32 4 4 0 0 1 1.39.9c.38.37.68.83.9 1.36.2.53.31 1.12.31 1.75Zm-1.65 0c0-.47-.06-.9-.2-1.27a2.68 2.68 0 0 0-.54-.96 2.33 2.33 0 0 0-.86-.6 2.94 2.94 0 0 0-1.14-.22h-1.69v6.1h1.69c.42 0 .8-.06 1.14-.2.34-.14.63-.34.86-.6a2.75 2.75 0 0 0 .55-.96 4.01 4.01 0 0 0 .19-1.29Zm7.41 4.34h-.67a.75.75 0 0 1-.33-.06c-.07-.04-.13-.13-.17-.25l-.14-.44c-.15.14-.3.26-.46.37a2.8 2.8 0 0 1-.46.26c-.16.08-.33.13-.51.17a3.07 3.07 0 0 1-1.32-.05 1.62 1.62 0 0 1-.57-.32 1.45 1.45 0 0 1-.37-.52 1.85 1.85 0 0 1-.13-.73c0-.23.06-.46.18-.68.12-.23.33-.44.61-.62.29-.18.67-.33 1.14-.45a8.01 8.01 0 0 1 1.75-.2v-.36c0-.42-.08-.72-.26-.92-.17-.2-.42-.3-.76-.3a1.84 1.84 0 0 0-1.01.28l-.33.19a.66.66 0 0 1-.33.08.43.43 0 0 1-.26-.08.61.61 0 0 1-.17-.2l-.27-.46c.7-.65 1.56-.98 2.56-.98.36 0 .68.06.96.18a1.99 1.99 0 0 1 1.16 1.25c.1.29.16.6.16.96v3.88ZM37.1 26c.15 0 .3-.01.42-.04a1.81 1.81 0 0 0 .69-.33c.1-.09.22-.19.32-.3v-1.04c-.43.02-.79.06-1.08.12a2.8 2.8 0 0 0-.7.2.92.92 0 0 0-.37.3.66.66 0 0 0-.11.36c0 .26.07.45.22.56.16.11.36.17.61.17ZM43.22 27c-.53 0-.94-.15-1.23-.45-.29-.3-.43-.72-.43-1.25v-3.44h-.63a.31.31 0 0 1-.2-.08c-.06-.05-.09-.13-.09-.23v-.6l.99-.15.31-1.68a.3.3 0 0 1 .11-.2.36.36 0 0 1 .22-.06h.77v1.94h1.62v1.06h-1.62v3.33c0 .2.05.35.14.45a.49.49 0 0 0 .39.17.73.73 0 0 0 .39-.1l.12-.07a.2.2 0 0 1 .11-.04.16.16 0 0 1 .11.04c.03.02.06.05.09.1l.44.71c-.21.18-.46.32-.74.41a2.77 2.77 0 0 1-.87.14Zm7.2-.1h-.66a.75.75 0 0 1-.33-.06c-.08-.04-.14-.13-.18-.25l-.13-.44c-.16.14-.31.26-.47.37a2.8 2.8 0 0 1-.46.26c-.16.08-.33.13-.5.17a3.07 3.07 0 0 1-1.33-.05 1.62 1.62 0 0 1-.57-.32 1.45 1.45 0 0 1-.36-.52 1.85 1.85 0 0 1-.14-.73c0-.23.06-.46.18-.68.13-.23.33-.44.62-.62.28-.18.66-.33 1.13-.45a8.01 8.01 0 0 1 1.76-.2v-.36c0-.42-.1-.72-.27-.92-.17-.2-.42-.3-.75-.3a1.84 1.84 0 0 0-1.02.28l-.33.19a.66.66 0 0 1-.33.08.43.43 0 0 1-.25-.08.61.61 0 0 1-.18-.2l-.27-.46c.7-.65 1.56-.98 2.56-.98.36 0 .68.06.96.18a1.99 1.99 0 0 1 1.17 1.25c.1.29.15.6.15.96v3.88ZM47.54 26c.16 0 .3-.01.42-.04a1.88 1.88 0 0 0 .69-.33l.33-.3v-1.04c-.44.02-.8.06-1.09.12a2.8 2.8 0 0 0-.7.2.92.92 0 0 0-.37.3.66.66 0 0 0-.11.36c0 .26.08.45.23.56.15.11.36.17.6.17Z"/></svg></g><a id="title" href="https://ourworldindata.org/grapher/share-of-cancer-deaths-linked-to-high-bmi-by-type" rel="noopener" style="font-family:&quot;Playfair Display&quot;,Georgia,&quot;Times New Roman&quot;,&quot;Liberation Serif&quot;,serif" target="_blank"><text x="16" y="36.6" fill="#5b5b5b" font-size="21.25" font-weight="600"><tspan x="16" y="36.61">Share of cancer deaths linked to high body mass index (BMI) by type,</tspan><tspan x="16" y="62.11">World</tspan></text></a><g id="subtitle" class="markdown-text-wrap"><text x="16" y="85.2" fill="#5b5b5b" style="font-size:14.625px;line-height:1.2"><tspan x="16" y="85.2">The estimated share of <tspan class="dod-span" data-id="cancer">cancer</tspan> deaths attributed to the <tspan class="dod-span" data-id="risk-factor">risk factor</tspan> of high BMI.</tspan></text></g></g><g id="chart-area" style="pointer-events:none"><g id="horizontal-axis" class="HorizontalAxis"><g id="tick-marks"><path id="1990" stroke="#999" stroke-width="1" d="M48.1 512.6v5.5"/><path id="2021" stroke="#999" stroke-width="1" d="M634.2 512.6v5.5"/><path id="1995" stroke="#999" stroke-width="1" d="M142.7 512.6v5.5"/><path id="2000" stroke="#999" stroke-width="1" d="M237.2 512.6v5.5"/><path id="2005" stroke="#999" stroke-width="1" d="M331.7 512.6v5.5"/><path id="2010" stroke="#999" stroke-width="1" d="M426.2 512.6v5.5"/><path id="2015" stroke="#999" stroke-width="1" d="M520.7 512.6v5.5"/></g><g id="tick-labels"><text x="48.14" y="531.6" fill="#5b5b5b" font-size="13.5" text-anchor="start">1990</text><text x="634.16" y="531.6" fill="#5b5b5b" font-size="13.5" text-anchor="end">2021</text><text x="142.7" y="531.6" fill="#5b5b5b" font-size="13.5" text-anchor="middle">1995</text><text x="237.2" y="531.6" fill="#5b5b5b" font-size="13.5" text-anchor="middle">2000</text><text x="331.7" y="531.6" fill="#5b5b5b" font-size="13.5" text-anchor="middle">2005</text><text x="426.2" y="531.6" fill="#5b5b5b" font-size="13.5" text-anchor="middle">2010</text><text x="520.7" y="531.6" fill="#5b5b5b" font-size="13.5" text-anchor="middle">2015</text></g></g><g id="vertical-axis" class="VerticalAxis"><g><text x="43.14" y="513.1" fill="#5b5b5b" dy=".32em" font-size="13.5" text-anchor="end">0%</text><text x="43.14" y="453.5" fill="#5b5b5b" dy=".32em" font-size="13.5" text-anchor="end">5%</text><text x="43.14" y="394" fill="#5b5b5b" dy=".32em" font-size="13.5" text-anchor="end">10%</text><text x="43.14" y="334.4" fill="#5b5b5b" dy=".32em" font-size="13.5" text-anchor="end">15%</text><text x="43.14" y="274.9" fill="#5b5b5b" dy=".32em" font-size="13.5" text-anchor="end">20%</text><text x="43.14" y="215.3" fill="#5b5b5b" dy=".32em" font-size="13.5" text-anchor="end">25%</text><text x="43.14" y="155.8" fill="#5b5b5b" dy=".32em" font-size="13.5" text-anchor="end">30%</text></g></g><g id="horizontal-grid-lines" class="AxisGridLines horizontalLines"><path id="0%" stroke="#999" stroke-width="1" d="M48.14 513.1h586.02"/><path id="5%" stroke="#ddd" stroke-dasharray="3,2" stroke-width="1" d="M48.14 453.5h586.02"/><path id="10%" stroke="#ddd" stroke-dasharray="3,2" stroke-width="1" d="M48.14 394h586.02"/><path id="15%" stroke="#ddd" stroke-dasharray="3,2" stroke-width="1" d="M48.14 334.4h586.02"/><path id="20%" stroke="#ddd" stroke-dasharray="3,2" stroke-width="1" d="M48.14 274.9h586.02"/><path id="25%" stroke="#ddd" stroke-dasharray="3,2" stroke-width="1" d="M48.14 215.3h586.02"/><path id="30%" stroke="#ddd" stroke-dasharray="3,2" stroke-width="1" d="M48.14 155.8h586.02"/></g><g id="line-labels" class="LineLabels"><g><path id="Uterine-cancer" fill="none" stroke="#999" stroke-width=".5" d="M638.16 110.5h13.5v.8h13.5"/><path id="Kidney" fill="none" stroke="#999" stroke-width=".5" d="M638.16 276.5h27"/><path id="Thyroid-cancer-" fill="none" stroke="#999" stroke-width=".5" d="M638.16 374.1h9v-27.41h18"/><path id="Gallbladder-and-biliary-tract" fill="none" stroke="#999" stroke-width=".5" d="M638.16 374.8h13.5v-12.61h13.5"/><path id="Colon-and-rectum-" fill="none" stroke="#999" stroke-width=".5" d="M638.16 400.4h18v-22.71h9"/><path id="Liver" fill="none" stroke="#999" stroke-width=".5" d="M638.16 400.5h22.5v-7.31h4.5"/><path id="Ovarian-cancer" fill="none" stroke="#999" stroke-width=".5" d="M638.16 402.3h22.5v6.39h4.5"/><path id="Leukemia" fill="none" stroke="#999" stroke-width=".5" d="M638.16 415.1h18v9.09h9"/><path id="Multiple-myeloma" fill="none" stroke="#999" stroke-width=".5" d="M638.16 419.8h13.5v19.89h13.5"/><path id="Breast" fill="none" stroke="#999" stroke-width=".5" d="M638.16 435.2h9v19.99h18"/><path id="Non-hodgkin-lymphoma" fill="none" stroke="#999" stroke-width=".5" d="M638.16 456h4.5v14.69h22.5"/><path id="Pancreatic-cancer" fill="none" stroke="#999" stroke-width=".5" d="M638.16 491.6h27"/></g><g><text x="669.2" y="116.3" fill="#338711" font-size="13.5" font-weight="400"><tspan x="669.16" y="116.3">Uterine cancer</tspan></text><text x="669.2" y="281.5" fill="#6d3e91" font-size="13.5" font-weight="400"><tspan x="669.16" y="281.5">Kidney</tspan></text><text x="669.2" y="351.7" fill="#970046" font-size="13.5" font-weight="400"><tspan x="669.16" y="351.68">Thyroid cancer</tspan></text><text x="669.2" y="367.2" fill="#a2559c" font-size="13.5" font-weight="400"><tspan x="669.16" y="367.18">Gallbladder and biliary tract</tspan></text><text x="669.2" y="382.7" fill="#883039" font-size="13.5" font-weight="400"><tspan x="669.16" y="382.68">Colon and rectum</tspan></text><text x="669.2" y="398.2" fill="#2c8465" font-size="13.5" font-weight="400"><tspan x="669.16" y="398.18">Liver</tspan></text><text x="669.2" y="413.7" fill="#008291" font-size="13.5" font-weight="400"><tspan x="669.16" y="413.68">Ovarian cancer</tspan></text><text x="669.2" y="429.2" fill="#4c6a9c" font-size="13.5" font-weight="400"><tspan x="669.16" y="429.18">Leukemia</tspan></text><text x="669.2" y="444.7" fill="#9a5129" font-size="13.5" font-weight="400"><tspan x="669.16" y="444.68">Multiple myeloma</tspan></text><text x="669.2" y="460.2" fill="#00295b" font-size="13.5" font-weight="400"><tspan x="669.16" y="460.18">Breast</tspan></text><text x="669.2" y="475.7" fill="#996d39" font-size="13.5" font-weight="400"><tspan x="669.16" y="475.68">Non-hodgkin lymphoma</tspan></text><text x="669.2" y="496.6" fill="#b13507" font-size="13.5" font-weight="400"><tspan x="669.16" y="496.6">Pancreatic cancer</tspan></text></g></g><g id="lines"><path id="outline__Uterine-cancer" fill="none" stroke="#fff" stroke-linecap="butt" stroke-linejoin="round" stroke-width="2.5" d="m48.1 210.4 18.9-2.8 18.9-2.4 18.9-3.3 19-2.2 18.9-1.3 18.9-1.7 18.9-2.6 18.9-2.1 18.9-2.7 18.9-2.2 18.9-2.3 18.9-3.2 18.9-2.9 18.9-1.9 18.9-2.6 18.9-2.5 18.9-2 18.9-3.8 18.9-4.3 18.9-4.5 18.9-4.6L464 147l18.9-6.4 18.9-4.7 18.9-5.1 18.9-4.1 18.9-3.5 19-3.1 18.9-2.9 18.9-2.8 18.9-3.9"/><path id="line__Uterine-cancer" fill="none" stroke="#338711" stroke-linecap="butt" stroke-linejoin="round" stroke-width="1.5" d="m48.1 210.4 18.9-2.8 18.9-2.4 18.9-3.3 19-2.2 18.9-1.3 18.9-1.7 18.9-2.6 18.9-2.1 18.9-2.7 18.9-2.2 18.9-2.3 18.9-3.2 18.9-2.9 18.9-1.9 18.9-2.6 18.9-2.5 18.9-2 18.9-3.8 18.9-4.3 18.9-4.5 18.9-4.6L464 147l18.9-6.4 18.9-4.7 18.9-5.1 18.9-4.1 18.9-3.5 19-3.1 18.9-2.9 18.9-2.8 18.9-3.9"/><path id="outline__Thyroid-cancer-" fill="none" stroke="#fff" stroke-linecap="butt" stroke-linejoin="round" stroke-width="2.5" d="m48.1 392.1 18.9-.6 18.9-.6 18.9-.7 19-.1 18.9-.5 18.9-.5 18.9-.2 18.9-.1 18.9-.7 18.9-.6 18.9-.9 18.9-.7 18.9-.3 18.9-.5 18.9-.8 18.9-.4 18.9-.4 18.9-.7 18.9-.9 18.9-.5 18.9-.3 18.9-.7 18.9-.7 18.9-.8 18.9-.6 18.9-.8 18.9-.4 19-.7 18.9-.5 18.9-.8 18.9-1"/><path id="line__Thyroid-cancer-" fill="none" stroke="#970046" stroke-linecap="butt" stroke-linejoin="round" stroke-width="1.5" d="m48.1 392.1 18.9-.6 18.9-.6 18.9-.7 19-.1 18.9-.5 18.9-.5 18.9-.2 18.9-.1 18.9-.7 18.9-.6 18.9-.9 18.9-.7 18.9-.3 18.9-.5 18.9-.8 18.9-.4 18.9-.4 18.9-.7 18.9-.9 18.9-.5 18.9-.3 18.9-.7 18.9-.7 18.9-.8 18.9-.6 18.9-.8 18.9-.4 19-.7 18.9-.5 18.9-.8 18.9-1"/><path id="outline__Ovarian-cancer" fill="none" stroke="#fff" stroke-linecap="butt" stroke-linejoin="round" stroke-width="2.5" d="m48.1 431.7 18.9-.9 18.9-.8 18.9-.9 19-.6 18.9-.7 18.9-.6 18.9-.9 18.9-.8 18.9-1 18.9-1.5 18.9-1.3 18.9-1.5 18.9-1.3 18.9-1 18.9-1.1 18.9-.9 18.9-.8 18.9-1 18.9-1 18.9-.6 18.9-.8 18.9-1 18.9-1.2 18.9-1.1 18.9-.5 18.9-.8 18.9-.7 19-.7 18.9-.8 18.9-1.1 18.9-1.5"/><path id="line__Ovarian-cancer" fill="none" stroke="#008291" stroke-linecap="butt" stroke-linejoin="round" stroke-width="1.5" d="m48.1 431.7 18.9-.9 18.9-.8 18.9-.9 19-.6 18.9-.7 18.9-.6 18.9-.9 18.9-.8 18.9-1 18.9-1.5 18.9-1.3 18.9-1.5 18.9-1.3 18.9-1 18.9-1.1 18.9-.9 18.9-.8 18.9-1 18.9-1 18.9-.6 18.9-.8 18.9-1 18.9-1.2 18.9-1.1 18.9-.5 18.9-.8 18.9-.7 19-.7 18.9-.8 18.9-1.1 18.9-1.5"/><path id="outline__Multiple-myeloma" fill="none" stroke="#fff" stroke-linecap="butt" stroke-linejoin="round" stroke-width="2.5" d="m48.1 438.1 18.9-.8 18.9-.7 18.9-.8 19-.3 18.9-.4 18.9-.3 18.9-.6 18.9-.7 18.9-.8 18.9-.6 18.9-.6 18.9-.9 18.9-.8 18.9-.5 18.9-.7 18.9-.5 18.9-.5 18.9-.4 18.9-.6 18.9-.5 18.9-.5 18.9-.7 18.9-.6 18.9-.7 18.9-.5 18.9-.5 18.9-.5 19-.5 18.9-.5 18.9-.6 18.9-.7"/><path id="line__Multiple-myeloma" fill="none" stroke="#9A5129" stroke-linecap="butt" stroke-linejoin="round" stroke-width="1.5" d="m48.1 438.1 18.9-.8 18.9-.7 18.9-.8 19-.3 18.9-.4 18.9-.3 18.9-.6 18.9-.7 18.9-.8 18.9-.6 18.9-.6 18.9-.9 18.9-.8 18.9-.5 18.9-.7 18.9-.5 18.9-.5 18.9-.4 18.9-.6 18.9-.5 18.9-.5 18.9-.7 18.9-.6 18.9-.7 18.9-.5 18.9-.5 18.9-.5 19-.5 18.9-.5 18.9-.6 18.9-.7"/><path id="outline__Gallbladder-and-biliary-tract" fill="none" stroke="#fff" stroke-linecap="butt" stroke-linejoin="round" stroke-width="2.5" d="M48.1 396.6 67 396l18.9-.4 18.9-.6 19-.3 18.9-.2 18.9-.2 18.9-.6 18.9-.6 18.9-1.2h18.9l18.9-.1 18.9-.2 18.9-.2 18.9-.3 18.9-.5 18.9-.5 18.9-.5 18.9-.7 18.9-1.2 18.9-.8 18.9-.6 18.9-1 18.9-.8 18.9-1.4 18.9-.9 18.9-1.2 18.9-1.2 19-1.2 18.9-1.2 18.9-1.4 18.9-1.2"/><path id="line__Gallbladder-and-biliary-tract" fill="none" stroke="#A2559C" stroke-linecap="butt" stroke-linejoin="round" stroke-width="1.5" d="M48.1 396.6 67 396l18.9-.4 18.9-.6 19-.3 18.9-.2 18.9-.2 18.9-.6 18.9-.6 18.9-1.2h18.9l18.9-.1 18.9-.2 18.9-.2 18.9-.3 18.9-.5 18.9-.5 18.9-.5 18.9-.7 18.9-1.2 18.9-.8 18.9-.6 18.9-1 18.9-.8 18.9-1.4 18.9-.9 18.9-1.2 18.9-1.2 19-1.2 18.9-1.2 18.9-1.4 18.9-1.2"/><path id="outline__Breast" fill="none" stroke="#fff" stroke-linecap="butt" stroke-linejoin="round" stroke-width="2.5" d="m48.1 446.1 18.9-.5 18.9-.5 18.9-.6 19-.3 18.9-.1 18.9-.3 18.9-.5 18.9-.5 18.9-.6 18.9-.5 18.9-.4 18.9-.6 18.9-.5 18.9-.3 18.9-.4 18.9-.3 18.9-.4 18.9-.6 18.9-.3 18.9-.5 18.9-.3 18.9-.3 18.9-.1 18.9-.2 18.9-.3h18.9l18.9.1 19-.3 18.9-.1 18.9-.2 18.9-.5"/><path id="line__Breast" fill="none" stroke="#00295B" stroke-linecap="butt" stroke-linejoin="round" stroke-width="1.5" d="m48.1 446.1 18.9-.5 18.9-.5 18.9-.6 19-.3 18.9-.1 18.9-.3 18.9-.5 18.9-.5 18.9-.6 18.9-.5 18.9-.4 18.9-.6 18.9-.5 18.9-.3 18.9-.4 18.9-.3 18.9-.4 18.9-.6 18.9-.3 18.9-.5 18.9-.3 18.9-.3 18.9-.1 18.9-.2 18.9-.3h18.9l18.9.1 19-.3 18.9-.1 18.9-.2 18.9-.5"/><path id="outline__Colon-and-rectum-" fill="none" stroke="#fff" stroke-linecap="butt" stroke-linejoin="round" stroke-width="2.5" d="m48.1 425.9 18.9-.7 18.9-.8 18.9-1 19-.9 18.9-.6 18.9-.7 18.9-.8 18.9-.8 18.9-1.1 18.9-.7 18.9-.8 18.9-.8 18.9-.7 18.9-.3 18.9-.8 18.9-1 18.9-.8 18.9-.8 18.9-.6 18.9-.7 18.9-.6 18.9-1 18.9-1 18.9-1 18.9-1 18.9-.9 18.9-.8 19-.9 18.9-.9 18.9-.9 18.9-1.1"/><path id="line__Colon-and-rectum-" fill="none" stroke="#883039" stroke-linecap="butt" stroke-linejoin="round" stroke-width="1.5" d="m48.1 425.9 18.9-.7 18.9-.8 18.9-1 19-.9 18.9-.6 18.9-.7 18.9-.8 18.9-.8 18.9-1.1 18.9-.7 18.9-.8 18.9-.8 18.9-.7 18.9-.3 18.9-.8 18.9-1 18.9-.8 18.9-.8 18.9-.6 18.9-.7 18.9-.6 18.9-1 18.9-1 18.9-1 18.9-1 18.9-.9 18.9-.8 19-.9 18.9-.9 18.9-.9 18.9-1.1"/><path id="outline__Kidney" fill="none" stroke="#fff" stroke-linecap="butt" stroke-linejoin="round" stroke-width="2.5" d="m48.1 324 18.9-1.8 18.9-1.8 18.9-2.3 19-2.4 18.9-1.4 18.9-1.1 18.9-1.6 18.9-1.6 18.9-1.5 18.9-1.6 18.9-1.2 18.9-1.5 18.9-1.7 18.9-1.3 18.9-1.9 18.9-1.4 18.9-1.4 18.9-1.7 18.9-1.5 18.9-1.3 18.9-1 18.9-1.3 18.9-1.8 18.9-1.6 18.9-1.3 18.9-1.1 18.9-1.3 19-1.4 18.9-1.2 18.9-1.7 18.9-1.8"/><path id="line__Kidney" fill="none" stroke="#6D3E91" stroke-linecap="butt" stroke-linejoin="round" stroke-width="1.5" d="m48.1 324 18.9-1.8 18.9-1.8 18.9-2.3 19-2.4 18.9-1.4 18.9-1.1 18.9-1.6 18.9-1.6 18.9-1.5 18.9-1.6 18.9-1.2 18.9-1.5 18.9-1.7 18.9-1.3 18.9-1.9 18.9-1.4 18.9-1.4 18.9-1.7 18.9-1.5 18.9-1.3 18.9-1 18.9-1.3 18.9-1.8 18.9-1.6 18.9-1.3 18.9-1.1 18.9-1.3 19-1.4 18.9-1.2 18.9-1.7 18.9-1.8"/><path id="outline__Liver" fill="none" stroke="#fff" stroke-linecap="butt" stroke-linejoin="round" stroke-width="2.5" d="m48.1 460.6 18.9-1.3 18.9-1.4 18.9-1.3 19-1.2 18.9-.5 18.9-.9 18.9-1.3 18.9-1.1 18.9-1.7 18.9-1.4 18.9-1.8 18.9-2.1 18.9-2.3 18.9-2.2 18.9-2.1 18.9-2.3 18.9-2 18.9-1.9 18.9-2.4 18.9-2.3 18.9-2.8 18.9-2.6 18.9-1.5 18.9-1.9 18.9-2.8 18.9-2.7 18.9-2.1 19-2.6 18.9-2.5 18.9-2.4 18.9-2.7"/><path id="line__Liver" fill="none" stroke="#2C8465" stroke-linecap="butt" stroke-linejoin="round" stroke-width="1.5" d="m48.1 460.6 18.9-1.3 18.9-1.4 18.9-1.3 19-1.2 18.9-.5 18.9-.9 18.9-1.3 18.9-1.1 18.9-1.7 18.9-1.4 18.9-1.8 18.9-2.1 18.9-2.3 18.9-2.2 18.9-2.1 18.9-2.3 18.9-2 18.9-1.9 18.9-2.4 18.9-2.3 18.9-2.8 18.9-2.6 18.9-1.5 18.9-1.9 18.9-2.8 18.9-2.7 18.9-2.1 19-2.6 18.9-2.5 18.9-2.4 18.9-2.7"/><path id="outline__Non-hodgkin-lymphoma" fill="none" stroke="#fff" stroke-linecap="butt" stroke-linejoin="round" stroke-width="2.5" d="m48.1 469.6 18.9-.5 18.9-.5 18.9-.7 19-.6 18.9-.5 18.9-.5 18.9-.6 18.9-.5 18.9-.6 18.9-.3 18.9-.4 18.9-.6 18.9-.4 18.9-.3 18.9-.4 18.9-.4 18.9-.3 18.9-.3 18.9-.3 18.9-.2 18.9-.3 18.9-.3 18.9-.2 18.9-.5 18.9-.4 18.9-.4 18.9-.5 19-.5 18.9-.4 18.9-.6 18.9-.6"/><path id="line__Non-hodgkin-lymphoma" fill="none" stroke="#996D39" stroke-linecap="butt" stroke-linejoin="round" stroke-width="1.5" d="m48.1 469.6 18.9-.5 18.9-.5 18.9-.7 19-.6 18.9-.5 18.9-.5 18.9-.6 18.9-.5 18.9-.6 18.9-.3 18.9-.4 18.9-.6 18.9-.4 18.9-.3 18.9-.4 18.9-.4 18.9-.3 18.9-.3 18.9-.3 18.9-.2 18.9-.3 18.9-.3 18.9-.2 18.9-.5 18.9-.4 18.9-.4 18.9-.5 19-.5 18.9-.4 18.9-.6 18.9-.6"/><path id="outline__Pancreatic-cancer" fill="none" stroke="#fff" stroke-linecap="butt" stroke-linejoin="round" stroke-width="2.5" d="m48.1 507.8 18.9-.5 18.9-.5 18.9-.5 19-.5 18.9-.4 18.9-.4 18.9-.5 18.9-.4 18.9-.4 18.9-.4 18.9-.5 18.9-.6 18.9-.5 18.9-.5 18.9-.6 18.9-.6 18.9-.5 18.9-.5 18.9-.4 18.9-.4 18.9-.4 18.9-.7 18.9-.6 18.9-.7 18.9-.6 18.9-.6 18.9-.6 19-.6 18.9-.5 18.9-.6 18.9-.7"/><path id="line__Pancreatic-cancer" fill="none" stroke="#B13507" stroke-linecap="butt" stroke-linejoin="round" stroke-width="1.5" d="m48.1 507.8 18.9-.5 18.9-.5 18.9-.5 19-.5 18.9-.4 18.9-.4 18.9-.5 18.9-.4 18.9-.4 18.9-.4 18.9-.5 18.9-.6 18.9-.5 18.9-.5 18.9-.6 18.9-.6 18.9-.5 18.9-.5 18.9-.4 18.9-.4 18.9-.4 18.9-.7 18.9-.6 18.9-.7 18.9-.6 18.9-.6 18.9-.6 19-.6 18.9-.5 18.9-.6 18.9-.7"/><path id="outline__Leukemia" fill="none" stroke="#fff" stroke-linecap="butt" stroke-linejoin="round" stroke-width="2.5" d="m48.1 442.3 18.9-.7 18.9-.6 18.9-.9 19-.9 18.9-.8 18.9-.7 18.9-.8 18.9-.9 18.9-1.2 18.9-.9 18.9-1 18.9-1.2 18.9-1 18.9-.8 18.9-.9 18.9-1 18.9-.8 18.9-.8 18.9-.7 18.9-.9 18.9-.8 18.9-1 18.9-.8 18.9-.7 18.9-.7 18.9-.9 18.9-.8 19-.9 18.9-.8 18.9-1.2 18.9-1.1"/><path id="line__Leukemia" fill="none" stroke="#4C6A9C" stroke-linecap="butt" stroke-linejoin="round" stroke-width="1.5" d="m48.1 442.3 18.9-.7 18.9-.6 18.9-.9 19-.9 18.9-.8 18.9-.7 18.9-.8 18.9-.9 18.9-1.2 18.9-.9 18.9-1 18.9-1.2 18.9-1 18.9-.8 18.9-.9 18.9-1 18.9-.8 18.9-.8 18.9-.7 18.9-.9 18.9-.8 18.9-1 18.9-.8 18.9-.7 18.9-.7 18.9-.9 18.9-.8 19-.9 18.9-.8 18.9-1.2 18.9-1.1"/></g><g id="markers"><g id="markers__Uterine-cancer"><circle cx="48.1" cy="210.4" r="1.8" fill="#338711"/><circle id="1991" cx="67" cy="207.6" r="1.8" fill="#338711"/><circle id="1992" cx="85.9" cy="205.2" r="1.8" fill="#338711"/><circle id="1993" cx="104.8" cy="201.9" r="1.8" fill="#338711"/><circle id="1994" cx="123.8" cy="199.7" r="1.8" fill="#338711"/><circle cx="142.7" cy="198.4" r="1.8" fill="#338711"/><circle id="1996" cx="161.6" cy="196.7" r="1.8" fill="#338711"/><circle id="1997" cx="180.5" cy="194.1" r="1.8" fill="#338711"/><circle id="1998" cx="199.4" cy="192" r="1.8" fill="#338711"/><circle id="1999" cx="218.3" cy="189.3" r="1.8" fill="#338711"/><circle cx="237.2" cy="187.1" r="1.8" fill="#338711"/><circle id="2001" cx="256.1" cy="184.8" r="1.8" fill="#338711"/><circle id="2002" cx="275" cy="181.6" r="1.8" fill="#338711"/><circle id="2003" cx="293.9" cy="178.7" r="1.8" fill="#338711"/><circle id="2004" cx="312.8" cy="176.8" r="1.8" fill="#338711"/><circle cx="331.7" cy="174.2" r="1.8" fill="#338711"/><circle id="2006" cx="350.6" cy="171.7" r="1.8" fill="#338711"/><circle id="2007" cx="369.5" cy="169.7" r="1.8" fill="#338711"/><circle id="2008" cx="388.4" cy="165.9" r="1.8" fill="#338711"/><circle id="2009" cx="407.3" cy="161.6" r="1.8" fill="#338711"/><circle cx="426.2" cy="157.1" r="1.8" fill="#338711"/><circle id="2011" cx="445.1" cy="152.5" r="1.8" fill="#338711"/><circle id="2012" cx="464" cy="147" r="1.8" fill="#338711"/><circle id="2013" cx="482.9" cy="140.6" r="1.8" fill="#338711"/><circle id="2014" cx="501.8" cy="135.9" r="1.8" fill="#338711"/><circle cx="520.7" cy="130.8" r="1.8" fill="#338711"/><circle id="2016" cx="539.6" cy="126.7" r="1.8" fill="#338711"/><circle id="2017" cx="558.5" cy="123.2" r="1.8" fill="#338711"/><circle id="2018" cx="577.5" cy="120.1" r="1.8" fill="#338711"/><circle id="2019" cx="596.4" cy="117.2" r="1.8" fill="#338711"/><circle id="2020" cx="615.3" cy="114.4" r="1.8" fill="#338711"/><circle cx="634.2" cy="110.5" r="1.8" fill="#338711"/></g><g id="markers__Thyroid-cancer-"><circle cx="48.1" cy="392.1" r="1.8" fill="#970046"/><circle cx="67" cy="391.5" r="1.8" fill="#970046"/><circle cx="85.9" cy="390.9" r="1.8" fill="#970046"/><circle cx="104.8" cy="390.2" r="1.8" fill="#970046"/><circle cx="123.8" cy="390.1" r="1.8" fill="#970046"/><circle cx="142.7" cy="389.6" r="1.8" fill="#970046"/><circle cx="161.6" cy="389.1" r="1.8" fill="#970046"/><circle cx="180.5" cy="388.9" r="1.8" fill="#970046"/><circle cx="199.4" cy="388.8" r="1.8" fill="#970046"/><circle cx="218.3" cy="388.1" r="1.8" fill="#970046"/><circle cx="237.2" cy="387.5" r="1.8" fill="#970046"/><circle cx="256.1" cy="386.6" r="1.8" fill="#970046"/><circle cx="275" cy="385.9" r="1.8" fill="#970046"/><circle cx="293.9" cy="385.6" r="1.8" fill="#970046"/><circle cx="312.8" cy="385.1" r="1.8" fill="#970046"/><circle cx="331.7" cy="384.3" r="1.8" fill="#970046"/><circle cx="350.6" cy="383.9" r="1.8" fill="#970046"/><circle cx="369.5" cy="383.5" r="1.8" fill="#970046"/><circle cx="388.4" cy="382.8" r="1.8" fill="#970046"/><circle cx="407.3" cy="381.9" r="1.8" fill="#970046"/><circle cx="426.2" cy="381.4" r="1.8" fill="#970046"/><circle cx="445.1" cy="381.1" r="1.8" fill="#970046"/><circle cx="464" cy="380.4" r="1.8" fill="#970046"/><circle cx="482.9" cy="379.7" r="1.8" fill="#970046"/><circle cx="501.8" cy="378.9" r="1.8" fill="#970046"/><circle cx="520.7" cy="378.3" r="1.8" fill="#970046"/><circle cx="539.6" cy="377.5" r="1.8" fill="#970046"/><circle cx="558.5" cy="377.1" r="1.8" fill="#970046"/><circle cx="577.5" cy="376.4" r="1.8" fill="#970046"/><circle cx="596.4" cy="375.9" r="1.8" fill="#970046"/><circle cx="615.3" cy="375.1" r="1.8" fill="#970046"/><circle cx="634.2" cy="374.1" r="1.8" fill="#970046"/></g><g id="markers__Ovarian-cancer"><circle cx="48.1" cy="431.7" r="1.8" fill="#008291"/><circle cx="67" cy="430.8" r="1.8" fill="#008291"/><circle cx="85.9" cy="430" r="1.8" fill="#008291"/><circle cx="104.8" cy="429.1" r="1.8" fill="#008291"/><circle cx="123.8" cy="428.5" r="1.8" fill="#008291"/><circle cx="142.7" cy="427.8" r="1.8" fill="#008291"/><circle cx="161.6" cy="427.2" r="1.8" fill="#008291"/><circle cx="180.5" cy="426.3" r="1.8" fill="#008291"/><circle cx="199.4" cy="425.5" r="1.8" fill="#008291"/><circle cx="218.3" cy="424.5" r="1.8" fill="#008291"/><circle cx="237.2" cy="423" r="1.8" fill="#008291"/><circle cx="256.1" cy="421.7" r="1.8" fill="#008291"/><circle cx="275" cy="420.2" r="1.8" fill="#008291"/><circle cx="293.9" cy="418.9" r="1.8" fill="#008291"/><circle cx="312.8" cy="417.9" r="1.8" fill="#008291"/><circle cx="331.7" cy="416.8" r="1.8" fill="#008291"/><circle cx="350.6" cy="415.9" r="1.8" fill="#008291"/><circle cx="369.5" cy="415.1" r="1.8" fill="#008291"/><circle cx="388.4" cy="414.1" r="1.8" fill="#008291"/><circle cx="407.3" cy="413.1" r="1.8" fill="#008291"/><circle cx="426.2" cy="412.5" r="1.8" fill="#008291"/><circle cx="445.1" cy="411.7" r="1.8" fill="#008291"/><circle cx="464" cy="410.7" r="1.8" fill="#008291"/><circle cx="482.9" cy="409.5" r="1.8" fill="#008291"/><circle cx="501.8" cy="408.4" r="1.8" fill="#008291"/><circle cx="520.7" cy="407.9" r="1.8" fill="#008291"/><circle cx="539.6" cy="407.1" r="1.8" fill="#008291"/><circle cx="558.5" cy="406.4" r="1.8" fill="#008291"/><circle cx="577.5" cy="405.7" r="1.8" fill="#008291"/><circle cx="596.4" cy="404.9" r="1.8" fill="#008291"/><circle cx="615.3" cy="403.8" r="1.8" fill="#008291"/><circle cx="634.2" cy="402.3" r="1.8" fill="#008291"/></g><g id="markers__Multiple-myeloma"><circle cx="48.1" cy="438.1" r="1.8" fill="#9A5129"/><circle cx="67" cy="437.3" r="1.8" fill="#9A5129"/><circle cx="85.9" cy="436.6" r="1.8" fill="#9A5129"/><circle cx="104.8" cy="435.8" r="1.8" fill="#9A5129"/><circle cx="123.8" cy="435.5" r="1.8" fill="#9A5129"/><circle cx="142.7" cy="435.1" r="1.8" fill="#9A5129"/><circle cx="161.6" cy="434.8" r="1.8" fill="#9A5129"/><circle cx="180.5" cy="434.2" r="1.8" fill="#9A5129"/><circle cx="199.4" cy="433.5" r="1.8" fill="#9A5129"/><circle cx="218.3" cy="432.7" r="1.8" fill="#9A5129"/><circle cx="237.2" cy="432.1" r="1.8" fill="#9A5129"/><circle cx="256.1" cy="431.5" r="1.8" fill="#9A5129"/><circle cx="275" cy="430.6" r="1.8" fill="#9A5129"/><circle cx="293.9" cy="429.8" r="1.8" fill="#9A5129"/><circle cx="312.8" cy="429.3" r="1.8" fill="#9A5129"/><circle cx="331.7" cy="428.6" r="1.8" fill="#9A5129"/><circle cx="350.6" cy="428.1" r="1.8" fill="#9A5129"/><circle cx="369.5" cy="427.6" r="1.8" fill="#9A5129"/><circle cx="388.4" cy="427.2" r="1.8" fill="#9A5129"/><circle cx="407.3" cy="426.6" r="1.8" fill="#9A5129"/><circle cx="426.2" cy="426.1" r="1.8" fill="#9A5129"/><circle cx="445.1" cy="425.6" r="1.8" fill="#9A5129"/><circle cx="464" cy="424.9" r="1.8" fill="#9A5129"/><circle cx="482.9" cy="424.3" r="1.8" fill="#9A5129"/><circle cx="501.8" cy="423.6" r="1.8" fill="#9A5129"/><circle cx="520.7" cy="423.1" r="1.8" fill="#9A5129"/><circle cx="539.6" cy="422.6" r="1.8" fill="#9A5129"/><circle cx="558.5" cy="422.1" r="1.8" fill="#9A5129"/><circle cx="577.5" cy="421.6" r="1.8" fill="#9A5129"/><circle cx="596.4" cy="421.1" r="1.8" fill="#9A5129"/><circle cx="615.3" cy="420.5" r="1.8" fill="#9A5129"/><circle cx="634.2" cy="419.8" r="1.8" fill="#9A5129"/></g><g id="markers__Gallbladder-and-biliary-tract"><circle cx="48.1" cy="396.6" r="1.8" fill="#A2559C"/><circle cx="67" cy="396" r="1.8" fill="#A2559C"/><circle cx="85.9" cy="395.6" r="1.8" fill="#A2559C"/><circle cx="104.8" cy="395" r="1.8" fill="#A2559C"/><circle cx="123.8" cy="394.7" r="1.8" fill="#A2559C"/><circle cx="142.7" cy="394.5" r="1.8" fill="#A2559C"/><circle cx="161.6" cy="394.3" r="1.8" fill="#A2559C"/><circle cx="180.5" cy="393.7" r="1.8" fill="#A2559C"/><circle cx="199.4" cy="393.1" r="1.8" fill="#A2559C"/><circle cx="218.3" cy="391.9" r="1.8" fill="#A2559C"/><circle cx="237.2" cy="391.9" r="1.8" fill="#A2559C"/><circle cx="256.1" cy="391.8" r="1.8" fill="#A2559C"/><circle cx="275" cy="391.6" r="1.8" fill="#A2559C"/><circle cx="293.9" cy="391.4" r="1.8" fill="#A2559C"/><circle cx="312.8" cy="391.1" r="1.8" fill="#A2559C"/><circle cx="331.7" cy="390.6" r="1.8" fill="#A2559C"/><circle cx="350.6" cy="390.1" r="1.8" fill="#A2559C"/><circle cx="369.5" cy="389.6" r="1.8" fill="#A2559C"/><circle cx="388.4" cy="388.9" r="1.8" fill="#A2559C"/><circle cx="407.3" cy="387.7" r="1.8" fill="#A2559C"/><circle cx="426.2" cy="386.9" r="1.8" fill="#A2559C"/><circle cx="445.1" cy="386.3" r="1.8" fill="#A2559C"/><circle cx="464" cy="385.3" r="1.8" fill="#A2559C"/><circle cx="482.9" cy="384.5" r="1.8" fill="#A2559C"/><circle cx="501.8" cy="383.1" r="1.8" fill="#A2559C"/><circle cx="520.7" cy="382.2" r="1.8" fill="#A2559C"/><circle cx="539.6" cy="381" r="1.8" fill="#A2559C"/><circle cx="558.5" cy="379.8" r="1.8" fill="#A2559C"/><circle cx="577.5" cy="378.6" r="1.8" fill="#A2559C"/><circle cx="596.4" cy="377.4" r="1.8" fill="#A2559C"/><circle cx="615.3" cy="376" r="1.8" fill="#A2559C"/><circle cx="634.2" cy="374.8" r="1.8" fill="#A2559C"/></g><g id="markers__Breast"><circle cx="48.1" cy="446.1" r="1.8" fill="#00295B"/><circle cx="67" cy="445.6" r="1.8" fill="#00295B"/><circle cx="85.9" cy="445.1" r="1.8" fill="#00295B"/><circle cx="104.8" cy="444.5" r="1.8" fill="#00295B"/><circle cx="123.8" cy="444.2" r="1.8" fill="#00295B"/><circle cx="142.7" cy="444.1" r="1.8" fill="#00295B"/><circle cx="161.6" cy="443.8" r="1.8" fill="#00295B"/><circle cx="180.5" cy="443.3" r="1.8" fill="#00295B"/><circle cx="199.4" cy="442.8" r="1.8" fill="#00295B"/><circle cx="218.3" cy="442.2" r="1.8" fill="#00295B"/><circle cx="237.2" cy="441.7" r="1.8" fill="#00295B"/><circle cx="256.1" cy="441.3" r="1.8" fill="#00295B"/><circle cx="275" cy="440.7" r="1.8" fill="#00295B"/><circle cx="293.9" cy="440.2" r="1.8" fill="#00295B"/><circle cx="312.8" cy="439.9" r="1.8" fill="#00295B"/><circle cx="331.7" cy="439.5" r="1.8" fill="#00295B"/><circle cx="350.6" cy="439.2" r="1.8" fill="#00295B"/><circle cx="369.5" cy="438.8" r="1.8" fill="#00295B"/><circle cx="388.4" cy="438.2" r="1.8" fill="#00295B"/><circle cx="407.3" cy="437.9" r="1.8" fill="#00295B"/><circle cx="426.2" cy="437.4" r="1.8" fill="#00295B"/><circle cx="445.1" cy="437.1" r="1.8" fill="#00295B"/><circle cx="464" cy="436.8" r="1.8" fill="#00295B"/><circle cx="482.9" cy="436.7" r="1.8" fill="#00295B"/><circle cx="501.8" cy="436.5" r="1.8" fill="#00295B"/><circle cx="520.7" cy="436.2" r="1.8" fill="#00295B"/><circle cx="539.6" cy="436.2" r="1.8" fill="#00295B"/><circle cx="558.5" cy="436.3" r="1.8" fill="#00295B"/><circle cx="577.5" cy="436" r="1.8" fill="#00295B"/><circle cx="596.4" cy="435.9" r="1.8" fill="#00295B"/><circle cx="615.3" cy="435.7" r="1.8" fill="#00295B"/><circle cx="634.2" cy="435.2" r="1.8" fill="#00295B"/></g><g id="markers__Colon-and-rectum-"><circle cx="48.1" cy="425.9" r="1.8" fill="#883039"/><circle cx="67" cy="425.2" r="1.8" fill="#883039"/><circle cx="85.9" cy="424.4" r="1.8" fill="#883039"/><circle cx="104.8" cy="423.4" r="1.8" fill="#883039"/><circle cx="123.8" cy="422.5" r="1.8" fill="#883039"/><circle cx="142.7" cy="421.9" r="1.8" fill="#883039"/><circle cx="161.6" cy="421.2" r="1.8" fill="#883039"/><circle cx="180.5" cy="420.4" r="1.8" fill="#883039"/><circle cx="199.4" cy="419.6" r="1.8" fill="#883039"/><circle cx="218.3" cy="418.5" r="1.8" fill="#883039"/><circle cx="237.2" cy="417.8" r="1.8" fill="#883039"/><circle cx="256.1" cy="417" r="1.8" fill="#883039"/><circle cx="275" cy="416.2" r="1.8" fill="#883039"/><circle cx="293.9" cy="415.5" r="1.8" fill="#883039"/><circle cx="312.8" cy="415.2" r="1.8" fill="#883039"/><circle cx="331.7" cy="414.4" r="1.8" fill="#883039"/><circle cx="350.6" cy="413.4" r="1.8" fill="#883039"/><circle cx="369.5" cy="412.6" r="1.8" fill="#883039"/><circle cx="388.4" cy="411.8" r="1.8" fill="#883039"/><circle cx="407.3" cy="411.2" r="1.8" fill="#883039"/><circle cx="426.2" cy="410.5" r="1.8" fill="#883039"/><circle cx="445.1" cy="409.9" r="1.8" fill="#883039"/><circle cx="464" cy="408.9" r="1.8" fill="#883039"/><circle cx="482.9" cy="407.9" r="1.8" fill="#883039"/><circle cx="501.8" cy="406.9" r="1.8" fill="#883039"/><circle cx="520.7" cy="405.9" r="1.8" fill="#883039"/><circle cx="539.6" cy="405" r="1.8" fill="#883039"/><circle cx="558.5" cy="404.2" r="1.8" fill="#883039"/><circle cx="577.5" cy="403.3" r="1.8" fill="#883039"/><circle cx="596.4" cy="402.4" r="1.8" fill="#883039"/><circle cx="615.3" cy="401.5" r="1.8" fill="#883039"/><circle cx="634.2" cy="400.4" r="1.8" fill="#883039"/></g><g id="markers__Kidney"><circle cx="48.1" cy="324" r="1.8" fill="#6D3E91"/><circle cx="67" cy="322.2" r="1.8" fill="#6D3E91"/><circle cx="85.9" cy="320.4" r="1.8" fill="#6D3E91"/><circle cx="104.8" cy="318.1" r="1.8" fill="#6D3E91"/><circle cx="123.8" cy="315.7" r="1.8" fill="#6D3E91"/><circle cx="142.7" cy="314.3" r="1.8" fill="#6D3E91"/><circle cx="161.6" cy="313.2" r="1.8" fill="#6D3E91"/><circle cx="180.5" cy="311.6" r="1.8" fill="#6D3E91"/><circle cx="199.4" cy="310" r="1.8" fill="#6D3E91"/><circle cx="218.3" cy="308.5" r="1.8" fill="#6D3E91"/><circle cx="237.2" cy="306.9" r="1.8" fill="#6D3E91"/><circle cx="256.1" cy="305.7" r="1.8" fill="#6D3E91"/><circle cx="275" cy="304.2" r="1.8" fill="#6D3E91"/><circle cx="293.9" cy="302.5" r="1.8" fill="#6D3E91"/><circle cx="312.8" cy="301.2" r="1.8" fill="#6D3E91"/><circle cx="331.7" cy="299.3" r="1.8" fill="#6D3E91"/><circle cx="350.6" cy="297.9" r="1.8" fill="#6D3E91"/><circle cx="369.5" cy="296.5" r="1.8" fill="#6D3E91"/><circle cx="388.4" cy="294.8" r="1.8" fill="#6D3E91"/><circle cx="407.3" cy="293.3" r="1.8" fill="#6D3E91"/><circle cx="426.2" cy="292" r="1.8" fill="#6D3E91"/><circle cx="445.1" cy="291" r="1.8" fill="#6D3E91"/><circle cx="464" cy="289.7" r="1.8" fill="#6D3E91"/><circle cx="482.9" cy="287.9" r="1.8" fill="#6D3E91"/><circle cx="501.8" cy="286.3" r="1.8" fill="#6D3E91"/><circle cx="520.7" cy="285" r="1.8" fill="#6D3E91"/><circle cx="539.6" cy="283.9" r="1.8" fill="#6D3E91"/><circle cx="558.5" cy="282.6" r="1.8" fill="#6D3E91"/><circle cx="577.5" cy="281.2" r="1.8" fill="#6D3E91"/><circle cx="596.4" cy="280" r="1.8" fill="#6D3E91"/><circle cx="615.3" cy="278.3" r="1.8" fill="#6D3E91"/><circle cx="634.2" cy="276.5" r="1.8" fill="#6D3E91"/></g><g id="markers__Liver"><circle cx="48.1" cy="460.6" r="1.8" fill="#2C8465"/><circle cx="67" cy="459.3" r="1.8" fill="#2C8465"/><circle cx="85.9" cy="457.9" r="1.8" fill="#2C8465"/><circle cx="104.8" cy="456.6" r="1.8" fill="#2C8465"/><circle cx="123.8" cy="455.4" r="1.8" fill="#2C8465"/><circle cx="142.7" cy="454.9" r="1.8" fill="#2C8465"/><circle cx="161.6" cy="454" r="1.8" fill="#2C8465"/><circle cx="180.5" cy="452.7" r="1.8" fill="#2C8465"/><circle cx="199.4" cy="451.6" r="1.8" fill="#2C8465"/><circle cx="218.3" cy="449.9" r="1.8" fill="#2C8465"/><circle cx="237.2" cy="448.5" r="1.8" fill="#2C8465"/><circle cx="256.1" cy="446.7" r="1.8" fill="#2C8465"/><circle cx="275" cy="444.6" r="1.8" fill="#2C8465"/><circle cx="293.9" cy="442.3" r="1.8" fill="#2C8465"/><circle cx="312.8" cy="440.1" r="1.8" fill="#2C8465"/><circle cx="331.7" cy="438" r="1.8" fill="#2C8465"/><circle cx="350.6" cy="435.7" r="1.8" fill="#2C8465"/><circle cx="369.5" cy="433.7" r="1.8" fill="#2C8465"/><circle cx="388.4" cy="431.8" r="1.8" fill="#2C8465"/><circle cx="407.3" cy="429.4" r="1.8" fill="#2C8465"/><circle cx="426.2" cy="427.1" r="1.8" fill="#2C8465"/><circle cx="445.1" cy="424.3" r="1.8" fill="#2C8465"/><circle cx="464" cy="421.7" r="1.8" fill="#2C8465"/><circle cx="482.9" cy="420.2" r="1.8" fill="#2C8465"/><circle cx="501.8" cy="418.3" r="1.8" fill="#2C8465"/><circle cx="520.7" cy="415.5" r="1.8" fill="#2C8465"/><circle cx="539.6" cy="412.8" r="1.8" fill="#2C8465"/><circle cx="558.5" cy="410.7" r="1.8" fill="#2C8465"/><circle cx="577.5" cy="408.1" r="1.8" fill="#2C8465"/><circle cx="596.4" cy="405.6" r="1.8" fill="#2C8465"/><circle cx="615.3" cy="403.2" r="1.8" fill="#2C8465"/><circle cx="634.2" cy="400.5" r="1.8" fill="#2C8465"/></g><g id="markers__Non-hodgkin-lymphoma"><circle cx="48.1" cy="469.6" r="1.8" fill="#996D39"/><circle cx="67" cy="469.1" r="1.8" fill="#996D39"/><circle cx="85.9" cy="468.6" r="1.8" fill="#996D39"/><circle cx="104.8" cy="467.9" r="1.8" fill="#996D39"/><circle cx="123.8" cy="467.3" r="1.8" fill="#996D39"/><circle cx="142.7" cy="466.8" r="1.8" fill="#996D39"/><circle cx="161.6" cy="466.3" r="1.8" fill="#996D39"/><circle cx="180.5" cy="465.7" r="1.8" fill="#996D39"/><circle cx="199.4" cy="465.2" r="1.8" fill="#996D39"/><circle cx="218.3" cy="464.6" r="1.8" fill="#996D39"/><circle cx="237.2" cy="464.3" r="1.8" fill="#996D39"/><circle cx="256.1" cy="463.9" r="1.8" fill="#996D39"/><circle cx="275" cy="463.3" r="1.8" fill="#996D39"/><circle cx="293.9" cy="462.9" r="1.8" fill="#996D39"/><circle cx="312.8" cy="462.6" r="1.8" fill="#996D39"/><circle cx="331.7" cy="462.2" r="1.8" fill="#996D39"/><circle cx="350.6" cy="461.8" r="1.8" fill="#996D39"/><circle cx="369.5" cy="461.5" r="1.8" fill="#996D39"/><circle cx="388.4" cy="461.2" r="1.8" fill="#996D39"/><circle cx="407.3" cy="460.9" r="1.8" fill="#996D39"/><circle cx="426.2" cy="460.7" r="1.8" fill="#996D39"/><circle cx="445.1" cy="460.4" r="1.8" fill="#996D39"/><circle cx="464" cy="460.1" r="1.8" fill="#996D39"/><circle cx="482.9" cy="459.9" r="1.8" fill="#996D39"/><circle cx="501.8" cy="459.4" r="1.8" fill="#996D39"/><circle cx="520.7" cy="459" r="1.8" fill="#996D39"/><circle cx="539.6" cy="458.6" r="1.8" fill="#996D39"/><circle cx="558.5" cy="458.1" r="1.8" fill="#996D39"/><circle cx="577.5" cy="457.6" r="1.8" fill="#996D39"/><circle cx="596.4" cy="457.2" r="1.8" fill="#996D39"/><circle cx="615.3" cy="456.6" r="1.8" fill="#996D39"/><circle cx="634.2" cy="456" r="1.8" fill="#996D39"/></g><g id="markers__Pancreatic-cancer"><circle cx="48.1" cy="507.8" r="1.8" fill="#B13507"/><circle cx="67" cy="507.3" r="1.8" fill="#B13507"/><circle cx="85.9" cy="506.8" r="1.8" fill="#B13507"/><circle cx="104.8" cy="506.3" r="1.8" fill="#B13507"/><circle cx="123.8" cy="505.8" r="1.8" fill="#B13507"/><circle cx="142.7" cy="505.4" r="1.8" fill="#B13507"/><circle cx="161.6" cy="505" r="1.8" fill="#B13507"/><circle cx="180.5" cy="504.5" r="1.8" fill="#B13507"/><circle cx="199.4" cy="504.1" r="1.8" fill="#B13507"/><circle cx="218.3" cy="503.7" r="1.8" fill="#B13507"/><circle cx="237.2" cy="503.3" r="1.8" fill="#B13507"/><circle cx="256.1" cy="502.8" r="1.8" fill="#B13507"/><circle cx="275" cy="502.2" r="1.8" fill="#B13507"/><circle cx="293.9" cy="501.7" r="1.8" fill="#B13507"/><circle cx="312.8" cy="501.2" r="1.8" fill="#B13507"/><circle cx="331.7" cy="500.6" r="1.8" fill="#B13507"/><circle cx="350.6" cy="500" r="1.8" fill="#B13507"/><circle cx="369.5" cy="499.5" r="1.8" fill="#B13507"/><circle cx="388.4" cy="499" r="1.8" fill="#B13507"/><circle cx="407.3" cy="498.6" r="1.8" fill="#B13507"/><circle cx="426.2" cy="498.2" r="1.8" fill="#B13507"/><circle cx="445.1" cy="497.8" r="1.8" fill="#B13507"/><circle cx="464" cy="497.1" r="1.8" fill="#B13507"/><circle cx="482.9" cy="496.5" r="1.8" fill="#B13507"/><circle cx="501.8" cy="495.8" r="1.8" fill="#B13507"/><circle cx="520.7" cy="495.2" r="1.8" fill="#B13507"/><circle cx="539.6" cy="494.6" r="1.8" fill="#B13507"/><circle cx="558.5" cy="494" r="1.8" fill="#B13507"/><circle cx="577.5" cy="493.4" r="1.8" fill="#B13507"/><circle cx="596.4" cy="492.9" r="1.8" fill="#B13507"/><circle cx="615.3" cy="492.3" r="1.8" fill="#B13507"/><circle cx="634.2" cy="491.6" r="1.8" fill="#B13507"/></g><g id="markers__Leukemia"><circle cx="48.1" cy="442.3" r="1.8" fill="#4C6A9C"/><circle cx="67" cy="441.6" r="1.8" fill="#4C6A9C"/><circle cx="85.9" cy="441" r="1.8" fill="#4C6A9C"/><circle cx="104.8" cy="440.1" r="1.8" fill="#4C6A9C"/><circle cx="123.8" cy="439.2" r="1.8" fill="#4C6A9C"/><circle cx="142.7" cy="438.4" r="1.8" fill="#4C6A9C"/><circle cx="161.6" cy="437.7" r="1.8" fill="#4C6A9C"/><circle cx="180.5" cy="436.9" r="1.8" fill="#4C6A9C"/><circle cx="199.4" cy="436" r="1.8" fill="#4C6A9C"/><circle cx="218.3" cy="434.8" r="1.8" fill="#4C6A9C"/><circle cx="237.2" cy="433.9" r="1.8" fill="#4C6A9C"/><circle cx="256.1" cy="432.9" r="1.8" fill="#4C6A9C"/><circle cx="275" cy="431.7" r="1.8" fill="#4C6A9C"/><circle cx="293.9" cy="430.7" r="1.8" fill="#4C6A9C"/><circle cx="312.8" cy="429.9" r="1.8" fill="#4C6A9C"/><circle cx="331.7" cy="429" r="1.8" fill="#4C6A9C"/><circle cx="350.6" cy="428" r="1.8" fill="#4C6A9C"/><circle cx="369.5" cy="427.2" r="1.8" fill="#4C6A9C"/><circle cx="388.4" cy="426.4" r="1.8" fill="#4C6A9C"/><circle cx="407.3" cy="425.7" r="1.8" fill="#4C6A9C"/><circle cx="426.2" cy="424.8" r="1.8" fill="#4C6A9C"/><circle cx="445.1" cy="424" r="1.8" fill="#4C6A9C"/><circle cx="464" cy="423" r="1.8" fill="#4C6A9C"/><circle cx="482.9" cy="422.2" r="1.8" fill="#4C6A9C"/><circle cx="501.8" cy="421.5" r="1.8" fill="#4C6A9C"/><circle cx="520.7" cy="420.8" r="1.8" fill="#4C6A9C"/><circle cx="539.6" cy="419.9" r="1.8" fill="#4C6A9C"/><circle cx="558.5" cy="419.1" r="1.8" fill="#4C6A9C"/><circle cx="577.5" cy="418.2" r="1.8" fill="#4C6A9C"/><circle cx="596.4" cy="417.4" r="1.8" fill="#4C6A9C"/><circle cx="615.3" cy="416.2" r="1.8" fill="#4C6A9C"/><circle cx="634.2" cy="415.1" r="1.8" fill="#4C6A9C"/></g></g></g><g id="footer" class="SourcesFooter" style="fill:#5b5b5b"><g id="sources" class="markdown-text-wrap"><text x="16" y="562.7" style="font-size:13.5px;line-height:1.2"><tspan x="16" y="562.7"><tspan style="font-weight:700">Data source:</tspan> IHME, Global Burden of Disease (2024)</tspan></text></g><g id="note" class="markdown-text-wrap"><text x="16" y="580.9" style="font-size:13.5px;line-height:1.2"><tspan x="16" y="580.9"><tspan style="font-weight:700">Note:</tspan> To allow for comparisons between countries and over time, this metric is <tspan class="dod-span" data-id="age_standardized">age-standardized</tspan>.</tspan></text></g><text id="origin-url" x="616.9" y="562.7" font-size="13.5"><tspan x="616.92" y="562.7"><a href="https://ourworldindata.org/cancer" style="fill:#5b5b5b" target="_blank">OurWorldinData.org/cancer</a> | <a href="https://creativecommons.org/licenses/by/4.0/" style="fill:#5b5b5b" target="_blank">CC BY</a></tspan></text></g></svg>