<svg xmlns="http://www.w3.org/2000/svg" width="850" height="600" style="font-family:Lato,&quot;Helvetica Neue&quot;,Helvetica,Arial,&quot;Liberation Sans&quot;,sans-serif;font-size:18px;background-color:#fff;text-rendering:geometricPrecision;-webkit-font-smoothing:antialiased" version="1.1" viewBox="0 0 850 600"><defs><style>@import url(https://ourworldindata.org/fonts.css);</style></defs><defs><pattern id="noDataPattern" width="4" height="4" patternTransform="rotate(-45 2 2)" patternUnits="userSpaceOnUse"><path stroke="#ccc" stroke-width=".7" d="M-1 2h6"/></pattern></defs><path fill="#fff" d="M0 0h850v600H0z" class="background-fill"/><g id="header" class="HeaderView"><g id="logo" transform="translate(769 16)"><svg xmlns="http://www.w3.org/2000/svg" width="65" height="36" fill="none" className="owidLogo" viewBox="0 0 65 36"><path fill="#002147" d="M0 0h64.8v36H0z"/><path fill="#CE261E" d="M0 33.3h64.8V36H0z"/><path fill="#fff" d="M13.8 10.57c0 .64-.11 1.23-.32 1.77a4.2 4.2 0 0 1-.9 1.4 4.08 4.08 0 0 1-1.38.94c-.54.22-1.14.33-1.8.33-.65 0-1.25-.11-1.8-.33a4.15 4.15 0 0 1-1.39-.93 4.2 4.2 0 0 1-.9-1.4A4.83 4.83 0 0 1 5 10.56c0-.63.1-1.22.32-1.76a4.18 4.18 0 0 1 .9-1.4 4.08 4.08 0 0 1 1.38-.93 4.68 4.68 0 0 1 1.8-.34c.66 0 1.26.11 1.8.34a4.08 4.08 0 0 1 2.28 2.33c.21.54.32 1.13.32 1.76Zm-1.66 0c0-.47-.06-.9-.2-1.27a2.67 2.67 0 0 0-.53-.97 2.33 2.33 0 0 0-.87-.6A2.94 2.94 0 0 0 9.4 7.5c-.42 0-.8.07-1.14.21-.34.14-.63.35-.87.61a2.74 2.74 0 0 0-.55.97 3.96 3.96 0 0 0-.19 1.27c0 .48.06.9.2 1.29a2.42 2.42 0 0 0 1.42 1.56c.33.14.71.2 1.13.2.43 0 .8-.06 1.14-.2a2.37 2.37 0 0 0 1.4-1.56 4.01 4.01 0 0 0 .2-1.29Zm3.96-1.81v3.9c0 .39.09.68.26.89.18.2.44.3.79.3.25 0 .5-.06.72-.17a2.58 2.58 0 0 0 .63-.47V8.76H20v6.15h-.91c-.2 0-.32-.09-.38-.27l-.1-.49a4.65 4.65 0 0 1-.4.35 2.58 2.58 0 0 1-.43.27 2.35 2.35 0 0 1-.5.17 2.35 2.35 0 0 1-.57.07c-.34 0-.64-.06-.9-.17a1.82 1.82 0 0 1-.64-.49 2.16 2.16 0 0 1-.4-.73 3.23 3.23 0 0 1-.14-.95V8.76h1.48Zm5.23 6.15V8.76h.87c.15 0 .26.02.32.08s.1.15.12.29l.09.74c.22-.38.47-.68.77-.9.3-.22.63-.33 1-.33.3 0 .55.07.75.21l-.19 1.11c-.01.07-.04.13-.08.16a.28.28 0 0 1-.16.04 1.01 1.01 0 0 1-.25-.04 1.65 1.65 0 0 0-.41-.04c-.3 0-.57.08-.8.25-.21.17-.4.42-.55.75v3.83h-1.48Zm6.02-8.67h1.35a.57.57 0 0 1 .35.1c.1.06.16.15.2.26l1.47 5.2a10.12 10.12 0 0 1 .19.9 5.97 5.97 0 0 1 .22-.9l1.7-5.2a.57.57 0 0 1 .2-.25.54.54 0 0 1 .34-.11h.48a.57.57 0 0 1 .34.1.5.5 0 0 1 .2.26l1.69 5.2c.08.25.16.53.22.85a31.71 31.71 0 0 1 .19-.86l1.47-5.19c.03-.1.1-.18.19-.25a.56.56 0 0 1 .34-.11h1.27l-2.7 8.67h-1.45L33.7 9l-.08-.25a9.5 9.5 0 0 1-.07-.28 4.04 4.04 0 0 1-.15.53L31.5 14.9h-1.46l-2.7-8.67Zm15.42 2.42c.46 0 .88.07 1.25.22s.7.36.96.63.47.6.61 1 .22.83.22 1.31c0 .5-.08.93-.22 1.32a2.85 2.85 0 0 1-.61 1 2.65 2.65 0 0 1-.96.64 3.35 3.35 0 0 1-1.25.22 3.4 3.4 0 0 1-1.25-.22 2.71 2.71 0 0 1-.97-.63 2.92 2.92 0 0 1-.62-1 3.8 3.8 0 0 1-.21-1.33c0-.48.07-.92.21-1.31a2.75 2.75 0 0 1 1.58-1.63 3.4 3.4 0 0 1 1.26-.22Zm0 5.2c.51 0 .9-.17 1.13-.51.25-.35.38-.85.38-1.52s-.13-1.17-.38-1.51c-.24-.35-.62-.53-1.13-.53-.52 0-.9.18-1.15.53-.25.35-.37.85-.37 1.51s.12 1.17.37 1.52c.25.34.63.51 1.15.51Zm3.95 1.05V8.76h.87c.15 0 .26.02.32.08s.1.15.12.29l.1.74c.21-.38.47-.68.76-.9.3-.22.63-.33 1-.33.3 0 .56.07.76.21l-.2 1.11c0 .07-.03.13-.07.16a.28.28 0 0 1-.17.04 1.01 1.01 0 0 1-.24-.04 1.65 1.65 0 0 0-.42-.04c-.3 0-.57.08-.79.25-.22.17-.4.42-.56.75v3.83h-1.48ZM52.96 6v8.91h-1.48V6h1.48Zm5.77 8.91c-.19 0-.32-.09-.38-.27l-.12-.6a3.68 3.68 0 0 1-.4.4 2.5 2.5 0 0 1-.98.5 2.37 2.37 0 0 1-.6.06c-.33 0-.64-.07-.92-.2a2.1 2.1 0 0 1-.73-.61 3.03 3.03 0 0 1-.46-1 5.07 5.07 0 0 1-.17-1.34c0-.45.07-.88.19-1.27s.3-.73.53-1.02c.24-.29.51-.51.84-.67a2.38 2.38 0 0 1 1.09-.25 2.1 2.1 0 0 1 1.54.6V6h1.48v8.91h-.9Zm-1.97-1.08c.3 0 .57-.07.78-.2.22-.12.42-.3.62-.54v-2.76a1.45 1.45 0 0 0-.56-.43 1.6 1.6 0 0 0-.63-.13c-.23 0-.43.04-.61.13a1.21 1.21 0 0 0-.47.38c-.12.17-.22.39-.28.65a4.3 4.3 0 0 0-.02 1.84c.06.25.14.45.25.61.1.16.24.27.4.34.15.07.33.1.52.1Zm-40.43 6.93v6.15h-1.48v-6.15h1.48Zm.22-1.8a.84.84 0 0 1-.07.36.96.96 0 0 1-.21.3 1 1 0 0 1-.3.2.96.96 0 0 1-.38.07.95.95 0 0 1-.36-.07 1.02 1.02 0 0 1-.5-.5.96.96 0 0 1 0-.73 1 1 0 0 1 .2-.3.93.93 0 0 1 .3-.2.9.9 0 0 1 .73 0 .91.91 0 0 1 .3.2.94.94 0 0 1 .3.67Zm1.22 7.95v-6.15h.9c.2 0 .32.09.38.27l.1.48a2.93 2.93 0 0 1 .84-.61 2.3 2.3 0 0 1 1.07-.24c.34 0 .63.06.9.18.25.1.47.27.64.48.18.2.3.45.4.73.09.29.13.6.13.95v3.91h-1.48V23c0-.38-.08-.67-.26-.87-.17-.21-.43-.32-.78-.32-.26 0-.5.06-.72.18a2.58 2.58 0 0 0-.64.47v4.45h-1.48Zm16.45-4.34c0 .64-.1 1.22-.32 1.76-.21.53-.5.99-.9 1.37a4 4 0 0 1-1.38.9 4.87 4.87 0 0 1-1.8.31h-3.3v-8.67h3.3a4.79 4.79 0 0 1 1.8.32 4 4 0 0 1 1.39.9c.38.37.68.83.9 1.36.2.53.31 1.12.31 1.75Zm-1.65 0c0-.47-.06-.9-.2-1.27a2.68 2.68 0 0 0-.54-.96 2.33 2.33 0 0 0-.86-.6 2.94 2.94 0 0 0-1.14-.22h-1.69v6.1h1.69c.42 0 .8-.06 1.14-.2.34-.14.63-.34.86-.6a2.75 2.75 0 0 0 .55-.96 4.01 4.01 0 0 0 .19-1.29Zm7.41 4.34h-.67a.75.75 0 0 1-.33-.06c-.07-.04-.13-.13-.17-.25l-.14-.44c-.15.14-.3.26-.46.37a2.8 2.8 0 0 1-.46.26c-.16.08-.33.13-.51.17a3.07 3.07 0 0 1-1.32-.05 1.62 1.62 0 0 1-.57-.32 1.45 1.45 0 0 1-.37-.52 1.85 1.85 0 0 1-.13-.73c0-.23.06-.46.18-.68.12-.23.33-.44.61-.62.29-.18.67-.33 1.14-.45a8.01 8.01 0 0 1 1.75-.2v-.36c0-.42-.08-.72-.26-.92-.17-.2-.42-.3-.76-.3a1.84 1.84 0 0 0-1.01.28l-.33.19a.66.66 0 0 1-.33.08.43.43 0 0 1-.26-.08.61.61 0 0 1-.17-.2l-.27-.46c.7-.65 1.56-.98 2.56-.98.36 0 .68.06.96.18a1.99 1.99 0 0 1 1.16 1.25c.1.29.16.6.16.96v3.88ZM37.1 26c.15 0 .3-.01.42-.04a1.81 1.81 0 0 0 .69-.33c.1-.09.22-.19.32-.3v-1.04c-.43.02-.79.06-1.08.12a2.8 2.8 0 0 0-.7.2.92.92 0 0 0-.37.3.66.66 0 0 0-.11.36c0 .26.07.45.22.56.16.11.36.17.61.17ZM43.22 27c-.53 0-.94-.15-1.23-.45-.29-.3-.43-.72-.43-1.25v-3.44h-.63a.31.31 0 0 1-.2-.08c-.06-.05-.09-.13-.09-.23v-.6l.99-.15.31-1.68a.3.3 0 0 1 .11-.2.36.36 0 0 1 .22-.06h.77v1.94h1.62v1.06h-1.62v3.33c0 .2.05.35.14.45a.49.49 0 0 0 .39.17.73.73 0 0 0 .39-.1l.12-.07a.2.2 0 0 1 .11-.04.16.16 0 0 1 .11.04c.03.02.06.05.09.1l.44.71c-.21.18-.46.32-.74.41a2.77 2.77 0 0 1-.87.14Zm7.2-.1h-.66a.75.75 0 0 1-.33-.06c-.08-.04-.14-.13-.18-.25l-.13-.44c-.16.14-.31.26-.47.37a2.8 2.8 0 0 1-.46.26c-.16.08-.33.13-.5.17a3.07 3.07 0 0 1-1.33-.05 1.62 1.62 0 0 1-.57-.32 1.45 1.45 0 0 1-.36-.52 1.85 1.85 0 0 1-.14-.73c0-.23.06-.46.18-.68.13-.23.33-.44.62-.62.28-.18.66-.33 1.13-.45a8.01 8.01 0 0 1 1.76-.2v-.36c0-.42-.1-.72-.27-.92-.17-.2-.42-.3-.75-.3a1.84 1.84 0 0 0-1.02.28l-.33.19a.66.66 0 0 1-.33.08.43.43 0 0 1-.25-.08.61.61 0 0 1-.18-.2l-.27-.46c.7-.65 1.56-.98 2.56-.98.36 0 .68.06.96.18a1.99 1.99 0 0 1 1.17 1.25c.1.29.15.6.15.96v3.88ZM47.54 26c.16 0 .3-.01.42-.04a1.88 1.88 0 0 0 .69-.33l.33-.3v-1.04c-.44.02-.8.06-1.09.12a2.8 2.8 0 0 0-.7.2.92.92 0 0 0-.37.3.66.66 0 0 0-.11.36c0 .26.08.45.23.56.15.11.36.17.6.17Z"/></svg></g><a id="title" href="https://ourworldindata.org/grapher/share-of-stage-1-cancers-by-diagnosis-route-in-england" rel="noopener" style="font-family:&quot;Playfair Display&quot;,Georgia,&quot;Times New Roman&quot;,&quot;Liberation Serif&quot;,serif" target="_blank"><text x="16" y="36.6" fill="#5b5b5b" font-size="21.25" font-weight="600"><tspan x="16" y="36.61">Share of stage 1 cancers diagnosed by each pathway in England, 2020</tspan></text></a><g id="subtitle" class="markdown-text-wrap"><text x="16" y="59.7" fill="#5b5b5b" style="font-size:14.625px;line-height:1.2"><tspan x="16" y="59.7">The share of stage 1 <tspan class="dod-span" data-id="cancer">cancers</tspan> diagnosed via different routes. Stage 1 cancers are typically identified at an early</tspan><tspan x="16" y="77.2">stage, offering better treatment outcomes and survival rates.</tspan></text></g></g><g id="chart-area" style="pointer-events:none"><g class="StackedDiscreteBarChart"><g id="vertical-grid-lines" class="AxisGridLines verticalLines"><path id="grid-line__0" stroke="#999" stroke-width="1" d="M199.5 549.8V128.1"/><path id="grid-line__20" stroke="#ddd" stroke-dasharray="3,2" stroke-width="1" d="M317.4 549.8V128.1"/><path id="grid-line__40" stroke="#ddd" stroke-dasharray="3,2" stroke-width="1" d="M435.4 549.8V128.1"/><path id="grid-line__60" stroke="#ddd" stroke-dasharray="3,2" stroke-width="1" d="M553.4 549.8V128.1"/><path id="grid-line__80" stroke="#ddd" stroke-dasharray="3,2" stroke-width="1" d="M671.3 549.8V128.1"/><path id="grid-line__100" stroke="#ddd" stroke-dasharray="3,2" stroke-width="1" d="M789.3 549.8V128.1"/></g><g id="categorical-color-legend" class="categoricalColorLegend"><g id="mark__Screening" style="cursor:default"><path fill="#58ac8c" stroke-width=".4" d="M16 96.6h13.5v13.5H16z"/><text x="34.5" y="103.35" dy=".32em" font-size="14.4">Screening</text></g><g id="mark__GP-referral" style="cursor:default"><path fill="#4c6a9c" stroke-width=".4" d="M111.59 96.6h13.5v13.5h-13.5z"/><text x="130.09" y="103.35" dy=".32em" font-size="14.4">GP referral</text></g><g id="mark__Other-route" style="cursor:default"><path fill="#38aaba" stroke-width=".4" d="M212.65 96.6h13.5v13.5h-13.5z"/><text x="231.15" y="103.35" dy=".32em" font-size="14.4">Other route</text></g><g id="mark__Urgent-GP-referral" style="cursor:default"><path fill="#e56e5a" stroke-width=".4" d="M316.3 96.6h13.5v13.5h-13.5z"/><text x="334.8" y="103.35" dy=".32em" font-size="14.4">Urgent GP referral</text></g><g id="mark__Emergency-presentation" style="cursor:default"><path fill="#b13507" stroke-width=".4" d="M464.74 96.6h13.5v13.5h-13.5z"/><text x="483.24" y="103.35" dy=".32em" font-size="14.4">Emergency presentation</text></g></g><g><g id="bar__Cervical-cancer" class="bar" transform="translate(0 147.27)"><text x="194.5" y="5" fill="#555" font-size="13.5" font-weight="700" text-anchor="end"><tspan x="194.5" y="5">Cervical cancer</tspan></text><g id="stacked-bar__Screening"><path fill="#58ac8c" d="M0 0h336.8v30.67H0z" opacity=".8" style="transition:height 200ms ease" transform="translate(199.5 -15.33)"/><text width="336.8" height="30.67" x="367.9" y="0" fill="#000" dominant-baseline="middle" font-size="13.5" opacity="1" text-anchor="middle">57%</text></g><g id="stacked-bar__GP-referral"><path fill="#4c6a9c" d="M0 0h122.9v30.67H0z" opacity=".8" style="transition:height 200ms ease" transform="translate(536.3 -15.33)"/><text width="122.9" height="30.67" x="597.75" y="0" fill="#fff" dominant-baseline="middle" font-size="13.5" opacity="1" text-anchor="middle">21%</text></g><g id="stacked-bar__Other-route"><path fill="#38aaba" d="M0 0h56.7v30.67H0z" opacity=".8" style="transition:height 200ms ease" transform="translate(659.3 -15.33)"/><text width="56.7" height="30.67" x="687.65" y="0" fill="#000" dominant-baseline="middle" font-size="13.5" opacity="1" text-anchor="middle">9.6%</text></g><g id="stacked-bar__Urgent-GP-referral"><path fill="#e56e5a" d="M0 0h63.2v30.67H0z" opacity=".8" style="transition:height 200ms ease" transform="translate(716 -15.33)"/><text width="63.2" height="30.67" x="747.6" y="0" fill="#000" dominant-baseline="middle" font-size="13.5" opacity="1" text-anchor="middle">11%</text></g><g id="stacked-bar__Emergency-presentation"><path fill="#b13507" d="M0 0h10v30.67H0z" opacity=".8" style="transition:height 200ms ease" transform="translate(779.3 -15.33)"/></g><text id="total__Cervical-cancer" fill="#555" dominant-baseline="middle" font-size="13.5" style="fill:#fff;stroke:#fff;stroke-linecap:round;stroke-linejoin:round;stroke-width:.25em;user-select:none" transform="translate(794.3)">100%</text><text fill="#555" dominant-baseline="middle" font-size="13.5" transform="translate(794.3)">100%</text></g><g id="bar__Breast-cancer" class="bar" transform="translate(0 185.6)"><text x="194.5" y="5" fill="#555" font-size="13.5" font-weight="700" text-anchor="end"><tspan x="194.5" y="5">Breast cancer</tspan></text><g><path fill="#58ac8c" d="M0 0h224.8v30.67H0z" opacity=".8" style="transition:height 200ms ease" transform="translate(199.5 -15.33)"/><text width="224.8" height="30.67" x="311.9" y="0" fill="#000" dominant-baseline="middle" font-size="13.5" opacity="1" text-anchor="middle">38%</text></g><g><path fill="#4c6a9c" d="M0 0h41.2v30.67H0z" opacity=".8" style="transition:height 200ms ease" transform="translate(424.3 -15.33)"/><text width="41.2" height="30.67" x="444.9" y="0" fill="#fff" dominant-baseline="middle" font-size="13.5" opacity="1" text-anchor="middle">7%</text></g><g><path fill="#38aaba" d="M0 0h29.8v30.67H0z" opacity=".8" style="transition:height 200ms ease" transform="translate(465.5 -15.33)"/></g><g><path fill="#e56e5a" d="M0 0h281.1v30.67H0z" opacity=".8" style="transition:height 200ms ease" transform="translate(495.4 -15.33)"/><text width="281.1" height="30.67" x="635.95" y="0" fill="#000" dominant-baseline="middle" font-size="13.5" opacity="1" text-anchor="middle">48%</text></g><g><path fill="#b13507" d="M0 0h12.8v30.67H0z" opacity=".8" style="transition:height 200ms ease" transform="translate(776.5 -15.33)"/></g><text id="total__Breast-cancer" fill="#555" dominant-baseline="middle" font-size="13.5" style="fill:#fff;stroke:#fff;stroke-linecap:round;stroke-linejoin:round;stroke-width:.25em;user-select:none" transform="translate(794.3)">100%</text><text fill="#555" dominant-baseline="middle" font-size="13.5" transform="translate(794.3)">100%</text></g><g id="bar__Colorectal-cancer" class="bar" transform="translate(0 223.94)"><text x="194.5" y="5" fill="#555" font-size="13.5" font-weight="700" text-anchor="end"><tspan x="194.5" y="5">Colorectal cancer</tspan></text><g><path fill="#58ac8c" d="M0 0h150.2v30.67H0z" opacity=".8" style="transition:height 200ms ease" transform="translate(199.5 -15.33)"/><text width="150.2" height="30.67" x="274.6" y="0" fill="#000" dominant-baseline="middle" font-size="13.5" opacity="1" text-anchor="middle">25%</text></g><g><path fill="#4c6a9c" d="M0 0h121.5v30.67H0z" opacity=".8" style="transition:height 200ms ease" transform="translate(349.7 -15.33)"/><text width="121.5" height="30.67" x="410.45" y="0" fill="#fff" dominant-baseline="middle" font-size="13.5" opacity="1" text-anchor="middle">21%</text></g><g><path fill="#38aaba" d="M0 0h71.7v30.67H0z" opacity=".8" style="transition:height 200ms ease" transform="translate(471.3 -15.33)"/><text width="71.7" height="30.67" x="507.15" y="0" fill="#000" dominant-baseline="middle" font-size="13.5" opacity="1" text-anchor="middle">12%</text></g><g><path fill="#e56e5a" d="M0 0h205v30.67H0z" opacity=".8" style="transition:height 200ms ease" transform="translate(543 -15.33)"/><text width="205" height="30.67" x="645.5" y="0" fill="#000" dominant-baseline="middle" font-size="13.5" opacity="1" text-anchor="middle">35%</text></g><g><path fill="#b13507" d="M0 0h41.2v30.67H0z" opacity=".8" style="transition:height 200ms ease" transform="translate(748.1 -15.33)"/><text width="41.2" height="30.67" x="768.7" y="0" fill="#fff" dominant-baseline="middle" font-size="13.5" opacity="1" text-anchor="middle">7%</text></g><text id="total__Colorectal-cancer" fill="#555" dominant-baseline="middle" font-size="13.5" style="fill:#fff;stroke:#fff;stroke-linecap:round;stroke-linejoin:round;stroke-width:.25em;user-select:none" transform="translate(794.3)">100%</text><text fill="#555" dominant-baseline="middle" font-size="13.5" transform="translate(794.3)">100%</text></g><g id="bar__Lung-cancer-__0028small-cell__0029" class="bar" transform="translate(0 262.28)"><text x="194.5" y="5" fill="#555" font-size="13.5" font-weight="700" text-anchor="end"><tspan x="194.5" y="5">Lung cancer (small cell)</tspan></text><g><path fill="#4c6a9c" d="M0 0h179.7v30.67H0z" opacity=".8" style="transition:height 200ms ease" transform="translate(199.5 -15.33)"/><text width="179.7" height="30.67" x="289.35" y="0" fill="#fff" dominant-baseline="middle" font-size="13.5" opacity="1" text-anchor="middle">30%</text></g><g><path fill="#38aaba" d="M0 0h185.3v30.67H0z" opacity=".8" style="transition:height 200ms ease" transform="translate(379.2 -15.33)"/><text width="185.3" height="30.67" x="471.85" y="0" fill="#000" dominant-baseline="middle" font-size="13.5" opacity="1" text-anchor="middle">31%</text></g><g><path fill="#e56e5a" d="M0 0h151.6v30.67H0z" opacity=".8" style="transition:height 200ms ease" transform="translate(564.6 -15.33)"/><text width="151.6" height="30.67" x="640.4" y="0" fill="#000" dominant-baseline="middle" font-size="13.5" opacity="1" text-anchor="middle">26%</text></g><g><path fill="#b13507" d="M0 0h73v30.67H0z" opacity=".8" style="transition:height 200ms ease" transform="translate(716.3 -15.33)"/><text width="73" height="30.67" x="752.8" y="0" fill="#fff" dominant-baseline="middle" font-size="13.5" opacity="1" text-anchor="middle">12%</text></g><text id="total__Lung-cancer-__0028small-cell__0029" fill="#555" dominant-baseline="middle" font-size="13.5" style="fill:#fff;stroke:#fff;stroke-linecap:round;stroke-linejoin:round;stroke-width:.25em;user-select:none" transform="translate(794.3)">100%</text><text fill="#555" dominant-baseline="middle" font-size="13.5" transform="translate(794.3)">100%</text></g><g id="bar__Lung-cancer-__0028non-small-cell__0029" class="bar" transform="translate(0 300.61)"><text x="194.5" y="5" fill="#555" font-size="13.5" font-weight="700" text-anchor="end"><tspan x="194.5" y="5">Lung cancer (non-small cell)</tspan></text><g><path fill="#4c6a9c" d="M0 0h183.6v30.67H0z" opacity=".8" style="transition:height 200ms ease" transform="translate(199.5 -15.33)"/><text width="183.6" height="30.67" x="291.3" y="0" fill="#fff" dominant-baseline="middle" font-size="13.5" opacity="1" text-anchor="middle">31%</text></g><g><path fill="#38aaba" d="M0 0h184.7v30.67H0z" opacity=".8" style="transition:height 200ms ease" transform="translate(383.1 -15.33)"/><text width="184.7" height="30.67" x="475.45" y="0" fill="#000" dominant-baseline="middle" font-size="13.5" opacity="1" text-anchor="middle">31%</text></g><g><path fill="#e56e5a" d="M0 0h108v30.67H0z" opacity=".8" style="transition:height 200ms ease" transform="translate(567.9 -15.33)"/><text width="108" height="30.67" x="621.9" y="0" fill="#000" dominant-baseline="middle" font-size="13.5" opacity="1" text-anchor="middle">18%</text></g><g><path fill="#b13507" d="M0 0h113.4v30.67H0z" opacity=".8" style="transition:height 200ms ease" transform="translate(675.9 -15.33)"/><text width="113.4" height="30.67" x="732.6" y="0" fill="#fff" dominant-baseline="middle" font-size="13.5" opacity="1" text-anchor="middle">19%</text></g><text id="total__Lung-cancer-__0028non-small-cell__0029" fill="#555" dominant-baseline="middle" font-size="13.5" style="fill:#fff;stroke:#fff;stroke-linecap:round;stroke-linejoin:round;stroke-width:.25em;user-select:none" transform="translate(794.3)">100%</text><text fill="#555" dominant-baseline="middle" font-size="13.5" transform="translate(794.3)">100%</text></g><g id="bar__Uterine-cancer" class="bar" transform="translate(0 338.95)"><text x="194.5" y="5" fill="#555" font-size="13.5" font-weight="700" text-anchor="end"><tspan x="194.5" y="5">Uterine cancer</tspan></text><g><path fill="#4c6a9c" d="M0 0h115.4v30.67H0z" opacity=".8" style="transition:height 200ms ease" transform="translate(199.5 -15.33)"/><text width="115.4" height="30.67" x="257.2" y="0" fill="#fff" dominant-baseline="middle" font-size="13.5" opacity="1" text-anchor="middle">20%</text></g><g><path fill="#38aaba" d="M0 0h45.5v30.67H0z" opacity=".8" style="transition:height 200ms ease" transform="translate(314.9 -15.33)"/><text width="45.5" height="30.67" x="337.65" y="0" fill="#000" dominant-baseline="middle" font-size="13.5" opacity="1" text-anchor="middle">7.7%</text></g><g><path fill="#e56e5a" d="M0 0h403.2v30.67H0z" opacity=".8" style="transition:height 200ms ease" transform="translate(360.4 -15.33)"/><text width="403.2" height="30.67" x="562" y="0" fill="#000" dominant-baseline="middle" font-size="13.5" opacity="1" text-anchor="middle">68%</text></g><g><path fill="#b13507" d="M0 0h25.6v30.67H0z" opacity=".8" style="transition:height 200ms ease" transform="translate(763.6 -15.33)"/></g><text id="total__Uterine-cancer" fill="#555" dominant-baseline="middle" font-size="13.5" style="fill:#fff;stroke:#fff;stroke-linecap:round;stroke-linejoin:round;stroke-width:.25em;user-select:none" transform="translate(794.3)">100%</text><text fill="#555" dominant-baseline="middle" font-size="13.5" transform="translate(794.3)">100%</text></g><g id="bar__Pancreatic-cancer" class="bar" transform="translate(0 377.29)"><text x="194.5" y="5" fill="#555" font-size="13.5" font-weight="700" text-anchor="end"><tspan x="194.5" y="5">Pancreatic cancer</tspan></text><g><path fill="#4c6a9c" d="M0 0h122.8v30.67H0z" opacity=".8" style="transition:height 200ms ease" transform="translate(199.5 -15.33)"/><text width="122.8" height="30.67" x="260.9" y="0" fill="#fff" dominant-baseline="middle" font-size="13.5" opacity="1" text-anchor="middle">21%</text></g><g><path fill="#38aaba" d="M0 0h99v30.67H0z" opacity=".8" style="transition:height 200ms ease" transform="translate(322.3 -15.33)"/><text width="99" height="30.67" x="371.8" y="0" fill="#000" dominant-baseline="middle" font-size="13.5" opacity="1" text-anchor="middle">17%</text></g><g><path fill="#e56e5a" d="M0 0h123.6v30.67H0z" opacity=".8" style="transition:height 200ms ease" transform="translate(421.4 -15.33)"/><text width="123.6" height="30.67" x="483.2" y="0" fill="#000" dominant-baseline="middle" font-size="13.5" opacity="1" text-anchor="middle">21%</text></g><g><path fill="#b13507" d="M0 0h244.3v30.67H0z" opacity=".8" style="transition:height 200ms ease" transform="translate(544.9 -15.33)"/><text width="244.3" height="30.67" x="667.05" y="0" fill="#fff" dominant-baseline="middle" font-size="13.5" opacity="1" text-anchor="middle">41%</text></g><text id="total__Pancreatic-cancer" fill="#555" dominant-baseline="middle" font-size="13.5" style="fill:#fff;stroke:#fff;stroke-linecap:round;stroke-linejoin:round;stroke-width:.25em;user-select:none" transform="translate(794.3)">100%</text><text fill="#555" dominant-baseline="middle" font-size="13.5" transform="translate(794.3)">100%</text></g><g id="bar__Ovarian-cancer" class="bar" transform="translate(0 415.62)"><text x="194.5" y="5" fill="#555" font-size="13.5" font-weight="700" text-anchor="end"><tspan x="194.5" y="5">Ovarian cancer</tspan></text><g><path fill="#4c6a9c" d="M0 0h170.8v30.67H0z" opacity=".8" style="transition:height 200ms ease" transform="translate(199.5 -15.33)"/><text width="170.8" height="30.67" x="284.9" y="0" fill="#fff" dominant-baseline="middle" font-size="13.5" opacity="1" text-anchor="middle">29%</text></g><g><path fill="#38aaba" d="M0 0h129.5v30.67H0z" opacity=".8" style="transition:height 200ms ease" transform="translate(370.3 -15.33)"/><text width="129.5" height="30.67" x="435.05" y="0" fill="#000" dominant-baseline="middle" font-size="13.5" opacity="1" text-anchor="middle">22%</text></g><g><path fill="#e56e5a" d="M0 0h208v30.67H0z" opacity=".8" style="transition:height 200ms ease" transform="translate(499.8 -15.33)"/><text width="208" height="30.67" x="603.8" y="0" fill="#000" dominant-baseline="middle" font-size="13.5" opacity="1" text-anchor="middle">35%</text></g><g><path fill="#b13507" d="M0 0h81.4v30.67H0z" opacity=".8" style="transition:height 200ms ease" transform="translate(707.8 -15.33)"/><text width="81.4" height="30.67" x="748.5" y="0" fill="#fff" dominant-baseline="middle" font-size="13.5" opacity="1" text-anchor="middle">14%</text></g><text id="total__Ovarian-cancer" fill="#555" dominant-baseline="middle" font-size="13.5" style="fill:#fff;stroke:#fff;stroke-linecap:round;stroke-linejoin:round;stroke-width:.25em;user-select:none" transform="translate(794.3)">100%</text><text fill="#555" dominant-baseline="middle" font-size="13.5" transform="translate(794.3)">100%</text></g><g id="bar__Bladder-cancer" class="bar" transform="translate(0 453.96)"><text x="194.5" y="5" fill="#555" font-size="13.5" font-weight="700" text-anchor="end"><tspan x="194.5" y="5">Bladder cancer</tspan></text><g><path fill="#4c6a9c" d="M0 0h161.1v30.67H0z" opacity=".8" style="transition:height 200ms ease" transform="translate(199.5 -15.33)"/><text width="161.1" height="30.67" x="280.05" y="0" fill="#fff" dominant-baseline="middle" font-size="13.5" opacity="1" text-anchor="middle">27%</text></g><g><path fill="#38aaba" d="M0 0h82.3v30.67H0z" opacity=".8" style="transition:height 200ms ease" transform="translate(360.6 -15.33)"/><text width="82.3" height="30.67" x="401.75" y="0" fill="#000" dominant-baseline="middle" font-size="13.5" opacity="1" text-anchor="middle">14%</text></g><g><path fill="#e56e5a" d="M0 0h299.5v30.67H0z" opacity=".8" style="transition:height 200ms ease" transform="translate(443 -15.33)"/><text width="299.5" height="30.67" x="592.75" y="0" fill="#000" dominant-baseline="middle" font-size="13.5" opacity="1" text-anchor="middle">51%</text></g><g><path fill="#b13507" d="M0 0h46.7v30.67H0z" opacity=".8" style="transition:height 200ms ease" transform="translate(742.5 -15.33)"/><text width="46.7" height="30.67" x="765.85" y="0" fill="#fff" dominant-baseline="middle" font-size="13.5" opacity="1" text-anchor="middle">7.9%</text></g><text id="total__Bladder-cancer" fill="#555" dominant-baseline="middle" font-size="13.5" style="fill:#fff;stroke:#fff;stroke-linecap:round;stroke-linejoin:round;stroke-width:.25em;user-select:none" transform="translate(794.3)">100%</text><text fill="#555" dominant-baseline="middle" font-size="13.5" transform="translate(794.3)">100%</text></g><g id="bar__Kidney-cancer" class="bar" transform="translate(0 492.3)"><text x="194.5" y="5" fill="#555" font-size="13.5" font-weight="700" text-anchor="end"><tspan x="194.5" y="5">Kidney cancer</tspan></text><g><path fill="#4c6a9c" d="M0 0h179v30.67H0z" opacity=".8" style="transition:height 200ms ease" transform="translate(199.5 -15.33)"/><text width="179" height="30.67" x="289" y="0" fill="#fff" dominant-baseline="middle" font-size="13.5" opacity="1" text-anchor="middle">30%</text></g><g><path fill="#38aaba" d="M0 0h144.4v30.67H0z" opacity=".8" style="transition:height 200ms ease" transform="translate(378.5 -15.33)"/><text width="144.4" height="30.67" x="450.7" y="0" fill="#000" dominant-baseline="middle" font-size="13.5" opacity="1" text-anchor="middle">24%</text></g><g><path fill="#e56e5a" d="M0 0h157.5v30.67H0z" opacity=".8" style="transition:height 200ms ease" transform="translate(523 -15.33)"/><text width="157.5" height="30.67" x="601.75" y="0" fill="#000" dominant-baseline="middle" font-size="13.5" opacity="1" text-anchor="middle">27%</text></g><g><path fill="#b13507" d="M0 0h108.8v30.67H0z" opacity=".8" style="transition:height 200ms ease" transform="translate(680.5 -15.33)"/><text width="108.8" height="30.67" x="734.9" y="0" fill="#fff" dominant-baseline="middle" font-size="13.5" opacity="1" text-anchor="middle">18%</text></g><text id="total__Kidney-cancer" fill="#555" dominant-baseline="middle" font-size="13.5" style="fill:#fff;stroke:#fff;stroke-linecap:round;stroke-linejoin:round;stroke-width:.25em;user-select:none" transform="translate(794.3)">100%</text><text fill="#555" dominant-baseline="middle" font-size="13.5" transform="translate(794.3)">100%</text></g><g id="bar__Prostate-cancer" class="bar" transform="translate(0 530.63)"><text x="194.5" y="5" fill="#555" font-size="13.5" font-weight="700" text-anchor="end"><tspan x="194.5" y="5">Prostate cancer</tspan></text><g><path fill="#4c6a9c" d="M0 0h178.7v30.67H0z" opacity=".8" style="transition:height 200ms ease" transform="translate(199.5 -15.33)"/><text width="178.7" height="30.67" x="288.85" y="0" fill="#fff" dominant-baseline="middle" font-size="13.5" opacity="1" text-anchor="middle">30%</text></g><g><path fill="#38aaba" d="M0 0h65.2v30.67H0z" opacity=".8" style="transition:height 200ms ease" transform="translate(378.2 -15.33)"/><text width="65.2" height="30.67" x="410.8" y="0" fill="#000" dominant-baseline="middle" font-size="13.5" opacity="1" text-anchor="middle">11%</text></g><g><path fill="#e56e5a" d="M0 0h329v30.67H0z" opacity=".8" style="transition:height 200ms ease" transform="translate(443.5 -15.33)"/><text width="329" height="30.67" x="608" y="0" fill="#000" dominant-baseline="middle" font-size="13.5" opacity="1" text-anchor="middle">56%</text></g><g><path fill="#b13507" d="M0 0h16.7v30.67H0z" opacity=".8" style="transition:height 200ms ease" transform="translate(772.6 -15.33)"/></g><text id="total__Prostate-cancer" fill="#555" dominant-baseline="middle" font-size="13.5" style="fill:#fff;stroke:#fff;stroke-linecap:round;stroke-linejoin:round;stroke-width:.25em;user-select:none" transform="translate(794.3)">100%</text><text fill="#555" dominant-baseline="middle" font-size="13.5" transform="translate(794.3)">100%</text></g></g><g id="vertical-zero-line" class="AxisGridLines verticalLines zeroLine"><path stroke="#999" stroke-width="1" d="M199.5 549.8V128.1"/></g></g></g><g id="footer" class="SourcesFooter" style="fill:#5b5b5b"><g id="sources" class="markdown-text-wrap"><text x="16" y="580.9" style="font-size:13.5px;line-height:1.2"><tspan x="16" y="580.9"><tspan style="font-weight:700">Data source:</tspan> National Disease Registration Service (2024)</tspan></text></g><text id="origin-url" x="616.9" y="580.9" font-size="13.5"><tspan x="616.92" y="580.89"><a href="https://ourworldindata.org/cancer" style="fill:#5b5b5b" target="_blank">OurWorldinData.org/cancer</a> | <a href="https://creativecommons.org/licenses/by/4.0/" style="fill:#5b5b5b" target="_blank">CC BY</a></tspan></text></g></svg>