<svg xmlns="http://www.w3.org/2000/svg" width="850" height="600" style="font-family:Lato,&quot;Helvetica Neue&quot;,Helvetica,Arial,&quot;Liberation Sans&quot;,sans-serif;font-size:18px;background-color:#fff;text-rendering:geometricPrecision;-webkit-font-smoothing:antialiased" version="1.1" viewBox="0 0 850 600"><defs><style>@import url(https://ourworldindata.org/fonts.css);</style></defs><defs><pattern id="noDataPattern" width="4" height="4" patternTransform="rotate(-45 2 2)" patternUnits="userSpaceOnUse"><path stroke="#ccc" stroke-width=".7" d="M-1 2h6"/></pattern></defs><path fill="#fff" d="M0 0h850v600H0z" class="background-fill"/><g id="header" class="HeaderView"><g id="logo" transform="translate(769 16)"><svg xmlns="http://www.w3.org/2000/svg" width="65" height="36" fill="none" className="owidLogo" viewBox="0 0 65 36"><path fill="#002147" d="M0 0h64.8v36H0z"/><path fill="#CE261E" d="M0 33.3h64.8V36H0z"/><path fill="#fff" d="M13.8 10.57c0 .64-.11 1.23-.32 1.77a4.2 4.2 0 0 1-.9 1.4 4.08 4.08 0 0 1-1.38.94c-.54.22-1.14.33-1.8.33-.65 0-1.25-.11-1.8-.33a4.15 4.15 0 0 1-1.39-.93 4.2 4.2 0 0 1-.9-1.4A4.83 4.83 0 0 1 5 10.56c0-.63.1-1.22.32-1.76a4.18 4.18 0 0 1 .9-1.4 4.08 4.08 0 0 1 1.38-.93 4.68 4.68 0 0 1 1.8-.34c.66 0 1.26.11 1.8.34a4.08 4.08 0 0 1 2.28 2.33c.21.54.32 1.13.32 1.76Zm-1.66 0c0-.47-.06-.9-.2-1.27a2.67 2.67 0 0 0-.53-.97 2.33 2.33 0 0 0-.87-.6A2.94 2.94 0 0 0 9.4 7.5c-.42 0-.8.07-1.14.21-.34.14-.63.35-.87.61a2.74 2.74 0 0 0-.55.97 3.96 3.96 0 0 0-.19 1.27c0 .48.06.9.2 1.29a2.42 2.42 0 0 0 1.42 1.56c.33.14.71.2 1.13.2.43 0 .8-.06 1.14-.2a2.37 2.37 0 0 0 1.4-1.56 4.01 4.01 0 0 0 .2-1.29Zm3.96-1.81v3.9c0 .39.09.68.26.89.18.2.44.3.79.3.25 0 .5-.06.72-.17a2.58 2.58 0 0 0 .63-.47V8.76H20v6.15h-.91c-.2 0-.32-.09-.38-.27l-.1-.49a4.65 4.65 0 0 1-.4.35 2.58 2.58 0 0 1-.43.27 2.35 2.35 0 0 1-.5.17 2.35 2.35 0 0 1-.57.07c-.34 0-.64-.06-.9-.17a1.82 1.82 0 0 1-.64-.49 2.16 2.16 0 0 1-.4-.73 3.23 3.23 0 0 1-.14-.95V8.76h1.48Zm5.23 6.15V8.76h.87c.15 0 .26.02.32.08s.1.15.12.29l.09.74c.22-.38.47-.68.77-.9.3-.22.63-.33 1-.33.3 0 .55.07.75.21l-.19 1.11c-.01.07-.04.13-.08.16a.28.28 0 0 1-.16.04 1.01 1.01 0 0 1-.25-.04 1.65 1.65 0 0 0-.41-.04c-.3 0-.57.08-.8.25-.21.17-.4.42-.55.75v3.83h-1.48Zm6.02-8.67h1.35a.57.57 0 0 1 .35.1c.1.06.16.15.2.26l1.47 5.2a10.12 10.12 0 0 1 .19.9 5.97 5.97 0 0 1 .22-.9l1.7-5.2a.57.57 0 0 1 .2-.25.54.54 0 0 1 .34-.11h.48a.57.57 0 0 1 .34.1.5.5 0 0 1 .2.26l1.69 5.2c.08.25.16.53.22.85a31.71 31.71 0 0 1 .19-.86l1.47-5.19c.03-.1.1-.18.19-.25a.56.56 0 0 1 .34-.11h1.27l-2.7 8.67h-1.45L33.7 9l-.08-.25a9.5 9.5 0 0 1-.07-.28 4.04 4.04 0 0 1-.15.53L31.5 14.9h-1.46l-2.7-8.67Zm15.42 2.42c.46 0 .88.07 1.25.22s.7.36.96.63.47.6.61 1 .22.83.22 1.31c0 .5-.08.93-.22 1.32a2.85 2.85 0 0 1-.61 1 2.65 2.65 0 0 1-.96.64 3.35 3.35 0 0 1-1.25.22 3.4 3.4 0 0 1-1.25-.22 2.71 2.71 0 0 1-.97-.63 2.92 2.92 0 0 1-.62-1 3.8 3.8 0 0 1-.21-1.33c0-.48.07-.92.21-1.31a2.75 2.75 0 0 1 1.58-1.63 3.4 3.4 0 0 1 1.26-.22Zm0 5.2c.51 0 .9-.17 1.13-.51.25-.35.38-.85.38-1.52s-.13-1.17-.38-1.51c-.24-.35-.62-.53-1.13-.53-.52 0-.9.18-1.15.53-.25.35-.37.85-.37 1.51s.12 1.17.37 1.52c.25.34.63.51 1.15.51Zm3.95 1.05V8.76h.87c.15 0 .26.02.32.08s.1.15.12.29l.1.74c.21-.38.47-.68.76-.9.3-.22.63-.33 1-.33.3 0 .56.07.76.21l-.2 1.11c0 .07-.03.13-.07.16a.28.28 0 0 1-.17.04 1.01 1.01 0 0 1-.24-.04 1.65 1.65 0 0 0-.42-.04c-.3 0-.57.08-.79.25-.22.17-.4.42-.56.75v3.83h-1.48ZM52.96 6v8.91h-1.48V6h1.48Zm5.77 8.91c-.19 0-.32-.09-.38-.27l-.12-.6a3.68 3.68 0 0 1-.4.4 2.5 2.5 0 0 1-.98.5 2.37 2.37 0 0 1-.6.06c-.33 0-.64-.07-.92-.2a2.1 2.1 0 0 1-.73-.61 3.03 3.03 0 0 1-.46-1 5.07 5.07 0 0 1-.17-1.34c0-.45.07-.88.19-1.27s.3-.73.53-1.02c.24-.29.51-.51.84-.67a2.38 2.38 0 0 1 1.09-.25 2.1 2.1 0 0 1 1.54.6V6h1.48v8.91h-.9Zm-1.97-1.08c.3 0 .57-.07.78-.2.22-.12.42-.3.62-.54v-2.76a1.45 1.45 0 0 0-.56-.43 1.6 1.6 0 0 0-.63-.13c-.23 0-.43.04-.61.13a1.21 1.21 0 0 0-.47.38c-.12.17-.22.39-.28.65a4.3 4.3 0 0 0-.02 1.84c.06.25.14.45.25.61.1.16.24.27.4.34.15.07.33.1.52.1Zm-40.43 6.93v6.15h-1.48v-6.15h1.48Zm.22-1.8a.84.84 0 0 1-.07.36.96.96 0 0 1-.21.3 1 1 0 0 1-.3.2.96.96 0 0 1-.38.07.95.95 0 0 1-.36-.07 1.02 1.02 0 0 1-.5-.5.96.96 0 0 1 0-.73 1 1 0 0 1 .2-.3.93.93 0 0 1 .3-.2.9.9 0 0 1 .73 0 .91.91 0 0 1 .3.2.94.94 0 0 1 .3.67Zm1.22 7.95v-6.15h.9c.2 0 .32.09.38.27l.1.48a2.93 2.93 0 0 1 .84-.61 2.3 2.3 0 0 1 1.07-.24c.34 0 .63.06.9.18.25.1.47.27.64.48.18.2.3.45.4.73.09.29.13.6.13.95v3.91h-1.48V23c0-.38-.08-.67-.26-.87-.17-.21-.43-.32-.78-.32-.26 0-.5.06-.72.18a2.58 2.58 0 0 0-.64.47v4.45h-1.48Zm16.45-4.34c0 .64-.1 1.22-.32 1.76-.21.53-.5.99-.9 1.37a4 4 0 0 1-1.38.9 4.87 4.87 0 0 1-1.8.31h-3.3v-8.67h3.3a4.79 4.79 0 0 1 1.8.32 4 4 0 0 1 1.39.9c.38.37.68.83.9 1.36.2.53.31 1.12.31 1.75Zm-1.65 0c0-.47-.06-.9-.2-1.27a2.68 2.68 0 0 0-.54-.96 2.33 2.33 0 0 0-.86-.6 2.94 2.94 0 0 0-1.14-.22h-1.69v6.1h1.69c.42 0 .8-.06 1.14-.2.34-.14.63-.34.86-.6a2.75 2.75 0 0 0 .55-.96 4.01 4.01 0 0 0 .19-1.29Zm7.41 4.34h-.67a.75.75 0 0 1-.33-.06c-.07-.04-.13-.13-.17-.25l-.14-.44c-.15.14-.3.26-.46.37a2.8 2.8 0 0 1-.46.26c-.16.08-.33.13-.51.17a3.07 3.07 0 0 1-1.32-.05 1.62 1.62 0 0 1-.57-.32 1.45 1.45 0 0 1-.37-.52 1.85 1.85 0 0 1-.13-.73c0-.23.06-.46.18-.68.12-.23.33-.44.61-.62.29-.18.67-.33 1.14-.45a8.01 8.01 0 0 1 1.75-.2v-.36c0-.42-.08-.72-.26-.92-.17-.2-.42-.3-.76-.3a1.84 1.84 0 0 0-1.01.28l-.33.19a.66.66 0 0 1-.33.08.43.43 0 0 1-.26-.08.61.61 0 0 1-.17-.2l-.27-.46c.7-.65 1.56-.98 2.56-.98.36 0 .68.06.96.18a1.99 1.99 0 0 1 1.16 1.25c.1.29.16.6.16.96v3.88ZM37.1 26c.15 0 .3-.01.42-.04a1.81 1.81 0 0 0 .69-.33c.1-.09.22-.19.32-.3v-1.04c-.43.02-.79.06-1.08.12a2.8 2.8 0 0 0-.7.2.92.92 0 0 0-.37.3.66.66 0 0 0-.11.36c0 .26.07.45.22.56.16.11.36.17.61.17ZM43.22 27c-.53 0-.94-.15-1.23-.45-.29-.3-.43-.72-.43-1.25v-3.44h-.63a.31.31 0 0 1-.2-.08c-.06-.05-.09-.13-.09-.23v-.6l.99-.15.31-1.68a.3.3 0 0 1 .11-.2.36.36 0 0 1 .22-.06h.77v1.94h1.62v1.06h-1.62v3.33c0 .2.05.35.14.45a.49.49 0 0 0 .39.17.73.73 0 0 0 .39-.1l.12-.07a.2.2 0 0 1 .11-.04.16.16 0 0 1 .11.04c.03.02.06.05.09.1l.44.71c-.21.18-.46.32-.74.41a2.77 2.77 0 0 1-.87.14Zm7.2-.1h-.66a.75.75 0 0 1-.33-.06c-.08-.04-.14-.13-.18-.25l-.13-.44c-.16.14-.31.26-.47.37a2.8 2.8 0 0 1-.46.26c-.16.08-.33.13-.5.17a3.07 3.07 0 0 1-1.33-.05 1.62 1.62 0 0 1-.57-.32 1.45 1.45 0 0 1-.36-.52 1.85 1.85 0 0 1-.14-.73c0-.23.06-.46.18-.68.13-.23.33-.44.62-.62.28-.18.66-.33 1.13-.45a8.01 8.01 0 0 1 1.76-.2v-.36c0-.42-.1-.72-.27-.92-.17-.2-.42-.3-.75-.3a1.84 1.84 0 0 0-1.02.28l-.33.19a.66.66 0 0 1-.33.08.43.43 0 0 1-.25-.08.61.61 0 0 1-.18-.2l-.27-.46c.7-.65 1.56-.98 2.56-.98.36 0 .68.06.96.18a1.99 1.99 0 0 1 1.17 1.25c.1.29.15.6.15.96v3.88ZM47.54 26c.16 0 .3-.01.42-.04a1.88 1.88 0 0 0 .69-.33l.33-.3v-1.04c-.44.02-.8.06-1.09.12a2.8 2.8 0 0 0-.7.2.92.92 0 0 0-.37.3.66.66 0 0 0-.11.36c0 .26.08.45.23.56.15.11.36.17.6.17Z"/></svg></g><a id="title" href="https://ourworldindata.org/grapher/share-of-deaths-from-underlying-causes" rel="noopener" style="font-family:&quot;Playfair Display&quot;,Georgia,&quot;Times New Roman&quot;,&quot;Liberation Serif&quot;,serif" target="_blank"><text x="16" y="40" fill="#5b5b5b" font-size="24.75" font-weight="600"><tspan x="16" y="40.01">Share of deaths from underlying causes, United States</tspan></text></a><g id="subtitle" class="markdown-text-wrap"><text x="16" y="63.9" fill="#5b5b5b" style="font-size:14.625px;line-height:1.2"><tspan x="16" y="63.9">Share of reported deaths from major causes, based on the <tspan class="dod-span" data-id="underlying-cause-of-death">underlying cause</tspan> listed on death certificates.</tspan><tspan x="16" y="81.4">Comparisons may be affected by differences in measurement.</tspan></text></g></g><g id="chart-area" style="pointer-events:none"><g id="stacked-area-chart" class="StackedArea"><defs><clipPath id="boundsClip-5"><path d="M55.7 100.8h818v865.6h-818z"/></clipPath></defs><path fill="none" d="M16 100.8h818v432.8H16z"/><g id="dual-axis" class="DualAxisView"><g id="horizontal-axis" class="HorizontalAxis"><g id="tick__1950"><path stroke="#999" stroke-width="1" d="M55.7 512.6v5.5"/><text x="55.7" y="531.6" fill="#5b5b5b" font-size="13.5" text-anchor="start">1950</text></g><g id="tick__2021"><path stroke="#999" stroke-width="1" d="M697.3 512.6v5.5"/><text x="697.35" y="531.6" fill="#5b5b5b" font-size="13.5" text-anchor="end">2021</text></g><g id="tick__1960"><path stroke="#999" stroke-width="1" d="M146.1 512.6v5.5"/><text x="146.1" y="531.6" fill="#5b5b5b" font-size="13.5" text-anchor="middle">1960</text></g><g id="tick__1970"><path stroke="#999" stroke-width="1" d="M236.4 512.6v5.5"/><text x="236.4" y="531.6" fill="#5b5b5b" font-size="13.5" text-anchor="middle">1970</text></g><g id="tick__1980"><path stroke="#999" stroke-width="1" d="M326.8 512.6v5.5"/><text x="326.8" y="531.6" fill="#5b5b5b" font-size="13.5" text-anchor="middle">1980</text></g><g id="tick__1990"><path stroke="#999" stroke-width="1" d="M417.2 512.6v5.5"/><text x="417.2" y="531.6" fill="#5b5b5b" font-size="13.5" text-anchor="middle">1990</text></g><g id="tick__2000"><path stroke="#999" stroke-width="1" d="M507.6 512.6v5.5"/><text x="507.6" y="531.6" fill="#5b5b5b" font-size="13.5" text-anchor="middle">2000</text></g><g id="tick__2010"><path stroke="#999" stroke-width="1" d="M597.9 512.6v5.5"/><text x="597.9" y="531.6" fill="#5b5b5b" font-size="13.5" text-anchor="middle">2010</text></g></g><g id="vertical-axis" class="VerticalAxis"><g id="tick-labels"><text id="tick-label__0__0025" x="50.7" y="513.1" fill="#5b5b5b" dy=".32em" font-size="13.5" text-anchor="end">0%</text><text id="tick-label__20__0025" x="50.7" y="431.8" fill="#5b5b5b" dy=".32em" font-size="13.5" text-anchor="end">20%</text><text id="tick-label__40__0025" x="50.7" y="350.6" fill="#5b5b5b" dy=".32em" font-size="13.5" text-anchor="end">40%</text><text id="tick-label__60__0025" x="50.7" y="269.3" fill="#5b5b5b" dy=".32em" font-size="13.5" text-anchor="end">60%</text><text id="tick-label__80__0025" x="50.7" y="188.1" fill="#5b5b5b" dy=".32em" font-size="13.5" text-anchor="end">80%</text><text id="tick-label__100__0025" x="50.7" y="106.8" fill="#5b5b5b" dy=".32em" font-size="13.5" text-anchor="end">100%</text></g></g><g id="horizontal-grid-lines" class="AxisGridLines horizontalLines"><path id="grid-line__0" stroke="#999" stroke-width="1" d="M55.7 513.1h641.65"/><path id="grid-line__20" stroke="#ddd" stroke-dasharray="3,2" stroke-width="1" d="M55.7 431.8h641.65"/><path id="grid-line__40" stroke="#ddd" stroke-dasharray="3,2" stroke-width="1" d="M55.7 350.6h641.65"/><path id="grid-line__60" stroke="#ddd" stroke-dasharray="3,2" stroke-width="1" d="M55.7 269.3h641.65"/><path id="grid-line__80" stroke="#ddd" stroke-dasharray="3,2" stroke-width="1" d="M55.7 188.1h641.65"/><path id="grid-line__100" stroke="#ddd" stroke-dasharray="3,2" stroke-width="1" d="M55.7 106.8h641.65"/></g></g><g clip-path="url(#boundsClip-5)"><g id="line-labels" class="LineLabels"><g id="mark__Cancer-and-neoplasms" class="legendMark" style="cursor:default"><g id="connector" class="indicator"><path fill="none" stroke="#999" stroke-width=".5" d="M701.35 143.2h16.87v-28.9h10.13"/></g><text id="label" x="732.3" y="112.5" fill="#a2559c" font-size="13.5" font-weight="400"><tspan x="732.35" y="112.55">Cancer and</tspan><tspan x="732.35" y="126.05">neoplasms</tspan></text></g><g id="mark__Congenital-and-maternal-conditions" class="legendMark" style="cursor:default"><g class="indicator"><path fill="none" stroke="#999" stroke-width=".5" d="M701.35 181h20.25v-30.95h6.75"/></g><text x="732.3" y="141.5" fill="#af8454" font-size="13.5" font-weight="400"><tspan x="732.35" y="141.55">Congenital and</tspan><tspan x="732.35" y="155.05">maternal</tspan><tspan x="732.35" y="168.55">conditions</tspan></text></g><g id="mark__Endocrine-and-nutritional-disorders" class="legendMark" style="cursor:default"><g class="indicator"><path fill="none" stroke="#999" stroke-width=".5" d="M701.35 193.1h23.62v-.55h3.38"/></g><text x="732.3" y="184" fill="#00847e" font-size="13.5" font-weight="400"><tspan x="732.35" y="184.05">Endocrine and</tspan><tspan x="732.35" y="197.55">nutritional</tspan><tspan x="732.35" y="211.05">disorders</tspan></text></g><g id="mark__Other-diseases-and-conditions" class="legendMark" style="cursor:default"><g class="indicator"><path fill="none" stroke="#999" stroke-width=".5" d="M701.35 205.2h23.62v23.1h3.38"/></g><text x="732.3" y="226.5" fill="#00295b" font-size="13.5" font-weight="400"><tspan x="732.35" y="226.55">Other diseases</tspan><tspan x="732.35" y="240.05">and conditions</tspan></text></g><g id="mark__Infectious-diseases" class="legendMark" style="cursor:default"><g class="indicator"><path fill="none" stroke="#999" stroke-width=".5" d="M701.35 237.6h20.25v19.7h6.75"/></g><text x="732.3" y="255.5" fill="#d73c50" font-size="13.5" font-weight="400"><tspan x="732.35" y="255.55">Infectious</tspan><tspan x="732.35" y="269.05">diseases</tspan></text></g><g id="mark__Unidentified-causes" class="legendMark" style="cursor:default"><g class="indicator"><path fill="none" stroke="#999" stroke-width=".5" d="M701.35 273.2h16.87v13.1h10.13"/></g><text x="732.3" y="284.5" fill="#970046" font-size="13.5" font-weight="400"><tspan x="732.35" y="284.55">Unidentified</tspan><tspan x="732.35" y="298.05">causes</tspan></text></g><g id="mark__Respiratory-diseases" class="legendMark" style="cursor:default"><g class="indicator"><path fill="none" stroke="#999" stroke-width=".5" d="M701.35 290.1h13.5v25.2h13.5"/></g><text x="732.3" y="313.5" fill="#b16214" font-size="13.5" font-weight="400"><tspan x="732.35" y="313.55">Respiratory</tspan><tspan x="732.35" y="327.05">diseases</tspan></text></g><g id="mark__Neurological-and-mental-health" class="legendMark" style="cursor:default"><g class="indicator"><path fill="none" stroke="#999" stroke-width=".5" d="M701.35 330.9h10.12v13.4h16.88"/></g><text x="732.3" y="342.5" fill="#b13507" font-size="13.5" font-weight="400"><tspan x="732.35" y="342.55">Neurological and</tspan><tspan x="732.35" y="356.05">mental health</tspan></text></g><g id="mark__Ill-defined-causes-and-injuries" class="legendMark" style="cursor:default"><g class="indicator"><path fill="none" stroke="#999" stroke-width=".5" d="M701.35 373.8h6.75v6.25h20.25"/></g><text x="732.3" y="371.5" fill="#578145" font-size="13.5" font-weight="400"><tspan x="732.35" y="371.55">Ill-defined</tspan><tspan x="732.35" y="385.05">causes and</tspan><tspan x="732.35" y="398.55">injuries</tspan></text></g><g id="mark__Digestive-and-oral-health" class="legendMark" style="cursor:default"><g class="indicator"><path fill="none" stroke="#999" stroke-width=".5" d="M701.35 396h3.37v19.8h23.63"/></g><text x="732.3" y="414" fill="#883039" font-size="13.5" font-weight="400"><tspan x="732.35" y="414.05">Digestive and</tspan><tspan x="732.35" y="427.55">oral health</tspan></text></g><g id="mark__Cardiovascular-diseases" class="legendMark" style="cursor:default"><g class="indicator"><path fill="none" stroke="#999" stroke-width=".5" d="M701.35 458.5h27"/></g><text x="732.3" y="456.7" fill="#4c6a9c" font-size="13.5" font-weight="400"><tspan x="732.35" y="456.75">Cardiovascular</tspan><tspan x="732.35" y="470.25">diseases</tspan></text></g></g><g id="stacked-areas" class="Areas"><path id="area__Cardiovascular-diseases" fill="#4C6A9C" fill-opacity=".8" stroke-linecap="round" d="m55.7 304.7 9-1.1 9.1-1.2 9-2.4 9-1.2 9.1-2.5 9-1.1 9.1-.2 9-2.2h9l9.1 1.1 9-1.6 9-.6 9.1 1.1 9 .4 9.1-.2 9-.3 9 .5 9.1.9 9 1.4 9 .9 9.1-1.2 9 .1 9.1.5 9 1.3 9 3.9 9.1 1.1 9 1.7 9 2.3 9.1 2.6 9 1.6 9.1 2 9 .7 9 1.7 9.1 3.5 9 3.5 9 3.6 9.1 2.5 9 2.8 9.1 5.6 9 2.9 9 1.6 9.1 1 9 .9 9 2.1 9.1.5 9 .4 9 1 9.1 2.2 9 2.2 9.1 2.9 9 3.3 9 2.4 9.1 3 9 3.8 9 3.8 9.1 4.3 9 2.8 9.1 2.9 9 2.1 9 1.7 9.1 2.6 9 .7 9 .5 9.1.3 9-.3 9.1.8 9 .4 9-.2 9.1 2 9 12.7 9 .3v109.3H55.7" class="Cardiovascular-diseases-area"/><path id="area__Digestive-and-oral-health" fill="#883039" fill-opacity=".8" stroke-linecap="round" d="m55.7 291.4 9-1.1 9.1-1.4 9-2.4 9-1.4 9.1-2.6 9-1.1 9.1-.2 9-2.2 9-.1 9.1 1 9-1.9 9-.8 9.1 1.2 9 .5 9.1-.2 9-.6 9 .3 9.1.2 9 1.3 9 .8 9.1-1.2 9 .3 9.1.5 9 1.4 9 4.2 9.1 1.4 9 1.8 9 2.7 9.1 1.5 9 1.6 9.1 2.1 9 1.1 9 2 9.1 3.4 9 3.7 9 3.8 9.1 2.4 9 2.9 9.1 5.5 9 3.1 9 1.7 9.1.9 9 1.3 9 2.1 9.1.8 9 .3 9 .7 9.1 2.3 9 1.9 9.1 2.8 9 3.1 9 2.3 9.1 2.9 9 3.7 9 4 9.1 4.1 9 2.5 9.1 2.9 9 2.2 9 1.6 9.1 2.4 9 .7 9 .3 9.1.1 9-.4 9.1.9 9 .5 9-.4 9.1 1.6 9 13.9 9-.5v15.7l-9-.3-9-12.7-9.1-2-9 .2-9-.4-9.1-.8-9 .3-9.1-.3-9-.5-9-.7-9.1-2.6-9-1.7-9-2.1-9.1-2.9-9-2.8-9.1-4.3-9-3.8-9-3.8-9.1-3-9-2.4-9-3.3-9.1-2.9-9-2.2-9.1-2.2-9-1-9-.4-9.1-.5-9-2.1-9-.9-9.1-1-9-1.6-9-2.9-9.1-5.6-9-2.8-9.1-2.5-9-3.6-9-3.5-9.1-3.5-9-1.7-9-.7-9.1-2-9-1.6-9.1-2.6-9-2.3-9-1.7-9.1-1.1-9-3.9-9-1.3-9.1-.5-9-.1-9.1 1.2-9-.9-9-1.4-9.1-.9-9-.5-9 .3-9.1.2-9-.4-9.1-1.1-9 .6-9 1.6-9.1-1.1h-9l-9 2.2-9.1.2-9 1.1-9.1 2.5-9 1.2-9 2.4-9.1 1.2-9 1.1" class="Digestive-and-oral-health-area"/><path id="area__Ill-defined-causes-and-injuries" fill="#578145" fill-opacity=".8" stroke-linecap="round" d="m55.7 252.6 9-1.2 9.1-.9 9-1.6 9-.7 9.1-2.2 9-.4 9.1 1 9-1.3 9-.2 9.1 1.2 9-1.5 9-1.4 9.1.7 9-1.3 9.1-.5 9-1.3 9-.3 9.1.2 9-.3 9 .7 9.1-1.4h9l9.1-.1 9 2.4 9 3.3 9.1 3 9 .3 9 3.2 9.1 2.9 9 2.5 9.1 2.7 9 2.5 9 3.6 9.1 3.5 9 4.1 9 3 9.1 2.9 9 3.2 9.1 6.4 9 3.6 9 2.2 9.1 1.7 9 1 9 2.4 9.1.8 9 .5 9 .9 9.1 2.5 9 4.1 9.1 2.2 9 1.8 9 3 9.1 2.5 9 3.1 9 3.6 9.1 3.7 9 2 9.1 3.1 9 2.2 9 1.8 9.1 2.1 9 .3 9 1.6 9.1.8 9-.8 9.1-.2 9 .6 9-.2 9.1-.7 9 17.5 9 .4v28.7l-9 .5-9-13.9-9.1-1.6-9 .4-9-.5-9.1-.9-9 .4-9.1-.1-9-.3-9-.7-9.1-2.4-9-1.6-9-2.2-9.1-2.9-9-2.5-9.1-4.1-9-4-9-3.7-9.1-2.9-9-2.3-9-3.1-9.1-2.8-9-1.9-9.1-2.3-9-.7-9-.3-9.1-.8-9-2.1-9-1.3-9.1-.9-9-1.7-9-3.1-9.1-5.5-9-2.9-9.1-2.4-9-3.8-9-3.7-9.1-3.4-9-2-9-1.1-9.1-2.1-9-1.6-9.1-1.5-9-2.7-9-1.8-9.1-1.4-9-4.2-9-1.4-9.1-.5-9-.3-9.1 1.2-9-.8-9-1.3-9.1-.2-9-.3-9 .6-9.1.2-9-.5-9.1-1.2-9 .8-9 1.9-9.1-1-9 .1-9 2.2-9.1.2-9 1.1-9.1 2.6-9 1.4-9 2.4-9.1 1.4-9 1.1" class="Ill-defined-causes-and-injuries-area"/><path id="area__Neurological-and-mental-health" fill="#B13507" fill-opacity=".8" stroke-linecap="round" d="m55.7 248.1 9-1.1 9.1-.9 9-1.3 9-.6 9.1-2.1 9-.3 9.1 1.1 9-1.6 9-.2 9.1 1.3 9-1.4 9-1.4 9.1.8 9-1.3 9.1-.6 9-1.5 9-.3 9.1-.2 9-.4 9 .5 9.1-1.4 9-.2 9.1-.2 9 2.1 9 3.4 9.1 2.9 9 .1 9 3 9.1 1.8 9 2.3 9.1 2.4 9 2.4 9 2.8 9.1 3.1 9 3.3 9 2.5 9.1 2.1 9 2.7 9.1 5.8 9 3.3 9 1.9 9.1 1.3 9-.1 9 1.3 9.1-.2 9-.5 9-.1 9.1 1.4 9 .1 9.1.3h9l9 .8 9.1.5 9 1.5 9 .8 9.1-1.1 9 1.1 9.1-.2 9 1.6 9-1.4 9.1-.5 9-1.3 9 .1 9.1-.4 9-1.4 9.1-2.3 9-1.5 9-.4 9.1-1.9 9 19.3 9 2.8v57.1l-9-.4-9-17.5-9.1.7-9 .2-9-.6-9.1.2-9 .8-9.1-.8-9-1.6-9-.3-9.1-2.1-9-1.8-9-2.2-9.1-3.1-9-2-9.1-3.7-9-3.6-9-3.1-9.1-2.5-9-3-9-1.8-9.1-2.2-9-4.1-9.1-2.5-9-.9-9-.5-9.1-.8-9-2.4-9-1-9.1-1.7-9-2.2-9-3.6-9.1-6.4-9-3.2-9.1-2.9-9-3-9-4.1-9.1-3.5-9-3.6-9-2.5-9.1-2.7-9-2.5-9.1-2.9-9-3.2-9-.3-9.1-3-9-3.3-9-2.4-9.1.1h-9l-9.1 1.4-9-.7-9 .3-9.1-.2-9 .3-9 1.3-9.1.5-9 1.3-9.1-.7-9 1.4-9 1.5-9.1-1.2-9 .2-9 1.3-9.1-1-9 .4-9.1 2.2-9 .7-9 1.6-9.1.9-9 1.2" class="Neurological-and-mental-health-area"/><path id="area__Respiratory-diseases" fill="#B16214" fill-opacity=".8" stroke-linecap="round" d="m55.7 244.9 9-1.3 9.1-1.1 9-1.6 9-.8 9.1-2.4 9-.6 9.1.6 9-1.8 9-.3 9.1.8 9-1.5 9-1.8h9.1l9-1.4 9.1-1.2 9-1.9 9-.5 9.1-1.7 9-.1 9 .1 9.1-1.6 9-.5 9.1-.5 9 1.9 9 2.7 9.1 2.5 9-.1 9 2.3 9.1 1.1 9 1.3 9.1 1.6 9 2 9 1.6 9.1 2.5 9 2.2 9 2.2 9.1 1.7 9 2.1 9.1 5.4 9 2.8 9 1.2 9.1 1.2 9-1 9 1.2 9.1-.3 9-1.2 9-1 9.1.6 9-2.5 9.1.5 9-.2 9 .9 9.1.2 9 1.5 9-.1 9.1-.4 9 .4 9.1-2 9 1.8 9-1.3 9.1-1.2 9-1.1 9-.6 9.1.1 9-2 9.1-2 9-1.9 9-.2 9.1-1.4 9 24.7 9 4.3v24.5l-9-2.8-9-19.3-9.1 1.9-9 .4-9 1.5-9.1 2.3-9 1.4-9.1.4-9-.1-9 1.3-9.1.5-9 1.4-9-1.6-9.1.2-9-1.1-9.1 1.1-9-.8-9-1.5-9.1-.5-9-.8h-9l-9.1-.3-9-.1-9.1-1.4-9 .1-9 .5-9.1.2-9-1.3-9 .1-9.1-1.3-9-1.9-9-3.3-9.1-5.8-9-2.7-9.1-2.1-9-2.5-9-3.3-9.1-3.1-9-2.8-9-2.4-9.1-2.4-9-2.3-9.1-1.8-9-3-9-.1-9.1-2.9-9-3.4-9-2.1-9.1.2-9 .2-9.1 1.4-9-.5-9 .4-9.1.2-9 .3-9 1.5-9.1.6-9 1.3-9.1-.8-9 1.4-9 1.4-9.1-1.3-9 .2-9 1.6-9.1-1.1-9 .3-9.1 2.1-9 .6-9 1.3-9.1.9-9 1.1" class="Respiratory-diseases-area"/><path id="area__Unidentified-causes" fill="#970046" fill-opacity=".8" stroke-linecap="round" d="m55.7 233.2 9-.5 9.1-.5 9-.9 9-.5 9.1-2 9-.3 9.1.9 9-1.4 9 .2 9.1 1 9-1.5 9-1.8 9.1.3 9-1.6 9.1-.9 9-1.5 9-.4 9.1-1.6 9-.1 9 .4 9.1-1.5 9-.5 9.1-.2 9 1.9 9 2.8 9.1 2.4 9-.2 9 2.3 9.1.9 9 1.1 9.1 1.5 9 1.8 9 1.4 9.1 2 9 2 9 1.9 9.1 1.6 9 2.1 9.1 5.6 9 3 9 1 9.1 1.1 9-1.1 9 1.2 9.1-.3 9-1.4 9-1.4 9.1.4 9-3.1 9.1.3 9-.6 9 .8h9.1l9 1.2 9-.3 9.1-.6 9 .2 9.1-1.5 9 1.5 9-1.5 9.1-.4 9-1 9-.7 9.1-.1 9-2.2 9.1-2 9-1.8 9-.2 9.1-1.5 9 25.9 9 4.3v9.2l-9-4.3-9-24.7-9.1 1.4-9 .2-9 1.9-9.1 2-9 2-9.1-.1-9 .6-9 1.1-9.1 1.2-9 1.3-9-1.8-9.1 2-9-.4-9.1.4-9 .1-9-1.5-9.1-.2-9-.9-9 .2-9.1-.5-9 2.5-9.1-.6-9 1-9 1.2-9.1.3-9-1.2-9 1-9.1-1.2-9-1.2-9-2.8-9.1-5.4-9-2.1-9.1-1.7-9-2.2-9-2.2-9.1-2.5-9-1.6-9-2-9.1-1.6-9-1.3-9.1-1.1-9-2.3-9 .1-9.1-2.5-9-2.7-9-1.9-9.1.5-9 .5-9.1 1.6-9-.1-9 .1-9.1 1.7-9 .5-9 1.9-9.1 1.2-9 1.4h-9.1l-9 1.8-9 1.5-9.1-.8-9 .3-9 1.8-9.1-.6-9 .6-9.1 2.4-9 .8-9 1.6-9.1 1.1-9 1.3" class="Unidentified-causes-area"/><path id="area__Infectious-diseases" fill="#D73C50" fill-opacity=".8" stroke-linecap="round" d="m55.7 202.3 9 1 9.1 1.5h9l9 3.3 9.1-1.3 9-.2 9.1-1.5 9-.1 9 1.2 9.1-.9 9 1.6 9-2.2 9.1-1.6 9 1.2 9.1-.9 9-1.3 9 1.3 9.1-3.3 9 1.2 9 1.6 9.1-.1 9-1.1 9.1-.2 9 3.3 9 2.2 9.1 1.1 9 2 9 .7 9.1 4.2 9-.7 9.1 1.3 9 2.7 9-.2 9.1 1.1h9l9 .9 9.1-.3h9l9.1 4.7 9 1.9 9 .8 9.1.8 9-2.3 9 .7 9.1-.5 9 .4 9 .6 9.1-.1 9 .6 9.1.3 9-.1 9-.1 9.1-.1 9 1.8 9-.8 9.1.3 9 .8 9.1-2 9 1.5 9-.4 9.1-.7 9-.3 9-1.6 9.1.4 9-2.1 9.1-.7 9-1.8 9-.4 9.1.5 9-14.6 9-.8v62.1l-9-4.3-9-25.9-9.1 1.5-9 .2-9 1.8-9.1 2-9 2.2-9.1.1-9 .7-9 1-9.1.4-9 1.5-9-1.5-9.1 1.5-9-.2-9.1.6-9 .3-9-1.2h-9.1l-9-.8-9 .6-9.1-.3-9 3.1-9.1-.4-9 1.4-9 1.4-9.1.3-9-1.2-9 1.1-9.1-1.1-9-1-9-3-9.1-5.6-9-2.1-9.1-1.6-9-1.9-9-2-9.1-2-9-1.4-9-1.8-9.1-1.5-9-1.1-9.1-.9-9-2.3-9 .2-9.1-2.4-9-2.8-9-1.9-9.1.2-9 .5-9.1 1.5-9-.4-9 .1-9.1 1.6-9 .4-9 1.5-9.1.9-9 1.6-9.1-.3-9 1.8-9 1.5-9.1-1-9-.2-9 1.4-9.1-.9-9 .3-9.1 2-9 .5-9 .9-9.1.5-9 .5" class="Infectious-diseases-area"/><path id="area__Other-diseases-and-conditions" fill="#00295B" fill-opacity=".8" stroke-linecap="round" d="m55.7 201.1 9 .9 9.1 1.6h9l9 3.3 9.1-1.3 9-.1 9.1-1.6 9-.2 9 1.1 9.1-.8 9 1.5 9-2.2 9.1-1.5 9 1.1 9.1-.9 9-1.3 9 1.3 9.1-3.3 9 1.2 9 1.6 9.1-.1 9-1.1 9.1-.2 9 3.2 9 2.2 9.1 1 9 1.9 9 .7 9.1 4.2 9-.7 9.1 1.3 9 2.5 9-.2 9.1 1h9l9 1 9.1-.4h9l9.1 4.6 9 1.9 9 .8 9.1.9 9-2.4 9 .6 9.1-.5 9 .4 9 .5 9.1-.2 9 .1 9.1.3 9-.2 9-.2 9.1-.1 9 1.7 9-.8 9.1.5 9 .8 9.1-1.9 9 1.5 9-.3 9.1-.8 9-.3 9-1.5 9.1.4 9-2.1 9.1-.7 9-1.8 9-.3 9.1.3 9-14.2 9-.9v2.6l-9 .8-9 14.6-9.1-.5-9 .4-9 1.8-9.1.7-9 2.1-9.1-.4-9 1.6-9 .3-9.1.7-9 .4-9-1.5-9.1 2-9-.8-9.1-.3-9 .8-9-1.8-9.1.1-9 .1-9 .1-9.1-.3-9-.6-9.1.1-9-.6-9-.4-9.1.5-9-.7-9 2.3-9.1-.8-9-.8-9-1.9-9.1-4.7h-9l-9.1.3-9-.9h-9l-9.1-1.1-9 .2-9-2.7-9.1-1.3-9 .7-9.1-4.2-9-.7-9-2-9.1-1.1-9-2.2-9-3.3-9.1.2-9 1.1-9.1.1-9-1.6-9-1.2-9.1 3.3-9-1.3-9 1.3-9.1.9-9-1.2-9.1 1.6-9 2.2-9-1.6-9.1.9-9-1.2-9 .1-9.1 1.5-9 .2-9.1 1.3-9-3.3h-9l-9.1-1.5-9-1" class="Other-diseases-and-conditions-area"/><path id="area__Endocrine-and-nutritional-disorders" fill="#00847E" fill-opacity=".8" stroke-linecap="round" d="m55.7 190.3 9 .2 9.1 1.7 9 .3 9 3.6 9.1-1 9-.1 9.1-1.5 9-.1 9 .8 9.1-1.2 9 1.5 9-2.1 9.1-1.5 9 1 9.1-.9 9-1.4 9 1.2 9.1-3 9 1.2 9 1.6h9.1l9-1.1 9.1-.1 9 3.2 9 2.4 9.1 1.2 9 2.2 9 .6 9.1 3.7 9-.9 9.1 1.4 9 2.4 9-.7 9.1 1 9-.6 9 .4 9.1.5 9-.3 9.1 3 9 1.6 9 .6 9.1.5 9-2.7h9l9.1-1 9-.1h9l9.1-.5 9-.1h9.1l9-.5 9-.4 9.1-.3 9 1.6 9-1.1 9.1 1.1 9 .7 9.1-1.7 9 1.6 9-.3 9.1-1.6 9-.1 9-1.7 9.1.1 9-2.4 9.1-.9 9-2.3 9-.9 9.1-.5 9-13.9 9-1.4v21.6l-9 .9-9 14.2-9.1-.3-9 .3-9 1.8-9.1.7-9 2.1-9.1-.4-9 1.5-9 .3-9.1.8-9 .3-9-1.5-9.1 1.9-9-.8-9.1-.5-9 .8-9-1.7-9.1.1-9 .2-9 .2-9.1-.3-9-.1-9.1.2-9-.5-9-.4-9.1.5-9-.6-9 2.4-9.1-.9-9-.8-9-1.9-9.1-4.6h-9l-9.1.4-9-1h-9l-9.1-1-9 .2-9-2.5-9.1-1.3-9 .7-9.1-4.2-9-.7-9-1.9-9.1-1-9-2.2-9-3.2-9.1.2-9 1.1-9.1.1-9-1.6-9-1.2-9.1 3.3-9-1.3-9 1.3-9.1.9-9-1.1-9.1 1.5-9 2.2-9-1.5-9.1.8-9-1.1-9 .2-9.1 1.6-9 .1-9.1 1.3-9-3.3h-9l-9.1-1.6-9-.9" class="Endocrine-and-nutritional-disorders-area"/><path id="area__Congenital-and-maternal-conditions" fill="#BC8E5A" fill-opacity=".8" stroke-linecap="round" d="M55.7 167.3h9l9.1 1.5 9 .7 9 3.1 9.1-.5 9 .2 9.1-1.3 9-.2 9 1 9.1-.3 9 1.7 9-.9 9.1-.5 9 1.5 9.1.8h9l9 2 9.1-1.2 9 1.2 9 1.7 9.1 1.2 9 .3 9.1.8 9 3.5 9 2.8 9.1 1.7 9 2.5 9 .9 9.1 2.2 9-.6 9.1 1.7 9 2.6 9-.2 9.1 1.2 9-.4 9 .7 9.1.6 9-.3 9.1 2.8 9 1.8 9 .9 9.1.8 9-2.3 9 .4 9.1-.6h9l9 .1 9.1-.6 9 .2 9.1.1 9-.4 9-.5 9.1-.2 9 1.5 9-1.1 9.1 1 9 .6 9.1-1.4 9 1.7 9 .1 9.1-1.5 9-.1 9-1.6 9.1.1 9-2.3 9.1-.8 9-2.1 9-.8 9.1-.4 9-13.3 9-1.4v2.6l-9 1.4-9 13.9-9.1.5-9 .9-9 2.3-9.1.9-9 2.4-9.1-.1-9 1.7-9 .1-9.1 1.6-9 .3-9-1.6-9.1 1.7-9-.7-9.1-1.1-9 1.1-9-1.6-9.1.3-9 .4-9 .5h-9.1l-9 .1-9.1.5h-9l-9 .1-9.1 1h-9l-9 2.7-9.1-.5-9-.6-9-1.6-9.1-3-9 .3-9.1-.5-9-.4-9 .6-9.1-1-9 .7-9-2.4-9.1-1.4-9 .9-9.1-3.7-9-.6-9-2.2-9.1-1.2-9-2.4-9-3.2-9.1.1-9 1.1h-9.1l-9-1.6-9-1.2-9.1 3-9-1.2-9 1.4-9.1.9-9-1-9.1 1.5-9 2.1-9-1.5-9.1 1.2-9-.8-9 .1-9.1 1.5-9 .1-9.1 1-9-3.6-9-.3-9.1-1.7-9-.2" class="Congenital-and-maternal-conditions-area"/><path id="area__Cancer-and-neoplasms" fill="#A2559C" fill-opacity=".8" stroke-linecap="round" d="M55.7 106.8H697.3v72.9l-9 1.4-9 13.3-9.1.4-9 .8-9 2.1-9.1.8-9 2.3-9.1-.1-9 1.6-9 .1-9.1 1.5-9-.1-9-1.7-9.1 1.4-9-.6-9.1-1-9 1.1-9-1.5-9.1.2-9 .5-9 .4-9.1-.1-9-.2-9.1.6-9-.1h-9l-9.1.6-9-.4-9 2.3-9.1-.8-9-.9-9-1.8-9.1-2.8-9 .3-9.1-.6-9-.7-9 .4-9.1-1.2-9 .2-9-2.6-9.1-1.7-9 .6-9.1-2.2-9-.9-9-2.5-9.1-1.7-9-2.8-9-3.5-9.1-.8-9-.3-9.1-1.2-9-1.7-9-1.2-9.1 1.2-9-2h-9l-9.1-.8-9-1.5-9.1.5-9 .9-9-1.7-9.1.3-9-1-9 .2-9.1 1.3-9-.2-9.1.5-9-3.1-9-.7-9.1-1.5h-9" class="Cancer-and-neoplasms-area"/><path id="border__Cardiovascular-diseases" fill="none" stroke="#405983" stroke-linecap="round" stroke-opacity=".7" stroke-width=".5" d="m55.7 304.7 9-1.1 9.1-1.2 9-2.4 9-1.2 9.1-2.5 9-1.1 9.1-.2 9-2.2h9l9.1 1.1 9-1.6 9-.6 9.1 1.1 9 .4 9.1-.2 9-.3 9 .5 9.1.9 9 1.4 9 .9 9.1-1.2 9 .1 9.1.5 9 1.3 9 3.9 9.1 1.1 9 1.7 9 2.3 9.1 2.6 9 1.6 9.1 2 9 .7 9 1.7 9.1 3.5 9 3.5 9 3.6 9.1 2.5 9 2.8 9.1 5.6 9 2.9 9 1.6 9.1 1 9 .9 9 2.1 9.1.5 9 .4 9 1 9.1 2.2 9 2.2 9.1 2.9 9 3.3 9 2.4 9.1 3 9 3.8 9 3.8 9.1 4.3 9 2.8 9.1 2.9 9 2.1 9 1.7 9.1 2.6 9 .7 9 .5 9.1.3 9-.3 9.1.8 9 .4 9-.2 9.1 2 9 12.7 9 .3" class="Cardiovascular-diseases-border"/><path id="border__Digestive-and-oral-health" fill="none" stroke="#722830" stroke-linecap="round" stroke-opacity=".7" stroke-width=".5" d="m55.7 291.4 9-1.1 9.1-1.4 9-2.4 9-1.4 9.1-2.6 9-1.1 9.1-.2 9-2.2 9-.1 9.1 1 9-1.9 9-.8 9.1 1.2 9 .5 9.1-.2 9-.6 9 .3 9.1.2 9 1.3 9 .8 9.1-1.2 9 .3 9.1.5 9 1.4 9 4.2 9.1 1.4 9 1.8 9 2.7 9.1 1.5 9 1.6 9.1 2.1 9 1.1 9 2 9.1 3.4 9 3.7 9 3.8 9.1 2.4 9 2.9 9.1 5.5 9 3.1 9 1.7 9.1.9 9 1.3 9 2.1 9.1.8 9 .3 9 .7 9.1 2.3 9 1.9 9.1 2.8 9 3.1 9 2.3 9.1 2.9 9 3.7 9 4 9.1 4.1 9 2.5 9.1 2.9 9 2.2 9 1.6 9.1 2.4 9 .7 9 .3 9.1.1 9-.4 9.1.9 9 .5 9-.4 9.1 1.6 9 13.9 9-.5" class="Digestive-and-oral-health-border"/><path id="border__Ill-defined-causes-and-injuries" fill="none" stroke="#496C3A" stroke-linecap="round" stroke-opacity=".7" stroke-width=".5" d="m55.7 252.6 9-1.2 9.1-.9 9-1.6 9-.7 9.1-2.2 9-.4 9.1 1 9-1.3 9-.2 9.1 1.2 9-1.5 9-1.4 9.1.7 9-1.3 9.1-.5 9-1.3 9-.3 9.1.2 9-.3 9 .7 9.1-1.4h9l9.1-.1 9 2.4 9 3.3 9.1 3 9 .3 9 3.2 9.1 2.9 9 2.5 9.1 2.7 9 2.5 9 3.6 9.1 3.5 9 4.1 9 3 9.1 2.9 9 3.2 9.1 6.4 9 3.6 9 2.2 9.1 1.7 9 1 9 2.4 9.1.8 9 .5 9 .9 9.1 2.5 9 4.1 9.1 2.2 9 1.8 9 3 9.1 2.5 9 3.1 9 3.6 9.1 3.7 9 2 9.1 3.1 9 2.2 9 1.8 9.1 2.1 9 .3 9 1.6 9.1.8 9-.8 9.1-.2 9 .6 9-.2 9.1-.7 9 17.5 9 .4" class="Ill-defined-causes-and-injuries-border"/><path id="border__Neurological-and-mental-health" fill="none" stroke="#942C06" stroke-linecap="round" stroke-opacity=".7" stroke-width=".5" d="m55.7 248.1 9-1.1 9.1-.9 9-1.3 9-.6 9.1-2.1 9-.3 9.1 1.1 9-1.6 9-.2 9.1 1.3 9-1.4 9-1.4 9.1.8 9-1.3 9.1-.6 9-1.5 9-.3 9.1-.2 9-.4 9 .5 9.1-1.4 9-.2 9.1-.2 9 2.1 9 3.4 9.1 2.9 9 .1 9 3 9.1 1.8 9 2.3 9.1 2.4 9 2.4 9 2.8 9.1 3.1 9 3.3 9 2.5 9.1 2.1 9 2.7 9.1 5.8 9 3.3 9 1.9 9.1 1.3 9-.1 9 1.3 9.1-.2 9-.5 9-.1 9.1 1.4 9 .1 9.1.3h9l9 .8 9.1.5 9 1.5 9 .8 9.1-1.1 9 1.1 9.1-.2 9 1.6 9-1.4 9.1-.5 9-1.3 9 .1 9.1-.4 9-1.4 9.1-2.3 9-1.5 9-.4 9.1-1.9 9 19.3 9 2.8" class="Neurological-and-mental-health-border"/><path id="border__Respiratory-diseases" fill="none" stroke="#945211" stroke-linecap="round" stroke-opacity=".7" stroke-width=".5" d="m55.7 244.9 9-1.3 9.1-1.1 9-1.6 9-.8 9.1-2.4 9-.6 9.1.6 9-1.8 9-.3 9.1.8 9-1.5 9-1.8h9.1l9-1.4 9.1-1.2 9-1.9 9-.5 9.1-1.7 9-.1 9 .1 9.1-1.6 9-.5 9.1-.5 9 1.9 9 2.7 9.1 2.5 9-.1 9 2.3 9.1 1.1 9 1.3 9.1 1.6 9 2 9 1.6 9.1 2.5 9 2.2 9 2.2 9.1 1.7 9 2.1 9.1 5.4 9 2.8 9 1.2 9.1 1.2 9-1 9 1.2 9.1-.3 9-1.2 9-1 9.1.6 9-2.5 9.1.5 9-.2 9 .9 9.1.2 9 1.5 9-.1 9.1-.4 9 .4 9.1-2 9 1.8 9-1.3 9.1-1.2 9-1.1 9-.6 9.1.1 9-2 9.1-2 9-1.9 9-.2 9.1-1.4 9 24.7 9 4.3" class="Respiratory-diseases-border"/><path id="border__Unidentified-causes" fill="none" stroke="#7E003B" stroke-linecap="round" stroke-opacity=".7" stroke-width=".5" d="m55.7 233.2 9-.5 9.1-.5 9-.9 9-.5 9.1-2 9-.3 9.1.9 9-1.4 9 .2 9.1 1 9-1.5 9-1.8 9.1.3 9-1.6 9.1-.9 9-1.5 9-.4 9.1-1.6 9-.1 9 .4 9.1-1.5 9-.5 9.1-.2 9 1.9 9 2.8 9.1 2.4 9-.2 9 2.3 9.1.9 9 1.1 9.1 1.5 9 1.8 9 1.4 9.1 2 9 2 9 1.9 9.1 1.6 9 2.1 9.1 5.6 9 3 9 1 9.1 1.1 9-1.1 9 1.2 9.1-.3 9-1.4 9-1.4 9.1.4 9-3.1 9.1.3 9-.6 9 .8h9.1l9 1.2 9-.3 9.1-.6 9 .2 9.1-1.5 9 1.5 9-1.5 9.1-.4 9-1 9-.7 9.1-.1 9-2.2 9.1-2 9-1.8 9-.2 9.1-1.5 9 25.9 9 4.3" class="Unidentified-causes-border"/><path id="border__Infectious-diseases" fill="none" stroke="#B43243" stroke-linecap="round" stroke-opacity=".7" stroke-width=".5" d="m55.7 202.3 9 1 9.1 1.5h9l9 3.3 9.1-1.3 9-.2 9.1-1.5 9-.1 9 1.2 9.1-.9 9 1.6 9-2.2 9.1-1.6 9 1.2 9.1-.9 9-1.3 9 1.3 9.1-3.3 9 1.2 9 1.6 9.1-.1 9-1.1 9.1-.2 9 3.3 9 2.2 9.1 1.1 9 2 9 .7 9.1 4.2 9-.7 9.1 1.3 9 2.7 9-.2 9.1 1.1h9l9 .9 9.1-.3h9l9.1 4.7 9 1.9 9 .8 9.1.8 9-2.3 9 .7 9.1-.5 9 .4 9 .6 9.1-.1 9 .6 9.1.3 9-.1 9-.1 9.1-.1 9 1.8 9-.8 9.1.3 9 .8 9.1-2 9 1.5 9-.4 9.1-.7 9-.3 9-1.6 9.1.4 9-2.1 9.1-.7 9-1.8 9-.4 9.1.5 9-14.6 9-.8" class="Infectious-diseases-border"/><path id="border__Other-diseases-and-conditions" fill="none" stroke="#00224C" stroke-linecap="round" stroke-opacity=".7" stroke-width=".5" d="m55.7 201.1 9 .9 9.1 1.6h9l9 3.3 9.1-1.3 9-.1 9.1-1.6 9-.2 9 1.1 9.1-.8 9 1.5 9-2.2 9.1-1.5 9 1.1 9.1-.9 9-1.3 9 1.3 9.1-3.3 9 1.2 9 1.6 9.1-.1 9-1.1 9.1-.2 9 3.2 9 2.2 9.1 1 9 1.9 9 .7 9.1 4.2 9-.7 9.1 1.3 9 2.5 9-.2 9.1 1h9l9 1 9.1-.4h9l9.1 4.6 9 1.9 9 .8 9.1.9 9-2.4 9 .6 9.1-.5 9 .4 9 .5 9.1-.2 9 .1 9.1.3 9-.2 9-.2 9.1-.1 9 1.7 9-.8 9.1.5 9 .8 9.1-1.9 9 1.5 9-.3 9.1-.8 9-.3 9-1.5 9.1.4 9-2.1 9.1-.7 9-1.8 9-.3 9.1.3 9-14.2 9-.9" class="Other-diseases-and-conditions-border"/><path id="border__Endocrine-and-nutritional-disorders" fill="none" stroke="#006E69" stroke-linecap="round" stroke-opacity=".7" stroke-width=".5" d="m55.7 190.3 9 .2 9.1 1.7 9 .3 9 3.6 9.1-1 9-.1 9.1-1.5 9-.1 9 .8 9.1-1.2 9 1.5 9-2.1 9.1-1.5 9 1 9.1-.9 9-1.4 9 1.2 9.1-3 9 1.2 9 1.6h9.1l9-1.1 9.1-.1 9 3.2 9 2.4 9.1 1.2 9 2.2 9 .6 9.1 3.7 9-.9 9.1 1.4 9 2.4 9-.7 9.1 1 9-.6 9 .4 9.1.5 9-.3 9.1 3 9 1.6 9 .6 9.1.5 9-2.7h9l9.1-1 9-.1h9l9.1-.5 9-.1h9.1l9-.5 9-.4 9.1-.3 9 1.6 9-1.1 9.1 1.1 9 .7 9.1-1.7 9 1.6 9-.3 9.1-1.6 9-.1 9-1.7 9.1.1 9-2.4 9.1-.9 9-2.3 9-.9 9.1-.5 9-13.9 9-1.4" class="Endocrine-and-nutritional-disorders-border"/><path id="border__Congenital-and-maternal-conditions" fill="none" stroke="#9D774B" stroke-linecap="round" stroke-opacity=".7" stroke-width=".5" d="M55.7 167.3h9l9.1 1.5 9 .7 9 3.1 9.1-.5 9 .2 9.1-1.3 9-.2 9 1 9.1-.3 9 1.7 9-.9 9.1-.5 9 1.5 9.1.8h9l9 2 9.1-1.2 9 1.2 9 1.7 9.1 1.2 9 .3 9.1.8 9 3.5 9 2.8 9.1 1.7 9 2.5 9 .9 9.1 2.2 9-.6 9.1 1.7 9 2.6 9-.2 9.1 1.2 9-.4 9 .7 9.1.6 9-.3 9.1 2.8 9 1.8 9 .9 9.1.8 9-2.3 9 .4 9.1-.6h9l9 .1 9.1-.6 9 .2 9.1.1 9-.4 9-.5 9.1-.2 9 1.5 9-1.1 9.1 1 9 .6 9.1-1.4 9 1.7 9 .1 9.1-1.5 9-.1 9-1.6 9.1.1 9-2.3 9.1-.8 9-2.1 9-.8 9.1-.4 9-13.3 9-1.4" class="Congenital-and-maternal-conditions-border"/><path id="border__Cancer-and-neoplasms" fill="none" stroke="#884783" stroke-linecap="round" stroke-opacity=".7" stroke-width=".5" d="M55.7 106.8H697.3" class="Cancer-and-neoplasms-border"/></g></g></g></g><g id="footer" class="SourcesFooter" style="fill:#5b5b5b"><g id="sources" class="markdown-text-wrap"><text x="16" y="562.7" style="font-size:13.5px;line-height:1.2"><tspan x="16" y="562.7"><tspan style="font-weight:700">Data source:</tspan> WHO Mortality Database (2024)</tspan></text></g><g id="note" class="markdown-text-wrap"><text x="16" y="580.9" style="font-size:13.5px;line-height:1.2"><tspan x="16" y="580.9"><tspan style="font-weight:700">Note:</tspan> All deaths in a country may not have been registered with a cause of death.</tspan></text></g><text id="origin-url" x="560.4" y="562.7" font-size="13.5"><tspan x="560.36" y="562.7"><a href="https://ourworldindata.org/causes-of-death" style="fill:#5b5b5b" target="_blank">OurWorldinData.org/causes-of-death</a> | <a href="https://creativecommons.org/licenses/by/4.0/" style="fill:#5b5b5b" target="_blank">CC BY</a></tspan></text></g></svg>